G04 EAGLE Gerber RS-274X export*
G75*
%MOMM*%
%FSLAX34Y34*%
%LPD*%
%INSolder side*%
%IPPOS*%
%AMOC8*
5,1,8,0,0,1.08239X$1,22.5*%
G01*
%ADD10R,0.400000X1.200000*%
%ADD11R,1.500000X1.300000*%
%ADD12R,0.890000X4.000000*%
%ADD13R,1.220000X0.910000*%
%ADD14R,1.300000X1.500000*%
%ADD15R,0.700000X0.900000*%
%ADD16C,1.016000*%
%ADD17C,0.152400*%
%ADD18C,0.650000*%
%ADD19C,0.609600*%
%ADD20C,0.406400*%

G36*
X700668Y1131339D02*
X700668Y1131339D01*
X700686Y1131337D01*
X700868Y1131358D01*
X701051Y1131377D01*
X701068Y1131382D01*
X701085Y1131384D01*
X701260Y1131441D01*
X701436Y1131495D01*
X701451Y1131503D01*
X701468Y1131509D01*
X701628Y1131599D01*
X701790Y1131687D01*
X701803Y1131698D01*
X701819Y1131707D01*
X701958Y1131827D01*
X702099Y1131944D01*
X702110Y1131958D01*
X702124Y1131970D01*
X702236Y1132115D01*
X702351Y1132258D01*
X702359Y1132274D01*
X702370Y1132288D01*
X702452Y1132453D01*
X702537Y1132615D01*
X702542Y1132632D01*
X702550Y1132649D01*
X702597Y1132827D01*
X702648Y1133002D01*
X702650Y1133020D01*
X702654Y1133037D01*
X702681Y1133368D01*
X702681Y1625818D01*
X702679Y1625836D01*
X702681Y1625854D01*
X702660Y1626036D01*
X702641Y1626219D01*
X702636Y1626236D01*
X702634Y1626253D01*
X702577Y1626428D01*
X702523Y1626604D01*
X702515Y1626619D01*
X702509Y1626636D01*
X702419Y1626796D01*
X702331Y1626958D01*
X702320Y1626971D01*
X702311Y1626987D01*
X702191Y1627126D01*
X702074Y1627267D01*
X702060Y1627278D01*
X702048Y1627292D01*
X701903Y1627404D01*
X701760Y1627519D01*
X701744Y1627527D01*
X701730Y1627538D01*
X701565Y1627620D01*
X701403Y1627705D01*
X701386Y1627710D01*
X701370Y1627718D01*
X701191Y1627765D01*
X701016Y1627816D01*
X700998Y1627818D01*
X700981Y1627822D01*
X700650Y1627849D01*
X357712Y1627849D01*
X357694Y1627847D01*
X357676Y1627849D01*
X357494Y1627828D01*
X357311Y1627809D01*
X357294Y1627804D01*
X357277Y1627802D01*
X357102Y1627745D01*
X356926Y1627691D01*
X356911Y1627683D01*
X356894Y1627677D01*
X356734Y1627587D01*
X356572Y1627499D01*
X356559Y1627488D01*
X356543Y1627479D01*
X356404Y1627359D01*
X356263Y1627242D01*
X356252Y1627228D01*
X356238Y1627216D01*
X356126Y1627071D01*
X356011Y1626928D01*
X356003Y1626912D01*
X355992Y1626898D01*
X355910Y1626733D01*
X355825Y1626571D01*
X355820Y1626554D01*
X355812Y1626538D01*
X355765Y1626359D01*
X355714Y1626184D01*
X355712Y1626166D01*
X355708Y1626149D01*
X355681Y1625818D01*
X355681Y1618566D01*
X355684Y1618535D01*
X355682Y1618504D01*
X355704Y1618334D01*
X355721Y1618165D01*
X355730Y1618136D01*
X355734Y1618105D01*
X355835Y1617789D01*
X356501Y1616182D01*
X356501Y1603104D01*
X354978Y1599428D01*
X352165Y1596615D01*
X348489Y1595092D01*
X345083Y1595092D01*
X345052Y1595089D01*
X345021Y1595091D01*
X344852Y1595069D01*
X344683Y1595052D01*
X344653Y1595043D01*
X344622Y1595039D01*
X344306Y1594938D01*
X343400Y1594562D01*
X337400Y1594562D01*
X336494Y1594938D01*
X336464Y1594947D01*
X336436Y1594961D01*
X336271Y1595005D01*
X336109Y1595054D01*
X336078Y1595057D01*
X336047Y1595065D01*
X335717Y1595092D01*
X332311Y1595092D01*
X328635Y1596615D01*
X325822Y1599428D01*
X324299Y1603104D01*
X324299Y1616182D01*
X325365Y1618754D01*
X325374Y1618784D01*
X325388Y1618812D01*
X325432Y1618977D01*
X325481Y1619140D01*
X325484Y1619171D01*
X325492Y1619201D01*
X325519Y1619532D01*
X325519Y1625818D01*
X325517Y1625836D01*
X325519Y1625854D01*
X325498Y1626036D01*
X325479Y1626219D01*
X325474Y1626236D01*
X325472Y1626253D01*
X325415Y1626428D01*
X325361Y1626604D01*
X325353Y1626619D01*
X325347Y1626636D01*
X325257Y1626796D01*
X325169Y1626958D01*
X325158Y1626971D01*
X325149Y1626987D01*
X325029Y1627126D01*
X324912Y1627267D01*
X324898Y1627278D01*
X324886Y1627292D01*
X324741Y1627404D01*
X324598Y1627519D01*
X324582Y1627527D01*
X324568Y1627538D01*
X324403Y1627620D01*
X324241Y1627705D01*
X324224Y1627710D01*
X324208Y1627718D01*
X324029Y1627765D01*
X323854Y1627816D01*
X323836Y1627818D01*
X323819Y1627822D01*
X323488Y1627849D01*
X113600Y1627849D01*
X113582Y1627847D01*
X113564Y1627849D01*
X113382Y1627828D01*
X113199Y1627809D01*
X113182Y1627804D01*
X113165Y1627802D01*
X112990Y1627745D01*
X112814Y1627691D01*
X112799Y1627683D01*
X112782Y1627677D01*
X112622Y1627587D01*
X112460Y1627499D01*
X112447Y1627488D01*
X112431Y1627479D01*
X112292Y1627359D01*
X112151Y1627242D01*
X112140Y1627228D01*
X112127Y1627216D01*
X112014Y1627071D01*
X111899Y1626928D01*
X111891Y1626912D01*
X111880Y1626898D01*
X111798Y1626733D01*
X111713Y1626571D01*
X111708Y1626554D01*
X111700Y1626538D01*
X111653Y1626359D01*
X111602Y1626184D01*
X111600Y1626166D01*
X111596Y1626149D01*
X111569Y1625818D01*
X111569Y1133368D01*
X111571Y1133350D01*
X111569Y1133332D01*
X111590Y1133150D01*
X111609Y1132967D01*
X111614Y1132950D01*
X111616Y1132933D01*
X111673Y1132758D01*
X111727Y1132582D01*
X111735Y1132567D01*
X111741Y1132550D01*
X111831Y1132390D01*
X111919Y1132228D01*
X111930Y1132215D01*
X111939Y1132199D01*
X112059Y1132060D01*
X112176Y1131919D01*
X112190Y1131908D01*
X112202Y1131895D01*
X112347Y1131782D01*
X112490Y1131667D01*
X112506Y1131659D01*
X112520Y1131648D01*
X112685Y1131566D01*
X112847Y1131481D01*
X112864Y1131476D01*
X112881Y1131468D01*
X113059Y1131421D01*
X113234Y1131370D01*
X113252Y1131368D01*
X113269Y1131364D01*
X113600Y1131337D01*
X700650Y1131337D01*
X700668Y1131339D01*
G37*
G36*
X154389Y10001D02*
X154389Y10001D01*
X154396Y10001D01*
X154592Y10022D01*
X154783Y10041D01*
X154790Y10043D01*
X154796Y10043D01*
X154982Y10102D01*
X155168Y10159D01*
X155174Y10162D01*
X155180Y10164D01*
X155351Y10258D01*
X155522Y10351D01*
X155527Y10355D01*
X155533Y10358D01*
X155683Y10485D01*
X155831Y10608D01*
X155836Y10614D01*
X155841Y10618D01*
X155961Y10770D01*
X156084Y10922D01*
X156087Y10928D01*
X156091Y10933D01*
X156179Y11106D01*
X156269Y11279D01*
X156271Y11286D01*
X156274Y11292D01*
X156327Y11478D01*
X156381Y11666D01*
X156381Y11673D01*
X156383Y11679D01*
X156398Y11872D01*
X156414Y12068D01*
X156413Y12074D01*
X156413Y12081D01*
X156389Y12274D01*
X156367Y12467D01*
X156365Y12474D01*
X156364Y12480D01*
X156303Y12663D01*
X156242Y12850D01*
X156238Y12856D01*
X156236Y12862D01*
X156141Y13029D01*
X156044Y13201D01*
X156039Y13206D01*
X156036Y13212D01*
X155909Y13357D01*
X155781Y13505D01*
X155775Y13510D01*
X155771Y13515D01*
X155511Y13721D01*
X152640Y15640D01*
X147931Y22687D01*
X146277Y31000D01*
X147931Y39313D01*
X152640Y46360D01*
X159687Y51069D01*
X168000Y52723D01*
X176313Y51069D01*
X183360Y46360D01*
X188069Y39313D01*
X189723Y31000D01*
X188069Y22687D01*
X183360Y15640D01*
X180489Y13721D01*
X180484Y13717D01*
X180478Y13713D01*
X180330Y13591D01*
X180178Y13465D01*
X180174Y13460D01*
X180169Y13456D01*
X180048Y13306D01*
X179924Y13153D01*
X179920Y13147D01*
X179916Y13142D01*
X179828Y12971D01*
X179736Y12797D01*
X179734Y12790D01*
X179731Y12785D01*
X179677Y12597D01*
X179622Y12411D01*
X179621Y12404D01*
X179619Y12398D01*
X179603Y12202D01*
X179586Y12010D01*
X179587Y12003D01*
X179586Y11996D01*
X179609Y11803D01*
X179631Y11610D01*
X179633Y11603D01*
X179633Y11597D01*
X179694Y11410D01*
X179753Y11226D01*
X179756Y11220D01*
X179758Y11214D01*
X179854Y11044D01*
X179948Y10874D01*
X179953Y10869D01*
X179956Y10863D01*
X180082Y10718D01*
X180210Y10568D01*
X180215Y10563D01*
X180219Y10558D01*
X180371Y10441D01*
X180526Y10319D01*
X180532Y10316D01*
X180537Y10312D01*
X180712Y10225D01*
X180885Y10137D01*
X180892Y10135D01*
X180898Y10132D01*
X181087Y10082D01*
X181274Y10030D01*
X181280Y10030D01*
X181287Y10028D01*
X181617Y10001D01*
X644383Y10001D01*
X644389Y10001D01*
X644396Y10001D01*
X644592Y10022D01*
X644783Y10041D01*
X644790Y10043D01*
X644796Y10043D01*
X644982Y10102D01*
X645168Y10159D01*
X645174Y10162D01*
X645180Y10164D01*
X645351Y10258D01*
X645522Y10351D01*
X645527Y10355D01*
X645533Y10358D01*
X645683Y10485D01*
X645831Y10608D01*
X645836Y10614D01*
X645841Y10618D01*
X645961Y10770D01*
X646084Y10922D01*
X646087Y10928D01*
X646091Y10933D01*
X646179Y11106D01*
X646269Y11279D01*
X646271Y11286D01*
X646274Y11292D01*
X646327Y11478D01*
X646381Y11666D01*
X646381Y11673D01*
X646383Y11679D01*
X646398Y11872D01*
X646414Y12068D01*
X646413Y12074D01*
X646413Y12081D01*
X646389Y12274D01*
X646367Y12467D01*
X646365Y12474D01*
X646364Y12480D01*
X646303Y12663D01*
X646242Y12850D01*
X646238Y12856D01*
X646236Y12862D01*
X646141Y13029D01*
X646044Y13201D01*
X646039Y13206D01*
X646036Y13212D01*
X645909Y13357D01*
X645781Y13505D01*
X645775Y13510D01*
X645771Y13515D01*
X645511Y13721D01*
X642640Y15640D01*
X637931Y22687D01*
X636277Y31000D01*
X637931Y39313D01*
X640145Y42627D01*
X640151Y42637D01*
X640158Y42646D01*
X640245Y42815D01*
X640335Y42983D01*
X640338Y42993D01*
X640343Y43003D01*
X640396Y43186D01*
X640450Y43368D01*
X640451Y43380D01*
X640454Y43390D01*
X640470Y43579D01*
X640488Y43769D01*
X640486Y43780D01*
X640487Y43792D01*
X640465Y43979D01*
X640445Y44170D01*
X640442Y44180D01*
X640440Y44191D01*
X640382Y44372D01*
X640324Y44554D01*
X640319Y44564D01*
X640316Y44574D01*
X640222Y44740D01*
X640130Y44907D01*
X640123Y44915D01*
X640118Y44925D01*
X639993Y45069D01*
X639871Y45214D01*
X639862Y45221D01*
X639855Y45230D01*
X639705Y45346D01*
X639555Y45464D01*
X639545Y45470D01*
X639536Y45476D01*
X639366Y45561D01*
X639197Y45648D01*
X639186Y45651D01*
X639176Y45656D01*
X638991Y45705D01*
X638809Y45756D01*
X638798Y45757D01*
X638787Y45760D01*
X638456Y45787D01*
X468427Y45787D01*
X462884Y48083D01*
X462261Y48707D01*
X539900Y48707D01*
X539920Y48710D01*
X539939Y48708D01*
X540041Y48730D01*
X540143Y48747D01*
X540160Y48756D01*
X540180Y48760D01*
X540269Y48813D01*
X540360Y48862D01*
X540374Y48876D01*
X540391Y48886D01*
X540458Y48965D01*
X540530Y49040D01*
X540538Y49058D01*
X540551Y49073D01*
X540590Y49169D01*
X540633Y49263D01*
X540635Y49283D01*
X540643Y49301D01*
X540661Y49468D01*
X540661Y51978D01*
X540658Y51998D01*
X540660Y52017D01*
X540638Y52119D01*
X540622Y52221D01*
X540612Y52238D01*
X540608Y52258D01*
X540555Y52347D01*
X540506Y52438D01*
X540492Y52452D01*
X540482Y52469D01*
X540403Y52536D01*
X540328Y52608D01*
X540310Y52616D01*
X540295Y52629D01*
X540199Y52668D01*
X540105Y52711D01*
X540085Y52713D01*
X540067Y52721D01*
X539900Y52739D01*
X469810Y52739D01*
X466822Y53977D01*
X464429Y56370D01*
X464429Y56371D01*
X458503Y62297D01*
X456109Y64690D01*
X454871Y67678D01*
X454871Y90068D01*
X454857Y90158D01*
X454849Y90249D01*
X454837Y90278D01*
X454832Y90310D01*
X454789Y90391D01*
X454753Y90475D01*
X454727Y90507D01*
X454716Y90528D01*
X454693Y90550D01*
X454648Y90606D01*
X451798Y93456D01*
X451740Y93498D01*
X451688Y93547D01*
X451641Y93569D01*
X451599Y93600D01*
X451530Y93621D01*
X451465Y93651D01*
X451413Y93657D01*
X451363Y93672D01*
X451292Y93670D01*
X451221Y93678D01*
X451170Y93667D01*
X451118Y93666D01*
X451050Y93641D01*
X450980Y93626D01*
X450936Y93599D01*
X450887Y93581D01*
X450831Y93536D01*
X450769Y93499D01*
X450735Y93460D01*
X450695Y93427D01*
X450656Y93367D01*
X450609Y93313D01*
X450590Y93264D01*
X450562Y93220D01*
X450544Y93151D01*
X450517Y93084D01*
X450509Y93013D01*
X450501Y92982D01*
X450503Y92959D01*
X450499Y92918D01*
X450499Y92487D01*
X448713Y90701D01*
X437287Y90701D01*
X435501Y92487D01*
X435501Y110461D01*
X435491Y110525D01*
X435490Y110591D01*
X435467Y110671D01*
X435462Y110703D01*
X435452Y110721D01*
X435443Y110752D01*
X434871Y112133D01*
X434871Y115367D01*
X435443Y116748D01*
X435458Y116812D01*
X435483Y116873D01*
X435492Y116955D01*
X435499Y116987D01*
X435498Y117007D01*
X435501Y117039D01*
X435501Y135013D01*
X437287Y136799D01*
X448713Y136799D01*
X450499Y135013D01*
X450499Y118062D01*
X450513Y117972D01*
X450521Y117881D01*
X450533Y117852D01*
X450538Y117820D01*
X450581Y117739D01*
X450617Y117655D01*
X450643Y117623D01*
X450654Y117602D01*
X450677Y117580D01*
X450722Y117524D01*
X455579Y112667D01*
X455595Y112655D01*
X455607Y112640D01*
X455695Y112584D01*
X455779Y112523D01*
X455797Y112518D01*
X455814Y112507D01*
X455915Y112481D01*
X456014Y112451D01*
X456034Y112452D01*
X456053Y112447D01*
X456156Y112455D01*
X456260Y112457D01*
X456278Y112464D01*
X456298Y112466D01*
X456393Y112506D01*
X456491Y112542D01*
X456506Y112554D01*
X456524Y112562D01*
X456655Y112667D01*
X457287Y113299D01*
X468713Y113299D01*
X470499Y111513D01*
X470499Y97424D01*
X470502Y97406D01*
X470500Y97387D01*
X470509Y97343D01*
X470510Y97294D01*
X470533Y97214D01*
X470538Y97182D01*
X470548Y97165D01*
X470550Y97156D01*
X470552Y97147D01*
X470553Y97145D01*
X470557Y97133D01*
X470791Y96567D01*
X470791Y96566D01*
X471401Y95095D01*
X471401Y93481D01*
X471401Y91861D01*
X471187Y91343D01*
X471172Y91279D01*
X471147Y91218D01*
X471138Y91136D01*
X471131Y91104D01*
X471132Y91084D01*
X471129Y91052D01*
X471129Y72977D01*
X471143Y72887D01*
X471151Y72796D01*
X471163Y72767D01*
X471168Y72735D01*
X471211Y72654D01*
X471247Y72570D01*
X471273Y72538D01*
X471284Y72517D01*
X471307Y72495D01*
X471352Y72439D01*
X474571Y69220D01*
X474645Y69167D01*
X474714Y69107D01*
X474745Y69095D01*
X474771Y69076D01*
X474858Y69049D01*
X474943Y69015D01*
X474984Y69011D01*
X475006Y69004D01*
X475038Y69005D01*
X475109Y68997D01*
X494740Y68997D01*
X494760Y69000D01*
X494779Y68998D01*
X494881Y69020D01*
X494983Y69036D01*
X495000Y69046D01*
X495020Y69050D01*
X495109Y69103D01*
X495200Y69152D01*
X495214Y69166D01*
X495231Y69176D01*
X495298Y69255D01*
X495370Y69330D01*
X495378Y69348D01*
X495391Y69363D01*
X495430Y69459D01*
X495473Y69553D01*
X495475Y69573D01*
X495483Y69591D01*
X495501Y69758D01*
X495501Y111513D01*
X497287Y113299D01*
X508713Y113299D01*
X510499Y111513D01*
X510499Y69758D01*
X510502Y69738D01*
X510500Y69719D01*
X510522Y69617D01*
X510538Y69515D01*
X510548Y69498D01*
X510552Y69478D01*
X510605Y69389D01*
X510654Y69298D01*
X510668Y69284D01*
X510678Y69267D01*
X510757Y69200D01*
X510832Y69128D01*
X510850Y69120D01*
X510865Y69107D01*
X510961Y69068D01*
X511055Y69025D01*
X511075Y69023D01*
X511093Y69015D01*
X511260Y68997D01*
X539900Y68997D01*
X539920Y69000D01*
X539939Y68998D01*
X540041Y69020D01*
X540143Y69036D01*
X540160Y69046D01*
X540180Y69050D01*
X540269Y69103D01*
X540360Y69152D01*
X540374Y69166D01*
X540391Y69176D01*
X540458Y69255D01*
X540530Y69330D01*
X540538Y69348D01*
X540551Y69363D01*
X540590Y69459D01*
X540633Y69553D01*
X540635Y69573D01*
X540643Y69591D01*
X540661Y69758D01*
X540661Y75949D01*
X676812Y75949D01*
X676839Y75951D01*
X676865Y75949D01*
X677039Y75971D01*
X677213Y75989D01*
X677238Y75996D01*
X677265Y76000D01*
X677430Y76055D01*
X677598Y76107D01*
X677621Y76120D01*
X677646Y76128D01*
X677798Y76215D01*
X677952Y76299D01*
X677972Y76316D01*
X677995Y76329D01*
X678248Y76544D01*
X703440Y101736D01*
X703457Y101756D01*
X703478Y101774D01*
X703585Y101912D01*
X703695Y102047D01*
X703708Y102071D01*
X703724Y102092D01*
X703802Y102249D01*
X703884Y102403D01*
X703892Y102428D01*
X703904Y102453D01*
X703949Y102622D01*
X703999Y102789D01*
X704001Y102815D01*
X704008Y102841D01*
X704035Y103172D01*
X704035Y519368D01*
X704033Y519386D01*
X704035Y519404D01*
X704014Y519586D01*
X703995Y519769D01*
X703990Y519786D01*
X703988Y519803D01*
X703931Y519978D01*
X703877Y520154D01*
X703869Y520169D01*
X703863Y520186D01*
X703773Y520346D01*
X703685Y520508D01*
X703674Y520521D01*
X703665Y520537D01*
X703545Y520676D01*
X703428Y520817D01*
X703414Y520828D01*
X703402Y520842D01*
X703257Y520954D01*
X703114Y521069D01*
X703098Y521077D01*
X703084Y521088D01*
X702919Y521170D01*
X702757Y521255D01*
X702740Y521260D01*
X702724Y521268D01*
X702545Y521315D01*
X702370Y521366D01*
X702352Y521368D01*
X702335Y521372D01*
X702004Y521399D01*
X361212Y521399D01*
X361194Y521397D01*
X361176Y521399D01*
X360994Y521378D01*
X360811Y521359D01*
X360794Y521354D01*
X360777Y521352D01*
X360602Y521295D01*
X360426Y521241D01*
X360411Y521233D01*
X360394Y521227D01*
X360234Y521137D01*
X360072Y521049D01*
X360059Y521038D01*
X360043Y521029D01*
X359904Y520909D01*
X359763Y520792D01*
X359752Y520778D01*
X359738Y520766D01*
X359626Y520621D01*
X359511Y520478D01*
X359503Y520462D01*
X359492Y520448D01*
X359410Y520283D01*
X359325Y520121D01*
X359320Y520104D01*
X359312Y520088D01*
X359265Y519909D01*
X359214Y519734D01*
X359212Y519716D01*
X359208Y519699D01*
X359181Y519368D01*
X359181Y507449D01*
X359184Y507418D01*
X359182Y507387D01*
X359204Y507217D01*
X359221Y507048D01*
X359230Y507018D01*
X359234Y506987D01*
X359335Y506672D01*
X360201Y504582D01*
X360201Y491504D01*
X358678Y487828D01*
X355865Y485015D01*
X352189Y483492D01*
X348783Y483492D01*
X348752Y483489D01*
X348721Y483491D01*
X348552Y483469D01*
X348383Y483452D01*
X348353Y483443D01*
X348322Y483439D01*
X348006Y483338D01*
X347100Y482962D01*
X341100Y482962D01*
X340194Y483338D01*
X340164Y483347D01*
X340136Y483361D01*
X339972Y483405D01*
X339809Y483454D01*
X339778Y483457D01*
X339747Y483465D01*
X339417Y483492D01*
X336011Y483492D01*
X332335Y485015D01*
X329522Y487828D01*
X327999Y491504D01*
X327999Y504582D01*
X328865Y506672D01*
X328874Y506701D01*
X328888Y506729D01*
X328932Y506894D01*
X328981Y507057D01*
X328984Y507088D01*
X328992Y507118D01*
X329019Y507449D01*
X329019Y519368D01*
X329017Y519386D01*
X329019Y519404D01*
X328998Y519586D01*
X328979Y519769D01*
X328974Y519786D01*
X328972Y519803D01*
X328915Y519978D01*
X328861Y520154D01*
X328853Y520169D01*
X328847Y520186D01*
X328757Y520346D01*
X328669Y520508D01*
X328658Y520521D01*
X328649Y520537D01*
X328529Y520676D01*
X328412Y520817D01*
X328398Y520828D01*
X328386Y520842D01*
X328241Y520954D01*
X328098Y521069D01*
X328082Y521077D01*
X328068Y521088D01*
X327903Y521170D01*
X327741Y521255D01*
X327724Y521260D01*
X327708Y521268D01*
X327529Y521315D01*
X327354Y521366D01*
X327336Y521368D01*
X327319Y521372D01*
X326988Y521399D01*
X125400Y521399D01*
X125382Y521397D01*
X125364Y521399D01*
X125182Y521378D01*
X124999Y521359D01*
X124982Y521354D01*
X124965Y521352D01*
X124790Y521295D01*
X124614Y521241D01*
X124599Y521233D01*
X124582Y521227D01*
X124422Y521137D01*
X124260Y521049D01*
X124247Y521038D01*
X124231Y521029D01*
X124092Y520909D01*
X123951Y520792D01*
X123940Y520778D01*
X123927Y520766D01*
X123814Y520621D01*
X123699Y520478D01*
X123691Y520462D01*
X123680Y520448D01*
X123598Y520283D01*
X123513Y520121D01*
X123508Y520104D01*
X123500Y520088D01*
X123453Y519909D01*
X123402Y519734D01*
X123400Y519716D01*
X123396Y519699D01*
X123369Y519368D01*
X123369Y12032D01*
X123371Y12014D01*
X123369Y11996D01*
X123390Y11814D01*
X123409Y11631D01*
X123414Y11614D01*
X123416Y11597D01*
X123473Y11422D01*
X123527Y11246D01*
X123535Y11231D01*
X123541Y11214D01*
X123631Y11054D01*
X123719Y10892D01*
X123730Y10879D01*
X123739Y10863D01*
X123859Y10724D01*
X123976Y10583D01*
X123990Y10572D01*
X124002Y10558D01*
X124147Y10446D01*
X124290Y10331D01*
X124306Y10323D01*
X124320Y10312D01*
X124485Y10230D01*
X124647Y10145D01*
X124664Y10140D01*
X124681Y10132D01*
X124859Y10085D01*
X125034Y10034D01*
X125052Y10032D01*
X125069Y10028D01*
X125400Y10001D01*
X154383Y10001D01*
X154389Y10001D01*
G37*
G36*
X698414Y596530D02*
X698414Y596530D01*
X698528Y596529D01*
X698659Y596550D01*
X698792Y596561D01*
X698902Y596588D01*
X699015Y596606D01*
X699142Y596647D01*
X699271Y596679D01*
X699375Y596724D01*
X699484Y596760D01*
X699602Y596822D01*
X699724Y596874D01*
X699820Y596935D01*
X699922Y596988D01*
X699995Y597047D01*
X700140Y597139D01*
X700382Y597355D01*
X700455Y597413D01*
X701055Y598013D01*
X701129Y598100D01*
X701210Y598181D01*
X701288Y598288D01*
X701374Y598389D01*
X701433Y598487D01*
X701500Y598579D01*
X701560Y598698D01*
X701629Y598812D01*
X701671Y598918D01*
X701723Y599020D01*
X701763Y599147D01*
X701812Y599270D01*
X701837Y599381D01*
X701871Y599490D01*
X701881Y599584D01*
X701919Y599752D01*
X701937Y600076D01*
X701947Y600168D01*
X701947Y946768D01*
X701938Y946882D01*
X701939Y946996D01*
X701918Y947127D01*
X701907Y947260D01*
X701880Y947370D01*
X701862Y947483D01*
X701821Y947610D01*
X701789Y947739D01*
X701744Y947843D01*
X701708Y947952D01*
X701646Y948070D01*
X701594Y948192D01*
X701533Y948288D01*
X701480Y948390D01*
X701421Y948463D01*
X701329Y948608D01*
X701113Y948850D01*
X701055Y948923D01*
X699755Y950223D01*
X699668Y950297D01*
X699587Y950378D01*
X699480Y950456D01*
X699379Y950542D01*
X699281Y950601D01*
X699189Y950668D01*
X699070Y950728D01*
X698956Y950797D01*
X698850Y950839D01*
X698748Y950891D01*
X698621Y950931D01*
X698498Y950980D01*
X698387Y951005D01*
X698278Y951039D01*
X698184Y951049D01*
X698017Y951087D01*
X697692Y951105D01*
X697600Y951115D01*
X141800Y951115D01*
X141724Y951109D01*
X141648Y951111D01*
X141479Y951089D01*
X141308Y951075D01*
X141234Y951057D01*
X141159Y951047D01*
X140995Y950998D01*
X140829Y950957D01*
X140760Y950927D01*
X140687Y950905D01*
X140533Y950829D01*
X140376Y950762D01*
X140312Y950721D01*
X140243Y950688D01*
X140104Y950589D01*
X139960Y950497D01*
X139903Y950446D01*
X139841Y950402D01*
X139720Y950282D01*
X139592Y950168D01*
X139544Y950109D01*
X139490Y950055D01*
X139389Y949917D01*
X139282Y949784D01*
X139245Y949718D01*
X139200Y949657D01*
X139123Y949504D01*
X139038Y949356D01*
X139012Y949284D01*
X138977Y949216D01*
X138926Y949053D01*
X138867Y948893D01*
X138852Y948818D01*
X138829Y948746D01*
X138817Y948641D01*
X138772Y948409D01*
X138765Y948173D01*
X138753Y948068D01*
X138753Y600668D01*
X138762Y600554D01*
X138761Y600440D01*
X138782Y600309D01*
X138793Y600176D01*
X138820Y600066D01*
X138838Y599953D01*
X138879Y599826D01*
X138911Y599697D01*
X138956Y599593D01*
X138992Y599484D01*
X139054Y599366D01*
X139106Y599244D01*
X139167Y599148D01*
X139220Y599046D01*
X139279Y598973D01*
X139371Y598828D01*
X139587Y598586D01*
X139645Y598513D01*
X140745Y597413D01*
X140832Y597339D01*
X140913Y597258D01*
X141020Y597180D01*
X141121Y597094D01*
X141219Y597035D01*
X141311Y596968D01*
X141430Y596908D01*
X141544Y596839D01*
X141650Y596797D01*
X141752Y596745D01*
X141879Y596705D01*
X142002Y596656D01*
X142113Y596631D01*
X142222Y596597D01*
X142316Y596587D01*
X142484Y596549D01*
X142808Y596531D01*
X142900Y596521D01*
X698300Y596521D01*
X698414Y596530D01*
G37*
G36*
X698014Y1716030D02*
X698014Y1716030D01*
X698128Y1716029D01*
X698259Y1716050D01*
X698392Y1716061D01*
X698502Y1716088D01*
X698615Y1716106D01*
X698742Y1716147D01*
X698871Y1716179D01*
X698975Y1716224D01*
X699084Y1716260D01*
X699202Y1716322D01*
X699324Y1716374D01*
X699420Y1716435D01*
X699522Y1716488D01*
X699595Y1716547D01*
X699740Y1716639D01*
X699982Y1716855D01*
X700055Y1716913D01*
X700455Y1717313D01*
X700529Y1717400D01*
X700610Y1717481D01*
X700688Y1717588D01*
X700774Y1717689D01*
X700833Y1717787D01*
X700900Y1717879D01*
X700960Y1717998D01*
X701029Y1718112D01*
X701071Y1718218D01*
X701123Y1718320D01*
X701163Y1718447D01*
X701212Y1718570D01*
X701237Y1718681D01*
X701271Y1718790D01*
X701281Y1718884D01*
X701319Y1719052D01*
X701337Y1719376D01*
X701347Y1719468D01*
X701347Y2065668D01*
X701341Y2065744D01*
X701343Y2065820D01*
X701321Y2065989D01*
X701307Y2066160D01*
X701289Y2066234D01*
X701279Y2066309D01*
X701230Y2066473D01*
X701189Y2066639D01*
X701159Y2066708D01*
X701137Y2066782D01*
X701061Y2066935D01*
X700994Y2067092D01*
X700953Y2067156D01*
X700920Y2067225D01*
X700821Y2067364D01*
X700729Y2067508D01*
X700678Y2067565D01*
X700634Y2067627D01*
X700514Y2067748D01*
X700400Y2067876D01*
X700341Y2067924D01*
X700287Y2067978D01*
X700149Y2068079D01*
X700016Y2068186D01*
X699950Y2068223D01*
X699889Y2068268D01*
X699736Y2068345D01*
X699588Y2068430D01*
X699516Y2068456D01*
X699448Y2068491D01*
X699285Y2068542D01*
X699125Y2068601D01*
X699050Y2068616D01*
X698978Y2068639D01*
X698873Y2068651D01*
X698641Y2068696D01*
X698405Y2068703D01*
X698300Y2068715D01*
X142900Y2068715D01*
X142824Y2068709D01*
X142748Y2068711D01*
X142579Y2068689D01*
X142408Y2068675D01*
X142334Y2068657D01*
X142259Y2068647D01*
X142095Y2068598D01*
X141929Y2068557D01*
X141860Y2068527D01*
X141787Y2068505D01*
X141633Y2068429D01*
X141476Y2068362D01*
X141412Y2068321D01*
X141343Y2068288D01*
X141204Y2068189D01*
X141060Y2068097D01*
X141003Y2068046D01*
X140941Y2068002D01*
X140820Y2067882D01*
X140692Y2067768D01*
X140644Y2067709D01*
X140590Y2067655D01*
X140489Y2067517D01*
X140382Y2067384D01*
X140345Y2067318D01*
X140300Y2067257D01*
X140223Y2067104D01*
X140138Y2066956D01*
X140112Y2066884D01*
X140077Y2066816D01*
X140026Y2066653D01*
X139967Y2066493D01*
X139952Y2066418D01*
X139929Y2066346D01*
X139917Y2066241D01*
X139872Y2066009D01*
X139865Y2065773D01*
X139853Y2065668D01*
X139853Y1720168D01*
X139862Y1720054D01*
X139861Y1719940D01*
X139882Y1719809D01*
X139893Y1719676D01*
X139920Y1719566D01*
X139938Y1719453D01*
X139979Y1719326D01*
X140011Y1719197D01*
X140056Y1719093D01*
X140092Y1718984D01*
X140154Y1718866D01*
X140206Y1718744D01*
X140267Y1718648D01*
X140320Y1718546D01*
X140379Y1718473D01*
X140471Y1718328D01*
X140687Y1718086D01*
X140745Y1718013D01*
X141845Y1716913D01*
X141932Y1716839D01*
X142013Y1716758D01*
X142120Y1716680D01*
X142221Y1716594D01*
X142319Y1716535D01*
X142411Y1716468D01*
X142530Y1716408D01*
X142644Y1716339D01*
X142750Y1716297D01*
X142852Y1716245D01*
X142979Y1716205D01*
X143102Y1716156D01*
X143213Y1716131D01*
X143322Y1716097D01*
X143416Y1716087D01*
X143584Y1716049D01*
X143908Y1716031D01*
X144000Y1716021D01*
X697900Y1716021D01*
X698014Y1716030D01*
G37*
%LPC*%
G36*
X317287Y90701D02*
X317287Y90701D01*
X315501Y92487D01*
X315501Y133266D01*
X315487Y133356D01*
X315479Y133447D01*
X315467Y133477D01*
X315462Y133509D01*
X315419Y133590D01*
X315383Y133674D01*
X315357Y133706D01*
X315346Y133726D01*
X315323Y133749D01*
X315278Y133805D01*
X314468Y134615D01*
X314394Y134668D01*
X314324Y134728D01*
X314294Y134740D01*
X314268Y134759D01*
X314181Y134785D01*
X314096Y134820D01*
X314055Y134824D01*
X314033Y134831D01*
X314001Y134830D01*
X313930Y134838D01*
X309437Y134838D01*
X309430Y134841D01*
X309348Y134850D01*
X309316Y134857D01*
X309296Y134856D01*
X309264Y134859D01*
X285400Y134859D01*
X285380Y134856D01*
X285361Y134858D01*
X285259Y134836D01*
X285157Y134820D01*
X285140Y134810D01*
X285120Y134806D01*
X285031Y134753D01*
X284940Y134704D01*
X284926Y134690D01*
X284909Y134680D01*
X284842Y134601D01*
X284771Y134526D01*
X284762Y134508D01*
X284749Y134493D01*
X284710Y134397D01*
X284667Y134303D01*
X284665Y134283D01*
X284657Y134265D01*
X284639Y134098D01*
X284639Y127907D01*
X241084Y127907D01*
X241062Y127905D01*
X241040Y127907D01*
X240862Y127885D01*
X240683Y127867D01*
X240662Y127861D01*
X240640Y127858D01*
X240470Y127802D01*
X240298Y127749D01*
X240279Y127739D01*
X240258Y127732D01*
X240102Y127643D01*
X239944Y127557D01*
X239927Y127543D01*
X239908Y127532D01*
X239773Y127414D01*
X239635Y127300D01*
X239621Y127282D01*
X239604Y127268D01*
X239495Y127125D01*
X239383Y126986D01*
X239373Y126966D01*
X239359Y126949D01*
X239207Y126653D01*
X237778Y123203D01*
X234965Y120390D01*
X231674Y119027D01*
X231670Y119025D01*
X231666Y119023D01*
X231493Y118930D01*
X231319Y118836D01*
X231315Y118834D01*
X231312Y118831D01*
X231163Y118707D01*
X231009Y118580D01*
X231006Y118576D01*
X231002Y118574D01*
X230880Y118421D01*
X230755Y118267D01*
X230753Y118263D01*
X230750Y118260D01*
X230659Y118085D01*
X230568Y117911D01*
X230567Y117907D01*
X230565Y117903D01*
X230510Y117713D01*
X230455Y117524D01*
X230454Y117520D01*
X230453Y117516D01*
X230437Y117317D01*
X230420Y117123D01*
X230421Y117119D01*
X230420Y117114D01*
X230443Y116920D01*
X230465Y116723D01*
X230467Y116719D01*
X230467Y116715D01*
X230528Y116529D01*
X230588Y116340D01*
X230591Y116336D01*
X230592Y116332D01*
X230689Y116159D01*
X230785Y115988D01*
X230788Y115985D01*
X230790Y115981D01*
X230921Y115830D01*
X231047Y115683D01*
X231050Y115680D01*
X231053Y115676D01*
X231210Y115555D01*
X231364Y115434D01*
X231368Y115432D01*
X231371Y115430D01*
X231549Y115341D01*
X231723Y115254D01*
X231728Y115252D01*
X231732Y115250D01*
X231841Y115221D01*
X231841Y111533D01*
X231668Y110887D01*
X231333Y110308D01*
X230860Y109835D01*
X230281Y109500D01*
X229635Y109327D01*
X225049Y109327D01*
X225049Y116836D01*
X225047Y116854D01*
X225049Y116872D01*
X225028Y117054D01*
X225009Y117237D01*
X225004Y117254D01*
X225002Y117271D01*
X224945Y117446D01*
X224891Y117622D01*
X224883Y117637D01*
X224877Y117654D01*
X224787Y117814D01*
X224699Y117976D01*
X224688Y117989D01*
X224679Y118005D01*
X224559Y118144D01*
X224442Y118285D01*
X224428Y118296D01*
X224416Y118310D01*
X224271Y118422D01*
X224128Y118537D01*
X224112Y118545D01*
X224098Y118556D01*
X223933Y118638D01*
X223771Y118723D01*
X223754Y118728D01*
X223738Y118736D01*
X223559Y118783D01*
X223384Y118834D01*
X223366Y118836D01*
X223349Y118840D01*
X223018Y118867D01*
X220582Y118867D01*
X220564Y118865D01*
X220546Y118867D01*
X220364Y118846D01*
X220181Y118827D01*
X220164Y118822D01*
X220147Y118820D01*
X219972Y118763D01*
X219796Y118709D01*
X219781Y118701D01*
X219764Y118695D01*
X219604Y118605D01*
X219442Y118517D01*
X219429Y118506D01*
X219413Y118497D01*
X219274Y118377D01*
X219133Y118260D01*
X219122Y118246D01*
X219108Y118234D01*
X218996Y118089D01*
X218881Y117946D01*
X218873Y117930D01*
X218862Y117916D01*
X218780Y117751D01*
X218695Y117589D01*
X218690Y117572D01*
X218682Y117556D01*
X218634Y117377D01*
X218584Y117202D01*
X218582Y117184D01*
X218578Y117167D01*
X218551Y116836D01*
X218551Y109327D01*
X213965Y109327D01*
X213319Y109500D01*
X212740Y109835D01*
X212267Y110308D01*
X211932Y110887D01*
X211759Y111533D01*
X211759Y115223D01*
X211934Y115277D01*
X211938Y115279D01*
X211943Y115280D01*
X212114Y115374D01*
X212288Y115468D01*
X212292Y115471D01*
X212296Y115473D01*
X212445Y115599D01*
X212598Y115726D01*
X212600Y115730D01*
X212604Y115733D01*
X212727Y115887D01*
X212850Y116040D01*
X212852Y116044D01*
X212855Y116047D01*
X212943Y116220D01*
X213035Y116397D01*
X213037Y116402D01*
X213039Y116406D01*
X213092Y116593D01*
X213147Y116784D01*
X213147Y116789D01*
X213148Y116793D01*
X213163Y116981D01*
X213180Y117185D01*
X213179Y117190D01*
X213180Y117194D01*
X213156Y117387D01*
X213133Y117585D01*
X213131Y117590D01*
X213131Y117594D01*
X213070Y117777D01*
X213008Y117968D01*
X213006Y117972D01*
X213004Y117976D01*
X212908Y118145D01*
X212810Y118319D01*
X212807Y118322D01*
X212805Y118326D01*
X212675Y118475D01*
X212547Y118623D01*
X212543Y118626D01*
X212540Y118630D01*
X212384Y118750D01*
X212229Y118870D01*
X212225Y118872D01*
X212221Y118875D01*
X211926Y119027D01*
X208635Y120390D01*
X205822Y123203D01*
X204754Y125781D01*
X204743Y125801D01*
X204736Y125822D01*
X204648Y125979D01*
X204564Y126136D01*
X204549Y126153D01*
X204538Y126173D01*
X204421Y126309D01*
X204307Y126447D01*
X204290Y126461D01*
X204275Y126478D01*
X204134Y126587D01*
X203995Y126700D01*
X203975Y126711D01*
X203957Y126724D01*
X203797Y126804D01*
X203638Y126887D01*
X203617Y126894D01*
X203597Y126904D01*
X203424Y126950D01*
X203252Y127000D01*
X203229Y127002D01*
X203208Y127008D01*
X202877Y127035D01*
X193352Y127035D01*
X193325Y127033D01*
X193299Y127035D01*
X193125Y127013D01*
X192951Y126995D01*
X192926Y126988D01*
X192899Y126984D01*
X192733Y126929D01*
X192566Y126877D01*
X192543Y126864D01*
X192517Y126856D01*
X192366Y126769D01*
X192212Y126685D01*
X192192Y126668D01*
X192169Y126655D01*
X191916Y126440D01*
X190065Y124590D01*
X186389Y123067D01*
X178411Y123067D01*
X174735Y124590D01*
X171922Y127403D01*
X171147Y129273D01*
X171137Y129293D01*
X171130Y129314D01*
X171042Y129470D01*
X170957Y129628D01*
X170943Y129645D01*
X170932Y129665D01*
X170815Y129800D01*
X170700Y129939D01*
X170683Y129953D01*
X170669Y129970D01*
X170527Y130079D01*
X170388Y130192D01*
X170368Y130203D01*
X170350Y130216D01*
X170190Y130296D01*
X170031Y130379D01*
X170010Y130386D01*
X169990Y130396D01*
X169816Y130442D01*
X169645Y130492D01*
X169623Y130494D01*
X169601Y130500D01*
X169270Y130527D01*
X167065Y130527D01*
X166419Y130700D01*
X165840Y131035D01*
X165367Y131508D01*
X165032Y132087D01*
X164859Y132733D01*
X164859Y137037D01*
X168336Y137037D01*
X168354Y137038D01*
X168372Y137037D01*
X168554Y137058D01*
X168737Y137076D01*
X168754Y137082D01*
X168771Y137084D01*
X168946Y137141D01*
X169122Y137195D01*
X169137Y137203D01*
X169154Y137209D01*
X169314Y137299D01*
X169476Y137386D01*
X169489Y137398D01*
X169505Y137407D01*
X169644Y137527D01*
X169785Y137644D01*
X169796Y137658D01*
X169810Y137670D01*
X169922Y137815D01*
X170037Y137958D01*
X170045Y137974D01*
X170056Y137988D01*
X170138Y138153D01*
X170223Y138315D01*
X170228Y138332D01*
X170236Y138348D01*
X170283Y138526D01*
X170334Y138702D01*
X170336Y138720D01*
X170340Y138737D01*
X170367Y139068D01*
X170366Y139086D01*
X170367Y139103D01*
X170367Y139104D01*
X170346Y139286D01*
X170327Y139469D01*
X170322Y139486D01*
X170320Y139504D01*
X170263Y139678D01*
X170209Y139854D01*
X170201Y139869D01*
X170195Y139886D01*
X170105Y140047D01*
X170017Y140208D01*
X170006Y140221D01*
X169997Y140237D01*
X169877Y140376D01*
X169760Y140517D01*
X169746Y140528D01*
X169734Y140542D01*
X169589Y140654D01*
X169446Y140769D01*
X169430Y140778D01*
X169416Y140788D01*
X169251Y140870D01*
X169089Y140955D01*
X169072Y140960D01*
X169056Y140968D01*
X168877Y141016D01*
X168702Y141066D01*
X168684Y141068D01*
X168667Y141072D01*
X168336Y141099D01*
X164859Y141099D01*
X164859Y145403D01*
X165032Y146049D01*
X165367Y146628D01*
X165871Y147132D01*
X165882Y147146D01*
X165895Y147157D01*
X166010Y147301D01*
X166126Y147443D01*
X166134Y147459D01*
X166145Y147473D01*
X166229Y147637D01*
X166314Y147799D01*
X166319Y147816D01*
X166327Y147832D01*
X166377Y148009D01*
X166429Y148185D01*
X166431Y148203D01*
X166435Y148220D01*
X166449Y148403D01*
X166465Y148586D01*
X166463Y148604D01*
X166465Y148621D01*
X166442Y148803D01*
X166422Y148986D01*
X166417Y149003D01*
X166414Y149021D01*
X166356Y149194D01*
X166301Y149370D01*
X166292Y149386D01*
X166286Y149402D01*
X166194Y149562D01*
X166106Y149722D01*
X166094Y149736D01*
X166085Y149751D01*
X165871Y150004D01*
X165367Y150508D01*
X165032Y151087D01*
X164859Y151733D01*
X164859Y156037D01*
X168336Y156037D01*
X168354Y156038D01*
X168372Y156037D01*
X168554Y156058D01*
X168737Y156076D01*
X168754Y156082D01*
X168771Y156084D01*
X168946Y156141D01*
X169122Y156195D01*
X169137Y156203D01*
X169154Y156209D01*
X169314Y156299D01*
X169476Y156386D01*
X169489Y156398D01*
X169505Y156407D01*
X169644Y156527D01*
X169785Y156644D01*
X169796Y156658D01*
X169810Y156670D01*
X169922Y156815D01*
X170037Y156958D01*
X170045Y156974D01*
X170056Y156988D01*
X170138Y157153D01*
X170223Y157315D01*
X170228Y157332D01*
X170236Y157348D01*
X170283Y157526D01*
X170334Y157702D01*
X170336Y157720D01*
X170340Y157737D01*
X170367Y158068D01*
X170366Y158086D01*
X170367Y158103D01*
X170367Y158104D01*
X170346Y158286D01*
X170327Y158469D01*
X170322Y158486D01*
X170320Y158504D01*
X170263Y158678D01*
X170209Y158854D01*
X170201Y158869D01*
X170195Y158886D01*
X170105Y159047D01*
X170017Y159208D01*
X170006Y159221D01*
X169997Y159237D01*
X169877Y159376D01*
X169760Y159517D01*
X169746Y159528D01*
X169734Y159542D01*
X169589Y159654D01*
X169446Y159769D01*
X169430Y159778D01*
X169416Y159788D01*
X169251Y159870D01*
X169089Y159955D01*
X169072Y159960D01*
X169056Y159968D01*
X168877Y160016D01*
X168702Y160066D01*
X168684Y160068D01*
X168667Y160072D01*
X168336Y160099D01*
X164859Y160099D01*
X164859Y164403D01*
X165032Y165049D01*
X165367Y165628D01*
X165840Y166101D01*
X166419Y166436D01*
X167065Y166609D01*
X169270Y166609D01*
X169293Y166611D01*
X169315Y166609D01*
X169492Y166631D01*
X169671Y166649D01*
X169692Y166655D01*
X169715Y166658D01*
X169884Y166714D01*
X170056Y166767D01*
X170076Y166777D01*
X170097Y166784D01*
X170252Y166873D01*
X170410Y166959D01*
X170427Y166973D01*
X170447Y166984D01*
X170582Y167102D01*
X170719Y167216D01*
X170733Y167234D01*
X170750Y167248D01*
X170859Y167390D01*
X170972Y167530D01*
X170982Y167550D01*
X170995Y167568D01*
X171147Y167863D01*
X171922Y169733D01*
X174735Y172546D01*
X175007Y172659D01*
X178411Y174069D01*
X181100Y174069D01*
X181131Y174072D01*
X181162Y174070D01*
X181332Y174092D01*
X181501Y174109D01*
X181530Y174118D01*
X181561Y174122D01*
X181877Y174223D01*
X185722Y175816D01*
X206494Y175816D01*
X206521Y175818D01*
X206547Y175816D01*
X206721Y175838D01*
X206895Y175856D01*
X206920Y175863D01*
X206947Y175867D01*
X207113Y175922D01*
X207280Y175974D01*
X207303Y175987D01*
X207329Y175995D01*
X207480Y176082D01*
X207634Y176166D01*
X207654Y176183D01*
X207677Y176196D01*
X207930Y176411D01*
X208359Y176839D01*
X208383Y176852D01*
X208511Y176911D01*
X208560Y176947D01*
X208612Y176975D01*
X208722Y177065D01*
X208836Y177149D01*
X208877Y177193D01*
X208923Y177231D01*
X209012Y177342D01*
X209108Y177446D01*
X209139Y177498D01*
X209177Y177544D01*
X209243Y177670D01*
X209316Y177791D01*
X209336Y177848D01*
X209364Y177901D01*
X209404Y178037D01*
X209451Y178170D01*
X209460Y178230D01*
X209477Y178287D01*
X209489Y178428D01*
X209509Y178569D01*
X209506Y178629D01*
X209511Y178688D01*
X209496Y178829D01*
X209488Y178971D01*
X209473Y179029D01*
X209466Y179088D01*
X209423Y179223D01*
X209387Y179361D01*
X209361Y179414D01*
X209343Y179472D01*
X209274Y179596D01*
X209212Y179723D01*
X209176Y179771D01*
X209147Y179823D01*
X209054Y179931D01*
X208969Y180044D01*
X208924Y180083D01*
X208885Y180129D01*
X208773Y180216D01*
X208667Y180310D01*
X208615Y180340D01*
X208568Y180377D01*
X208441Y180441D01*
X208318Y180512D01*
X208254Y180535D01*
X208208Y180558D01*
X208129Y180580D01*
X208006Y180624D01*
X207719Y180700D01*
X207140Y181035D01*
X206667Y181508D01*
X206332Y182087D01*
X206159Y182733D01*
X206159Y187319D01*
X213668Y187319D01*
X213686Y187320D01*
X213704Y187319D01*
X213886Y187340D01*
X214069Y187359D01*
X214086Y187364D01*
X214103Y187366D01*
X214278Y187423D01*
X214454Y187477D01*
X214469Y187485D01*
X214486Y187491D01*
X214646Y187581D01*
X214808Y187668D01*
X214821Y187680D01*
X214837Y187689D01*
X214976Y187809D01*
X215117Y187926D01*
X215128Y187940D01*
X215142Y187952D01*
X215254Y188097D01*
X215369Y188240D01*
X215377Y188256D01*
X215388Y188270D01*
X215470Y188435D01*
X215555Y188597D01*
X215560Y188614D01*
X215568Y188630D01*
X215615Y188809D01*
X215666Y188984D01*
X215668Y189002D01*
X215672Y189019D01*
X215699Y189350D01*
X215699Y191786D01*
X215697Y191804D01*
X215699Y191822D01*
X215678Y192004D01*
X215659Y192187D01*
X215654Y192204D01*
X215652Y192221D01*
X215595Y192396D01*
X215541Y192572D01*
X215533Y192587D01*
X215527Y192604D01*
X215437Y192764D01*
X215349Y192926D01*
X215338Y192939D01*
X215329Y192955D01*
X215209Y193094D01*
X215092Y193235D01*
X215078Y193246D01*
X215066Y193260D01*
X214921Y193372D01*
X214778Y193487D01*
X214762Y193495D01*
X214748Y193506D01*
X214583Y193588D01*
X214421Y193673D01*
X214404Y193678D01*
X214388Y193686D01*
X214209Y193733D01*
X214034Y193784D01*
X214016Y193786D01*
X213999Y193790D01*
X213668Y193817D01*
X206159Y193817D01*
X206159Y198403D01*
X206332Y199049D01*
X206667Y199628D01*
X207140Y200101D01*
X207719Y200436D01*
X208365Y200609D01*
X212055Y200609D01*
X212109Y200434D01*
X212111Y200430D01*
X212112Y200425D01*
X212206Y200254D01*
X212300Y200080D01*
X212303Y200076D01*
X212305Y200072D01*
X212433Y199921D01*
X212558Y199770D01*
X212562Y199768D01*
X212565Y199764D01*
X212719Y199641D01*
X212872Y199518D01*
X212876Y199516D01*
X212879Y199513D01*
X213054Y199424D01*
X213229Y199333D01*
X213234Y199331D01*
X213238Y199329D01*
X213425Y199276D01*
X213616Y199221D01*
X213621Y199221D01*
X213625Y199220D01*
X213818Y199205D01*
X214017Y199188D01*
X214022Y199189D01*
X214026Y199188D01*
X214219Y199212D01*
X214417Y199235D01*
X214422Y199237D01*
X214426Y199237D01*
X214609Y199298D01*
X214800Y199360D01*
X214804Y199362D01*
X214808Y199364D01*
X214977Y199460D01*
X215151Y199558D01*
X215154Y199561D01*
X215158Y199563D01*
X215307Y199693D01*
X215455Y199821D01*
X215458Y199825D01*
X215462Y199828D01*
X215581Y199983D01*
X215702Y200139D01*
X215704Y200143D01*
X215707Y200147D01*
X215859Y200442D01*
X217222Y203733D01*
X220035Y206546D01*
X223711Y208069D01*
X240689Y208069D01*
X244365Y206546D01*
X247207Y203704D01*
X247233Y203658D01*
X247318Y203500D01*
X247332Y203483D01*
X247343Y203463D01*
X247460Y203328D01*
X247574Y203189D01*
X247592Y203175D01*
X247606Y203158D01*
X247748Y203049D01*
X247887Y202936D01*
X247907Y202925D01*
X247924Y202912D01*
X248085Y202832D01*
X248244Y202749D01*
X248265Y202742D01*
X248285Y202732D01*
X248458Y202686D01*
X248630Y202636D01*
X248652Y202634D01*
X248674Y202628D01*
X249004Y202601D01*
X450593Y202601D01*
X455016Y200769D01*
X458686Y197098D01*
X458687Y197098D01*
X493201Y162584D01*
X495033Y158161D01*
X495033Y156029D01*
X488842Y156029D01*
X488822Y156026D01*
X488803Y156028D01*
X488701Y156006D01*
X488599Y155990D01*
X488582Y155980D01*
X488562Y155976D01*
X488473Y155923D01*
X488382Y155874D01*
X488368Y155860D01*
X488351Y155850D01*
X488284Y155771D01*
X488212Y155696D01*
X488204Y155678D01*
X488191Y155663D01*
X488152Y155567D01*
X488109Y155473D01*
X488107Y155453D01*
X488099Y155435D01*
X488081Y155268D01*
X488081Y137560D01*
X488084Y137540D01*
X488082Y137521D01*
X488104Y137419D01*
X488120Y137317D01*
X488130Y137300D01*
X488134Y137280D01*
X488187Y137191D01*
X488236Y137100D01*
X488250Y137086D01*
X488260Y137069D01*
X488339Y137002D01*
X488414Y136930D01*
X488432Y136922D01*
X488447Y136909D01*
X488543Y136870D01*
X488637Y136827D01*
X488657Y136825D01*
X488675Y136817D01*
X488697Y136815D01*
X490499Y135013D01*
X490499Y92487D01*
X488713Y90701D01*
X477287Y90701D01*
X475501Y92487D01*
X475501Y135013D01*
X477312Y136824D01*
X477401Y136838D01*
X477418Y136848D01*
X477438Y136852D01*
X477527Y136905D01*
X477618Y136954D01*
X477632Y136968D01*
X477649Y136978D01*
X477716Y137057D01*
X477788Y137132D01*
X477796Y137150D01*
X477809Y137165D01*
X477848Y137261D01*
X477891Y137355D01*
X477893Y137375D01*
X477901Y137393D01*
X477919Y137560D01*
X477919Y153348D01*
X477905Y153438D01*
X477897Y153529D01*
X477885Y153559D01*
X477880Y153591D01*
X477837Y153671D01*
X477801Y153755D01*
X477775Y153788D01*
X477764Y153808D01*
X477741Y153830D01*
X477696Y153886D01*
X475776Y155806D01*
X475702Y155859D01*
X475633Y155919D01*
X475603Y155931D01*
X475577Y155950D01*
X475490Y155977D01*
X475405Y156011D01*
X475364Y156015D01*
X475342Y156022D01*
X475309Y156021D01*
X475238Y156029D01*
X285400Y156029D01*
X285380Y156026D01*
X285361Y156028D01*
X285259Y156006D01*
X285157Y155990D01*
X285140Y155980D01*
X285120Y155976D01*
X285031Y155923D01*
X284940Y155874D01*
X284926Y155860D01*
X284909Y155850D01*
X284842Y155771D01*
X284771Y155696D01*
X284762Y155678D01*
X284749Y155663D01*
X284710Y155567D01*
X284667Y155473D01*
X284665Y155453D01*
X284657Y155435D01*
X284639Y155268D01*
X284639Y147814D01*
X284642Y147794D01*
X284640Y147775D01*
X284662Y147673D01*
X284679Y147571D01*
X284688Y147554D01*
X284692Y147534D01*
X284745Y147445D01*
X284794Y147354D01*
X284808Y147340D01*
X284818Y147323D01*
X284897Y147256D01*
X284972Y147184D01*
X284990Y147176D01*
X285005Y147163D01*
X285101Y147124D01*
X285195Y147081D01*
X285215Y147079D01*
X285233Y147071D01*
X285400Y147053D01*
X311899Y147053D01*
X311906Y147050D01*
X311989Y147041D01*
X312021Y147033D01*
X312040Y147035D01*
X312073Y147032D01*
X317983Y147032D01*
X320224Y146103D01*
X328169Y138159D01*
X328687Y136906D01*
X328722Y136850D01*
X328747Y136790D01*
X328799Y136725D01*
X328817Y136697D01*
X328832Y136685D01*
X328852Y136659D01*
X330499Y135013D01*
X330499Y92487D01*
X328713Y90701D01*
X317287Y90701D01*
G37*
%LPD*%
%LPC*%
G36*
X397287Y90701D02*
X397287Y90701D01*
X395501Y92487D01*
X395501Y135013D01*
X397287Y136799D01*
X408713Y136799D01*
X410499Y135013D01*
X410499Y92487D01*
X408713Y90701D01*
X397287Y90701D01*
G37*
%LPD*%
%LPC*%
G36*
X357287Y90701D02*
X357287Y90701D01*
X355501Y92487D01*
X355501Y135013D01*
X357287Y136799D01*
X368713Y136799D01*
X370499Y135013D01*
X370499Y92487D01*
X368713Y90701D01*
X357287Y90701D01*
G37*
%LPD*%
%LPC*%
G36*
X377287Y67201D02*
X377287Y67201D01*
X375501Y68987D01*
X375501Y111513D01*
X377287Y113299D01*
X388713Y113299D01*
X390499Y111513D01*
X390499Y68987D01*
X388713Y67201D01*
X377287Y67201D01*
G37*
%LPD*%
%LPC*%
G36*
X337287Y67201D02*
X337287Y67201D01*
X335501Y68987D01*
X335501Y111513D01*
X337287Y113299D01*
X348713Y113299D01*
X350499Y111513D01*
X350499Y68987D01*
X348713Y67201D01*
X337287Y67201D01*
G37*
%LPD*%
%LPC*%
G36*
X417287Y67201D02*
X417287Y67201D01*
X415501Y68987D01*
X415501Y111513D01*
X417287Y113299D01*
X428713Y113299D01*
X430499Y111513D01*
X430499Y68987D01*
X428713Y67201D01*
X417287Y67201D01*
G37*
%LPD*%
%LPC*%
G36*
X305224Y91773D02*
X305224Y91773D01*
X305224Y112791D01*
X307784Y112791D01*
X308431Y112618D01*
X309010Y112283D01*
X309483Y111810D01*
X309818Y111231D01*
X309991Y110584D01*
X309991Y91773D01*
X305224Y91773D01*
G37*
%LPD*%
%LPC*%
G36*
X305224Y88727D02*
X305224Y88727D01*
X309991Y88727D01*
X309991Y83431D01*
X309991Y69916D01*
X309818Y69269D01*
X309483Y68690D01*
X309010Y68217D01*
X308431Y67882D01*
X307784Y67709D01*
X305224Y67709D01*
X305224Y88727D01*
G37*
%LPD*%
%LPC*%
G36*
X516009Y115273D02*
X516009Y115273D01*
X516009Y134084D01*
X516182Y134728D01*
X516182Y134731D01*
X516517Y135310D01*
X516990Y135783D01*
X517569Y136118D01*
X518216Y136291D01*
X520776Y136291D01*
X520776Y115273D01*
X516009Y115273D01*
G37*
%LPD*%
%LPC*%
G36*
X517569Y91382D02*
X517569Y91382D01*
X516990Y91717D01*
X516517Y92190D01*
X516182Y92769D01*
X516009Y93416D01*
X516009Y112227D01*
X520776Y112227D01*
X520776Y91209D01*
X518216Y91209D01*
X517569Y91382D01*
G37*
%LPD*%
%LPC*%
G36*
X525224Y115974D02*
X525224Y115974D01*
X525224Y136291D01*
X527784Y136291D01*
X528431Y136118D01*
X529010Y135783D01*
X529483Y135310D01*
X529818Y134731D01*
X529818Y134728D01*
X529991Y134084D01*
X529991Y115974D01*
X525224Y115974D01*
G37*
%LPD*%
%LPC*%
G36*
X525224Y111526D02*
X525224Y111526D01*
X529991Y111526D01*
X529991Y93416D01*
X529818Y92769D01*
X529483Y92190D01*
X529010Y91717D01*
X528431Y91382D01*
X527784Y91209D01*
X525224Y91209D01*
X525224Y111526D01*
G37*
%LPD*%
%LPC*%
G36*
X296009Y92474D02*
X296009Y92474D01*
X296009Y110584D01*
X296182Y111231D01*
X296517Y111810D01*
X296990Y112283D01*
X297569Y112618D01*
X298216Y112791D01*
X300776Y112791D01*
X300776Y92474D01*
X296009Y92474D01*
G37*
%LPD*%
%LPC*%
G36*
X298216Y67709D02*
X298216Y67709D01*
X297569Y67882D01*
X296990Y68217D01*
X296517Y68690D01*
X296182Y69269D01*
X296009Y69916D01*
X296009Y88026D01*
X300776Y88026D01*
X300776Y67709D01*
X298216Y67709D01*
G37*
%LPD*%
%LPC*%
G36*
X342674Y1579167D02*
X342674Y1579167D01*
X342674Y1583984D01*
X346835Y1583984D01*
X347481Y1583811D01*
X348060Y1583476D01*
X348533Y1583003D01*
X348868Y1582424D01*
X349041Y1581778D01*
X349041Y1579167D01*
X342674Y1579167D01*
G37*
%LPD*%
%LPC*%
G36*
X346374Y467567D02*
X346374Y467567D01*
X346374Y472384D01*
X350535Y472384D01*
X351181Y472211D01*
X351760Y471876D01*
X352233Y471403D01*
X352568Y470824D01*
X352741Y470178D01*
X352741Y467567D01*
X346374Y467567D01*
G37*
%LPD*%
%LPC*%
G36*
X331759Y1579167D02*
X331759Y1579167D01*
X331759Y1581778D01*
X331932Y1582424D01*
X332267Y1583003D01*
X332740Y1583476D01*
X333319Y1583811D01*
X333965Y1583984D01*
X338126Y1583984D01*
X338126Y1579167D01*
X331759Y1579167D01*
G37*
%LPD*%
%LPC*%
G36*
X335459Y467567D02*
X335459Y467567D01*
X335459Y470178D01*
X335632Y470824D01*
X335967Y471403D01*
X336440Y471876D01*
X337019Y472211D01*
X337665Y472384D01*
X341826Y472384D01*
X341826Y467567D01*
X335459Y467567D01*
G37*
%LPD*%
%LPC*%
G36*
X342674Y1569802D02*
X342674Y1569802D01*
X342674Y1574619D01*
X349041Y1574619D01*
X349041Y1572008D01*
X348868Y1571362D01*
X348533Y1570783D01*
X348060Y1570310D01*
X347481Y1569975D01*
X346835Y1569802D01*
X342674Y1569802D01*
G37*
%LPD*%
%LPC*%
G36*
X346374Y458202D02*
X346374Y458202D01*
X346374Y463019D01*
X352741Y463019D01*
X352741Y460408D01*
X352568Y459762D01*
X352233Y459183D01*
X351760Y458710D01*
X351181Y458375D01*
X350535Y458202D01*
X346374Y458202D01*
G37*
%LPD*%
%LPC*%
G36*
X337665Y458202D02*
X337665Y458202D01*
X337019Y458375D01*
X336440Y458710D01*
X335967Y459183D01*
X335632Y459762D01*
X335459Y460408D01*
X335459Y463019D01*
X341826Y463019D01*
X341826Y458202D01*
X337665Y458202D01*
G37*
%LPD*%
%LPC*%
G36*
X333965Y1569802D02*
X333965Y1569802D01*
X333319Y1569975D01*
X332740Y1570310D01*
X332267Y1570783D01*
X331932Y1571362D01*
X331759Y1572008D01*
X331759Y1574619D01*
X338126Y1574619D01*
X338126Y1569802D01*
X333965Y1569802D01*
G37*
%LPD*%
D10*
X169400Y158068D03*
X175900Y158068D03*
X182400Y158068D03*
X182400Y139068D03*
X169400Y139068D03*
D11*
X221800Y135368D03*
X221800Y118368D03*
D12*
X463000Y90250D03*
X423000Y90250D03*
X383000Y90250D03*
X343000Y90250D03*
X303000Y90250D03*
X323000Y113750D03*
X523000Y113750D03*
X483000Y113750D03*
X443000Y113750D03*
X403000Y113750D03*
X363000Y113750D03*
X503000Y90250D03*
D13*
X344100Y498043D03*
X344100Y465293D03*
D14*
X232200Y190568D03*
X215200Y190568D03*
D15*
X217503Y163840D03*
X230503Y163840D03*
D13*
X340400Y1609643D03*
X340400Y1576893D03*
D16*
X443000Y113750D02*
X463272Y93478D01*
X463000Y93590D01*
D17*
X463000Y90250D01*
D16*
X463000Y69295D02*
X471427Y60868D01*
X463000Y69295D02*
X463000Y90250D01*
X471427Y60868D02*
X683900Y60868D01*
X719116Y96084D01*
X719116Y577852D01*
X719516Y577452D01*
X719116Y577852D02*
X671200Y625768D01*
X633000Y625768D01*
D18*
X633000Y625768D03*
X538200Y626568D03*
X490400Y627868D03*
D16*
X388600Y627868D01*
D17*
X388200Y627468D01*
D18*
X388200Y627468D03*
X325500Y626168D03*
D16*
X260600Y626168D01*
D17*
X260100Y626668D01*
D18*
X260100Y626668D03*
X215400Y626668D03*
D16*
X535100Y626568D02*
X538200Y626568D01*
X535100Y626568D02*
X534000Y627668D01*
X490600Y627668D01*
X490400Y627868D01*
X388200Y627468D02*
X387400Y626668D01*
X326000Y626668D01*
X325500Y626168D01*
X260100Y626668D02*
X215400Y626668D01*
X719516Y577452D02*
X719516Y1684852D01*
X655800Y1748568D01*
X631400Y1748568D01*
D18*
X631400Y1748568D03*
X590500Y1748568D03*
D16*
X542300Y1748568D01*
D17*
X541100Y1749768D01*
D18*
X541100Y1749768D03*
X483000Y1750868D03*
D16*
X482600Y1751268D01*
X385100Y1751268D01*
X385000Y1751368D01*
D18*
X385000Y1751368D03*
X339600Y1749768D03*
D16*
X264900Y1749768D01*
D18*
X264900Y1749768D03*
X215000Y1750568D03*
D16*
X590500Y1748568D02*
X631400Y1748568D01*
X541100Y1749768D02*
X540000Y1750868D01*
X483000Y1750868D01*
X340100Y1750268D02*
X339600Y1749768D01*
X340100Y1750268D02*
X384100Y1750268D01*
X385100Y1751268D01*
X538200Y626568D02*
X632200Y626568D01*
D17*
X633000Y625768D01*
D19*
X221800Y118368D02*
X181700Y118368D01*
X169800Y130268D01*
X169800Y138668D02*
X169400Y139068D01*
X169800Y138668D02*
X169800Y130268D01*
X169400Y139068D02*
X169400Y158068D01*
X169400Y168968D02*
X191000Y190568D01*
X215200Y190568D01*
D18*
X272800Y32168D03*
X321700Y32268D03*
D16*
X389000Y32268D01*
D17*
X389400Y32668D01*
D18*
X389400Y32668D03*
X426100Y32668D03*
D17*
X426500Y32268D01*
D16*
X504200Y32268D02*
X505300Y31168D01*
X504200Y32268D02*
X426500Y32268D01*
D18*
X505300Y31168D03*
X548400Y32168D03*
D16*
X321600Y32168D02*
X272800Y32168D01*
D17*
X321600Y32168D02*
X321700Y32268D01*
D16*
X389400Y32668D02*
X426100Y32668D01*
D17*
X505300Y31168D02*
X506300Y32168D01*
D16*
X548400Y32168D01*
D18*
X279600Y1148168D03*
D16*
X313700Y1148168D01*
D17*
X314400Y1147468D01*
D18*
X314400Y1147468D03*
X383500Y1146668D03*
D16*
X431800Y1146668D01*
D17*
X432200Y1146268D01*
D18*
X432200Y1146268D03*
X501100Y1146768D03*
D17*
X502400Y1146768D01*
D18*
X542400Y1146768D03*
D16*
X502400Y1146768D01*
X501900Y1146268D02*
X432200Y1146268D01*
D17*
X501900Y1146268D02*
X502400Y1146768D01*
X279600Y1148168D02*
X277570Y1150198D01*
D16*
X137000Y1150198D01*
X107200Y1120398D01*
X107200Y99168D01*
X149016Y57352D01*
X248655Y57352D01*
X272800Y33207D02*
X272800Y32168D01*
X272800Y33207D02*
X248655Y57352D01*
X315200Y1146668D02*
X383500Y1146668D01*
X315200Y1146668D02*
X314400Y1147468D01*
D20*
X175900Y158068D02*
X169400Y158068D01*
D19*
X169400Y168968D01*
D20*
X182400Y139068D02*
X218100Y139068D01*
X221800Y135368D01*
D19*
X310679Y140935D02*
X316770Y140935D01*
X310679Y140935D02*
X310658Y140956D01*
X227388Y140956D01*
X221800Y135368D01*
X323000Y134705D02*
X323000Y113750D01*
X323000Y134705D02*
X316770Y140935D01*
D20*
X232200Y165537D02*
X232200Y190568D01*
D17*
X232200Y165537D02*
X230503Y163840D01*
D20*
X232200Y190568D02*
X448200Y190568D01*
X483000Y155768D02*
X483000Y113750D01*
X483000Y155768D02*
X448200Y190568D01*
D16*
X344100Y549168D02*
X344600Y549668D01*
X344100Y549168D02*
X344100Y498043D01*
D18*
X344600Y549668D03*
D17*
X217503Y163840D02*
X217446Y163783D01*
D20*
X188115Y163783D01*
X182400Y158068D01*
D16*
X340600Y1609843D02*
X340600Y1663468D01*
X340600Y1609843D02*
X340400Y1609643D01*
D18*
X340600Y1663468D03*
M02*
