G04 EAGLE Gerber RS-274X export*
G75*
%MOMM*%
%FSLAX34Y34*%
%LPD*%
%INSolder stop mask CMP*%
%IPPOS*%
%AMOC8*
5,1,8,0,0,1.08239X$1,22.5*%
G01*
%ADD10R,8.203200X2.203200*%
%ADD11R,45.203200X24.203200*%
%ADD12C,0.650000*%


D10*
X515200Y546168D03*
D11*
X420200Y773668D03*
D10*
X207700Y546068D03*
X412700Y546068D03*
X207700Y86068D03*
X412700Y86068D03*
X617700Y86068D03*
X617700Y546068D03*
D11*
X424100Y318268D03*
D10*
X515200Y1665168D03*
D11*
X420200Y1892668D03*
D10*
X207700Y1664268D03*
X412700Y1664268D03*
X207700Y1204268D03*
X412700Y1204268D03*
X617700Y1204268D03*
X617700Y1664268D03*
D11*
X424100Y1436468D03*
D12*
X633000Y625768D03*
X538200Y626568D03*
X490400Y627868D03*
X388200Y627468D03*
X325500Y626168D03*
X260100Y626668D03*
X215400Y626668D03*
X631400Y1748568D03*
X590500Y1748568D03*
X541100Y1749768D03*
X483000Y1750868D03*
X385000Y1751368D03*
X339600Y1749768D03*
X264900Y1749768D03*
X215000Y1750568D03*
X272800Y32168D03*
X321700Y32268D03*
X389400Y32668D03*
X426100Y32668D03*
X505300Y31168D03*
X548400Y32168D03*
X279600Y1148168D03*
X314400Y1147468D03*
X383500Y1146668D03*
X432200Y1146268D03*
X501100Y1146768D03*
X542400Y1146768D03*
X344600Y549668D03*
X340600Y1663468D03*
M02*
