M48
;GenerationSoftware,Autodesk,EAGLE,9.6.2*%
;CreationDate,2021-11-03T09:41:17Z*%
FMAT,2
ICI,OFF
METRIC,TZ,000.000
T1C0.350
%
G90
M71
T1
X38252Y57861
X41656Y57887
X62789Y57861
X67818Y57861
X63322Y87452
X34600Y3400
X40161Y45664
X56513Y45748
X61010Y45630
X77530Y45680
X41200Y3400
X54600Y3400
X60800Y3400
X73400Y3400
X58242Y49657
X37643Y49606
X19304Y46406
X19304Y43332
X19000Y50000
X32523Y35523
M30