G04 EAGLE Gerber RS-274X export*
G75*
%MOMM*%
%FSLAX34Y34*%
%LPD*%
%INComponent side*%
%IPPOS*%
%AMOC8*
5,1,8,0,0,1.08239X$1,22.5*%
G01*
%ADD10R,1.200000X0.400000*%
%ADD11R,1.300000X1.500000*%
%ADD12R,0.890000X4.000000*%
%ADD13R,0.910000X1.220000*%
%ADD14R,1.220000X0.910000*%
%ADD15R,0.900000X0.700000*%
%ADD16R,1.500000X1.300000*%
%ADD17C,0.609600*%
%ADD18C,0.406400*%
%ADD19C,0.600000*%
%ADD20C,1.016000*%
%ADD21C,0.304800*%
%ADD22C,0.800000*%
%ADD23C,0.650000*%

G36*
X682093Y95978D02*
X682093Y95978D01*
X682186Y95977D01*
X682293Y95998D01*
X682401Y96009D01*
X682490Y96036D01*
X682581Y96054D01*
X682682Y96095D01*
X682786Y96127D01*
X682867Y96171D01*
X682954Y96207D01*
X683044Y96267D01*
X683140Y96319D01*
X683211Y96378D01*
X683289Y96430D01*
X683366Y96507D01*
X683449Y96576D01*
X683507Y96649D01*
X683573Y96715D01*
X683633Y96806D01*
X683701Y96890D01*
X683744Y96973D01*
X683796Y97050D01*
X683837Y97151D01*
X683887Y97247D01*
X683912Y97337D01*
X683948Y97423D01*
X683975Y97555D01*
X683998Y97634D01*
X684002Y97684D01*
X684016Y97748D01*
X685016Y105748D01*
X685018Y105835D01*
X685031Y106012D01*
X683031Y443012D01*
X683030Y443024D01*
X683031Y443036D01*
X683009Y443223D01*
X682989Y443412D01*
X682985Y443424D01*
X682984Y443435D01*
X682925Y443615D01*
X682869Y443797D01*
X682863Y443807D01*
X682859Y443818D01*
X682766Y443983D01*
X682675Y444150D01*
X682667Y444159D01*
X682661Y444169D01*
X682538Y444312D01*
X682415Y444457D01*
X682406Y444465D01*
X682398Y444474D01*
X682249Y444589D01*
X682100Y444708D01*
X682089Y444713D01*
X682080Y444720D01*
X681910Y444805D01*
X681741Y444891D01*
X681730Y444894D01*
X681720Y444900D01*
X681535Y444949D01*
X681354Y445000D01*
X681342Y445001D01*
X681331Y445004D01*
X681000Y445031D01*
X118000Y445031D01*
X117976Y445029D01*
X117953Y445031D01*
X117777Y445009D01*
X117599Y444991D01*
X117577Y444984D01*
X117553Y444981D01*
X117385Y444925D01*
X117214Y444873D01*
X117194Y444862D01*
X117171Y444854D01*
X117017Y444766D01*
X116860Y444681D01*
X116842Y444666D01*
X116822Y444654D01*
X116687Y444537D01*
X116551Y444424D01*
X116536Y444405D01*
X116518Y444390D01*
X116410Y444248D01*
X116299Y444110D01*
X116288Y444089D01*
X116273Y444070D01*
X116195Y443910D01*
X116113Y443753D01*
X116107Y443730D01*
X116096Y443708D01*
X116051Y443536D01*
X116002Y443366D01*
X116000Y443342D01*
X115994Y443319D01*
X115969Y442988D01*
X117969Y97988D01*
X117970Y97976D01*
X117969Y97964D01*
X117991Y97777D01*
X118011Y97588D01*
X118015Y97576D01*
X118016Y97565D01*
X118075Y97384D01*
X118131Y97204D01*
X118137Y97193D01*
X118141Y97182D01*
X118234Y97016D01*
X118325Y96851D01*
X118333Y96842D01*
X118339Y96831D01*
X118463Y96688D01*
X118585Y96543D01*
X118594Y96536D01*
X118602Y96527D01*
X118751Y96411D01*
X118900Y96292D01*
X118911Y96287D01*
X118920Y96280D01*
X119090Y96195D01*
X119258Y96109D01*
X119270Y96106D01*
X119281Y96100D01*
X119464Y96051D01*
X119646Y96000D01*
X119658Y95999D01*
X119669Y95996D01*
X120000Y95969D01*
X682000Y95969D01*
X682093Y95978D01*
G37*
G36*
X149751Y542900D02*
X149751Y542900D01*
X149761Y542899D01*
X149996Y542920D01*
X150233Y542939D01*
X150242Y542941D01*
X150252Y542942D01*
X150290Y542953D01*
X150712Y543058D01*
X150832Y543109D01*
X150907Y543131D01*
X150979Y543161D01*
X215021Y543161D01*
X215093Y543131D01*
X215102Y543128D01*
X215110Y543124D01*
X215339Y543052D01*
X215562Y542980D01*
X215572Y542978D01*
X215581Y542975D01*
X215621Y542971D01*
X216050Y542906D01*
X216181Y542908D01*
X216259Y542899D01*
X435980Y542899D01*
X436066Y542906D01*
X436153Y542904D01*
X436312Y542926D01*
X436472Y542939D01*
X436556Y542960D01*
X436641Y542972D01*
X436795Y543019D01*
X436951Y543058D01*
X437030Y543092D01*
X437113Y543117D01*
X437256Y543189D01*
X437404Y543252D01*
X437477Y543299D01*
X437554Y543337D01*
X437685Y543431D01*
X437820Y543517D01*
X437885Y543575D01*
X437955Y543625D01*
X438068Y543739D01*
X438188Y543846D01*
X438242Y543913D01*
X438303Y543974D01*
X438397Y544105D01*
X438498Y544230D01*
X438541Y544305D01*
X438591Y544375D01*
X438663Y544519D01*
X438742Y544659D01*
X438772Y544740D01*
X438811Y544817D01*
X438858Y544970D01*
X438914Y545121D01*
X438930Y545206D01*
X438956Y545289D01*
X438967Y545392D01*
X439008Y545605D01*
X439016Y545862D01*
X439028Y545967D01*
X438690Y596666D01*
X438684Y596732D01*
X438686Y596798D01*
X438662Y596977D01*
X438646Y597158D01*
X438630Y597222D01*
X438621Y597287D01*
X438569Y597460D01*
X438524Y597636D01*
X438498Y597696D01*
X438479Y597760D01*
X438399Y597922D01*
X438327Y598088D01*
X438291Y598143D01*
X438262Y598203D01*
X438157Y598350D01*
X438059Y598502D01*
X438015Y598551D01*
X437977Y598605D01*
X437849Y598734D01*
X437728Y598868D01*
X437676Y598909D01*
X437630Y598956D01*
X437484Y599062D01*
X437342Y599175D01*
X437284Y599208D01*
X437231Y599246D01*
X437069Y599328D01*
X436912Y599416D01*
X436850Y599439D01*
X436791Y599469D01*
X436618Y599523D01*
X436448Y599585D01*
X436383Y599597D01*
X436320Y599617D01*
X436215Y599629D01*
X435963Y599676D01*
X435746Y599682D01*
X435642Y599693D01*
X410734Y599693D01*
X405133Y602014D01*
X400846Y606301D01*
X398525Y611902D01*
X398525Y617966D01*
X400846Y623567D01*
X405133Y627854D01*
X410734Y630175D01*
X432694Y630175D01*
X432912Y630192D01*
X433130Y630206D01*
X433158Y630212D01*
X433186Y630215D01*
X433398Y630267D01*
X433611Y630316D01*
X433637Y630327D01*
X433665Y630333D01*
X433865Y630419D01*
X434068Y630502D01*
X434092Y630517D01*
X434118Y630528D01*
X434302Y630645D01*
X434489Y630759D01*
X434511Y630778D01*
X434534Y630793D01*
X434697Y630938D01*
X434863Y631081D01*
X434881Y631103D01*
X434902Y631122D01*
X435039Y631292D01*
X435180Y631459D01*
X435191Y631479D01*
X435212Y631506D01*
X435456Y631934D01*
X435484Y632010D01*
X435510Y632056D01*
X436286Y633931D01*
X437526Y635170D01*
X437606Y635265D01*
X437694Y635353D01*
X437766Y635453D01*
X437845Y635546D01*
X437910Y635653D01*
X437982Y635754D01*
X438037Y635864D01*
X438100Y635969D01*
X438146Y636084D01*
X438201Y636196D01*
X438237Y636313D01*
X438283Y636427D01*
X438310Y636548D01*
X438347Y636667D01*
X438356Y636756D01*
X438390Y636909D01*
X438395Y637003D01*
X438399Y637023D01*
X438402Y637132D01*
X438410Y637265D01*
X438418Y637345D01*
X438068Y689953D01*
X685000Y689953D01*
X685066Y689958D01*
X685132Y689956D01*
X685311Y689978D01*
X685492Y689993D01*
X685556Y690009D01*
X685621Y690017D01*
X685795Y690068D01*
X685971Y690111D01*
X686031Y690137D01*
X686094Y690156D01*
X686258Y690235D01*
X686424Y690306D01*
X686480Y690341D01*
X686539Y690370D01*
X686687Y690474D01*
X686840Y690571D01*
X686889Y690615D01*
X686943Y690653D01*
X687073Y690779D01*
X687208Y690900D01*
X687249Y690951D01*
X687296Y690997D01*
X687404Y691143D01*
X687518Y691284D01*
X687550Y691341D01*
X687590Y691394D01*
X687672Y691555D01*
X687762Y691712D01*
X687785Y691774D01*
X687815Y691833D01*
X687870Y692005D01*
X687933Y692175D01*
X687946Y692240D01*
X687966Y692302D01*
X687979Y692407D01*
X688028Y692659D01*
X688035Y692876D01*
X688047Y692979D01*
X690047Y989979D01*
X690041Y990068D01*
X690043Y990157D01*
X690022Y990314D01*
X690011Y990471D01*
X689990Y990558D01*
X689978Y990646D01*
X689932Y990798D01*
X689895Y990951D01*
X689861Y991033D01*
X689835Y991119D01*
X689765Y991260D01*
X689704Y991406D01*
X689656Y991481D01*
X689617Y991561D01*
X689525Y991690D01*
X689441Y991824D01*
X689382Y991890D01*
X689331Y991963D01*
X689220Y992075D01*
X689115Y992194D01*
X689046Y992250D01*
X688983Y992313D01*
X688856Y992406D01*
X688733Y992506D01*
X688656Y992551D01*
X688584Y992603D01*
X688443Y992674D01*
X688306Y992753D01*
X688223Y992785D01*
X688143Y992825D01*
X687993Y992872D01*
X687845Y992928D01*
X687758Y992945D01*
X687673Y992972D01*
X687570Y992984D01*
X687361Y993026D01*
X687099Y993036D01*
X686995Y993047D01*
X118995Y992047D01*
X118908Y992040D01*
X118821Y992042D01*
X118662Y992020D01*
X118503Y992006D01*
X118419Y991985D01*
X118332Y991973D01*
X118179Y991926D01*
X118024Y991887D01*
X117944Y991852D01*
X117861Y991826D01*
X117718Y991755D01*
X117571Y991692D01*
X117498Y991645D01*
X117420Y991606D01*
X117291Y991512D01*
X117156Y991426D01*
X117091Y991368D01*
X117020Y991317D01*
X116907Y991203D01*
X116788Y991096D01*
X116734Y991029D01*
X116672Y990967D01*
X116579Y990837D01*
X116479Y990712D01*
X116436Y990636D01*
X116386Y990565D01*
X116315Y990422D01*
X116236Y990283D01*
X116206Y990201D01*
X116167Y990123D01*
X116121Y989970D01*
X116065Y989820D01*
X116049Y989734D01*
X116023Y989651D01*
X116012Y989548D01*
X115971Y989336D01*
X115964Y989077D01*
X115953Y988973D01*
X117959Y765261D01*
X117963Y765218D01*
X117962Y765196D01*
X117964Y765182D01*
X117963Y765136D01*
X117987Y764953D01*
X118004Y764769D01*
X118019Y764709D01*
X118027Y764647D01*
X118081Y764470D01*
X118127Y764292D01*
X118152Y764234D01*
X118170Y764174D01*
X118251Y764009D01*
X118325Y763840D01*
X118359Y763787D01*
X118387Y763731D01*
X118493Y763581D01*
X118594Y763426D01*
X118636Y763380D01*
X118672Y763329D01*
X118802Y763198D01*
X118926Y763061D01*
X118975Y763023D01*
X119019Y762978D01*
X119168Y762870D01*
X119313Y762755D01*
X119367Y762724D01*
X119418Y762688D01*
X119582Y762605D01*
X119744Y762515D01*
X119802Y762493D01*
X119858Y762465D01*
X120034Y762410D01*
X120208Y762347D01*
X120269Y762336D01*
X120329Y762317D01*
X120433Y762305D01*
X120693Y762257D01*
X120904Y762252D01*
X121006Y762241D01*
X412880Y762241D01*
X412994Y762250D01*
X413108Y762249D01*
X413239Y762270D01*
X413372Y762281D01*
X413482Y762308D01*
X413595Y762326D01*
X413722Y762367D01*
X413851Y762399D01*
X413955Y762444D01*
X414064Y762480D01*
X414182Y762542D01*
X414304Y762594D01*
X414400Y762655D01*
X414502Y762708D01*
X414575Y762767D01*
X414720Y762859D01*
X414962Y763075D01*
X415035Y763133D01*
X427019Y775117D01*
X427093Y775204D01*
X427174Y775285D01*
X427252Y775392D01*
X427338Y775493D01*
X427397Y775591D01*
X427464Y775683D01*
X427524Y775802D01*
X427593Y775916D01*
X427635Y776022D01*
X427687Y776124D01*
X427727Y776251D01*
X427776Y776374D01*
X427801Y776485D01*
X427835Y776594D01*
X427845Y776688D01*
X427883Y776855D01*
X427901Y777180D01*
X427911Y777272D01*
X427911Y809921D01*
X427900Y810063D01*
X427898Y810206D01*
X427880Y810309D01*
X427871Y810413D01*
X427837Y810551D01*
X427812Y810692D01*
X427778Y810790D01*
X427753Y810892D01*
X427696Y811023D01*
X427649Y811157D01*
X427599Y811249D01*
X427558Y811345D01*
X427482Y811465D01*
X427413Y811591D01*
X427349Y811673D01*
X427293Y811761D01*
X427198Y811867D01*
X427110Y811980D01*
X427034Y812051D01*
X426964Y812129D01*
X426853Y812219D01*
X426749Y812316D01*
X426662Y812373D01*
X426580Y812439D01*
X426457Y812509D01*
X426338Y812588D01*
X426242Y812631D01*
X426152Y812683D01*
X426018Y812733D01*
X425888Y812791D01*
X425787Y812818D01*
X425689Y812854D01*
X425549Y812882D01*
X425411Y812919D01*
X425307Y812929D01*
X425205Y812949D01*
X425063Y812954D01*
X424921Y812968D01*
X424816Y812961D01*
X424712Y812965D01*
X424571Y812946D01*
X424428Y812937D01*
X424326Y812914D01*
X424223Y812900D01*
X424086Y812859D01*
X423947Y812827D01*
X423851Y812788D01*
X423751Y812758D01*
X423622Y812695D01*
X423490Y812641D01*
X423401Y812587D01*
X423307Y812541D01*
X423191Y812458D01*
X423069Y812384D01*
X422990Y812316D01*
X422905Y812255D01*
X422804Y812155D01*
X422695Y812062D01*
X422628Y811982D01*
X422554Y811909D01*
X422470Y811793D01*
X422378Y811684D01*
X422340Y811615D01*
X422264Y811510D01*
X422146Y811276D01*
X419256Y808386D01*
X417922Y807834D01*
X417727Y807734D01*
X417531Y807638D01*
X417508Y807622D01*
X417483Y807609D01*
X417307Y807479D01*
X417129Y807353D01*
X417109Y807333D01*
X417086Y807316D01*
X416933Y807159D01*
X416778Y807006D01*
X416761Y806983D01*
X416741Y806963D01*
X416616Y806783D01*
X416488Y806607D01*
X416475Y806582D01*
X416459Y806558D01*
X416364Y806361D01*
X416265Y806167D01*
X416257Y806140D01*
X416244Y806114D01*
X416183Y805904D01*
X416117Y805696D01*
X416114Y805673D01*
X416105Y805641D01*
X416068Y805344D01*
X416060Y805304D01*
X416059Y805273D01*
X416044Y805151D01*
X416047Y805071D01*
X416041Y805018D01*
X416041Y799665D01*
X415868Y799019D01*
X415533Y798440D01*
X415060Y797967D01*
X414481Y797632D01*
X413835Y797459D01*
X409249Y797459D01*
X409249Y803792D01*
X409243Y803868D01*
X409245Y803944D01*
X409223Y804113D01*
X409209Y804284D01*
X409191Y804358D01*
X409181Y804433D01*
X409132Y804597D01*
X409091Y804763D01*
X409061Y804832D01*
X409039Y804906D01*
X408963Y805059D01*
X408896Y805216D01*
X408855Y805280D01*
X408822Y805349D01*
X408723Y805488D01*
X408631Y805632D01*
X408580Y805689D01*
X408536Y805751D01*
X408416Y805872D01*
X408302Y806000D01*
X408243Y806048D01*
X408189Y806102D01*
X408051Y806203D01*
X407918Y806310D01*
X407852Y806347D01*
X407791Y806392D01*
X407638Y806469D01*
X407490Y806554D01*
X407418Y806580D01*
X407350Y806615D01*
X407187Y806666D01*
X407027Y806725D01*
X406952Y806740D01*
X406880Y806763D01*
X406775Y806775D01*
X406543Y806820D01*
X406307Y806827D01*
X406202Y806839D01*
X405798Y806839D01*
X405722Y806833D01*
X405646Y806835D01*
X405477Y806813D01*
X405306Y806799D01*
X405232Y806781D01*
X405157Y806771D01*
X404993Y806722D01*
X404827Y806681D01*
X404757Y806651D01*
X404684Y806629D01*
X404531Y806553D01*
X404374Y806486D01*
X404310Y806445D01*
X404241Y806412D01*
X404102Y806313D01*
X403958Y806221D01*
X403901Y806170D01*
X403839Y806126D01*
X403717Y806006D01*
X403590Y805892D01*
X403542Y805833D01*
X403488Y805779D01*
X403387Y805641D01*
X403280Y805508D01*
X403243Y805442D01*
X403198Y805381D01*
X403121Y805228D01*
X403036Y805080D01*
X403010Y805008D01*
X402975Y804940D01*
X402924Y804777D01*
X402865Y804617D01*
X402850Y804542D01*
X402827Y804470D01*
X402815Y804365D01*
X402770Y804133D01*
X402763Y803897D01*
X402751Y803792D01*
X402751Y797459D01*
X398165Y797459D01*
X397519Y797632D01*
X396940Y797967D01*
X396467Y798440D01*
X396132Y799019D01*
X395959Y799665D01*
X395959Y805018D01*
X395954Y805079D01*
X395955Y805115D01*
X395945Y805194D01*
X395942Y805236D01*
X395928Y805454D01*
X395922Y805482D01*
X395919Y805510D01*
X395867Y805722D01*
X395818Y805935D01*
X395807Y805961D01*
X395801Y805989D01*
X395714Y806190D01*
X395632Y806392D01*
X395617Y806416D01*
X395606Y806442D01*
X395489Y806627D01*
X395375Y806813D01*
X395356Y806834D01*
X395341Y806858D01*
X395196Y807021D01*
X395053Y807187D01*
X395031Y807205D01*
X395012Y807226D01*
X394843Y807363D01*
X394675Y807504D01*
X394654Y807515D01*
X394628Y807536D01*
X394200Y807780D01*
X394124Y807808D01*
X394078Y807834D01*
X392744Y808386D01*
X389886Y811244D01*
X389811Y811426D01*
X389711Y811621D01*
X389615Y811817D01*
X389599Y811840D01*
X389586Y811865D01*
X389456Y812041D01*
X389330Y812219D01*
X389310Y812239D01*
X389293Y812262D01*
X389137Y812414D01*
X388983Y812570D01*
X388960Y812587D01*
X388940Y812606D01*
X388761Y812732D01*
X388584Y812860D01*
X388559Y812873D01*
X388536Y812889D01*
X388339Y812984D01*
X388144Y813083D01*
X388117Y813091D01*
X388091Y813104D01*
X387882Y813165D01*
X387673Y813231D01*
X387650Y813234D01*
X387618Y813243D01*
X387128Y813304D01*
X387048Y813301D01*
X386996Y813307D01*
X382708Y813307D01*
X382632Y813301D01*
X382556Y813303D01*
X382387Y813281D01*
X382216Y813267D01*
X382142Y813249D01*
X382067Y813239D01*
X381903Y813190D01*
X381737Y813149D01*
X381668Y813119D01*
X381594Y813097D01*
X381441Y813021D01*
X381284Y812954D01*
X381220Y812913D01*
X381151Y812880D01*
X381012Y812781D01*
X380868Y812689D01*
X380811Y812638D01*
X380749Y812594D01*
X380628Y812474D01*
X380500Y812360D01*
X380452Y812301D01*
X380398Y812247D01*
X380297Y812109D01*
X380190Y811976D01*
X380153Y811910D01*
X380108Y811849D01*
X380031Y811696D01*
X379946Y811548D01*
X379920Y811476D01*
X379885Y811408D01*
X379834Y811245D01*
X379775Y811085D01*
X379760Y811010D01*
X379737Y810938D01*
X379725Y810833D01*
X379680Y810601D01*
X379673Y810365D01*
X379661Y810260D01*
X379661Y806979D01*
X378114Y803244D01*
X378085Y803216D01*
X378011Y803129D01*
X377930Y803049D01*
X377852Y802941D01*
X377766Y802840D01*
X377707Y802742D01*
X377640Y802650D01*
X377580Y802531D01*
X377511Y802417D01*
X377469Y802311D01*
X377417Y802209D01*
X377377Y802082D01*
X377328Y801959D01*
X377303Y801848D01*
X377269Y801739D01*
X377259Y801645D01*
X377221Y801478D01*
X377203Y801153D01*
X377193Y801061D01*
X377193Y787575D01*
X375337Y783093D01*
X367907Y775663D01*
X363425Y773807D01*
X356588Y773807D01*
X356512Y773801D01*
X356436Y773803D01*
X356267Y773781D01*
X356096Y773767D01*
X356022Y773749D01*
X355947Y773739D01*
X355783Y773690D01*
X355617Y773649D01*
X355548Y773619D01*
X355474Y773597D01*
X355321Y773521D01*
X355164Y773454D01*
X355100Y773413D01*
X355031Y773380D01*
X354892Y773281D01*
X354748Y773189D01*
X354691Y773138D01*
X354629Y773094D01*
X354508Y772974D01*
X354380Y772860D01*
X354332Y772801D01*
X354278Y772747D01*
X354177Y772609D01*
X354070Y772476D01*
X354033Y772410D01*
X353988Y772349D01*
X353911Y772196D01*
X353826Y772048D01*
X353800Y771976D01*
X353765Y771908D01*
X353714Y771745D01*
X353655Y771585D01*
X353640Y771510D01*
X353617Y771438D01*
X353605Y771333D01*
X353560Y771101D01*
X353553Y770865D01*
X353541Y770760D01*
X353541Y770665D01*
X353368Y770019D01*
X353033Y769440D01*
X352560Y768967D01*
X351981Y768632D01*
X351335Y768459D01*
X348047Y768459D01*
X348047Y770760D01*
X348041Y770836D01*
X348044Y770912D01*
X348021Y771081D01*
X348007Y771252D01*
X347989Y771326D01*
X347979Y771401D01*
X347930Y771565D01*
X347889Y771731D01*
X347859Y771800D01*
X347837Y771874D01*
X347762Y772027D01*
X347694Y772184D01*
X347653Y772248D01*
X347620Y772317D01*
X347521Y772456D01*
X347429Y772600D01*
X347378Y772657D01*
X347334Y772719D01*
X347214Y772840D01*
X347100Y772968D01*
X347041Y773016D01*
X346988Y773070D01*
X346849Y773171D01*
X346717Y773278D01*
X346650Y773315D01*
X346589Y773360D01*
X346436Y773437D01*
X346288Y773522D01*
X346216Y773548D01*
X346148Y773583D01*
X345986Y773634D01*
X345825Y773693D01*
X345751Y773708D01*
X345678Y773731D01*
X345573Y773743D01*
X345341Y773788D01*
X345105Y773795D01*
X345000Y773807D01*
X344924Y773801D01*
X344848Y773803D01*
X344678Y773781D01*
X344508Y773767D01*
X344434Y773749D01*
X344359Y773739D01*
X344195Y773690D01*
X344029Y773649D01*
X343959Y773619D01*
X343886Y773597D01*
X343733Y773521D01*
X343576Y773454D01*
X343512Y773413D01*
X343443Y773380D01*
X343304Y773281D01*
X343160Y773189D01*
X343103Y773138D01*
X343041Y773094D01*
X342919Y772974D01*
X342792Y772860D01*
X342744Y772801D01*
X342690Y772747D01*
X342589Y772609D01*
X342482Y772476D01*
X342444Y772410D01*
X342399Y772349D01*
X342323Y772196D01*
X342238Y772048D01*
X342211Y771976D01*
X342177Y771908D01*
X342126Y771745D01*
X342066Y771585D01*
X342052Y771510D01*
X342029Y771438D01*
X342017Y771333D01*
X341972Y771101D01*
X341964Y770865D01*
X341953Y770760D01*
X341953Y768459D01*
X338665Y768459D01*
X338019Y768632D01*
X337322Y769035D01*
X337279Y769072D01*
X337213Y769111D01*
X337152Y769158D01*
X337003Y769238D01*
X336856Y769326D01*
X336785Y769355D01*
X336718Y769391D01*
X336556Y769446D01*
X336398Y769509D01*
X336324Y769526D01*
X336251Y769551D01*
X336083Y769579D01*
X335916Y769616D01*
X335840Y769620D01*
X335765Y769633D01*
X335594Y769634D01*
X335424Y769644D01*
X335348Y769636D01*
X335271Y769636D01*
X335103Y769610D01*
X334933Y769591D01*
X334860Y769571D01*
X334784Y769559D01*
X334622Y769506D01*
X334458Y769461D01*
X334388Y769429D01*
X334315Y769405D01*
X334164Y769326D01*
X334009Y769255D01*
X333946Y769212D01*
X333878Y769177D01*
X333795Y769111D01*
X333707Y769052D01*
X332981Y768632D01*
X332335Y768459D01*
X329047Y768459D01*
X329047Y770760D01*
X329041Y770836D01*
X329044Y770912D01*
X329021Y771081D01*
X329007Y771252D01*
X328989Y771326D01*
X328979Y771401D01*
X328930Y771565D01*
X328889Y771731D01*
X328859Y771800D01*
X328837Y771874D01*
X328762Y772027D01*
X328694Y772184D01*
X328653Y772248D01*
X328620Y772317D01*
X328521Y772456D01*
X328429Y772600D01*
X328378Y772657D01*
X328334Y772719D01*
X328214Y772840D01*
X328100Y772968D01*
X328041Y773016D01*
X327988Y773070D01*
X327849Y773171D01*
X327717Y773278D01*
X327650Y773315D01*
X327589Y773360D01*
X327436Y773437D01*
X327288Y773522D01*
X327216Y773548D01*
X327148Y773583D01*
X326986Y773634D01*
X326825Y773693D01*
X326751Y773708D01*
X326678Y773731D01*
X326573Y773743D01*
X326341Y773788D01*
X326105Y773795D01*
X326000Y773807D01*
X325924Y773801D01*
X325848Y773803D01*
X325678Y773781D01*
X325508Y773767D01*
X325434Y773749D01*
X325359Y773739D01*
X325195Y773690D01*
X325029Y773649D01*
X324959Y773619D01*
X324886Y773597D01*
X324733Y773521D01*
X324576Y773454D01*
X324512Y773413D01*
X324443Y773380D01*
X324304Y773281D01*
X324160Y773189D01*
X324103Y773138D01*
X324041Y773094D01*
X323919Y772974D01*
X323792Y772860D01*
X323744Y772801D01*
X323690Y772747D01*
X323589Y772609D01*
X323482Y772476D01*
X323444Y772410D01*
X323399Y772349D01*
X323323Y772196D01*
X323238Y772048D01*
X323211Y771976D01*
X323177Y771908D01*
X323126Y771745D01*
X323066Y771585D01*
X323052Y771510D01*
X323029Y771438D01*
X323017Y771333D01*
X322972Y771101D01*
X322964Y770865D01*
X322953Y770760D01*
X322953Y768459D01*
X319665Y768459D01*
X319019Y768632D01*
X318440Y768967D01*
X317967Y769440D01*
X317632Y770019D01*
X317459Y770665D01*
X317459Y772018D01*
X317442Y772236D01*
X317428Y772454D01*
X317422Y772482D01*
X317419Y772510D01*
X317367Y772722D01*
X317318Y772935D01*
X317307Y772961D01*
X317301Y772989D01*
X317214Y773190D01*
X317132Y773392D01*
X317117Y773416D01*
X317106Y773442D01*
X316989Y773627D01*
X316875Y773813D01*
X316856Y773834D01*
X316841Y773858D01*
X316696Y774021D01*
X316553Y774187D01*
X316531Y774205D01*
X316512Y774226D01*
X316343Y774363D01*
X316175Y774504D01*
X316154Y774515D01*
X316128Y774536D01*
X315700Y774780D01*
X315624Y774808D01*
X315578Y774834D01*
X314244Y775386D01*
X311386Y778244D01*
X309839Y781979D01*
X309839Y790021D01*
X311575Y794212D01*
X311578Y794221D01*
X311583Y794230D01*
X311655Y794458D01*
X311727Y794682D01*
X311728Y794691D01*
X311731Y794701D01*
X311735Y794741D01*
X311800Y795170D01*
X311798Y795300D01*
X311807Y795378D01*
X311807Y802127D01*
X311790Y802345D01*
X311776Y802563D01*
X311770Y802591D01*
X311767Y802619D01*
X311715Y802832D01*
X311666Y803044D01*
X311655Y803070D01*
X311649Y803098D01*
X311562Y803299D01*
X311480Y803501D01*
X311465Y803525D01*
X311454Y803551D01*
X311337Y803735D01*
X311223Y803922D01*
X311204Y803944D01*
X311189Y803967D01*
X311044Y804130D01*
X310901Y804296D01*
X310879Y804314D01*
X310860Y804335D01*
X310691Y804472D01*
X310523Y804613D01*
X310502Y804624D01*
X310476Y804645D01*
X310048Y804889D01*
X309972Y804917D01*
X309926Y804943D01*
X309580Y805086D01*
X306722Y807944D01*
X306169Y809278D01*
X306070Y809473D01*
X305974Y809669D01*
X305957Y809692D01*
X305944Y809717D01*
X305814Y809893D01*
X305688Y810071D01*
X305668Y810091D01*
X305651Y810114D01*
X305494Y810267D01*
X305341Y810422D01*
X305319Y810439D01*
X305298Y810459D01*
X305119Y810584D01*
X304943Y810712D01*
X304917Y810725D01*
X304894Y810741D01*
X304697Y810836D01*
X304502Y810935D01*
X304475Y810943D01*
X304450Y810956D01*
X304240Y811017D01*
X304032Y811083D01*
X304008Y811086D01*
X303976Y811095D01*
X303487Y811156D01*
X303407Y811153D01*
X303354Y811159D01*
X298001Y811159D01*
X297355Y811332D01*
X296776Y811667D01*
X296302Y812140D01*
X295968Y812719D01*
X295795Y813365D01*
X295795Y817951D01*
X302128Y817951D01*
X302204Y817957D01*
X302280Y817955D01*
X302449Y817977D01*
X302619Y817991D01*
X302693Y818009D01*
X302769Y818019D01*
X302932Y818068D01*
X303098Y818109D01*
X303168Y818139D01*
X303241Y818161D01*
X303395Y818237D01*
X303552Y818304D01*
X303616Y818345D01*
X303684Y818378D01*
X303824Y818477D01*
X303968Y818569D01*
X304024Y818620D01*
X304087Y818664D01*
X304208Y818784D01*
X304335Y818898D01*
X304383Y818957D01*
X304438Y819010D01*
X304538Y819149D01*
X304645Y819281D01*
X304683Y819348D01*
X304728Y819409D01*
X304805Y819562D01*
X304889Y819710D01*
X304916Y819782D01*
X304950Y819850D01*
X305002Y820013D01*
X305061Y820173D01*
X305076Y820247D01*
X305099Y820320D01*
X305110Y820425D01*
X305156Y820657D01*
X305163Y820893D01*
X305175Y820998D01*
X305175Y821402D01*
X305169Y821478D01*
X305171Y821554D01*
X305149Y821723D01*
X305135Y821894D01*
X305117Y821968D01*
X305107Y822043D01*
X305057Y822207D01*
X305016Y822373D01*
X304986Y822442D01*
X304964Y822516D01*
X304889Y822669D01*
X304822Y822826D01*
X304781Y822890D01*
X304747Y822959D01*
X304648Y823098D01*
X304557Y823242D01*
X304506Y823299D01*
X304462Y823361D01*
X304342Y823482D01*
X304228Y823610D01*
X304169Y823658D01*
X304115Y823712D01*
X303977Y823813D01*
X303844Y823920D01*
X303778Y823957D01*
X303716Y824002D01*
X303564Y824079D01*
X303415Y824164D01*
X303344Y824190D01*
X303276Y824225D01*
X303113Y824276D01*
X302953Y824335D01*
X302878Y824350D01*
X302805Y824373D01*
X302700Y824385D01*
X302469Y824430D01*
X302232Y824437D01*
X302128Y824449D01*
X295795Y824449D01*
X295795Y829035D01*
X295968Y829681D01*
X296302Y830260D01*
X296776Y830733D01*
X297355Y831068D01*
X298001Y831241D01*
X303354Y831241D01*
X303572Y831258D01*
X303790Y831272D01*
X303817Y831278D01*
X303846Y831281D01*
X304058Y831333D01*
X304271Y831382D01*
X304297Y831393D01*
X304325Y831399D01*
X304526Y831486D01*
X304728Y831568D01*
X304752Y831583D01*
X304778Y831594D01*
X304962Y831711D01*
X305148Y831825D01*
X305170Y831844D01*
X305194Y831859D01*
X305357Y832004D01*
X305522Y832147D01*
X305541Y832169D01*
X305562Y832188D01*
X305699Y832357D01*
X305839Y832525D01*
X305851Y832546D01*
X305872Y832572D01*
X306116Y833000D01*
X306144Y833076D01*
X306169Y833122D01*
X306722Y834456D01*
X309611Y837345D01*
X309619Y837349D01*
X309815Y837445D01*
X309839Y837462D01*
X309864Y837475D01*
X310040Y837604D01*
X310218Y837731D01*
X310238Y837751D01*
X310261Y837768D01*
X310413Y837924D01*
X310569Y838077D01*
X310585Y838100D01*
X310605Y838121D01*
X310731Y838300D01*
X310859Y838476D01*
X310872Y838502D01*
X310888Y838525D01*
X310983Y838722D01*
X311081Y838917D01*
X311090Y838944D01*
X311102Y838969D01*
X311164Y839178D01*
X311230Y839387D01*
X311232Y839410D01*
X311242Y839442D01*
X311303Y839932D01*
X311300Y840012D01*
X311306Y840065D01*
X311306Y866972D01*
X311297Y867086D01*
X311298Y867200D01*
X311277Y867332D01*
X311266Y867464D01*
X311239Y867575D01*
X311221Y867688D01*
X311179Y867814D01*
X311147Y867943D01*
X311102Y868048D01*
X311067Y868156D01*
X311005Y868274D01*
X310953Y868396D01*
X310892Y868492D01*
X310839Y868594D01*
X310780Y868667D01*
X310688Y868812D01*
X310619Y868889D01*
X309049Y872679D01*
X309049Y892612D01*
X309043Y892688D01*
X309045Y892764D01*
X309023Y892933D01*
X309009Y893104D01*
X308991Y893178D01*
X308981Y893253D01*
X308932Y893417D01*
X308891Y893583D01*
X308861Y893652D01*
X308839Y893726D01*
X308763Y893879D01*
X308696Y894036D01*
X308655Y894100D01*
X308622Y894169D01*
X308523Y894308D01*
X308431Y894452D01*
X308380Y894509D01*
X308336Y894571D01*
X308216Y894692D01*
X308102Y894820D01*
X308043Y894868D01*
X307989Y894922D01*
X307851Y895023D01*
X307718Y895130D01*
X307652Y895167D01*
X307591Y895212D01*
X307438Y895289D01*
X307290Y895374D01*
X307218Y895400D01*
X307150Y895435D01*
X306987Y895486D01*
X306827Y895545D01*
X306752Y895560D01*
X306707Y895574D01*
X306707Y915180D01*
X306719Y915181D01*
X306855Y915193D01*
X306963Y915219D01*
X307072Y915236D01*
X307201Y915278D01*
X307334Y915311D01*
X307436Y915355D01*
X307541Y915389D01*
X307662Y915452D01*
X307787Y915506D01*
X307881Y915565D01*
X307979Y915616D01*
X308088Y915698D01*
X308203Y915771D01*
X308286Y915844D01*
X308375Y915910D01*
X308469Y916009D01*
X308571Y916100D01*
X308641Y916186D01*
X308718Y916265D01*
X308770Y916345D01*
X308881Y916483D01*
X309037Y916757D01*
X309089Y916837D01*
X309105Y916876D01*
X309125Y916912D01*
X309197Y917105D01*
X309273Y917295D01*
X309282Y917336D01*
X309297Y917375D01*
X309336Y917576D01*
X309381Y917776D01*
X309384Y917818D01*
X309392Y917859D01*
X309398Y918064D01*
X309410Y918269D01*
X309406Y918311D01*
X309407Y918352D01*
X309380Y918556D01*
X309359Y918760D01*
X309348Y918800D01*
X309343Y918841D01*
X309283Y919038D01*
X309230Y919236D01*
X309212Y919274D01*
X309200Y919314D01*
X309110Y919498D01*
X309025Y919685D01*
X309002Y919719D01*
X308983Y919757D01*
X308865Y919923D01*
X308750Y920094D01*
X308722Y920125D01*
X308698Y920159D01*
X308554Y920305D01*
X308414Y920455D01*
X308380Y920480D01*
X308351Y920510D01*
X308185Y920631D01*
X308023Y920756D01*
X307986Y920776D01*
X307952Y920800D01*
X307769Y920893D01*
X307589Y920990D01*
X307549Y921004D01*
X307512Y921023D01*
X307316Y921084D01*
X307122Y921151D01*
X307081Y921159D01*
X307041Y921171D01*
X306946Y921182D01*
X306707Y921223D01*
X306707Y940741D01*
X308445Y940741D01*
X309091Y940568D01*
X309670Y940233D01*
X310143Y939760D01*
X310478Y939181D01*
X310651Y938535D01*
X310651Y926713D01*
X310665Y926533D01*
X310672Y926353D01*
X310685Y926288D01*
X310691Y926221D01*
X310734Y926046D01*
X310770Y925869D01*
X310793Y925807D01*
X310809Y925743D01*
X310881Y925577D01*
X310944Y925408D01*
X310978Y925350D01*
X311004Y925289D01*
X311101Y925137D01*
X311191Y924981D01*
X311233Y924929D01*
X311269Y924873D01*
X311389Y924739D01*
X311504Y924599D01*
X311553Y924555D01*
X311598Y924505D01*
X311738Y924392D01*
X311873Y924272D01*
X311930Y924237D01*
X311982Y924195D01*
X312138Y924106D01*
X312291Y924010D01*
X312353Y923984D01*
X312410Y923951D01*
X312580Y923888D01*
X312746Y923818D01*
X312810Y923803D01*
X312873Y923780D01*
X313050Y923745D01*
X313225Y923703D01*
X313292Y923698D01*
X313357Y923685D01*
X313537Y923679D01*
X313717Y923666D01*
X313784Y923672D01*
X313850Y923670D01*
X314029Y923693D01*
X314209Y923709D01*
X314259Y923724D01*
X314339Y923734D01*
X314811Y923877D01*
X314842Y923891D01*
X314864Y923898D01*
X317189Y924861D01*
X326002Y924861D01*
X326078Y924867D01*
X326154Y924865D01*
X326323Y924887D01*
X326494Y924901D01*
X326568Y924919D01*
X326643Y924929D01*
X326807Y924978D01*
X326973Y925019D01*
X327042Y925049D01*
X327116Y925071D01*
X327269Y925147D01*
X327426Y925214D01*
X327490Y925255D01*
X327559Y925288D01*
X327698Y925387D01*
X327842Y925479D01*
X327899Y925530D01*
X327961Y925574D01*
X328082Y925694D01*
X328210Y925808D01*
X328258Y925867D01*
X328312Y925921D01*
X328413Y926059D01*
X328520Y926192D01*
X328557Y926258D01*
X328602Y926319D01*
X328679Y926472D01*
X328764Y926620D01*
X328790Y926692D01*
X328825Y926760D01*
X328876Y926923D01*
X328935Y927083D01*
X328950Y927158D01*
X328973Y927230D01*
X328985Y927335D01*
X329030Y927567D01*
X329037Y927803D01*
X329049Y927908D01*
X329049Y940221D01*
X330596Y943956D01*
X333454Y946814D01*
X337189Y948361D01*
X350131Y948361D01*
X353866Y946814D01*
X356724Y943956D01*
X358271Y940221D01*
X358271Y927908D01*
X358277Y927832D01*
X358275Y927756D01*
X358297Y927587D01*
X358311Y927416D01*
X358329Y927342D01*
X358339Y927267D01*
X358388Y927103D01*
X358429Y926937D01*
X358459Y926868D01*
X358481Y926794D01*
X358557Y926641D01*
X358624Y926484D01*
X358665Y926420D01*
X358698Y926351D01*
X358797Y926212D01*
X358889Y926068D01*
X358940Y926011D01*
X358984Y925949D01*
X359104Y925828D01*
X359218Y925700D01*
X359277Y925652D01*
X359331Y925598D01*
X359469Y925497D01*
X359602Y925390D01*
X359668Y925353D01*
X359729Y925308D01*
X359882Y925231D01*
X360030Y925146D01*
X360102Y925120D01*
X360170Y925085D01*
X360333Y925034D01*
X360493Y924975D01*
X360568Y924960D01*
X360640Y924937D01*
X360745Y924925D01*
X360977Y924880D01*
X361213Y924873D01*
X361318Y924861D01*
X366002Y924861D01*
X366078Y924867D01*
X366154Y924865D01*
X366323Y924887D01*
X366494Y924901D01*
X366568Y924919D01*
X366643Y924929D01*
X366807Y924978D01*
X366973Y925019D01*
X367042Y925049D01*
X367116Y925071D01*
X367269Y925147D01*
X367426Y925214D01*
X367490Y925255D01*
X367559Y925288D01*
X367698Y925387D01*
X367842Y925479D01*
X367899Y925530D01*
X367961Y925574D01*
X368082Y925694D01*
X368210Y925808D01*
X368258Y925867D01*
X368312Y925921D01*
X368413Y926059D01*
X368520Y926192D01*
X368557Y926258D01*
X368602Y926319D01*
X368679Y926472D01*
X368764Y926620D01*
X368790Y926692D01*
X368825Y926760D01*
X368876Y926923D01*
X368935Y927083D01*
X368950Y927158D01*
X368973Y927230D01*
X368985Y927335D01*
X369030Y927567D01*
X369037Y927803D01*
X369049Y927908D01*
X369049Y940221D01*
X370596Y943956D01*
X373454Y946814D01*
X377189Y948361D01*
X390131Y948361D01*
X393866Y946814D01*
X396218Y944462D01*
X396247Y944437D01*
X396272Y944409D01*
X396434Y944278D01*
X396594Y944142D01*
X396626Y944123D01*
X396656Y944099D01*
X396837Y943996D01*
X397016Y943888D01*
X397051Y943874D01*
X397085Y943855D01*
X397281Y943782D01*
X397474Y943705D01*
X397511Y943696D01*
X397547Y943683D01*
X397752Y943643D01*
X397956Y943598D01*
X397994Y943596D01*
X398031Y943588D01*
X398239Y943582D01*
X398448Y943570D01*
X398487Y943574D01*
X398524Y943573D01*
X398731Y943600D01*
X398939Y943622D01*
X398976Y943632D01*
X399014Y943637D01*
X399214Y943698D01*
X399415Y943753D01*
X399449Y943769D01*
X399486Y943780D01*
X399673Y943872D01*
X399863Y943959D01*
X399895Y943980D01*
X399929Y943997D01*
X400099Y944117D01*
X400272Y944234D01*
X400300Y944260D01*
X400331Y944282D01*
X400480Y944429D01*
X400632Y944572D01*
X400655Y944602D01*
X400682Y944629D01*
X400805Y944798D01*
X400932Y944963D01*
X400950Y944997D01*
X400973Y945028D01*
X401067Y945214D01*
X401165Y945398D01*
X401178Y945434D01*
X401195Y945468D01*
X401258Y945667D01*
X401325Y945865D01*
X401332Y945902D01*
X401343Y945939D01*
X401354Y946031D01*
X401408Y946351D01*
X401409Y946523D01*
X401411Y946538D01*
X403276Y951041D01*
X418571Y966337D01*
X423053Y968193D01*
X474415Y968193D01*
X478896Y966337D01*
X493997Y951236D01*
X494408Y950242D01*
X494508Y950048D01*
X494604Y949851D01*
X494620Y949828D01*
X494633Y949803D01*
X494763Y949627D01*
X494890Y949449D01*
X494909Y949429D01*
X494926Y949406D01*
X495083Y949253D01*
X495236Y949098D01*
X495259Y949081D01*
X495280Y949061D01*
X495459Y948936D01*
X495635Y948808D01*
X495660Y948795D01*
X495684Y948778D01*
X495881Y948683D01*
X496075Y948585D01*
X496102Y948577D01*
X496128Y948564D01*
X496338Y948503D01*
X496546Y948437D01*
X496569Y948434D01*
X496601Y948425D01*
X497091Y948364D01*
X497171Y948367D01*
X497224Y948361D01*
X510131Y948361D01*
X513866Y946814D01*
X516724Y943956D01*
X518271Y940221D01*
X518271Y920288D01*
X518277Y920212D01*
X518275Y920136D01*
X518297Y919967D01*
X518311Y919796D01*
X518329Y919722D01*
X518339Y919647D01*
X518388Y919483D01*
X518429Y919317D01*
X518459Y919248D01*
X518481Y919174D01*
X518557Y919021D01*
X518624Y918864D01*
X518665Y918800D01*
X518698Y918731D01*
X518797Y918592D01*
X518889Y918448D01*
X518940Y918391D01*
X518984Y918329D01*
X519104Y918208D01*
X519218Y918080D01*
X519277Y918032D01*
X519331Y917978D01*
X519469Y917877D01*
X519602Y917770D01*
X519668Y917733D01*
X519729Y917688D01*
X519882Y917611D01*
X520030Y917526D01*
X520102Y917500D01*
X520170Y917465D01*
X520333Y917414D01*
X520493Y917355D01*
X520568Y917340D01*
X520613Y917326D01*
X520613Y894700D01*
X520613Y872159D01*
X518875Y872159D01*
X518229Y872332D01*
X517650Y872667D01*
X517177Y873140D01*
X516842Y873719D01*
X516669Y874365D01*
X516669Y886187D01*
X516655Y886367D01*
X516648Y886547D01*
X516635Y886612D01*
X516629Y886679D01*
X516586Y886854D01*
X516550Y887031D01*
X516527Y887093D01*
X516511Y887157D01*
X516439Y887323D01*
X516376Y887492D01*
X516342Y887550D01*
X516316Y887611D01*
X516219Y887763D01*
X516129Y887919D01*
X516087Y887971D01*
X516051Y888027D01*
X515931Y888161D01*
X515817Y888301D01*
X515767Y888345D01*
X515722Y888395D01*
X515582Y888508D01*
X515447Y888628D01*
X515390Y888663D01*
X515338Y888705D01*
X515182Y888794D01*
X515029Y888890D01*
X514968Y888916D01*
X514910Y888949D01*
X514741Y889011D01*
X514574Y889082D01*
X514510Y889097D01*
X514447Y889120D01*
X514270Y889155D01*
X514095Y889197D01*
X514028Y889202D01*
X513963Y889215D01*
X513783Y889221D01*
X513603Y889234D01*
X513536Y889228D01*
X513470Y889230D01*
X513291Y889207D01*
X513111Y889191D01*
X513061Y889176D01*
X512981Y889166D01*
X512509Y889023D01*
X512478Y889009D01*
X512456Y889002D01*
X510131Y888039D01*
X501318Y888039D01*
X501242Y888033D01*
X501166Y888035D01*
X500997Y888013D01*
X500826Y887999D01*
X500752Y887981D01*
X500677Y887971D01*
X500513Y887922D01*
X500347Y887881D01*
X500278Y887851D01*
X500204Y887829D01*
X500051Y887753D01*
X499894Y887686D01*
X499830Y887645D01*
X499761Y887612D01*
X499622Y887513D01*
X499478Y887421D01*
X499421Y887370D01*
X499359Y887326D01*
X499238Y887206D01*
X499110Y887092D01*
X499062Y887033D01*
X499008Y886979D01*
X498907Y886841D01*
X498800Y886708D01*
X498763Y886642D01*
X498718Y886581D01*
X498641Y886428D01*
X498556Y886280D01*
X498530Y886208D01*
X498495Y886140D01*
X498444Y885977D01*
X498385Y885817D01*
X498370Y885742D01*
X498347Y885670D01*
X498335Y885565D01*
X498290Y885333D01*
X498283Y885097D01*
X498271Y884992D01*
X498271Y872679D01*
X496724Y868944D01*
X493866Y866086D01*
X490131Y864539D01*
X477189Y864539D01*
X473454Y866086D01*
X470596Y868944D01*
X469049Y872679D01*
X469049Y884992D01*
X469043Y885068D01*
X469045Y885144D01*
X469023Y885313D01*
X469009Y885484D01*
X468991Y885558D01*
X468981Y885633D01*
X468932Y885797D01*
X468891Y885963D01*
X468861Y886032D01*
X468839Y886106D01*
X468763Y886259D01*
X468696Y886416D01*
X468655Y886480D01*
X468622Y886549D01*
X468523Y886688D01*
X468431Y886832D01*
X468380Y886889D01*
X468336Y886951D01*
X468216Y887072D01*
X468102Y887200D01*
X468043Y887248D01*
X467989Y887302D01*
X467851Y887403D01*
X467718Y887510D01*
X467652Y887547D01*
X467591Y887592D01*
X467438Y887669D01*
X467290Y887754D01*
X467218Y887780D01*
X467150Y887815D01*
X466987Y887866D01*
X466827Y887925D01*
X466752Y887940D01*
X466680Y887963D01*
X466575Y887975D01*
X466343Y888020D01*
X466107Y888027D01*
X466002Y888039D01*
X461440Y888039D01*
X461364Y888033D01*
X461288Y888035D01*
X461119Y888013D01*
X460948Y887999D01*
X460874Y887981D01*
X460799Y887971D01*
X460635Y887922D01*
X460469Y887881D01*
X460400Y887851D01*
X460326Y887829D01*
X460173Y887753D01*
X460016Y887686D01*
X459952Y887645D01*
X459883Y887612D01*
X459744Y887513D01*
X459600Y887421D01*
X459543Y887370D01*
X459481Y887326D01*
X459360Y887206D01*
X459232Y887092D01*
X459184Y887033D01*
X459130Y886979D01*
X459029Y886841D01*
X458922Y886708D01*
X458885Y886642D01*
X458840Y886581D01*
X458763Y886428D01*
X458678Y886280D01*
X458652Y886208D01*
X458617Y886140D01*
X458566Y885977D01*
X458507Y885817D01*
X458492Y885742D01*
X458469Y885670D01*
X458457Y885565D01*
X458412Y885333D01*
X458405Y885097D01*
X458393Y884992D01*
X458393Y766665D01*
X456072Y761064D01*
X429088Y734080D01*
X423487Y731759D01*
X121334Y731759D01*
X121245Y731752D01*
X121155Y731754D01*
X120999Y731732D01*
X120843Y731719D01*
X120756Y731698D01*
X120667Y731685D01*
X120517Y731638D01*
X120364Y731601D01*
X120281Y731565D01*
X120196Y731538D01*
X120055Y731468D01*
X119910Y731406D01*
X119835Y731358D01*
X119754Y731318D01*
X119627Y731225D01*
X119494Y731141D01*
X119428Y731081D01*
X119355Y731029D01*
X119244Y730917D01*
X119127Y730812D01*
X119070Y730742D01*
X119007Y730679D01*
X118915Y730551D01*
X118817Y730428D01*
X118772Y730350D01*
X118720Y730277D01*
X118650Y730136D01*
X118573Y730000D01*
X118541Y729915D01*
X118502Y729835D01*
X118456Y729685D01*
X118401Y729537D01*
X118384Y729449D01*
X118358Y729363D01*
X118347Y729261D01*
X118306Y729053D01*
X118298Y728789D01*
X118287Y728685D01*
X119926Y545919D01*
X119932Y545857D01*
X119930Y545794D01*
X119954Y545612D01*
X119971Y545428D01*
X119986Y545367D01*
X119995Y545305D01*
X120048Y545129D01*
X120094Y544950D01*
X120119Y544893D01*
X120137Y544833D01*
X120218Y544667D01*
X120292Y544498D01*
X120326Y544446D01*
X120354Y544390D01*
X120461Y544239D01*
X120561Y544085D01*
X120603Y544038D01*
X120639Y543987D01*
X120769Y543856D01*
X120893Y543720D01*
X120942Y543681D01*
X120986Y543637D01*
X121135Y543528D01*
X121280Y543413D01*
X121334Y543383D01*
X121385Y543346D01*
X121549Y543263D01*
X121711Y543173D01*
X121770Y543152D01*
X121825Y543124D01*
X122001Y543068D01*
X122175Y543006D01*
X122236Y542994D01*
X122296Y542975D01*
X122400Y542964D01*
X122660Y542915D01*
X122871Y542911D01*
X122974Y542899D01*
X149741Y542899D01*
X149751Y542900D01*
G37*
G36*
X683155Y603930D02*
X683155Y603930D01*
X683310Y603930D01*
X683472Y603950D01*
X683636Y603961D01*
X683788Y603990D01*
X683942Y604009D01*
X684101Y604049D01*
X684262Y604080D01*
X684409Y604128D01*
X684559Y604166D01*
X684712Y604226D01*
X684868Y604277D01*
X685008Y604343D01*
X685152Y604399D01*
X685296Y604478D01*
X685444Y604548D01*
X685575Y604630D01*
X685711Y604705D01*
X685844Y604801D01*
X685983Y604889D01*
X686102Y604987D01*
X686228Y605078D01*
X686347Y605190D01*
X686474Y605294D01*
X686580Y605407D01*
X686693Y605513D01*
X686798Y605639D01*
X686910Y605758D01*
X687002Y605884D01*
X687101Y606003D01*
X687189Y606141D01*
X687285Y606274D01*
X687360Y606409D01*
X687444Y606540D01*
X687514Y606688D01*
X687593Y606831D01*
X687650Y606975D01*
X687717Y607115D01*
X687768Y607271D01*
X687828Y607424D01*
X687867Y607574D01*
X687916Y607721D01*
X687947Y607882D01*
X687988Y608040D01*
X688007Y608194D01*
X688037Y608346D01*
X688047Y608505D01*
X688069Y608672D01*
X688069Y608841D01*
X688079Y609000D01*
X688079Y666000D01*
X688070Y666155D01*
X688070Y666310D01*
X688050Y666472D01*
X688039Y666636D01*
X688010Y666788D01*
X687991Y666942D01*
X687951Y667101D01*
X687920Y667262D01*
X687872Y667409D01*
X687834Y667559D01*
X687774Y667712D01*
X687723Y667868D01*
X687658Y668008D01*
X687601Y668152D01*
X687522Y668296D01*
X687452Y668444D01*
X687370Y668575D01*
X687295Y668711D01*
X687199Y668844D01*
X687111Y668983D01*
X687013Y669102D01*
X686922Y669228D01*
X686810Y669347D01*
X686706Y669474D01*
X686593Y669580D01*
X686487Y669693D01*
X686361Y669798D01*
X686242Y669910D01*
X686116Y670002D01*
X685997Y670101D01*
X685859Y670189D01*
X685727Y670285D01*
X685591Y670360D01*
X685460Y670444D01*
X685312Y670514D01*
X685169Y670593D01*
X685025Y670650D01*
X684885Y670717D01*
X684729Y670768D01*
X684576Y670828D01*
X684426Y670867D01*
X684279Y670916D01*
X684118Y670947D01*
X683960Y670988D01*
X683806Y671007D01*
X683654Y671037D01*
X683495Y671047D01*
X683328Y671069D01*
X683159Y671069D01*
X683000Y671079D01*
X491000Y671079D01*
X490846Y671070D01*
X490690Y671070D01*
X490528Y671050D01*
X490364Y671039D01*
X490212Y671010D01*
X490058Y670991D01*
X489899Y670951D01*
X489738Y670920D01*
X489591Y670872D01*
X489441Y670834D01*
X489288Y670774D01*
X489132Y670723D01*
X488992Y670658D01*
X488848Y670601D01*
X488704Y670522D01*
X488556Y670452D01*
X488425Y670370D01*
X488289Y670295D01*
X488156Y670199D01*
X488017Y670111D01*
X487898Y670013D01*
X487772Y669922D01*
X487653Y669810D01*
X487526Y669706D01*
X487420Y669593D01*
X487307Y669487D01*
X487202Y669361D01*
X487090Y669242D01*
X486998Y669116D01*
X486899Y668997D01*
X486811Y668859D01*
X486715Y668727D01*
X486640Y668591D01*
X486556Y668460D01*
X486486Y668312D01*
X486407Y668169D01*
X486350Y668025D01*
X486283Y667885D01*
X486232Y667729D01*
X486172Y667576D01*
X486133Y667426D01*
X486085Y667279D01*
X486053Y667118D01*
X486012Y666960D01*
X485993Y666806D01*
X485963Y666654D01*
X485953Y666495D01*
X485931Y666328D01*
X485931Y666159D01*
X485921Y666000D01*
X485921Y609000D01*
X485930Y608846D01*
X485930Y608690D01*
X485950Y608528D01*
X485961Y608364D01*
X485990Y608212D01*
X486009Y608058D01*
X486049Y607899D01*
X486080Y607738D01*
X486128Y607591D01*
X486166Y607441D01*
X486226Y607288D01*
X486277Y607132D01*
X486343Y606992D01*
X486399Y606848D01*
X486478Y606704D01*
X486548Y606556D01*
X486630Y606425D01*
X486705Y606289D01*
X486801Y606156D01*
X486889Y606017D01*
X486987Y605898D01*
X487078Y605772D01*
X487190Y605653D01*
X487294Y605526D01*
X487407Y605420D01*
X487513Y605307D01*
X487639Y605202D01*
X487758Y605090D01*
X487884Y604998D01*
X488003Y604899D01*
X488141Y604811D01*
X488274Y604715D01*
X488409Y604640D01*
X488540Y604556D01*
X488688Y604486D01*
X488831Y604407D01*
X488975Y604350D01*
X489115Y604283D01*
X489271Y604232D01*
X489424Y604172D01*
X489574Y604133D01*
X489721Y604085D01*
X489882Y604053D01*
X490040Y604012D01*
X490194Y603993D01*
X490346Y603963D01*
X490505Y603953D01*
X490672Y603931D01*
X490841Y603931D01*
X491000Y603921D01*
X683000Y603921D01*
X683155Y603930D01*
G37*
%LPC*%
G36*
X526707Y897747D02*
X526707Y897747D01*
X526707Y917241D01*
X528445Y917241D01*
X529091Y917068D01*
X529670Y916733D01*
X530143Y916260D01*
X530478Y915681D01*
X530651Y915035D01*
X530651Y897747D01*
X526707Y897747D01*
G37*
%LPD*%
%LPC*%
G36*
X526707Y872159D02*
X526707Y872159D01*
X526707Y891653D01*
X530651Y891653D01*
X530651Y874365D01*
X530478Y873719D01*
X530143Y873140D01*
X529670Y872667D01*
X529091Y872332D01*
X528445Y872159D01*
X526707Y872159D01*
G37*
%LPD*%
%LPC*%
G36*
X296669Y921247D02*
X296669Y921247D01*
X296669Y938535D01*
X296842Y939181D01*
X297177Y939760D01*
X297650Y940233D01*
X298229Y940568D01*
X298875Y940741D01*
X300613Y940741D01*
X300613Y921247D01*
X296669Y921247D01*
G37*
%LPD*%
%LPC*%
G36*
X298875Y895659D02*
X298875Y895659D01*
X298229Y895832D01*
X297650Y896167D01*
X297177Y896640D01*
X296842Y897219D01*
X296669Y897865D01*
X296669Y915153D01*
X300613Y915153D01*
X300613Y895659D01*
X298875Y895659D01*
G37*
%LPD*%
D10*
X345000Y773000D03*
X345000Y779500D03*
X345000Y786000D03*
X326000Y786000D03*
X326000Y773000D03*
D11*
X321836Y821200D03*
X304836Y821200D03*
D12*
X463660Y918200D03*
X423660Y918200D03*
X383660Y918200D03*
X343660Y918200D03*
X303660Y918200D03*
X323660Y894700D03*
X523660Y894700D03*
X483660Y894700D03*
X443660Y894700D03*
X403660Y894700D03*
X363660Y894700D03*
X503660Y918200D03*
D13*
X764625Y398000D03*
X797375Y398000D03*
D14*
X451000Y623625D03*
X451000Y656375D03*
D15*
X365000Y812500D03*
X365000Y825500D03*
D16*
X406000Y823500D03*
X406000Y806500D03*
D17*
X322592Y819642D02*
X321836Y821200D01*
X324000Y821318D01*
X324000Y817050D02*
X320000Y816832D01*
X320000Y817050D02*
X322592Y819642D01*
D18*
X323499Y894539D02*
X323660Y894700D01*
X323499Y894539D02*
X323499Y822863D01*
X321836Y821200D01*
X324000Y788000D02*
X326000Y786000D01*
X320000Y816832D02*
X320000Y817050D01*
X324000Y817050D02*
X324000Y821318D01*
X324000Y817050D02*
X324000Y788000D01*
D19*
X138254Y560620D03*
X694286Y562160D03*
X316476Y561874D03*
X277302Y560620D03*
D20*
X315222Y560620D02*
X316476Y561874D01*
X315222Y560620D02*
X277302Y560620D01*
X316762Y562160D02*
X694286Y562160D01*
X316762Y562160D02*
X316476Y561874D01*
D21*
X406000Y775000D02*
X406000Y806500D01*
X406000Y775000D02*
X404000Y773000D01*
X360985Y773000D01*
X345000Y773000D01*
D20*
X277302Y560620D02*
X138254Y560620D01*
X325375Y656375D02*
X451000Y656375D01*
X325375Y656375D02*
X316476Y647476D01*
X316476Y561874D01*
D21*
X326000Y773000D02*
X345000Y773000D01*
D18*
X304568Y917686D02*
X304054Y918200D01*
X303660Y918200D01*
X304836Y822521D02*
X304836Y821200D01*
X304836Y822521D02*
X304568Y822788D01*
X304568Y917686D01*
X310800Y773000D02*
X326000Y773000D01*
X304836Y778964D02*
X304836Y821200D01*
X304836Y778964D02*
X310800Y773000D01*
D21*
X345000Y779500D02*
X354485Y779500D01*
X360985Y773000D01*
D19*
X660000Y114000D03*
X148000Y110000D03*
X143000Y347000D03*
D20*
X27909Y340962D02*
X27909Y725471D01*
X27909Y340962D02*
X50871Y318000D01*
X137000Y318000D01*
X143000Y324000D02*
X143000Y347000D01*
X143000Y324000D02*
X137000Y318000D01*
X152000Y114000D02*
X660000Y114000D01*
X152000Y114000D02*
X148000Y110000D01*
X143000Y115000D02*
X143000Y324000D01*
X143000Y115000D02*
X148000Y110000D01*
X463660Y910673D02*
X463660Y918200D01*
X463660Y910673D02*
X443863Y894942D01*
X443863Y894903D01*
X443660Y894700D01*
X49438Y747000D02*
X27909Y725471D01*
X49438Y747000D02*
X420455Y747000D01*
D19*
X660000Y345000D03*
D20*
X660000Y114000D01*
X443152Y894192D02*
X443660Y894700D01*
X443152Y894192D02*
X443152Y769697D01*
X713000Y398000D02*
X660000Y345000D01*
X713000Y398000D02*
X764625Y398000D01*
X420455Y747000D02*
X443152Y769697D01*
D22*
X626000Y624000D03*
X575000Y623000D03*
X528000Y623000D03*
D20*
X575000Y623000D01*
X626000Y624000D01*
X743500Y624500D02*
X797000Y571000D01*
X743500Y624500D02*
X626500Y624500D01*
X626000Y624000D01*
X528000Y623000D02*
X527492Y623508D01*
X451117Y623508D01*
X451000Y623625D01*
X797000Y398375D02*
X797375Y398000D01*
X797000Y398375D02*
X797000Y571000D01*
X797375Y398000D02*
X797375Y145375D01*
X723430Y71430D01*
X649684Y71430D01*
D23*
X483636Y28570D03*
X332142Y29078D03*
D20*
X484144Y29078D02*
X607332Y29078D01*
X484144Y29078D02*
X483636Y28570D01*
D23*
X281000Y28570D03*
X552000Y28824D03*
D20*
X332142Y29078D02*
X331634Y28570D01*
X281000Y28570D01*
X607332Y29078D02*
X649684Y71430D01*
X442309Y614934D02*
X451000Y623625D01*
X442309Y614934D02*
X413766Y614934D01*
D23*
X413766Y614934D03*
D18*
X365000Y790000D02*
X365000Y812500D01*
X361000Y786000D02*
X345000Y786000D01*
X361000Y786000D02*
X365000Y790000D01*
X365000Y825500D02*
X404000Y825500D01*
X406000Y823500D01*
X483660Y939250D02*
X483660Y939250D01*
X483660Y944330D01*
X483660Y939250D02*
X483660Y894700D01*
X471990Y956000D02*
X425478Y956000D01*
X413612Y944134D01*
X413612Y831112D02*
X406000Y823500D01*
X406000Y823500D01*
X483660Y944330D02*
X471990Y956000D01*
X413612Y944134D02*
X413612Y831112D01*
M02*
