G04 EAGLE Gerber RS-274X export*
G75*
%MOMM*%
%FSLAX34Y34*%
%LPD*%
%INoutline*%
%IPPOS*%
%AMOC8*
5,1,8,0,0,1.08239X$1,22.5*%
G01*
%ADD10C,0.000000*%
%ADD11C,0.152400*%


D10*
X0Y0D02*
X826000Y0D01*
X826000Y1007000D02*
X0Y1007000D01*
X826000Y1007000D02*
X826000Y0D01*
X0Y0D02*
X0Y1007000D01*
X52000Y523000D02*
X130000Y523000D01*
X52000Y523000D02*
X52000Y483000D01*
X130000Y483000D02*
X130000Y523000D01*
X130000Y483000D02*
X52000Y483000D01*
X153000Y533000D02*
X213000Y533000D01*
X213000Y473000D01*
X153000Y473000D01*
X153000Y533000D01*
X248000Y528500D02*
X378000Y528500D01*
X248000Y528500D02*
X248000Y473500D01*
X378000Y473500D02*
X378000Y528500D01*
X378000Y473500D02*
X248000Y473500D01*
X441000Y528500D02*
X571000Y528500D01*
X441000Y528500D02*
X441000Y473500D01*
X571000Y473500D02*
X571000Y528500D01*
X571000Y473500D02*
X441000Y473500D01*
X603000Y528000D02*
X768000Y528000D01*
X603000Y528000D02*
X603000Y478000D01*
X768000Y478000D02*
X768000Y528000D01*
X768000Y478000D02*
X603000Y478000D01*
D11*
X76827Y976162D02*
X76830Y976432D01*
X76840Y976702D01*
X76857Y976971D01*
X76880Y977240D01*
X76910Y977509D01*
X76946Y977776D01*
X76989Y978043D01*
X77038Y978308D01*
X77094Y978572D01*
X77157Y978835D01*
X77225Y979096D01*
X77301Y979355D01*
X77382Y979612D01*
X77470Y979868D01*
X77564Y980121D01*
X77664Y980372D01*
X77771Y980620D01*
X77883Y980865D01*
X78002Y981108D01*
X78126Y981347D01*
X78256Y981584D01*
X78392Y981817D01*
X78534Y982047D01*
X78681Y982273D01*
X78834Y982496D01*
X78992Y982715D01*
X79155Y982930D01*
X79324Y983140D01*
X79498Y983347D01*
X79677Y983549D01*
X79860Y983747D01*
X80049Y983940D01*
X80242Y984129D01*
X80440Y984312D01*
X80642Y984491D01*
X80849Y984665D01*
X81059Y984834D01*
X81274Y984997D01*
X81493Y985155D01*
X81716Y985308D01*
X81942Y985455D01*
X82172Y985597D01*
X82405Y985733D01*
X82642Y985863D01*
X82881Y985987D01*
X83124Y986106D01*
X83369Y986218D01*
X83617Y986325D01*
X83868Y986425D01*
X84121Y986519D01*
X84377Y986607D01*
X84634Y986688D01*
X84893Y986764D01*
X85154Y986832D01*
X85417Y986895D01*
X85681Y986951D01*
X85946Y987000D01*
X86213Y987043D01*
X86480Y987079D01*
X86749Y987109D01*
X87018Y987132D01*
X87287Y987149D01*
X87557Y987159D01*
X87827Y987162D01*
X88097Y987159D01*
X88367Y987149D01*
X88636Y987132D01*
X88905Y987109D01*
X89174Y987079D01*
X89441Y987043D01*
X89708Y987000D01*
X89973Y986951D01*
X90237Y986895D01*
X90500Y986832D01*
X90761Y986764D01*
X91020Y986688D01*
X91277Y986607D01*
X91533Y986519D01*
X91786Y986425D01*
X92037Y986325D01*
X92285Y986218D01*
X92530Y986106D01*
X92773Y985987D01*
X93012Y985863D01*
X93249Y985733D01*
X93482Y985597D01*
X93712Y985455D01*
X93938Y985308D01*
X94161Y985155D01*
X94380Y984997D01*
X94595Y984834D01*
X94805Y984665D01*
X95012Y984491D01*
X95214Y984312D01*
X95412Y984129D01*
X95605Y983940D01*
X95794Y983747D01*
X95977Y983549D01*
X96156Y983347D01*
X96330Y983140D01*
X96499Y982930D01*
X96662Y982715D01*
X96820Y982496D01*
X96973Y982273D01*
X97120Y982047D01*
X97262Y981817D01*
X97398Y981584D01*
X97528Y981347D01*
X97652Y981108D01*
X97771Y980865D01*
X97883Y980620D01*
X97990Y980372D01*
X98090Y980121D01*
X98184Y979868D01*
X98272Y979612D01*
X98353Y979355D01*
X98429Y979096D01*
X98497Y978835D01*
X98560Y978572D01*
X98616Y978308D01*
X98665Y978043D01*
X98708Y977776D01*
X98744Y977509D01*
X98774Y977240D01*
X98797Y976971D01*
X98814Y976702D01*
X98824Y976432D01*
X98827Y976162D01*
X98824Y975892D01*
X98814Y975622D01*
X98797Y975353D01*
X98774Y975084D01*
X98744Y974815D01*
X98708Y974548D01*
X98665Y974281D01*
X98616Y974016D01*
X98560Y973752D01*
X98497Y973489D01*
X98429Y973228D01*
X98353Y972969D01*
X98272Y972712D01*
X98184Y972456D01*
X98090Y972203D01*
X97990Y971952D01*
X97883Y971704D01*
X97771Y971459D01*
X97652Y971216D01*
X97528Y970977D01*
X97398Y970740D01*
X97262Y970507D01*
X97120Y970277D01*
X96973Y970051D01*
X96820Y969828D01*
X96662Y969609D01*
X96499Y969394D01*
X96330Y969184D01*
X96156Y968977D01*
X95977Y968775D01*
X95794Y968577D01*
X95605Y968384D01*
X95412Y968195D01*
X95214Y968012D01*
X95012Y967833D01*
X94805Y967659D01*
X94595Y967490D01*
X94380Y967327D01*
X94161Y967169D01*
X93938Y967016D01*
X93712Y966869D01*
X93482Y966727D01*
X93249Y966591D01*
X93012Y966461D01*
X92773Y966337D01*
X92530Y966218D01*
X92285Y966106D01*
X92037Y965999D01*
X91786Y965899D01*
X91533Y965805D01*
X91277Y965717D01*
X91020Y965636D01*
X90761Y965560D01*
X90500Y965492D01*
X90237Y965429D01*
X89973Y965373D01*
X89708Y965324D01*
X89441Y965281D01*
X89174Y965245D01*
X88905Y965215D01*
X88636Y965192D01*
X88367Y965175D01*
X88097Y965165D01*
X87827Y965162D01*
X87557Y965165D01*
X87287Y965175D01*
X87018Y965192D01*
X86749Y965215D01*
X86480Y965245D01*
X86213Y965281D01*
X85946Y965324D01*
X85681Y965373D01*
X85417Y965429D01*
X85154Y965492D01*
X84893Y965560D01*
X84634Y965636D01*
X84377Y965717D01*
X84121Y965805D01*
X83868Y965899D01*
X83617Y965999D01*
X83369Y966106D01*
X83124Y966218D01*
X82881Y966337D01*
X82642Y966461D01*
X82405Y966591D01*
X82172Y966727D01*
X81942Y966869D01*
X81716Y967016D01*
X81493Y967169D01*
X81274Y967327D01*
X81059Y967490D01*
X80849Y967659D01*
X80642Y967833D01*
X80440Y968012D01*
X80242Y968195D01*
X80049Y968384D01*
X79860Y968577D01*
X79677Y968775D01*
X79498Y968977D01*
X79324Y969184D01*
X79155Y969394D01*
X78992Y969609D01*
X78834Y969828D01*
X78681Y970051D01*
X78534Y970277D01*
X78392Y970507D01*
X78256Y970740D01*
X78126Y970977D01*
X78002Y971216D01*
X77883Y971459D01*
X77771Y971704D01*
X77664Y971952D01*
X77564Y972203D01*
X77470Y972456D01*
X77382Y972712D01*
X77301Y972969D01*
X77225Y973228D01*
X77157Y973489D01*
X77094Y973752D01*
X77038Y974016D01*
X76989Y974281D01*
X76946Y974548D01*
X76910Y974815D01*
X76880Y975084D01*
X76857Y975353D01*
X76840Y975622D01*
X76830Y975892D01*
X76827Y976162D01*
X727047Y976010D02*
X727050Y976280D01*
X727060Y976550D01*
X727077Y976819D01*
X727100Y977088D01*
X727130Y977357D01*
X727166Y977624D01*
X727209Y977891D01*
X727258Y978156D01*
X727314Y978420D01*
X727377Y978683D01*
X727445Y978944D01*
X727521Y979203D01*
X727602Y979460D01*
X727690Y979716D01*
X727784Y979969D01*
X727884Y980220D01*
X727991Y980468D01*
X728103Y980713D01*
X728222Y980956D01*
X728346Y981195D01*
X728476Y981432D01*
X728612Y981665D01*
X728754Y981895D01*
X728901Y982121D01*
X729054Y982344D01*
X729212Y982563D01*
X729375Y982778D01*
X729544Y982988D01*
X729718Y983195D01*
X729897Y983397D01*
X730080Y983595D01*
X730269Y983788D01*
X730462Y983977D01*
X730660Y984160D01*
X730862Y984339D01*
X731069Y984513D01*
X731279Y984682D01*
X731494Y984845D01*
X731713Y985003D01*
X731936Y985156D01*
X732162Y985303D01*
X732392Y985445D01*
X732625Y985581D01*
X732862Y985711D01*
X733101Y985835D01*
X733344Y985954D01*
X733589Y986066D01*
X733837Y986173D01*
X734088Y986273D01*
X734341Y986367D01*
X734597Y986455D01*
X734854Y986536D01*
X735113Y986612D01*
X735374Y986680D01*
X735637Y986743D01*
X735901Y986799D01*
X736166Y986848D01*
X736433Y986891D01*
X736700Y986927D01*
X736969Y986957D01*
X737238Y986980D01*
X737507Y986997D01*
X737777Y987007D01*
X738047Y987010D01*
X738317Y987007D01*
X738587Y986997D01*
X738856Y986980D01*
X739125Y986957D01*
X739394Y986927D01*
X739661Y986891D01*
X739928Y986848D01*
X740193Y986799D01*
X740457Y986743D01*
X740720Y986680D01*
X740981Y986612D01*
X741240Y986536D01*
X741497Y986455D01*
X741753Y986367D01*
X742006Y986273D01*
X742257Y986173D01*
X742505Y986066D01*
X742750Y985954D01*
X742993Y985835D01*
X743232Y985711D01*
X743469Y985581D01*
X743702Y985445D01*
X743932Y985303D01*
X744158Y985156D01*
X744381Y985003D01*
X744600Y984845D01*
X744815Y984682D01*
X745025Y984513D01*
X745232Y984339D01*
X745434Y984160D01*
X745632Y983977D01*
X745825Y983788D01*
X746014Y983595D01*
X746197Y983397D01*
X746376Y983195D01*
X746550Y982988D01*
X746719Y982778D01*
X746882Y982563D01*
X747040Y982344D01*
X747193Y982121D01*
X747340Y981895D01*
X747482Y981665D01*
X747618Y981432D01*
X747748Y981195D01*
X747872Y980956D01*
X747991Y980713D01*
X748103Y980468D01*
X748210Y980220D01*
X748310Y979969D01*
X748404Y979716D01*
X748492Y979460D01*
X748573Y979203D01*
X748649Y978944D01*
X748717Y978683D01*
X748780Y978420D01*
X748836Y978156D01*
X748885Y977891D01*
X748928Y977624D01*
X748964Y977357D01*
X748994Y977088D01*
X749017Y976819D01*
X749034Y976550D01*
X749044Y976280D01*
X749047Y976010D01*
X749044Y975740D01*
X749034Y975470D01*
X749017Y975201D01*
X748994Y974932D01*
X748964Y974663D01*
X748928Y974396D01*
X748885Y974129D01*
X748836Y973864D01*
X748780Y973600D01*
X748717Y973337D01*
X748649Y973076D01*
X748573Y972817D01*
X748492Y972560D01*
X748404Y972304D01*
X748310Y972051D01*
X748210Y971800D01*
X748103Y971552D01*
X747991Y971307D01*
X747872Y971064D01*
X747748Y970825D01*
X747618Y970588D01*
X747482Y970355D01*
X747340Y970125D01*
X747193Y969899D01*
X747040Y969676D01*
X746882Y969457D01*
X746719Y969242D01*
X746550Y969032D01*
X746376Y968825D01*
X746197Y968623D01*
X746014Y968425D01*
X745825Y968232D01*
X745632Y968043D01*
X745434Y967860D01*
X745232Y967681D01*
X745025Y967507D01*
X744815Y967338D01*
X744600Y967175D01*
X744381Y967017D01*
X744158Y966864D01*
X743932Y966717D01*
X743702Y966575D01*
X743469Y966439D01*
X743232Y966309D01*
X742993Y966185D01*
X742750Y966066D01*
X742505Y965954D01*
X742257Y965847D01*
X742006Y965747D01*
X741753Y965653D01*
X741497Y965565D01*
X741240Y965484D01*
X740981Y965408D01*
X740720Y965340D01*
X740457Y965277D01*
X740193Y965221D01*
X739928Y965172D01*
X739661Y965129D01*
X739394Y965093D01*
X739125Y965063D01*
X738856Y965040D01*
X738587Y965023D01*
X738317Y965013D01*
X738047Y965010D01*
X737777Y965013D01*
X737507Y965023D01*
X737238Y965040D01*
X736969Y965063D01*
X736700Y965093D01*
X736433Y965129D01*
X736166Y965172D01*
X735901Y965221D01*
X735637Y965277D01*
X735374Y965340D01*
X735113Y965408D01*
X734854Y965484D01*
X734597Y965565D01*
X734341Y965653D01*
X734088Y965747D01*
X733837Y965847D01*
X733589Y965954D01*
X733344Y966066D01*
X733101Y966185D01*
X732862Y966309D01*
X732625Y966439D01*
X732392Y966575D01*
X732162Y966717D01*
X731936Y966864D01*
X731713Y967017D01*
X731494Y967175D01*
X731279Y967338D01*
X731069Y967507D01*
X730862Y967681D01*
X730660Y967860D01*
X730462Y968043D01*
X730269Y968232D01*
X730080Y968425D01*
X729897Y968623D01*
X729718Y968825D01*
X729544Y969032D01*
X729375Y969242D01*
X729212Y969457D01*
X729054Y969676D01*
X728901Y969899D01*
X728754Y970125D01*
X728612Y970355D01*
X728476Y970588D01*
X728346Y970825D01*
X728222Y971064D01*
X728103Y971307D01*
X727991Y971552D01*
X727884Y971800D01*
X727784Y972051D01*
X727690Y972304D01*
X727602Y972560D01*
X727521Y972817D01*
X727445Y973076D01*
X727377Y973337D01*
X727314Y973600D01*
X727258Y973864D01*
X727209Y974129D01*
X727166Y974396D01*
X727130Y974663D01*
X727100Y974932D01*
X727077Y975201D01*
X727060Y975470D01*
X727050Y975740D01*
X727047Y976010D01*
X66941Y35968D02*
X66944Y36238D01*
X66954Y36508D01*
X66971Y36777D01*
X66994Y37046D01*
X67024Y37315D01*
X67060Y37582D01*
X67103Y37849D01*
X67152Y38114D01*
X67208Y38378D01*
X67271Y38641D01*
X67339Y38902D01*
X67415Y39161D01*
X67496Y39418D01*
X67584Y39674D01*
X67678Y39927D01*
X67778Y40178D01*
X67885Y40426D01*
X67997Y40671D01*
X68116Y40914D01*
X68240Y41153D01*
X68370Y41390D01*
X68506Y41623D01*
X68648Y41853D01*
X68795Y42079D01*
X68948Y42302D01*
X69106Y42521D01*
X69269Y42736D01*
X69438Y42946D01*
X69612Y43153D01*
X69791Y43355D01*
X69974Y43553D01*
X70163Y43746D01*
X70356Y43935D01*
X70554Y44118D01*
X70756Y44297D01*
X70963Y44471D01*
X71173Y44640D01*
X71388Y44803D01*
X71607Y44961D01*
X71830Y45114D01*
X72056Y45261D01*
X72286Y45403D01*
X72519Y45539D01*
X72756Y45669D01*
X72995Y45793D01*
X73238Y45912D01*
X73483Y46024D01*
X73731Y46131D01*
X73982Y46231D01*
X74235Y46325D01*
X74491Y46413D01*
X74748Y46494D01*
X75007Y46570D01*
X75268Y46638D01*
X75531Y46701D01*
X75795Y46757D01*
X76060Y46806D01*
X76327Y46849D01*
X76594Y46885D01*
X76863Y46915D01*
X77132Y46938D01*
X77401Y46955D01*
X77671Y46965D01*
X77941Y46968D01*
X78211Y46965D01*
X78481Y46955D01*
X78750Y46938D01*
X79019Y46915D01*
X79288Y46885D01*
X79555Y46849D01*
X79822Y46806D01*
X80087Y46757D01*
X80351Y46701D01*
X80614Y46638D01*
X80875Y46570D01*
X81134Y46494D01*
X81391Y46413D01*
X81647Y46325D01*
X81900Y46231D01*
X82151Y46131D01*
X82399Y46024D01*
X82644Y45912D01*
X82887Y45793D01*
X83126Y45669D01*
X83363Y45539D01*
X83596Y45403D01*
X83826Y45261D01*
X84052Y45114D01*
X84275Y44961D01*
X84494Y44803D01*
X84709Y44640D01*
X84919Y44471D01*
X85126Y44297D01*
X85328Y44118D01*
X85526Y43935D01*
X85719Y43746D01*
X85908Y43553D01*
X86091Y43355D01*
X86270Y43153D01*
X86444Y42946D01*
X86613Y42736D01*
X86776Y42521D01*
X86934Y42302D01*
X87087Y42079D01*
X87234Y41853D01*
X87376Y41623D01*
X87512Y41390D01*
X87642Y41153D01*
X87766Y40914D01*
X87885Y40671D01*
X87997Y40426D01*
X88104Y40178D01*
X88204Y39927D01*
X88298Y39674D01*
X88386Y39418D01*
X88467Y39161D01*
X88543Y38902D01*
X88611Y38641D01*
X88674Y38378D01*
X88730Y38114D01*
X88779Y37849D01*
X88822Y37582D01*
X88858Y37315D01*
X88888Y37046D01*
X88911Y36777D01*
X88928Y36508D01*
X88938Y36238D01*
X88941Y35968D01*
X88938Y35698D01*
X88928Y35428D01*
X88911Y35159D01*
X88888Y34890D01*
X88858Y34621D01*
X88822Y34354D01*
X88779Y34087D01*
X88730Y33822D01*
X88674Y33558D01*
X88611Y33295D01*
X88543Y33034D01*
X88467Y32775D01*
X88386Y32518D01*
X88298Y32262D01*
X88204Y32009D01*
X88104Y31758D01*
X87997Y31510D01*
X87885Y31265D01*
X87766Y31022D01*
X87642Y30783D01*
X87512Y30546D01*
X87376Y30313D01*
X87234Y30083D01*
X87087Y29857D01*
X86934Y29634D01*
X86776Y29415D01*
X86613Y29200D01*
X86444Y28990D01*
X86270Y28783D01*
X86091Y28581D01*
X85908Y28383D01*
X85719Y28190D01*
X85526Y28001D01*
X85328Y27818D01*
X85126Y27639D01*
X84919Y27465D01*
X84709Y27296D01*
X84494Y27133D01*
X84275Y26975D01*
X84052Y26822D01*
X83826Y26675D01*
X83596Y26533D01*
X83363Y26397D01*
X83126Y26267D01*
X82887Y26143D01*
X82644Y26024D01*
X82399Y25912D01*
X82151Y25805D01*
X81900Y25705D01*
X81647Y25611D01*
X81391Y25523D01*
X81134Y25442D01*
X80875Y25366D01*
X80614Y25298D01*
X80351Y25235D01*
X80087Y25179D01*
X79822Y25130D01*
X79555Y25087D01*
X79288Y25051D01*
X79019Y25021D01*
X78750Y24998D01*
X78481Y24981D01*
X78211Y24971D01*
X77941Y24968D01*
X77671Y24971D01*
X77401Y24981D01*
X77132Y24998D01*
X76863Y25021D01*
X76594Y25051D01*
X76327Y25087D01*
X76060Y25130D01*
X75795Y25179D01*
X75531Y25235D01*
X75268Y25298D01*
X75007Y25366D01*
X74748Y25442D01*
X74491Y25523D01*
X74235Y25611D01*
X73982Y25705D01*
X73731Y25805D01*
X73483Y25912D01*
X73238Y26024D01*
X72995Y26143D01*
X72756Y26267D01*
X72519Y26397D01*
X72286Y26533D01*
X72056Y26675D01*
X71830Y26822D01*
X71607Y26975D01*
X71388Y27133D01*
X71173Y27296D01*
X70963Y27465D01*
X70756Y27639D01*
X70554Y27818D01*
X70356Y28001D01*
X70163Y28190D01*
X69974Y28383D01*
X69791Y28581D01*
X69612Y28783D01*
X69438Y28990D01*
X69269Y29200D01*
X69106Y29415D01*
X68948Y29634D01*
X68795Y29857D01*
X68648Y30083D01*
X68506Y30313D01*
X68370Y30546D01*
X68240Y30783D01*
X68116Y31022D01*
X67997Y31265D01*
X67885Y31510D01*
X67778Y31758D01*
X67678Y32009D01*
X67584Y32262D01*
X67496Y32518D01*
X67415Y32775D01*
X67339Y33034D01*
X67271Y33295D01*
X67208Y33558D01*
X67152Y33822D01*
X67103Y34087D01*
X67060Y34354D01*
X67024Y34621D01*
X66994Y34890D01*
X66971Y35159D01*
X66954Y35428D01*
X66944Y35698D01*
X66941Y35968D01*
X737027Y36062D02*
X737030Y36332D01*
X737040Y36602D01*
X737057Y36871D01*
X737080Y37140D01*
X737110Y37409D01*
X737146Y37676D01*
X737189Y37943D01*
X737238Y38208D01*
X737294Y38472D01*
X737357Y38735D01*
X737425Y38996D01*
X737501Y39255D01*
X737582Y39512D01*
X737670Y39768D01*
X737764Y40021D01*
X737864Y40272D01*
X737971Y40520D01*
X738083Y40765D01*
X738202Y41008D01*
X738326Y41247D01*
X738456Y41484D01*
X738592Y41717D01*
X738734Y41947D01*
X738881Y42173D01*
X739034Y42396D01*
X739192Y42615D01*
X739355Y42830D01*
X739524Y43040D01*
X739698Y43247D01*
X739877Y43449D01*
X740060Y43647D01*
X740249Y43840D01*
X740442Y44029D01*
X740640Y44212D01*
X740842Y44391D01*
X741049Y44565D01*
X741259Y44734D01*
X741474Y44897D01*
X741693Y45055D01*
X741916Y45208D01*
X742142Y45355D01*
X742372Y45497D01*
X742605Y45633D01*
X742842Y45763D01*
X743081Y45887D01*
X743324Y46006D01*
X743569Y46118D01*
X743817Y46225D01*
X744068Y46325D01*
X744321Y46419D01*
X744577Y46507D01*
X744834Y46588D01*
X745093Y46664D01*
X745354Y46732D01*
X745617Y46795D01*
X745881Y46851D01*
X746146Y46900D01*
X746413Y46943D01*
X746680Y46979D01*
X746949Y47009D01*
X747218Y47032D01*
X747487Y47049D01*
X747757Y47059D01*
X748027Y47062D01*
X748297Y47059D01*
X748567Y47049D01*
X748836Y47032D01*
X749105Y47009D01*
X749374Y46979D01*
X749641Y46943D01*
X749908Y46900D01*
X750173Y46851D01*
X750437Y46795D01*
X750700Y46732D01*
X750961Y46664D01*
X751220Y46588D01*
X751477Y46507D01*
X751733Y46419D01*
X751986Y46325D01*
X752237Y46225D01*
X752485Y46118D01*
X752730Y46006D01*
X752973Y45887D01*
X753212Y45763D01*
X753449Y45633D01*
X753682Y45497D01*
X753912Y45355D01*
X754138Y45208D01*
X754361Y45055D01*
X754580Y44897D01*
X754795Y44734D01*
X755005Y44565D01*
X755212Y44391D01*
X755414Y44212D01*
X755612Y44029D01*
X755805Y43840D01*
X755994Y43647D01*
X756177Y43449D01*
X756356Y43247D01*
X756530Y43040D01*
X756699Y42830D01*
X756862Y42615D01*
X757020Y42396D01*
X757173Y42173D01*
X757320Y41947D01*
X757462Y41717D01*
X757598Y41484D01*
X757728Y41247D01*
X757852Y41008D01*
X757971Y40765D01*
X758083Y40520D01*
X758190Y40272D01*
X758290Y40021D01*
X758384Y39768D01*
X758472Y39512D01*
X758553Y39255D01*
X758629Y38996D01*
X758697Y38735D01*
X758760Y38472D01*
X758816Y38208D01*
X758865Y37943D01*
X758908Y37676D01*
X758944Y37409D01*
X758974Y37140D01*
X758997Y36871D01*
X759014Y36602D01*
X759024Y36332D01*
X759027Y36062D01*
X759024Y35792D01*
X759014Y35522D01*
X758997Y35253D01*
X758974Y34984D01*
X758944Y34715D01*
X758908Y34448D01*
X758865Y34181D01*
X758816Y33916D01*
X758760Y33652D01*
X758697Y33389D01*
X758629Y33128D01*
X758553Y32869D01*
X758472Y32612D01*
X758384Y32356D01*
X758290Y32103D01*
X758190Y31852D01*
X758083Y31604D01*
X757971Y31359D01*
X757852Y31116D01*
X757728Y30877D01*
X757598Y30640D01*
X757462Y30407D01*
X757320Y30177D01*
X757173Y29951D01*
X757020Y29728D01*
X756862Y29509D01*
X756699Y29294D01*
X756530Y29084D01*
X756356Y28877D01*
X756177Y28675D01*
X755994Y28477D01*
X755805Y28284D01*
X755612Y28095D01*
X755414Y27912D01*
X755212Y27733D01*
X755005Y27559D01*
X754795Y27390D01*
X754580Y27227D01*
X754361Y27069D01*
X754138Y26916D01*
X753912Y26769D01*
X753682Y26627D01*
X753449Y26491D01*
X753212Y26361D01*
X752973Y26237D01*
X752730Y26118D01*
X752485Y26006D01*
X752237Y25899D01*
X751986Y25799D01*
X751733Y25705D01*
X751477Y25617D01*
X751220Y25536D01*
X750961Y25460D01*
X750700Y25392D01*
X750437Y25329D01*
X750173Y25273D01*
X749908Y25224D01*
X749641Y25181D01*
X749374Y25145D01*
X749105Y25115D01*
X748836Y25092D01*
X748567Y25075D01*
X748297Y25065D01*
X748027Y25062D01*
X747757Y25065D01*
X747487Y25075D01*
X747218Y25092D01*
X746949Y25115D01*
X746680Y25145D01*
X746413Y25181D01*
X746146Y25224D01*
X745881Y25273D01*
X745617Y25329D01*
X745354Y25392D01*
X745093Y25460D01*
X744834Y25536D01*
X744577Y25617D01*
X744321Y25705D01*
X744068Y25799D01*
X743817Y25899D01*
X743569Y26006D01*
X743324Y26118D01*
X743081Y26237D01*
X742842Y26361D01*
X742605Y26491D01*
X742372Y26627D01*
X742142Y26769D01*
X741916Y26916D01*
X741693Y27069D01*
X741474Y27227D01*
X741259Y27390D01*
X741049Y27559D01*
X740842Y27733D01*
X740640Y27912D01*
X740442Y28095D01*
X740249Y28284D01*
X740060Y28477D01*
X739877Y28675D01*
X739698Y28877D01*
X739524Y29084D01*
X739355Y29294D01*
X739192Y29509D01*
X739034Y29728D01*
X738881Y29951D01*
X738734Y30177D01*
X738592Y30407D01*
X738456Y30640D01*
X738326Y30877D01*
X738202Y31116D01*
X738083Y31359D01*
X737971Y31604D01*
X737864Y31852D01*
X737764Y32103D01*
X737670Y32356D01*
X737582Y32612D01*
X737501Y32869D01*
X737425Y33128D01*
X737357Y33389D01*
X737294Y33652D01*
X737238Y33916D01*
X737189Y34181D01*
X737146Y34448D01*
X737110Y34715D01*
X737080Y34984D01*
X737057Y35253D01*
X737040Y35522D01*
X737030Y35792D01*
X737027Y36062D01*
M02*
