G04 EAGLE Gerber RS-274X export*
G75*
%MOMM*%
%FSLAX34Y34*%
%LPD*%
%INSilk screen SOL*%
%IPPOS*%
%AMOC8*
5,1,8,0,0,1.08239X$1,22.5*%
G01*
%ADD10C,0.152400*%
%ADD11C,0.609600*%
%ADD12C,0.101600*%
%ADD13C,0.304800*%


D10*
X132000Y470000D02*
X695500Y470000D01*
D11*
X243840Y291846D02*
X243586Y291592D01*
X232156Y332740D02*
X231902Y332994D01*
D10*
X825500Y866343D02*
X685597Y1006246D01*
X825500Y866343D02*
X825500Y571805D01*
X610Y571805D01*
X508Y571703D02*
X508Y869188D01*
X610Y571805D02*
X508Y571703D01*
X508Y869188D02*
X137566Y1006246D01*
X686308Y1006246D01*
X132000Y470000D02*
X0Y338430D01*
X0Y37897D02*
X826414Y37897D01*
X826719Y338836D02*
X695500Y470000D01*
X0Y338430D02*
X0Y37897D01*
X826719Y38202D02*
X826719Y338836D01*
X826719Y38202D02*
X826414Y37897D01*
D12*
X78855Y539738D02*
X76906Y537789D01*
X78855Y539738D02*
X80804Y539738D01*
X82753Y537789D01*
X82753Y528044D01*
X80804Y528044D02*
X84702Y528044D01*
X88600Y529993D02*
X90549Y528044D01*
X94447Y528044D01*
X96396Y529993D01*
X96396Y531942D01*
X94447Y533891D01*
X92498Y533891D01*
X94447Y533891D02*
X96396Y535840D01*
X96396Y537789D01*
X94447Y539738D01*
X90549Y539738D01*
X88600Y537789D01*
X170785Y546019D02*
X172734Y547968D01*
X174683Y547968D01*
X176632Y546019D01*
X176632Y536274D01*
X174683Y536274D02*
X178581Y536274D01*
X182479Y547968D02*
X190275Y547968D01*
X182479Y547968D02*
X190275Y540172D01*
X190275Y538223D01*
X188326Y536274D01*
X184428Y536274D01*
X182479Y538223D01*
X293416Y543492D02*
X293416Y531798D01*
X299263Y531798D01*
X301212Y533747D01*
X301212Y537645D01*
X299263Y539594D01*
X293416Y539594D01*
X297314Y539594D02*
X301212Y543492D01*
X305110Y543492D02*
X305110Y531798D01*
X310957Y531798D01*
X312906Y533747D01*
X312906Y535696D01*
X310957Y537645D01*
X312906Y539594D01*
X312906Y541543D01*
X310957Y543492D01*
X305110Y543492D01*
X305110Y537645D02*
X310957Y537645D01*
X316804Y543492D02*
X316804Y531798D01*
X324600Y531798D01*
X320702Y537645D02*
X316804Y537645D01*
X328498Y543492D02*
X336294Y543492D01*
X328498Y543492D02*
X336294Y535696D01*
X336294Y533747D01*
X334345Y531798D01*
X330447Y531798D01*
X328498Y533747D01*
X488894Y531798D02*
X488894Y543492D01*
X488894Y531798D02*
X494741Y531798D01*
X496690Y533747D01*
X496690Y537645D01*
X494741Y539594D01*
X488894Y539594D01*
X492792Y539594D02*
X496690Y543492D01*
X500588Y543492D02*
X500588Y531798D01*
X506435Y531798D01*
X508384Y533747D01*
X508384Y535696D01*
X506435Y537645D01*
X508384Y539594D01*
X508384Y541543D01*
X506435Y543492D01*
X500588Y543492D01*
X500588Y537645D02*
X506435Y537645D01*
X512282Y543492D02*
X512282Y531798D01*
X520078Y531798D01*
X516180Y537645D02*
X512282Y537645D01*
X523976Y535696D02*
X527874Y531798D01*
X527874Y543492D01*
X523976Y543492D02*
X531772Y543492D01*
X615508Y541543D02*
X617457Y543492D01*
X619406Y543492D01*
X621355Y541543D01*
X621355Y531798D01*
X619406Y531798D02*
X623304Y531798D01*
X633049Y531798D02*
X633049Y543492D01*
X627202Y537645D02*
X633049Y531798D01*
X634998Y537645D02*
X627202Y537645D01*
X679090Y541543D02*
X681039Y543492D01*
X682988Y543492D01*
X684937Y541543D01*
X684937Y531798D01*
X682988Y531798D02*
X686886Y531798D01*
X690784Y535696D02*
X694681Y531798D01*
X694681Y543492D01*
X690784Y543492D02*
X698579Y543492D01*
X733852Y541543D02*
X735801Y543492D01*
X737750Y543492D01*
X739699Y541543D01*
X739699Y531798D01*
X737750Y531798D02*
X741648Y531798D01*
X745546Y531798D02*
X753342Y531798D01*
X745546Y531798D02*
X745546Y537645D01*
X749444Y535696D01*
X751393Y535696D01*
X753342Y537645D01*
X753342Y541543D01*
X751393Y543492D01*
X747495Y543492D01*
X745546Y541543D01*
D13*
X813250Y60000D02*
X13250Y60000D01*
X13250Y330000D01*
X813250Y330000D02*
X813250Y60000D01*
X143250Y460000D02*
X13250Y330000D01*
X143250Y460000D02*
X683250Y460000D01*
X813250Y330000D01*
X813000Y592000D02*
X13000Y592000D01*
X13000Y862000D01*
X813000Y862000D02*
X813000Y592000D01*
X143000Y992000D02*
X13000Y862000D01*
X143000Y992000D02*
X683000Y992000D01*
X813000Y862000D01*
M02*
