G04 EAGLE Gerber RS-274X export*
G75*
%MOMM*%
%FSLAX34Y34*%
%LPD*%
%INSolder side*%
%IPPOS*%
%AMOC8*
5,1,8,0,0,1.08239X$1,22.5*%
G01*
%ADD10R,45.000000X24.000000*%
%ADD11R,8.000000X2.000000*%
%ADD12C,1.016000*%
%ADD13C,0.600000*%
%ADD14C,0.800000*%
%ADD15C,0.650000*%
%ADD16C,0.152400*%

G36*
X692065Y621377D02*
X692065Y621377D01*
X692131Y621379D01*
X692174Y621397D01*
X692221Y621405D01*
X692278Y621439D01*
X692338Y621464D01*
X692373Y621495D01*
X692414Y621520D01*
X692456Y621571D01*
X692504Y621615D01*
X692526Y621657D01*
X692555Y621694D01*
X692576Y621756D01*
X692607Y621815D01*
X692615Y621869D01*
X692627Y621906D01*
X692626Y621946D01*
X692634Y622000D01*
X692634Y962000D01*
X692623Y962065D01*
X692621Y962131D01*
X692603Y962174D01*
X692595Y962221D01*
X692561Y962278D01*
X692536Y962338D01*
X692505Y962373D01*
X692480Y962414D01*
X692429Y962456D01*
X692385Y962504D01*
X692343Y962526D01*
X692306Y962555D01*
X692244Y962576D01*
X692185Y962607D01*
X692131Y962615D01*
X692094Y962627D01*
X692054Y962626D01*
X692000Y962634D01*
X132000Y962634D01*
X131935Y962623D01*
X131869Y962621D01*
X131826Y962603D01*
X131779Y962595D01*
X131722Y962561D01*
X131662Y962536D01*
X131627Y962505D01*
X131586Y962480D01*
X131545Y962429D01*
X131496Y962385D01*
X131474Y962343D01*
X131445Y962306D01*
X131424Y962244D01*
X131393Y962185D01*
X131385Y962131D01*
X131373Y962094D01*
X131374Y962055D01*
X131373Y962052D01*
X131373Y962048D01*
X131366Y962000D01*
X131366Y622000D01*
X131377Y621935D01*
X131379Y621869D01*
X131397Y621826D01*
X131405Y621779D01*
X131439Y621722D01*
X131464Y621662D01*
X131495Y621627D01*
X131520Y621586D01*
X131571Y621545D01*
X131615Y621496D01*
X131657Y621474D01*
X131694Y621445D01*
X131756Y621424D01*
X131815Y621393D01*
X131869Y621385D01*
X131906Y621373D01*
X131946Y621374D01*
X132000Y621366D01*
X692000Y621366D01*
X692065Y621377D01*
G37*
G36*
X692315Y89377D02*
X692315Y89377D01*
X692381Y89379D01*
X692424Y89397D01*
X692471Y89405D01*
X692528Y89439D01*
X692588Y89464D01*
X692623Y89495D01*
X692664Y89520D01*
X692706Y89571D01*
X692754Y89615D01*
X692776Y89657D01*
X692805Y89694D01*
X692826Y89756D01*
X692857Y89815D01*
X692865Y89869D01*
X692877Y89906D01*
X692876Y89946D01*
X692884Y90000D01*
X692884Y430000D01*
X692873Y430065D01*
X692871Y430131D01*
X692853Y430174D01*
X692845Y430221D01*
X692811Y430278D01*
X692786Y430338D01*
X692755Y430373D01*
X692730Y430414D01*
X692679Y430456D01*
X692635Y430504D01*
X692593Y430526D01*
X692556Y430555D01*
X692494Y430576D01*
X692435Y430607D01*
X692381Y430615D01*
X692344Y430627D01*
X692304Y430626D01*
X692250Y430634D01*
X132250Y430634D01*
X132185Y430623D01*
X132119Y430621D01*
X132076Y430603D01*
X132029Y430595D01*
X131972Y430561D01*
X131912Y430536D01*
X131877Y430505D01*
X131836Y430480D01*
X131795Y430429D01*
X131746Y430385D01*
X131724Y430343D01*
X131695Y430306D01*
X131674Y430244D01*
X131643Y430185D01*
X131635Y430131D01*
X131623Y430094D01*
X131624Y430055D01*
X131623Y430052D01*
X131623Y430048D01*
X131616Y430000D01*
X131616Y90000D01*
X131627Y89935D01*
X131629Y89869D01*
X131647Y89826D01*
X131655Y89779D01*
X131689Y89722D01*
X131714Y89662D01*
X131745Y89627D01*
X131770Y89586D01*
X131821Y89545D01*
X131865Y89496D01*
X131907Y89474D01*
X131944Y89445D01*
X132006Y89424D01*
X132065Y89393D01*
X132119Y89385D01*
X132156Y89373D01*
X132196Y89374D01*
X132250Y89366D01*
X692250Y89366D01*
X692315Y89377D01*
G37*
D10*
X413250Y260000D03*
D11*
X618250Y30000D03*
X208250Y30000D03*
X413250Y30000D03*
D10*
X413000Y792000D03*
D11*
X618000Y562000D03*
X208000Y562000D03*
X413000Y562000D03*
D12*
X208000Y562000D02*
X207968Y560945D01*
X139556Y560945D01*
X138254Y560620D01*
D13*
X138254Y560620D03*
D12*
X694032Y561906D02*
X694286Y562160D01*
X694032Y561906D02*
X618024Y561906D01*
X618000Y562000D01*
D13*
X694286Y562160D03*
X316476Y561874D03*
X277302Y560620D03*
D12*
X316476Y561874D02*
X316602Y562000D01*
X413000Y562000D01*
D13*
X660000Y114000D03*
X148000Y110000D03*
X143000Y347000D03*
X660000Y345000D03*
D12*
X585000Y270000D02*
X413250Y260000D01*
X585000Y270000D02*
X660000Y345000D01*
D14*
X626000Y624000D03*
X575000Y623000D03*
X528000Y623000D03*
D12*
X403000Y623000D02*
X413000Y792000D01*
D15*
X483636Y28570D03*
X332142Y29078D03*
X281000Y28570D03*
X552000Y28824D03*
D12*
X209103Y30000D02*
X208250Y30000D01*
X280492Y29078D02*
X281000Y28570D01*
X280492Y29078D02*
X208843Y29078D01*
X209103Y30000D01*
X333064Y30000D02*
X413250Y30000D01*
X333064Y30000D02*
X332142Y29078D01*
X552000Y28824D02*
X552160Y28664D01*
X616914Y28664D02*
X618250Y30000D01*
X616914Y28664D02*
X552160Y28664D01*
X483636Y28570D02*
X483006Y27940D01*
X415310Y27940D01*
X483636Y28570D02*
X552066Y28570D01*
D16*
X552160Y28664D01*
D15*
X413766Y614934D03*
D12*
X405700Y623000D01*
D16*
X403000Y623000D01*
X413250Y30000D02*
X415310Y27940D01*
M02*
