G04 EAGLE Gerber RS-274X export*
G75*
%MOMM*%
%FSLAX34Y34*%
%LPD*%
%INSolder stop mask CMP*%
%IPPOS*%
%AMOC8*
5,1,8,0,0,1.08239X$1,22.5*%
G01*
%ADD10R,1.403200X0.603200*%
%ADD11R,1.503200X1.703200*%
%ADD12R,1.093200X4.203200*%
%ADD13R,1.113200X1.423200*%
%ADD14R,1.423200X1.113200*%
%ADD15R,1.103200X0.903200*%
%ADD16R,1.703200X1.503200*%
%ADD17C,0.600000*%
%ADD18C,0.800000*%
%ADD19C,1.003200*%
%ADD20C,0.650000*%


D10*
X345000Y773000D03*
X345000Y779500D03*
X345000Y786000D03*
X326000Y786000D03*
X326000Y773000D03*
D11*
X321836Y821200D03*
X304836Y821200D03*
D12*
X463660Y918200D03*
X423660Y918200D03*
X383660Y918200D03*
X343660Y918200D03*
X303660Y918200D03*
X323660Y894700D03*
X523660Y894700D03*
X483660Y894700D03*
X443660Y894700D03*
X403660Y894700D03*
X363660Y894700D03*
X503660Y918200D03*
D13*
X764625Y398000D03*
X797375Y398000D03*
D14*
X451000Y623625D03*
X451000Y656375D03*
D15*
X365000Y812500D03*
X365000Y825500D03*
D16*
X406000Y823500D03*
X406000Y806500D03*
D17*
X138254Y560620D03*
X694286Y562160D03*
X316476Y561874D03*
X277302Y560620D03*
X660000Y114000D03*
X148000Y110000D03*
X143000Y347000D03*
X660000Y345000D03*
D18*
X626000Y624000D03*
D19*
X626000Y624000D03*
D18*
X575000Y623000D03*
D19*
X575000Y623000D03*
D18*
X528000Y623000D03*
D19*
X528000Y623000D03*
D20*
X483636Y28570D03*
X332142Y29078D03*
X281000Y28570D03*
X552000Y28824D03*
X413766Y614934D03*
M02*
