G04 EAGLE Gerber RS-274X export*
G75*
%MOMM*%
%FSLAX34Y34*%
%LPD*%
%INComponent side*%
%IPPOS*%
%AMOC8*
5,1,8,0,0,1.08239X$1,22.5*%
G01*
%ADD10R,8.000000X2.000000*%
%ADD11R,45.000000X24.000000*%
%ADD12C,2.250000*%
%ADD13C,1.016000*%
%ADD14C,0.152400*%
%ADD15C,0.650000*%
%ADD16C,0.600000*%
%ADD17C,1.270000*%
%ADD18C,0.254000*%
%ADD19C,0.406400*%
%ADD20C,0.508000*%

G36*
X324565Y456377D02*
X324565Y456377D01*
X324631Y456379D01*
X324674Y456397D01*
X324721Y456405D01*
X324778Y456439D01*
X324838Y456464D01*
X324873Y456495D01*
X324914Y456520D01*
X324956Y456571D01*
X325004Y456615D01*
X325026Y456657D01*
X325055Y456694D01*
X325076Y456756D01*
X325107Y456815D01*
X325115Y456869D01*
X325127Y456906D01*
X325126Y456946D01*
X325134Y457000D01*
X325134Y524366D01*
X444866Y524366D01*
X444866Y468700D01*
X444877Y468635D01*
X444879Y468569D01*
X444897Y468526D01*
X444905Y468479D01*
X444939Y468422D01*
X444964Y468362D01*
X444995Y468327D01*
X445020Y468286D01*
X445071Y468245D01*
X445115Y468196D01*
X445157Y468174D01*
X445194Y468145D01*
X445256Y468124D01*
X445315Y468093D01*
X445369Y468085D01*
X445406Y468073D01*
X445446Y468074D01*
X445500Y468066D01*
X733500Y468066D01*
X733565Y468077D01*
X733631Y468079D01*
X733674Y468097D01*
X733721Y468105D01*
X733778Y468139D01*
X733838Y468164D01*
X733873Y468195D01*
X733914Y468220D01*
X733956Y468271D01*
X734004Y468315D01*
X734026Y468357D01*
X734055Y468394D01*
X734076Y468456D01*
X734107Y468515D01*
X734115Y468569D01*
X734127Y468606D01*
X734126Y468646D01*
X734134Y468700D01*
X734134Y523366D01*
X753500Y523366D01*
X753565Y523377D01*
X753631Y523379D01*
X753674Y523397D01*
X753721Y523405D01*
X753778Y523439D01*
X753838Y523464D01*
X753873Y523495D01*
X753914Y523520D01*
X753956Y523571D01*
X754004Y523615D01*
X754026Y523657D01*
X754055Y523694D01*
X754076Y523756D01*
X754107Y523815D01*
X754115Y523869D01*
X754127Y523906D01*
X754126Y523946D01*
X754134Y524000D01*
X754134Y868000D01*
X754123Y868065D01*
X754121Y868131D01*
X754103Y868174D01*
X754095Y868221D01*
X754061Y868278D01*
X754036Y868338D01*
X754005Y868373D01*
X753980Y868414D01*
X753929Y868456D01*
X753885Y868504D01*
X753843Y868526D01*
X753806Y868555D01*
X753744Y868576D01*
X753685Y868607D01*
X753631Y868615D01*
X753594Y868627D01*
X753554Y868626D01*
X753500Y868634D01*
X199500Y868634D01*
X199435Y868623D01*
X199369Y868621D01*
X199326Y868603D01*
X199279Y868595D01*
X199222Y868561D01*
X199162Y868536D01*
X199127Y868505D01*
X199086Y868480D01*
X199045Y868429D01*
X198996Y868385D01*
X198974Y868343D01*
X198945Y868306D01*
X198924Y868244D01*
X198893Y868185D01*
X198885Y868131D01*
X198873Y868094D01*
X198873Y868088D01*
X198874Y868053D01*
X198866Y868000D01*
X198866Y522000D01*
X198877Y521935D01*
X198879Y521869D01*
X198897Y521826D01*
X198905Y521779D01*
X198939Y521722D01*
X198964Y521662D01*
X198995Y521627D01*
X199020Y521586D01*
X199071Y521545D01*
X199115Y521496D01*
X199157Y521474D01*
X199194Y521445D01*
X199256Y521424D01*
X199315Y521393D01*
X199369Y521385D01*
X199406Y521373D01*
X199446Y521374D01*
X199500Y521366D01*
X239866Y521366D01*
X239866Y457000D01*
X239877Y456935D01*
X239879Y456869D01*
X239897Y456826D01*
X239905Y456779D01*
X239939Y456722D01*
X239964Y456662D01*
X239995Y456627D01*
X240020Y456586D01*
X240071Y456545D01*
X240115Y456496D01*
X240157Y456474D01*
X240194Y456445D01*
X240256Y456424D01*
X240315Y456393D01*
X240369Y456385D01*
X240406Y456373D01*
X240446Y456374D01*
X240500Y456366D01*
X324500Y456366D01*
X324565Y456377D01*
G37*
G36*
X748065Y66409D02*
X748065Y66409D01*
X748131Y66411D01*
X748174Y66429D01*
X748221Y66437D01*
X748278Y66471D01*
X748338Y66496D01*
X748373Y66527D01*
X748414Y66552D01*
X748456Y66603D01*
X748504Y66647D01*
X748526Y66689D01*
X748555Y66726D01*
X748576Y66788D01*
X748607Y66847D01*
X748615Y66901D01*
X748627Y66938D01*
X748626Y66978D01*
X748634Y67032D01*
X748634Y412032D01*
X748623Y412097D01*
X748621Y412163D01*
X748603Y412206D01*
X748595Y412253D01*
X748561Y412310D01*
X748536Y412370D01*
X748505Y412405D01*
X748480Y412446D01*
X748429Y412488D01*
X748385Y412536D01*
X748343Y412558D01*
X748306Y412587D01*
X748244Y412608D01*
X748185Y412639D01*
X748131Y412647D01*
X748094Y412659D01*
X748054Y412658D01*
X748000Y412666D01*
X419634Y412666D01*
X419634Y478032D01*
X419623Y478097D01*
X419621Y478163D01*
X419603Y478206D01*
X419595Y478253D01*
X419561Y478310D01*
X419536Y478370D01*
X419505Y478405D01*
X419480Y478446D01*
X419429Y478488D01*
X419385Y478536D01*
X419343Y478558D01*
X419306Y478587D01*
X419244Y478608D01*
X419185Y478639D01*
X419131Y478647D01*
X419094Y478659D01*
X419054Y478658D01*
X419000Y478666D01*
X335000Y478666D01*
X334935Y478655D01*
X334869Y478653D01*
X334826Y478635D01*
X334779Y478627D01*
X334722Y478593D01*
X334662Y478568D01*
X334627Y478537D01*
X334586Y478512D01*
X334545Y478461D01*
X334496Y478417D01*
X334474Y478375D01*
X334445Y478338D01*
X334424Y478276D01*
X334393Y478217D01*
X334385Y478163D01*
X334373Y478126D01*
X334373Y478120D01*
X334374Y478085D01*
X334366Y478032D01*
X334366Y412666D01*
X194000Y412666D01*
X193935Y412655D01*
X193869Y412653D01*
X193826Y412635D01*
X193779Y412627D01*
X193722Y412593D01*
X193662Y412568D01*
X193627Y412537D01*
X193586Y412512D01*
X193545Y412461D01*
X193496Y412417D01*
X193474Y412375D01*
X193445Y412338D01*
X193424Y412276D01*
X193393Y412217D01*
X193385Y412163D01*
X193373Y412126D01*
X193374Y412086D01*
X193366Y412032D01*
X193366Y67032D01*
X193377Y66967D01*
X193379Y66901D01*
X193397Y66858D01*
X193405Y66811D01*
X193439Y66754D01*
X193464Y66694D01*
X193495Y66659D01*
X193520Y66618D01*
X193571Y66577D01*
X193615Y66528D01*
X193657Y66506D01*
X193694Y66477D01*
X193756Y66456D01*
X193815Y66425D01*
X193869Y66417D01*
X193906Y66405D01*
X193946Y66406D01*
X194000Y66398D01*
X748000Y66398D01*
X748065Y66409D01*
G37*
G36*
X740484Y902377D02*
X740484Y902377D01*
X740551Y902379D01*
X740594Y902397D01*
X740640Y902405D01*
X740697Y902439D01*
X740758Y902464D01*
X740793Y902495D01*
X740833Y902519D01*
X740875Y902570D01*
X740924Y902615D01*
X740945Y902657D01*
X740975Y902693D01*
X740996Y902756D01*
X741027Y902815D01*
X741035Y902868D01*
X741047Y902905D01*
X741046Y902945D01*
X741054Y903000D01*
X741054Y939500D01*
X741043Y939565D01*
X741041Y939631D01*
X741023Y939674D01*
X741015Y939721D01*
X740981Y939778D01*
X740956Y939838D01*
X740925Y939873D01*
X740900Y939914D01*
X740849Y939956D01*
X740805Y940004D01*
X740763Y940026D01*
X740726Y940055D01*
X740664Y940076D01*
X740605Y940107D01*
X740551Y940115D01*
X740514Y940127D01*
X740474Y940126D01*
X740420Y940134D01*
X230100Y940134D01*
X230035Y940123D01*
X229969Y940121D01*
X229926Y940103D01*
X229879Y940095D01*
X229822Y940061D01*
X229762Y940036D01*
X229727Y940005D01*
X229686Y939980D01*
X229645Y939929D01*
X229596Y939885D01*
X229574Y939843D01*
X229545Y939806D01*
X229524Y939744D01*
X229493Y939685D01*
X229485Y939631D01*
X229473Y939594D01*
X229474Y939554D01*
X229466Y939500D01*
X229466Y904000D01*
X229477Y903936D01*
X229479Y903871D01*
X229497Y903826D01*
X229505Y903779D01*
X229539Y903723D01*
X229563Y903663D01*
X229595Y903627D01*
X229620Y903586D01*
X229670Y903545D01*
X229714Y903497D01*
X229757Y903475D01*
X229794Y903445D01*
X229856Y903424D01*
X229913Y903394D01*
X229969Y903385D01*
X230006Y903373D01*
X230045Y903374D01*
X230099Y903366D01*
X740419Y902366D01*
X740484Y902377D01*
G37*
D10*
X376500Y467032D03*
D11*
X471500Y239532D03*
X476100Y695800D03*
D10*
X692500Y468000D03*
X487500Y468000D03*
X282500Y468000D03*
X282500Y928000D03*
X692500Y928000D03*
X487500Y928000D03*
D12*
X75649Y144139D03*
X136371Y78099D03*
D13*
X583692Y576808D02*
X692500Y468000D01*
X583692Y576808D02*
X583692Y588208D01*
X466090Y489410D02*
X487500Y468000D01*
X466090Y489410D02*
X466090Y670560D01*
D14*
X476100Y680570D02*
X476100Y695800D01*
X476100Y680570D02*
X466090Y670560D01*
D13*
X392113Y636199D02*
X282500Y526586D01*
X282500Y468000D01*
X487500Y468000D02*
X487500Y540812D01*
X392113Y636199D01*
X494104Y474604D02*
X522356Y474604D01*
X494104Y474604D02*
X487500Y468000D01*
X623570Y499872D02*
X623570Y548330D01*
X623570Y499872D02*
X613918Y490220D01*
X623570Y548330D02*
X583692Y588208D01*
X535432Y487680D02*
X522356Y474604D01*
X535432Y487680D02*
X535432Y559308D01*
X604520Y490220D02*
X613918Y490220D01*
X604520Y490220D02*
X535432Y559308D01*
X690214Y465714D02*
X692500Y468000D01*
X690214Y465714D02*
X624464Y465714D01*
D14*
X621792Y463042D01*
D15*
X621792Y463042D03*
D13*
X354446Y928000D02*
X282500Y928000D01*
D14*
X354446Y928000D02*
X354584Y927862D01*
D16*
X354584Y927862D03*
X398526Y927862D03*
D13*
X487246Y927746D02*
X487500Y928000D01*
X487246Y927746D02*
X398642Y927746D01*
X398526Y927862D01*
X487500Y928000D02*
X536194Y928000D01*
X568568Y928000D01*
D14*
X568960Y927608D01*
D16*
X568960Y927608D03*
X608076Y926846D03*
D13*
X691346Y926846D01*
D14*
X692500Y928000D01*
D16*
X536194Y928000D03*
D15*
X185674Y615442D03*
D17*
X149860Y615442D01*
X129032Y636270D02*
X128016Y636270D01*
D15*
X128016Y636270D03*
D17*
X129032Y636270D02*
X149860Y615442D01*
D15*
X354330Y914146D03*
X246380Y424942D03*
D13*
X105156Y424942D01*
X41402Y361188D01*
X41402Y147574D01*
D15*
X87884Y90170D03*
D13*
X79848Y90170D01*
X60367Y109651D01*
X60367Y128114D01*
D14*
X41402Y147079D02*
X41402Y147574D01*
D13*
X41402Y147079D02*
X60367Y128114D01*
D15*
X182372Y373380D03*
D14*
X89916Y373380D02*
X89662Y373126D01*
D17*
X89916Y373380D02*
X182372Y373380D01*
D15*
X89662Y373126D03*
D16*
X499110Y350012D03*
X603250Y351536D03*
X673100Y351536D03*
X429514Y351536D03*
X343154Y351536D03*
X278638Y351790D03*
D13*
X376500Y299140D02*
X376500Y467032D01*
X376500Y299140D02*
X395732Y279908D01*
D14*
X429514Y313690D01*
X429514Y351536D01*
X471500Y322402D02*
X471500Y239532D01*
X471500Y322402D02*
X499110Y350012D01*
D15*
X705104Y442468D03*
D18*
X443230Y442468D01*
D15*
X443230Y442468D03*
X773430Y444500D03*
D19*
X773430Y393446D01*
X819150Y347726D02*
X819150Y218948D01*
X779526Y179324D01*
X757682Y179324D01*
D15*
X757682Y179324D03*
D19*
X819150Y347726D02*
X773430Y393446D01*
D15*
X160274Y176022D03*
D20*
X173228Y163068D01*
X173228Y155702D01*
D15*
X173228Y155702D03*
X279146Y42672D03*
D17*
X740410Y42672D01*
X779526Y81788D02*
X817118Y81788D01*
X882904Y147574D01*
X824992Y882142D02*
X698246Y882142D01*
D15*
X698246Y882142D03*
D17*
X779526Y81788D02*
X740410Y42672D01*
X882904Y147574D02*
X882904Y824230D01*
X824992Y882142D01*
D15*
X428498Y880110D03*
D17*
X337820Y880110D01*
X336296Y881634D01*
D15*
X336296Y881634D03*
M02*
