G04 EAGLE Gerber RS-274X export*
G75*
%MOMM*%
%FSLAX34Y34*%
%LPD*%
%INoutline*%
%IPPOS*%
%AMOC8*
5,1,8,0,0,1.08239X$1,22.5*%
G01*
%ADD10C,0.152400*%
%ADD11C,0.000000*%
%ADD12C,0.000100*%


D10*
X116121Y484531D02*
X116124Y484752D01*
X116132Y484973D01*
X116145Y485193D01*
X116164Y485413D01*
X116189Y485633D01*
X116218Y485852D01*
X116254Y486070D01*
X116294Y486287D01*
X116340Y486503D01*
X116391Y486718D01*
X116447Y486931D01*
X116509Y487144D01*
X116575Y487354D01*
X116647Y487563D01*
X116724Y487770D01*
X116806Y487975D01*
X116893Y488178D01*
X116985Y488379D01*
X117082Y488578D01*
X117184Y488774D01*
X117290Y488967D01*
X117401Y489158D01*
X117517Y489346D01*
X117638Y489531D01*
X117763Y489713D01*
X117892Y489892D01*
X118026Y490068D01*
X118164Y490241D01*
X118306Y490410D01*
X118452Y490575D01*
X118603Y490737D01*
X118757Y490895D01*
X118915Y491049D01*
X119077Y491200D01*
X119242Y491346D01*
X119411Y491488D01*
X119584Y491626D01*
X119760Y491760D01*
X119939Y491889D01*
X120121Y492014D01*
X120306Y492135D01*
X120494Y492251D01*
X120685Y492362D01*
X120878Y492468D01*
X121074Y492570D01*
X121273Y492667D01*
X121474Y492759D01*
X121677Y492846D01*
X121882Y492928D01*
X122089Y493005D01*
X122298Y493077D01*
X122508Y493143D01*
X122721Y493205D01*
X122934Y493261D01*
X123149Y493312D01*
X123365Y493358D01*
X123582Y493398D01*
X123800Y493434D01*
X124019Y493463D01*
X124239Y493488D01*
X124459Y493507D01*
X124679Y493520D01*
X124900Y493528D01*
X125121Y493531D01*
X125342Y493528D01*
X125563Y493520D01*
X125783Y493507D01*
X126003Y493488D01*
X126223Y493463D01*
X126442Y493434D01*
X126660Y493398D01*
X126877Y493358D01*
X127093Y493312D01*
X127308Y493261D01*
X127521Y493205D01*
X127734Y493143D01*
X127944Y493077D01*
X128153Y493005D01*
X128360Y492928D01*
X128565Y492846D01*
X128768Y492759D01*
X128969Y492667D01*
X129168Y492570D01*
X129364Y492468D01*
X129557Y492362D01*
X129748Y492251D01*
X129936Y492135D01*
X130121Y492014D01*
X130303Y491889D01*
X130482Y491760D01*
X130658Y491626D01*
X130831Y491488D01*
X131000Y491346D01*
X131165Y491200D01*
X131327Y491049D01*
X131485Y490895D01*
X131639Y490737D01*
X131790Y490575D01*
X131936Y490410D01*
X132078Y490241D01*
X132216Y490068D01*
X132350Y489892D01*
X132479Y489713D01*
X132604Y489531D01*
X132725Y489346D01*
X132841Y489158D01*
X132952Y488967D01*
X133058Y488774D01*
X133160Y488578D01*
X133257Y488379D01*
X133349Y488178D01*
X133436Y487975D01*
X133518Y487770D01*
X133595Y487563D01*
X133667Y487354D01*
X133733Y487144D01*
X133795Y486931D01*
X133851Y486718D01*
X133902Y486503D01*
X133948Y486287D01*
X133988Y486070D01*
X134024Y485852D01*
X134053Y485633D01*
X134078Y485413D01*
X134097Y485193D01*
X134110Y484973D01*
X134118Y484752D01*
X134121Y484531D01*
X134118Y484310D01*
X134110Y484089D01*
X134097Y483869D01*
X134078Y483649D01*
X134053Y483429D01*
X134024Y483210D01*
X133988Y482992D01*
X133948Y482775D01*
X133902Y482559D01*
X133851Y482344D01*
X133795Y482131D01*
X133733Y481918D01*
X133667Y481708D01*
X133595Y481499D01*
X133518Y481292D01*
X133436Y481087D01*
X133349Y480884D01*
X133257Y480683D01*
X133160Y480484D01*
X133058Y480288D01*
X132952Y480095D01*
X132841Y479904D01*
X132725Y479716D01*
X132604Y479531D01*
X132479Y479349D01*
X132350Y479170D01*
X132216Y478994D01*
X132078Y478821D01*
X131936Y478652D01*
X131790Y478487D01*
X131639Y478325D01*
X131485Y478167D01*
X131327Y478013D01*
X131165Y477862D01*
X131000Y477716D01*
X130831Y477574D01*
X130658Y477436D01*
X130482Y477302D01*
X130303Y477173D01*
X130121Y477048D01*
X129936Y476927D01*
X129748Y476811D01*
X129557Y476700D01*
X129364Y476594D01*
X129168Y476492D01*
X128969Y476395D01*
X128768Y476303D01*
X128565Y476216D01*
X128360Y476134D01*
X128153Y476057D01*
X127944Y475985D01*
X127734Y475919D01*
X127521Y475857D01*
X127308Y475801D01*
X127093Y475750D01*
X126877Y475704D01*
X126660Y475664D01*
X126442Y475628D01*
X126223Y475599D01*
X126003Y475574D01*
X125783Y475555D01*
X125563Y475542D01*
X125342Y475534D01*
X125121Y475531D01*
X124900Y475534D01*
X124679Y475542D01*
X124459Y475555D01*
X124239Y475574D01*
X124019Y475599D01*
X123800Y475628D01*
X123582Y475664D01*
X123365Y475704D01*
X123149Y475750D01*
X122934Y475801D01*
X122721Y475857D01*
X122508Y475919D01*
X122298Y475985D01*
X122089Y476057D01*
X121882Y476134D01*
X121677Y476216D01*
X121474Y476303D01*
X121273Y476395D01*
X121074Y476492D01*
X120878Y476594D01*
X120685Y476700D01*
X120494Y476811D01*
X120306Y476927D01*
X120121Y477048D01*
X119939Y477173D01*
X119760Y477302D01*
X119584Y477436D01*
X119411Y477574D01*
X119242Y477716D01*
X119077Y477862D01*
X118915Y478013D01*
X118757Y478167D01*
X118603Y478325D01*
X118452Y478487D01*
X118306Y478652D01*
X118164Y478821D01*
X118026Y478994D01*
X117892Y479170D01*
X117763Y479349D01*
X117638Y479531D01*
X117517Y479716D01*
X117401Y479904D01*
X117290Y480095D01*
X117184Y480288D01*
X117082Y480484D01*
X116985Y480683D01*
X116893Y480884D01*
X116806Y481087D01*
X116724Y481292D01*
X116647Y481499D01*
X116575Y481708D01*
X116509Y481918D01*
X116447Y482131D01*
X116391Y482344D01*
X116340Y482559D01*
X116294Y482775D01*
X116254Y482992D01*
X116218Y483210D01*
X116189Y483429D01*
X116164Y483649D01*
X116145Y483869D01*
X116132Y484089D01*
X116124Y484310D01*
X116121Y484531D01*
X71277Y117791D02*
X71280Y118012D01*
X71288Y118233D01*
X71301Y118453D01*
X71320Y118673D01*
X71345Y118893D01*
X71374Y119112D01*
X71410Y119330D01*
X71450Y119547D01*
X71496Y119763D01*
X71547Y119978D01*
X71603Y120191D01*
X71665Y120404D01*
X71731Y120614D01*
X71803Y120823D01*
X71880Y121030D01*
X71962Y121235D01*
X72049Y121438D01*
X72141Y121639D01*
X72238Y121838D01*
X72340Y122034D01*
X72446Y122227D01*
X72557Y122418D01*
X72673Y122606D01*
X72794Y122791D01*
X72919Y122973D01*
X73048Y123152D01*
X73182Y123328D01*
X73320Y123501D01*
X73462Y123670D01*
X73608Y123835D01*
X73759Y123997D01*
X73913Y124155D01*
X74071Y124309D01*
X74233Y124460D01*
X74398Y124606D01*
X74567Y124748D01*
X74740Y124886D01*
X74916Y125020D01*
X75095Y125149D01*
X75277Y125274D01*
X75462Y125395D01*
X75650Y125511D01*
X75841Y125622D01*
X76034Y125728D01*
X76230Y125830D01*
X76429Y125927D01*
X76630Y126019D01*
X76833Y126106D01*
X77038Y126188D01*
X77245Y126265D01*
X77454Y126337D01*
X77664Y126403D01*
X77877Y126465D01*
X78090Y126521D01*
X78305Y126572D01*
X78521Y126618D01*
X78738Y126658D01*
X78956Y126694D01*
X79175Y126723D01*
X79395Y126748D01*
X79615Y126767D01*
X79835Y126780D01*
X80056Y126788D01*
X80277Y126791D01*
X80498Y126788D01*
X80719Y126780D01*
X80939Y126767D01*
X81159Y126748D01*
X81379Y126723D01*
X81598Y126694D01*
X81816Y126658D01*
X82033Y126618D01*
X82249Y126572D01*
X82464Y126521D01*
X82677Y126465D01*
X82890Y126403D01*
X83100Y126337D01*
X83309Y126265D01*
X83516Y126188D01*
X83721Y126106D01*
X83924Y126019D01*
X84125Y125927D01*
X84324Y125830D01*
X84520Y125728D01*
X84713Y125622D01*
X84904Y125511D01*
X85092Y125395D01*
X85277Y125274D01*
X85459Y125149D01*
X85638Y125020D01*
X85814Y124886D01*
X85987Y124748D01*
X86156Y124606D01*
X86321Y124460D01*
X86483Y124309D01*
X86641Y124155D01*
X86795Y123997D01*
X86946Y123835D01*
X87092Y123670D01*
X87234Y123501D01*
X87372Y123328D01*
X87506Y123152D01*
X87635Y122973D01*
X87760Y122791D01*
X87881Y122606D01*
X87997Y122418D01*
X88108Y122227D01*
X88214Y122034D01*
X88316Y121838D01*
X88413Y121639D01*
X88505Y121438D01*
X88592Y121235D01*
X88674Y121030D01*
X88751Y120823D01*
X88823Y120614D01*
X88889Y120404D01*
X88951Y120191D01*
X89007Y119978D01*
X89058Y119763D01*
X89104Y119547D01*
X89144Y119330D01*
X89180Y119112D01*
X89209Y118893D01*
X89234Y118673D01*
X89253Y118453D01*
X89266Y118233D01*
X89274Y118012D01*
X89277Y117791D01*
X89274Y117570D01*
X89266Y117349D01*
X89253Y117129D01*
X89234Y116909D01*
X89209Y116689D01*
X89180Y116470D01*
X89144Y116252D01*
X89104Y116035D01*
X89058Y115819D01*
X89007Y115604D01*
X88951Y115391D01*
X88889Y115178D01*
X88823Y114968D01*
X88751Y114759D01*
X88674Y114552D01*
X88592Y114347D01*
X88505Y114144D01*
X88413Y113943D01*
X88316Y113744D01*
X88214Y113548D01*
X88108Y113355D01*
X87997Y113164D01*
X87881Y112976D01*
X87760Y112791D01*
X87635Y112609D01*
X87506Y112430D01*
X87372Y112254D01*
X87234Y112081D01*
X87092Y111912D01*
X86946Y111747D01*
X86795Y111585D01*
X86641Y111427D01*
X86483Y111273D01*
X86321Y111122D01*
X86156Y110976D01*
X85987Y110834D01*
X85814Y110696D01*
X85638Y110562D01*
X85459Y110433D01*
X85277Y110308D01*
X85092Y110187D01*
X84904Y110071D01*
X84713Y109960D01*
X84520Y109854D01*
X84324Y109752D01*
X84125Y109655D01*
X83924Y109563D01*
X83721Y109476D01*
X83516Y109394D01*
X83309Y109317D01*
X83100Y109245D01*
X82890Y109179D01*
X82677Y109117D01*
X82464Y109061D01*
X82249Y109010D01*
X82033Y108964D01*
X81816Y108924D01*
X81598Y108888D01*
X81379Y108859D01*
X81159Y108834D01*
X80939Y108815D01*
X80719Y108802D01*
X80498Y108794D01*
X80277Y108791D01*
X80056Y108794D01*
X79835Y108802D01*
X79615Y108815D01*
X79395Y108834D01*
X79175Y108859D01*
X78956Y108888D01*
X78738Y108924D01*
X78521Y108964D01*
X78305Y109010D01*
X78090Y109061D01*
X77877Y109117D01*
X77664Y109179D01*
X77454Y109245D01*
X77245Y109317D01*
X77038Y109394D01*
X76833Y109476D01*
X76630Y109563D01*
X76429Y109655D01*
X76230Y109752D01*
X76034Y109854D01*
X75841Y109960D01*
X75650Y110071D01*
X75462Y110187D01*
X75277Y110308D01*
X75095Y110433D01*
X74916Y110562D01*
X74740Y110696D01*
X74567Y110834D01*
X74398Y110976D01*
X74233Y111122D01*
X74071Y111273D01*
X73913Y111427D01*
X73759Y111585D01*
X73608Y111747D01*
X73462Y111912D01*
X73320Y112081D01*
X73182Y112254D01*
X73048Y112430D01*
X72919Y112609D01*
X72794Y112791D01*
X72673Y112976D01*
X72557Y113164D01*
X72446Y113355D01*
X72340Y113548D01*
X72238Y113744D01*
X72141Y113943D01*
X72049Y114144D01*
X71962Y114347D01*
X71880Y114552D01*
X71803Y114759D01*
X71731Y114968D01*
X71665Y115178D01*
X71603Y115391D01*
X71547Y115604D01*
X71496Y115819D01*
X71450Y116035D01*
X71410Y116252D01*
X71374Y116470D01*
X71345Y116689D01*
X71320Y116909D01*
X71301Y117129D01*
X71288Y117349D01*
X71280Y117570D01*
X71277Y117791D01*
X762547Y37461D02*
X762553Y37952D01*
X762571Y38442D01*
X762601Y38932D01*
X762643Y39421D01*
X762697Y39909D01*
X762763Y40396D01*
X762841Y40880D01*
X762931Y41363D01*
X763033Y41843D01*
X763146Y42321D01*
X763271Y42795D01*
X763408Y43267D01*
X763556Y43735D01*
X763716Y44199D01*
X763887Y44659D01*
X764069Y45115D01*
X764263Y45566D01*
X764467Y46012D01*
X764683Y46453D01*
X764909Y46889D01*
X765145Y47319D01*
X765392Y47743D01*
X765650Y48161D01*
X765918Y48572D01*
X766195Y48977D01*
X766483Y49375D01*
X766780Y49766D01*
X767087Y50149D01*
X767403Y50524D01*
X767728Y50892D01*
X768062Y51252D01*
X768405Y51603D01*
X768756Y51946D01*
X769116Y52280D01*
X769484Y52605D01*
X769859Y52921D01*
X770242Y53228D01*
X770633Y53525D01*
X771031Y53813D01*
X771436Y54090D01*
X771847Y54358D01*
X772265Y54616D01*
X772689Y54863D01*
X773119Y55099D01*
X773555Y55325D01*
X773996Y55541D01*
X774442Y55745D01*
X774893Y55939D01*
X775349Y56121D01*
X775809Y56292D01*
X776273Y56452D01*
X776741Y56600D01*
X777213Y56737D01*
X777687Y56862D01*
X778165Y56975D01*
X778645Y57077D01*
X779128Y57167D01*
X779612Y57245D01*
X780099Y57311D01*
X780587Y57365D01*
X781076Y57407D01*
X781566Y57437D01*
X782056Y57455D01*
X782547Y57461D01*
X783038Y57455D01*
X783528Y57437D01*
X784018Y57407D01*
X784507Y57365D01*
X784995Y57311D01*
X785482Y57245D01*
X785966Y57167D01*
X786449Y57077D01*
X786929Y56975D01*
X787407Y56862D01*
X787881Y56737D01*
X788353Y56600D01*
X788821Y56452D01*
X789285Y56292D01*
X789745Y56121D01*
X790201Y55939D01*
X790652Y55745D01*
X791098Y55541D01*
X791539Y55325D01*
X791975Y55099D01*
X792405Y54863D01*
X792829Y54616D01*
X793247Y54358D01*
X793658Y54090D01*
X794063Y53813D01*
X794461Y53525D01*
X794852Y53228D01*
X795235Y52921D01*
X795610Y52605D01*
X795978Y52280D01*
X796338Y51946D01*
X796689Y51603D01*
X797032Y51252D01*
X797366Y50892D01*
X797691Y50524D01*
X798007Y50149D01*
X798314Y49766D01*
X798611Y49375D01*
X798899Y48977D01*
X799176Y48572D01*
X799444Y48161D01*
X799702Y47743D01*
X799949Y47319D01*
X800185Y46889D01*
X800411Y46453D01*
X800627Y46012D01*
X800831Y45566D01*
X801025Y45115D01*
X801207Y44659D01*
X801378Y44199D01*
X801538Y43735D01*
X801686Y43267D01*
X801823Y42795D01*
X801948Y42321D01*
X802061Y41843D01*
X802163Y41363D01*
X802253Y40880D01*
X802331Y40396D01*
X802397Y39909D01*
X802451Y39421D01*
X802493Y38932D01*
X802523Y38442D01*
X802541Y37952D01*
X802547Y37461D01*
X802541Y36970D01*
X802523Y36480D01*
X802493Y35990D01*
X802451Y35501D01*
X802397Y35013D01*
X802331Y34526D01*
X802253Y34042D01*
X802163Y33559D01*
X802061Y33079D01*
X801948Y32601D01*
X801823Y32127D01*
X801686Y31655D01*
X801538Y31187D01*
X801378Y30723D01*
X801207Y30263D01*
X801025Y29807D01*
X800831Y29356D01*
X800627Y28910D01*
X800411Y28469D01*
X800185Y28033D01*
X799949Y27603D01*
X799702Y27179D01*
X799444Y26761D01*
X799176Y26350D01*
X798899Y25945D01*
X798611Y25547D01*
X798314Y25156D01*
X798007Y24773D01*
X797691Y24398D01*
X797366Y24030D01*
X797032Y23670D01*
X796689Y23319D01*
X796338Y22976D01*
X795978Y22642D01*
X795610Y22317D01*
X795235Y22001D01*
X794852Y21694D01*
X794461Y21397D01*
X794063Y21109D01*
X793658Y20832D01*
X793247Y20564D01*
X792829Y20306D01*
X792405Y20059D01*
X791975Y19823D01*
X791539Y19597D01*
X791098Y19381D01*
X790652Y19177D01*
X790201Y18983D01*
X789745Y18801D01*
X789285Y18630D01*
X788821Y18470D01*
X788353Y18322D01*
X787881Y18185D01*
X787407Y18060D01*
X786929Y17947D01*
X786449Y17845D01*
X785966Y17755D01*
X785482Y17677D01*
X784995Y17611D01*
X784507Y17557D01*
X784018Y17515D01*
X783528Y17485D01*
X783038Y17467D01*
X782547Y17461D01*
X782056Y17467D01*
X781566Y17485D01*
X781076Y17515D01*
X780587Y17557D01*
X780099Y17611D01*
X779612Y17677D01*
X779128Y17755D01*
X778645Y17845D01*
X778165Y17947D01*
X777687Y18060D01*
X777213Y18185D01*
X776741Y18322D01*
X776273Y18470D01*
X775809Y18630D01*
X775349Y18801D01*
X774893Y18983D01*
X774442Y19177D01*
X773996Y19381D01*
X773555Y19597D01*
X773119Y19823D01*
X772689Y20059D01*
X772265Y20306D01*
X771847Y20564D01*
X771436Y20832D01*
X771031Y21109D01*
X770633Y21397D01*
X770242Y21694D01*
X769859Y22001D01*
X769484Y22317D01*
X769116Y22642D01*
X768756Y22976D01*
X768405Y23319D01*
X768062Y23670D01*
X767728Y24030D01*
X767403Y24398D01*
X767087Y24773D01*
X766780Y25156D01*
X766483Y25547D01*
X766195Y25945D01*
X765918Y26350D01*
X765650Y26761D01*
X765392Y27179D01*
X765145Y27603D01*
X764909Y28033D01*
X764683Y28469D01*
X764467Y28910D01*
X764263Y29356D01*
X764069Y29807D01*
X763887Y30263D01*
X763716Y30723D01*
X763556Y31187D01*
X763408Y31655D01*
X763271Y32127D01*
X763146Y32601D01*
X763033Y33079D01*
X762931Y33559D01*
X762841Y34042D01*
X762763Y34526D01*
X762697Y35013D01*
X762643Y35501D01*
X762601Y35990D01*
X762571Y36480D01*
X762553Y36970D01*
X762547Y37461D01*
X157610Y37278D02*
X157615Y37646D01*
X157628Y38014D01*
X157651Y38381D01*
X157682Y38748D01*
X157723Y39114D01*
X157772Y39479D01*
X157831Y39842D01*
X157898Y40204D01*
X157974Y40565D01*
X158060Y40923D01*
X158153Y41279D01*
X158256Y41632D01*
X158367Y41983D01*
X158487Y42331D01*
X158615Y42676D01*
X158752Y43018D01*
X158897Y43357D01*
X159050Y43691D01*
X159212Y44022D01*
X159381Y44349D01*
X159559Y44671D01*
X159744Y44990D01*
X159937Y45303D01*
X160138Y45612D01*
X160346Y45915D01*
X160562Y46213D01*
X160785Y46506D01*
X161015Y46794D01*
X161252Y47076D01*
X161496Y47351D01*
X161746Y47621D01*
X162003Y47885D01*
X162267Y48142D01*
X162537Y48392D01*
X162812Y48636D01*
X163094Y48873D01*
X163382Y49103D01*
X163675Y49326D01*
X163973Y49542D01*
X164276Y49750D01*
X164585Y49951D01*
X164898Y50144D01*
X165217Y50329D01*
X165539Y50507D01*
X165866Y50676D01*
X166197Y50838D01*
X166531Y50991D01*
X166870Y51136D01*
X167212Y51273D01*
X167557Y51401D01*
X167905Y51521D01*
X168256Y51632D01*
X168609Y51735D01*
X168965Y51828D01*
X169323Y51914D01*
X169684Y51990D01*
X170046Y52057D01*
X170409Y52116D01*
X170774Y52165D01*
X171140Y52206D01*
X171507Y52237D01*
X171874Y52260D01*
X172242Y52273D01*
X172610Y52278D01*
X172978Y52273D01*
X173346Y52260D01*
X173713Y52237D01*
X174080Y52206D01*
X174446Y52165D01*
X174811Y52116D01*
X175174Y52057D01*
X175536Y51990D01*
X175897Y51914D01*
X176255Y51828D01*
X176611Y51735D01*
X176964Y51632D01*
X177315Y51521D01*
X177663Y51401D01*
X178008Y51273D01*
X178350Y51136D01*
X178689Y50991D01*
X179023Y50838D01*
X179354Y50676D01*
X179681Y50507D01*
X180003Y50329D01*
X180322Y50144D01*
X180635Y49951D01*
X180944Y49750D01*
X181247Y49542D01*
X181545Y49326D01*
X181838Y49103D01*
X182126Y48873D01*
X182408Y48636D01*
X182683Y48392D01*
X182953Y48142D01*
X183217Y47885D01*
X183474Y47621D01*
X183724Y47351D01*
X183968Y47076D01*
X184205Y46794D01*
X184435Y46506D01*
X184658Y46213D01*
X184874Y45915D01*
X185082Y45612D01*
X185283Y45303D01*
X185476Y44990D01*
X185661Y44671D01*
X185839Y44349D01*
X186008Y44022D01*
X186170Y43691D01*
X186323Y43357D01*
X186468Y43018D01*
X186605Y42676D01*
X186733Y42331D01*
X186853Y41983D01*
X186964Y41632D01*
X187067Y41279D01*
X187160Y40923D01*
X187246Y40565D01*
X187322Y40204D01*
X187389Y39842D01*
X187448Y39479D01*
X187497Y39114D01*
X187538Y38748D01*
X187569Y38381D01*
X187592Y38014D01*
X187605Y37646D01*
X187610Y37278D01*
X187605Y36910D01*
X187592Y36542D01*
X187569Y36175D01*
X187538Y35808D01*
X187497Y35442D01*
X187448Y35077D01*
X187389Y34714D01*
X187322Y34352D01*
X187246Y33991D01*
X187160Y33633D01*
X187067Y33277D01*
X186964Y32924D01*
X186853Y32573D01*
X186733Y32225D01*
X186605Y31880D01*
X186468Y31538D01*
X186323Y31199D01*
X186170Y30865D01*
X186008Y30534D01*
X185839Y30207D01*
X185661Y29885D01*
X185476Y29566D01*
X185283Y29253D01*
X185082Y28944D01*
X184874Y28641D01*
X184658Y28343D01*
X184435Y28050D01*
X184205Y27762D01*
X183968Y27480D01*
X183724Y27205D01*
X183474Y26935D01*
X183217Y26671D01*
X182953Y26414D01*
X182683Y26164D01*
X182408Y25920D01*
X182126Y25683D01*
X181838Y25453D01*
X181545Y25230D01*
X181247Y25014D01*
X180944Y24806D01*
X180635Y24605D01*
X180322Y24412D01*
X180003Y24227D01*
X179681Y24049D01*
X179354Y23880D01*
X179023Y23718D01*
X178689Y23565D01*
X178350Y23420D01*
X178008Y23283D01*
X177663Y23155D01*
X177315Y23035D01*
X176964Y22924D01*
X176611Y22821D01*
X176255Y22728D01*
X175897Y22642D01*
X175536Y22566D01*
X175174Y22499D01*
X174811Y22440D01*
X174446Y22391D01*
X174080Y22350D01*
X173713Y22319D01*
X173346Y22296D01*
X172978Y22283D01*
X172610Y22278D01*
X172242Y22283D01*
X171874Y22296D01*
X171507Y22319D01*
X171140Y22350D01*
X170774Y22391D01*
X170409Y22440D01*
X170046Y22499D01*
X169684Y22566D01*
X169323Y22642D01*
X168965Y22728D01*
X168609Y22821D01*
X168256Y22924D01*
X167905Y23035D01*
X167557Y23155D01*
X167212Y23283D01*
X166870Y23420D01*
X166531Y23565D01*
X166197Y23718D01*
X165866Y23880D01*
X165539Y24049D01*
X165217Y24227D01*
X164898Y24412D01*
X164585Y24605D01*
X164276Y24806D01*
X163973Y25014D01*
X163675Y25230D01*
X163382Y25453D01*
X163094Y25683D01*
X162812Y25920D01*
X162537Y26164D01*
X162267Y26414D01*
X162003Y26671D01*
X161746Y26935D01*
X161496Y27205D01*
X161252Y27480D01*
X161015Y27762D01*
X160785Y28050D01*
X160562Y28343D01*
X160346Y28641D01*
X160138Y28944D01*
X159937Y29253D01*
X159744Y29566D01*
X159559Y29885D01*
X159381Y30207D01*
X159212Y30534D01*
X159050Y30865D01*
X158897Y31199D01*
X158752Y31538D01*
X158615Y31880D01*
X158487Y32225D01*
X158367Y32573D01*
X158256Y32924D01*
X158153Y33277D01*
X158060Y33633D01*
X157974Y33991D01*
X157898Y34352D01*
X157831Y34714D01*
X157772Y35077D01*
X157723Y35442D01*
X157682Y35808D01*
X157651Y36175D01*
X157628Y36542D01*
X157615Y36910D01*
X157610Y37278D01*
X8616Y115099D02*
X8622Y115590D01*
X8640Y116080D01*
X8670Y116570D01*
X8712Y117059D01*
X8766Y117547D01*
X8832Y118034D01*
X8910Y118518D01*
X9000Y119001D01*
X9102Y119481D01*
X9215Y119959D01*
X9340Y120433D01*
X9477Y120905D01*
X9625Y121373D01*
X9785Y121837D01*
X9956Y122297D01*
X10138Y122753D01*
X10332Y123204D01*
X10536Y123650D01*
X10752Y124091D01*
X10978Y124527D01*
X11214Y124957D01*
X11461Y125381D01*
X11719Y125799D01*
X11987Y126210D01*
X12264Y126615D01*
X12552Y127013D01*
X12849Y127404D01*
X13156Y127787D01*
X13472Y128162D01*
X13797Y128530D01*
X14131Y128890D01*
X14474Y129241D01*
X14825Y129584D01*
X15185Y129918D01*
X15553Y130243D01*
X15928Y130559D01*
X16311Y130866D01*
X16702Y131163D01*
X17100Y131451D01*
X17505Y131728D01*
X17916Y131996D01*
X18334Y132254D01*
X18758Y132501D01*
X19188Y132737D01*
X19624Y132963D01*
X20065Y133179D01*
X20511Y133383D01*
X20962Y133577D01*
X21418Y133759D01*
X21878Y133930D01*
X22342Y134090D01*
X22810Y134238D01*
X23282Y134375D01*
X23756Y134500D01*
X24234Y134613D01*
X24714Y134715D01*
X25197Y134805D01*
X25681Y134883D01*
X26168Y134949D01*
X26656Y135003D01*
X27145Y135045D01*
X27635Y135075D01*
X28125Y135093D01*
X28616Y135099D01*
X29107Y135093D01*
X29597Y135075D01*
X30087Y135045D01*
X30576Y135003D01*
X31064Y134949D01*
X31551Y134883D01*
X32035Y134805D01*
X32518Y134715D01*
X32998Y134613D01*
X33476Y134500D01*
X33950Y134375D01*
X34422Y134238D01*
X34890Y134090D01*
X35354Y133930D01*
X35814Y133759D01*
X36270Y133577D01*
X36721Y133383D01*
X37167Y133179D01*
X37608Y132963D01*
X38044Y132737D01*
X38474Y132501D01*
X38898Y132254D01*
X39316Y131996D01*
X39727Y131728D01*
X40132Y131451D01*
X40530Y131163D01*
X40921Y130866D01*
X41304Y130559D01*
X41679Y130243D01*
X42047Y129918D01*
X42407Y129584D01*
X42758Y129241D01*
X43101Y128890D01*
X43435Y128530D01*
X43760Y128162D01*
X44076Y127787D01*
X44383Y127404D01*
X44680Y127013D01*
X44968Y126615D01*
X45245Y126210D01*
X45513Y125799D01*
X45771Y125381D01*
X46018Y124957D01*
X46254Y124527D01*
X46480Y124091D01*
X46696Y123650D01*
X46900Y123204D01*
X47094Y122753D01*
X47276Y122297D01*
X47447Y121837D01*
X47607Y121373D01*
X47755Y120905D01*
X47892Y120433D01*
X48017Y119959D01*
X48130Y119481D01*
X48232Y119001D01*
X48322Y118518D01*
X48400Y118034D01*
X48466Y117547D01*
X48520Y117059D01*
X48562Y116570D01*
X48592Y116080D01*
X48610Y115590D01*
X48616Y115099D01*
X48610Y114608D01*
X48592Y114118D01*
X48562Y113628D01*
X48520Y113139D01*
X48466Y112651D01*
X48400Y112164D01*
X48322Y111680D01*
X48232Y111197D01*
X48130Y110717D01*
X48017Y110239D01*
X47892Y109765D01*
X47755Y109293D01*
X47607Y108825D01*
X47447Y108361D01*
X47276Y107901D01*
X47094Y107445D01*
X46900Y106994D01*
X46696Y106548D01*
X46480Y106107D01*
X46254Y105671D01*
X46018Y105241D01*
X45771Y104817D01*
X45513Y104399D01*
X45245Y103988D01*
X44968Y103583D01*
X44680Y103185D01*
X44383Y102794D01*
X44076Y102411D01*
X43760Y102036D01*
X43435Y101668D01*
X43101Y101308D01*
X42758Y100957D01*
X42407Y100614D01*
X42047Y100280D01*
X41679Y99955D01*
X41304Y99639D01*
X40921Y99332D01*
X40530Y99035D01*
X40132Y98747D01*
X39727Y98470D01*
X39316Y98202D01*
X38898Y97944D01*
X38474Y97697D01*
X38044Y97461D01*
X37608Y97235D01*
X37167Y97019D01*
X36721Y96815D01*
X36270Y96621D01*
X35814Y96439D01*
X35354Y96268D01*
X34890Y96108D01*
X34422Y95960D01*
X33950Y95823D01*
X33476Y95698D01*
X32998Y95585D01*
X32518Y95483D01*
X32035Y95393D01*
X31551Y95315D01*
X31064Y95249D01*
X30576Y95195D01*
X30087Y95153D01*
X29597Y95123D01*
X29107Y95105D01*
X28616Y95099D01*
X28125Y95105D01*
X27635Y95123D01*
X27145Y95153D01*
X26656Y95195D01*
X26168Y95249D01*
X25681Y95315D01*
X25197Y95393D01*
X24714Y95483D01*
X24234Y95585D01*
X23756Y95698D01*
X23282Y95823D01*
X22810Y95960D01*
X22342Y96108D01*
X21878Y96268D01*
X21418Y96439D01*
X20962Y96621D01*
X20511Y96815D01*
X20065Y97019D01*
X19624Y97235D01*
X19188Y97461D01*
X18758Y97697D01*
X18334Y97944D01*
X17916Y98202D01*
X17505Y98470D01*
X17100Y98747D01*
X16702Y99035D01*
X16311Y99332D01*
X15928Y99639D01*
X15553Y99955D01*
X15185Y100280D01*
X14825Y100614D01*
X14474Y100957D01*
X14131Y101308D01*
X13797Y101668D01*
X13472Y102036D01*
X13156Y102411D01*
X12849Y102794D01*
X12552Y103185D01*
X12264Y103583D01*
X11987Y103988D01*
X11719Y104399D01*
X11461Y104817D01*
X11214Y105241D01*
X10978Y105671D01*
X10752Y106107D01*
X10536Y106548D01*
X10332Y106994D01*
X10138Y107445D01*
X9956Y107901D01*
X9785Y108361D01*
X9625Y108825D01*
X9477Y109293D01*
X9340Y109765D01*
X9215Y110239D01*
X9102Y110717D01*
X9000Y111197D01*
X8910Y111680D01*
X8832Y112164D01*
X8766Y112651D01*
X8712Y113139D01*
X8670Y113628D01*
X8640Y114118D01*
X8622Y114608D01*
X8616Y115099D01*
X14489Y470655D02*
X14492Y470925D01*
X14502Y471195D01*
X14519Y471464D01*
X14542Y471733D01*
X14572Y472002D01*
X14608Y472269D01*
X14651Y472536D01*
X14700Y472801D01*
X14756Y473065D01*
X14819Y473328D01*
X14887Y473589D01*
X14963Y473848D01*
X15044Y474105D01*
X15132Y474361D01*
X15226Y474614D01*
X15326Y474865D01*
X15433Y475113D01*
X15545Y475358D01*
X15664Y475601D01*
X15788Y475840D01*
X15918Y476077D01*
X16054Y476310D01*
X16196Y476540D01*
X16343Y476766D01*
X16496Y476989D01*
X16654Y477208D01*
X16817Y477423D01*
X16986Y477633D01*
X17160Y477840D01*
X17339Y478042D01*
X17522Y478240D01*
X17711Y478433D01*
X17904Y478622D01*
X18102Y478805D01*
X18304Y478984D01*
X18511Y479158D01*
X18721Y479327D01*
X18936Y479490D01*
X19155Y479648D01*
X19378Y479801D01*
X19604Y479948D01*
X19834Y480090D01*
X20067Y480226D01*
X20304Y480356D01*
X20543Y480480D01*
X20786Y480599D01*
X21031Y480711D01*
X21279Y480818D01*
X21530Y480918D01*
X21783Y481012D01*
X22039Y481100D01*
X22296Y481181D01*
X22555Y481257D01*
X22816Y481325D01*
X23079Y481388D01*
X23343Y481444D01*
X23608Y481493D01*
X23875Y481536D01*
X24142Y481572D01*
X24411Y481602D01*
X24680Y481625D01*
X24949Y481642D01*
X25219Y481652D01*
X25489Y481655D01*
X25759Y481652D01*
X26029Y481642D01*
X26298Y481625D01*
X26567Y481602D01*
X26836Y481572D01*
X27103Y481536D01*
X27370Y481493D01*
X27635Y481444D01*
X27899Y481388D01*
X28162Y481325D01*
X28423Y481257D01*
X28682Y481181D01*
X28939Y481100D01*
X29195Y481012D01*
X29448Y480918D01*
X29699Y480818D01*
X29947Y480711D01*
X30192Y480599D01*
X30435Y480480D01*
X30674Y480356D01*
X30911Y480226D01*
X31144Y480090D01*
X31374Y479948D01*
X31600Y479801D01*
X31823Y479648D01*
X32042Y479490D01*
X32257Y479327D01*
X32467Y479158D01*
X32674Y478984D01*
X32876Y478805D01*
X33074Y478622D01*
X33267Y478433D01*
X33456Y478240D01*
X33639Y478042D01*
X33818Y477840D01*
X33992Y477633D01*
X34161Y477423D01*
X34324Y477208D01*
X34482Y476989D01*
X34635Y476766D01*
X34782Y476540D01*
X34924Y476310D01*
X35060Y476077D01*
X35190Y475840D01*
X35314Y475601D01*
X35433Y475358D01*
X35545Y475113D01*
X35652Y474865D01*
X35752Y474614D01*
X35846Y474361D01*
X35934Y474105D01*
X36015Y473848D01*
X36091Y473589D01*
X36159Y473328D01*
X36222Y473065D01*
X36278Y472801D01*
X36327Y472536D01*
X36370Y472269D01*
X36406Y472002D01*
X36436Y471733D01*
X36459Y471464D01*
X36476Y471195D01*
X36486Y470925D01*
X36489Y470655D01*
X36486Y470385D01*
X36476Y470115D01*
X36459Y469846D01*
X36436Y469577D01*
X36406Y469308D01*
X36370Y469041D01*
X36327Y468774D01*
X36278Y468509D01*
X36222Y468245D01*
X36159Y467982D01*
X36091Y467721D01*
X36015Y467462D01*
X35934Y467205D01*
X35846Y466949D01*
X35752Y466696D01*
X35652Y466445D01*
X35545Y466197D01*
X35433Y465952D01*
X35314Y465709D01*
X35190Y465470D01*
X35060Y465233D01*
X34924Y465000D01*
X34782Y464770D01*
X34635Y464544D01*
X34482Y464321D01*
X34324Y464102D01*
X34161Y463887D01*
X33992Y463677D01*
X33818Y463470D01*
X33639Y463268D01*
X33456Y463070D01*
X33267Y462877D01*
X33074Y462688D01*
X32876Y462505D01*
X32674Y462326D01*
X32467Y462152D01*
X32257Y461983D01*
X32042Y461820D01*
X31823Y461662D01*
X31600Y461509D01*
X31374Y461362D01*
X31144Y461220D01*
X30911Y461084D01*
X30674Y460954D01*
X30435Y460830D01*
X30192Y460711D01*
X29947Y460599D01*
X29699Y460492D01*
X29448Y460392D01*
X29195Y460298D01*
X28939Y460210D01*
X28682Y460129D01*
X28423Y460053D01*
X28162Y459985D01*
X27899Y459922D01*
X27635Y459866D01*
X27370Y459817D01*
X27103Y459774D01*
X26836Y459738D01*
X26567Y459708D01*
X26298Y459685D01*
X26029Y459668D01*
X25759Y459658D01*
X25489Y459655D01*
X25219Y459658D01*
X24949Y459668D01*
X24680Y459685D01*
X24411Y459708D01*
X24142Y459738D01*
X23875Y459774D01*
X23608Y459817D01*
X23343Y459866D01*
X23079Y459922D01*
X22816Y459985D01*
X22555Y460053D01*
X22296Y460129D01*
X22039Y460210D01*
X21783Y460298D01*
X21530Y460392D01*
X21279Y460492D01*
X21031Y460599D01*
X20786Y460711D01*
X20543Y460830D01*
X20304Y460954D01*
X20067Y461084D01*
X19834Y461220D01*
X19604Y461362D01*
X19378Y461509D01*
X19155Y461662D01*
X18936Y461820D01*
X18721Y461983D01*
X18511Y462152D01*
X18304Y462326D01*
X18102Y462505D01*
X17904Y462688D01*
X17711Y462877D01*
X17522Y463070D01*
X17339Y463268D01*
X17160Y463470D01*
X16986Y463677D01*
X16817Y463887D01*
X16654Y464102D01*
X16496Y464321D01*
X16343Y464544D01*
X16196Y464770D01*
X16054Y465000D01*
X15918Y465233D01*
X15788Y465470D01*
X15664Y465709D01*
X15545Y465952D01*
X15433Y466197D01*
X15326Y466445D01*
X15226Y466696D01*
X15132Y466949D01*
X15044Y467205D01*
X14963Y467462D01*
X14887Y467721D01*
X14819Y467982D01*
X14756Y468245D01*
X14700Y468509D01*
X14651Y468774D01*
X14608Y469041D01*
X14572Y469308D01*
X14542Y469577D01*
X14519Y469846D01*
X14502Y470115D01*
X14492Y470385D01*
X14489Y470655D01*
X100147Y81982D02*
X100150Y82203D01*
X100158Y82424D01*
X100171Y82644D01*
X100190Y82864D01*
X100215Y83084D01*
X100244Y83303D01*
X100280Y83521D01*
X100320Y83738D01*
X100366Y83954D01*
X100417Y84169D01*
X100473Y84382D01*
X100535Y84595D01*
X100601Y84805D01*
X100673Y85014D01*
X100750Y85221D01*
X100832Y85426D01*
X100919Y85629D01*
X101011Y85830D01*
X101108Y86029D01*
X101210Y86225D01*
X101316Y86418D01*
X101427Y86609D01*
X101543Y86797D01*
X101664Y86982D01*
X101789Y87164D01*
X101918Y87343D01*
X102052Y87519D01*
X102190Y87692D01*
X102332Y87861D01*
X102478Y88026D01*
X102629Y88188D01*
X102783Y88346D01*
X102941Y88500D01*
X103103Y88651D01*
X103268Y88797D01*
X103437Y88939D01*
X103610Y89077D01*
X103786Y89211D01*
X103965Y89340D01*
X104147Y89465D01*
X104332Y89586D01*
X104520Y89702D01*
X104711Y89813D01*
X104904Y89919D01*
X105100Y90021D01*
X105299Y90118D01*
X105500Y90210D01*
X105703Y90297D01*
X105908Y90379D01*
X106115Y90456D01*
X106324Y90528D01*
X106534Y90594D01*
X106747Y90656D01*
X106960Y90712D01*
X107175Y90763D01*
X107391Y90809D01*
X107608Y90849D01*
X107826Y90885D01*
X108045Y90914D01*
X108265Y90939D01*
X108485Y90958D01*
X108705Y90971D01*
X108926Y90979D01*
X109147Y90982D01*
X109368Y90979D01*
X109589Y90971D01*
X109809Y90958D01*
X110029Y90939D01*
X110249Y90914D01*
X110468Y90885D01*
X110686Y90849D01*
X110903Y90809D01*
X111119Y90763D01*
X111334Y90712D01*
X111547Y90656D01*
X111760Y90594D01*
X111970Y90528D01*
X112179Y90456D01*
X112386Y90379D01*
X112591Y90297D01*
X112794Y90210D01*
X112995Y90118D01*
X113194Y90021D01*
X113390Y89919D01*
X113583Y89813D01*
X113774Y89702D01*
X113962Y89586D01*
X114147Y89465D01*
X114329Y89340D01*
X114508Y89211D01*
X114684Y89077D01*
X114857Y88939D01*
X115026Y88797D01*
X115191Y88651D01*
X115353Y88500D01*
X115511Y88346D01*
X115665Y88188D01*
X115816Y88026D01*
X115962Y87861D01*
X116104Y87692D01*
X116242Y87519D01*
X116376Y87343D01*
X116505Y87164D01*
X116630Y86982D01*
X116751Y86797D01*
X116867Y86609D01*
X116978Y86418D01*
X117084Y86225D01*
X117186Y86029D01*
X117283Y85830D01*
X117375Y85629D01*
X117462Y85426D01*
X117544Y85221D01*
X117621Y85014D01*
X117693Y84805D01*
X117759Y84595D01*
X117821Y84382D01*
X117877Y84169D01*
X117928Y83954D01*
X117974Y83738D01*
X118014Y83521D01*
X118050Y83303D01*
X118079Y83084D01*
X118104Y82864D01*
X118123Y82644D01*
X118136Y82424D01*
X118144Y82203D01*
X118147Y81982D01*
X118144Y81761D01*
X118136Y81540D01*
X118123Y81320D01*
X118104Y81100D01*
X118079Y80880D01*
X118050Y80661D01*
X118014Y80443D01*
X117974Y80226D01*
X117928Y80010D01*
X117877Y79795D01*
X117821Y79582D01*
X117759Y79369D01*
X117693Y79159D01*
X117621Y78950D01*
X117544Y78743D01*
X117462Y78538D01*
X117375Y78335D01*
X117283Y78134D01*
X117186Y77935D01*
X117084Y77739D01*
X116978Y77546D01*
X116867Y77355D01*
X116751Y77167D01*
X116630Y76982D01*
X116505Y76800D01*
X116376Y76621D01*
X116242Y76445D01*
X116104Y76272D01*
X115962Y76103D01*
X115816Y75938D01*
X115665Y75776D01*
X115511Y75618D01*
X115353Y75464D01*
X115191Y75313D01*
X115026Y75167D01*
X114857Y75025D01*
X114684Y74887D01*
X114508Y74753D01*
X114329Y74624D01*
X114147Y74499D01*
X113962Y74378D01*
X113774Y74262D01*
X113583Y74151D01*
X113390Y74045D01*
X113194Y73943D01*
X112995Y73846D01*
X112794Y73754D01*
X112591Y73667D01*
X112386Y73585D01*
X112179Y73508D01*
X111970Y73436D01*
X111760Y73370D01*
X111547Y73308D01*
X111334Y73252D01*
X111119Y73201D01*
X110903Y73155D01*
X110686Y73115D01*
X110468Y73079D01*
X110249Y73050D01*
X110029Y73025D01*
X109809Y73006D01*
X109589Y72993D01*
X109368Y72985D01*
X109147Y72982D01*
X108926Y72985D01*
X108705Y72993D01*
X108485Y73006D01*
X108265Y73025D01*
X108045Y73050D01*
X107826Y73079D01*
X107608Y73115D01*
X107391Y73155D01*
X107175Y73201D01*
X106960Y73252D01*
X106747Y73308D01*
X106534Y73370D01*
X106324Y73436D01*
X106115Y73508D01*
X105908Y73585D01*
X105703Y73667D01*
X105500Y73754D01*
X105299Y73846D01*
X105100Y73943D01*
X104904Y74045D01*
X104711Y74151D01*
X104520Y74262D01*
X104332Y74378D01*
X104147Y74499D01*
X103965Y74624D01*
X103786Y74753D01*
X103610Y74887D01*
X103437Y75025D01*
X103268Y75167D01*
X103103Y75313D01*
X102941Y75464D01*
X102783Y75618D01*
X102629Y75776D01*
X102478Y75938D01*
X102332Y76103D01*
X102190Y76272D01*
X102052Y76445D01*
X101918Y76621D01*
X101789Y76800D01*
X101664Y76982D01*
X101543Y77167D01*
X101427Y77355D01*
X101316Y77546D01*
X101210Y77739D01*
X101108Y77935D01*
X101011Y78134D01*
X100919Y78335D01*
X100832Y78538D01*
X100750Y78743D01*
X100673Y78950D01*
X100601Y79159D01*
X100535Y79369D01*
X100473Y79582D01*
X100417Y79795D01*
X100366Y80010D01*
X100320Y80226D01*
X100280Y80443D01*
X100244Y80661D01*
X100215Y80880D01*
X100190Y81100D01*
X100171Y81320D01*
X100158Y81540D01*
X100150Y81761D01*
X100147Y81982D01*
X7842Y769772D02*
X7845Y770042D01*
X7855Y770312D01*
X7872Y770581D01*
X7895Y770850D01*
X7925Y771119D01*
X7961Y771386D01*
X8004Y771653D01*
X8053Y771918D01*
X8109Y772182D01*
X8172Y772445D01*
X8240Y772706D01*
X8316Y772965D01*
X8397Y773222D01*
X8485Y773478D01*
X8579Y773731D01*
X8679Y773982D01*
X8786Y774230D01*
X8898Y774475D01*
X9017Y774718D01*
X9141Y774957D01*
X9271Y775194D01*
X9407Y775427D01*
X9549Y775657D01*
X9696Y775883D01*
X9849Y776106D01*
X10007Y776325D01*
X10170Y776540D01*
X10339Y776750D01*
X10513Y776957D01*
X10692Y777159D01*
X10875Y777357D01*
X11064Y777550D01*
X11257Y777739D01*
X11455Y777922D01*
X11657Y778101D01*
X11864Y778275D01*
X12074Y778444D01*
X12289Y778607D01*
X12508Y778765D01*
X12731Y778918D01*
X12957Y779065D01*
X13187Y779207D01*
X13420Y779343D01*
X13657Y779473D01*
X13896Y779597D01*
X14139Y779716D01*
X14384Y779828D01*
X14632Y779935D01*
X14883Y780035D01*
X15136Y780129D01*
X15392Y780217D01*
X15649Y780298D01*
X15908Y780374D01*
X16169Y780442D01*
X16432Y780505D01*
X16696Y780561D01*
X16961Y780610D01*
X17228Y780653D01*
X17495Y780689D01*
X17764Y780719D01*
X18033Y780742D01*
X18302Y780759D01*
X18572Y780769D01*
X18842Y780772D01*
X19112Y780769D01*
X19382Y780759D01*
X19651Y780742D01*
X19920Y780719D01*
X20189Y780689D01*
X20456Y780653D01*
X20723Y780610D01*
X20988Y780561D01*
X21252Y780505D01*
X21515Y780442D01*
X21776Y780374D01*
X22035Y780298D01*
X22292Y780217D01*
X22548Y780129D01*
X22801Y780035D01*
X23052Y779935D01*
X23300Y779828D01*
X23545Y779716D01*
X23788Y779597D01*
X24027Y779473D01*
X24264Y779343D01*
X24497Y779207D01*
X24727Y779065D01*
X24953Y778918D01*
X25176Y778765D01*
X25395Y778607D01*
X25610Y778444D01*
X25820Y778275D01*
X26027Y778101D01*
X26229Y777922D01*
X26427Y777739D01*
X26620Y777550D01*
X26809Y777357D01*
X26992Y777159D01*
X27171Y776957D01*
X27345Y776750D01*
X27514Y776540D01*
X27677Y776325D01*
X27835Y776106D01*
X27988Y775883D01*
X28135Y775657D01*
X28277Y775427D01*
X28413Y775194D01*
X28543Y774957D01*
X28667Y774718D01*
X28786Y774475D01*
X28898Y774230D01*
X29005Y773982D01*
X29105Y773731D01*
X29199Y773478D01*
X29287Y773222D01*
X29368Y772965D01*
X29444Y772706D01*
X29512Y772445D01*
X29575Y772182D01*
X29631Y771918D01*
X29680Y771653D01*
X29723Y771386D01*
X29759Y771119D01*
X29789Y770850D01*
X29812Y770581D01*
X29829Y770312D01*
X29839Y770042D01*
X29842Y769772D01*
X29839Y769502D01*
X29829Y769232D01*
X29812Y768963D01*
X29789Y768694D01*
X29759Y768425D01*
X29723Y768158D01*
X29680Y767891D01*
X29631Y767626D01*
X29575Y767362D01*
X29512Y767099D01*
X29444Y766838D01*
X29368Y766579D01*
X29287Y766322D01*
X29199Y766066D01*
X29105Y765813D01*
X29005Y765562D01*
X28898Y765314D01*
X28786Y765069D01*
X28667Y764826D01*
X28543Y764587D01*
X28413Y764350D01*
X28277Y764117D01*
X28135Y763887D01*
X27988Y763661D01*
X27835Y763438D01*
X27677Y763219D01*
X27514Y763004D01*
X27345Y762794D01*
X27171Y762587D01*
X26992Y762385D01*
X26809Y762187D01*
X26620Y761994D01*
X26427Y761805D01*
X26229Y761622D01*
X26027Y761443D01*
X25820Y761269D01*
X25610Y761100D01*
X25395Y760937D01*
X25176Y760779D01*
X24953Y760626D01*
X24727Y760479D01*
X24497Y760337D01*
X24264Y760201D01*
X24027Y760071D01*
X23788Y759947D01*
X23545Y759828D01*
X23300Y759716D01*
X23052Y759609D01*
X22801Y759509D01*
X22548Y759415D01*
X22292Y759327D01*
X22035Y759246D01*
X21776Y759170D01*
X21515Y759102D01*
X21252Y759039D01*
X20988Y758983D01*
X20723Y758934D01*
X20456Y758891D01*
X20189Y758855D01*
X19920Y758825D01*
X19651Y758802D01*
X19382Y758785D01*
X19112Y758775D01*
X18842Y758772D01*
X18572Y758775D01*
X18302Y758785D01*
X18033Y758802D01*
X17764Y758825D01*
X17495Y758855D01*
X17228Y758891D01*
X16961Y758934D01*
X16696Y758983D01*
X16432Y759039D01*
X16169Y759102D01*
X15908Y759170D01*
X15649Y759246D01*
X15392Y759327D01*
X15136Y759415D01*
X14883Y759509D01*
X14632Y759609D01*
X14384Y759716D01*
X14139Y759828D01*
X13896Y759947D01*
X13657Y760071D01*
X13420Y760201D01*
X13187Y760337D01*
X12957Y760479D01*
X12731Y760626D01*
X12508Y760779D01*
X12289Y760937D01*
X12074Y761100D01*
X11864Y761269D01*
X11657Y761443D01*
X11455Y761622D01*
X11257Y761805D01*
X11064Y761994D01*
X10875Y762187D01*
X10692Y762385D01*
X10513Y762587D01*
X10339Y762794D01*
X10170Y763004D01*
X10007Y763219D01*
X9849Y763438D01*
X9696Y763661D01*
X9549Y763887D01*
X9407Y764117D01*
X9271Y764350D01*
X9141Y764587D01*
X9017Y764826D01*
X8898Y765069D01*
X8786Y765314D01*
X8679Y765562D01*
X8579Y765813D01*
X8485Y766066D01*
X8397Y766322D01*
X8316Y766579D01*
X8240Y766838D01*
X8172Y767099D01*
X8109Y767362D01*
X8053Y767626D01*
X8004Y767891D01*
X7961Y768158D01*
X7925Y768425D01*
X7895Y768694D01*
X7872Y768963D01*
X7855Y769232D01*
X7845Y769502D01*
X7842Y769772D01*
X907567Y114709D02*
X907573Y115200D01*
X907591Y115690D01*
X907621Y116180D01*
X907663Y116669D01*
X907717Y117157D01*
X907783Y117644D01*
X907861Y118128D01*
X907951Y118611D01*
X908053Y119091D01*
X908166Y119569D01*
X908291Y120043D01*
X908428Y120515D01*
X908576Y120983D01*
X908736Y121447D01*
X908907Y121907D01*
X909089Y122363D01*
X909283Y122814D01*
X909487Y123260D01*
X909703Y123701D01*
X909929Y124137D01*
X910165Y124567D01*
X910412Y124991D01*
X910670Y125409D01*
X910938Y125820D01*
X911215Y126225D01*
X911503Y126623D01*
X911800Y127014D01*
X912107Y127397D01*
X912423Y127772D01*
X912748Y128140D01*
X913082Y128500D01*
X913425Y128851D01*
X913776Y129194D01*
X914136Y129528D01*
X914504Y129853D01*
X914879Y130169D01*
X915262Y130476D01*
X915653Y130773D01*
X916051Y131061D01*
X916456Y131338D01*
X916867Y131606D01*
X917285Y131864D01*
X917709Y132111D01*
X918139Y132347D01*
X918575Y132573D01*
X919016Y132789D01*
X919462Y132993D01*
X919913Y133187D01*
X920369Y133369D01*
X920829Y133540D01*
X921293Y133700D01*
X921761Y133848D01*
X922233Y133985D01*
X922707Y134110D01*
X923185Y134223D01*
X923665Y134325D01*
X924148Y134415D01*
X924632Y134493D01*
X925119Y134559D01*
X925607Y134613D01*
X926096Y134655D01*
X926586Y134685D01*
X927076Y134703D01*
X927567Y134709D01*
X928058Y134703D01*
X928548Y134685D01*
X929038Y134655D01*
X929527Y134613D01*
X930015Y134559D01*
X930502Y134493D01*
X930986Y134415D01*
X931469Y134325D01*
X931949Y134223D01*
X932427Y134110D01*
X932901Y133985D01*
X933373Y133848D01*
X933841Y133700D01*
X934305Y133540D01*
X934765Y133369D01*
X935221Y133187D01*
X935672Y132993D01*
X936118Y132789D01*
X936559Y132573D01*
X936995Y132347D01*
X937425Y132111D01*
X937849Y131864D01*
X938267Y131606D01*
X938678Y131338D01*
X939083Y131061D01*
X939481Y130773D01*
X939872Y130476D01*
X940255Y130169D01*
X940630Y129853D01*
X940998Y129528D01*
X941358Y129194D01*
X941709Y128851D01*
X942052Y128500D01*
X942386Y128140D01*
X942711Y127772D01*
X943027Y127397D01*
X943334Y127014D01*
X943631Y126623D01*
X943919Y126225D01*
X944196Y125820D01*
X944464Y125409D01*
X944722Y124991D01*
X944969Y124567D01*
X945205Y124137D01*
X945431Y123701D01*
X945647Y123260D01*
X945851Y122814D01*
X946045Y122363D01*
X946227Y121907D01*
X946398Y121447D01*
X946558Y120983D01*
X946706Y120515D01*
X946843Y120043D01*
X946968Y119569D01*
X947081Y119091D01*
X947183Y118611D01*
X947273Y118128D01*
X947351Y117644D01*
X947417Y117157D01*
X947471Y116669D01*
X947513Y116180D01*
X947543Y115690D01*
X947561Y115200D01*
X947567Y114709D01*
X947561Y114218D01*
X947543Y113728D01*
X947513Y113238D01*
X947471Y112749D01*
X947417Y112261D01*
X947351Y111774D01*
X947273Y111290D01*
X947183Y110807D01*
X947081Y110327D01*
X946968Y109849D01*
X946843Y109375D01*
X946706Y108903D01*
X946558Y108435D01*
X946398Y107971D01*
X946227Y107511D01*
X946045Y107055D01*
X945851Y106604D01*
X945647Y106158D01*
X945431Y105717D01*
X945205Y105281D01*
X944969Y104851D01*
X944722Y104427D01*
X944464Y104009D01*
X944196Y103598D01*
X943919Y103193D01*
X943631Y102795D01*
X943334Y102404D01*
X943027Y102021D01*
X942711Y101646D01*
X942386Y101278D01*
X942052Y100918D01*
X941709Y100567D01*
X941358Y100224D01*
X940998Y99890D01*
X940630Y99565D01*
X940255Y99249D01*
X939872Y98942D01*
X939481Y98645D01*
X939083Y98357D01*
X938678Y98080D01*
X938267Y97812D01*
X937849Y97554D01*
X937425Y97307D01*
X936995Y97071D01*
X936559Y96845D01*
X936118Y96629D01*
X935672Y96425D01*
X935221Y96231D01*
X934765Y96049D01*
X934305Y95878D01*
X933841Y95718D01*
X933373Y95570D01*
X932901Y95433D01*
X932427Y95308D01*
X931949Y95195D01*
X931469Y95093D01*
X930986Y95003D01*
X930502Y94925D01*
X930015Y94859D01*
X929527Y94805D01*
X929038Y94763D01*
X928548Y94733D01*
X928058Y94715D01*
X927567Y94709D01*
X927076Y94715D01*
X926586Y94733D01*
X926096Y94763D01*
X925607Y94805D01*
X925119Y94859D01*
X924632Y94925D01*
X924148Y95003D01*
X923665Y95093D01*
X923185Y95195D01*
X922707Y95308D01*
X922233Y95433D01*
X921761Y95570D01*
X921293Y95718D01*
X920829Y95878D01*
X920369Y96049D01*
X919913Y96231D01*
X919462Y96425D01*
X919016Y96629D01*
X918575Y96845D01*
X918139Y97071D01*
X917709Y97307D01*
X917285Y97554D01*
X916867Y97812D01*
X916456Y98080D01*
X916051Y98357D01*
X915653Y98645D01*
X915262Y98942D01*
X914879Y99249D01*
X914504Y99565D01*
X914136Y99890D01*
X913776Y100224D01*
X913425Y100567D01*
X913082Y100918D01*
X912748Y101278D01*
X912423Y101646D01*
X912107Y102021D01*
X911800Y102404D01*
X911503Y102795D01*
X911215Y103193D01*
X910938Y103598D01*
X910670Y104009D01*
X910412Y104427D01*
X910165Y104851D01*
X909929Y105281D01*
X909703Y105717D01*
X909487Y106158D01*
X909283Y106604D01*
X909089Y107055D01*
X908907Y107511D01*
X908736Y107971D01*
X908576Y108435D01*
X908428Y108903D01*
X908291Y109375D01*
X908166Y109849D01*
X908053Y110327D01*
X907951Y110807D01*
X907861Y111290D01*
X907783Y111774D01*
X907717Y112261D01*
X907663Y112749D01*
X907621Y113238D01*
X907591Y113728D01*
X907573Y114218D01*
X907567Y114709D01*
X818341Y931578D02*
X818344Y931848D01*
X818354Y932118D01*
X818371Y932387D01*
X818394Y932656D01*
X818424Y932925D01*
X818460Y933192D01*
X818503Y933459D01*
X818552Y933724D01*
X818608Y933988D01*
X818671Y934251D01*
X818739Y934512D01*
X818815Y934771D01*
X818896Y935028D01*
X818984Y935284D01*
X819078Y935537D01*
X819178Y935788D01*
X819285Y936036D01*
X819397Y936281D01*
X819516Y936524D01*
X819640Y936763D01*
X819770Y937000D01*
X819906Y937233D01*
X820048Y937463D01*
X820195Y937689D01*
X820348Y937912D01*
X820506Y938131D01*
X820669Y938346D01*
X820838Y938556D01*
X821012Y938763D01*
X821191Y938965D01*
X821374Y939163D01*
X821563Y939356D01*
X821756Y939545D01*
X821954Y939728D01*
X822156Y939907D01*
X822363Y940081D01*
X822573Y940250D01*
X822788Y940413D01*
X823007Y940571D01*
X823230Y940724D01*
X823456Y940871D01*
X823686Y941013D01*
X823919Y941149D01*
X824156Y941279D01*
X824395Y941403D01*
X824638Y941522D01*
X824883Y941634D01*
X825131Y941741D01*
X825382Y941841D01*
X825635Y941935D01*
X825891Y942023D01*
X826148Y942104D01*
X826407Y942180D01*
X826668Y942248D01*
X826931Y942311D01*
X827195Y942367D01*
X827460Y942416D01*
X827727Y942459D01*
X827994Y942495D01*
X828263Y942525D01*
X828532Y942548D01*
X828801Y942565D01*
X829071Y942575D01*
X829341Y942578D01*
X829611Y942575D01*
X829881Y942565D01*
X830150Y942548D01*
X830419Y942525D01*
X830688Y942495D01*
X830955Y942459D01*
X831222Y942416D01*
X831487Y942367D01*
X831751Y942311D01*
X832014Y942248D01*
X832275Y942180D01*
X832534Y942104D01*
X832791Y942023D01*
X833047Y941935D01*
X833300Y941841D01*
X833551Y941741D01*
X833799Y941634D01*
X834044Y941522D01*
X834287Y941403D01*
X834526Y941279D01*
X834763Y941149D01*
X834996Y941013D01*
X835226Y940871D01*
X835452Y940724D01*
X835675Y940571D01*
X835894Y940413D01*
X836109Y940250D01*
X836319Y940081D01*
X836526Y939907D01*
X836728Y939728D01*
X836926Y939545D01*
X837119Y939356D01*
X837308Y939163D01*
X837491Y938965D01*
X837670Y938763D01*
X837844Y938556D01*
X838013Y938346D01*
X838176Y938131D01*
X838334Y937912D01*
X838487Y937689D01*
X838634Y937463D01*
X838776Y937233D01*
X838912Y937000D01*
X839042Y936763D01*
X839166Y936524D01*
X839285Y936281D01*
X839397Y936036D01*
X839504Y935788D01*
X839604Y935537D01*
X839698Y935284D01*
X839786Y935028D01*
X839867Y934771D01*
X839943Y934512D01*
X840011Y934251D01*
X840074Y933988D01*
X840130Y933724D01*
X840179Y933459D01*
X840222Y933192D01*
X840258Y932925D01*
X840288Y932656D01*
X840311Y932387D01*
X840328Y932118D01*
X840338Y931848D01*
X840341Y931578D01*
X840338Y931308D01*
X840328Y931038D01*
X840311Y930769D01*
X840288Y930500D01*
X840258Y930231D01*
X840222Y929964D01*
X840179Y929697D01*
X840130Y929432D01*
X840074Y929168D01*
X840011Y928905D01*
X839943Y928644D01*
X839867Y928385D01*
X839786Y928128D01*
X839698Y927872D01*
X839604Y927619D01*
X839504Y927368D01*
X839397Y927120D01*
X839285Y926875D01*
X839166Y926632D01*
X839042Y926393D01*
X838912Y926156D01*
X838776Y925923D01*
X838634Y925693D01*
X838487Y925467D01*
X838334Y925244D01*
X838176Y925025D01*
X838013Y924810D01*
X837844Y924600D01*
X837670Y924393D01*
X837491Y924191D01*
X837308Y923993D01*
X837119Y923800D01*
X836926Y923611D01*
X836728Y923428D01*
X836526Y923249D01*
X836319Y923075D01*
X836109Y922906D01*
X835894Y922743D01*
X835675Y922585D01*
X835452Y922432D01*
X835226Y922285D01*
X834996Y922143D01*
X834763Y922007D01*
X834526Y921877D01*
X834287Y921753D01*
X834044Y921634D01*
X833799Y921522D01*
X833551Y921415D01*
X833300Y921315D01*
X833047Y921221D01*
X832791Y921133D01*
X832534Y921052D01*
X832275Y920976D01*
X832014Y920908D01*
X831751Y920845D01*
X831487Y920789D01*
X831222Y920740D01*
X830955Y920697D01*
X830688Y920661D01*
X830419Y920631D01*
X830150Y920608D01*
X829881Y920591D01*
X829611Y920581D01*
X829341Y920578D01*
X829071Y920581D01*
X828801Y920591D01*
X828532Y920608D01*
X828263Y920631D01*
X827994Y920661D01*
X827727Y920697D01*
X827460Y920740D01*
X827195Y920789D01*
X826931Y920845D01*
X826668Y920908D01*
X826407Y920976D01*
X826148Y921052D01*
X825891Y921133D01*
X825635Y921221D01*
X825382Y921315D01*
X825131Y921415D01*
X824883Y921522D01*
X824638Y921634D01*
X824395Y921753D01*
X824156Y921877D01*
X823919Y922007D01*
X823686Y922143D01*
X823456Y922285D01*
X823230Y922432D01*
X823007Y922585D01*
X822788Y922743D01*
X822573Y922906D01*
X822363Y923075D01*
X822156Y923249D01*
X821954Y923428D01*
X821756Y923611D01*
X821563Y923800D01*
X821374Y923993D01*
X821191Y924191D01*
X821012Y924393D01*
X820838Y924600D01*
X820669Y924810D01*
X820506Y925025D01*
X820348Y925244D01*
X820195Y925467D01*
X820048Y925693D01*
X819906Y925923D01*
X819770Y926156D01*
X819640Y926393D01*
X819516Y926632D01*
X819397Y926875D01*
X819285Y927120D01*
X819178Y927368D01*
X819078Y927619D01*
X818984Y927872D01*
X818896Y928128D01*
X818815Y928385D01*
X818739Y928644D01*
X818671Y928905D01*
X818608Y929168D01*
X818552Y929432D01*
X818503Y929697D01*
X818460Y929964D01*
X818424Y930231D01*
X818394Y930500D01*
X818371Y930769D01*
X818354Y931038D01*
X818344Y931308D01*
X818341Y931578D01*
X925973Y769890D02*
X925976Y770160D01*
X925986Y770430D01*
X926003Y770699D01*
X926026Y770968D01*
X926056Y771237D01*
X926092Y771504D01*
X926135Y771771D01*
X926184Y772036D01*
X926240Y772300D01*
X926303Y772563D01*
X926371Y772824D01*
X926447Y773083D01*
X926528Y773340D01*
X926616Y773596D01*
X926710Y773849D01*
X926810Y774100D01*
X926917Y774348D01*
X927029Y774593D01*
X927148Y774836D01*
X927272Y775075D01*
X927402Y775312D01*
X927538Y775545D01*
X927680Y775775D01*
X927827Y776001D01*
X927980Y776224D01*
X928138Y776443D01*
X928301Y776658D01*
X928470Y776868D01*
X928644Y777075D01*
X928823Y777277D01*
X929006Y777475D01*
X929195Y777668D01*
X929388Y777857D01*
X929586Y778040D01*
X929788Y778219D01*
X929995Y778393D01*
X930205Y778562D01*
X930420Y778725D01*
X930639Y778883D01*
X930862Y779036D01*
X931088Y779183D01*
X931318Y779325D01*
X931551Y779461D01*
X931788Y779591D01*
X932027Y779715D01*
X932270Y779834D01*
X932515Y779946D01*
X932763Y780053D01*
X933014Y780153D01*
X933267Y780247D01*
X933523Y780335D01*
X933780Y780416D01*
X934039Y780492D01*
X934300Y780560D01*
X934563Y780623D01*
X934827Y780679D01*
X935092Y780728D01*
X935359Y780771D01*
X935626Y780807D01*
X935895Y780837D01*
X936164Y780860D01*
X936433Y780877D01*
X936703Y780887D01*
X936973Y780890D01*
X937243Y780887D01*
X937513Y780877D01*
X937782Y780860D01*
X938051Y780837D01*
X938320Y780807D01*
X938587Y780771D01*
X938854Y780728D01*
X939119Y780679D01*
X939383Y780623D01*
X939646Y780560D01*
X939907Y780492D01*
X940166Y780416D01*
X940423Y780335D01*
X940679Y780247D01*
X940932Y780153D01*
X941183Y780053D01*
X941431Y779946D01*
X941676Y779834D01*
X941919Y779715D01*
X942158Y779591D01*
X942395Y779461D01*
X942628Y779325D01*
X942858Y779183D01*
X943084Y779036D01*
X943307Y778883D01*
X943526Y778725D01*
X943741Y778562D01*
X943951Y778393D01*
X944158Y778219D01*
X944360Y778040D01*
X944558Y777857D01*
X944751Y777668D01*
X944940Y777475D01*
X945123Y777277D01*
X945302Y777075D01*
X945476Y776868D01*
X945645Y776658D01*
X945808Y776443D01*
X945966Y776224D01*
X946119Y776001D01*
X946266Y775775D01*
X946408Y775545D01*
X946544Y775312D01*
X946674Y775075D01*
X946798Y774836D01*
X946917Y774593D01*
X947029Y774348D01*
X947136Y774100D01*
X947236Y773849D01*
X947330Y773596D01*
X947418Y773340D01*
X947499Y773083D01*
X947575Y772824D01*
X947643Y772563D01*
X947706Y772300D01*
X947762Y772036D01*
X947811Y771771D01*
X947854Y771504D01*
X947890Y771237D01*
X947920Y770968D01*
X947943Y770699D01*
X947960Y770430D01*
X947970Y770160D01*
X947973Y769890D01*
X947970Y769620D01*
X947960Y769350D01*
X947943Y769081D01*
X947920Y768812D01*
X947890Y768543D01*
X947854Y768276D01*
X947811Y768009D01*
X947762Y767744D01*
X947706Y767480D01*
X947643Y767217D01*
X947575Y766956D01*
X947499Y766697D01*
X947418Y766440D01*
X947330Y766184D01*
X947236Y765931D01*
X947136Y765680D01*
X947029Y765432D01*
X946917Y765187D01*
X946798Y764944D01*
X946674Y764705D01*
X946544Y764468D01*
X946408Y764235D01*
X946266Y764005D01*
X946119Y763779D01*
X945966Y763556D01*
X945808Y763337D01*
X945645Y763122D01*
X945476Y762912D01*
X945302Y762705D01*
X945123Y762503D01*
X944940Y762305D01*
X944751Y762112D01*
X944558Y761923D01*
X944360Y761740D01*
X944158Y761561D01*
X943951Y761387D01*
X943741Y761218D01*
X943526Y761055D01*
X943307Y760897D01*
X943084Y760744D01*
X942858Y760597D01*
X942628Y760455D01*
X942395Y760319D01*
X942158Y760189D01*
X941919Y760065D01*
X941676Y759946D01*
X941431Y759834D01*
X941183Y759727D01*
X940932Y759627D01*
X940679Y759533D01*
X940423Y759445D01*
X940166Y759364D01*
X939907Y759288D01*
X939646Y759220D01*
X939383Y759157D01*
X939119Y759101D01*
X938854Y759052D01*
X938587Y759009D01*
X938320Y758973D01*
X938051Y758943D01*
X937782Y758920D01*
X937513Y758903D01*
X937243Y758893D01*
X936973Y758890D01*
X936703Y758893D01*
X936433Y758903D01*
X936164Y758920D01*
X935895Y758943D01*
X935626Y758973D01*
X935359Y759009D01*
X935092Y759052D01*
X934827Y759101D01*
X934563Y759157D01*
X934300Y759220D01*
X934039Y759288D01*
X933780Y759364D01*
X933523Y759445D01*
X933267Y759533D01*
X933014Y759627D01*
X932763Y759727D01*
X932515Y759834D01*
X932270Y759946D01*
X932027Y760065D01*
X931788Y760189D01*
X931551Y760319D01*
X931318Y760455D01*
X931088Y760597D01*
X930862Y760744D01*
X930639Y760897D01*
X930420Y761055D01*
X930205Y761218D01*
X929995Y761387D01*
X929788Y761561D01*
X929586Y761740D01*
X929388Y761923D01*
X929195Y762112D01*
X929006Y762305D01*
X928823Y762503D01*
X928644Y762705D01*
X928470Y762912D01*
X928301Y763122D01*
X928138Y763337D01*
X927980Y763556D01*
X927827Y763779D01*
X927680Y764005D01*
X927538Y764235D01*
X927402Y764468D01*
X927272Y764705D01*
X927148Y764944D01*
X927029Y765187D01*
X926917Y765432D01*
X926810Y765680D01*
X926710Y765931D01*
X926616Y766184D01*
X926528Y766440D01*
X926447Y766697D01*
X926371Y766956D01*
X926303Y767217D01*
X926240Y767480D01*
X926184Y767744D01*
X926135Y768009D01*
X926092Y768276D01*
X926056Y768543D01*
X926026Y768812D01*
X926003Y769081D01*
X925986Y769350D01*
X925976Y769620D01*
X925973Y769890D01*
X8420Y180356D02*
X8423Y180626D01*
X8433Y180896D01*
X8450Y181165D01*
X8473Y181434D01*
X8503Y181703D01*
X8539Y181970D01*
X8582Y182237D01*
X8631Y182502D01*
X8687Y182766D01*
X8750Y183029D01*
X8818Y183290D01*
X8894Y183549D01*
X8975Y183806D01*
X9063Y184062D01*
X9157Y184315D01*
X9257Y184566D01*
X9364Y184814D01*
X9476Y185059D01*
X9595Y185302D01*
X9719Y185541D01*
X9849Y185778D01*
X9985Y186011D01*
X10127Y186241D01*
X10274Y186467D01*
X10427Y186690D01*
X10585Y186909D01*
X10748Y187124D01*
X10917Y187334D01*
X11091Y187541D01*
X11270Y187743D01*
X11453Y187941D01*
X11642Y188134D01*
X11835Y188323D01*
X12033Y188506D01*
X12235Y188685D01*
X12442Y188859D01*
X12652Y189028D01*
X12867Y189191D01*
X13086Y189349D01*
X13309Y189502D01*
X13535Y189649D01*
X13765Y189791D01*
X13998Y189927D01*
X14235Y190057D01*
X14474Y190181D01*
X14717Y190300D01*
X14962Y190412D01*
X15210Y190519D01*
X15461Y190619D01*
X15714Y190713D01*
X15970Y190801D01*
X16227Y190882D01*
X16486Y190958D01*
X16747Y191026D01*
X17010Y191089D01*
X17274Y191145D01*
X17539Y191194D01*
X17806Y191237D01*
X18073Y191273D01*
X18342Y191303D01*
X18611Y191326D01*
X18880Y191343D01*
X19150Y191353D01*
X19420Y191356D01*
X19690Y191353D01*
X19960Y191343D01*
X20229Y191326D01*
X20498Y191303D01*
X20767Y191273D01*
X21034Y191237D01*
X21301Y191194D01*
X21566Y191145D01*
X21830Y191089D01*
X22093Y191026D01*
X22354Y190958D01*
X22613Y190882D01*
X22870Y190801D01*
X23126Y190713D01*
X23379Y190619D01*
X23630Y190519D01*
X23878Y190412D01*
X24123Y190300D01*
X24366Y190181D01*
X24605Y190057D01*
X24842Y189927D01*
X25075Y189791D01*
X25305Y189649D01*
X25531Y189502D01*
X25754Y189349D01*
X25973Y189191D01*
X26188Y189028D01*
X26398Y188859D01*
X26605Y188685D01*
X26807Y188506D01*
X27005Y188323D01*
X27198Y188134D01*
X27387Y187941D01*
X27570Y187743D01*
X27749Y187541D01*
X27923Y187334D01*
X28092Y187124D01*
X28255Y186909D01*
X28413Y186690D01*
X28566Y186467D01*
X28713Y186241D01*
X28855Y186011D01*
X28991Y185778D01*
X29121Y185541D01*
X29245Y185302D01*
X29364Y185059D01*
X29476Y184814D01*
X29583Y184566D01*
X29683Y184315D01*
X29777Y184062D01*
X29865Y183806D01*
X29946Y183549D01*
X30022Y183290D01*
X30090Y183029D01*
X30153Y182766D01*
X30209Y182502D01*
X30258Y182237D01*
X30301Y181970D01*
X30337Y181703D01*
X30367Y181434D01*
X30390Y181165D01*
X30407Y180896D01*
X30417Y180626D01*
X30420Y180356D01*
X30417Y180086D01*
X30407Y179816D01*
X30390Y179547D01*
X30367Y179278D01*
X30337Y179009D01*
X30301Y178742D01*
X30258Y178475D01*
X30209Y178210D01*
X30153Y177946D01*
X30090Y177683D01*
X30022Y177422D01*
X29946Y177163D01*
X29865Y176906D01*
X29777Y176650D01*
X29683Y176397D01*
X29583Y176146D01*
X29476Y175898D01*
X29364Y175653D01*
X29245Y175410D01*
X29121Y175171D01*
X28991Y174934D01*
X28855Y174701D01*
X28713Y174471D01*
X28566Y174245D01*
X28413Y174022D01*
X28255Y173803D01*
X28092Y173588D01*
X27923Y173378D01*
X27749Y173171D01*
X27570Y172969D01*
X27387Y172771D01*
X27198Y172578D01*
X27005Y172389D01*
X26807Y172206D01*
X26605Y172027D01*
X26398Y171853D01*
X26188Y171684D01*
X25973Y171521D01*
X25754Y171363D01*
X25531Y171210D01*
X25305Y171063D01*
X25075Y170921D01*
X24842Y170785D01*
X24605Y170655D01*
X24366Y170531D01*
X24123Y170412D01*
X23878Y170300D01*
X23630Y170193D01*
X23379Y170093D01*
X23126Y169999D01*
X22870Y169911D01*
X22613Y169830D01*
X22354Y169754D01*
X22093Y169686D01*
X21830Y169623D01*
X21566Y169567D01*
X21301Y169518D01*
X21034Y169475D01*
X20767Y169439D01*
X20498Y169409D01*
X20229Y169386D01*
X19960Y169369D01*
X19690Y169359D01*
X19420Y169356D01*
X19150Y169359D01*
X18880Y169369D01*
X18611Y169386D01*
X18342Y169409D01*
X18073Y169439D01*
X17806Y169475D01*
X17539Y169518D01*
X17274Y169567D01*
X17010Y169623D01*
X16747Y169686D01*
X16486Y169754D01*
X16227Y169830D01*
X15970Y169911D01*
X15714Y169999D01*
X15461Y170093D01*
X15210Y170193D01*
X14962Y170300D01*
X14717Y170412D01*
X14474Y170531D01*
X14235Y170655D01*
X13998Y170785D01*
X13765Y170921D01*
X13535Y171063D01*
X13309Y171210D01*
X13086Y171363D01*
X12867Y171521D01*
X12652Y171684D01*
X12442Y171853D01*
X12235Y172027D01*
X12033Y172206D01*
X11835Y172389D01*
X11642Y172578D01*
X11453Y172771D01*
X11270Y172969D01*
X11091Y173171D01*
X10917Y173378D01*
X10748Y173588D01*
X10585Y173803D01*
X10427Y174022D01*
X10274Y174245D01*
X10127Y174471D01*
X9985Y174701D01*
X9849Y174934D01*
X9719Y175171D01*
X9595Y175410D01*
X9476Y175653D01*
X9364Y175898D01*
X9257Y176146D01*
X9157Y176397D01*
X9063Y176650D01*
X8975Y176906D01*
X8894Y177163D01*
X8818Y177422D01*
X8750Y177683D01*
X8687Y177946D01*
X8631Y178210D01*
X8582Y178475D01*
X8539Y178742D01*
X8503Y179009D01*
X8473Y179278D01*
X8450Y179547D01*
X8433Y179816D01*
X8423Y180086D01*
X8420Y180356D01*
X926861Y179500D02*
X926864Y179770D01*
X926874Y180040D01*
X926891Y180309D01*
X926914Y180578D01*
X926944Y180847D01*
X926980Y181114D01*
X927023Y181381D01*
X927072Y181646D01*
X927128Y181910D01*
X927191Y182173D01*
X927259Y182434D01*
X927335Y182693D01*
X927416Y182950D01*
X927504Y183206D01*
X927598Y183459D01*
X927698Y183710D01*
X927805Y183958D01*
X927917Y184203D01*
X928036Y184446D01*
X928160Y184685D01*
X928290Y184922D01*
X928426Y185155D01*
X928568Y185385D01*
X928715Y185611D01*
X928868Y185834D01*
X929026Y186053D01*
X929189Y186268D01*
X929358Y186478D01*
X929532Y186685D01*
X929711Y186887D01*
X929894Y187085D01*
X930083Y187278D01*
X930276Y187467D01*
X930474Y187650D01*
X930676Y187829D01*
X930883Y188003D01*
X931093Y188172D01*
X931308Y188335D01*
X931527Y188493D01*
X931750Y188646D01*
X931976Y188793D01*
X932206Y188935D01*
X932439Y189071D01*
X932676Y189201D01*
X932915Y189325D01*
X933158Y189444D01*
X933403Y189556D01*
X933651Y189663D01*
X933902Y189763D01*
X934155Y189857D01*
X934411Y189945D01*
X934668Y190026D01*
X934927Y190102D01*
X935188Y190170D01*
X935451Y190233D01*
X935715Y190289D01*
X935980Y190338D01*
X936247Y190381D01*
X936514Y190417D01*
X936783Y190447D01*
X937052Y190470D01*
X937321Y190487D01*
X937591Y190497D01*
X937861Y190500D01*
X938131Y190497D01*
X938401Y190487D01*
X938670Y190470D01*
X938939Y190447D01*
X939208Y190417D01*
X939475Y190381D01*
X939742Y190338D01*
X940007Y190289D01*
X940271Y190233D01*
X940534Y190170D01*
X940795Y190102D01*
X941054Y190026D01*
X941311Y189945D01*
X941567Y189857D01*
X941820Y189763D01*
X942071Y189663D01*
X942319Y189556D01*
X942564Y189444D01*
X942807Y189325D01*
X943046Y189201D01*
X943283Y189071D01*
X943516Y188935D01*
X943746Y188793D01*
X943972Y188646D01*
X944195Y188493D01*
X944414Y188335D01*
X944629Y188172D01*
X944839Y188003D01*
X945046Y187829D01*
X945248Y187650D01*
X945446Y187467D01*
X945639Y187278D01*
X945828Y187085D01*
X946011Y186887D01*
X946190Y186685D01*
X946364Y186478D01*
X946533Y186268D01*
X946696Y186053D01*
X946854Y185834D01*
X947007Y185611D01*
X947154Y185385D01*
X947296Y185155D01*
X947432Y184922D01*
X947562Y184685D01*
X947686Y184446D01*
X947805Y184203D01*
X947917Y183958D01*
X948024Y183710D01*
X948124Y183459D01*
X948218Y183206D01*
X948306Y182950D01*
X948387Y182693D01*
X948463Y182434D01*
X948531Y182173D01*
X948594Y181910D01*
X948650Y181646D01*
X948699Y181381D01*
X948742Y181114D01*
X948778Y180847D01*
X948808Y180578D01*
X948831Y180309D01*
X948848Y180040D01*
X948858Y179770D01*
X948861Y179500D01*
X948858Y179230D01*
X948848Y178960D01*
X948831Y178691D01*
X948808Y178422D01*
X948778Y178153D01*
X948742Y177886D01*
X948699Y177619D01*
X948650Y177354D01*
X948594Y177090D01*
X948531Y176827D01*
X948463Y176566D01*
X948387Y176307D01*
X948306Y176050D01*
X948218Y175794D01*
X948124Y175541D01*
X948024Y175290D01*
X947917Y175042D01*
X947805Y174797D01*
X947686Y174554D01*
X947562Y174315D01*
X947432Y174078D01*
X947296Y173845D01*
X947154Y173615D01*
X947007Y173389D01*
X946854Y173166D01*
X946696Y172947D01*
X946533Y172732D01*
X946364Y172522D01*
X946190Y172315D01*
X946011Y172113D01*
X945828Y171915D01*
X945639Y171722D01*
X945446Y171533D01*
X945248Y171350D01*
X945046Y171171D01*
X944839Y170997D01*
X944629Y170828D01*
X944414Y170665D01*
X944195Y170507D01*
X943972Y170354D01*
X943746Y170207D01*
X943516Y170065D01*
X943283Y169929D01*
X943046Y169799D01*
X942807Y169675D01*
X942564Y169556D01*
X942319Y169444D01*
X942071Y169337D01*
X941820Y169237D01*
X941567Y169143D01*
X941311Y169055D01*
X941054Y168974D01*
X940795Y168898D01*
X940534Y168830D01*
X940271Y168767D01*
X940007Y168711D01*
X939742Y168662D01*
X939475Y168619D01*
X939208Y168583D01*
X938939Y168553D01*
X938670Y168530D01*
X938401Y168513D01*
X938131Y168503D01*
X937861Y168500D01*
X937591Y168503D01*
X937321Y168513D01*
X937052Y168530D01*
X936783Y168553D01*
X936514Y168583D01*
X936247Y168619D01*
X935980Y168662D01*
X935715Y168711D01*
X935451Y168767D01*
X935188Y168830D01*
X934927Y168898D01*
X934668Y168974D01*
X934411Y169055D01*
X934155Y169143D01*
X933902Y169237D01*
X933651Y169337D01*
X933403Y169444D01*
X933158Y169556D01*
X932915Y169675D01*
X932676Y169799D01*
X932439Y169929D01*
X932206Y170065D01*
X931976Y170207D01*
X931750Y170354D01*
X931527Y170507D01*
X931308Y170665D01*
X931093Y170828D01*
X930883Y170997D01*
X930676Y171171D01*
X930474Y171350D01*
X930276Y171533D01*
X930083Y171722D01*
X929894Y171915D01*
X929711Y172113D01*
X929532Y172315D01*
X929358Y172522D01*
X929189Y172732D01*
X929026Y172947D01*
X928868Y173166D01*
X928715Y173389D01*
X928568Y173615D01*
X928426Y173845D01*
X928290Y174078D01*
X928160Y174315D01*
X928036Y174554D01*
X927917Y174797D01*
X927805Y175042D01*
X927698Y175290D01*
X927598Y175541D01*
X927504Y175794D01*
X927416Y176050D01*
X927335Y176307D01*
X927259Y176566D01*
X927191Y176827D01*
X927128Y177090D01*
X927072Y177354D01*
X927023Y177619D01*
X926980Y177886D01*
X926944Y178153D01*
X926914Y178422D01*
X926891Y178691D01*
X926874Y178960D01*
X926864Y179230D01*
X926861Y179500D01*
X907431Y844793D02*
X907437Y845284D01*
X907455Y845774D01*
X907485Y846264D01*
X907527Y846753D01*
X907581Y847241D01*
X907647Y847728D01*
X907725Y848212D01*
X907815Y848695D01*
X907917Y849175D01*
X908030Y849653D01*
X908155Y850127D01*
X908292Y850599D01*
X908440Y851067D01*
X908600Y851531D01*
X908771Y851991D01*
X908953Y852447D01*
X909147Y852898D01*
X909351Y853344D01*
X909567Y853785D01*
X909793Y854221D01*
X910029Y854651D01*
X910276Y855075D01*
X910534Y855493D01*
X910802Y855904D01*
X911079Y856309D01*
X911367Y856707D01*
X911664Y857098D01*
X911971Y857481D01*
X912287Y857856D01*
X912612Y858224D01*
X912946Y858584D01*
X913289Y858935D01*
X913640Y859278D01*
X914000Y859612D01*
X914368Y859937D01*
X914743Y860253D01*
X915126Y860560D01*
X915517Y860857D01*
X915915Y861145D01*
X916320Y861422D01*
X916731Y861690D01*
X917149Y861948D01*
X917573Y862195D01*
X918003Y862431D01*
X918439Y862657D01*
X918880Y862873D01*
X919326Y863077D01*
X919777Y863271D01*
X920233Y863453D01*
X920693Y863624D01*
X921157Y863784D01*
X921625Y863932D01*
X922097Y864069D01*
X922571Y864194D01*
X923049Y864307D01*
X923529Y864409D01*
X924012Y864499D01*
X924496Y864577D01*
X924983Y864643D01*
X925471Y864697D01*
X925960Y864739D01*
X926450Y864769D01*
X926940Y864787D01*
X927431Y864793D01*
X927922Y864787D01*
X928412Y864769D01*
X928902Y864739D01*
X929391Y864697D01*
X929879Y864643D01*
X930366Y864577D01*
X930850Y864499D01*
X931333Y864409D01*
X931813Y864307D01*
X932291Y864194D01*
X932765Y864069D01*
X933237Y863932D01*
X933705Y863784D01*
X934169Y863624D01*
X934629Y863453D01*
X935085Y863271D01*
X935536Y863077D01*
X935982Y862873D01*
X936423Y862657D01*
X936859Y862431D01*
X937289Y862195D01*
X937713Y861948D01*
X938131Y861690D01*
X938542Y861422D01*
X938947Y861145D01*
X939345Y860857D01*
X939736Y860560D01*
X940119Y860253D01*
X940494Y859937D01*
X940862Y859612D01*
X941222Y859278D01*
X941573Y858935D01*
X941916Y858584D01*
X942250Y858224D01*
X942575Y857856D01*
X942891Y857481D01*
X943198Y857098D01*
X943495Y856707D01*
X943783Y856309D01*
X944060Y855904D01*
X944328Y855493D01*
X944586Y855075D01*
X944833Y854651D01*
X945069Y854221D01*
X945295Y853785D01*
X945511Y853344D01*
X945715Y852898D01*
X945909Y852447D01*
X946091Y851991D01*
X946262Y851531D01*
X946422Y851067D01*
X946570Y850599D01*
X946707Y850127D01*
X946832Y849653D01*
X946945Y849175D01*
X947047Y848695D01*
X947137Y848212D01*
X947215Y847728D01*
X947281Y847241D01*
X947335Y846753D01*
X947377Y846264D01*
X947407Y845774D01*
X947425Y845284D01*
X947431Y844793D01*
X947425Y844302D01*
X947407Y843812D01*
X947377Y843322D01*
X947335Y842833D01*
X947281Y842345D01*
X947215Y841858D01*
X947137Y841374D01*
X947047Y840891D01*
X946945Y840411D01*
X946832Y839933D01*
X946707Y839459D01*
X946570Y838987D01*
X946422Y838519D01*
X946262Y838055D01*
X946091Y837595D01*
X945909Y837139D01*
X945715Y836688D01*
X945511Y836242D01*
X945295Y835801D01*
X945069Y835365D01*
X944833Y834935D01*
X944586Y834511D01*
X944328Y834093D01*
X944060Y833682D01*
X943783Y833277D01*
X943495Y832879D01*
X943198Y832488D01*
X942891Y832105D01*
X942575Y831730D01*
X942250Y831362D01*
X941916Y831002D01*
X941573Y830651D01*
X941222Y830308D01*
X940862Y829974D01*
X940494Y829649D01*
X940119Y829333D01*
X939736Y829026D01*
X939345Y828729D01*
X938947Y828441D01*
X938542Y828164D01*
X938131Y827896D01*
X937713Y827638D01*
X937289Y827391D01*
X936859Y827155D01*
X936423Y826929D01*
X935982Y826713D01*
X935536Y826509D01*
X935085Y826315D01*
X934629Y826133D01*
X934169Y825962D01*
X933705Y825802D01*
X933237Y825654D01*
X932765Y825517D01*
X932291Y825392D01*
X931813Y825279D01*
X931333Y825177D01*
X930850Y825087D01*
X930366Y825009D01*
X929879Y824943D01*
X929391Y824889D01*
X928902Y824847D01*
X928412Y824817D01*
X927922Y824799D01*
X927431Y824793D01*
X926940Y824799D01*
X926450Y824817D01*
X925960Y824847D01*
X925471Y824889D01*
X924983Y824943D01*
X924496Y825009D01*
X924012Y825087D01*
X923529Y825177D01*
X923049Y825279D01*
X922571Y825392D01*
X922097Y825517D01*
X921625Y825654D01*
X921157Y825802D01*
X920693Y825962D01*
X920233Y826133D01*
X919777Y826315D01*
X919326Y826509D01*
X918880Y826713D01*
X918439Y826929D01*
X918003Y827155D01*
X917573Y827391D01*
X917149Y827638D01*
X916731Y827896D01*
X916320Y828164D01*
X915915Y828441D01*
X915517Y828729D01*
X915126Y829026D01*
X914743Y829333D01*
X914368Y829649D01*
X914000Y829974D01*
X913640Y830308D01*
X913289Y830651D01*
X912946Y831002D01*
X912612Y831362D01*
X912287Y831730D01*
X911971Y832105D01*
X911664Y832488D01*
X911367Y832879D01*
X911079Y833277D01*
X910802Y833682D01*
X910534Y834093D01*
X910276Y834511D01*
X910029Y834935D01*
X909793Y835365D01*
X909567Y835801D01*
X909351Y836242D01*
X909147Y836688D01*
X908953Y837139D01*
X908771Y837595D01*
X908600Y838055D01*
X908440Y838519D01*
X908292Y838987D01*
X908155Y839459D01*
X908030Y839933D01*
X907917Y840411D01*
X907815Y840891D01*
X907725Y841374D01*
X907647Y841858D01*
X907581Y842345D01*
X907527Y842833D01*
X907485Y843322D01*
X907455Y843812D01*
X907437Y844302D01*
X907431Y844793D01*
X128378Y16970D02*
X128381Y17240D01*
X128391Y17510D01*
X128408Y17779D01*
X128431Y18048D01*
X128461Y18317D01*
X128497Y18584D01*
X128540Y18851D01*
X128589Y19116D01*
X128645Y19380D01*
X128708Y19643D01*
X128776Y19904D01*
X128852Y20163D01*
X128933Y20420D01*
X129021Y20676D01*
X129115Y20929D01*
X129215Y21180D01*
X129322Y21428D01*
X129434Y21673D01*
X129553Y21916D01*
X129677Y22155D01*
X129807Y22392D01*
X129943Y22625D01*
X130085Y22855D01*
X130232Y23081D01*
X130385Y23304D01*
X130543Y23523D01*
X130706Y23738D01*
X130875Y23948D01*
X131049Y24155D01*
X131228Y24357D01*
X131411Y24555D01*
X131600Y24748D01*
X131793Y24937D01*
X131991Y25120D01*
X132193Y25299D01*
X132400Y25473D01*
X132610Y25642D01*
X132825Y25805D01*
X133044Y25963D01*
X133267Y26116D01*
X133493Y26263D01*
X133723Y26405D01*
X133956Y26541D01*
X134193Y26671D01*
X134432Y26795D01*
X134675Y26914D01*
X134920Y27026D01*
X135168Y27133D01*
X135419Y27233D01*
X135672Y27327D01*
X135928Y27415D01*
X136185Y27496D01*
X136444Y27572D01*
X136705Y27640D01*
X136968Y27703D01*
X137232Y27759D01*
X137497Y27808D01*
X137764Y27851D01*
X138031Y27887D01*
X138300Y27917D01*
X138569Y27940D01*
X138838Y27957D01*
X139108Y27967D01*
X139378Y27970D01*
X139648Y27967D01*
X139918Y27957D01*
X140187Y27940D01*
X140456Y27917D01*
X140725Y27887D01*
X140992Y27851D01*
X141259Y27808D01*
X141524Y27759D01*
X141788Y27703D01*
X142051Y27640D01*
X142312Y27572D01*
X142571Y27496D01*
X142828Y27415D01*
X143084Y27327D01*
X143337Y27233D01*
X143588Y27133D01*
X143836Y27026D01*
X144081Y26914D01*
X144324Y26795D01*
X144563Y26671D01*
X144800Y26541D01*
X145033Y26405D01*
X145263Y26263D01*
X145489Y26116D01*
X145712Y25963D01*
X145931Y25805D01*
X146146Y25642D01*
X146356Y25473D01*
X146563Y25299D01*
X146765Y25120D01*
X146963Y24937D01*
X147156Y24748D01*
X147345Y24555D01*
X147528Y24357D01*
X147707Y24155D01*
X147881Y23948D01*
X148050Y23738D01*
X148213Y23523D01*
X148371Y23304D01*
X148524Y23081D01*
X148671Y22855D01*
X148813Y22625D01*
X148949Y22392D01*
X149079Y22155D01*
X149203Y21916D01*
X149322Y21673D01*
X149434Y21428D01*
X149541Y21180D01*
X149641Y20929D01*
X149735Y20676D01*
X149823Y20420D01*
X149904Y20163D01*
X149980Y19904D01*
X150048Y19643D01*
X150111Y19380D01*
X150167Y19116D01*
X150216Y18851D01*
X150259Y18584D01*
X150295Y18317D01*
X150325Y18048D01*
X150348Y17779D01*
X150365Y17510D01*
X150375Y17240D01*
X150378Y16970D01*
X150375Y16700D01*
X150365Y16430D01*
X150348Y16161D01*
X150325Y15892D01*
X150295Y15623D01*
X150259Y15356D01*
X150216Y15089D01*
X150167Y14824D01*
X150111Y14560D01*
X150048Y14297D01*
X149980Y14036D01*
X149904Y13777D01*
X149823Y13520D01*
X149735Y13264D01*
X149641Y13011D01*
X149541Y12760D01*
X149434Y12512D01*
X149322Y12267D01*
X149203Y12024D01*
X149079Y11785D01*
X148949Y11548D01*
X148813Y11315D01*
X148671Y11085D01*
X148524Y10859D01*
X148371Y10636D01*
X148213Y10417D01*
X148050Y10202D01*
X147881Y9992D01*
X147707Y9785D01*
X147528Y9583D01*
X147345Y9385D01*
X147156Y9192D01*
X146963Y9003D01*
X146765Y8820D01*
X146563Y8641D01*
X146356Y8467D01*
X146146Y8298D01*
X145931Y8135D01*
X145712Y7977D01*
X145489Y7824D01*
X145263Y7677D01*
X145033Y7535D01*
X144800Y7399D01*
X144563Y7269D01*
X144324Y7145D01*
X144081Y7026D01*
X143836Y6914D01*
X143588Y6807D01*
X143337Y6707D01*
X143084Y6613D01*
X142828Y6525D01*
X142571Y6444D01*
X142312Y6368D01*
X142051Y6300D01*
X141788Y6237D01*
X141524Y6181D01*
X141259Y6132D01*
X140992Y6089D01*
X140725Y6053D01*
X140456Y6023D01*
X140187Y6000D01*
X139918Y5983D01*
X139648Y5973D01*
X139378Y5970D01*
X139108Y5973D01*
X138838Y5983D01*
X138569Y6000D01*
X138300Y6023D01*
X138031Y6053D01*
X137764Y6089D01*
X137497Y6132D01*
X137232Y6181D01*
X136968Y6237D01*
X136705Y6300D01*
X136444Y6368D01*
X136185Y6444D01*
X135928Y6525D01*
X135672Y6613D01*
X135419Y6707D01*
X135168Y6807D01*
X134920Y6914D01*
X134675Y7026D01*
X134432Y7145D01*
X134193Y7269D01*
X133956Y7399D01*
X133723Y7535D01*
X133493Y7677D01*
X133267Y7824D01*
X133044Y7977D01*
X132825Y8135D01*
X132610Y8298D01*
X132400Y8467D01*
X132193Y8641D01*
X131991Y8820D01*
X131793Y9003D01*
X131600Y9192D01*
X131411Y9385D01*
X131228Y9583D01*
X131049Y9785D01*
X130875Y9992D01*
X130706Y10202D01*
X130543Y10417D01*
X130385Y10636D01*
X130232Y10859D01*
X130085Y11085D01*
X129943Y11315D01*
X129807Y11548D01*
X129677Y11785D01*
X129553Y12024D01*
X129434Y12267D01*
X129322Y12512D01*
X129215Y12760D01*
X129115Y13011D01*
X129021Y13264D01*
X128933Y13520D01*
X128852Y13777D01*
X128776Y14036D01*
X128708Y14297D01*
X128645Y14560D01*
X128589Y14824D01*
X128540Y15089D01*
X128497Y15356D01*
X128461Y15623D01*
X128431Y15892D01*
X128408Y16161D01*
X128391Y16430D01*
X128381Y16700D01*
X128378Y16970D01*
X152735Y922706D02*
X152741Y923197D01*
X152759Y923687D01*
X152789Y924177D01*
X152831Y924666D01*
X152885Y925154D01*
X152951Y925641D01*
X153029Y926125D01*
X153119Y926608D01*
X153221Y927088D01*
X153334Y927566D01*
X153459Y928040D01*
X153596Y928512D01*
X153744Y928980D01*
X153904Y929444D01*
X154075Y929904D01*
X154257Y930360D01*
X154451Y930811D01*
X154655Y931257D01*
X154871Y931698D01*
X155097Y932134D01*
X155333Y932564D01*
X155580Y932988D01*
X155838Y933406D01*
X156106Y933817D01*
X156383Y934222D01*
X156671Y934620D01*
X156968Y935011D01*
X157275Y935394D01*
X157591Y935769D01*
X157916Y936137D01*
X158250Y936497D01*
X158593Y936848D01*
X158944Y937191D01*
X159304Y937525D01*
X159672Y937850D01*
X160047Y938166D01*
X160430Y938473D01*
X160821Y938770D01*
X161219Y939058D01*
X161624Y939335D01*
X162035Y939603D01*
X162453Y939861D01*
X162877Y940108D01*
X163307Y940344D01*
X163743Y940570D01*
X164184Y940786D01*
X164630Y940990D01*
X165081Y941184D01*
X165537Y941366D01*
X165997Y941537D01*
X166461Y941697D01*
X166929Y941845D01*
X167401Y941982D01*
X167875Y942107D01*
X168353Y942220D01*
X168833Y942322D01*
X169316Y942412D01*
X169800Y942490D01*
X170287Y942556D01*
X170775Y942610D01*
X171264Y942652D01*
X171754Y942682D01*
X172244Y942700D01*
X172735Y942706D01*
X173226Y942700D01*
X173716Y942682D01*
X174206Y942652D01*
X174695Y942610D01*
X175183Y942556D01*
X175670Y942490D01*
X176154Y942412D01*
X176637Y942322D01*
X177117Y942220D01*
X177595Y942107D01*
X178069Y941982D01*
X178541Y941845D01*
X179009Y941697D01*
X179473Y941537D01*
X179933Y941366D01*
X180389Y941184D01*
X180840Y940990D01*
X181286Y940786D01*
X181727Y940570D01*
X182163Y940344D01*
X182593Y940108D01*
X183017Y939861D01*
X183435Y939603D01*
X183846Y939335D01*
X184251Y939058D01*
X184649Y938770D01*
X185040Y938473D01*
X185423Y938166D01*
X185798Y937850D01*
X186166Y937525D01*
X186526Y937191D01*
X186877Y936848D01*
X187220Y936497D01*
X187554Y936137D01*
X187879Y935769D01*
X188195Y935394D01*
X188502Y935011D01*
X188799Y934620D01*
X189087Y934222D01*
X189364Y933817D01*
X189632Y933406D01*
X189890Y932988D01*
X190137Y932564D01*
X190373Y932134D01*
X190599Y931698D01*
X190815Y931257D01*
X191019Y930811D01*
X191213Y930360D01*
X191395Y929904D01*
X191566Y929444D01*
X191726Y928980D01*
X191874Y928512D01*
X192011Y928040D01*
X192136Y927566D01*
X192249Y927088D01*
X192351Y926608D01*
X192441Y926125D01*
X192519Y925641D01*
X192585Y925154D01*
X192639Y924666D01*
X192681Y924177D01*
X192711Y923687D01*
X192729Y923197D01*
X192735Y922706D01*
X192729Y922215D01*
X192711Y921725D01*
X192681Y921235D01*
X192639Y920746D01*
X192585Y920258D01*
X192519Y919771D01*
X192441Y919287D01*
X192351Y918804D01*
X192249Y918324D01*
X192136Y917846D01*
X192011Y917372D01*
X191874Y916900D01*
X191726Y916432D01*
X191566Y915968D01*
X191395Y915508D01*
X191213Y915052D01*
X191019Y914601D01*
X190815Y914155D01*
X190599Y913714D01*
X190373Y913278D01*
X190137Y912848D01*
X189890Y912424D01*
X189632Y912006D01*
X189364Y911595D01*
X189087Y911190D01*
X188799Y910792D01*
X188502Y910401D01*
X188195Y910018D01*
X187879Y909643D01*
X187554Y909275D01*
X187220Y908915D01*
X186877Y908564D01*
X186526Y908221D01*
X186166Y907887D01*
X185798Y907562D01*
X185423Y907246D01*
X185040Y906939D01*
X184649Y906642D01*
X184251Y906354D01*
X183846Y906077D01*
X183435Y905809D01*
X183017Y905551D01*
X182593Y905304D01*
X182163Y905068D01*
X181727Y904842D01*
X181286Y904626D01*
X180840Y904422D01*
X180389Y904228D01*
X179933Y904046D01*
X179473Y903875D01*
X179009Y903715D01*
X178541Y903567D01*
X178069Y903430D01*
X177595Y903305D01*
X177117Y903192D01*
X176637Y903090D01*
X176154Y903000D01*
X175670Y902922D01*
X175183Y902856D01*
X174695Y902802D01*
X174206Y902760D01*
X173716Y902730D01*
X173226Y902712D01*
X172735Y902706D01*
X172244Y902712D01*
X171754Y902730D01*
X171264Y902760D01*
X170775Y902802D01*
X170287Y902856D01*
X169800Y902922D01*
X169316Y903000D01*
X168833Y903090D01*
X168353Y903192D01*
X167875Y903305D01*
X167401Y903430D01*
X166929Y903567D01*
X166461Y903715D01*
X165997Y903875D01*
X165537Y904046D01*
X165081Y904228D01*
X164630Y904422D01*
X164184Y904626D01*
X163743Y904842D01*
X163307Y905068D01*
X162877Y905304D01*
X162453Y905551D01*
X162035Y905809D01*
X161624Y906077D01*
X161219Y906354D01*
X160821Y906642D01*
X160430Y906939D01*
X160047Y907246D01*
X159672Y907562D01*
X159304Y907887D01*
X158944Y908221D01*
X158593Y908564D01*
X158250Y908915D01*
X157916Y909275D01*
X157591Y909643D01*
X157275Y910018D01*
X156968Y910401D01*
X156671Y910792D01*
X156383Y911190D01*
X156106Y911595D01*
X155838Y912006D01*
X155580Y912424D01*
X155333Y912848D01*
X155097Y913278D01*
X154871Y913714D01*
X154655Y914155D01*
X154451Y914601D01*
X154257Y915052D01*
X154075Y915508D01*
X153904Y915968D01*
X153744Y916432D01*
X153596Y916900D01*
X153459Y917372D01*
X153334Y917846D01*
X153221Y918324D01*
X153119Y918804D01*
X153029Y919287D01*
X152951Y919771D01*
X152885Y920258D01*
X152831Y920746D01*
X152789Y921235D01*
X152759Y921725D01*
X152741Y922215D01*
X152735Y922706D01*
X842078Y484503D02*
X842081Y484724D01*
X842089Y484945D01*
X842102Y485165D01*
X842121Y485385D01*
X842146Y485605D01*
X842175Y485824D01*
X842211Y486042D01*
X842251Y486259D01*
X842297Y486475D01*
X842348Y486690D01*
X842404Y486903D01*
X842466Y487116D01*
X842532Y487326D01*
X842604Y487535D01*
X842681Y487742D01*
X842763Y487947D01*
X842850Y488150D01*
X842942Y488351D01*
X843039Y488550D01*
X843141Y488746D01*
X843247Y488939D01*
X843358Y489130D01*
X843474Y489318D01*
X843595Y489503D01*
X843720Y489685D01*
X843849Y489864D01*
X843983Y490040D01*
X844121Y490213D01*
X844263Y490382D01*
X844409Y490547D01*
X844560Y490709D01*
X844714Y490867D01*
X844872Y491021D01*
X845034Y491172D01*
X845199Y491318D01*
X845368Y491460D01*
X845541Y491598D01*
X845717Y491732D01*
X845896Y491861D01*
X846078Y491986D01*
X846263Y492107D01*
X846451Y492223D01*
X846642Y492334D01*
X846835Y492440D01*
X847031Y492542D01*
X847230Y492639D01*
X847431Y492731D01*
X847634Y492818D01*
X847839Y492900D01*
X848046Y492977D01*
X848255Y493049D01*
X848465Y493115D01*
X848678Y493177D01*
X848891Y493233D01*
X849106Y493284D01*
X849322Y493330D01*
X849539Y493370D01*
X849757Y493406D01*
X849976Y493435D01*
X850196Y493460D01*
X850416Y493479D01*
X850636Y493492D01*
X850857Y493500D01*
X851078Y493503D01*
X851299Y493500D01*
X851520Y493492D01*
X851740Y493479D01*
X851960Y493460D01*
X852180Y493435D01*
X852399Y493406D01*
X852617Y493370D01*
X852834Y493330D01*
X853050Y493284D01*
X853265Y493233D01*
X853478Y493177D01*
X853691Y493115D01*
X853901Y493049D01*
X854110Y492977D01*
X854317Y492900D01*
X854522Y492818D01*
X854725Y492731D01*
X854926Y492639D01*
X855125Y492542D01*
X855321Y492440D01*
X855514Y492334D01*
X855705Y492223D01*
X855893Y492107D01*
X856078Y491986D01*
X856260Y491861D01*
X856439Y491732D01*
X856615Y491598D01*
X856788Y491460D01*
X856957Y491318D01*
X857122Y491172D01*
X857284Y491021D01*
X857442Y490867D01*
X857596Y490709D01*
X857747Y490547D01*
X857893Y490382D01*
X858035Y490213D01*
X858173Y490040D01*
X858307Y489864D01*
X858436Y489685D01*
X858561Y489503D01*
X858682Y489318D01*
X858798Y489130D01*
X858909Y488939D01*
X859015Y488746D01*
X859117Y488550D01*
X859214Y488351D01*
X859306Y488150D01*
X859393Y487947D01*
X859475Y487742D01*
X859552Y487535D01*
X859624Y487326D01*
X859690Y487116D01*
X859752Y486903D01*
X859808Y486690D01*
X859859Y486475D01*
X859905Y486259D01*
X859945Y486042D01*
X859981Y485824D01*
X860010Y485605D01*
X860035Y485385D01*
X860054Y485165D01*
X860067Y484945D01*
X860075Y484724D01*
X860078Y484503D01*
X860075Y484282D01*
X860067Y484061D01*
X860054Y483841D01*
X860035Y483621D01*
X860010Y483401D01*
X859981Y483182D01*
X859945Y482964D01*
X859905Y482747D01*
X859859Y482531D01*
X859808Y482316D01*
X859752Y482103D01*
X859690Y481890D01*
X859624Y481680D01*
X859552Y481471D01*
X859475Y481264D01*
X859393Y481059D01*
X859306Y480856D01*
X859214Y480655D01*
X859117Y480456D01*
X859015Y480260D01*
X858909Y480067D01*
X858798Y479876D01*
X858682Y479688D01*
X858561Y479503D01*
X858436Y479321D01*
X858307Y479142D01*
X858173Y478966D01*
X858035Y478793D01*
X857893Y478624D01*
X857747Y478459D01*
X857596Y478297D01*
X857442Y478139D01*
X857284Y477985D01*
X857122Y477834D01*
X856957Y477688D01*
X856788Y477546D01*
X856615Y477408D01*
X856439Y477274D01*
X856260Y477145D01*
X856078Y477020D01*
X855893Y476899D01*
X855705Y476783D01*
X855514Y476672D01*
X855321Y476566D01*
X855125Y476464D01*
X854926Y476367D01*
X854725Y476275D01*
X854522Y476188D01*
X854317Y476106D01*
X854110Y476029D01*
X853901Y475957D01*
X853691Y475891D01*
X853478Y475829D01*
X853265Y475773D01*
X853050Y475722D01*
X852834Y475676D01*
X852617Y475636D01*
X852399Y475600D01*
X852180Y475571D01*
X851960Y475546D01*
X851740Y475527D01*
X851520Y475514D01*
X851299Y475506D01*
X851078Y475503D01*
X850857Y475506D01*
X850636Y475514D01*
X850416Y475527D01*
X850196Y475546D01*
X849976Y475571D01*
X849757Y475600D01*
X849539Y475636D01*
X849322Y475676D01*
X849106Y475722D01*
X848891Y475773D01*
X848678Y475829D01*
X848465Y475891D01*
X848255Y475957D01*
X848046Y476029D01*
X847839Y476106D01*
X847634Y476188D01*
X847431Y476275D01*
X847230Y476367D01*
X847031Y476464D01*
X846835Y476566D01*
X846642Y476672D01*
X846451Y476783D01*
X846263Y476899D01*
X846078Y477020D01*
X845896Y477145D01*
X845717Y477274D01*
X845541Y477408D01*
X845368Y477546D01*
X845199Y477688D01*
X845034Y477834D01*
X844872Y477985D01*
X844714Y478139D01*
X844560Y478297D01*
X844409Y478459D01*
X844263Y478624D01*
X844121Y478793D01*
X843983Y478966D01*
X843849Y479142D01*
X843720Y479321D01*
X843595Y479503D01*
X843474Y479688D01*
X843358Y479876D01*
X843247Y480067D01*
X843141Y480260D01*
X843039Y480456D01*
X842942Y480655D01*
X842850Y480856D01*
X842763Y481059D01*
X842681Y481264D01*
X842604Y481471D01*
X842532Y481680D01*
X842466Y481890D01*
X842404Y482103D01*
X842348Y482316D01*
X842297Y482531D01*
X842251Y482747D01*
X842211Y482964D01*
X842175Y483182D01*
X842146Y483401D01*
X842121Y483621D01*
X842102Y483841D01*
X842089Y484061D01*
X842081Y484282D01*
X842078Y484503D01*
X8148Y844879D02*
X8154Y845370D01*
X8172Y845860D01*
X8202Y846350D01*
X8244Y846839D01*
X8298Y847327D01*
X8364Y847814D01*
X8442Y848298D01*
X8532Y848781D01*
X8634Y849261D01*
X8747Y849739D01*
X8872Y850213D01*
X9009Y850685D01*
X9157Y851153D01*
X9317Y851617D01*
X9488Y852077D01*
X9670Y852533D01*
X9864Y852984D01*
X10068Y853430D01*
X10284Y853871D01*
X10510Y854307D01*
X10746Y854737D01*
X10993Y855161D01*
X11251Y855579D01*
X11519Y855990D01*
X11796Y856395D01*
X12084Y856793D01*
X12381Y857184D01*
X12688Y857567D01*
X13004Y857942D01*
X13329Y858310D01*
X13663Y858670D01*
X14006Y859021D01*
X14357Y859364D01*
X14717Y859698D01*
X15085Y860023D01*
X15460Y860339D01*
X15843Y860646D01*
X16234Y860943D01*
X16632Y861231D01*
X17037Y861508D01*
X17448Y861776D01*
X17866Y862034D01*
X18290Y862281D01*
X18720Y862517D01*
X19156Y862743D01*
X19597Y862959D01*
X20043Y863163D01*
X20494Y863357D01*
X20950Y863539D01*
X21410Y863710D01*
X21874Y863870D01*
X22342Y864018D01*
X22814Y864155D01*
X23288Y864280D01*
X23766Y864393D01*
X24246Y864495D01*
X24729Y864585D01*
X25213Y864663D01*
X25700Y864729D01*
X26188Y864783D01*
X26677Y864825D01*
X27167Y864855D01*
X27657Y864873D01*
X28148Y864879D01*
X28639Y864873D01*
X29129Y864855D01*
X29619Y864825D01*
X30108Y864783D01*
X30596Y864729D01*
X31083Y864663D01*
X31567Y864585D01*
X32050Y864495D01*
X32530Y864393D01*
X33008Y864280D01*
X33482Y864155D01*
X33954Y864018D01*
X34422Y863870D01*
X34886Y863710D01*
X35346Y863539D01*
X35802Y863357D01*
X36253Y863163D01*
X36699Y862959D01*
X37140Y862743D01*
X37576Y862517D01*
X38006Y862281D01*
X38430Y862034D01*
X38848Y861776D01*
X39259Y861508D01*
X39664Y861231D01*
X40062Y860943D01*
X40453Y860646D01*
X40836Y860339D01*
X41211Y860023D01*
X41579Y859698D01*
X41939Y859364D01*
X42290Y859021D01*
X42633Y858670D01*
X42967Y858310D01*
X43292Y857942D01*
X43608Y857567D01*
X43915Y857184D01*
X44212Y856793D01*
X44500Y856395D01*
X44777Y855990D01*
X45045Y855579D01*
X45303Y855161D01*
X45550Y854737D01*
X45786Y854307D01*
X46012Y853871D01*
X46228Y853430D01*
X46432Y852984D01*
X46626Y852533D01*
X46808Y852077D01*
X46979Y851617D01*
X47139Y851153D01*
X47287Y850685D01*
X47424Y850213D01*
X47549Y849739D01*
X47662Y849261D01*
X47764Y848781D01*
X47854Y848298D01*
X47932Y847814D01*
X47998Y847327D01*
X48052Y846839D01*
X48094Y846350D01*
X48124Y845860D01*
X48142Y845370D01*
X48148Y844879D01*
X48142Y844388D01*
X48124Y843898D01*
X48094Y843408D01*
X48052Y842919D01*
X47998Y842431D01*
X47932Y841944D01*
X47854Y841460D01*
X47764Y840977D01*
X47662Y840497D01*
X47549Y840019D01*
X47424Y839545D01*
X47287Y839073D01*
X47139Y838605D01*
X46979Y838141D01*
X46808Y837681D01*
X46626Y837225D01*
X46432Y836774D01*
X46228Y836328D01*
X46012Y835887D01*
X45786Y835451D01*
X45550Y835021D01*
X45303Y834597D01*
X45045Y834179D01*
X44777Y833768D01*
X44500Y833363D01*
X44212Y832965D01*
X43915Y832574D01*
X43608Y832191D01*
X43292Y831816D01*
X42967Y831448D01*
X42633Y831088D01*
X42290Y830737D01*
X41939Y830394D01*
X41579Y830060D01*
X41211Y829735D01*
X40836Y829419D01*
X40453Y829112D01*
X40062Y828815D01*
X39664Y828527D01*
X39259Y828250D01*
X38848Y827982D01*
X38430Y827724D01*
X38006Y827477D01*
X37576Y827241D01*
X37140Y827015D01*
X36699Y826799D01*
X36253Y826595D01*
X35802Y826401D01*
X35346Y826219D01*
X34886Y826048D01*
X34422Y825888D01*
X33954Y825740D01*
X33482Y825603D01*
X33008Y825478D01*
X32530Y825365D01*
X32050Y825263D01*
X31567Y825173D01*
X31083Y825095D01*
X30596Y825029D01*
X30108Y824975D01*
X29619Y824933D01*
X29129Y824903D01*
X28639Y824885D01*
X28148Y824879D01*
X27657Y824885D01*
X27167Y824903D01*
X26677Y824933D01*
X26188Y824975D01*
X25700Y825029D01*
X25213Y825095D01*
X24729Y825173D01*
X24246Y825263D01*
X23766Y825365D01*
X23288Y825478D01*
X22814Y825603D01*
X22342Y825740D01*
X21874Y825888D01*
X21410Y826048D01*
X20950Y826219D01*
X20494Y826401D01*
X20043Y826595D01*
X19597Y826799D01*
X19156Y827015D01*
X18720Y827241D01*
X18290Y827477D01*
X17866Y827724D01*
X17448Y827982D01*
X17037Y828250D01*
X16632Y828527D01*
X16234Y828815D01*
X15843Y829112D01*
X15460Y829419D01*
X15085Y829735D01*
X14717Y830060D01*
X14357Y830394D01*
X14006Y830737D01*
X13663Y831088D01*
X13329Y831448D01*
X13004Y831816D01*
X12688Y832191D01*
X12381Y832574D01*
X12084Y832965D01*
X11796Y833363D01*
X11519Y833768D01*
X11251Y834179D01*
X10993Y834597D01*
X10746Y835021D01*
X10510Y835451D01*
X10284Y835887D01*
X10068Y836328D01*
X9864Y836774D01*
X9670Y837225D01*
X9488Y837681D01*
X9317Y838141D01*
X9157Y838605D01*
X9009Y839073D01*
X8872Y839545D01*
X8747Y840019D01*
X8634Y840497D01*
X8532Y840977D01*
X8442Y841460D01*
X8364Y841944D01*
X8298Y842431D01*
X8244Y842919D01*
X8202Y843408D01*
X8172Y843898D01*
X8154Y844388D01*
X8148Y844879D01*
X918886Y470188D02*
X918889Y470458D01*
X918899Y470728D01*
X918916Y470997D01*
X918939Y471266D01*
X918969Y471535D01*
X919005Y471802D01*
X919048Y472069D01*
X919097Y472334D01*
X919153Y472598D01*
X919216Y472861D01*
X919284Y473122D01*
X919360Y473381D01*
X919441Y473638D01*
X919529Y473894D01*
X919623Y474147D01*
X919723Y474398D01*
X919830Y474646D01*
X919942Y474891D01*
X920061Y475134D01*
X920185Y475373D01*
X920315Y475610D01*
X920451Y475843D01*
X920593Y476073D01*
X920740Y476299D01*
X920893Y476522D01*
X921051Y476741D01*
X921214Y476956D01*
X921383Y477166D01*
X921557Y477373D01*
X921736Y477575D01*
X921919Y477773D01*
X922108Y477966D01*
X922301Y478155D01*
X922499Y478338D01*
X922701Y478517D01*
X922908Y478691D01*
X923118Y478860D01*
X923333Y479023D01*
X923552Y479181D01*
X923775Y479334D01*
X924001Y479481D01*
X924231Y479623D01*
X924464Y479759D01*
X924701Y479889D01*
X924940Y480013D01*
X925183Y480132D01*
X925428Y480244D01*
X925676Y480351D01*
X925927Y480451D01*
X926180Y480545D01*
X926436Y480633D01*
X926693Y480714D01*
X926952Y480790D01*
X927213Y480858D01*
X927476Y480921D01*
X927740Y480977D01*
X928005Y481026D01*
X928272Y481069D01*
X928539Y481105D01*
X928808Y481135D01*
X929077Y481158D01*
X929346Y481175D01*
X929616Y481185D01*
X929886Y481188D01*
X930156Y481185D01*
X930426Y481175D01*
X930695Y481158D01*
X930964Y481135D01*
X931233Y481105D01*
X931500Y481069D01*
X931767Y481026D01*
X932032Y480977D01*
X932296Y480921D01*
X932559Y480858D01*
X932820Y480790D01*
X933079Y480714D01*
X933336Y480633D01*
X933592Y480545D01*
X933845Y480451D01*
X934096Y480351D01*
X934344Y480244D01*
X934589Y480132D01*
X934832Y480013D01*
X935071Y479889D01*
X935308Y479759D01*
X935541Y479623D01*
X935771Y479481D01*
X935997Y479334D01*
X936220Y479181D01*
X936439Y479023D01*
X936654Y478860D01*
X936864Y478691D01*
X937071Y478517D01*
X937273Y478338D01*
X937471Y478155D01*
X937664Y477966D01*
X937853Y477773D01*
X938036Y477575D01*
X938215Y477373D01*
X938389Y477166D01*
X938558Y476956D01*
X938721Y476741D01*
X938879Y476522D01*
X939032Y476299D01*
X939179Y476073D01*
X939321Y475843D01*
X939457Y475610D01*
X939587Y475373D01*
X939711Y475134D01*
X939830Y474891D01*
X939942Y474646D01*
X940049Y474398D01*
X940149Y474147D01*
X940243Y473894D01*
X940331Y473638D01*
X940412Y473381D01*
X940488Y473122D01*
X940556Y472861D01*
X940619Y472598D01*
X940675Y472334D01*
X940724Y472069D01*
X940767Y471802D01*
X940803Y471535D01*
X940833Y471266D01*
X940856Y470997D01*
X940873Y470728D01*
X940883Y470458D01*
X940886Y470188D01*
X940883Y469918D01*
X940873Y469648D01*
X940856Y469379D01*
X940833Y469110D01*
X940803Y468841D01*
X940767Y468574D01*
X940724Y468307D01*
X940675Y468042D01*
X940619Y467778D01*
X940556Y467515D01*
X940488Y467254D01*
X940412Y466995D01*
X940331Y466738D01*
X940243Y466482D01*
X940149Y466229D01*
X940049Y465978D01*
X939942Y465730D01*
X939830Y465485D01*
X939711Y465242D01*
X939587Y465003D01*
X939457Y464766D01*
X939321Y464533D01*
X939179Y464303D01*
X939032Y464077D01*
X938879Y463854D01*
X938721Y463635D01*
X938558Y463420D01*
X938389Y463210D01*
X938215Y463003D01*
X938036Y462801D01*
X937853Y462603D01*
X937664Y462410D01*
X937471Y462221D01*
X937273Y462038D01*
X937071Y461859D01*
X936864Y461685D01*
X936654Y461516D01*
X936439Y461353D01*
X936220Y461195D01*
X935997Y461042D01*
X935771Y460895D01*
X935541Y460753D01*
X935308Y460617D01*
X935071Y460487D01*
X934832Y460363D01*
X934589Y460244D01*
X934344Y460132D01*
X934096Y460025D01*
X933845Y459925D01*
X933592Y459831D01*
X933336Y459743D01*
X933079Y459662D01*
X932820Y459586D01*
X932559Y459518D01*
X932296Y459455D01*
X932032Y459399D01*
X931767Y459350D01*
X931500Y459307D01*
X931233Y459271D01*
X930964Y459241D01*
X930695Y459218D01*
X930426Y459201D01*
X930156Y459191D01*
X929886Y459188D01*
X929616Y459191D01*
X929346Y459201D01*
X929077Y459218D01*
X928808Y459241D01*
X928539Y459271D01*
X928272Y459307D01*
X928005Y459350D01*
X927740Y459399D01*
X927476Y459455D01*
X927213Y459518D01*
X926952Y459586D01*
X926693Y459662D01*
X926436Y459743D01*
X926180Y459831D01*
X925927Y459925D01*
X925676Y460025D01*
X925428Y460132D01*
X925183Y460244D01*
X924940Y460363D01*
X924701Y460487D01*
X924464Y460617D01*
X924231Y460753D01*
X924001Y460895D01*
X923775Y461042D01*
X923552Y461195D01*
X923333Y461353D01*
X923118Y461516D01*
X922908Y461685D01*
X922701Y461859D01*
X922499Y462038D01*
X922301Y462221D01*
X922108Y462410D01*
X921919Y462603D01*
X921736Y462801D01*
X921557Y463003D01*
X921383Y463210D01*
X921214Y463420D01*
X921051Y463635D01*
X920893Y463854D01*
X920740Y464077D01*
X920593Y464303D01*
X920451Y464533D01*
X920315Y464766D01*
X920185Y465003D01*
X920061Y465242D01*
X919942Y465485D01*
X919830Y465730D01*
X919723Y465978D01*
X919623Y466229D01*
X919529Y466482D01*
X919441Y466738D01*
X919360Y466995D01*
X919284Y467254D01*
X919216Y467515D01*
X919153Y467778D01*
X919097Y468042D01*
X919048Y468307D01*
X919005Y468574D01*
X918969Y468841D01*
X918939Y469110D01*
X918916Y469379D01*
X918899Y469648D01*
X918889Y469918D01*
X918886Y470188D01*
X128232Y931352D02*
X128235Y931622D01*
X128245Y931892D01*
X128262Y932161D01*
X128285Y932430D01*
X128315Y932699D01*
X128351Y932966D01*
X128394Y933233D01*
X128443Y933498D01*
X128499Y933762D01*
X128562Y934025D01*
X128630Y934286D01*
X128706Y934545D01*
X128787Y934802D01*
X128875Y935058D01*
X128969Y935311D01*
X129069Y935562D01*
X129176Y935810D01*
X129288Y936055D01*
X129407Y936298D01*
X129531Y936537D01*
X129661Y936774D01*
X129797Y937007D01*
X129939Y937237D01*
X130086Y937463D01*
X130239Y937686D01*
X130397Y937905D01*
X130560Y938120D01*
X130729Y938330D01*
X130903Y938537D01*
X131082Y938739D01*
X131265Y938937D01*
X131454Y939130D01*
X131647Y939319D01*
X131845Y939502D01*
X132047Y939681D01*
X132254Y939855D01*
X132464Y940024D01*
X132679Y940187D01*
X132898Y940345D01*
X133121Y940498D01*
X133347Y940645D01*
X133577Y940787D01*
X133810Y940923D01*
X134047Y941053D01*
X134286Y941177D01*
X134529Y941296D01*
X134774Y941408D01*
X135022Y941515D01*
X135273Y941615D01*
X135526Y941709D01*
X135782Y941797D01*
X136039Y941878D01*
X136298Y941954D01*
X136559Y942022D01*
X136822Y942085D01*
X137086Y942141D01*
X137351Y942190D01*
X137618Y942233D01*
X137885Y942269D01*
X138154Y942299D01*
X138423Y942322D01*
X138692Y942339D01*
X138962Y942349D01*
X139232Y942352D01*
X139502Y942349D01*
X139772Y942339D01*
X140041Y942322D01*
X140310Y942299D01*
X140579Y942269D01*
X140846Y942233D01*
X141113Y942190D01*
X141378Y942141D01*
X141642Y942085D01*
X141905Y942022D01*
X142166Y941954D01*
X142425Y941878D01*
X142682Y941797D01*
X142938Y941709D01*
X143191Y941615D01*
X143442Y941515D01*
X143690Y941408D01*
X143935Y941296D01*
X144178Y941177D01*
X144417Y941053D01*
X144654Y940923D01*
X144887Y940787D01*
X145117Y940645D01*
X145343Y940498D01*
X145566Y940345D01*
X145785Y940187D01*
X146000Y940024D01*
X146210Y939855D01*
X146417Y939681D01*
X146619Y939502D01*
X146817Y939319D01*
X147010Y939130D01*
X147199Y938937D01*
X147382Y938739D01*
X147561Y938537D01*
X147735Y938330D01*
X147904Y938120D01*
X148067Y937905D01*
X148225Y937686D01*
X148378Y937463D01*
X148525Y937237D01*
X148667Y937007D01*
X148803Y936774D01*
X148933Y936537D01*
X149057Y936298D01*
X149176Y936055D01*
X149288Y935810D01*
X149395Y935562D01*
X149495Y935311D01*
X149589Y935058D01*
X149677Y934802D01*
X149758Y934545D01*
X149834Y934286D01*
X149902Y934025D01*
X149965Y933762D01*
X150021Y933498D01*
X150070Y933233D01*
X150113Y932966D01*
X150149Y932699D01*
X150179Y932430D01*
X150202Y932161D01*
X150219Y931892D01*
X150229Y931622D01*
X150232Y931352D01*
X150229Y931082D01*
X150219Y930812D01*
X150202Y930543D01*
X150179Y930274D01*
X150149Y930005D01*
X150113Y929738D01*
X150070Y929471D01*
X150021Y929206D01*
X149965Y928942D01*
X149902Y928679D01*
X149834Y928418D01*
X149758Y928159D01*
X149677Y927902D01*
X149589Y927646D01*
X149495Y927393D01*
X149395Y927142D01*
X149288Y926894D01*
X149176Y926649D01*
X149057Y926406D01*
X148933Y926167D01*
X148803Y925930D01*
X148667Y925697D01*
X148525Y925467D01*
X148378Y925241D01*
X148225Y925018D01*
X148067Y924799D01*
X147904Y924584D01*
X147735Y924374D01*
X147561Y924167D01*
X147382Y923965D01*
X147199Y923767D01*
X147010Y923574D01*
X146817Y923385D01*
X146619Y923202D01*
X146417Y923023D01*
X146210Y922849D01*
X146000Y922680D01*
X145785Y922517D01*
X145566Y922359D01*
X145343Y922206D01*
X145117Y922059D01*
X144887Y921917D01*
X144654Y921781D01*
X144417Y921651D01*
X144178Y921527D01*
X143935Y921408D01*
X143690Y921296D01*
X143442Y921189D01*
X143191Y921089D01*
X142938Y920995D01*
X142682Y920907D01*
X142425Y920826D01*
X142166Y920750D01*
X141905Y920682D01*
X141642Y920619D01*
X141378Y920563D01*
X141113Y920514D01*
X140846Y920471D01*
X140579Y920435D01*
X140310Y920405D01*
X140041Y920382D01*
X139772Y920365D01*
X139502Y920355D01*
X139232Y920352D01*
X138962Y920355D01*
X138692Y920365D01*
X138423Y920382D01*
X138154Y920405D01*
X137885Y920435D01*
X137618Y920471D01*
X137351Y920514D01*
X137086Y920563D01*
X136822Y920619D01*
X136559Y920682D01*
X136298Y920750D01*
X136039Y920826D01*
X135782Y920907D01*
X135526Y920995D01*
X135273Y921089D01*
X135022Y921189D01*
X134774Y921296D01*
X134529Y921408D01*
X134286Y921527D01*
X134047Y921651D01*
X133810Y921781D01*
X133577Y921917D01*
X133347Y922059D01*
X133121Y922206D01*
X132898Y922359D01*
X132679Y922517D01*
X132464Y922680D01*
X132254Y922849D01*
X132047Y923023D01*
X131845Y923202D01*
X131647Y923385D01*
X131454Y923574D01*
X131265Y923767D01*
X131082Y923965D01*
X130903Y924167D01*
X130729Y924374D01*
X130560Y924584D01*
X130397Y924799D01*
X130239Y925018D01*
X130086Y925241D01*
X129939Y925467D01*
X129797Y925697D01*
X129661Y925930D01*
X129531Y926167D01*
X129407Y926406D01*
X129288Y926649D01*
X129176Y926894D01*
X129069Y927142D01*
X128969Y927393D01*
X128875Y927646D01*
X128787Y927902D01*
X128706Y928159D01*
X128630Y928418D01*
X128562Y928679D01*
X128499Y928942D01*
X128443Y929206D01*
X128394Y929471D01*
X128351Y929738D01*
X128315Y930005D01*
X128285Y930274D01*
X128262Y930543D01*
X128245Y930812D01*
X128235Y931082D01*
X128232Y931352D01*
X817994Y17865D02*
X817997Y18135D01*
X818007Y18405D01*
X818024Y18674D01*
X818047Y18943D01*
X818077Y19212D01*
X818113Y19479D01*
X818156Y19746D01*
X818205Y20011D01*
X818261Y20275D01*
X818324Y20538D01*
X818392Y20799D01*
X818468Y21058D01*
X818549Y21315D01*
X818637Y21571D01*
X818731Y21824D01*
X818831Y22075D01*
X818938Y22323D01*
X819050Y22568D01*
X819169Y22811D01*
X819293Y23050D01*
X819423Y23287D01*
X819559Y23520D01*
X819701Y23750D01*
X819848Y23976D01*
X820001Y24199D01*
X820159Y24418D01*
X820322Y24633D01*
X820491Y24843D01*
X820665Y25050D01*
X820844Y25252D01*
X821027Y25450D01*
X821216Y25643D01*
X821409Y25832D01*
X821607Y26015D01*
X821809Y26194D01*
X822016Y26368D01*
X822226Y26537D01*
X822441Y26700D01*
X822660Y26858D01*
X822883Y27011D01*
X823109Y27158D01*
X823339Y27300D01*
X823572Y27436D01*
X823809Y27566D01*
X824048Y27690D01*
X824291Y27809D01*
X824536Y27921D01*
X824784Y28028D01*
X825035Y28128D01*
X825288Y28222D01*
X825544Y28310D01*
X825801Y28391D01*
X826060Y28467D01*
X826321Y28535D01*
X826584Y28598D01*
X826848Y28654D01*
X827113Y28703D01*
X827380Y28746D01*
X827647Y28782D01*
X827916Y28812D01*
X828185Y28835D01*
X828454Y28852D01*
X828724Y28862D01*
X828994Y28865D01*
X829264Y28862D01*
X829534Y28852D01*
X829803Y28835D01*
X830072Y28812D01*
X830341Y28782D01*
X830608Y28746D01*
X830875Y28703D01*
X831140Y28654D01*
X831404Y28598D01*
X831667Y28535D01*
X831928Y28467D01*
X832187Y28391D01*
X832444Y28310D01*
X832700Y28222D01*
X832953Y28128D01*
X833204Y28028D01*
X833452Y27921D01*
X833697Y27809D01*
X833940Y27690D01*
X834179Y27566D01*
X834416Y27436D01*
X834649Y27300D01*
X834879Y27158D01*
X835105Y27011D01*
X835328Y26858D01*
X835547Y26700D01*
X835762Y26537D01*
X835972Y26368D01*
X836179Y26194D01*
X836381Y26015D01*
X836579Y25832D01*
X836772Y25643D01*
X836961Y25450D01*
X837144Y25252D01*
X837323Y25050D01*
X837497Y24843D01*
X837666Y24633D01*
X837829Y24418D01*
X837987Y24199D01*
X838140Y23976D01*
X838287Y23750D01*
X838429Y23520D01*
X838565Y23287D01*
X838695Y23050D01*
X838819Y22811D01*
X838938Y22568D01*
X839050Y22323D01*
X839157Y22075D01*
X839257Y21824D01*
X839351Y21571D01*
X839439Y21315D01*
X839520Y21058D01*
X839596Y20799D01*
X839664Y20538D01*
X839727Y20275D01*
X839783Y20011D01*
X839832Y19746D01*
X839875Y19479D01*
X839911Y19212D01*
X839941Y18943D01*
X839964Y18674D01*
X839981Y18405D01*
X839991Y18135D01*
X839994Y17865D01*
X839991Y17595D01*
X839981Y17325D01*
X839964Y17056D01*
X839941Y16787D01*
X839911Y16518D01*
X839875Y16251D01*
X839832Y15984D01*
X839783Y15719D01*
X839727Y15455D01*
X839664Y15192D01*
X839596Y14931D01*
X839520Y14672D01*
X839439Y14415D01*
X839351Y14159D01*
X839257Y13906D01*
X839157Y13655D01*
X839050Y13407D01*
X838938Y13162D01*
X838819Y12919D01*
X838695Y12680D01*
X838565Y12443D01*
X838429Y12210D01*
X838287Y11980D01*
X838140Y11754D01*
X837987Y11531D01*
X837829Y11312D01*
X837666Y11097D01*
X837497Y10887D01*
X837323Y10680D01*
X837144Y10478D01*
X836961Y10280D01*
X836772Y10087D01*
X836579Y9898D01*
X836381Y9715D01*
X836179Y9536D01*
X835972Y9362D01*
X835762Y9193D01*
X835547Y9030D01*
X835328Y8872D01*
X835105Y8719D01*
X834879Y8572D01*
X834649Y8430D01*
X834416Y8294D01*
X834179Y8164D01*
X833940Y8040D01*
X833697Y7921D01*
X833452Y7809D01*
X833204Y7702D01*
X832953Y7602D01*
X832700Y7508D01*
X832444Y7420D01*
X832187Y7339D01*
X831928Y7263D01*
X831667Y7195D01*
X831404Y7132D01*
X831140Y7076D01*
X830875Y7027D01*
X830608Y6984D01*
X830341Y6948D01*
X830072Y6918D01*
X829803Y6895D01*
X829534Y6878D01*
X829264Y6868D01*
X828994Y6865D01*
X828724Y6868D01*
X828454Y6878D01*
X828185Y6895D01*
X827916Y6918D01*
X827647Y6948D01*
X827380Y6984D01*
X827113Y7027D01*
X826848Y7076D01*
X826584Y7132D01*
X826321Y7195D01*
X826060Y7263D01*
X825801Y7339D01*
X825544Y7420D01*
X825288Y7508D01*
X825035Y7602D01*
X824784Y7702D01*
X824536Y7809D01*
X824291Y7921D01*
X824048Y8040D01*
X823809Y8164D01*
X823572Y8294D01*
X823339Y8430D01*
X823109Y8572D01*
X822883Y8719D01*
X822660Y8872D01*
X822441Y9030D01*
X822226Y9193D01*
X822016Y9362D01*
X821809Y9536D01*
X821607Y9715D01*
X821409Y9898D01*
X821216Y10087D01*
X821027Y10280D01*
X820844Y10478D01*
X820665Y10680D01*
X820491Y10887D01*
X820322Y11097D01*
X820159Y11312D01*
X820001Y11531D01*
X819848Y11754D01*
X819701Y11980D01*
X819559Y12210D01*
X819423Y12443D01*
X819293Y12680D01*
X819169Y12919D01*
X819050Y13162D01*
X818938Y13407D01*
X818831Y13655D01*
X818731Y13906D01*
X818637Y14159D01*
X818549Y14415D01*
X818468Y14672D01*
X818392Y14931D01*
X818324Y15192D01*
X818261Y15455D01*
X818205Y15719D01*
X818156Y15984D01*
X818113Y16251D01*
X818077Y16518D01*
X818047Y16787D01*
X818024Y17056D01*
X818007Y17325D01*
X817997Y17595D01*
X817994Y17865D01*
X762808Y922397D02*
X762814Y922888D01*
X762832Y923378D01*
X762862Y923868D01*
X762904Y924357D01*
X762958Y924845D01*
X763024Y925332D01*
X763102Y925816D01*
X763192Y926299D01*
X763294Y926779D01*
X763407Y927257D01*
X763532Y927731D01*
X763669Y928203D01*
X763817Y928671D01*
X763977Y929135D01*
X764148Y929595D01*
X764330Y930051D01*
X764524Y930502D01*
X764728Y930948D01*
X764944Y931389D01*
X765170Y931825D01*
X765406Y932255D01*
X765653Y932679D01*
X765911Y933097D01*
X766179Y933508D01*
X766456Y933913D01*
X766744Y934311D01*
X767041Y934702D01*
X767348Y935085D01*
X767664Y935460D01*
X767989Y935828D01*
X768323Y936188D01*
X768666Y936539D01*
X769017Y936882D01*
X769377Y937216D01*
X769745Y937541D01*
X770120Y937857D01*
X770503Y938164D01*
X770894Y938461D01*
X771292Y938749D01*
X771697Y939026D01*
X772108Y939294D01*
X772526Y939552D01*
X772950Y939799D01*
X773380Y940035D01*
X773816Y940261D01*
X774257Y940477D01*
X774703Y940681D01*
X775154Y940875D01*
X775610Y941057D01*
X776070Y941228D01*
X776534Y941388D01*
X777002Y941536D01*
X777474Y941673D01*
X777948Y941798D01*
X778426Y941911D01*
X778906Y942013D01*
X779389Y942103D01*
X779873Y942181D01*
X780360Y942247D01*
X780848Y942301D01*
X781337Y942343D01*
X781827Y942373D01*
X782317Y942391D01*
X782808Y942397D01*
X783299Y942391D01*
X783789Y942373D01*
X784279Y942343D01*
X784768Y942301D01*
X785256Y942247D01*
X785743Y942181D01*
X786227Y942103D01*
X786710Y942013D01*
X787190Y941911D01*
X787668Y941798D01*
X788142Y941673D01*
X788614Y941536D01*
X789082Y941388D01*
X789546Y941228D01*
X790006Y941057D01*
X790462Y940875D01*
X790913Y940681D01*
X791359Y940477D01*
X791800Y940261D01*
X792236Y940035D01*
X792666Y939799D01*
X793090Y939552D01*
X793508Y939294D01*
X793919Y939026D01*
X794324Y938749D01*
X794722Y938461D01*
X795113Y938164D01*
X795496Y937857D01*
X795871Y937541D01*
X796239Y937216D01*
X796599Y936882D01*
X796950Y936539D01*
X797293Y936188D01*
X797627Y935828D01*
X797952Y935460D01*
X798268Y935085D01*
X798575Y934702D01*
X798872Y934311D01*
X799160Y933913D01*
X799437Y933508D01*
X799705Y933097D01*
X799963Y932679D01*
X800210Y932255D01*
X800446Y931825D01*
X800672Y931389D01*
X800888Y930948D01*
X801092Y930502D01*
X801286Y930051D01*
X801468Y929595D01*
X801639Y929135D01*
X801799Y928671D01*
X801947Y928203D01*
X802084Y927731D01*
X802209Y927257D01*
X802322Y926779D01*
X802424Y926299D01*
X802514Y925816D01*
X802592Y925332D01*
X802658Y924845D01*
X802712Y924357D01*
X802754Y923868D01*
X802784Y923378D01*
X802802Y922888D01*
X802808Y922397D01*
X802802Y921906D01*
X802784Y921416D01*
X802754Y920926D01*
X802712Y920437D01*
X802658Y919949D01*
X802592Y919462D01*
X802514Y918978D01*
X802424Y918495D01*
X802322Y918015D01*
X802209Y917537D01*
X802084Y917063D01*
X801947Y916591D01*
X801799Y916123D01*
X801639Y915659D01*
X801468Y915199D01*
X801286Y914743D01*
X801092Y914292D01*
X800888Y913846D01*
X800672Y913405D01*
X800446Y912969D01*
X800210Y912539D01*
X799963Y912115D01*
X799705Y911697D01*
X799437Y911286D01*
X799160Y910881D01*
X798872Y910483D01*
X798575Y910092D01*
X798268Y909709D01*
X797952Y909334D01*
X797627Y908966D01*
X797293Y908606D01*
X796950Y908255D01*
X796599Y907912D01*
X796239Y907578D01*
X795871Y907253D01*
X795496Y906937D01*
X795113Y906630D01*
X794722Y906333D01*
X794324Y906045D01*
X793919Y905768D01*
X793508Y905500D01*
X793090Y905242D01*
X792666Y904995D01*
X792236Y904759D01*
X791800Y904533D01*
X791359Y904317D01*
X790913Y904113D01*
X790462Y903919D01*
X790006Y903737D01*
X789546Y903566D01*
X789082Y903406D01*
X788614Y903258D01*
X788142Y903121D01*
X787668Y902996D01*
X787190Y902883D01*
X786710Y902781D01*
X786227Y902691D01*
X785743Y902613D01*
X785256Y902547D01*
X784768Y902493D01*
X784279Y902451D01*
X783789Y902421D01*
X783299Y902403D01*
X782808Y902397D01*
X782317Y902403D01*
X781827Y902421D01*
X781337Y902451D01*
X780848Y902493D01*
X780360Y902547D01*
X779873Y902613D01*
X779389Y902691D01*
X778906Y902781D01*
X778426Y902883D01*
X777948Y902996D01*
X777474Y903121D01*
X777002Y903258D01*
X776534Y903406D01*
X776070Y903566D01*
X775610Y903737D01*
X775154Y903919D01*
X774703Y904113D01*
X774257Y904317D01*
X773816Y904533D01*
X773380Y904759D01*
X772950Y904995D01*
X772526Y905242D01*
X772108Y905500D01*
X771697Y905768D01*
X771292Y906045D01*
X770894Y906333D01*
X770503Y906630D01*
X770120Y906937D01*
X769745Y907253D01*
X769377Y907578D01*
X769017Y907912D01*
X768666Y908255D01*
X768323Y908606D01*
X767989Y908966D01*
X767664Y909334D01*
X767348Y909709D01*
X767041Y910092D01*
X766744Y910483D01*
X766456Y910881D01*
X766179Y911286D01*
X765911Y911697D01*
X765653Y912115D01*
X765406Y912539D01*
X765170Y912969D01*
X764944Y913405D01*
X764728Y913846D01*
X764524Y914292D01*
X764330Y914743D01*
X764148Y915199D01*
X763977Y915659D01*
X763817Y916123D01*
X763669Y916591D01*
X763532Y917063D01*
X763407Y917537D01*
X763294Y918015D01*
X763192Y918495D01*
X763102Y918978D01*
X763024Y919462D01*
X762958Y919949D01*
X762904Y920437D01*
X762862Y920926D01*
X762832Y921416D01*
X762814Y921906D01*
X762808Y922397D01*
D11*
X918180Y882000D02*
X960000Y882000D01*
X960000Y78000D01*
X888604Y78000D01*
X888357Y78269D01*
X888104Y78533D01*
X887844Y78790D01*
X887578Y79041D01*
X887306Y79285D01*
X887028Y79523D01*
X886745Y79753D01*
X886456Y79977D01*
X886161Y80194D01*
X885862Y80403D01*
X885557Y80605D01*
X885248Y80800D01*
X884934Y80987D01*
X884615Y81166D01*
X884292Y81337D01*
X883965Y81501D01*
X883634Y81656D01*
X883300Y81803D01*
X882962Y81943D01*
X882621Y82074D01*
X882276Y82196D01*
X881929Y82310D01*
X881579Y82416D01*
X881227Y82513D01*
X880872Y82601D01*
X880515Y82681D01*
X880157Y82752D01*
X879797Y82815D01*
X879435Y82868D01*
X879072Y82913D01*
X878709Y82949D01*
X878344Y82976D01*
X877979Y82994D01*
X877614Y83003D01*
X877248Y83003D01*
X876883Y82994D01*
X876517Y82977D01*
X876153Y82950D01*
X875789Y82915D01*
X875426Y82871D01*
X875065Y82818D01*
X874704Y82756D01*
X874346Y82686D01*
X873989Y82606D01*
X873634Y82518D01*
X873282Y82422D01*
X872931Y82317D01*
X872584Y82203D01*
X872239Y82081D01*
X871898Y81951D01*
X871560Y81812D01*
X871225Y81665D01*
X870894Y81510D01*
X870567Y81347D01*
X870244Y81176D01*
X869925Y80997D01*
X869611Y80811D01*
X869301Y80617D01*
X868996Y80415D01*
X868696Y80206D01*
X868401Y79990D01*
X868112Y79767D01*
X867828Y79536D01*
X867550Y79299D01*
X867278Y79055D01*
X867011Y78805D01*
X866751Y78548D01*
X866498Y78285D01*
X866250Y78016D01*
X866010Y77741D01*
X865776Y77460D01*
X865549Y77173D01*
X865329Y76881D01*
X865116Y76584D01*
X864911Y76282D01*
X864713Y75974D01*
X864522Y75662D01*
X864340Y75346D01*
X864165Y75025D01*
X863997Y74700D01*
X863838Y74371D01*
X863687Y74038D01*
X863544Y73702D01*
X863410Y73362D01*
X863283Y73019D01*
X863165Y72673D01*
X863056Y72324D01*
X862955Y71973D01*
X862862Y71619D01*
X862778Y71263D01*
X862703Y70906D01*
X862637Y70546D01*
X862579Y70185D01*
X862531Y69823D01*
X862491Y69460D01*
X862460Y69095D01*
X862438Y68731D01*
X862424Y68365D01*
X862420Y68000D01*
X862420Y0D01*
X83000Y0D01*
X83000Y68000D01*
D12*
X82985Y68361D01*
X82961Y68722D01*
X82929Y69082D01*
X82888Y69441D01*
X82838Y69800D01*
X82779Y70156D01*
X82712Y70512D01*
X82636Y70865D01*
X82551Y71217D01*
X82458Y71566D01*
X82356Y71913D01*
X82246Y72257D01*
X82128Y72599D01*
X82001Y72938D01*
X81866Y73273D01*
X81723Y73605D01*
X81572Y73934D01*
X81413Y74259D01*
X81247Y74579D01*
X81072Y74896D01*
X80890Y75208D01*
X80700Y75516D01*
X80503Y75819D01*
X80298Y76117D01*
X80086Y76410D01*
X79867Y76698D01*
X79641Y76980D01*
X79409Y77257D01*
X79169Y77528D01*
X78924Y77793D01*
X78671Y78052D01*
X78413Y78305D01*
X78148Y78552D01*
X77878Y78792D01*
X77602Y79025D01*
X77320Y79251D01*
X77033Y79471D01*
X76740Y79684D01*
X76442Y79889D01*
X76140Y80087D01*
X75833Y80277D01*
X75521Y80460D01*
X75205Y80636D01*
X74884Y80803D01*
X74560Y80963D01*
X74232Y81115D01*
X73900Y81259D01*
X73565Y81395D01*
X73226Y81522D01*
X72885Y81641D01*
X72541Y81752D01*
X72194Y81854D01*
X71845Y81948D01*
X71494Y82034D01*
X71140Y82111D01*
X70785Y82179D01*
X70428Y82238D01*
X70070Y82289D01*
X69711Y82331D01*
X69351Y82364D01*
X68991Y82389D01*
X68629Y82405D01*
X68268Y82412D01*
X67906Y82410D01*
X67545Y82399D01*
X67184Y82380D01*
X66823Y82351D01*
X66464Y82314D01*
X66105Y82268D01*
X65748Y82214D01*
X65392Y82151D01*
X65037Y82079D01*
X64685Y81998D01*
X64334Y81909D01*
X63986Y81812D01*
X63640Y81706D01*
X63297Y81591D01*
X62957Y81469D01*
X62620Y81338D01*
X62287Y81199D01*
X61956Y81051D01*
X61630Y80896D01*
X61307Y80733D01*
X60988Y80562D01*
X60674Y80383D01*
X60364Y80197D01*
X60059Y80003D01*
X59758Y79802D01*
X59463Y79594D01*
X59173Y79378D01*
X58888Y79156D01*
X58608Y78926D01*
X58334Y78690D01*
X58066Y78448D01*
X57804Y78198D01*
X57549Y77943D01*
X57299Y77681D01*
X57056Y77414D01*
X56819Y77140D01*
D11*
X56820Y77140D02*
X0Y77140D01*
X0Y882000D01*
X56820Y882000D01*
X57067Y881731D01*
X57320Y881467D01*
X57580Y881210D01*
X57846Y880960D01*
X58118Y880716D01*
X58395Y880478D01*
X58679Y880248D01*
X58968Y880024D01*
X59262Y879808D01*
X59562Y879598D01*
X59867Y879397D01*
X60176Y879202D01*
X60490Y879015D01*
X60809Y878836D01*
X61131Y878665D01*
X61458Y878502D01*
X61789Y878346D01*
X62124Y878199D01*
X62461Y878060D01*
X62803Y877929D01*
X63147Y877807D01*
X63494Y877693D01*
X63844Y877587D01*
X64196Y877490D01*
X64551Y877402D01*
X64908Y877322D01*
X65266Y877251D01*
X65626Y877189D01*
X65988Y877136D01*
X66350Y877091D01*
X66714Y877055D01*
X67078Y877028D01*
X67443Y877010D01*
X67809Y877001D01*
X68174Y877001D01*
X68539Y877010D01*
X68904Y877027D01*
X69269Y877054D01*
X69633Y877089D01*
X69995Y877133D01*
X70357Y877186D01*
X70717Y877248D01*
X71076Y877319D01*
X71432Y877398D01*
X71787Y877486D01*
X72140Y877582D01*
X72489Y877688D01*
X72837Y877801D01*
X73181Y877923D01*
X73523Y878054D01*
X73861Y878192D01*
X74195Y878339D01*
X74526Y878494D01*
X74853Y878657D01*
X75176Y878828D01*
X75495Y879007D01*
X75809Y879193D01*
X76119Y879387D01*
X76424Y879589D01*
X76724Y879798D01*
X77018Y880014D01*
X77308Y880237D01*
X77591Y880467D01*
X77870Y880704D01*
X78142Y880948D01*
X78408Y881198D01*
X78668Y881455D01*
X78922Y881718D01*
X79169Y881987D01*
X79410Y882262D01*
X79643Y882543D01*
X79870Y882830D01*
X80090Y883121D01*
X80303Y883419D01*
X80508Y883721D01*
X80706Y884028D01*
X80897Y884340D01*
X81079Y884656D01*
X81254Y884977D01*
X81422Y885302D01*
X81581Y885631D01*
X81732Y885964D01*
X81875Y886300D01*
X82010Y886640D01*
X82136Y886983D01*
X82254Y887328D01*
X82364Y887677D01*
X82465Y888028D01*
X82557Y888382D01*
X82641Y888737D01*
X82716Y889095D01*
X82782Y889454D01*
X82840Y889815D01*
X82889Y890177D01*
X82929Y890541D01*
X82960Y890905D01*
X82982Y891269D01*
X82996Y891635D01*
X83000Y892000D01*
X83000Y960000D01*
X892000Y960000D01*
X892000Y892000D01*
X892004Y891635D01*
X892018Y891269D01*
X892040Y890905D01*
X892071Y890541D01*
X892111Y890177D01*
X892160Y889815D01*
X892218Y889454D01*
X892284Y889095D01*
X892359Y888737D01*
X892443Y888382D01*
X892535Y888028D01*
X892636Y887677D01*
X892746Y887328D01*
X892864Y886983D01*
X892990Y886640D01*
X893125Y886300D01*
X893268Y885964D01*
X893419Y885631D01*
X893578Y885302D01*
X893746Y884977D01*
X893921Y884656D01*
X894103Y884340D01*
X894294Y884028D01*
X894492Y883721D01*
X894697Y883419D01*
X894910Y883121D01*
X895130Y882830D01*
X895357Y882543D01*
X895590Y882262D01*
X895831Y881987D01*
X896078Y881718D01*
X896332Y881455D01*
X896592Y881198D01*
X896858Y880948D01*
X897130Y880704D01*
X897409Y880467D01*
X897692Y880237D01*
X897982Y880014D01*
X898276Y879798D01*
X898576Y879589D01*
X898881Y879387D01*
X899191Y879193D01*
X899505Y879007D01*
X899824Y878828D01*
X900147Y878657D01*
X900474Y878494D01*
X900805Y878339D01*
X901139Y878192D01*
X901477Y878054D01*
X901819Y877923D01*
X902163Y877801D01*
X902511Y877688D01*
X902860Y877582D01*
X903213Y877486D01*
X903568Y877398D01*
X903924Y877319D01*
X904283Y877248D01*
X904643Y877186D01*
X905005Y877133D01*
X905367Y877089D01*
X905731Y877054D01*
X906096Y877027D01*
X906461Y877010D01*
X906826Y877001D01*
X907191Y877001D01*
X907557Y877010D01*
X907922Y877028D01*
X908286Y877055D01*
X908650Y877091D01*
X909012Y877136D01*
X909374Y877189D01*
X909734Y877251D01*
X910092Y877322D01*
X910449Y877402D01*
X910804Y877490D01*
X911156Y877587D01*
X911506Y877693D01*
X911853Y877807D01*
X912197Y877929D01*
X912539Y878060D01*
X912876Y878199D01*
X913211Y878346D01*
X913542Y878502D01*
X913869Y878665D01*
X914191Y878836D01*
X914510Y879015D01*
X914824Y879202D01*
X915133Y879397D01*
X915438Y879598D01*
X915738Y879808D01*
X916032Y880024D01*
X916321Y880248D01*
X916605Y880478D01*
X916882Y880716D01*
X917154Y880960D01*
X917420Y881210D01*
X917680Y881467D01*
X917933Y881731D01*
X918180Y882000D01*
M02*
