G04 EAGLE Gerber RS-274X export*
G75*
%MOMM*%
%FSLAX34Y34*%
%LPD*%
%INSolder side*%
%IPPOS*%
%AMOC8*
5,1,8,0,0,1.08239X$1,22.5*%
G01*
%ADD10R,0.400000X1.200000*%
%ADD11R,1.300000X1.500000*%
%ADD12R,1.220000X0.910000*%
%ADD13R,0.700000X0.900000*%
%ADD14R,0.558800X1.981200*%
%ADD15R,2.000000X3.400000*%
%ADD16R,0.900000X0.700000*%
%ADD17R,1.050000X4.900000*%
%ADD18C,2.250000*%
%ADD19R,0.890000X4.000000*%
%ADD20C,0.650000*%
%ADD21C,1.016000*%
%ADD22C,0.406400*%
%ADD23C,0.600000*%
%ADD24C,0.152400*%
%ADD25C,2.540000*%
%ADD26C,0.609600*%
%ADD27C,1.270000*%
%ADD28C,0.508000*%
%ADD29C,0.254000*%

G36*
X139998Y410556D02*
X139998Y410556D01*
X140007Y410556D01*
X140200Y410580D01*
X140389Y410602D01*
X140398Y410605D01*
X140407Y410606D01*
X140589Y410667D01*
X140772Y410727D01*
X140780Y410731D01*
X140788Y410734D01*
X140955Y410830D01*
X141123Y410925D01*
X141130Y410931D01*
X141137Y410935D01*
X141390Y411150D01*
X174869Y444629D01*
X176370Y446129D01*
X177957Y446787D01*
X218186Y446787D01*
X218204Y446789D01*
X218222Y446787D01*
X218404Y446808D01*
X218587Y446827D01*
X218604Y446832D01*
X218621Y446834D01*
X218796Y446891D01*
X218972Y446945D01*
X218987Y446953D01*
X219004Y446959D01*
X219164Y447049D01*
X219326Y447137D01*
X219339Y447148D01*
X219355Y447157D01*
X219494Y447277D01*
X219635Y447394D01*
X219646Y447408D01*
X219659Y447420D01*
X219772Y447564D01*
X219887Y447708D01*
X219895Y447724D01*
X219906Y447738D01*
X219988Y447903D01*
X220073Y448065D01*
X220078Y448082D01*
X220086Y448098D01*
X220133Y448277D01*
X220184Y448452D01*
X220186Y448470D01*
X220190Y448487D01*
X220217Y448818D01*
X220217Y516129D01*
X734986Y516129D01*
X734995Y516130D01*
X735004Y516129D01*
X735197Y516150D01*
X735386Y516169D01*
X735395Y516171D01*
X735404Y516172D01*
X735588Y516231D01*
X735771Y516287D01*
X735779Y516291D01*
X735788Y516294D01*
X735956Y516387D01*
X736125Y516479D01*
X736132Y516484D01*
X736140Y516489D01*
X736287Y516613D01*
X736435Y516736D01*
X736440Y516743D01*
X736447Y516749D01*
X736567Y516901D01*
X736687Y517050D01*
X736691Y517058D01*
X736697Y517065D01*
X736784Y517238D01*
X736872Y517407D01*
X736875Y517416D01*
X736879Y517424D01*
X736931Y517610D01*
X736984Y517794D01*
X736985Y517803D01*
X736987Y517812D01*
X737001Y518005D01*
X737017Y518196D01*
X737016Y518204D01*
X737016Y518213D01*
X736992Y518406D01*
X736970Y518595D01*
X736967Y518604D01*
X736966Y518613D01*
X736905Y518795D01*
X736845Y518978D01*
X736841Y518986D01*
X736838Y518994D01*
X736742Y519161D01*
X736647Y519329D01*
X736641Y519336D01*
X736637Y519343D01*
X736422Y519596D01*
X712546Y543472D01*
X712525Y543489D01*
X712508Y543510D01*
X712370Y543617D01*
X712235Y543727D01*
X712211Y543740D01*
X712190Y543756D01*
X712033Y543834D01*
X711879Y543916D01*
X711853Y543924D01*
X711829Y543936D01*
X711660Y543981D01*
X711493Y544031D01*
X711466Y544033D01*
X711440Y544040D01*
X711110Y544067D01*
X619466Y544067D01*
X619390Y544060D01*
X619314Y544062D01*
X619190Y544040D01*
X619066Y544027D01*
X618993Y544005D01*
X618918Y543992D01*
X618801Y543946D01*
X618681Y543909D01*
X618614Y543873D01*
X618543Y543845D01*
X618437Y543777D01*
X618327Y543717D01*
X618268Y543669D01*
X618204Y543628D01*
X618114Y543540D01*
X618017Y543460D01*
X617970Y543400D01*
X617915Y543347D01*
X617844Y543244D01*
X617765Y543146D01*
X617730Y543078D01*
X617687Y543016D01*
X617637Y542900D01*
X617579Y542789D01*
X617558Y542716D01*
X617528Y542645D01*
X617503Y542522D01*
X617468Y542402D01*
X617462Y542326D01*
X617446Y542251D01*
X617445Y542126D01*
X617435Y542000D01*
X617444Y541925D01*
X617444Y541849D01*
X617467Y541725D01*
X617482Y541601D01*
X617506Y541528D01*
X617520Y541453D01*
X617568Y541337D01*
X617607Y541218D01*
X617644Y541151D01*
X617673Y541081D01*
X617743Y540977D01*
X617805Y540867D01*
X617855Y540810D01*
X617897Y540746D01*
X617973Y540670D01*
X618036Y540596D01*
X618057Y540575D01*
X618068Y540563D01*
X618076Y540557D01*
X618698Y539934D01*
X619033Y539354D01*
X619206Y538708D01*
X619206Y536098D01*
X610808Y536098D01*
X610791Y536096D01*
X610773Y536098D01*
X610591Y536076D01*
X610589Y536076D01*
X610322Y536098D01*
X601925Y536098D01*
X601925Y538708D01*
X602098Y539354D01*
X602432Y539934D01*
X603094Y540596D01*
X603096Y540598D01*
X603113Y540612D01*
X603192Y540710D01*
X603278Y540802D01*
X603318Y540867D01*
X603366Y540926D01*
X603423Y541038D01*
X603489Y541144D01*
X603516Y541216D01*
X603551Y541283D01*
X603586Y541404D01*
X603629Y541522D01*
X603641Y541597D01*
X603662Y541670D01*
X603673Y541796D01*
X603692Y541920D01*
X603689Y541996D01*
X603695Y542072D01*
X603681Y542196D01*
X603675Y542322D01*
X603657Y542396D01*
X603648Y542471D01*
X603609Y542591D01*
X603580Y542713D01*
X603547Y542782D01*
X603524Y542854D01*
X603462Y542964D01*
X603408Y543077D01*
X603363Y543138D01*
X603326Y543205D01*
X603244Y543300D01*
X603169Y543401D01*
X603112Y543452D01*
X603062Y543510D01*
X602963Y543586D01*
X602870Y543671D01*
X602804Y543710D01*
X602744Y543756D01*
X602632Y543812D01*
X602524Y543876D01*
X602452Y543902D01*
X602384Y543936D01*
X602262Y543968D01*
X602144Y544010D01*
X602069Y544020D01*
X601995Y544040D01*
X601832Y544054D01*
X601745Y544066D01*
X601710Y544064D01*
X601664Y544067D01*
X490742Y544067D01*
X490724Y544065D01*
X490706Y544067D01*
X490524Y544046D01*
X490341Y544027D01*
X490324Y544022D01*
X490307Y544020D01*
X490132Y543963D01*
X489956Y543909D01*
X489941Y543901D01*
X489924Y543895D01*
X489764Y543805D01*
X489602Y543717D01*
X489589Y543706D01*
X489573Y543697D01*
X489434Y543577D01*
X489293Y543460D01*
X489282Y543446D01*
X489268Y543434D01*
X489156Y543289D01*
X489041Y543146D01*
X489033Y543130D01*
X489022Y543116D01*
X488940Y542951D01*
X488855Y542789D01*
X488850Y542772D01*
X488842Y542756D01*
X488795Y542577D01*
X488744Y542402D01*
X488742Y542384D01*
X488738Y542367D01*
X488711Y542036D01*
X488711Y535559D01*
X486925Y533773D01*
X471399Y533773D01*
X471320Y533852D01*
X471250Y533910D01*
X471186Y533975D01*
X471094Y534037D01*
X471009Y534107D01*
X470928Y534150D01*
X470853Y534201D01*
X470751Y534244D01*
X470653Y534296D01*
X470566Y534322D01*
X470482Y534357D01*
X470373Y534379D01*
X470267Y534411D01*
X470176Y534419D01*
X470087Y534437D01*
X469976Y534437D01*
X469866Y534447D01*
X469775Y534437D01*
X469684Y534438D01*
X469549Y534413D01*
X469466Y534404D01*
X469420Y534389D01*
X469358Y534378D01*
X468996Y534281D01*
X465411Y534281D01*
X465411Y543104D01*
X465409Y543122D01*
X465411Y543139D01*
X465390Y543322D01*
X465371Y543504D01*
X465366Y543521D01*
X465364Y543539D01*
X465307Y543714D01*
X465253Y543889D01*
X465245Y543905D01*
X465239Y543922D01*
X465149Y544082D01*
X465061Y544243D01*
X465050Y544257D01*
X465041Y544273D01*
X464996Y544325D01*
X465081Y544430D01*
X465089Y544446D01*
X465100Y544460D01*
X465182Y544625D01*
X465267Y544788D01*
X465272Y544805D01*
X465280Y544821D01*
X465327Y544999D01*
X465378Y545174D01*
X465380Y545192D01*
X465384Y545209D01*
X465411Y545540D01*
X465411Y554363D01*
X468996Y554363D01*
X469358Y554266D01*
X469448Y554251D01*
X469536Y554227D01*
X469646Y554219D01*
X469755Y554201D01*
X469846Y554204D01*
X469937Y554197D01*
X470047Y554211D01*
X470158Y554215D01*
X470246Y554236D01*
X470337Y554248D01*
X470441Y554283D01*
X470549Y554309D01*
X470632Y554347D01*
X470718Y554376D01*
X470814Y554431D01*
X470915Y554478D01*
X470988Y554532D01*
X471067Y554577D01*
X471172Y554666D01*
X471240Y554715D01*
X471272Y554751D01*
X471320Y554792D01*
X471673Y555145D01*
X471685Y555159D01*
X471698Y555170D01*
X471812Y555314D01*
X471928Y555456D01*
X471937Y555472D01*
X471948Y555486D01*
X472031Y555650D01*
X472117Y555812D01*
X472122Y555829D01*
X472130Y555845D01*
X472180Y556022D01*
X472232Y556198D01*
X472233Y556216D01*
X472238Y556233D01*
X472252Y556417D01*
X472268Y556599D01*
X472266Y556617D01*
X472268Y556635D01*
X472244Y556817D01*
X472225Y556999D01*
X472219Y557016D01*
X472217Y557034D01*
X472159Y557208D01*
X472103Y557383D01*
X472095Y557399D01*
X472089Y557416D01*
X471997Y557574D01*
X471908Y557735D01*
X471897Y557749D01*
X471888Y557765D01*
X471673Y558018D01*
X471268Y558423D01*
X469553Y560138D01*
X468779Y562005D01*
X468779Y567052D01*
X468772Y567125D01*
X468774Y567198D01*
X468752Y567325D01*
X468739Y567453D01*
X468718Y567523D01*
X468705Y567595D01*
X468659Y567715D01*
X468621Y567838D01*
X468586Y567902D01*
X468560Y567971D01*
X468491Y568079D01*
X468429Y568192D01*
X468383Y568248D01*
X468343Y568310D01*
X468254Y568402D01*
X468172Y568501D01*
X468115Y568547D01*
X468064Y568600D01*
X467958Y568673D01*
X467858Y568753D01*
X467793Y568787D01*
X467733Y568829D01*
X467615Y568880D01*
X467501Y568939D01*
X467430Y568959D01*
X467363Y568988D01*
X467237Y569015D01*
X467114Y569050D01*
X467041Y569056D01*
X466969Y569071D01*
X466841Y569073D01*
X466712Y569083D01*
X466640Y569075D01*
X466566Y569075D01*
X466440Y569051D01*
X466313Y569036D01*
X466243Y569014D01*
X466171Y569000D01*
X466052Y568951D01*
X465930Y568911D01*
X465866Y568875D01*
X465798Y568848D01*
X465691Y568777D01*
X465579Y568714D01*
X465524Y568666D01*
X465463Y568625D01*
X465372Y568534D01*
X465275Y568450D01*
X465230Y568392D01*
X465178Y568341D01*
X465081Y568201D01*
X465028Y568132D01*
X465013Y568103D01*
X464989Y568068D01*
X464893Y567902D01*
X464420Y567429D01*
X463841Y567094D01*
X463195Y566921D01*
X462891Y566921D01*
X462891Y575462D01*
X462891Y587591D01*
X462883Y587673D01*
X462885Y587756D01*
X462860Y587906D01*
X462851Y587992D01*
X462851Y587993D01*
X462839Y588031D01*
X462831Y588084D01*
X462830Y588085D01*
X462778Y588230D01*
X462733Y588378D01*
X462710Y588419D01*
X462695Y588464D01*
X462615Y588596D01*
X462541Y588732D01*
X462511Y588768D01*
X462487Y588809D01*
X462382Y588923D01*
X462284Y589041D01*
X462247Y589071D01*
X462215Y589105D01*
X462090Y589197D01*
X461970Y589293D01*
X461928Y589315D01*
X461890Y589343D01*
X461749Y589408D01*
X461612Y589479D01*
X461567Y589492D01*
X461524Y589512D01*
X461374Y589547D01*
X461226Y589590D01*
X461178Y589594D01*
X461132Y589605D01*
X460978Y589610D01*
X460824Y589623D01*
X460777Y589618D01*
X460730Y589619D01*
X460578Y589594D01*
X460424Y589576D01*
X460380Y589562D01*
X460333Y589554D01*
X460188Y589499D01*
X460042Y589451D01*
X460000Y589428D01*
X459956Y589411D01*
X459825Y589329D01*
X459691Y589253D01*
X459655Y589222D01*
X459615Y589197D01*
X459503Y589091D01*
X459386Y588990D01*
X459357Y588953D01*
X459323Y588920D01*
X459234Y588794D01*
X459140Y588672D01*
X459119Y588630D01*
X459091Y588591D01*
X459029Y588450D01*
X458960Y588312D01*
X458948Y588266D01*
X458929Y588223D01*
X458896Y588072D01*
X458856Y587923D01*
X458851Y587870D01*
X458842Y587829D01*
X458841Y587743D01*
X458829Y587592D01*
X458829Y577493D01*
X456319Y577493D01*
X456319Y581797D01*
X456492Y582443D01*
X456827Y583022D01*
X457331Y583526D01*
X457342Y583540D01*
X457355Y583551D01*
X457470Y583695D01*
X457586Y583837D01*
X457594Y583853D01*
X457605Y583867D01*
X457689Y584031D01*
X457774Y584193D01*
X457779Y584210D01*
X457787Y584226D01*
X457837Y584403D01*
X457889Y584579D01*
X457891Y584597D01*
X457895Y584614D01*
X457909Y584797D01*
X457925Y584980D01*
X457923Y584998D01*
X457925Y585015D01*
X457902Y585197D01*
X457882Y585380D01*
X457877Y585397D01*
X457874Y585415D01*
X457816Y585588D01*
X457761Y585764D01*
X457752Y585780D01*
X457746Y585796D01*
X457654Y585956D01*
X457566Y586116D01*
X457554Y586130D01*
X457545Y586145D01*
X457331Y586398D01*
X456827Y586902D01*
X456492Y587481D01*
X456319Y588127D01*
X456319Y592431D01*
X460860Y592431D01*
X466748Y592431D01*
X466766Y592432D01*
X466784Y592431D01*
X466966Y592452D01*
X467149Y592470D01*
X467166Y592476D01*
X467183Y592478D01*
X467358Y592535D01*
X467534Y592589D01*
X467549Y592597D01*
X467566Y592603D01*
X467726Y592693D01*
X467888Y592780D01*
X467901Y592792D01*
X467917Y592801D01*
X468056Y592921D01*
X468197Y593038D01*
X468208Y593052D01*
X468222Y593064D01*
X468334Y593209D01*
X468449Y593352D01*
X468457Y593368D01*
X468468Y593382D01*
X468550Y593547D01*
X468635Y593709D01*
X468640Y593726D01*
X468648Y593742D01*
X468695Y593920D01*
X468746Y594096D01*
X468748Y594114D01*
X468752Y594131D01*
X468779Y594462D01*
X468778Y594480D01*
X468779Y594497D01*
X468779Y594498D01*
X468758Y594680D01*
X468739Y594863D01*
X468734Y594880D01*
X468732Y594898D01*
X468675Y595072D01*
X468621Y595248D01*
X468613Y595263D01*
X468607Y595280D01*
X468517Y595441D01*
X468429Y595602D01*
X468418Y595615D01*
X468409Y595631D01*
X468289Y595770D01*
X468172Y595911D01*
X468158Y595922D01*
X468146Y595936D01*
X468001Y596048D01*
X467858Y596163D01*
X467842Y596172D01*
X467828Y596182D01*
X467663Y596264D01*
X467501Y596349D01*
X467484Y596354D01*
X467468Y596362D01*
X467289Y596410D01*
X467114Y596460D01*
X467096Y596462D01*
X467079Y596466D01*
X466748Y596493D01*
X460860Y596493D01*
X456319Y596493D01*
X456319Y600797D01*
X456492Y601443D01*
X456827Y602022D01*
X457300Y602495D01*
X457879Y602830D01*
X458525Y603003D01*
X458829Y603003D01*
X458829Y601332D01*
X458844Y601178D01*
X458852Y601024D01*
X458864Y600978D01*
X458868Y600931D01*
X458914Y600784D01*
X458952Y600634D01*
X458973Y600592D01*
X458987Y600546D01*
X459060Y600411D01*
X459127Y600272D01*
X459156Y600234D01*
X459178Y600192D01*
X459277Y600074D01*
X459370Y599951D01*
X459406Y599919D01*
X459436Y599883D01*
X459556Y599786D01*
X459672Y599684D01*
X459713Y599660D01*
X459750Y599631D01*
X459887Y599560D01*
X460020Y599482D01*
X460065Y599467D01*
X460107Y599445D01*
X460256Y599402D01*
X460402Y599353D01*
X460449Y599347D01*
X460494Y599334D01*
X460648Y599321D01*
X460801Y599301D01*
X460848Y599305D01*
X460895Y599301D01*
X461049Y599319D01*
X461203Y599330D01*
X461248Y599342D01*
X461295Y599348D01*
X461442Y599396D01*
X461591Y599437D01*
X461633Y599458D01*
X461678Y599473D01*
X461812Y599549D01*
X461950Y599618D01*
X461987Y599647D01*
X462029Y599671D01*
X462145Y599771D01*
X462267Y599867D01*
X462298Y599903D01*
X462333Y599934D01*
X462428Y600055D01*
X462528Y600173D01*
X462551Y600215D01*
X462580Y600252D01*
X462649Y600390D01*
X462724Y600525D01*
X462741Y600575D01*
X462759Y600612D01*
X462782Y600696D01*
X462830Y600839D01*
X462831Y600840D01*
X462843Y600922D01*
X462864Y601001D01*
X462864Y601002D01*
X462877Y601153D01*
X462889Y601239D01*
X462887Y601280D01*
X462891Y601333D01*
X462891Y603003D01*
X463194Y603003D01*
X463584Y602898D01*
X463746Y602872D01*
X463907Y602839D01*
X463944Y602839D01*
X463982Y602833D01*
X464146Y602839D01*
X464309Y602839D01*
X464351Y602846D01*
X464384Y602848D01*
X464469Y602868D01*
X464636Y602898D01*
X465025Y603003D01*
X466748Y603003D01*
X466766Y603005D01*
X466784Y603003D01*
X466966Y603024D01*
X467149Y603043D01*
X467166Y603048D01*
X467183Y603050D01*
X467358Y603107D01*
X467534Y603161D01*
X467549Y603169D01*
X467566Y603175D01*
X467726Y603265D01*
X467888Y603353D01*
X467901Y603364D01*
X467917Y603373D01*
X468056Y603493D01*
X468197Y603610D01*
X468208Y603624D01*
X468222Y603636D01*
X468334Y603781D01*
X468449Y603924D01*
X468457Y603940D01*
X468468Y603954D01*
X468550Y604119D01*
X468635Y604281D01*
X468640Y604298D01*
X468648Y604314D01*
X468695Y604493D01*
X468746Y604668D01*
X468748Y604686D01*
X468752Y604703D01*
X468779Y605034D01*
X468779Y606354D01*
X468778Y606371D01*
X468779Y606387D01*
X468778Y606397D01*
X468779Y606407D01*
X468757Y606581D01*
X468739Y606755D01*
X468734Y606773D01*
X468732Y606787D01*
X468730Y606794D01*
X468728Y606807D01*
X468673Y606973D01*
X468621Y607140D01*
X468611Y607159D01*
X468607Y607170D01*
X468605Y607174D01*
X468600Y607189D01*
X468513Y607340D01*
X468429Y607494D01*
X468414Y607512D01*
X468409Y607521D01*
X468408Y607523D01*
X468399Y607537D01*
X468184Y607790D01*
X450642Y625332D01*
X450622Y625349D01*
X450604Y625370D01*
X450466Y625477D01*
X450331Y625587D01*
X450307Y625600D01*
X450286Y625616D01*
X450129Y625694D01*
X449975Y625776D01*
X449950Y625784D01*
X449926Y625796D01*
X449756Y625841D01*
X449589Y625891D01*
X449563Y625893D01*
X449537Y625900D01*
X449206Y625927D01*
X446445Y625927D01*
X444659Y627713D01*
X444659Y639239D01*
X446445Y641025D01*
X455540Y641025D01*
X455558Y641027D01*
X455576Y641025D01*
X455758Y641046D01*
X455941Y641065D01*
X455958Y641070D01*
X455975Y641072D01*
X456150Y641129D01*
X456326Y641183D01*
X456341Y641191D01*
X456358Y641197D01*
X456518Y641287D01*
X456680Y641375D01*
X456693Y641386D01*
X456709Y641395D01*
X456848Y641515D01*
X456989Y641632D01*
X457000Y641646D01*
X457014Y641658D01*
X457126Y641803D01*
X457241Y641946D01*
X457249Y641962D01*
X457260Y641976D01*
X457342Y642141D01*
X457427Y642303D01*
X457432Y642320D01*
X457440Y642336D01*
X457487Y642515D01*
X457538Y642690D01*
X457540Y642708D01*
X457544Y642725D01*
X457571Y643056D01*
X457571Y654678D01*
X457569Y654696D01*
X457571Y654714D01*
X457550Y654896D01*
X457531Y655079D01*
X457526Y655096D01*
X457524Y655113D01*
X457467Y655288D01*
X457413Y655464D01*
X457405Y655479D01*
X457399Y655496D01*
X457309Y655656D01*
X457221Y655818D01*
X457210Y655831D01*
X457201Y655847D01*
X457081Y655986D01*
X456964Y656127D01*
X456950Y656138D01*
X456938Y656152D01*
X456793Y656264D01*
X456650Y656379D01*
X456634Y656387D01*
X456620Y656398D01*
X456455Y656480D01*
X456316Y656553D01*
X456080Y656788D01*
X456010Y656846D01*
X455946Y656911D01*
X455854Y656973D01*
X455769Y657043D01*
X455688Y657086D01*
X455613Y657137D01*
X455511Y657180D01*
X455413Y657232D01*
X455326Y657258D01*
X455242Y657293D01*
X455133Y657315D01*
X455027Y657347D01*
X454936Y657355D01*
X454847Y657373D01*
X454736Y657373D01*
X454626Y657383D01*
X454535Y657373D01*
X454444Y657374D01*
X454309Y657349D01*
X454226Y657340D01*
X454180Y657325D01*
X454118Y657314D01*
X453756Y657217D01*
X450171Y657217D01*
X450171Y666040D01*
X450169Y666058D01*
X450171Y666075D01*
X450150Y666258D01*
X450131Y666440D01*
X450126Y666457D01*
X450124Y666475D01*
X450067Y666650D01*
X450013Y666825D01*
X450005Y666841D01*
X449999Y666858D01*
X449909Y667018D01*
X449821Y667179D01*
X449810Y667193D01*
X449801Y667209D01*
X449756Y667261D01*
X449841Y667366D01*
X449849Y667382D01*
X449860Y667396D01*
X449942Y667561D01*
X450027Y667724D01*
X450032Y667741D01*
X450040Y667757D01*
X450087Y667935D01*
X450138Y668110D01*
X450140Y668128D01*
X450144Y668145D01*
X450171Y668476D01*
X450171Y677299D01*
X453756Y677299D01*
X454118Y677202D01*
X454208Y677187D01*
X454296Y677163D01*
X454406Y677155D01*
X454515Y677137D01*
X454606Y677140D01*
X454697Y677133D01*
X454807Y677147D01*
X454918Y677151D01*
X455006Y677172D01*
X455097Y677184D01*
X455201Y677219D01*
X455309Y677245D01*
X455392Y677283D01*
X455478Y677312D01*
X455574Y677367D01*
X455675Y677414D01*
X455748Y677467D01*
X455827Y677513D01*
X455932Y677602D01*
X456000Y677651D01*
X456032Y677687D01*
X456080Y677728D01*
X456159Y677807D01*
X471685Y677807D01*
X473471Y676021D01*
X473471Y674370D01*
X473473Y674352D01*
X473471Y674334D01*
X473492Y674152D01*
X473511Y673969D01*
X473516Y673952D01*
X473518Y673935D01*
X473575Y673760D01*
X473629Y673584D01*
X473637Y673569D01*
X473643Y673552D01*
X473733Y673392D01*
X473821Y673230D01*
X473832Y673217D01*
X473841Y673201D01*
X473961Y673062D01*
X474078Y672921D01*
X474092Y672910D01*
X474104Y672896D01*
X474249Y672784D01*
X474392Y672669D01*
X474408Y672661D01*
X474422Y672650D01*
X474587Y672568D01*
X474749Y672483D01*
X474766Y672478D01*
X474782Y672470D01*
X474961Y672423D01*
X475136Y672372D01*
X475154Y672370D01*
X475171Y672366D01*
X475502Y672339D01*
X477769Y672339D01*
X479636Y671565D01*
X481351Y669850D01*
X495492Y655710D01*
X495499Y655704D01*
X495504Y655697D01*
X495654Y655577D01*
X495803Y655454D01*
X495811Y655450D01*
X495818Y655445D01*
X495989Y655356D01*
X496159Y655266D01*
X496167Y655263D01*
X496175Y655259D01*
X496361Y655206D01*
X496545Y655151D01*
X496554Y655150D01*
X496562Y655148D01*
X496754Y655132D01*
X496946Y655115D01*
X496955Y655116D01*
X496964Y655115D01*
X497153Y655137D01*
X497346Y655158D01*
X497355Y655161D01*
X497363Y655162D01*
X497545Y655221D01*
X497730Y655280D01*
X497738Y655284D01*
X497746Y655287D01*
X497915Y655382D01*
X498082Y655474D01*
X498089Y655480D01*
X498097Y655485D01*
X498243Y655611D01*
X498389Y655735D01*
X498395Y655742D01*
X498402Y655748D01*
X498519Y655899D01*
X498639Y656051D01*
X498643Y656059D01*
X498648Y656066D01*
X498734Y656238D01*
X498821Y656410D01*
X498824Y656418D01*
X498828Y656426D01*
X498878Y656613D01*
X498929Y656798D01*
X498930Y656806D01*
X498932Y656815D01*
X498959Y657146D01*
X498959Y696722D01*
X498957Y696740D01*
X498959Y696758D01*
X498938Y696940D01*
X498919Y697123D01*
X498914Y697140D01*
X498912Y697157D01*
X498855Y697332D01*
X498801Y697508D01*
X498793Y697523D01*
X498787Y697540D01*
X498697Y697700D01*
X498609Y697862D01*
X498598Y697875D01*
X498589Y697891D01*
X498469Y698030D01*
X498352Y698171D01*
X498338Y698182D01*
X498326Y698196D01*
X498181Y698308D01*
X498038Y698423D01*
X498022Y698431D01*
X498008Y698442D01*
X497843Y698524D01*
X497681Y698609D01*
X497664Y698614D01*
X497648Y698622D01*
X497469Y698669D01*
X497294Y698720D01*
X497276Y698722D01*
X497259Y698726D01*
X496928Y698753D01*
X489138Y698753D01*
X489120Y698751D01*
X489102Y698753D01*
X488920Y698732D01*
X488737Y698713D01*
X488720Y698708D01*
X488703Y698706D01*
X488528Y698649D01*
X488352Y698595D01*
X488337Y698587D01*
X488320Y698581D01*
X488160Y698491D01*
X487998Y698403D01*
X487985Y698392D01*
X487969Y698383D01*
X487830Y698263D01*
X487689Y698146D01*
X487678Y698132D01*
X487664Y698120D01*
X487552Y697975D01*
X487437Y697832D01*
X487429Y697816D01*
X487418Y697802D01*
X487336Y697637D01*
X487251Y697475D01*
X487246Y697458D01*
X487238Y697442D01*
X487191Y697263D01*
X487140Y697088D01*
X487138Y697070D01*
X487134Y697053D01*
X487107Y696722D01*
X487107Y688739D01*
X485321Y686953D01*
X472295Y686953D01*
X470509Y688739D01*
X470509Y699687D01*
X470507Y699714D01*
X470509Y699741D01*
X470487Y699915D01*
X470469Y700088D01*
X470462Y700113D01*
X470458Y700140D01*
X470403Y700306D01*
X470351Y700473D01*
X470338Y700496D01*
X470330Y700522D01*
X470243Y700673D01*
X470159Y700827D01*
X470142Y700847D01*
X470129Y700871D01*
X469914Y701124D01*
X465494Y705544D01*
X465481Y705555D01*
X465469Y705569D01*
X465325Y705682D01*
X465183Y705799D01*
X465167Y705807D01*
X465153Y705818D01*
X464989Y705901D01*
X464827Y705987D01*
X464810Y705992D01*
X464794Y706001D01*
X464617Y706050D01*
X464441Y706102D01*
X464423Y706104D01*
X464406Y706109D01*
X464223Y706122D01*
X464040Y706139D01*
X464022Y706137D01*
X464005Y706138D01*
X463823Y706115D01*
X463640Y706095D01*
X463623Y706090D01*
X463605Y706087D01*
X463432Y706029D01*
X463256Y705974D01*
X463240Y705965D01*
X463224Y705959D01*
X463064Y705867D01*
X462904Y705779D01*
X462890Y705767D01*
X462875Y705758D01*
X462622Y705544D01*
X458202Y701124D01*
X458185Y701103D01*
X458164Y701085D01*
X458057Y700947D01*
X457947Y700812D01*
X457934Y700788D01*
X457918Y700767D01*
X457840Y700610D01*
X457758Y700456D01*
X457750Y700431D01*
X457738Y700407D01*
X457693Y700237D01*
X457643Y700070D01*
X457641Y700044D01*
X457634Y700018D01*
X457607Y699687D01*
X457607Y688739D01*
X455821Y686953D01*
X442795Y686953D01*
X441009Y688739D01*
X441009Y696722D01*
X441007Y696740D01*
X441009Y696758D01*
X440988Y696940D01*
X440969Y697123D01*
X440964Y697140D01*
X440962Y697157D01*
X440905Y697332D01*
X440851Y697508D01*
X440843Y697523D01*
X440837Y697540D01*
X440747Y697700D01*
X440659Y697862D01*
X440648Y697875D01*
X440639Y697891D01*
X440519Y698030D01*
X440402Y698171D01*
X440388Y698182D01*
X440376Y698196D01*
X440231Y698308D01*
X440088Y698423D01*
X440072Y698431D01*
X440058Y698442D01*
X439893Y698524D01*
X439731Y698609D01*
X439714Y698614D01*
X439698Y698622D01*
X439519Y698669D01*
X439344Y698720D01*
X439326Y698722D01*
X439309Y698726D01*
X438978Y698753D01*
X232833Y698753D01*
X227045Y701151D01*
X202833Y725363D01*
X200435Y731151D01*
X200435Y797933D01*
X202981Y804078D01*
X202990Y804108D01*
X203004Y804136D01*
X203048Y804300D01*
X203097Y804463D01*
X203100Y804494D01*
X203108Y804524D01*
X203135Y804855D01*
X203135Y813063D01*
X204921Y814849D01*
X227447Y814849D01*
X229233Y813063D01*
X229233Y804855D01*
X229236Y804824D01*
X229234Y804793D01*
X229256Y804623D01*
X229273Y804454D01*
X229282Y804425D01*
X229286Y804394D01*
X229387Y804078D01*
X231933Y797933D01*
X231933Y741649D01*
X231935Y741622D01*
X231933Y741595D01*
X231955Y741421D01*
X231973Y741248D01*
X231980Y741223D01*
X231984Y741196D01*
X232039Y741030D01*
X232091Y740863D01*
X232104Y740840D01*
X232112Y740814D01*
X232199Y740663D01*
X232283Y740509D01*
X232300Y740489D01*
X232313Y740465D01*
X232528Y740212D01*
X241894Y730846D01*
X241912Y730831D01*
X241925Y730816D01*
X241928Y730813D01*
X241933Y730808D01*
X242071Y730701D01*
X242206Y730591D01*
X242230Y730578D01*
X242251Y730562D01*
X242408Y730484D01*
X242562Y730402D01*
X242587Y730394D01*
X242611Y730382D01*
X242781Y730337D01*
X242948Y730287D01*
X242974Y730285D01*
X243000Y730278D01*
X243331Y730251D01*
X268479Y730251D01*
X268488Y730252D01*
X268497Y730251D01*
X268690Y730272D01*
X268880Y730291D01*
X268888Y730293D01*
X268897Y730294D01*
X269081Y730352D01*
X269265Y730409D01*
X269273Y730413D01*
X269281Y730416D01*
X269449Y730508D01*
X269619Y730601D01*
X269626Y730606D01*
X269634Y730611D01*
X269781Y730735D01*
X269928Y730858D01*
X269934Y730865D01*
X269941Y730871D01*
X270060Y731023D01*
X270181Y731172D01*
X270185Y731180D01*
X270190Y731187D01*
X270278Y731360D01*
X270366Y731529D01*
X270368Y731538D01*
X270373Y731546D01*
X270424Y731732D01*
X270477Y731916D01*
X270478Y731925D01*
X270481Y731934D01*
X270495Y732127D01*
X270510Y732318D01*
X270509Y732326D01*
X270510Y732335D01*
X270486Y732528D01*
X270463Y732717D01*
X270461Y732726D01*
X270460Y732735D01*
X270398Y732918D01*
X270339Y733100D01*
X270334Y733108D01*
X270331Y733116D01*
X270235Y733283D01*
X270141Y733451D01*
X270135Y733458D01*
X270130Y733465D01*
X269916Y733718D01*
X253633Y750001D01*
X251235Y755789D01*
X251235Y797933D01*
X253781Y804078D01*
X253790Y804108D01*
X253804Y804136D01*
X253848Y804300D01*
X253897Y804463D01*
X253900Y804494D01*
X253908Y804524D01*
X253935Y804855D01*
X253935Y813063D01*
X255721Y814849D01*
X278247Y814849D01*
X280033Y813063D01*
X280033Y804855D01*
X280036Y804824D01*
X280034Y804793D01*
X280056Y804623D01*
X280073Y804454D01*
X280082Y804425D01*
X280086Y804394D01*
X280187Y804078D01*
X282733Y797933D01*
X282733Y766287D01*
X282735Y766260D01*
X282733Y766233D01*
X282755Y766059D01*
X282773Y765886D01*
X282780Y765861D01*
X282784Y765834D01*
X282839Y765668D01*
X282891Y765501D01*
X282904Y765478D01*
X282912Y765452D01*
X282999Y765301D01*
X283083Y765147D01*
X283100Y765127D01*
X283113Y765103D01*
X283328Y764850D01*
X286852Y761326D01*
X286873Y761309D01*
X286891Y761288D01*
X287029Y761181D01*
X287164Y761071D01*
X287188Y761058D01*
X287209Y761042D01*
X287366Y760964D01*
X287520Y760882D01*
X287545Y760874D01*
X287569Y760862D01*
X287739Y760817D01*
X287906Y760767D01*
X287932Y760765D01*
X287958Y760758D01*
X288289Y760731D01*
X407671Y760731D01*
X407698Y760733D01*
X407725Y760731D01*
X407899Y760753D01*
X408072Y760771D01*
X408097Y760778D01*
X408124Y760782D01*
X408290Y760837D01*
X408457Y760889D01*
X408480Y760902D01*
X408506Y760910D01*
X408657Y760997D01*
X408811Y761081D01*
X408831Y761098D01*
X408855Y761111D01*
X409108Y761326D01*
X420703Y772921D01*
X425419Y777637D01*
X431207Y780035D01*
X526543Y780035D01*
X526570Y780037D01*
X526597Y780035D01*
X526771Y780057D01*
X526944Y780075D01*
X526969Y780082D01*
X526996Y780086D01*
X527162Y780142D01*
X527329Y780193D01*
X527352Y780206D01*
X527378Y780214D01*
X527529Y780301D01*
X527683Y780385D01*
X527703Y780402D01*
X527727Y780415D01*
X527980Y780630D01*
X533312Y785962D01*
X533329Y785983D01*
X533350Y786001D01*
X533457Y786139D01*
X533567Y786274D01*
X533580Y786298D01*
X533596Y786319D01*
X533674Y786476D01*
X533756Y786630D01*
X533764Y786655D01*
X533776Y786679D01*
X533821Y786849D01*
X533871Y787016D01*
X533873Y787042D01*
X533880Y787068D01*
X533907Y787399D01*
X533907Y834221D01*
X536305Y840009D01*
X563705Y867409D01*
X565572Y869276D01*
X565577Y869283D01*
X565584Y869288D01*
X565704Y869438D01*
X565827Y869587D01*
X565831Y869595D01*
X565837Y869602D01*
X565925Y869772D01*
X566015Y869943D01*
X566018Y869952D01*
X566022Y869959D01*
X566075Y870144D01*
X566130Y870329D01*
X566131Y870338D01*
X566133Y870346D01*
X566149Y870537D01*
X566167Y870730D01*
X566166Y870739D01*
X566166Y870748D01*
X566144Y870937D01*
X566123Y871130D01*
X566120Y871139D01*
X566119Y871147D01*
X566060Y871329D01*
X566002Y871514D01*
X565997Y871522D01*
X565995Y871530D01*
X565900Y871697D01*
X565807Y871866D01*
X565801Y871873D01*
X565797Y871881D01*
X565672Y872026D01*
X565546Y872173D01*
X565539Y872179D01*
X565533Y872186D01*
X565383Y872302D01*
X565230Y872423D01*
X565222Y872427D01*
X565215Y872432D01*
X565044Y872518D01*
X564871Y872605D01*
X564863Y872608D01*
X564855Y872612D01*
X564669Y872662D01*
X564484Y872713D01*
X564475Y872714D01*
X564466Y872716D01*
X564135Y872743D01*
X435264Y872743D01*
X435238Y872741D01*
X435211Y872743D01*
X435037Y872721D01*
X434864Y872703D01*
X434838Y872696D01*
X434812Y872692D01*
X434646Y872637D01*
X434479Y872585D01*
X434455Y872572D01*
X434430Y872564D01*
X434278Y872477D01*
X434125Y872393D01*
X434104Y872376D01*
X434081Y872363D01*
X433828Y872148D01*
X433822Y872142D01*
X430368Y870711D01*
X426628Y870711D01*
X423174Y872142D01*
X420530Y874786D01*
X419099Y878240D01*
X419099Y881980D01*
X420530Y885434D01*
X425206Y890110D01*
X428660Y891541D01*
X700116Y891541D01*
X703570Y890110D01*
X706214Y887466D01*
X707645Y884012D01*
X707645Y880272D01*
X706214Y876818D01*
X703284Y873889D01*
X703284Y873888D01*
X696048Y866652D01*
X696031Y866631D01*
X696010Y866614D01*
X695903Y866476D01*
X695793Y866340D01*
X695780Y866317D01*
X695764Y866296D01*
X695686Y866139D01*
X695604Y865985D01*
X695596Y865959D01*
X695584Y865935D01*
X695539Y865766D01*
X695489Y865599D01*
X695487Y865572D01*
X695480Y865546D01*
X695453Y865216D01*
X695453Y839070D01*
X695455Y839044D01*
X695453Y839017D01*
X695475Y838843D01*
X695493Y838670D01*
X695500Y838644D01*
X695504Y838618D01*
X695559Y838452D01*
X695611Y838285D01*
X695624Y838261D01*
X695632Y838236D01*
X695719Y838084D01*
X695803Y837931D01*
X695820Y837910D01*
X695833Y837887D01*
X696048Y837634D01*
X719583Y814099D01*
X719597Y814088D01*
X719608Y814074D01*
X719752Y813960D01*
X719894Y813844D01*
X719910Y813836D01*
X719924Y813824D01*
X720088Y813741D01*
X720250Y813655D01*
X720267Y813650D01*
X720283Y813642D01*
X720461Y813593D01*
X720636Y813540D01*
X720654Y813539D01*
X720671Y813534D01*
X720854Y813521D01*
X721037Y813504D01*
X721055Y813506D01*
X721072Y813505D01*
X721254Y813528D01*
X721437Y813547D01*
X721454Y813553D01*
X721472Y813555D01*
X721645Y813613D01*
X721821Y813669D01*
X721837Y813678D01*
X721853Y813683D01*
X722013Y813775D01*
X722173Y813864D01*
X722187Y813875D01*
X722202Y813884D01*
X722455Y814099D01*
X722775Y814419D01*
X734301Y814419D01*
X736087Y812633D01*
X736087Y802490D01*
X736089Y802472D01*
X736087Y802454D01*
X736108Y802272D01*
X736127Y802089D01*
X736132Y802072D01*
X736134Y802055D01*
X736191Y801880D01*
X736245Y801704D01*
X736253Y801689D01*
X736259Y801672D01*
X736349Y801512D01*
X736437Y801350D01*
X736448Y801337D01*
X736457Y801321D01*
X736577Y801182D01*
X736694Y801041D01*
X736708Y801030D01*
X736720Y801016D01*
X736865Y800904D01*
X737008Y800789D01*
X737024Y800781D01*
X737038Y800770D01*
X737203Y800688D01*
X737365Y800603D01*
X737382Y800598D01*
X737398Y800590D01*
X737577Y800543D01*
X737752Y800492D01*
X737770Y800490D01*
X737787Y800486D01*
X738118Y800459D01*
X741586Y800459D01*
X741604Y800461D01*
X741622Y800459D01*
X741804Y800480D01*
X741987Y800499D01*
X742004Y800504D01*
X742021Y800506D01*
X742196Y800563D01*
X742372Y800617D01*
X742387Y800625D01*
X742404Y800631D01*
X742564Y800721D01*
X742726Y800809D01*
X742739Y800820D01*
X742755Y800829D01*
X742894Y800949D01*
X743035Y801066D01*
X743046Y801080D01*
X743060Y801092D01*
X743172Y801237D01*
X743287Y801380D01*
X743295Y801396D01*
X743306Y801410D01*
X743388Y801575D01*
X743473Y801737D01*
X743478Y801754D01*
X743486Y801770D01*
X743533Y801949D01*
X743584Y802124D01*
X743586Y802142D01*
X743590Y802159D01*
X743617Y802490D01*
X743617Y813063D01*
X745403Y814849D01*
X767929Y814849D01*
X768414Y814364D01*
X768534Y814265D01*
X768649Y814162D01*
X768689Y814138D01*
X768725Y814109D01*
X768862Y814036D01*
X768996Y813957D01*
X769040Y813942D01*
X769081Y813920D01*
X769229Y813876D01*
X769376Y813825D01*
X769422Y813818D01*
X769467Y813805D01*
X769621Y813791D01*
X769775Y813770D01*
X769822Y813773D01*
X769868Y813769D01*
X770022Y813786D01*
X770177Y813795D01*
X770222Y813807D01*
X770268Y813812D01*
X770416Y813859D01*
X770566Y813899D01*
X770613Y813921D01*
X770652Y813934D01*
X770728Y813976D01*
X770866Y814041D01*
X771085Y814168D01*
X771731Y814341D01*
X778003Y814341D01*
X778003Y796832D01*
X778005Y796814D01*
X778003Y796797D01*
X778025Y796614D01*
X778043Y796431D01*
X778048Y796414D01*
X778050Y796397D01*
X778107Y796222D01*
X778161Y796047D01*
X778169Y796031D01*
X778175Y796014D01*
X778265Y795854D01*
X778353Y795693D01*
X778364Y795679D01*
X778373Y795663D01*
X778493Y795524D01*
X778610Y795383D01*
X778624Y795372D01*
X778636Y795359D01*
X778781Y795246D01*
X778924Y795131D01*
X778940Y795123D01*
X778954Y795112D01*
X779119Y795030D01*
X779281Y794945D01*
X779298Y794941D01*
X779315Y794933D01*
X779493Y794885D01*
X779668Y794834D01*
X779686Y794833D01*
X779703Y794828D01*
X780034Y794801D01*
X782067Y794801D01*
X782067Y794799D01*
X780034Y794799D01*
X780016Y794797D01*
X779999Y794799D01*
X779816Y794777D01*
X779633Y794759D01*
X779616Y794754D01*
X779599Y794752D01*
X779424Y794695D01*
X779249Y794641D01*
X779233Y794633D01*
X779216Y794627D01*
X779056Y794537D01*
X778894Y794449D01*
X778881Y794438D01*
X778865Y794429D01*
X778726Y794309D01*
X778585Y794192D01*
X778574Y794178D01*
X778561Y794166D01*
X778448Y794021D01*
X778333Y793878D01*
X778325Y793862D01*
X778314Y793848D01*
X778232Y793683D01*
X778147Y793521D01*
X778142Y793503D01*
X778134Y793487D01*
X778087Y793309D01*
X778036Y793134D01*
X778035Y793116D01*
X778030Y793099D01*
X778003Y792768D01*
X778003Y775259D01*
X771731Y775259D01*
X771085Y775432D01*
X770866Y775559D01*
X770724Y775623D01*
X770586Y775693D01*
X770541Y775706D01*
X770499Y775725D01*
X770348Y775760D01*
X770198Y775801D01*
X770152Y775805D01*
X770107Y775815D01*
X769952Y775819D01*
X769797Y775831D01*
X769751Y775825D01*
X769704Y775826D01*
X769551Y775800D01*
X769397Y775780D01*
X769353Y775765D01*
X769307Y775757D01*
X769163Y775701D01*
X769016Y775652D01*
X768975Y775629D01*
X768932Y775612D01*
X768801Y775528D01*
X768667Y775451D01*
X768627Y775417D01*
X768593Y775395D01*
X768530Y775335D01*
X768414Y775236D01*
X767929Y774751D01*
X745403Y774751D01*
X743617Y776537D01*
X743617Y787250D01*
X743615Y787268D01*
X743617Y787286D01*
X743596Y787468D01*
X743577Y787651D01*
X743572Y787668D01*
X743570Y787685D01*
X743513Y787860D01*
X743459Y788036D01*
X743451Y788051D01*
X743445Y788068D01*
X743355Y788228D01*
X743267Y788390D01*
X743256Y788403D01*
X743247Y788419D01*
X743127Y788558D01*
X743010Y788699D01*
X742996Y788710D01*
X742984Y788724D01*
X742839Y788836D01*
X742696Y788951D01*
X742680Y788959D01*
X742666Y788970D01*
X742501Y789052D01*
X742339Y789137D01*
X742322Y789142D01*
X742306Y789150D01*
X742127Y789197D01*
X741952Y789248D01*
X741934Y789250D01*
X741917Y789254D01*
X741586Y789281D01*
X736102Y789281D01*
X736076Y789279D01*
X736049Y789281D01*
X735875Y789259D01*
X735702Y789241D01*
X735676Y789234D01*
X735649Y789230D01*
X735484Y789175D01*
X735317Y789123D01*
X735293Y789110D01*
X735268Y789102D01*
X735116Y789015D01*
X734963Y788931D01*
X734942Y788914D01*
X734919Y788901D01*
X734666Y788686D01*
X734301Y788321D01*
X722775Y788321D01*
X720989Y790107D01*
X720989Y800250D01*
X720987Y800268D01*
X720989Y800286D01*
X720968Y800468D01*
X720949Y800651D01*
X720944Y800668D01*
X720942Y800685D01*
X720885Y800860D01*
X720831Y801036D01*
X720823Y801051D01*
X720817Y801068D01*
X720727Y801228D01*
X720639Y801390D01*
X720628Y801403D01*
X720619Y801419D01*
X720499Y801558D01*
X720382Y801699D01*
X720368Y801710D01*
X720356Y801724D01*
X720211Y801836D01*
X720068Y801951D01*
X720052Y801959D01*
X720038Y801970D01*
X719873Y802052D01*
X719711Y802137D01*
X719694Y802142D01*
X719678Y802150D01*
X719499Y802197D01*
X719324Y802248D01*
X719306Y802250D01*
X719289Y802254D01*
X718958Y802281D01*
X716796Y802281D01*
X714742Y803132D01*
X712885Y804990D01*
X712884Y804990D01*
X688144Y829730D01*
X688123Y829747D01*
X688106Y829768D01*
X687968Y829875D01*
X687832Y829985D01*
X687809Y829998D01*
X687788Y830014D01*
X687631Y830092D01*
X687477Y830174D01*
X687451Y830182D01*
X687427Y830194D01*
X687258Y830239D01*
X687091Y830289D01*
X687064Y830291D01*
X687038Y830298D01*
X686708Y830325D01*
X684184Y830325D01*
X680730Y831756D01*
X678086Y834400D01*
X676655Y837854D01*
X676655Y870712D01*
X676653Y870730D01*
X676655Y870748D01*
X676634Y870930D01*
X676615Y871113D01*
X676610Y871130D01*
X676608Y871147D01*
X676551Y871322D01*
X676497Y871498D01*
X676489Y871513D01*
X676483Y871530D01*
X676393Y871690D01*
X676305Y871852D01*
X676294Y871865D01*
X676285Y871881D01*
X676165Y872020D01*
X676048Y872161D01*
X676034Y872172D01*
X676022Y872186D01*
X675877Y872298D01*
X675734Y872413D01*
X675718Y872421D01*
X675704Y872432D01*
X675539Y872514D01*
X675377Y872599D01*
X675360Y872604D01*
X675344Y872612D01*
X675165Y872659D01*
X674990Y872710D01*
X674972Y872712D01*
X674955Y872716D01*
X674624Y872743D01*
X652525Y872743D01*
X652516Y872742D01*
X652507Y872743D01*
X652315Y872722D01*
X652124Y872703D01*
X652115Y872701D01*
X652107Y872700D01*
X651924Y872642D01*
X651739Y872585D01*
X651731Y872581D01*
X651723Y872578D01*
X651554Y872485D01*
X651385Y872393D01*
X651378Y872388D01*
X651370Y872383D01*
X651223Y872258D01*
X651076Y872136D01*
X651070Y872129D01*
X651063Y872123D01*
X650943Y871971D01*
X650823Y871822D01*
X650819Y871814D01*
X650814Y871807D01*
X650726Y871634D01*
X650638Y871465D01*
X650636Y871456D01*
X650631Y871448D01*
X650580Y871262D01*
X650527Y871078D01*
X650526Y871069D01*
X650523Y871060D01*
X650509Y870868D01*
X650494Y870676D01*
X650495Y870668D01*
X650494Y870659D01*
X650518Y870466D01*
X650541Y870277D01*
X650543Y870268D01*
X650544Y870259D01*
X650606Y870076D01*
X650665Y869894D01*
X650670Y869886D01*
X650673Y869878D01*
X650768Y869712D01*
X650863Y869543D01*
X650869Y869536D01*
X650874Y869529D01*
X651088Y869276D01*
X652955Y867409D01*
X668417Y851947D01*
X670815Y846159D01*
X670815Y723137D01*
X670817Y723110D01*
X670815Y723083D01*
X670837Y722909D01*
X670855Y722736D01*
X670862Y722711D01*
X670866Y722684D01*
X670921Y722518D01*
X670973Y722351D01*
X670986Y722328D01*
X670994Y722302D01*
X671081Y722151D01*
X671165Y721997D01*
X671182Y721977D01*
X671195Y721953D01*
X671410Y721700D01*
X697824Y695286D01*
X697845Y695269D01*
X697863Y695248D01*
X698001Y695141D01*
X698136Y695031D01*
X698160Y695018D01*
X698181Y695002D01*
X698338Y694924D01*
X698492Y694842D01*
X698517Y694834D01*
X698541Y694822D01*
X698711Y694777D01*
X698878Y694727D01*
X698904Y694725D01*
X698930Y694718D01*
X699261Y694691D01*
X829141Y694691D01*
X834929Y692293D01*
X901788Y625434D01*
X901795Y625429D01*
X901800Y625422D01*
X901950Y625302D01*
X902099Y625179D01*
X902107Y625175D01*
X902114Y625170D01*
X902285Y625081D01*
X902455Y624991D01*
X902463Y624988D01*
X902471Y624984D01*
X902657Y624931D01*
X902841Y624876D01*
X902850Y624875D01*
X902858Y624873D01*
X903050Y624857D01*
X903242Y624839D01*
X903251Y624840D01*
X903260Y624840D01*
X903449Y624862D01*
X903642Y624883D01*
X903651Y624886D01*
X903659Y624887D01*
X903841Y624946D01*
X904026Y625004D01*
X904034Y625009D01*
X904042Y625011D01*
X904211Y625107D01*
X904378Y625199D01*
X904385Y625205D01*
X904393Y625209D01*
X904539Y625335D01*
X904685Y625460D01*
X904691Y625467D01*
X904698Y625473D01*
X904815Y625624D01*
X904935Y625776D01*
X904939Y625784D01*
X904944Y625791D01*
X905030Y625963D01*
X905117Y626135D01*
X905120Y626143D01*
X905124Y626151D01*
X905174Y626338D01*
X905225Y626522D01*
X905226Y626531D01*
X905228Y626540D01*
X905255Y626871D01*
X905255Y831647D01*
X905255Y831655D01*
X905255Y831662D01*
X905235Y831855D01*
X905215Y832048D01*
X905213Y832055D01*
X905212Y832063D01*
X905118Y832381D01*
X902141Y840065D01*
X902141Y849520D01*
X905118Y857205D01*
X905120Y857212D01*
X905124Y857219D01*
X905174Y857407D01*
X905226Y857593D01*
X905226Y857600D01*
X905228Y857608D01*
X905255Y857938D01*
X905255Y869858D01*
X905250Y869908D01*
X905253Y869959D01*
X905230Y870108D01*
X905215Y870258D01*
X905200Y870307D01*
X905193Y870357D01*
X905142Y870499D01*
X905097Y870643D01*
X905073Y870688D01*
X905056Y870735D01*
X904977Y870865D01*
X904905Y870997D01*
X904873Y871036D01*
X904847Y871080D01*
X904744Y871191D01*
X904648Y871307D01*
X904608Y871338D01*
X904574Y871376D01*
X904452Y871464D01*
X904334Y871559D01*
X904289Y871582D01*
X904248Y871612D01*
X904038Y871713D01*
X903977Y871744D01*
X903964Y871748D01*
X903949Y871755D01*
X902487Y872314D01*
X897169Y874345D01*
X896057Y874770D01*
X890188Y880425D01*
X886999Y887925D01*
X886999Y899922D01*
X886997Y899940D01*
X886999Y899958D01*
X886978Y900140D01*
X886959Y900323D01*
X886954Y900340D01*
X886952Y900357D01*
X886895Y900532D01*
X886841Y900708D01*
X886833Y900723D01*
X886827Y900740D01*
X886737Y900900D01*
X886649Y901062D01*
X886638Y901075D01*
X886629Y901091D01*
X886509Y901230D01*
X886392Y901371D01*
X886378Y901382D01*
X886366Y901396D01*
X886221Y901508D01*
X886078Y901623D01*
X886062Y901631D01*
X886048Y901642D01*
X885883Y901724D01*
X885721Y901809D01*
X885704Y901814D01*
X885688Y901822D01*
X885509Y901869D01*
X885334Y901920D01*
X885316Y901922D01*
X885299Y901926D01*
X884968Y901953D01*
X798383Y901953D01*
X798295Y901945D01*
X798208Y901946D01*
X798095Y901925D01*
X797982Y901913D01*
X797898Y901888D01*
X797812Y901871D01*
X797706Y901829D01*
X797597Y901795D01*
X797520Y901753D01*
X797439Y901721D01*
X797318Y901644D01*
X797243Y901603D01*
X797209Y901575D01*
X797158Y901543D01*
X794276Y899366D01*
X785182Y896779D01*
X775768Y897651D01*
X767556Y901740D01*
X767461Y901776D01*
X767370Y901822D01*
X767273Y901848D01*
X767179Y901883D01*
X767079Y901900D01*
X766981Y901926D01*
X766860Y901936D01*
X766782Y901949D01*
X766726Y901947D01*
X766650Y901953D01*
X748029Y901953D01*
X748029Y942848D01*
X748027Y942875D01*
X748029Y942901D01*
X748007Y943075D01*
X747989Y943249D01*
X747982Y943274D01*
X747978Y943301D01*
X747923Y943466D01*
X747871Y943634D01*
X747858Y943657D01*
X747850Y943682D01*
X747763Y943834D01*
X747679Y943988D01*
X747662Y944008D01*
X747649Y944031D01*
X747434Y944284D01*
X746926Y944792D01*
X746906Y944809D01*
X746888Y944830D01*
X746750Y944937D01*
X746615Y945047D01*
X746591Y945060D01*
X746570Y945076D01*
X746413Y945154D01*
X746259Y945236D01*
X746234Y945244D01*
X746210Y945256D01*
X746040Y945301D01*
X745873Y945351D01*
X745847Y945353D01*
X745821Y945360D01*
X745490Y945387D01*
X225044Y945387D01*
X225017Y945385D01*
X224991Y945387D01*
X224817Y945365D01*
X224643Y945347D01*
X224618Y945340D01*
X224591Y945336D01*
X224426Y945281D01*
X224258Y945229D01*
X224235Y945216D01*
X224210Y945208D01*
X224058Y945121D01*
X223904Y945037D01*
X223884Y945020D01*
X223861Y945007D01*
X223608Y944792D01*
X223354Y944538D01*
X223342Y944525D01*
X223329Y944513D01*
X223215Y944369D01*
X223099Y944227D01*
X223090Y944211D01*
X223079Y944197D01*
X222996Y944033D01*
X222910Y943871D01*
X222905Y943854D01*
X222897Y943838D01*
X222847Y943661D01*
X222795Y943485D01*
X222794Y943467D01*
X222789Y943450D01*
X222775Y943267D01*
X222759Y943084D01*
X222761Y943066D01*
X222759Y943049D01*
X222782Y942867D01*
X222802Y942684D01*
X222808Y942667D01*
X222810Y942649D01*
X222868Y942476D01*
X222924Y942300D01*
X222932Y942284D01*
X222938Y942268D01*
X223013Y942138D01*
X223013Y894587D01*
X139954Y894587D01*
X139936Y894585D01*
X139918Y894587D01*
X139736Y894566D01*
X139553Y894547D01*
X139536Y894542D01*
X139519Y894540D01*
X139344Y894483D01*
X139168Y894429D01*
X139153Y894421D01*
X139136Y894415D01*
X138975Y894325D01*
X138814Y894237D01*
X138801Y894226D01*
X138785Y894217D01*
X138646Y894097D01*
X138505Y893980D01*
X138494Y893966D01*
X138481Y893954D01*
X138367Y893808D01*
X138253Y893666D01*
X138245Y893650D01*
X138234Y893636D01*
X138152Y893471D01*
X138067Y893309D01*
X138062Y893292D01*
X138054Y893276D01*
X138007Y893097D01*
X137956Y892922D01*
X137954Y892904D01*
X137950Y892887D01*
X137923Y892556D01*
X137923Y492190D01*
X137934Y492076D01*
X137936Y491962D01*
X137954Y491876D01*
X137963Y491789D01*
X137996Y491680D01*
X138020Y491568D01*
X138055Y491488D01*
X138081Y491404D01*
X138135Y491304D01*
X138181Y491199D01*
X138239Y491113D01*
X138273Y491050D01*
X138314Y491000D01*
X138366Y490923D01*
X138374Y490913D01*
X139831Y484531D01*
X138374Y478148D01*
X138366Y478137D01*
X138304Y478041D01*
X138234Y477951D01*
X138195Y477873D01*
X138147Y477799D01*
X138105Y477693D01*
X138054Y477591D01*
X138032Y477506D01*
X138000Y477425D01*
X137980Y477312D01*
X137950Y477202D01*
X137941Y477099D01*
X137929Y477028D01*
X137930Y476963D01*
X137923Y476871D01*
X137923Y412586D01*
X137924Y412577D01*
X137923Y412568D01*
X137944Y412375D01*
X137963Y412186D01*
X137965Y412177D01*
X137966Y412168D01*
X138025Y411984D01*
X138081Y411801D01*
X138085Y411793D01*
X138088Y411784D01*
X138181Y411616D01*
X138273Y411447D01*
X138278Y411440D01*
X138283Y411432D01*
X138407Y411285D01*
X138530Y411137D01*
X138537Y411132D01*
X138543Y411125D01*
X138695Y411005D01*
X138844Y410885D01*
X138852Y410881D01*
X138859Y410875D01*
X139032Y410788D01*
X139201Y410700D01*
X139210Y410697D01*
X139218Y410693D01*
X139404Y410641D01*
X139588Y410588D01*
X139597Y410587D01*
X139606Y410585D01*
X139799Y410571D01*
X139990Y410555D01*
X139998Y410556D01*
G37*
G36*
X749318Y184407D02*
X749318Y184407D01*
X749336Y184405D01*
X749518Y184426D01*
X749701Y184445D01*
X749718Y184450D01*
X749735Y184452D01*
X749910Y184509D01*
X750086Y184563D01*
X750101Y184571D01*
X750118Y184577D01*
X750278Y184667D01*
X750440Y184755D01*
X750453Y184766D01*
X750469Y184775D01*
X750608Y184895D01*
X750749Y185012D01*
X750760Y185026D01*
X750774Y185038D01*
X750886Y185183D01*
X751001Y185326D01*
X751009Y185342D01*
X751020Y185356D01*
X751102Y185521D01*
X751187Y185683D01*
X751192Y185700D01*
X751200Y185716D01*
X751247Y185895D01*
X751298Y186070D01*
X751300Y186088D01*
X751304Y186105D01*
X751331Y186436D01*
X751331Y355946D01*
X751329Y355972D01*
X751331Y355999D01*
X751309Y356173D01*
X751291Y356346D01*
X751284Y356372D01*
X751280Y356398D01*
X751224Y356564D01*
X751173Y356731D01*
X751160Y356755D01*
X751152Y356780D01*
X751065Y356932D01*
X750981Y357085D01*
X750964Y357106D01*
X750951Y357129D01*
X750736Y357382D01*
X744732Y363386D01*
X744711Y363403D01*
X744694Y363424D01*
X744556Y363531D01*
X744420Y363641D01*
X744397Y363654D01*
X744376Y363670D01*
X744219Y363748D01*
X744065Y363830D01*
X744039Y363838D01*
X744015Y363850D01*
X743846Y363895D01*
X743679Y363945D01*
X743652Y363947D01*
X743626Y363954D01*
X743296Y363981D01*
X241046Y363981D01*
X241028Y363979D01*
X241010Y363981D01*
X240828Y363960D01*
X240645Y363941D01*
X240628Y363936D01*
X240611Y363934D01*
X240436Y363877D01*
X240260Y363823D01*
X240245Y363815D01*
X240228Y363809D01*
X240068Y363719D01*
X239906Y363631D01*
X239893Y363620D01*
X239877Y363611D01*
X239738Y363491D01*
X239597Y363374D01*
X239586Y363360D01*
X239573Y363348D01*
X239460Y363203D01*
X239345Y363060D01*
X239337Y363044D01*
X239326Y363030D01*
X239244Y362865D01*
X239159Y362703D01*
X239154Y362686D01*
X239146Y362670D01*
X239099Y362491D01*
X239048Y362316D01*
X239046Y362298D01*
X239042Y362281D01*
X239015Y361950D01*
X239015Y197612D01*
X239016Y197603D01*
X239015Y197594D01*
X239036Y197401D01*
X239055Y197211D01*
X239057Y197203D01*
X239058Y197194D01*
X239117Y197009D01*
X239173Y196826D01*
X239177Y196819D01*
X239180Y196810D01*
X239273Y196642D01*
X239365Y196472D01*
X239370Y196466D01*
X239375Y196458D01*
X239499Y196311D01*
X239622Y196163D01*
X239629Y196158D01*
X239635Y196151D01*
X239787Y196031D01*
X239936Y195911D01*
X239944Y195907D01*
X239951Y195901D01*
X240124Y195813D01*
X240293Y195725D01*
X240302Y195723D01*
X240310Y195719D01*
X240496Y195667D01*
X240680Y195614D01*
X240689Y195613D01*
X240698Y195611D01*
X240891Y195597D01*
X241082Y195581D01*
X241090Y195582D01*
X241099Y195581D01*
X241292Y195606D01*
X241481Y195628D01*
X241490Y195631D01*
X241499Y195632D01*
X241681Y195693D01*
X241864Y195753D01*
X241872Y195757D01*
X241880Y195760D01*
X242047Y195856D01*
X242215Y195951D01*
X242222Y195957D01*
X242229Y195961D01*
X242482Y196176D01*
X242903Y196597D01*
X399289Y196597D01*
X399289Y186436D01*
X399291Y186418D01*
X399289Y186400D01*
X399310Y186218D01*
X399329Y186035D01*
X399334Y186018D01*
X399336Y186001D01*
X399393Y185826D01*
X399447Y185650D01*
X399455Y185635D01*
X399461Y185618D01*
X399551Y185458D01*
X399639Y185296D01*
X399650Y185283D01*
X399659Y185267D01*
X399779Y185128D01*
X399896Y184987D01*
X399910Y184976D01*
X399922Y184962D01*
X400067Y184850D01*
X400210Y184735D01*
X400226Y184727D01*
X400240Y184716D01*
X400405Y184634D01*
X400567Y184549D01*
X400584Y184544D01*
X400601Y184536D01*
X400779Y184489D01*
X400954Y184438D01*
X400972Y184436D01*
X400989Y184432D01*
X401320Y184405D01*
X749300Y184405D01*
X749318Y184407D01*
G37*
G36*
X390416Y61979D02*
X390416Y61979D01*
X390434Y61977D01*
X390616Y61998D01*
X390799Y62017D01*
X390816Y62022D01*
X390833Y62024D01*
X391008Y62081D01*
X391184Y62135D01*
X391199Y62143D01*
X391216Y62149D01*
X391376Y62239D01*
X391538Y62327D01*
X391551Y62338D01*
X391567Y62347D01*
X391706Y62467D01*
X391847Y62584D01*
X391858Y62598D01*
X391872Y62610D01*
X391984Y62755D01*
X392099Y62898D01*
X392107Y62914D01*
X392118Y62928D01*
X392200Y63093D01*
X392285Y63255D01*
X392290Y63272D01*
X392298Y63289D01*
X392345Y63467D01*
X392396Y63642D01*
X392398Y63660D01*
X392402Y63677D01*
X392429Y64008D01*
X392429Y172212D01*
X392427Y172230D01*
X392429Y172248D01*
X392408Y172430D01*
X392389Y172613D01*
X392384Y172630D01*
X392382Y172647D01*
X392325Y172822D01*
X392271Y172998D01*
X392263Y173013D01*
X392257Y173030D01*
X392167Y173190D01*
X392079Y173352D01*
X392068Y173365D01*
X392059Y173381D01*
X391939Y173520D01*
X391822Y173661D01*
X391808Y173672D01*
X391796Y173686D01*
X391651Y173798D01*
X391508Y173913D01*
X391492Y173921D01*
X391478Y173932D01*
X391313Y174014D01*
X391151Y174099D01*
X391134Y174104D01*
X391118Y174112D01*
X390939Y174159D01*
X390764Y174210D01*
X390746Y174212D01*
X390729Y174216D01*
X390398Y174243D01*
X328012Y174243D01*
X327985Y174241D01*
X327959Y174243D01*
X327785Y174221D01*
X327611Y174203D01*
X327586Y174196D01*
X327559Y174192D01*
X327393Y174137D01*
X327226Y174085D01*
X327203Y174072D01*
X327177Y174064D01*
X327026Y173977D01*
X326872Y173893D01*
X326852Y173876D01*
X326829Y173863D01*
X326576Y173648D01*
X318276Y165348D01*
X318259Y165328D01*
X318238Y165310D01*
X318131Y165172D01*
X318021Y165037D01*
X318008Y165013D01*
X317992Y164992D01*
X317914Y164835D01*
X317832Y164681D01*
X317824Y164656D01*
X317812Y164632D01*
X317767Y164462D01*
X317717Y164295D01*
X317715Y164269D01*
X317708Y164243D01*
X317681Y163912D01*
X317681Y159122D01*
X317683Y159096D01*
X317681Y159069D01*
X317703Y158895D01*
X317721Y158722D01*
X317728Y158696D01*
X317732Y158669D01*
X317787Y158504D01*
X317839Y158337D01*
X317852Y158313D01*
X317860Y158288D01*
X317947Y158136D01*
X318031Y157983D01*
X318048Y157962D01*
X318061Y157939D01*
X318276Y157686D01*
X320099Y155863D01*
X320099Y113337D01*
X318313Y111551D01*
X306887Y111551D01*
X305101Y113337D01*
X305101Y155863D01*
X306924Y157686D01*
X306941Y157707D01*
X306962Y157724D01*
X307069Y157862D01*
X307179Y157997D01*
X307192Y158021D01*
X307208Y158042D01*
X307286Y158199D01*
X307368Y158353D01*
X307376Y158379D01*
X307388Y158403D01*
X307433Y158572D01*
X307483Y158739D01*
X307485Y158766D01*
X307492Y158791D01*
X307519Y159122D01*
X307519Y167869D01*
X308293Y169736D01*
X322188Y183631D01*
X323102Y184010D01*
X324055Y184405D01*
X390652Y184405D01*
X390679Y184407D01*
X390705Y184405D01*
X390879Y184427D01*
X391053Y184445D01*
X391078Y184452D01*
X391105Y184456D01*
X391270Y184511D01*
X391438Y184563D01*
X391461Y184576D01*
X391486Y184584D01*
X391638Y184671D01*
X391792Y184755D01*
X391812Y184772D01*
X391835Y184785D01*
X392088Y185000D01*
X392850Y185762D01*
X392856Y185769D01*
X392863Y185774D01*
X392983Y185924D01*
X393105Y186073D01*
X393110Y186081D01*
X393115Y186088D01*
X393204Y186259D01*
X393294Y186429D01*
X393297Y186437D01*
X393301Y186445D01*
X393354Y186631D01*
X393409Y186815D01*
X393410Y186824D01*
X393412Y186832D01*
X393428Y187024D01*
X393445Y187216D01*
X393444Y187225D01*
X393445Y187234D01*
X393423Y187423D01*
X393402Y187616D01*
X393399Y187625D01*
X393398Y187633D01*
X393339Y187815D01*
X393280Y188000D01*
X393276Y188008D01*
X393273Y188016D01*
X393178Y188185D01*
X393085Y188352D01*
X393080Y188359D01*
X393075Y188367D01*
X392949Y188513D01*
X392825Y188659D01*
X392818Y188665D01*
X392812Y188672D01*
X392661Y188789D01*
X392509Y188909D01*
X392501Y188913D01*
X392494Y188918D01*
X392322Y189004D01*
X392150Y189091D01*
X392142Y189094D01*
X392134Y189098D01*
X391947Y189148D01*
X391762Y189199D01*
X391753Y189200D01*
X391745Y189202D01*
X391414Y189229D01*
X282760Y189229D01*
X282742Y189227D01*
X282724Y189229D01*
X282542Y189208D01*
X282359Y189189D01*
X282342Y189184D01*
X282325Y189182D01*
X282150Y189125D01*
X281974Y189071D01*
X281959Y189063D01*
X281942Y189057D01*
X281782Y188967D01*
X281620Y188879D01*
X281607Y188868D01*
X281591Y188859D01*
X281452Y188739D01*
X281311Y188622D01*
X281300Y188608D01*
X281286Y188596D01*
X281174Y188451D01*
X281059Y188308D01*
X281051Y188292D01*
X281040Y188278D01*
X280958Y188113D01*
X280873Y187951D01*
X280868Y187934D01*
X280860Y187918D01*
X280813Y187739D01*
X280762Y187564D01*
X280760Y187546D01*
X280756Y187529D01*
X280729Y187198D01*
X280729Y138808D01*
X280731Y138782D01*
X280729Y138755D01*
X280751Y138581D01*
X280769Y138408D01*
X280776Y138382D01*
X280780Y138356D01*
X280835Y138190D01*
X280887Y138023D01*
X280900Y137999D01*
X280908Y137974D01*
X280995Y137822D01*
X281079Y137669D01*
X281096Y137648D01*
X281109Y137625D01*
X281324Y137372D01*
X284281Y134415D01*
X284295Y134404D01*
X284306Y134390D01*
X284450Y134276D01*
X284592Y134160D01*
X284608Y134152D01*
X284622Y134140D01*
X284787Y134057D01*
X284948Y133971D01*
X284965Y133966D01*
X284981Y133958D01*
X285158Y133909D01*
X285334Y133856D01*
X285352Y133855D01*
X285369Y133850D01*
X285552Y133837D01*
X285735Y133820D01*
X285753Y133822D01*
X285771Y133821D01*
X285952Y133844D01*
X286135Y133863D01*
X286152Y133869D01*
X286170Y133871D01*
X286343Y133929D01*
X286519Y133985D01*
X286535Y133994D01*
X286552Y133999D01*
X286711Y134091D01*
X286815Y134149D01*
X298313Y134149D01*
X300099Y132363D01*
X300099Y118142D01*
X300102Y118111D01*
X300100Y118080D01*
X300122Y117910D01*
X300139Y117741D01*
X300148Y117712D01*
X300152Y117680D01*
X300253Y117365D01*
X300729Y116217D01*
X300729Y112983D01*
X300253Y111835D01*
X300244Y111806D01*
X300230Y111778D01*
X300186Y111613D01*
X300137Y111450D01*
X300134Y111419D01*
X300126Y111389D01*
X300099Y111058D01*
X300099Y89837D01*
X298313Y88051D01*
X286887Y88051D01*
X285101Y89837D01*
X285101Y109762D01*
X285099Y109788D01*
X285101Y109815D01*
X285079Y109989D01*
X285061Y110162D01*
X285054Y110188D01*
X285050Y110214D01*
X284995Y110380D01*
X284943Y110547D01*
X284930Y110571D01*
X284922Y110596D01*
X284835Y110748D01*
X284751Y110901D01*
X284734Y110922D01*
X284721Y110945D01*
X284506Y111198D01*
X282669Y113035D01*
X282655Y113046D01*
X282644Y113060D01*
X282500Y113174D01*
X282358Y113290D01*
X282342Y113298D01*
X282328Y113310D01*
X282164Y113393D01*
X282002Y113479D01*
X281985Y113484D01*
X281969Y113492D01*
X281792Y113541D01*
X281616Y113594D01*
X281598Y113595D01*
X281581Y113600D01*
X281398Y113613D01*
X281215Y113630D01*
X281197Y113628D01*
X281180Y113629D01*
X280997Y113606D01*
X280815Y113587D01*
X280798Y113581D01*
X280780Y113579D01*
X280606Y113521D01*
X280431Y113465D01*
X280415Y113456D01*
X280398Y113451D01*
X280240Y113359D01*
X280079Y113270D01*
X280065Y113259D01*
X280050Y113250D01*
X279797Y113035D01*
X278313Y111551D01*
X266887Y111551D01*
X265101Y113337D01*
X265101Y131058D01*
X265100Y131067D01*
X265101Y131075D01*
X265099Y131095D01*
X265100Y131120D01*
X265078Y131290D01*
X265061Y131459D01*
X265052Y131488D01*
X265048Y131520D01*
X264947Y131835D01*
X264471Y132983D01*
X264471Y187198D01*
X264469Y187216D01*
X264471Y187234D01*
X264450Y187416D01*
X264431Y187599D01*
X264426Y187616D01*
X264424Y187633D01*
X264367Y187808D01*
X264313Y187984D01*
X264305Y187999D01*
X264299Y188016D01*
X264209Y188176D01*
X264121Y188338D01*
X264110Y188351D01*
X264101Y188367D01*
X263981Y188506D01*
X263864Y188647D01*
X263850Y188658D01*
X263838Y188672D01*
X263693Y188784D01*
X263550Y188899D01*
X263534Y188907D01*
X263520Y188918D01*
X263355Y189000D01*
X263193Y189085D01*
X263176Y189090D01*
X263160Y189098D01*
X262981Y189145D01*
X262806Y189196D01*
X262788Y189198D01*
X262771Y189202D01*
X262440Y189229D01*
X220217Y189229D01*
X220217Y379476D01*
X220215Y379494D01*
X220217Y379512D01*
X220196Y379694D01*
X220177Y379877D01*
X220172Y379894D01*
X220170Y379911D01*
X220113Y380086D01*
X220059Y380262D01*
X220051Y380277D01*
X220045Y380294D01*
X219955Y380454D01*
X219867Y380616D01*
X219856Y380629D01*
X219847Y380645D01*
X219727Y380784D01*
X219610Y380925D01*
X219596Y380936D01*
X219584Y380950D01*
X219439Y381062D01*
X219296Y381177D01*
X219280Y381185D01*
X219266Y381196D01*
X219101Y381278D01*
X218939Y381363D01*
X218922Y381368D01*
X218906Y381376D01*
X218727Y381423D01*
X218552Y381474D01*
X218534Y381476D01*
X218517Y381480D01*
X218186Y381507D01*
X180339Y381507D01*
X180312Y381505D01*
X180285Y381507D01*
X180111Y381485D01*
X179938Y381467D01*
X179913Y381460D01*
X179886Y381456D01*
X179720Y381401D01*
X179553Y381349D01*
X179530Y381336D01*
X179504Y381328D01*
X179353Y381241D01*
X179199Y381157D01*
X179179Y381140D01*
X179155Y381127D01*
X178902Y380912D01*
X173570Y375580D01*
X173553Y375559D01*
X173532Y375541D01*
X173425Y375403D01*
X173315Y375268D01*
X173302Y375244D01*
X173286Y375223D01*
X173208Y375066D01*
X173126Y374912D01*
X173118Y374887D01*
X173106Y374863D01*
X173061Y374693D01*
X173011Y374526D01*
X173009Y374500D01*
X173002Y374474D01*
X172975Y374143D01*
X172975Y274416D01*
X172977Y274390D01*
X172975Y274363D01*
X172997Y274189D01*
X173015Y274016D01*
X173022Y273990D01*
X173026Y273964D01*
X173081Y273798D01*
X173133Y273631D01*
X173146Y273607D01*
X173154Y273582D01*
X173241Y273430D01*
X173325Y273277D01*
X173342Y273256D01*
X173355Y273233D01*
X173570Y272980D01*
X205835Y240715D01*
X208233Y234926D01*
X208233Y228661D01*
X205835Y222873D01*
X201405Y218443D01*
X195617Y216045D01*
X189351Y216045D01*
X183563Y218443D01*
X176394Y225611D01*
X176387Y225617D01*
X176382Y225624D01*
X176232Y225744D01*
X176083Y225866D01*
X176075Y225871D01*
X176068Y225876D01*
X175898Y225965D01*
X175727Y226055D01*
X175718Y226058D01*
X175711Y226062D01*
X175526Y226115D01*
X175341Y226170D01*
X175332Y226171D01*
X175324Y226173D01*
X175132Y226189D01*
X174940Y226206D01*
X174931Y226205D01*
X174922Y226206D01*
X174733Y226184D01*
X174540Y226163D01*
X174531Y226160D01*
X174523Y226159D01*
X174341Y226100D01*
X174156Y226041D01*
X174148Y226037D01*
X174140Y226034D01*
X173971Y225939D01*
X173804Y225847D01*
X173797Y225841D01*
X173789Y225836D01*
X173643Y225710D01*
X173497Y225586D01*
X173491Y225579D01*
X173484Y225573D01*
X173367Y225422D01*
X173247Y225270D01*
X173243Y225262D01*
X173238Y225255D01*
X173152Y225083D01*
X173065Y224911D01*
X173062Y224903D01*
X173058Y224895D01*
X173008Y224708D01*
X172957Y224523D01*
X172956Y224514D01*
X172954Y224506D01*
X172927Y224175D01*
X172927Y164002D01*
X172929Y163979D01*
X172927Y163957D01*
X172949Y163780D01*
X172967Y163601D01*
X172973Y163580D01*
X172976Y163558D01*
X173032Y163388D01*
X173085Y163216D01*
X173095Y163197D01*
X173102Y163175D01*
X173191Y163019D01*
X173277Y162862D01*
X173291Y162845D01*
X173302Y162826D01*
X173420Y162690D01*
X173534Y162553D01*
X173552Y162539D01*
X173566Y162522D01*
X173708Y162413D01*
X173848Y162301D01*
X173868Y162290D01*
X173886Y162277D01*
X174181Y162125D01*
X176796Y161042D01*
X178568Y159270D01*
X179527Y156955D01*
X179527Y154449D01*
X178568Y152134D01*
X176796Y150362D01*
X174481Y149403D01*
X171975Y149403D01*
X169660Y150362D01*
X167888Y152134D01*
X167274Y153616D01*
X167268Y153628D01*
X167264Y153641D01*
X167172Y153806D01*
X167084Y153971D01*
X167076Y153981D01*
X167069Y153993D01*
X166947Y154137D01*
X166828Y154282D01*
X166817Y154290D01*
X166809Y154300D01*
X166661Y154416D01*
X166515Y154535D01*
X166503Y154541D01*
X166493Y154550D01*
X166324Y154635D01*
X166158Y154722D01*
X166146Y154726D01*
X166134Y154732D01*
X165952Y154783D01*
X165772Y154835D01*
X165759Y154837D01*
X165746Y154840D01*
X165557Y154854D01*
X165371Y154870D01*
X165358Y154869D01*
X165344Y154870D01*
X165156Y154846D01*
X164971Y154825D01*
X164958Y154821D01*
X164945Y154819D01*
X164766Y154759D01*
X164588Y154702D01*
X164576Y154695D01*
X164563Y154691D01*
X164400Y154597D01*
X164236Y154505D01*
X164226Y154497D01*
X164214Y154490D01*
X163961Y154275D01*
X160694Y151008D01*
X160677Y150987D01*
X160656Y150969D01*
X160550Y150832D01*
X160439Y150696D01*
X160426Y150672D01*
X160410Y150651D01*
X160332Y150495D01*
X160250Y150340D01*
X160242Y150315D01*
X160230Y150291D01*
X160185Y150122D01*
X160135Y149955D01*
X160133Y149928D01*
X160126Y149902D01*
X160099Y149571D01*
X160099Y113337D01*
X158313Y111551D01*
X146887Y111551D01*
X145101Y113337D01*
X145101Y155863D01*
X146887Y157649D01*
X154278Y157649D01*
X154305Y157651D01*
X154331Y157649D01*
X154505Y157671D01*
X154679Y157689D01*
X154704Y157696D01*
X154731Y157700D01*
X154897Y157755D01*
X155064Y157807D01*
X155087Y157820D01*
X155113Y157828D01*
X155264Y157915D01*
X155418Y157999D01*
X155438Y158016D01*
X155461Y158029D01*
X155714Y158244D01*
X163694Y166224D01*
X163711Y166244D01*
X163732Y166262D01*
X163839Y166400D01*
X163949Y166535D01*
X163962Y166559D01*
X163978Y166580D01*
X164056Y166737D01*
X164138Y166891D01*
X164146Y166916D01*
X164158Y166940D01*
X164203Y167110D01*
X164253Y167277D01*
X164255Y167303D01*
X164262Y167329D01*
X164289Y167660D01*
X164289Y167828D01*
X164288Y167841D01*
X164289Y167854D01*
X164268Y168040D01*
X164249Y168228D01*
X164245Y168241D01*
X164244Y168254D01*
X164186Y168433D01*
X164131Y168613D01*
X164125Y168625D01*
X164121Y168638D01*
X164029Y168803D01*
X163939Y168967D01*
X163931Y168977D01*
X163924Y168989D01*
X163802Y169132D01*
X163682Y169276D01*
X163671Y169285D01*
X163662Y169295D01*
X163515Y169410D01*
X163368Y169529D01*
X163356Y169535D01*
X163345Y169543D01*
X163177Y169628D01*
X163011Y169714D01*
X162998Y169718D01*
X162986Y169724D01*
X162804Y169774D01*
X162624Y169826D01*
X162610Y169827D01*
X162597Y169830D01*
X162410Y169843D01*
X162222Y169858D01*
X162209Y169857D01*
X162196Y169858D01*
X162009Y169833D01*
X161823Y169812D01*
X161810Y169807D01*
X161796Y169806D01*
X161540Y169723D01*
X159021Y169723D01*
X156706Y170682D01*
X154934Y172454D01*
X153975Y174769D01*
X153975Y177275D01*
X154531Y178616D01*
X154540Y178646D01*
X154554Y178674D01*
X154598Y178838D01*
X154647Y179001D01*
X154650Y179032D01*
X154658Y179062D01*
X154685Y179393D01*
X154685Y212104D01*
X154683Y212130D01*
X154685Y212157D01*
X154663Y212331D01*
X154645Y212504D01*
X154638Y212530D01*
X154634Y212556D01*
X154579Y212722D01*
X154527Y212889D01*
X154514Y212913D01*
X154506Y212938D01*
X154419Y213090D01*
X154335Y213243D01*
X154318Y213264D01*
X154305Y213287D01*
X154090Y213540D01*
X141390Y226240D01*
X141383Y226246D01*
X141378Y226253D01*
X141228Y226373D01*
X141079Y226495D01*
X141071Y226499D01*
X141064Y226505D01*
X140894Y226593D01*
X140723Y226684D01*
X140715Y226686D01*
X140707Y226690D01*
X140522Y226744D01*
X140337Y226798D01*
X140328Y226799D01*
X140320Y226802D01*
X140128Y226817D01*
X139936Y226835D01*
X139927Y226834D01*
X139918Y226835D01*
X139729Y226812D01*
X139536Y226791D01*
X139527Y226789D01*
X139519Y226788D01*
X139337Y226728D01*
X139152Y226670D01*
X139144Y226666D01*
X139136Y226663D01*
X138967Y226568D01*
X138800Y226475D01*
X138793Y226469D01*
X138785Y226465D01*
X138639Y226339D01*
X138493Y226215D01*
X138487Y226208D01*
X138481Y226202D01*
X138363Y226050D01*
X138243Y225899D01*
X138239Y225891D01*
X138234Y225884D01*
X138148Y225712D01*
X138061Y225540D01*
X138058Y225531D01*
X138054Y225523D01*
X138004Y225337D01*
X137953Y225152D01*
X137952Y225143D01*
X137950Y225134D01*
X137923Y224804D01*
X137923Y169497D01*
X115404Y146978D01*
X115387Y146958D01*
X115367Y146940D01*
X115259Y146802D01*
X115149Y146667D01*
X115136Y146643D01*
X115120Y146622D01*
X115042Y146465D01*
X114960Y146311D01*
X114952Y146286D01*
X114940Y146262D01*
X114895Y146092D01*
X114845Y145925D01*
X114843Y145899D01*
X114836Y145873D01*
X114809Y145542D01*
X114809Y99060D01*
X114811Y99033D01*
X114809Y99007D01*
X114831Y98833D01*
X114849Y98659D01*
X114857Y98634D01*
X114860Y98607D01*
X114915Y98442D01*
X114967Y98274D01*
X114980Y98251D01*
X114988Y98226D01*
X115075Y98074D01*
X115159Y97920D01*
X115176Y97900D01*
X115189Y97877D01*
X115404Y97624D01*
X122142Y90886D01*
X122149Y90880D01*
X122154Y90873D01*
X122304Y90753D01*
X122453Y90631D01*
X122461Y90626D01*
X122468Y90621D01*
X122638Y90532D01*
X122809Y90442D01*
X122818Y90439D01*
X122825Y90435D01*
X123010Y90382D01*
X123195Y90327D01*
X123204Y90326D01*
X123212Y90324D01*
X123404Y90308D01*
X123596Y90291D01*
X123605Y90292D01*
X123614Y90291D01*
X123803Y90313D01*
X123996Y90334D01*
X124005Y90337D01*
X124013Y90338D01*
X124195Y90397D01*
X124380Y90456D01*
X124388Y90460D01*
X124396Y90463D01*
X124565Y90558D01*
X124732Y90651D01*
X124739Y90656D01*
X124747Y90661D01*
X124893Y90787D01*
X125039Y90911D01*
X125045Y90918D01*
X125052Y90924D01*
X125169Y91075D01*
X125289Y91227D01*
X125293Y91235D01*
X125298Y91242D01*
X125384Y91414D01*
X125471Y91586D01*
X125474Y91594D01*
X125478Y91602D01*
X125528Y91789D01*
X125579Y91974D01*
X125580Y91983D01*
X125582Y91991D01*
X125609Y92322D01*
X125609Y108876D01*
X132407Y108876D01*
X132425Y108877D01*
X132442Y108876D01*
X132585Y108893D01*
X132793Y108876D01*
X139591Y108876D01*
X139591Y93599D01*
X139593Y93577D01*
X139591Y93555D01*
X139613Y93378D01*
X139631Y93199D01*
X139637Y93177D01*
X139640Y93155D01*
X139696Y92985D01*
X139749Y92814D01*
X139759Y92794D01*
X139766Y92773D01*
X139855Y92617D01*
X139941Y92460D01*
X139955Y92443D01*
X139966Y92423D01*
X140084Y92288D01*
X140198Y92151D01*
X140216Y92137D01*
X140230Y92120D01*
X140372Y92010D01*
X140512Y91898D01*
X140532Y91888D01*
X140550Y91874D01*
X140845Y91723D01*
X144471Y90221D01*
X148493Y86198D01*
X149380Y84059D01*
X149390Y84039D01*
X149397Y84018D01*
X149485Y83861D01*
X149570Y83704D01*
X149584Y83687D01*
X149595Y83667D01*
X149712Y83531D01*
X149826Y83393D01*
X149844Y83379D01*
X149858Y83362D01*
X149999Y83253D01*
X150139Y83140D01*
X150159Y83129D01*
X150176Y83116D01*
X150336Y83036D01*
X150495Y82953D01*
X150517Y82946D01*
X150537Y82936D01*
X150710Y82890D01*
X150882Y82840D01*
X150904Y82838D01*
X150926Y82832D01*
X151256Y82805D01*
X170181Y82805D01*
X170208Y82807D01*
X170235Y82805D01*
X170408Y82827D01*
X170582Y82845D01*
X170607Y82852D01*
X170634Y82856D01*
X170800Y82912D01*
X170967Y82963D01*
X170990Y82975D01*
X171016Y82984D01*
X171167Y83071D01*
X171321Y83155D01*
X171341Y83172D01*
X171365Y83185D01*
X171618Y83400D01*
X172802Y84584D01*
X172807Y84591D01*
X172814Y84596D01*
X172935Y84746D01*
X173057Y84895D01*
X173061Y84903D01*
X173067Y84910D01*
X173154Y85079D01*
X173245Y85251D01*
X173248Y85260D01*
X173252Y85267D01*
X173305Y85452D01*
X173360Y85637D01*
X173361Y85646D01*
X173363Y85654D01*
X173379Y85845D01*
X173397Y86038D01*
X173396Y86047D01*
X173396Y86056D01*
X173374Y86245D01*
X173353Y86438D01*
X173350Y86447D01*
X173349Y86455D01*
X173290Y86637D01*
X173232Y86822D01*
X173227Y86830D01*
X173225Y86838D01*
X173130Y87005D01*
X173037Y87174D01*
X173031Y87181D01*
X173027Y87189D01*
X172902Y87334D01*
X172776Y87481D01*
X172769Y87487D01*
X172763Y87494D01*
X172613Y87610D01*
X172460Y87731D01*
X172452Y87735D01*
X172445Y87740D01*
X172276Y87825D01*
X172101Y87913D01*
X172093Y87916D01*
X172085Y87920D01*
X171899Y87969D01*
X171714Y88021D01*
X171705Y88022D01*
X171696Y88024D01*
X171365Y88051D01*
X166887Y88051D01*
X165101Y89837D01*
X165101Y132363D01*
X166887Y134149D01*
X178313Y134149D01*
X180099Y132363D01*
X180099Y91186D01*
X180101Y91168D01*
X180099Y91150D01*
X180120Y90968D01*
X180139Y90785D01*
X180144Y90768D01*
X180146Y90751D01*
X180203Y90576D01*
X180257Y90400D01*
X180265Y90385D01*
X180271Y90368D01*
X180361Y90208D01*
X180449Y90046D01*
X180460Y90033D01*
X180469Y90017D01*
X180589Y89878D01*
X180706Y89737D01*
X180720Y89726D01*
X180732Y89712D01*
X180877Y89600D01*
X181020Y89485D01*
X181036Y89477D01*
X181050Y89466D01*
X181215Y89384D01*
X181377Y89299D01*
X181394Y89294D01*
X181410Y89286D01*
X181589Y89239D01*
X181764Y89188D01*
X181782Y89186D01*
X181799Y89182D01*
X182130Y89155D01*
X187029Y89155D01*
X192817Y86757D01*
X217002Y62572D01*
X217023Y62555D01*
X217041Y62535D01*
X217178Y62427D01*
X217314Y62317D01*
X217338Y62304D01*
X217359Y62288D01*
X217516Y62210D01*
X217670Y62128D01*
X217695Y62120D01*
X217719Y62108D01*
X217889Y62063D01*
X218055Y62013D01*
X218082Y62011D01*
X218108Y62004D01*
X218439Y61977D01*
X390398Y61977D01*
X390416Y61979D01*
G37*
%LPC*%
G36*
X357321Y774751D02*
X357321Y774751D01*
X355535Y776537D01*
X355535Y781756D01*
X355533Y781774D01*
X355535Y781792D01*
X355514Y781974D01*
X355495Y782157D01*
X355490Y782174D01*
X355488Y782191D01*
X355431Y782366D01*
X355377Y782542D01*
X355369Y782557D01*
X355363Y782574D01*
X355273Y782734D01*
X355185Y782896D01*
X355174Y782909D01*
X355165Y782925D01*
X355045Y783064D01*
X354928Y783205D01*
X354914Y783216D01*
X354902Y783230D01*
X354757Y783342D01*
X354614Y783457D01*
X354598Y783465D01*
X354584Y783476D01*
X354419Y783558D01*
X354257Y783643D01*
X354240Y783648D01*
X354224Y783656D01*
X354045Y783703D01*
X353870Y783754D01*
X353852Y783756D01*
X353835Y783760D01*
X353504Y783787D01*
X328837Y783787D01*
X325608Y785125D01*
X325589Y785134D01*
X325435Y785216D01*
X325409Y785224D01*
X325385Y785236D01*
X325216Y785281D01*
X325049Y785331D01*
X325022Y785333D01*
X324996Y785340D01*
X324693Y785365D01*
X322905Y787153D01*
X322905Y788495D01*
X322902Y788526D01*
X322904Y788557D01*
X322882Y788726D01*
X322865Y788895D01*
X322856Y788925D01*
X322852Y788956D01*
X322751Y789272D01*
X322325Y790299D01*
X322325Y793533D01*
X322751Y794560D01*
X322760Y794590D01*
X322774Y794618D01*
X322818Y794783D01*
X322867Y794945D01*
X322870Y794976D01*
X322878Y795006D01*
X322905Y795337D01*
X322905Y796679D01*
X323206Y796980D01*
X323217Y796994D01*
X323231Y797005D01*
X323345Y797149D01*
X323461Y797291D01*
X323470Y797307D01*
X323481Y797321D01*
X323564Y797485D01*
X323650Y797647D01*
X323655Y797664D01*
X323663Y797680D01*
X323712Y797857D01*
X323765Y798033D01*
X323766Y798051D01*
X323771Y798068D01*
X323784Y798251D01*
X323801Y798434D01*
X323799Y798452D01*
X323800Y798469D01*
X323777Y798651D01*
X323758Y798834D01*
X323752Y798851D01*
X323750Y798869D01*
X323692Y799042D01*
X323636Y799218D01*
X323627Y799234D01*
X323622Y799250D01*
X323530Y799410D01*
X323441Y799570D01*
X323430Y799584D01*
X323421Y799599D01*
X323206Y799852D01*
X322905Y800153D01*
X322905Y809714D01*
X323001Y809831D01*
X323014Y809855D01*
X323030Y809876D01*
X323108Y810033D01*
X323190Y810187D01*
X323198Y810213D01*
X323210Y810237D01*
X323255Y810406D01*
X323305Y810573D01*
X323307Y810600D01*
X323314Y810625D01*
X323341Y810956D01*
X323341Y827116D01*
X323339Y827142D01*
X323341Y827169D01*
X323319Y827343D01*
X323301Y827516D01*
X323294Y827542D01*
X323290Y827568D01*
X323235Y827734D01*
X323183Y827901D01*
X323170Y827925D01*
X323162Y827950D01*
X323075Y828102D01*
X322991Y828255D01*
X322974Y828276D01*
X322961Y828299D01*
X322746Y828552D01*
X320962Y830336D01*
X319531Y833790D01*
X319531Y876138D01*
X320962Y879592D01*
X330972Y889602D01*
X334069Y890885D01*
X334426Y891033D01*
X338166Y891033D01*
X341620Y889602D01*
X344264Y886958D01*
X345695Y883504D01*
X345695Y879764D01*
X344264Y876310D01*
X338924Y870970D01*
X338907Y870949D01*
X338886Y870932D01*
X338779Y870794D01*
X338669Y870658D01*
X338656Y870635D01*
X338640Y870614D01*
X338562Y870457D01*
X338480Y870303D01*
X338472Y870277D01*
X338460Y870253D01*
X338415Y870084D01*
X338365Y869917D01*
X338363Y869890D01*
X338356Y869864D01*
X338329Y869534D01*
X338329Y833790D01*
X336898Y830336D01*
X335114Y828552D01*
X335097Y828531D01*
X335076Y828514D01*
X334969Y828376D01*
X334859Y828240D01*
X334846Y828217D01*
X334830Y828196D01*
X334752Y828039D01*
X334670Y827885D01*
X334662Y827859D01*
X334650Y827835D01*
X334605Y827666D01*
X334555Y827499D01*
X334553Y827472D01*
X334546Y827446D01*
X334519Y827116D01*
X334519Y813496D01*
X334521Y813478D01*
X334519Y813460D01*
X334540Y813278D01*
X334559Y813095D01*
X334564Y813078D01*
X334566Y813061D01*
X334623Y812886D01*
X334677Y812710D01*
X334685Y812695D01*
X334691Y812678D01*
X334781Y812518D01*
X334869Y812356D01*
X334880Y812343D01*
X334889Y812327D01*
X335009Y812188D01*
X335126Y812047D01*
X335140Y812036D01*
X335152Y812022D01*
X335297Y811910D01*
X335440Y811795D01*
X335456Y811787D01*
X335470Y811776D01*
X335635Y811694D01*
X335797Y811609D01*
X335814Y811604D01*
X335830Y811596D01*
X336009Y811549D01*
X336183Y811498D01*
X338003Y809679D01*
X338003Y802076D01*
X338005Y802058D01*
X338003Y802040D01*
X338024Y801858D01*
X338043Y801675D01*
X338048Y801658D01*
X338050Y801641D01*
X338107Y801466D01*
X338161Y801290D01*
X338169Y801275D01*
X338175Y801258D01*
X338265Y801098D01*
X338353Y800936D01*
X338364Y800923D01*
X338373Y800907D01*
X338493Y800768D01*
X338610Y800627D01*
X338624Y800616D01*
X338636Y800602D01*
X338781Y800490D01*
X338924Y800375D01*
X338940Y800367D01*
X338954Y800356D01*
X339119Y800274D01*
X339281Y800189D01*
X339298Y800184D01*
X339314Y800176D01*
X339493Y800129D01*
X339668Y800078D01*
X339686Y800076D01*
X339703Y800072D01*
X340034Y800045D01*
X353504Y800045D01*
X353522Y800047D01*
X353540Y800045D01*
X353722Y800066D01*
X353905Y800085D01*
X353922Y800090D01*
X353939Y800092D01*
X354114Y800149D01*
X354290Y800203D01*
X354305Y800211D01*
X354322Y800217D01*
X354482Y800307D01*
X354644Y800395D01*
X354657Y800406D01*
X354673Y800415D01*
X354812Y800535D01*
X354953Y800652D01*
X354964Y800666D01*
X354978Y800678D01*
X355090Y800823D01*
X355205Y800966D01*
X355213Y800982D01*
X355224Y800996D01*
X355306Y801161D01*
X355391Y801323D01*
X355396Y801340D01*
X355404Y801356D01*
X355451Y801535D01*
X355502Y801710D01*
X355504Y801728D01*
X355508Y801745D01*
X355535Y802076D01*
X355535Y813063D01*
X357321Y814849D01*
X379847Y814849D01*
X380332Y814364D01*
X380452Y814265D01*
X380567Y814162D01*
X380607Y814138D01*
X380643Y814109D01*
X380780Y814036D01*
X380914Y813957D01*
X380958Y813942D01*
X380999Y813920D01*
X381147Y813876D01*
X381294Y813825D01*
X381340Y813818D01*
X381385Y813805D01*
X381539Y813791D01*
X381693Y813770D01*
X381740Y813773D01*
X381786Y813769D01*
X381940Y813786D01*
X382095Y813795D01*
X382140Y813807D01*
X382186Y813812D01*
X382334Y813859D01*
X382484Y813899D01*
X382531Y813921D01*
X382570Y813934D01*
X382646Y813976D01*
X382784Y814041D01*
X383003Y814168D01*
X383649Y814341D01*
X389921Y814341D01*
X389921Y796832D01*
X389923Y796814D01*
X389921Y796797D01*
X389943Y796614D01*
X389961Y796431D01*
X389966Y796414D01*
X389968Y796397D01*
X390025Y796222D01*
X390079Y796047D01*
X390087Y796031D01*
X390093Y796014D01*
X390183Y795854D01*
X390271Y795693D01*
X390282Y795679D01*
X390291Y795663D01*
X390411Y795524D01*
X390528Y795383D01*
X390542Y795372D01*
X390554Y795359D01*
X390699Y795246D01*
X390842Y795131D01*
X390858Y795123D01*
X390872Y795112D01*
X391037Y795030D01*
X391199Y794945D01*
X391216Y794941D01*
X391233Y794933D01*
X391411Y794885D01*
X391586Y794834D01*
X391604Y794833D01*
X391621Y794828D01*
X391952Y794801D01*
X393985Y794801D01*
X393985Y794799D01*
X391952Y794799D01*
X391934Y794797D01*
X391917Y794799D01*
X391734Y794777D01*
X391551Y794759D01*
X391534Y794754D01*
X391517Y794752D01*
X391342Y794695D01*
X391167Y794641D01*
X391151Y794633D01*
X391134Y794627D01*
X390974Y794537D01*
X390812Y794449D01*
X390799Y794438D01*
X390783Y794429D01*
X390644Y794309D01*
X390503Y794192D01*
X390492Y794178D01*
X390479Y794166D01*
X390366Y794021D01*
X390251Y793878D01*
X390243Y793862D01*
X390232Y793848D01*
X390150Y793683D01*
X390065Y793521D01*
X390060Y793503D01*
X390052Y793487D01*
X390005Y793309D01*
X389954Y793134D01*
X389953Y793116D01*
X389948Y793099D01*
X389921Y792768D01*
X389921Y775259D01*
X383649Y775259D01*
X383003Y775432D01*
X382784Y775559D01*
X382642Y775623D01*
X382504Y775693D01*
X382459Y775706D01*
X382417Y775725D01*
X382266Y775760D01*
X382116Y775801D01*
X382070Y775805D01*
X382025Y775815D01*
X381870Y775819D01*
X381715Y775831D01*
X381669Y775825D01*
X381622Y775826D01*
X381469Y775800D01*
X381315Y775780D01*
X381271Y775765D01*
X381225Y775757D01*
X381081Y775701D01*
X380934Y775652D01*
X380893Y775629D01*
X380850Y775612D01*
X380719Y775528D01*
X380585Y775451D01*
X380545Y775417D01*
X380511Y775395D01*
X380448Y775335D01*
X380332Y775236D01*
X379847Y774751D01*
X357321Y774751D01*
G37*
%LPD*%
%LPC*%
G36*
X226887Y111551D02*
X226887Y111551D01*
X225101Y113337D01*
X225101Y155863D01*
X226887Y157649D01*
X238313Y157649D01*
X240099Y155863D01*
X240099Y113337D01*
X238313Y111551D01*
X226887Y111551D01*
G37*
%LPD*%
%LPC*%
G36*
X186887Y111551D02*
X186887Y111551D01*
X185101Y113337D01*
X185101Y155863D01*
X186887Y157649D01*
X198313Y157649D01*
X200099Y155863D01*
X200099Y113337D01*
X198313Y111551D01*
X186887Y111551D01*
G37*
%LPD*%
%LPC*%
G36*
X326887Y88051D02*
X326887Y88051D01*
X325101Y89837D01*
X325101Y132363D01*
X326887Y134149D01*
X338313Y134149D01*
X340099Y132363D01*
X340099Y89837D01*
X338313Y88051D01*
X326887Y88051D01*
G37*
%LPD*%
%LPC*%
G36*
X206887Y88051D02*
X206887Y88051D01*
X205101Y89837D01*
X205101Y132363D01*
X206887Y134149D01*
X218313Y134149D01*
X220099Y132363D01*
X220099Y89837D01*
X218313Y88051D01*
X206887Y88051D01*
G37*
%LPD*%
%LPC*%
G36*
X398047Y798863D02*
X398047Y798863D01*
X398047Y814341D01*
X404319Y814341D01*
X404965Y814168D01*
X405544Y813833D01*
X406017Y813360D01*
X406352Y812781D01*
X406525Y812135D01*
X406525Y798863D01*
X398047Y798863D01*
G37*
%LPD*%
%LPC*%
G36*
X786129Y798863D02*
X786129Y798863D01*
X786129Y814341D01*
X792401Y814341D01*
X793047Y814168D01*
X793626Y813833D01*
X794099Y813360D01*
X794434Y812781D01*
X794607Y812135D01*
X794607Y798863D01*
X786129Y798863D01*
G37*
%LPD*%
%LPC*%
G36*
X786129Y790737D02*
X786129Y790737D01*
X794607Y790737D01*
X794607Y777465D01*
X794434Y776819D01*
X794099Y776240D01*
X793626Y775767D01*
X793047Y775432D01*
X792401Y775259D01*
X786129Y775259D01*
X786129Y790737D01*
G37*
%LPD*%
%LPC*%
G36*
X398047Y790737D02*
X398047Y790737D01*
X406525Y790737D01*
X406525Y777465D01*
X406352Y776819D01*
X406017Y776240D01*
X405544Y775767D01*
X404965Y775432D01*
X404319Y775259D01*
X398047Y775259D01*
X398047Y790737D01*
G37*
%LPD*%
%LPC*%
G36*
X354824Y136824D02*
X354824Y136824D01*
X354824Y157141D01*
X357385Y157141D01*
X358031Y156968D01*
X358610Y156633D01*
X359083Y156160D01*
X359418Y155581D01*
X359591Y154935D01*
X359591Y136824D01*
X354824Y136824D01*
G37*
%LPD*%
%LPC*%
G36*
X254824Y113324D02*
X254824Y113324D01*
X254824Y133641D01*
X257385Y133641D01*
X258031Y133468D01*
X258610Y133133D01*
X259083Y132660D01*
X259418Y132081D01*
X259591Y131435D01*
X259591Y113324D01*
X254824Y113324D01*
G37*
%LPD*%
%LPC*%
G36*
X134824Y113324D02*
X134824Y113324D01*
X134824Y133641D01*
X137385Y133641D01*
X138031Y133468D01*
X138610Y133133D01*
X139083Y132660D01*
X139418Y132081D01*
X139591Y131435D01*
X139591Y113324D01*
X134824Y113324D01*
G37*
%LPD*%
%LPC*%
G36*
X354824Y132376D02*
X354824Y132376D01*
X359591Y132376D01*
X359591Y114265D01*
X359418Y113619D01*
X359083Y113040D01*
X358610Y112567D01*
X358031Y112232D01*
X357385Y112059D01*
X354824Y112059D01*
X354824Y132376D01*
G37*
%LPD*%
%LPC*%
G36*
X254824Y108876D02*
X254824Y108876D01*
X259591Y108876D01*
X259591Y90765D01*
X259418Y90119D01*
X259083Y89540D01*
X258610Y89067D01*
X258031Y88732D01*
X257385Y88559D01*
X254824Y88559D01*
X254824Y108876D01*
G37*
%LPD*%
%LPC*%
G36*
X345609Y136824D02*
X345609Y136824D01*
X345609Y154935D01*
X345782Y155581D01*
X346117Y156160D01*
X346590Y156633D01*
X347169Y156968D01*
X347815Y157141D01*
X350376Y157141D01*
X350376Y136824D01*
X345609Y136824D01*
G37*
%LPD*%
%LPC*%
G36*
X245609Y113324D02*
X245609Y113324D01*
X245609Y131435D01*
X245782Y132081D01*
X246117Y132660D01*
X246590Y133133D01*
X247169Y133468D01*
X247815Y133641D01*
X250376Y133641D01*
X250376Y113324D01*
X245609Y113324D01*
G37*
%LPD*%
%LPC*%
G36*
X125609Y113324D02*
X125609Y113324D01*
X125609Y131435D01*
X125782Y132081D01*
X126117Y132660D01*
X126590Y133133D01*
X127169Y133468D01*
X127815Y133641D01*
X130376Y133641D01*
X130376Y113324D01*
X125609Y113324D01*
G37*
%LPD*%
%LPC*%
G36*
X347815Y112059D02*
X347815Y112059D01*
X347169Y112232D01*
X346590Y112567D01*
X346117Y113040D01*
X345782Y113619D01*
X345609Y114265D01*
X345609Y132376D01*
X350376Y132376D01*
X350376Y112059D01*
X347815Y112059D01*
G37*
%LPD*%
%LPC*%
G36*
X247815Y88559D02*
X247815Y88559D01*
X247169Y88732D01*
X246590Y89067D01*
X246117Y89540D01*
X245782Y90119D01*
X245609Y90765D01*
X245609Y108876D01*
X250376Y108876D01*
X250376Y88559D01*
X247815Y88559D01*
G37*
%LPD*%
%LPC*%
G36*
X437881Y670507D02*
X437881Y670507D01*
X437881Y675093D01*
X438054Y675739D01*
X438389Y676318D01*
X438862Y676791D01*
X439441Y677126D01*
X440087Y677299D01*
X443673Y677299D01*
X443673Y670507D01*
X437881Y670507D01*
G37*
%LPD*%
%LPC*%
G36*
X453121Y547571D02*
X453121Y547571D01*
X453121Y552157D01*
X453294Y552803D01*
X453629Y553382D01*
X454102Y553855D01*
X454681Y554190D01*
X455327Y554363D01*
X458913Y554363D01*
X458913Y547571D01*
X453121Y547571D01*
G37*
%LPD*%
%LPC*%
G36*
X440087Y657217D02*
X440087Y657217D01*
X439441Y657390D01*
X438862Y657725D01*
X438389Y658198D01*
X438054Y658777D01*
X437881Y659423D01*
X437881Y664009D01*
X443673Y664009D01*
X443673Y657217D01*
X440087Y657217D01*
G37*
%LPD*%
%LPC*%
G36*
X455327Y534281D02*
X455327Y534281D01*
X454681Y534454D01*
X454102Y534789D01*
X453629Y535262D01*
X453294Y535841D01*
X453121Y536487D01*
X453121Y541073D01*
X458913Y541073D01*
X458913Y534281D01*
X455327Y534281D01*
G37*
%LPD*%
%LPC*%
G36*
X612840Y526733D02*
X612840Y526733D01*
X612840Y531550D01*
X619206Y531550D01*
X619206Y528939D01*
X619033Y528293D01*
X618698Y527714D01*
X618225Y527241D01*
X617646Y526906D01*
X617000Y526733D01*
X612840Y526733D01*
G37*
%LPD*%
%LPC*%
G36*
X604131Y526733D02*
X604131Y526733D01*
X603485Y526906D01*
X602905Y527241D01*
X602432Y527714D01*
X602098Y528293D01*
X601925Y528939D01*
X601925Y531550D01*
X608291Y531550D01*
X608291Y526733D01*
X604131Y526733D01*
G37*
%LPD*%
%LPC*%
G36*
X458525Y566921D02*
X458525Y566921D01*
X457879Y567094D01*
X457300Y567429D01*
X456827Y567902D01*
X456492Y568481D01*
X456319Y569127D01*
X456319Y573431D01*
X458829Y573431D01*
X458829Y566921D01*
X458525Y566921D01*
G37*
%LPD*%
D10*
X460860Y594462D03*
X467360Y594462D03*
X473860Y594462D03*
X473860Y575462D03*
X460860Y575462D03*
D11*
X479162Y544322D03*
X462162Y544322D03*
D12*
X610565Y501074D03*
X610565Y533824D03*
D13*
X451208Y633476D03*
X464208Y633476D03*
D11*
X463922Y667258D03*
X446922Y667258D03*
D14*
X120076Y206182D03*
X107376Y206182D03*
X94676Y206182D03*
X81976Y206182D03*
X81976Y255458D03*
X94676Y255458D03*
X107376Y255458D03*
X120076Y255458D03*
D15*
X368584Y794800D03*
X393984Y794800D03*
X216184Y794800D03*
X266984Y794800D03*
X756666Y794800D03*
X782066Y794800D03*
X604266Y794800D03*
X655066Y794800D03*
D16*
X330454Y804916D03*
X330454Y791916D03*
X728538Y807870D03*
X728538Y794870D03*
D17*
X515216Y713994D03*
X544716Y713994D03*
X478808Y714502D03*
X449308Y714502D03*
D18*
X75649Y144139D03*
X136371Y78099D03*
D19*
X292600Y111100D03*
X252600Y111100D03*
X212600Y111100D03*
X172600Y111100D03*
X132600Y111100D03*
X152600Y134600D03*
X352600Y134600D03*
X312600Y134600D03*
X272600Y134600D03*
X232600Y134600D03*
X192600Y134600D03*
X332600Y111100D03*
D20*
X621792Y463042D03*
D21*
X610565Y474269D01*
X610565Y501074D01*
D22*
X467360Y594462D02*
X460860Y594462D01*
X446922Y662432D02*
X446922Y667258D01*
X446922Y662432D02*
X424340Y639850D01*
X424340Y627172D01*
X457050Y594462D02*
X460860Y594462D01*
X457050Y594462D02*
X424340Y627172D01*
X460860Y594462D02*
X460860Y575462D01*
X460860Y545624D01*
X462162Y544322D01*
D23*
X354584Y927862D03*
D21*
X362458Y927862D01*
D23*
X398526Y927862D03*
D21*
X393192Y927862D02*
X362458Y927862D01*
X393192Y927862D02*
X398526Y927862D01*
D23*
X568960Y927608D03*
D21*
X607314Y927608D01*
X608076Y926846D01*
D23*
X608076Y926846D03*
D21*
X536056Y927862D02*
X398526Y927862D01*
D24*
X536056Y927862D02*
X536194Y928000D01*
D23*
X536194Y928000D03*
D25*
X782066Y844042D02*
X782066Y794800D01*
X698500Y927608D02*
X607314Y927608D01*
X698500Y927608D02*
X782066Y844042D01*
D21*
X462162Y544322D02*
X462162Y523358D01*
X475488Y510032D01*
X569468Y510032D01*
X593260Y533824D02*
X610565Y533824D01*
X593260Y533824D02*
X569468Y510032D01*
X610565Y533824D02*
X654507Y533824D01*
D26*
X446922Y667258D02*
X432308Y667258D01*
X428752Y663702D01*
D27*
X416560Y651510D01*
X221742Y651510D02*
X185674Y615442D01*
D20*
X185674Y615442D03*
X128016Y636270D03*
D27*
X128016Y854202D01*
X158242Y884428D02*
X279146Y884428D01*
X322580Y927862D02*
X362458Y927862D01*
X416560Y651510D02*
X221742Y651510D01*
X128016Y854202D02*
X158242Y884428D01*
X279146Y884428D02*
X322580Y927862D01*
D25*
X393192Y927862D02*
X393984Y927070D01*
X393984Y794800D01*
D27*
X462162Y544322D02*
X88790Y544322D01*
X53086Y508618D01*
D25*
X354584Y914400D02*
X354584Y927862D01*
X354584Y914400D02*
X354330Y914146D01*
D20*
X354330Y914146D03*
D21*
X246828Y424494D02*
X653602Y424494D01*
D24*
X246828Y424494D02*
X246380Y424942D01*
D20*
X246380Y424942D03*
D24*
X117599Y111222D02*
X117599Y108715D01*
D21*
X654507Y533824D02*
X671068Y517263D01*
X671068Y441960D01*
X653602Y424494D01*
D20*
X87884Y90170D03*
X182372Y373380D03*
D27*
X748030Y373380D01*
X788670Y332740D01*
X788670Y175768D01*
X747502Y134600D02*
X352600Y134600D01*
X747502Y134600D02*
X788670Y175768D01*
X53086Y397764D02*
X53086Y508618D01*
X53086Y397764D02*
X77724Y373126D01*
X89662Y373126D01*
D20*
X89662Y373126D03*
D28*
X262756Y83222D02*
X339208Y83222D01*
X262756Y83222D02*
X252600Y93378D01*
X252600Y111100D01*
D24*
X352232Y134232D02*
X352600Y134600D01*
D28*
X352232Y134232D02*
X352232Y96246D01*
X339208Y83222D01*
D24*
X82042Y206116D02*
X81976Y206182D01*
D28*
X82042Y206116D02*
X82042Y178308D01*
X83230Y177120D01*
D27*
X83230Y151720D01*
X75649Y144139D01*
D21*
X124453Y144139D01*
X132600Y135992D02*
X132600Y111100D01*
X132600Y135992D02*
X124453Y144139D01*
X108814Y111100D02*
X87884Y90170D01*
X108814Y111100D02*
X132600Y111100D01*
X301322Y241046D02*
X398272Y241046D01*
X465582Y308356D01*
X465582Y343662D01*
X471932Y350012D01*
X473202Y351282D01*
X471932Y350012D02*
X499110Y350012D01*
D23*
X499110Y350012D03*
X603250Y351536D03*
D21*
X673100Y351536D01*
D23*
X673100Y351536D03*
D21*
X473202Y351282D02*
X429768Y351282D01*
X429514Y351536D01*
D23*
X429514Y351536D03*
X343154Y351536D03*
D21*
X278892Y351536D01*
X278638Y351790D01*
D23*
X278638Y351790D03*
D21*
X499110Y350012D02*
X500634Y351536D01*
X603250Y351536D01*
X428244Y351790D02*
X344424Y351790D01*
X344170Y351536D02*
X343154Y351536D01*
X344170Y351536D02*
X344424Y351790D01*
X428244Y351790D02*
X428498Y351536D01*
X429514Y351536D01*
X272600Y134600D02*
X292600Y114600D01*
D24*
X292600Y111100D01*
D21*
X272600Y212324D02*
X301322Y241046D01*
X272600Y212324D02*
X272600Y134600D01*
D22*
X477638Y559238D02*
X473860Y563016D01*
X473860Y575462D01*
X477638Y559238D02*
X477638Y545846D01*
D24*
X479162Y544322D01*
D29*
X483226Y548386D01*
X713740Y548386D01*
X757936Y504190D01*
X757936Y464312D01*
X736092Y442468D01*
X705104Y442468D01*
D20*
X705104Y442468D03*
X443230Y442468D03*
D29*
X203200Y442468D01*
X202184Y442468D01*
X152600Y149022D02*
X152600Y134600D01*
X152600Y149022D02*
X168608Y165030D01*
X168608Y224330D01*
X129794Y263144D02*
X129794Y393446D01*
X178816Y442468D01*
X202184Y442468D01*
X129794Y263144D02*
X168608Y224330D01*
D22*
X473860Y609300D02*
X451208Y631952D01*
X451208Y633476D01*
X473860Y609300D02*
X473860Y594462D01*
D26*
X463668Y667004D02*
X463922Y667258D01*
X463668Y667004D02*
X463668Y634016D01*
D24*
X464208Y633476D01*
D22*
X463922Y667258D02*
X476758Y667258D01*
X491744Y652272D02*
X491744Y593090D01*
X528574Y556260D01*
X773430Y505968D02*
X773430Y444500D01*
D20*
X773430Y444500D03*
X757682Y179324D03*
D22*
X325066Y179324D01*
X312600Y166858D01*
X312600Y134600D01*
X491744Y652272D02*
X476758Y667258D01*
X528574Y556260D02*
X723138Y556260D01*
X773430Y505968D01*
D28*
X81976Y272984D02*
X81976Y255458D01*
X81976Y272984D02*
X86868Y277876D01*
X113030Y277876D01*
X120076Y270830D02*
X120076Y255458D01*
X120076Y270830D02*
X113030Y277876D01*
X120076Y255458D02*
X160274Y215260D01*
X160274Y176022D01*
D20*
X160274Y176022D03*
X173228Y155702D03*
D25*
X478808Y714502D02*
X514708Y714502D01*
X515216Y713994D01*
X514708Y714502D02*
X514708Y599590D01*
X536956Y577342D01*
X727202Y577342D01*
X799592Y504952D01*
X799592Y423418D01*
X192484Y231794D02*
X157226Y267052D01*
X773430Y397256D02*
X799592Y423418D01*
X172974Y397256D02*
X157226Y381508D01*
X157226Y267052D01*
X172974Y397256D02*
X773430Y397256D01*
D24*
X192786Y231492D02*
X192484Y231794D01*
D28*
X271018Y42672D02*
X279146Y42672D01*
D20*
X279146Y42672D03*
X698246Y882142D03*
D27*
X686054Y869950D01*
X686054Y839724D01*
D28*
X717908Y807870D01*
X728538Y807870D01*
D27*
X698246Y882142D02*
X430530Y882142D01*
X428498Y880110D01*
D20*
X428498Y880110D03*
X336296Y881634D03*
D27*
X328930Y874268D01*
X328930Y835660D01*
D28*
X328930Y806440D01*
X330454Y804916D01*
D24*
X368584Y794800D02*
X368584Y791972D01*
D21*
X368528Y791916D02*
X330454Y791916D01*
X368528Y791916D02*
X368584Y791972D01*
D28*
X728538Y794870D02*
X756596Y794870D01*
X756666Y794800D01*
D25*
X585216Y713994D02*
X544716Y713994D01*
X585216Y713994D02*
X606552Y735330D01*
X606552Y792514D01*
X604266Y794800D01*
X216184Y794800D02*
X216184Y734284D01*
X235966Y714502D02*
X449308Y714502D01*
X235966Y714502D02*
X216184Y734284D01*
X744085Y64381D02*
X700532Y20828D01*
X744085Y64381D02*
X744085Y65555D01*
X691896Y678942D02*
X826008Y678942D01*
X691896Y678942D02*
X655066Y715772D01*
X655066Y794800D01*
X700532Y20828D02*
X236474Y20828D01*
X744085Y65555D02*
X888238Y209708D01*
X888238Y616712D01*
X826008Y678942D01*
X655066Y794800D02*
X655066Y843026D01*
X639318Y858774D01*
X577342Y858774D01*
X549656Y831088D02*
X549656Y780034D01*
X533908Y764286D01*
X434340Y764286D02*
X415036Y744982D01*
X280924Y744982D01*
X266984Y758922D02*
X266984Y794800D01*
X549656Y831088D02*
X577342Y858774D01*
X533908Y764286D02*
X434340Y764286D01*
X280924Y744982D02*
X266984Y758922D01*
D27*
X136371Y78099D02*
X141064Y73406D01*
X183896Y73406D01*
D25*
X236474Y20828D01*
M02*
