G04 EAGLE Gerber RS-274X export*
G75*
%MOMM*%
%FSLAX34Y34*%
%LPD*%
%INSolder stop mask CMP*%
%IPPOS*%
%AMOC8*
5,1,8,0,0,1.08239X$1,22.5*%
G01*
%ADD10R,8.203200X2.203200*%
%ADD11R,45.203200X24.203200*%
%ADD12C,2.250000*%
%ADD13C,2.453200*%
%ADD14C,0.650000*%
%ADD15C,0.600000*%


D10*
X376500Y467032D03*
D11*
X471500Y239532D03*
X476100Y695800D03*
D10*
X692500Y468000D03*
X487500Y468000D03*
X282500Y468000D03*
X282500Y928000D03*
X692500Y928000D03*
X487500Y928000D03*
D12*
X75649Y144139D03*
D13*
X75649Y144139D03*
D12*
X136371Y78099D03*
D13*
X136371Y78099D03*
D14*
X621792Y463042D03*
D15*
X354584Y927862D03*
X398526Y927862D03*
X568960Y927608D03*
X608076Y926846D03*
X536194Y928000D03*
D14*
X185674Y615442D03*
X128016Y636270D03*
X354330Y914146D03*
X246380Y424942D03*
X87884Y90170D03*
X182372Y373380D03*
X89662Y373126D03*
D15*
X499110Y350012D03*
X603250Y351536D03*
X673100Y351536D03*
X429514Y351536D03*
X343154Y351536D03*
X278638Y351790D03*
D14*
X705104Y442468D03*
X443230Y442468D03*
X773430Y444500D03*
X757682Y179324D03*
X160274Y176022D03*
X173228Y155702D03*
X279146Y42672D03*
X698246Y882142D03*
X428498Y880110D03*
X336296Y881634D03*
M02*
