M48
;GenerationSoftware,Autodesk,EAGLE,9.6.2*%
;CreationDate,2022-05-19T05:03:58Z*%
FMAT,2
ICI,OFF
METRIC,TZ,000.000
T3C0.300
T2C0.350
T1C1.500
%
G90
M71
T1
X13637Y7810
X7565Y14414
T2
X17323Y15570
X12471Y17958
X24435Y4547
X27915Y4267
X69825Y88214
X18567Y61544
X12802Y63627
X35433Y91415
X24638Y42494
X8788Y9017
X18237Y37338
X8966Y37313
X42850Y88011
X33630Y88163
X62179Y46304
X70510Y44247
X44323Y44247
X77343Y44450
X75768Y17932
X16027Y17602
T3
X35458Y92786
X39853Y92786
X56896Y92761
X60808Y92685
X53619Y92800
X49911Y35001
X60325Y35154
X34315Y35154
X27864Y35179
X67310Y35154
X42951Y35154
M30