G04 EAGLE Gerber RS-274X export*
G75*
%MOMM*%
%FSLAX34Y34*%
%LPD*%
%INoutline*%
%IPPOS*%
%AMOC8*
5,1,8,0,0,1.08239X$1,22.5*%
G01*
%ADD10C,0.152400*%
%ADD11C,0.000000*%


D10*
X737015Y971039D02*
X737018Y971309D01*
X737028Y971579D01*
X737045Y971848D01*
X737068Y972117D01*
X737098Y972386D01*
X737134Y972653D01*
X737177Y972920D01*
X737226Y973185D01*
X737282Y973449D01*
X737345Y973712D01*
X737413Y973973D01*
X737489Y974232D01*
X737570Y974489D01*
X737658Y974745D01*
X737752Y974998D01*
X737852Y975249D01*
X737959Y975497D01*
X738071Y975742D01*
X738190Y975985D01*
X738314Y976224D01*
X738444Y976461D01*
X738580Y976694D01*
X738722Y976924D01*
X738869Y977150D01*
X739022Y977373D01*
X739180Y977592D01*
X739343Y977807D01*
X739512Y978017D01*
X739686Y978224D01*
X739865Y978426D01*
X740048Y978624D01*
X740237Y978817D01*
X740430Y979006D01*
X740628Y979189D01*
X740830Y979368D01*
X741037Y979542D01*
X741247Y979711D01*
X741462Y979874D01*
X741681Y980032D01*
X741904Y980185D01*
X742130Y980332D01*
X742360Y980474D01*
X742593Y980610D01*
X742830Y980740D01*
X743069Y980864D01*
X743312Y980983D01*
X743557Y981095D01*
X743805Y981202D01*
X744056Y981302D01*
X744309Y981396D01*
X744565Y981484D01*
X744822Y981565D01*
X745081Y981641D01*
X745342Y981709D01*
X745605Y981772D01*
X745869Y981828D01*
X746134Y981877D01*
X746401Y981920D01*
X746668Y981956D01*
X746937Y981986D01*
X747206Y982009D01*
X747475Y982026D01*
X747745Y982036D01*
X748015Y982039D01*
X748285Y982036D01*
X748555Y982026D01*
X748824Y982009D01*
X749093Y981986D01*
X749362Y981956D01*
X749629Y981920D01*
X749896Y981877D01*
X750161Y981828D01*
X750425Y981772D01*
X750688Y981709D01*
X750949Y981641D01*
X751208Y981565D01*
X751465Y981484D01*
X751721Y981396D01*
X751974Y981302D01*
X752225Y981202D01*
X752473Y981095D01*
X752718Y980983D01*
X752961Y980864D01*
X753200Y980740D01*
X753437Y980610D01*
X753670Y980474D01*
X753900Y980332D01*
X754126Y980185D01*
X754349Y980032D01*
X754568Y979874D01*
X754783Y979711D01*
X754993Y979542D01*
X755200Y979368D01*
X755402Y979189D01*
X755600Y979006D01*
X755793Y978817D01*
X755982Y978624D01*
X756165Y978426D01*
X756344Y978224D01*
X756518Y978017D01*
X756687Y977807D01*
X756850Y977592D01*
X757008Y977373D01*
X757161Y977150D01*
X757308Y976924D01*
X757450Y976694D01*
X757586Y976461D01*
X757716Y976224D01*
X757840Y975985D01*
X757959Y975742D01*
X758071Y975497D01*
X758178Y975249D01*
X758278Y974998D01*
X758372Y974745D01*
X758460Y974489D01*
X758541Y974232D01*
X758617Y973973D01*
X758685Y973712D01*
X758748Y973449D01*
X758804Y973185D01*
X758853Y972920D01*
X758896Y972653D01*
X758932Y972386D01*
X758962Y972117D01*
X758985Y971848D01*
X759002Y971579D01*
X759012Y971309D01*
X759015Y971039D01*
X759012Y970769D01*
X759002Y970499D01*
X758985Y970230D01*
X758962Y969961D01*
X758932Y969692D01*
X758896Y969425D01*
X758853Y969158D01*
X758804Y968893D01*
X758748Y968629D01*
X758685Y968366D01*
X758617Y968105D01*
X758541Y967846D01*
X758460Y967589D01*
X758372Y967333D01*
X758278Y967080D01*
X758178Y966829D01*
X758071Y966581D01*
X757959Y966336D01*
X757840Y966093D01*
X757716Y965854D01*
X757586Y965617D01*
X757450Y965384D01*
X757308Y965154D01*
X757161Y964928D01*
X757008Y964705D01*
X756850Y964486D01*
X756687Y964271D01*
X756518Y964061D01*
X756344Y963854D01*
X756165Y963652D01*
X755982Y963454D01*
X755793Y963261D01*
X755600Y963072D01*
X755402Y962889D01*
X755200Y962710D01*
X754993Y962536D01*
X754783Y962367D01*
X754568Y962204D01*
X754349Y962046D01*
X754126Y961893D01*
X753900Y961746D01*
X753670Y961604D01*
X753437Y961468D01*
X753200Y961338D01*
X752961Y961214D01*
X752718Y961095D01*
X752473Y960983D01*
X752225Y960876D01*
X751974Y960776D01*
X751721Y960682D01*
X751465Y960594D01*
X751208Y960513D01*
X750949Y960437D01*
X750688Y960369D01*
X750425Y960306D01*
X750161Y960250D01*
X749896Y960201D01*
X749629Y960158D01*
X749362Y960122D01*
X749093Y960092D01*
X748824Y960069D01*
X748555Y960052D01*
X748285Y960042D01*
X748015Y960039D01*
X747745Y960042D01*
X747475Y960052D01*
X747206Y960069D01*
X746937Y960092D01*
X746668Y960122D01*
X746401Y960158D01*
X746134Y960201D01*
X745869Y960250D01*
X745605Y960306D01*
X745342Y960369D01*
X745081Y960437D01*
X744822Y960513D01*
X744565Y960594D01*
X744309Y960682D01*
X744056Y960776D01*
X743805Y960876D01*
X743557Y960983D01*
X743312Y961095D01*
X743069Y961214D01*
X742830Y961338D01*
X742593Y961468D01*
X742360Y961604D01*
X742130Y961746D01*
X741904Y961893D01*
X741681Y962046D01*
X741462Y962204D01*
X741247Y962367D01*
X741037Y962536D01*
X740830Y962710D01*
X740628Y962889D01*
X740430Y963072D01*
X740237Y963261D01*
X740048Y963454D01*
X739865Y963652D01*
X739686Y963854D01*
X739512Y964061D01*
X739343Y964271D01*
X739180Y964486D01*
X739022Y964705D01*
X738869Y964928D01*
X738722Y965154D01*
X738580Y965384D01*
X738444Y965617D01*
X738314Y965854D01*
X738190Y966093D01*
X738071Y966336D01*
X737959Y966581D01*
X737852Y966829D01*
X737752Y967080D01*
X737658Y967333D01*
X737570Y967589D01*
X737489Y967846D01*
X737413Y968105D01*
X737345Y968366D01*
X737282Y968629D01*
X737226Y968893D01*
X737177Y969158D01*
X737134Y969425D01*
X737098Y969692D01*
X737068Y969961D01*
X737045Y970230D01*
X737028Y970499D01*
X737018Y970769D01*
X737015Y971039D01*
X647000Y31000D02*
X647003Y31270D01*
X647013Y31540D01*
X647030Y31809D01*
X647053Y32078D01*
X647083Y32347D01*
X647119Y32614D01*
X647162Y32881D01*
X647211Y33146D01*
X647267Y33410D01*
X647330Y33673D01*
X647398Y33934D01*
X647474Y34193D01*
X647555Y34450D01*
X647643Y34706D01*
X647737Y34959D01*
X647837Y35210D01*
X647944Y35458D01*
X648056Y35703D01*
X648175Y35946D01*
X648299Y36185D01*
X648429Y36422D01*
X648565Y36655D01*
X648707Y36885D01*
X648854Y37111D01*
X649007Y37334D01*
X649165Y37553D01*
X649328Y37768D01*
X649497Y37978D01*
X649671Y38185D01*
X649850Y38387D01*
X650033Y38585D01*
X650222Y38778D01*
X650415Y38967D01*
X650613Y39150D01*
X650815Y39329D01*
X651022Y39503D01*
X651232Y39672D01*
X651447Y39835D01*
X651666Y39993D01*
X651889Y40146D01*
X652115Y40293D01*
X652345Y40435D01*
X652578Y40571D01*
X652815Y40701D01*
X653054Y40825D01*
X653297Y40944D01*
X653542Y41056D01*
X653790Y41163D01*
X654041Y41263D01*
X654294Y41357D01*
X654550Y41445D01*
X654807Y41526D01*
X655066Y41602D01*
X655327Y41670D01*
X655590Y41733D01*
X655854Y41789D01*
X656119Y41838D01*
X656386Y41881D01*
X656653Y41917D01*
X656922Y41947D01*
X657191Y41970D01*
X657460Y41987D01*
X657730Y41997D01*
X658000Y42000D01*
X658270Y41997D01*
X658540Y41987D01*
X658809Y41970D01*
X659078Y41947D01*
X659347Y41917D01*
X659614Y41881D01*
X659881Y41838D01*
X660146Y41789D01*
X660410Y41733D01*
X660673Y41670D01*
X660934Y41602D01*
X661193Y41526D01*
X661450Y41445D01*
X661706Y41357D01*
X661959Y41263D01*
X662210Y41163D01*
X662458Y41056D01*
X662703Y40944D01*
X662946Y40825D01*
X663185Y40701D01*
X663422Y40571D01*
X663655Y40435D01*
X663885Y40293D01*
X664111Y40146D01*
X664334Y39993D01*
X664553Y39835D01*
X664768Y39672D01*
X664978Y39503D01*
X665185Y39329D01*
X665387Y39150D01*
X665585Y38967D01*
X665778Y38778D01*
X665967Y38585D01*
X666150Y38387D01*
X666329Y38185D01*
X666503Y37978D01*
X666672Y37768D01*
X666835Y37553D01*
X666993Y37334D01*
X667146Y37111D01*
X667293Y36885D01*
X667435Y36655D01*
X667571Y36422D01*
X667701Y36185D01*
X667825Y35946D01*
X667944Y35703D01*
X668056Y35458D01*
X668163Y35210D01*
X668263Y34959D01*
X668357Y34706D01*
X668445Y34450D01*
X668526Y34193D01*
X668602Y33934D01*
X668670Y33673D01*
X668733Y33410D01*
X668789Y33146D01*
X668838Y32881D01*
X668881Y32614D01*
X668917Y32347D01*
X668947Y32078D01*
X668970Y31809D01*
X668987Y31540D01*
X668997Y31270D01*
X669000Y31000D01*
X668997Y30730D01*
X668987Y30460D01*
X668970Y30191D01*
X668947Y29922D01*
X668917Y29653D01*
X668881Y29386D01*
X668838Y29119D01*
X668789Y28854D01*
X668733Y28590D01*
X668670Y28327D01*
X668602Y28066D01*
X668526Y27807D01*
X668445Y27550D01*
X668357Y27294D01*
X668263Y27041D01*
X668163Y26790D01*
X668056Y26542D01*
X667944Y26297D01*
X667825Y26054D01*
X667701Y25815D01*
X667571Y25578D01*
X667435Y25345D01*
X667293Y25115D01*
X667146Y24889D01*
X666993Y24666D01*
X666835Y24447D01*
X666672Y24232D01*
X666503Y24022D01*
X666329Y23815D01*
X666150Y23613D01*
X665967Y23415D01*
X665778Y23222D01*
X665585Y23033D01*
X665387Y22850D01*
X665185Y22671D01*
X664978Y22497D01*
X664768Y22328D01*
X664553Y22165D01*
X664334Y22007D01*
X664111Y21854D01*
X663885Y21707D01*
X663655Y21565D01*
X663422Y21429D01*
X663185Y21299D01*
X662946Y21175D01*
X662703Y21056D01*
X662458Y20944D01*
X662210Y20837D01*
X661959Y20737D01*
X661706Y20643D01*
X661450Y20555D01*
X661193Y20474D01*
X660934Y20398D01*
X660673Y20330D01*
X660410Y20267D01*
X660146Y20211D01*
X659881Y20162D01*
X659614Y20119D01*
X659347Y20083D01*
X659078Y20053D01*
X658809Y20030D01*
X658540Y20013D01*
X658270Y20003D01*
X658000Y20000D01*
X657730Y20003D01*
X657460Y20013D01*
X657191Y20030D01*
X656922Y20053D01*
X656653Y20083D01*
X656386Y20119D01*
X656119Y20162D01*
X655854Y20211D01*
X655590Y20267D01*
X655327Y20330D01*
X655066Y20398D01*
X654807Y20474D01*
X654550Y20555D01*
X654294Y20643D01*
X654041Y20737D01*
X653790Y20837D01*
X653542Y20944D01*
X653297Y21056D01*
X653054Y21175D01*
X652815Y21299D01*
X652578Y21429D01*
X652345Y21565D01*
X652115Y21707D01*
X651889Y21854D01*
X651666Y22007D01*
X651447Y22165D01*
X651232Y22328D01*
X651022Y22497D01*
X650815Y22671D01*
X650613Y22850D01*
X650415Y23033D01*
X650222Y23222D01*
X650033Y23415D01*
X649850Y23613D01*
X649671Y23815D01*
X649497Y24022D01*
X649328Y24232D01*
X649165Y24447D01*
X649007Y24666D01*
X648854Y24889D01*
X648707Y25115D01*
X648565Y25345D01*
X648429Y25578D01*
X648299Y25815D01*
X648175Y26054D01*
X648056Y26297D01*
X647944Y26542D01*
X647837Y26790D01*
X647737Y27041D01*
X647643Y27294D01*
X647555Y27550D01*
X647474Y27807D01*
X647398Y28066D01*
X647330Y28327D01*
X647267Y28590D01*
X647211Y28854D01*
X647162Y29119D01*
X647119Y29386D01*
X647083Y29653D01*
X647053Y29922D01*
X647030Y30191D01*
X647013Y30460D01*
X647003Y30730D01*
X647000Y31000D01*
X157000Y31000D02*
X157003Y31270D01*
X157013Y31540D01*
X157030Y31809D01*
X157053Y32078D01*
X157083Y32347D01*
X157119Y32614D01*
X157162Y32881D01*
X157211Y33146D01*
X157267Y33410D01*
X157330Y33673D01*
X157398Y33934D01*
X157474Y34193D01*
X157555Y34450D01*
X157643Y34706D01*
X157737Y34959D01*
X157837Y35210D01*
X157944Y35458D01*
X158056Y35703D01*
X158175Y35946D01*
X158299Y36185D01*
X158429Y36422D01*
X158565Y36655D01*
X158707Y36885D01*
X158854Y37111D01*
X159007Y37334D01*
X159165Y37553D01*
X159328Y37768D01*
X159497Y37978D01*
X159671Y38185D01*
X159850Y38387D01*
X160033Y38585D01*
X160222Y38778D01*
X160415Y38967D01*
X160613Y39150D01*
X160815Y39329D01*
X161022Y39503D01*
X161232Y39672D01*
X161447Y39835D01*
X161666Y39993D01*
X161889Y40146D01*
X162115Y40293D01*
X162345Y40435D01*
X162578Y40571D01*
X162815Y40701D01*
X163054Y40825D01*
X163297Y40944D01*
X163542Y41056D01*
X163790Y41163D01*
X164041Y41263D01*
X164294Y41357D01*
X164550Y41445D01*
X164807Y41526D01*
X165066Y41602D01*
X165327Y41670D01*
X165590Y41733D01*
X165854Y41789D01*
X166119Y41838D01*
X166386Y41881D01*
X166653Y41917D01*
X166922Y41947D01*
X167191Y41970D01*
X167460Y41987D01*
X167730Y41997D01*
X168000Y42000D01*
X168270Y41997D01*
X168540Y41987D01*
X168809Y41970D01*
X169078Y41947D01*
X169347Y41917D01*
X169614Y41881D01*
X169881Y41838D01*
X170146Y41789D01*
X170410Y41733D01*
X170673Y41670D01*
X170934Y41602D01*
X171193Y41526D01*
X171450Y41445D01*
X171706Y41357D01*
X171959Y41263D01*
X172210Y41163D01*
X172458Y41056D01*
X172703Y40944D01*
X172946Y40825D01*
X173185Y40701D01*
X173422Y40571D01*
X173655Y40435D01*
X173885Y40293D01*
X174111Y40146D01*
X174334Y39993D01*
X174553Y39835D01*
X174768Y39672D01*
X174978Y39503D01*
X175185Y39329D01*
X175387Y39150D01*
X175585Y38967D01*
X175778Y38778D01*
X175967Y38585D01*
X176150Y38387D01*
X176329Y38185D01*
X176503Y37978D01*
X176672Y37768D01*
X176835Y37553D01*
X176993Y37334D01*
X177146Y37111D01*
X177293Y36885D01*
X177435Y36655D01*
X177571Y36422D01*
X177701Y36185D01*
X177825Y35946D01*
X177944Y35703D01*
X178056Y35458D01*
X178163Y35210D01*
X178263Y34959D01*
X178357Y34706D01*
X178445Y34450D01*
X178526Y34193D01*
X178602Y33934D01*
X178670Y33673D01*
X178733Y33410D01*
X178789Y33146D01*
X178838Y32881D01*
X178881Y32614D01*
X178917Y32347D01*
X178947Y32078D01*
X178970Y31809D01*
X178987Y31540D01*
X178997Y31270D01*
X179000Y31000D01*
X178997Y30730D01*
X178987Y30460D01*
X178970Y30191D01*
X178947Y29922D01*
X178917Y29653D01*
X178881Y29386D01*
X178838Y29119D01*
X178789Y28854D01*
X178733Y28590D01*
X178670Y28327D01*
X178602Y28066D01*
X178526Y27807D01*
X178445Y27550D01*
X178357Y27294D01*
X178263Y27041D01*
X178163Y26790D01*
X178056Y26542D01*
X177944Y26297D01*
X177825Y26054D01*
X177701Y25815D01*
X177571Y25578D01*
X177435Y25345D01*
X177293Y25115D01*
X177146Y24889D01*
X176993Y24666D01*
X176835Y24447D01*
X176672Y24232D01*
X176503Y24022D01*
X176329Y23815D01*
X176150Y23613D01*
X175967Y23415D01*
X175778Y23222D01*
X175585Y23033D01*
X175387Y22850D01*
X175185Y22671D01*
X174978Y22497D01*
X174768Y22328D01*
X174553Y22165D01*
X174334Y22007D01*
X174111Y21854D01*
X173885Y21707D01*
X173655Y21565D01*
X173422Y21429D01*
X173185Y21299D01*
X172946Y21175D01*
X172703Y21056D01*
X172458Y20944D01*
X172210Y20837D01*
X171959Y20737D01*
X171706Y20643D01*
X171450Y20555D01*
X171193Y20474D01*
X170934Y20398D01*
X170673Y20330D01*
X170410Y20267D01*
X170146Y20211D01*
X169881Y20162D01*
X169614Y20119D01*
X169347Y20083D01*
X169078Y20053D01*
X168809Y20030D01*
X168540Y20013D01*
X168270Y20003D01*
X168000Y20000D01*
X167730Y20003D01*
X167460Y20013D01*
X167191Y20030D01*
X166922Y20053D01*
X166653Y20083D01*
X166386Y20119D01*
X166119Y20162D01*
X165854Y20211D01*
X165590Y20267D01*
X165327Y20330D01*
X165066Y20398D01*
X164807Y20474D01*
X164550Y20555D01*
X164294Y20643D01*
X164041Y20737D01*
X163790Y20837D01*
X163542Y20944D01*
X163297Y21056D01*
X163054Y21175D01*
X162815Y21299D01*
X162578Y21429D01*
X162345Y21565D01*
X162115Y21707D01*
X161889Y21854D01*
X161666Y22007D01*
X161447Y22165D01*
X161232Y22328D01*
X161022Y22497D01*
X160815Y22671D01*
X160613Y22850D01*
X160415Y23033D01*
X160222Y23222D01*
X160033Y23415D01*
X159850Y23613D01*
X159671Y23815D01*
X159497Y24022D01*
X159328Y24232D01*
X159165Y24447D01*
X159007Y24666D01*
X158854Y24889D01*
X158707Y25115D01*
X158565Y25345D01*
X158429Y25578D01*
X158299Y25815D01*
X158175Y26054D01*
X158056Y26297D01*
X157944Y26542D01*
X157837Y26790D01*
X157737Y27041D01*
X157643Y27294D01*
X157555Y27550D01*
X157474Y27807D01*
X157398Y28066D01*
X157330Y28327D01*
X157267Y28590D01*
X157211Y28854D01*
X157162Y29119D01*
X157119Y29386D01*
X157083Y29653D01*
X157053Y29922D01*
X157030Y30191D01*
X157013Y30460D01*
X157003Y30730D01*
X157000Y31000D01*
X66972Y970941D02*
X66975Y971211D01*
X66985Y971481D01*
X67002Y971750D01*
X67025Y972019D01*
X67055Y972288D01*
X67091Y972555D01*
X67134Y972822D01*
X67183Y973087D01*
X67239Y973351D01*
X67302Y973614D01*
X67370Y973875D01*
X67446Y974134D01*
X67527Y974391D01*
X67615Y974647D01*
X67709Y974900D01*
X67809Y975151D01*
X67916Y975399D01*
X68028Y975644D01*
X68147Y975887D01*
X68271Y976126D01*
X68401Y976363D01*
X68537Y976596D01*
X68679Y976826D01*
X68826Y977052D01*
X68979Y977275D01*
X69137Y977494D01*
X69300Y977709D01*
X69469Y977919D01*
X69643Y978126D01*
X69822Y978328D01*
X70005Y978526D01*
X70194Y978719D01*
X70387Y978908D01*
X70585Y979091D01*
X70787Y979270D01*
X70994Y979444D01*
X71204Y979613D01*
X71419Y979776D01*
X71638Y979934D01*
X71861Y980087D01*
X72087Y980234D01*
X72317Y980376D01*
X72550Y980512D01*
X72787Y980642D01*
X73026Y980766D01*
X73269Y980885D01*
X73514Y980997D01*
X73762Y981104D01*
X74013Y981204D01*
X74266Y981298D01*
X74522Y981386D01*
X74779Y981467D01*
X75038Y981543D01*
X75299Y981611D01*
X75562Y981674D01*
X75826Y981730D01*
X76091Y981779D01*
X76358Y981822D01*
X76625Y981858D01*
X76894Y981888D01*
X77163Y981911D01*
X77432Y981928D01*
X77702Y981938D01*
X77972Y981941D01*
X78242Y981938D01*
X78512Y981928D01*
X78781Y981911D01*
X79050Y981888D01*
X79319Y981858D01*
X79586Y981822D01*
X79853Y981779D01*
X80118Y981730D01*
X80382Y981674D01*
X80645Y981611D01*
X80906Y981543D01*
X81165Y981467D01*
X81422Y981386D01*
X81678Y981298D01*
X81931Y981204D01*
X82182Y981104D01*
X82430Y980997D01*
X82675Y980885D01*
X82918Y980766D01*
X83157Y980642D01*
X83394Y980512D01*
X83627Y980376D01*
X83857Y980234D01*
X84083Y980087D01*
X84306Y979934D01*
X84525Y979776D01*
X84740Y979613D01*
X84950Y979444D01*
X85157Y979270D01*
X85359Y979091D01*
X85557Y978908D01*
X85750Y978719D01*
X85939Y978526D01*
X86122Y978328D01*
X86301Y978126D01*
X86475Y977919D01*
X86644Y977709D01*
X86807Y977494D01*
X86965Y977275D01*
X87118Y977052D01*
X87265Y976826D01*
X87407Y976596D01*
X87543Y976363D01*
X87673Y976126D01*
X87797Y975887D01*
X87916Y975644D01*
X88028Y975399D01*
X88135Y975151D01*
X88235Y974900D01*
X88329Y974647D01*
X88417Y974391D01*
X88498Y974134D01*
X88574Y973875D01*
X88642Y973614D01*
X88705Y973351D01*
X88761Y973087D01*
X88810Y972822D01*
X88853Y972555D01*
X88889Y972288D01*
X88919Y972019D01*
X88942Y971750D01*
X88959Y971481D01*
X88969Y971211D01*
X88972Y970941D01*
X88969Y970671D01*
X88959Y970401D01*
X88942Y970132D01*
X88919Y969863D01*
X88889Y969594D01*
X88853Y969327D01*
X88810Y969060D01*
X88761Y968795D01*
X88705Y968531D01*
X88642Y968268D01*
X88574Y968007D01*
X88498Y967748D01*
X88417Y967491D01*
X88329Y967235D01*
X88235Y966982D01*
X88135Y966731D01*
X88028Y966483D01*
X87916Y966238D01*
X87797Y965995D01*
X87673Y965756D01*
X87543Y965519D01*
X87407Y965286D01*
X87265Y965056D01*
X87118Y964830D01*
X86965Y964607D01*
X86807Y964388D01*
X86644Y964173D01*
X86475Y963963D01*
X86301Y963756D01*
X86122Y963554D01*
X85939Y963356D01*
X85750Y963163D01*
X85557Y962974D01*
X85359Y962791D01*
X85157Y962612D01*
X84950Y962438D01*
X84740Y962269D01*
X84525Y962106D01*
X84306Y961948D01*
X84083Y961795D01*
X83857Y961648D01*
X83627Y961506D01*
X83394Y961370D01*
X83157Y961240D01*
X82918Y961116D01*
X82675Y960997D01*
X82430Y960885D01*
X82182Y960778D01*
X81931Y960678D01*
X81678Y960584D01*
X81422Y960496D01*
X81165Y960415D01*
X80906Y960339D01*
X80645Y960271D01*
X80382Y960208D01*
X80118Y960152D01*
X79853Y960103D01*
X79586Y960060D01*
X79319Y960024D01*
X79050Y959994D01*
X78781Y959971D01*
X78512Y959954D01*
X78242Y959944D01*
X77972Y959941D01*
X77702Y959944D01*
X77432Y959954D01*
X77163Y959971D01*
X76894Y959994D01*
X76625Y960024D01*
X76358Y960060D01*
X76091Y960103D01*
X75826Y960152D01*
X75562Y960208D01*
X75299Y960271D01*
X75038Y960339D01*
X74779Y960415D01*
X74522Y960496D01*
X74266Y960584D01*
X74013Y960678D01*
X73762Y960778D01*
X73514Y960885D01*
X73269Y960997D01*
X73026Y961116D01*
X72787Y961240D01*
X72550Y961370D01*
X72317Y961506D01*
X72087Y961648D01*
X71861Y961795D01*
X71638Y961948D01*
X71419Y962106D01*
X71204Y962269D01*
X70994Y962438D01*
X70787Y962612D01*
X70585Y962791D01*
X70387Y962974D01*
X70194Y963163D01*
X70005Y963356D01*
X69822Y963554D01*
X69643Y963756D01*
X69469Y963963D01*
X69300Y964173D01*
X69137Y964388D01*
X68979Y964607D01*
X68826Y964830D01*
X68679Y965056D01*
X68537Y965286D01*
X68401Y965519D01*
X68271Y965756D01*
X68147Y965995D01*
X68028Y966238D01*
X67916Y966483D01*
X67809Y966731D01*
X67709Y966982D01*
X67615Y967235D01*
X67527Y967491D01*
X67446Y967748D01*
X67370Y968007D01*
X67302Y968268D01*
X67239Y968531D01*
X67183Y968795D01*
X67134Y969060D01*
X67091Y969327D01*
X67055Y969594D01*
X67025Y969863D01*
X67002Y970132D01*
X66985Y970401D01*
X66975Y970671D01*
X66972Y970941D01*
D11*
X826000Y1007000D02*
X826000Y0D01*
X826000Y1007000D02*
X0Y1007000D01*
X0Y0D01*
X826000Y0D01*
M02*
