G04 EAGLE Gerber RS-274X export*
G75*
%MOMM*%
%FSLAX34Y34*%
%LPD*%
%INSilk screen CMP*%
%IPPOS*%
%AMOC8*
5,1,8,0,0,1.08239X$1,22.5*%
G01*
%ADD10C,0.406400*%
%ADD11C,0.304800*%


D10*
X0Y105300D02*
X825500Y105300D01*
X2600Y847000D02*
X138500Y982900D01*
X691900Y983400D01*
X826900Y848400D01*
X826900Y553400D01*
X100Y553400D01*
X-900Y843900D01*
X3500Y848300D01*
X900Y91100D02*
X826300Y91100D01*
X600Y91100D02*
X0Y91700D01*
X100Y384500D02*
X136000Y520400D01*
X137500Y521500D02*
X689700Y522000D01*
X825700Y387000D01*
X827000Y387300D02*
X827000Y92300D01*
X-500Y92800D02*
X-1500Y383300D01*
D11*
X13411Y569286D02*
X13411Y839286D01*
X813411Y839286D02*
X813411Y569286D01*
X143411Y969286D02*
X13411Y839286D01*
X143411Y969286D02*
X683411Y969286D01*
X813411Y839286D01*
X813411Y569286D02*
X13411Y569286D01*
X14935Y108306D02*
X814935Y108306D01*
X14935Y108306D02*
X14935Y378306D01*
X814935Y378306D02*
X814935Y108306D01*
X144935Y508306D02*
X14935Y378306D01*
X144935Y508306D02*
X684935Y508306D01*
X814935Y378306D01*
M02*
