G04 EAGLE Gerber RS-274X export*
G75*
%MOMM*%
%FSLAX34Y34*%
%LPD*%
%INSolder side*%
%IPPOS*%
%AMOC8*
5,1,8,0,0,1.08239X$1,22.5*%
G01*
%ADD10R,0.400000X1.200000*%
%ADD11R,1.500000X1.300000*%
%ADD12R,0.890000X4.000000*%
%ADD13R,1.220000X0.910000*%
%ADD14R,1.300000X1.500000*%
%ADD15R,0.700000X0.900000*%
%ADD16C,1.016000*%
%ADD17C,0.152400*%
%ADD18C,0.650000*%
%ADD19C,0.406400*%
%ADD20C,0.609600*%

G36*
X154389Y10001D02*
X154389Y10001D01*
X154396Y10001D01*
X154592Y10022D01*
X154783Y10041D01*
X154790Y10043D01*
X154796Y10043D01*
X154982Y10102D01*
X155168Y10159D01*
X155174Y10162D01*
X155180Y10164D01*
X155351Y10258D01*
X155522Y10351D01*
X155527Y10355D01*
X155533Y10358D01*
X155683Y10485D01*
X155831Y10608D01*
X155836Y10614D01*
X155841Y10618D01*
X155961Y10770D01*
X156084Y10922D01*
X156087Y10928D01*
X156091Y10933D01*
X156179Y11106D01*
X156269Y11279D01*
X156271Y11286D01*
X156274Y11292D01*
X156327Y11478D01*
X156381Y11666D01*
X156381Y11673D01*
X156383Y11679D01*
X156398Y11872D01*
X156414Y12068D01*
X156413Y12074D01*
X156413Y12081D01*
X156389Y12274D01*
X156367Y12467D01*
X156365Y12474D01*
X156364Y12480D01*
X156303Y12663D01*
X156242Y12850D01*
X156238Y12856D01*
X156236Y12862D01*
X156141Y13029D01*
X156044Y13201D01*
X156039Y13206D01*
X156036Y13212D01*
X155909Y13357D01*
X155781Y13505D01*
X155775Y13510D01*
X155771Y13515D01*
X155511Y13721D01*
X152640Y15640D01*
X147931Y22687D01*
X146277Y31000D01*
X147931Y39313D01*
X152640Y46360D01*
X159687Y51069D01*
X168000Y52723D01*
X176313Y51069D01*
X183360Y46360D01*
X188069Y39313D01*
X189723Y31000D01*
X188069Y22687D01*
X183360Y15640D01*
X180489Y13721D01*
X180484Y13717D01*
X180478Y13713D01*
X180330Y13591D01*
X180178Y13465D01*
X180174Y13460D01*
X180169Y13456D01*
X180048Y13306D01*
X179924Y13153D01*
X179920Y13147D01*
X179916Y13142D01*
X179828Y12971D01*
X179736Y12797D01*
X179734Y12790D01*
X179731Y12785D01*
X179677Y12597D01*
X179622Y12411D01*
X179621Y12404D01*
X179619Y12398D01*
X179603Y12202D01*
X179586Y12010D01*
X179587Y12003D01*
X179586Y11996D01*
X179609Y11803D01*
X179631Y11610D01*
X179633Y11603D01*
X179633Y11597D01*
X179694Y11410D01*
X179753Y11226D01*
X179756Y11220D01*
X179758Y11214D01*
X179854Y11044D01*
X179948Y10874D01*
X179953Y10869D01*
X179956Y10863D01*
X180082Y10718D01*
X180210Y10568D01*
X180215Y10563D01*
X180219Y10558D01*
X180371Y10441D01*
X180526Y10319D01*
X180532Y10316D01*
X180537Y10312D01*
X180712Y10225D01*
X180885Y10137D01*
X180892Y10135D01*
X180898Y10132D01*
X181087Y10082D01*
X181274Y10030D01*
X181280Y10030D01*
X181287Y10028D01*
X181617Y10001D01*
X644383Y10001D01*
X644389Y10001D01*
X644396Y10001D01*
X644592Y10022D01*
X644783Y10041D01*
X644790Y10043D01*
X644796Y10043D01*
X644982Y10102D01*
X645168Y10159D01*
X645174Y10162D01*
X645180Y10164D01*
X645351Y10258D01*
X645522Y10351D01*
X645527Y10355D01*
X645533Y10358D01*
X645683Y10485D01*
X645831Y10608D01*
X645836Y10614D01*
X645841Y10618D01*
X645961Y10770D01*
X646084Y10922D01*
X646087Y10928D01*
X646091Y10933D01*
X646179Y11106D01*
X646269Y11279D01*
X646271Y11286D01*
X646274Y11292D01*
X646327Y11478D01*
X646381Y11666D01*
X646381Y11673D01*
X646383Y11679D01*
X646398Y11872D01*
X646414Y12068D01*
X646413Y12074D01*
X646413Y12081D01*
X646389Y12274D01*
X646367Y12467D01*
X646365Y12474D01*
X646364Y12480D01*
X646303Y12663D01*
X646242Y12850D01*
X646238Y12856D01*
X646236Y12862D01*
X646141Y13029D01*
X646044Y13201D01*
X646039Y13206D01*
X646036Y13212D01*
X645909Y13357D01*
X645781Y13505D01*
X645775Y13510D01*
X645771Y13515D01*
X645511Y13721D01*
X642640Y15640D01*
X637931Y22687D01*
X636277Y31000D01*
X637931Y39313D01*
X639365Y41459D01*
X639370Y41469D01*
X639377Y41478D01*
X639464Y41646D01*
X639554Y41815D01*
X639558Y41826D01*
X639563Y41835D01*
X639615Y42017D01*
X639670Y42200D01*
X639671Y42212D01*
X639674Y42222D01*
X639690Y42411D01*
X639707Y42601D01*
X639706Y42612D01*
X639707Y42624D01*
X639685Y42811D01*
X639665Y43002D01*
X639661Y43012D01*
X639660Y43023D01*
X639601Y43204D01*
X639544Y43386D01*
X639539Y43396D01*
X639535Y43406D01*
X639441Y43572D01*
X639350Y43739D01*
X639343Y43747D01*
X639337Y43757D01*
X639213Y43901D01*
X639090Y44046D01*
X639081Y44053D01*
X639074Y44062D01*
X638924Y44178D01*
X638775Y44296D01*
X638765Y44302D01*
X638756Y44308D01*
X638586Y44393D01*
X638416Y44480D01*
X638406Y44483D01*
X638395Y44488D01*
X638211Y44537D01*
X638029Y44588D01*
X638018Y44589D01*
X638007Y44592D01*
X637676Y44619D01*
X481608Y44619D01*
X476065Y46915D01*
X469869Y53112D01*
X476023Y53112D01*
X476123Y53123D01*
X476223Y53125D01*
X476295Y53143D01*
X476369Y53152D01*
X476463Y53185D01*
X476561Y53210D01*
X476627Y53244D01*
X476697Y53269D01*
X476781Y53324D01*
X476871Y53370D01*
X476927Y53418D01*
X476990Y53458D01*
X477060Y53530D01*
X477136Y53595D01*
X477180Y53655D01*
X477232Y53709D01*
X477284Y53795D01*
X477343Y53876D01*
X477373Y53944D01*
X477411Y54008D01*
X477441Y54103D01*
X477481Y54196D01*
X477494Y54269D01*
X477517Y54340D01*
X477525Y54440D01*
X477543Y54539D01*
X477539Y54613D01*
X477545Y54687D01*
X477530Y54786D01*
X477525Y54887D01*
X477504Y54958D01*
X477493Y55032D01*
X477456Y55125D01*
X477428Y55222D01*
X477392Y55287D01*
X477365Y55356D01*
X477307Y55438D01*
X477258Y55526D01*
X477193Y55602D01*
X477166Y55642D01*
X477139Y55666D01*
X477100Y55712D01*
X467507Y65305D01*
X467408Y65384D01*
X467314Y65468D01*
X467272Y65492D01*
X467234Y65522D01*
X467120Y65576D01*
X467009Y65637D01*
X466962Y65650D01*
X466919Y65671D01*
X466795Y65697D01*
X466673Y65732D01*
X466613Y65737D01*
X466578Y65744D01*
X466530Y65743D01*
X466430Y65751D01*
X458787Y65751D01*
X457001Y67537D01*
X457001Y76148D01*
X457001Y76150D01*
X457001Y76152D01*
X456981Y76323D01*
X456961Y76494D01*
X456961Y76496D01*
X456960Y76498D01*
X456885Y76731D01*
X456217Y78345D01*
X456217Y88457D01*
X456202Y88582D01*
X456196Y88708D01*
X456182Y88755D01*
X456177Y88803D01*
X456134Y88922D01*
X456099Y89043D01*
X456076Y89085D01*
X456059Y89131D01*
X455991Y89237D01*
X455929Y89347D01*
X455890Y89394D01*
X455870Y89424D01*
X455836Y89457D01*
X455771Y89534D01*
X454210Y91094D01*
X454190Y91111D01*
X454172Y91131D01*
X454053Y91219D01*
X453937Y91311D01*
X453913Y91322D01*
X453892Y91338D01*
X453756Y91396D01*
X453622Y91460D01*
X453596Y91465D01*
X453572Y91476D01*
X453426Y91502D01*
X453281Y91533D01*
X453255Y91533D01*
X453229Y91537D01*
X453081Y91530D01*
X452933Y91527D01*
X452907Y91521D01*
X452881Y91519D01*
X452739Y91478D01*
X452595Y91442D01*
X452571Y91430D01*
X452546Y91423D01*
X452417Y91351D01*
X452285Y91283D01*
X452265Y91266D01*
X452242Y91253D01*
X452056Y91094D01*
X450213Y89251D01*
X438787Y89251D01*
X437001Y91037D01*
X437001Y108859D01*
X437001Y108861D01*
X437001Y108863D01*
X436981Y109034D01*
X436961Y109205D01*
X436961Y109207D01*
X436960Y109209D01*
X436885Y109442D01*
X436371Y110683D01*
X436371Y113917D01*
X436885Y115158D01*
X436886Y115160D01*
X436887Y115162D01*
X436934Y115329D01*
X436981Y115493D01*
X436981Y115495D01*
X436982Y115497D01*
X437001Y115741D01*
X437001Y133563D01*
X438787Y135349D01*
X450213Y135349D01*
X451999Y133563D01*
X451999Y116928D01*
X452013Y116802D01*
X452020Y116676D01*
X452033Y116630D01*
X452039Y116582D01*
X452081Y116463D01*
X452116Y116341D01*
X452140Y116299D01*
X452156Y116254D01*
X452225Y116147D01*
X452286Y116037D01*
X452326Y115991D01*
X452345Y115961D01*
X452380Y115927D01*
X452445Y115851D01*
X456444Y111852D01*
X456464Y111836D01*
X456481Y111816D01*
X456601Y111727D01*
X456717Y111635D01*
X456740Y111624D01*
X456762Y111609D01*
X456898Y111550D01*
X457032Y111486D01*
X457058Y111481D01*
X457082Y111471D01*
X457228Y111444D01*
X457373Y111413D01*
X457399Y111414D01*
X457425Y111409D01*
X457573Y111417D01*
X457721Y111419D01*
X457746Y111425D01*
X457773Y111427D01*
X457915Y111468D01*
X458059Y111504D01*
X458082Y111516D01*
X458107Y111523D01*
X458237Y111596D01*
X458369Y111664D01*
X458389Y111681D01*
X458412Y111694D01*
X458598Y111852D01*
X459741Y112995D01*
X462729Y114232D01*
X465962Y114232D01*
X468950Y112995D01*
X469650Y112295D01*
X469749Y112216D01*
X469843Y112132D01*
X469885Y112108D01*
X469923Y112078D01*
X470037Y112024D01*
X471999Y110063D01*
X471999Y109171D01*
X471999Y109169D01*
X471999Y109167D01*
X472019Y108997D01*
X472039Y108825D01*
X472039Y108823D01*
X472040Y108821D01*
X472115Y108588D01*
X472474Y107721D01*
X472474Y83960D01*
X472489Y83835D01*
X472495Y83708D01*
X472508Y83662D01*
X472514Y83614D01*
X472557Y83495D01*
X472592Y83374D01*
X472615Y83331D01*
X472632Y83286D01*
X472700Y83180D01*
X472762Y83069D01*
X472801Y83023D01*
X472821Y82993D01*
X472855Y82960D01*
X472920Y82883D01*
X487528Y68275D01*
X487627Y68196D01*
X487721Y68112D01*
X487764Y68088D01*
X487801Y68058D01*
X487916Y68004D01*
X488026Y67943D01*
X488073Y67930D01*
X488117Y67909D01*
X488240Y67883D01*
X488362Y67848D01*
X488423Y67843D01*
X488457Y67836D01*
X488505Y67837D01*
X488606Y67829D01*
X495478Y67829D01*
X495504Y67832D01*
X495530Y67830D01*
X495677Y67852D01*
X495824Y67869D01*
X495849Y67877D01*
X495875Y67881D01*
X496013Y67936D01*
X496152Y67986D01*
X496174Y68000D01*
X496199Y68010D01*
X496320Y68095D01*
X496445Y68175D01*
X496463Y68194D01*
X496485Y68209D01*
X496584Y68319D01*
X496687Y68426D01*
X496701Y68448D01*
X496718Y68468D01*
X496790Y68598D01*
X496866Y68725D01*
X496874Y68750D01*
X496887Y68773D01*
X496927Y68916D01*
X496972Y69057D01*
X496974Y69083D01*
X496982Y69108D01*
X497001Y69352D01*
X497001Y110063D01*
X498787Y111849D01*
X510213Y111849D01*
X511999Y110063D01*
X511999Y69352D01*
X512002Y69326D01*
X512000Y69300D01*
X512022Y69153D01*
X512039Y69006D01*
X512047Y68981D01*
X512051Y68955D01*
X512106Y68817D01*
X512156Y68678D01*
X512170Y68656D01*
X512180Y68631D01*
X512265Y68510D01*
X512345Y68385D01*
X512364Y68367D01*
X512379Y68345D01*
X512489Y68246D01*
X512596Y68143D01*
X512618Y68129D01*
X512638Y68112D01*
X512768Y68040D01*
X512895Y67964D01*
X512920Y67956D01*
X512943Y67943D01*
X513086Y67903D01*
X513227Y67858D01*
X513253Y67856D01*
X513278Y67848D01*
X513522Y67829D01*
X545195Y67829D01*
X545242Y67834D01*
X545288Y67832D01*
X545415Y67854D01*
X545542Y67869D01*
X545586Y67884D01*
X545632Y67893D01*
X545749Y67943D01*
X545870Y67986D01*
X545909Y68011D01*
X545952Y68030D01*
X546055Y68106D01*
X546162Y68175D01*
X546195Y68209D01*
X546233Y68236D01*
X546316Y68334D01*
X546405Y68426D01*
X546429Y68466D01*
X546459Y68501D01*
X546518Y68615D01*
X546583Y68725D01*
X546598Y68769D01*
X546619Y68811D01*
X546651Y68935D01*
X546690Y69057D01*
X546693Y69103D01*
X546705Y69149D01*
X546718Y69393D01*
X546573Y74781D01*
X675739Y74781D01*
X675766Y74783D01*
X675793Y74781D01*
X675966Y74803D01*
X676140Y74821D01*
X676166Y74829D01*
X676192Y74832D01*
X676357Y74887D01*
X676524Y74939D01*
X676548Y74952D01*
X676574Y74960D01*
X676864Y75121D01*
X707525Y95528D01*
X707546Y95545D01*
X707569Y95558D01*
X707701Y95672D01*
X707837Y95783D01*
X707854Y95803D01*
X707874Y95821D01*
X707981Y95959D01*
X708092Y96095D01*
X708104Y96118D01*
X708120Y96139D01*
X708198Y96295D01*
X708280Y96450D01*
X708288Y96476D01*
X708300Y96499D01*
X708345Y96669D01*
X708395Y96836D01*
X708397Y96863D01*
X708404Y96888D01*
X708431Y97219D01*
X708431Y515600D01*
X708429Y515618D01*
X708431Y515636D01*
X708410Y515818D01*
X708391Y516001D01*
X708386Y516018D01*
X708384Y516035D01*
X708327Y516210D01*
X708273Y516386D01*
X708265Y516401D01*
X708259Y516418D01*
X708169Y516578D01*
X708081Y516740D01*
X708070Y516753D01*
X708061Y516769D01*
X707941Y516908D01*
X707824Y517049D01*
X707810Y517060D01*
X707798Y517074D01*
X707653Y517186D01*
X707510Y517301D01*
X707494Y517309D01*
X707480Y517320D01*
X707315Y517402D01*
X707153Y517487D01*
X707136Y517492D01*
X707120Y517500D01*
X706941Y517547D01*
X706766Y517598D01*
X706748Y517600D01*
X706731Y517604D01*
X706400Y517631D01*
X346712Y517631D01*
X346694Y517629D01*
X346676Y517631D01*
X346494Y517610D01*
X346311Y517591D01*
X346294Y517586D01*
X346277Y517584D01*
X346102Y517527D01*
X345926Y517473D01*
X345911Y517465D01*
X345894Y517459D01*
X345734Y517369D01*
X345572Y517281D01*
X345559Y517270D01*
X345543Y517261D01*
X345404Y517141D01*
X345263Y517024D01*
X345252Y517010D01*
X345238Y516998D01*
X345126Y516853D01*
X345011Y516710D01*
X345003Y516694D01*
X344992Y516680D01*
X344910Y516515D01*
X344825Y516353D01*
X344820Y516336D01*
X344812Y516320D01*
X344765Y516141D01*
X344714Y515966D01*
X344712Y515948D01*
X344708Y515931D01*
X344681Y515600D01*
X344681Y508829D01*
X344684Y508798D01*
X344682Y508767D01*
X344704Y508598D01*
X344721Y508429D01*
X344730Y508399D01*
X344734Y508368D01*
X344835Y508052D01*
X346301Y504514D01*
X346301Y491436D01*
X344778Y487760D01*
X341965Y484947D01*
X338289Y483424D01*
X334883Y483424D01*
X334852Y483421D01*
X334821Y483423D01*
X334652Y483401D01*
X334483Y483384D01*
X334453Y483375D01*
X334422Y483371D01*
X334106Y483270D01*
X333200Y482894D01*
X327200Y482894D01*
X326294Y483270D01*
X326264Y483279D01*
X326236Y483293D01*
X326072Y483337D01*
X325909Y483386D01*
X325878Y483389D01*
X325847Y483397D01*
X325517Y483424D01*
X322111Y483424D01*
X318435Y484947D01*
X315622Y487760D01*
X314099Y491436D01*
X314099Y504514D01*
X314365Y505155D01*
X314374Y505185D01*
X314388Y505213D01*
X314432Y505378D01*
X314481Y505540D01*
X314484Y505571D01*
X314492Y505602D01*
X314519Y505932D01*
X314519Y515600D01*
X314517Y515618D01*
X314519Y515636D01*
X314498Y515818D01*
X314479Y516001D01*
X314474Y516018D01*
X314472Y516035D01*
X314415Y516210D01*
X314361Y516386D01*
X314353Y516401D01*
X314347Y516418D01*
X314257Y516578D01*
X314169Y516740D01*
X314158Y516753D01*
X314149Y516769D01*
X314029Y516908D01*
X313912Y517049D01*
X313898Y517060D01*
X313886Y517074D01*
X313741Y517186D01*
X313598Y517301D01*
X313582Y517309D01*
X313568Y517320D01*
X313403Y517402D01*
X313241Y517487D01*
X313224Y517492D01*
X313208Y517500D01*
X313029Y517547D01*
X312854Y517598D01*
X312836Y517600D01*
X312819Y517604D01*
X312488Y517631D01*
X142950Y517631D01*
X142932Y517629D01*
X142914Y517631D01*
X142732Y517610D01*
X142549Y517591D01*
X142532Y517586D01*
X142515Y517584D01*
X142340Y517527D01*
X142164Y517473D01*
X142149Y517465D01*
X142132Y517459D01*
X141972Y517369D01*
X141810Y517281D01*
X141797Y517270D01*
X141781Y517261D01*
X141642Y517141D01*
X141501Y517024D01*
X141490Y517010D01*
X141477Y516998D01*
X141364Y516853D01*
X141249Y516710D01*
X141241Y516694D01*
X141230Y516680D01*
X141148Y516515D01*
X141063Y516353D01*
X141058Y516336D01*
X141050Y516320D01*
X141003Y516141D01*
X140952Y515966D01*
X140950Y515948D01*
X140946Y515931D01*
X140919Y515600D01*
X140919Y12032D01*
X140921Y12014D01*
X140919Y11996D01*
X140940Y11814D01*
X140959Y11631D01*
X140964Y11614D01*
X140966Y11597D01*
X141023Y11422D01*
X141077Y11246D01*
X141085Y11231D01*
X141091Y11214D01*
X141181Y11054D01*
X141269Y10892D01*
X141280Y10879D01*
X141289Y10863D01*
X141409Y10724D01*
X141526Y10583D01*
X141540Y10572D01*
X141552Y10558D01*
X141697Y10446D01*
X141840Y10331D01*
X141856Y10323D01*
X141870Y10312D01*
X142035Y10230D01*
X142197Y10145D01*
X142214Y10140D01*
X142231Y10132D01*
X142409Y10085D01*
X142584Y10034D01*
X142602Y10032D01*
X142619Y10028D01*
X142950Y10001D01*
X154383Y10001D01*
X154389Y10001D01*
G37*
G36*
X699576Y587959D02*
X699576Y587959D01*
X699652Y587957D01*
X699821Y587979D01*
X699992Y587993D01*
X700066Y588011D01*
X700141Y588021D01*
X700305Y588070D01*
X700471Y588111D01*
X700540Y588141D01*
X700614Y588163D01*
X700767Y588239D01*
X700924Y588306D01*
X700988Y588347D01*
X701057Y588380D01*
X701196Y588479D01*
X701340Y588571D01*
X701397Y588622D01*
X701459Y588666D01*
X701580Y588786D01*
X701708Y588900D01*
X701756Y588959D01*
X701810Y589013D01*
X701911Y589151D01*
X702018Y589284D01*
X702055Y589350D01*
X702100Y589411D01*
X702177Y589564D01*
X702262Y589712D01*
X702288Y589784D01*
X702323Y589852D01*
X702374Y590015D01*
X702433Y590175D01*
X702448Y590250D01*
X702471Y590322D01*
X702483Y590427D01*
X702528Y590659D01*
X702535Y590895D01*
X702547Y591000D01*
X702547Y942700D01*
X702541Y942776D01*
X702543Y942852D01*
X702521Y943021D01*
X702507Y943192D01*
X702489Y943266D01*
X702479Y943341D01*
X702430Y943505D01*
X702389Y943671D01*
X702359Y943740D01*
X702337Y943814D01*
X702261Y943967D01*
X702194Y944124D01*
X702153Y944188D01*
X702120Y944257D01*
X702021Y944396D01*
X701929Y944540D01*
X701878Y944597D01*
X701834Y944659D01*
X701714Y944780D01*
X701600Y944908D01*
X701541Y944956D01*
X701487Y945010D01*
X701349Y945111D01*
X701216Y945218D01*
X701150Y945255D01*
X701089Y945300D01*
X700936Y945377D01*
X700788Y945462D01*
X700716Y945488D01*
X700648Y945523D01*
X700485Y945574D01*
X700325Y945633D01*
X700250Y945648D01*
X700178Y945671D01*
X700073Y945683D01*
X699841Y945728D01*
X699605Y945735D01*
X699500Y945747D01*
X142954Y945747D01*
X142820Y945773D01*
X142617Y945819D01*
X142578Y945821D01*
X142541Y945828D01*
X142333Y945835D01*
X142124Y945846D01*
X142086Y945842D01*
X142048Y945843D01*
X141841Y945816D01*
X141633Y945794D01*
X141597Y945784D01*
X141559Y945779D01*
X141359Y945719D01*
X141158Y945663D01*
X141123Y945648D01*
X141087Y945637D01*
X140899Y945545D01*
X140709Y945458D01*
X140678Y945436D01*
X140643Y945420D01*
X140473Y945299D01*
X140300Y945182D01*
X140272Y945156D01*
X140241Y945134D01*
X140093Y944987D01*
X139940Y944845D01*
X139917Y944814D01*
X139890Y944787D01*
X139767Y944619D01*
X139640Y944453D01*
X139622Y944420D01*
X139600Y944389D01*
X139506Y944202D01*
X139407Y944018D01*
X139395Y943982D01*
X139377Y943948D01*
X139315Y943749D01*
X139247Y943552D01*
X139241Y943514D01*
X139229Y943478D01*
X139219Y943385D01*
X139164Y943065D01*
X139163Y942893D01*
X139153Y942800D01*
X139153Y591000D01*
X139159Y590924D01*
X139157Y590848D01*
X139179Y590679D01*
X139193Y590508D01*
X139211Y590434D01*
X139221Y590359D01*
X139270Y590195D01*
X139311Y590029D01*
X139341Y589960D01*
X139363Y589887D01*
X139439Y589733D01*
X139506Y589576D01*
X139547Y589512D01*
X139580Y589443D01*
X139679Y589304D01*
X139771Y589160D01*
X139822Y589103D01*
X139866Y589041D01*
X139986Y588920D01*
X140100Y588792D01*
X140159Y588744D01*
X140213Y588690D01*
X140351Y588589D01*
X140484Y588482D01*
X140550Y588445D01*
X140611Y588400D01*
X140764Y588323D01*
X140912Y588238D01*
X140984Y588212D01*
X141052Y588177D01*
X141215Y588126D01*
X141375Y588067D01*
X141450Y588052D01*
X141522Y588029D01*
X141627Y588017D01*
X141859Y587972D01*
X142095Y587965D01*
X142200Y587953D01*
X699500Y587953D01*
X699576Y587959D01*
G37*
%LPC*%
G36*
X318787Y89251D02*
X318787Y89251D01*
X317001Y91037D01*
X317001Y129717D01*
X316995Y129776D01*
X316997Y129835D01*
X316975Y129948D01*
X316961Y130063D01*
X316942Y130119D01*
X316930Y130177D01*
X316883Y130282D01*
X316844Y130391D01*
X316812Y130441D01*
X316788Y130495D01*
X316668Y130664D01*
X316655Y130684D01*
X316651Y130688D01*
X316646Y130694D01*
X315088Y132557D01*
X315074Y132571D01*
X315063Y132587D01*
X314948Y132690D01*
X314836Y132797D01*
X314819Y132807D01*
X314804Y132820D01*
X314669Y132895D01*
X314535Y132974D01*
X314516Y132979D01*
X314499Y132989D01*
X314350Y133031D01*
X314202Y133077D01*
X314183Y133078D01*
X314164Y133084D01*
X313920Y133103D01*
X290499Y133103D01*
X290460Y133099D01*
X290420Y133101D01*
X290287Y133079D01*
X290153Y133063D01*
X290116Y133050D01*
X290077Y133044D01*
X289952Y132991D01*
X289825Y132946D01*
X289791Y132924D01*
X289755Y132909D01*
X289645Y132830D01*
X289532Y132757D01*
X289504Y132728D01*
X289472Y132705D01*
X289384Y132603D01*
X289290Y132506D01*
X289269Y132472D01*
X289243Y132443D01*
X289180Y132323D01*
X289111Y132207D01*
X289099Y132170D01*
X289080Y132135D01*
X289046Y132004D01*
X289005Y131875D01*
X289001Y131836D01*
X288991Y131798D01*
X288976Y131554D01*
X289070Y126151D01*
X231836Y126151D01*
X231809Y126149D01*
X231783Y126151D01*
X231609Y126129D01*
X231435Y126111D01*
X231410Y126104D01*
X231383Y126100D01*
X231217Y126045D01*
X231050Y125993D01*
X231027Y125980D01*
X231001Y125972D01*
X230850Y125885D01*
X230696Y125801D01*
X230676Y125784D01*
X230653Y125771D01*
X230400Y125556D01*
X229065Y124222D01*
X227546Y123593D01*
X225774Y122859D01*
X225770Y122857D01*
X225766Y122855D01*
X225593Y122762D01*
X225419Y122668D01*
X225415Y122666D01*
X225412Y122663D01*
X225263Y122539D01*
X225109Y122412D01*
X225106Y122408D01*
X225102Y122406D01*
X224980Y122253D01*
X224855Y122099D01*
X224853Y122095D01*
X224850Y122092D01*
X224759Y121917D01*
X224668Y121743D01*
X224667Y121739D01*
X224665Y121735D01*
X224610Y121545D01*
X224555Y121356D01*
X224554Y121352D01*
X224553Y121348D01*
X224537Y121149D01*
X224520Y120955D01*
X224521Y120951D01*
X224520Y120946D01*
X224543Y120748D01*
X224565Y120555D01*
X224567Y120551D01*
X224567Y120547D01*
X224629Y120358D01*
X224688Y120172D01*
X224691Y120168D01*
X224692Y120164D01*
X224789Y119991D01*
X224885Y119820D01*
X224888Y119817D01*
X224890Y119813D01*
X225019Y119663D01*
X225147Y119515D01*
X225150Y119512D01*
X225153Y119508D01*
X225306Y119390D01*
X225464Y119266D01*
X225468Y119264D01*
X225471Y119262D01*
X225646Y119175D01*
X225823Y119086D01*
X225828Y119084D01*
X225832Y119082D01*
X225941Y119053D01*
X225941Y115365D01*
X225768Y114719D01*
X225433Y114140D01*
X224960Y113667D01*
X224381Y113332D01*
X223735Y113159D01*
X219149Y113159D01*
X219149Y120668D01*
X219147Y120686D01*
X219149Y120704D01*
X219128Y120886D01*
X219109Y121069D01*
X219104Y121086D01*
X219102Y121103D01*
X219045Y121278D01*
X218991Y121454D01*
X218983Y121469D01*
X218977Y121486D01*
X218887Y121646D01*
X218799Y121808D01*
X218788Y121821D01*
X218779Y121837D01*
X218659Y121976D01*
X218542Y122117D01*
X218528Y122128D01*
X218516Y122142D01*
X218371Y122254D01*
X218228Y122369D01*
X218212Y122377D01*
X218198Y122388D01*
X218033Y122470D01*
X217871Y122555D01*
X217854Y122560D01*
X217838Y122568D01*
X217659Y122615D01*
X217484Y122666D01*
X217466Y122668D01*
X217449Y122672D01*
X217118Y122699D01*
X214682Y122699D01*
X214664Y122697D01*
X214646Y122699D01*
X214464Y122678D01*
X214281Y122659D01*
X214264Y122654D01*
X214247Y122652D01*
X214072Y122595D01*
X213896Y122541D01*
X213881Y122533D01*
X213864Y122527D01*
X213704Y122437D01*
X213542Y122349D01*
X213529Y122338D01*
X213513Y122329D01*
X213374Y122209D01*
X213233Y122092D01*
X213222Y122078D01*
X213208Y122066D01*
X213096Y121921D01*
X212981Y121778D01*
X212973Y121762D01*
X212962Y121748D01*
X212880Y121583D01*
X212795Y121421D01*
X212790Y121404D01*
X212782Y121388D01*
X212734Y121209D01*
X212684Y121034D01*
X212682Y121016D01*
X212678Y120999D01*
X212651Y120668D01*
X212651Y113159D01*
X208065Y113159D01*
X207419Y113332D01*
X206840Y113667D01*
X206367Y114140D01*
X206032Y114719D01*
X205859Y115365D01*
X205859Y119055D01*
X206034Y119109D01*
X206038Y119111D01*
X206043Y119112D01*
X206214Y119206D01*
X206388Y119300D01*
X206392Y119303D01*
X206396Y119305D01*
X206547Y119433D01*
X206698Y119558D01*
X206700Y119562D01*
X206704Y119565D01*
X206827Y119719D01*
X206950Y119872D01*
X206952Y119876D01*
X206955Y119879D01*
X207044Y120054D01*
X207135Y120229D01*
X207137Y120234D01*
X207139Y120238D01*
X207192Y120425D01*
X207247Y120616D01*
X207247Y120621D01*
X207248Y120625D01*
X207263Y120813D01*
X207280Y121017D01*
X207279Y121022D01*
X207280Y121026D01*
X207256Y121219D01*
X207233Y121417D01*
X207231Y121422D01*
X207231Y121426D01*
X207170Y121609D01*
X207108Y121800D01*
X207106Y121804D01*
X207104Y121808D01*
X207008Y121977D01*
X206910Y122151D01*
X206907Y122154D01*
X206905Y122158D01*
X206776Y122305D01*
X206647Y122455D01*
X206643Y122458D01*
X206640Y122462D01*
X206484Y122582D01*
X206329Y122702D01*
X206325Y122704D01*
X206321Y122707D01*
X206026Y122859D01*
X202735Y124222D01*
X199922Y127035D01*
X198399Y130711D01*
X198399Y132536D01*
X198397Y132554D01*
X198399Y132572D01*
X198378Y132754D01*
X198359Y132937D01*
X198354Y132954D01*
X198352Y132971D01*
X198295Y133146D01*
X198241Y133322D01*
X198233Y133337D01*
X198227Y133354D01*
X198137Y133514D01*
X198049Y133676D01*
X198038Y133689D01*
X198029Y133705D01*
X197909Y133844D01*
X197792Y133985D01*
X197778Y133996D01*
X197766Y134010D01*
X197621Y134122D01*
X197478Y134237D01*
X197462Y134245D01*
X197448Y134256D01*
X197283Y134338D01*
X197121Y134423D01*
X197104Y134428D01*
X197088Y134436D01*
X196909Y134483D01*
X196734Y134534D01*
X196716Y134536D01*
X196699Y134540D01*
X196368Y134567D01*
X195252Y134567D01*
X195225Y134565D01*
X195198Y134567D01*
X195024Y134545D01*
X194851Y134527D01*
X194826Y134520D01*
X194799Y134516D01*
X194633Y134460D01*
X194466Y134409D01*
X194443Y134396D01*
X194417Y134388D01*
X194266Y134301D01*
X194112Y134217D01*
X194092Y134200D01*
X194068Y134187D01*
X193815Y133972D01*
X191965Y132122D01*
X190990Y131718D01*
X190989Y131718D01*
X188289Y130599D01*
X180311Y130599D01*
X176635Y132122D01*
X173822Y134935D01*
X173047Y136805D01*
X173037Y136825D01*
X173030Y136846D01*
X172942Y137002D01*
X172857Y137160D01*
X172843Y137177D01*
X172832Y137197D01*
X172715Y137332D01*
X172600Y137471D01*
X172583Y137485D01*
X172569Y137502D01*
X172427Y137611D01*
X172288Y137724D01*
X172268Y137735D01*
X172250Y137748D01*
X172090Y137828D01*
X171931Y137911D01*
X171910Y137918D01*
X171890Y137928D01*
X171716Y137974D01*
X171545Y138024D01*
X171523Y138026D01*
X171501Y138032D01*
X171170Y138059D01*
X168965Y138059D01*
X168319Y138232D01*
X167740Y138567D01*
X167267Y139040D01*
X166932Y139619D01*
X166759Y140265D01*
X166759Y144569D01*
X170236Y144569D01*
X170254Y144570D01*
X170272Y144569D01*
X170454Y144590D01*
X170637Y144608D01*
X170654Y144614D01*
X170671Y144616D01*
X170846Y144673D01*
X171022Y144727D01*
X171037Y144735D01*
X171054Y144741D01*
X171214Y144831D01*
X171376Y144918D01*
X171389Y144930D01*
X171405Y144939D01*
X171544Y145059D01*
X171685Y145176D01*
X171696Y145190D01*
X171710Y145202D01*
X171822Y145347D01*
X171937Y145490D01*
X171945Y145506D01*
X171956Y145520D01*
X172038Y145685D01*
X172123Y145847D01*
X172128Y145864D01*
X172136Y145880D01*
X172183Y146058D01*
X172234Y146234D01*
X172236Y146252D01*
X172240Y146269D01*
X172267Y146600D01*
X172266Y146618D01*
X172267Y146635D01*
X172267Y146636D01*
X172246Y146818D01*
X172227Y147001D01*
X172222Y147018D01*
X172220Y147036D01*
X172163Y147210D01*
X172109Y147386D01*
X172101Y147401D01*
X172095Y147418D01*
X172005Y147579D01*
X171917Y147740D01*
X171906Y147753D01*
X171897Y147769D01*
X171777Y147908D01*
X171660Y148049D01*
X171646Y148060D01*
X171634Y148074D01*
X171489Y148186D01*
X171346Y148301D01*
X171330Y148310D01*
X171316Y148320D01*
X171151Y148402D01*
X170989Y148487D01*
X170972Y148492D01*
X170956Y148500D01*
X170777Y148548D01*
X170602Y148598D01*
X170584Y148600D01*
X170567Y148604D01*
X170236Y148631D01*
X166759Y148631D01*
X166759Y152935D01*
X166932Y153581D01*
X167267Y154160D01*
X167771Y154664D01*
X167782Y154678D01*
X167795Y154689D01*
X167910Y154833D01*
X168026Y154975D01*
X168034Y154991D01*
X168045Y155005D01*
X168129Y155169D01*
X168214Y155331D01*
X168219Y155348D01*
X168227Y155364D01*
X168277Y155541D01*
X168329Y155717D01*
X168331Y155735D01*
X168335Y155752D01*
X168349Y155935D01*
X168365Y156118D01*
X168363Y156136D01*
X168365Y156153D01*
X168342Y156335D01*
X168322Y156518D01*
X168317Y156535D01*
X168314Y156553D01*
X168256Y156726D01*
X168201Y156902D01*
X168192Y156918D01*
X168186Y156934D01*
X168094Y157094D01*
X168006Y157254D01*
X167994Y157268D01*
X167985Y157283D01*
X167771Y157536D01*
X167267Y158040D01*
X166932Y158619D01*
X166759Y159265D01*
X166759Y163569D01*
X170236Y163569D01*
X170254Y163570D01*
X170272Y163569D01*
X170454Y163590D01*
X170637Y163608D01*
X170654Y163614D01*
X170671Y163616D01*
X170846Y163673D01*
X171022Y163727D01*
X171037Y163735D01*
X171054Y163741D01*
X171214Y163831D01*
X171376Y163918D01*
X171389Y163930D01*
X171405Y163939D01*
X171544Y164059D01*
X171685Y164176D01*
X171696Y164190D01*
X171710Y164202D01*
X171822Y164347D01*
X171937Y164490D01*
X171945Y164506D01*
X171956Y164520D01*
X172038Y164685D01*
X172123Y164847D01*
X172128Y164864D01*
X172136Y164880D01*
X172183Y165058D01*
X172234Y165234D01*
X172236Y165252D01*
X172240Y165269D01*
X172267Y165600D01*
X172266Y165618D01*
X172267Y165635D01*
X172267Y165636D01*
X172246Y165818D01*
X172227Y166001D01*
X172222Y166018D01*
X172220Y166036D01*
X172163Y166210D01*
X172109Y166386D01*
X172101Y166401D01*
X172095Y166418D01*
X172005Y166579D01*
X171917Y166740D01*
X171906Y166753D01*
X171897Y166769D01*
X171777Y166908D01*
X171660Y167049D01*
X171646Y167060D01*
X171634Y167074D01*
X171489Y167186D01*
X171346Y167301D01*
X171330Y167310D01*
X171316Y167320D01*
X171151Y167402D01*
X170989Y167487D01*
X170972Y167492D01*
X170956Y167500D01*
X170777Y167548D01*
X170602Y167598D01*
X170584Y167600D01*
X170567Y167604D01*
X170236Y167631D01*
X166759Y167631D01*
X166759Y171935D01*
X166932Y172581D01*
X167267Y173160D01*
X167740Y173633D01*
X168319Y173968D01*
X168965Y174141D01*
X171170Y174141D01*
X171193Y174143D01*
X171215Y174141D01*
X171392Y174163D01*
X171571Y174181D01*
X171592Y174187D01*
X171615Y174190D01*
X171784Y174246D01*
X171956Y174299D01*
X171976Y174309D01*
X171997Y174316D01*
X172152Y174405D01*
X172310Y174491D01*
X172327Y174505D01*
X172347Y174516D01*
X172482Y174634D01*
X172619Y174748D01*
X172633Y174766D01*
X172650Y174780D01*
X172759Y174922D01*
X172872Y175062D01*
X172882Y175082D01*
X172895Y175100D01*
X173047Y175395D01*
X173822Y177265D01*
X176635Y180078D01*
X178338Y180784D01*
X180311Y181601D01*
X188289Y181601D01*
X189287Y181187D01*
X189317Y181178D01*
X189345Y181164D01*
X189510Y181120D01*
X189673Y181071D01*
X189704Y181068D01*
X189734Y181060D01*
X190065Y181033D01*
X198070Y181033D01*
X198079Y181034D01*
X198088Y181033D01*
X198280Y181054D01*
X198471Y181073D01*
X198479Y181075D01*
X198488Y181076D01*
X198672Y181134D01*
X198856Y181191D01*
X198864Y181195D01*
X198872Y181198D01*
X199041Y181291D01*
X199210Y181383D01*
X199217Y181388D01*
X199225Y181393D01*
X199372Y181518D01*
X199519Y181640D01*
X199525Y181647D01*
X199532Y181653D01*
X199652Y181805D01*
X199771Y181954D01*
X199776Y181962D01*
X199781Y181969D01*
X199869Y182142D01*
X199957Y182311D01*
X199959Y182320D01*
X199963Y182328D01*
X200015Y182513D01*
X200068Y182698D01*
X200069Y182707D01*
X200071Y182716D01*
X200086Y182908D01*
X200101Y183100D01*
X200100Y183108D01*
X200101Y183117D01*
X200077Y183309D01*
X200054Y183499D01*
X200052Y183508D01*
X200050Y183517D01*
X199989Y183699D01*
X199929Y183882D01*
X199925Y183890D01*
X199922Y183898D01*
X199826Y184066D01*
X199732Y184233D01*
X199726Y184240D01*
X199721Y184247D01*
X199507Y184500D01*
X198867Y185140D01*
X198532Y185719D01*
X198359Y186365D01*
X198359Y190951D01*
X205868Y190951D01*
X205886Y190952D01*
X205904Y190951D01*
X206086Y190972D01*
X206269Y190991D01*
X206286Y190996D01*
X206303Y190998D01*
X206478Y191055D01*
X206654Y191109D01*
X206669Y191117D01*
X206686Y191123D01*
X206846Y191213D01*
X207008Y191300D01*
X207021Y191312D01*
X207037Y191321D01*
X207176Y191441D01*
X207317Y191558D01*
X207328Y191572D01*
X207342Y191584D01*
X207454Y191729D01*
X207569Y191872D01*
X207577Y191888D01*
X207588Y191902D01*
X207670Y192067D01*
X207755Y192229D01*
X207760Y192246D01*
X207768Y192262D01*
X207815Y192441D01*
X207866Y192616D01*
X207868Y192634D01*
X207872Y192651D01*
X207899Y192982D01*
X207899Y195418D01*
X207897Y195436D01*
X207899Y195454D01*
X207878Y195636D01*
X207859Y195819D01*
X207854Y195836D01*
X207852Y195853D01*
X207795Y196028D01*
X207741Y196204D01*
X207733Y196219D01*
X207727Y196236D01*
X207637Y196396D01*
X207549Y196558D01*
X207538Y196571D01*
X207529Y196587D01*
X207409Y196726D01*
X207292Y196867D01*
X207278Y196878D01*
X207266Y196892D01*
X207121Y197004D01*
X206978Y197119D01*
X206962Y197127D01*
X206948Y197138D01*
X206783Y197220D01*
X206621Y197305D01*
X206604Y197310D01*
X206588Y197318D01*
X206409Y197365D01*
X206234Y197416D01*
X206216Y197418D01*
X206199Y197422D01*
X205868Y197449D01*
X198359Y197449D01*
X198359Y202035D01*
X198532Y202681D01*
X198867Y203260D01*
X199340Y203733D01*
X199919Y204068D01*
X200565Y204241D01*
X204255Y204241D01*
X204309Y204066D01*
X204311Y204062D01*
X204312Y204057D01*
X204406Y203886D01*
X204500Y203712D01*
X204503Y203708D01*
X204505Y203704D01*
X204633Y203553D01*
X204758Y203402D01*
X204762Y203400D01*
X204765Y203396D01*
X204919Y203273D01*
X205072Y203150D01*
X205076Y203148D01*
X205079Y203145D01*
X205254Y203056D01*
X205429Y202965D01*
X205434Y202963D01*
X205438Y202961D01*
X205625Y202908D01*
X205816Y202853D01*
X205821Y202853D01*
X205825Y202852D01*
X206018Y202837D01*
X206217Y202820D01*
X206222Y202821D01*
X206226Y202820D01*
X206420Y202844D01*
X206617Y202867D01*
X206622Y202869D01*
X206626Y202869D01*
X206811Y202930D01*
X207000Y202992D01*
X207004Y202994D01*
X207008Y202996D01*
X207180Y203093D01*
X207351Y203190D01*
X207354Y203193D01*
X207358Y203195D01*
X207509Y203326D01*
X207655Y203453D01*
X207658Y203457D01*
X207662Y203460D01*
X207782Y203616D01*
X207902Y203771D01*
X207904Y203775D01*
X207907Y203779D01*
X208059Y204074D01*
X209422Y207365D01*
X212235Y210178D01*
X214829Y211252D01*
X214829Y211253D01*
X215911Y211701D01*
X232889Y211701D01*
X236565Y210178D01*
X239407Y207336D01*
X239433Y207290D01*
X239518Y207132D01*
X239532Y207115D01*
X239543Y207095D01*
X239660Y206960D01*
X239774Y206821D01*
X239792Y206807D01*
X239806Y206790D01*
X239948Y206681D01*
X240087Y206568D01*
X240107Y206557D01*
X240124Y206544D01*
X240285Y206464D01*
X240444Y206381D01*
X240465Y206374D01*
X240485Y206364D01*
X240658Y206318D01*
X240830Y206268D01*
X240852Y206266D01*
X240874Y206260D01*
X241204Y206233D01*
X463393Y206233D01*
X467816Y204401D01*
X494601Y177616D01*
X496433Y173193D01*
X496433Y156988D01*
X490997Y156964D01*
X490974Y156961D01*
X490952Y156963D01*
X490801Y156940D01*
X490651Y156922D01*
X490630Y156914D01*
X490607Y156911D01*
X490466Y156855D01*
X490323Y156803D01*
X490304Y156791D01*
X490283Y156782D01*
X490159Y156696D01*
X490032Y156613D01*
X490016Y156596D01*
X489997Y156583D01*
X489896Y156471D01*
X489790Y156361D01*
X489779Y156341D01*
X489764Y156325D01*
X489690Y156191D01*
X489613Y156061D01*
X489606Y156040D01*
X489595Y156020D01*
X489554Y155873D01*
X489508Y155729D01*
X489507Y155706D01*
X489500Y155684D01*
X489481Y155440D01*
X489481Y136712D01*
X489495Y136586D01*
X489502Y136460D01*
X489515Y136414D01*
X489521Y136366D01*
X489563Y136247D01*
X489598Y136125D01*
X489622Y136083D01*
X489638Y136037D01*
X489707Y135931D01*
X489768Y135821D01*
X489808Y135775D01*
X489827Y135745D01*
X489862Y135711D01*
X489927Y135635D01*
X491999Y133563D01*
X491999Y91037D01*
X490213Y89251D01*
X478787Y89251D01*
X477001Y91037D01*
X477001Y133563D01*
X478873Y135435D01*
X478952Y135534D01*
X479036Y135628D01*
X479060Y135670D01*
X479090Y135708D01*
X479144Y135822D01*
X479205Y135933D01*
X479218Y135979D01*
X479239Y136023D01*
X479265Y136146D01*
X479300Y136268D01*
X479305Y136329D01*
X479312Y136364D01*
X479311Y136412D01*
X479319Y136512D01*
X479319Y155380D01*
X479316Y155410D01*
X479318Y155439D01*
X479296Y155582D01*
X479279Y155726D01*
X479269Y155754D01*
X479265Y155784D01*
X479211Y155918D01*
X479162Y156055D01*
X479146Y156080D01*
X479135Y156107D01*
X479052Y156226D01*
X478973Y156347D01*
X478951Y156368D01*
X478934Y156392D01*
X478827Y156489D01*
X478722Y156590D01*
X478697Y156605D01*
X478675Y156625D01*
X478547Y156694D01*
X478423Y156768D01*
X478395Y156777D01*
X478369Y156792D01*
X478229Y156831D01*
X478091Y156875D01*
X478062Y156877D01*
X478033Y156885D01*
X477789Y156903D01*
X290093Y156050D01*
X290058Y156046D01*
X290022Y156048D01*
X289885Y156025D01*
X289747Y156008D01*
X289714Y155996D01*
X289678Y155990D01*
X289550Y155937D01*
X289420Y155889D01*
X289390Y155870D01*
X289356Y155856D01*
X289244Y155775D01*
X289128Y155699D01*
X289103Y155673D01*
X289074Y155652D01*
X288983Y155548D01*
X288887Y155447D01*
X288868Y155416D01*
X288845Y155389D01*
X288780Y155267D01*
X288709Y155147D01*
X288698Y155113D01*
X288682Y155081D01*
X288646Y154947D01*
X288605Y154815D01*
X288602Y154779D01*
X288593Y154744D01*
X288577Y154500D01*
X288711Y146794D01*
X288713Y146781D01*
X288712Y146768D01*
X288736Y146609D01*
X288757Y146448D01*
X288762Y146436D01*
X288764Y146423D01*
X288823Y146273D01*
X288880Y146122D01*
X288887Y146111D01*
X288892Y146099D01*
X288984Y145967D01*
X289074Y145833D01*
X289084Y145824D01*
X289091Y145813D01*
X289210Y145706D01*
X289329Y145595D01*
X289340Y145588D01*
X289350Y145580D01*
X289491Y145502D01*
X289631Y145421D01*
X289644Y145417D01*
X289655Y145411D01*
X289811Y145367D01*
X289965Y145321D01*
X289978Y145320D01*
X289990Y145316D01*
X290234Y145297D01*
X316314Y145297D01*
X316422Y145309D01*
X316531Y145312D01*
X316615Y145331D01*
X316660Y145337D01*
X316698Y145350D01*
X316769Y145367D01*
X316813Y145380D01*
X317684Y145303D01*
X317730Y145304D01*
X317819Y145297D01*
X318693Y145297D01*
X318736Y145279D01*
X318840Y145249D01*
X318942Y145210D01*
X319027Y145196D01*
X319071Y145183D01*
X319111Y145181D01*
X319183Y145169D01*
X319229Y145165D01*
X320004Y144760D01*
X320046Y144744D01*
X320126Y144703D01*
X320934Y144369D01*
X320966Y144336D01*
X321052Y144268D01*
X321131Y144193D01*
X321204Y144147D01*
X321239Y144119D01*
X321276Y144102D01*
X321338Y144063D01*
X321379Y144042D01*
X321939Y143371D01*
X321973Y143340D01*
X322031Y143272D01*
X322649Y142654D01*
X322666Y142611D01*
X322720Y142516D01*
X322764Y142416D01*
X322814Y142346D01*
X322836Y142306D01*
X322863Y142276D01*
X322905Y142217D01*
X328193Y135895D01*
X328200Y135888D01*
X328203Y135884D01*
X328210Y135877D01*
X328219Y135865D01*
X328334Y135761D01*
X328446Y135655D01*
X328463Y135645D01*
X328477Y135632D01*
X328613Y135557D01*
X328747Y135478D01*
X328765Y135473D01*
X328782Y135463D01*
X328932Y135421D01*
X329079Y135375D01*
X329099Y135374D01*
X329118Y135368D01*
X329362Y135349D01*
X330213Y135349D01*
X331999Y133563D01*
X331999Y91037D01*
X330213Y89251D01*
X318787Y89251D01*
G37*
%LPD*%
%LPC*%
G36*
X358787Y89251D02*
X358787Y89251D01*
X357001Y91037D01*
X357001Y133563D01*
X358787Y135349D01*
X370213Y135349D01*
X371999Y133563D01*
X371999Y91037D01*
X370213Y89251D01*
X358787Y89251D01*
G37*
%LPD*%
%LPC*%
G36*
X398787Y89251D02*
X398787Y89251D01*
X397001Y91037D01*
X397001Y133563D01*
X398787Y135349D01*
X410213Y135349D01*
X411999Y133563D01*
X411999Y91037D01*
X410213Y89251D01*
X398787Y89251D01*
G37*
%LPD*%
%LPC*%
G36*
X378787Y65751D02*
X378787Y65751D01*
X377001Y67537D01*
X377001Y110063D01*
X378787Y111849D01*
X390213Y111849D01*
X391999Y110063D01*
X391999Y67537D01*
X390213Y65751D01*
X378787Y65751D01*
G37*
%LPD*%
%LPC*%
G36*
X418787Y65751D02*
X418787Y65751D01*
X417001Y67537D01*
X417001Y110063D01*
X418787Y111849D01*
X430213Y111849D01*
X431999Y110063D01*
X431999Y67537D01*
X430213Y65751D01*
X418787Y65751D01*
G37*
%LPD*%
%LPC*%
G36*
X338787Y65751D02*
X338787Y65751D01*
X337001Y67537D01*
X337001Y110063D01*
X338787Y111849D01*
X350213Y111849D01*
X351999Y110063D01*
X351999Y67537D01*
X350213Y65751D01*
X338787Y65751D01*
G37*
%LPD*%
%LPC*%
G36*
X526724Y114524D02*
X526724Y114524D01*
X526724Y134841D01*
X529285Y134841D01*
X529931Y134668D01*
X530510Y134333D01*
X530983Y133860D01*
X531318Y133281D01*
X531491Y132635D01*
X531491Y114524D01*
X526724Y114524D01*
G37*
%LPD*%
%LPC*%
G36*
X306724Y91024D02*
X306724Y91024D01*
X306724Y111341D01*
X309285Y111341D01*
X309931Y111168D01*
X310510Y110833D01*
X310983Y110360D01*
X311318Y109781D01*
X311491Y109135D01*
X311491Y91024D01*
X306724Y91024D01*
G37*
%LPD*%
%LPC*%
G36*
X306724Y86576D02*
X306724Y86576D01*
X311491Y86576D01*
X311491Y81981D01*
X311491Y68465D01*
X311318Y67819D01*
X310983Y67240D01*
X310510Y66767D01*
X309931Y66432D01*
X309285Y66259D01*
X306724Y66259D01*
X306724Y86576D01*
G37*
%LPD*%
%LPC*%
G36*
X526724Y110076D02*
X526724Y110076D01*
X531491Y110076D01*
X531491Y91965D01*
X531318Y91319D01*
X530983Y90740D01*
X530510Y90267D01*
X529931Y89932D01*
X529285Y89759D01*
X526724Y89759D01*
X526724Y110076D01*
G37*
%LPD*%
%LPC*%
G36*
X517682Y133281D02*
X517682Y133281D01*
X518017Y133860D01*
X518490Y134333D01*
X519069Y134668D01*
X519715Y134841D01*
X522276Y134841D01*
X522276Y114524D01*
X517509Y114524D01*
X517509Y119119D01*
X517509Y132635D01*
X517682Y133281D01*
G37*
%LPD*%
%LPC*%
G36*
X297509Y91024D02*
X297509Y91024D01*
X297509Y109135D01*
X297682Y109781D01*
X298017Y110360D01*
X298490Y110833D01*
X299069Y111168D01*
X299715Y111341D01*
X302276Y111341D01*
X302276Y91024D01*
X297509Y91024D01*
G37*
%LPD*%
%LPC*%
G36*
X299715Y66259D02*
X299715Y66259D01*
X299069Y66432D01*
X298490Y66767D01*
X298017Y67240D01*
X297682Y67819D01*
X297509Y68465D01*
X297509Y86576D01*
X302276Y86576D01*
X302276Y66259D01*
X299715Y66259D01*
G37*
%LPD*%
%LPC*%
G36*
X519069Y89932D02*
X519069Y89932D01*
X518490Y90267D01*
X518017Y90740D01*
X517682Y91319D01*
X517509Y91965D01*
X517509Y110076D01*
X522276Y110076D01*
X522276Y89759D01*
X519715Y89759D01*
X519069Y89932D01*
G37*
%LPD*%
%LPC*%
G36*
X332474Y467499D02*
X332474Y467499D01*
X332474Y472316D01*
X336635Y472316D01*
X337281Y472143D01*
X337860Y471808D01*
X338333Y471335D01*
X338668Y470756D01*
X338841Y470110D01*
X338841Y467499D01*
X332474Y467499D01*
G37*
%LPD*%
%LPC*%
G36*
X321559Y467499D02*
X321559Y467499D01*
X321559Y470110D01*
X321732Y470756D01*
X322067Y471335D01*
X322540Y471808D01*
X323119Y472143D01*
X323765Y472316D01*
X327926Y472316D01*
X327926Y467499D01*
X321559Y467499D01*
G37*
%LPD*%
%LPC*%
G36*
X332474Y458134D02*
X332474Y458134D01*
X332474Y462951D01*
X338841Y462951D01*
X338841Y460340D01*
X338668Y459694D01*
X338333Y459115D01*
X337860Y458642D01*
X337281Y458307D01*
X336635Y458134D01*
X332474Y458134D01*
G37*
%LPD*%
%LPC*%
G36*
X323765Y458134D02*
X323765Y458134D01*
X323119Y458307D01*
X322540Y458642D01*
X322067Y459115D01*
X321732Y459694D01*
X321559Y460340D01*
X321559Y462951D01*
X327926Y462951D01*
X327926Y458134D01*
X323765Y458134D01*
G37*
%LPD*%
D10*
X171300Y165600D03*
X177800Y165600D03*
X184300Y165600D03*
X184300Y146600D03*
X171300Y146600D03*
D11*
X215900Y139200D03*
X215900Y122200D03*
D12*
X464500Y88800D03*
X424500Y88800D03*
X384500Y88800D03*
X344500Y88800D03*
X304500Y88800D03*
X324500Y112300D03*
X524500Y112300D03*
X484500Y112300D03*
X444500Y112300D03*
X404500Y112300D03*
X364500Y112300D03*
X504500Y88800D03*
D13*
X330200Y497975D03*
X330200Y465225D03*
D14*
X224400Y194200D03*
X207400Y194200D03*
D15*
X209400Y168800D03*
X222400Y168800D03*
D16*
X464345Y79962D02*
X484608Y59700D01*
X680913Y59700D01*
X730500Y92703D01*
X730500Y557028D01*
D17*
X463098Y103902D02*
X462869Y103499D01*
X460877Y101506D01*
X463153Y104000D02*
X464345Y106104D01*
X463153Y104000D02*
X463098Y103902D01*
D16*
X464345Y106104D02*
X464345Y92455D01*
X730500Y557028D02*
X664028Y623500D01*
X623000Y623500D01*
D18*
X623000Y623500D03*
X581100Y623500D03*
X523685Y623500D03*
X471400Y623500D03*
D16*
X471263Y623637D01*
X396437Y623637D01*
X396300Y623500D01*
D18*
X396300Y623500D03*
X350100Y623500D03*
D16*
X285100Y623500D01*
D18*
X285100Y623500D03*
X241800Y624200D03*
D16*
X622898Y623602D02*
X623000Y623500D01*
X622898Y623602D02*
X581202Y623602D01*
X581100Y623500D01*
X396300Y623500D02*
X350100Y623500D01*
X285100Y623500D02*
X242500Y623500D01*
D17*
X241800Y624200D01*
D16*
X444500Y112300D02*
X464345Y92455D01*
X464345Y79962D01*
D17*
X464500Y88800D02*
X460877Y92423D01*
X460877Y101506D01*
D16*
X471751Y623851D02*
X523334Y623851D01*
X471751Y623851D02*
X471400Y623500D01*
X523334Y623851D02*
X523685Y623500D01*
X523786Y623398D02*
X580998Y623398D01*
X523786Y623398D02*
X523685Y623500D01*
X580998Y623398D02*
X581100Y623500D01*
D19*
X177800Y165600D02*
X171300Y165600D01*
D20*
X171300Y178300D02*
X187900Y194900D01*
X171300Y178300D02*
X171300Y165600D01*
D19*
X206700Y194900D02*
X207400Y194200D01*
D20*
X206700Y194900D02*
X187900Y194900D01*
X171300Y146600D02*
X171300Y137200D01*
X215300Y121600D02*
X215900Y122200D01*
X215300Y121600D02*
X186900Y121600D01*
X171300Y137200D01*
X171300Y146600D02*
X171300Y165600D01*
D18*
X278200Y40800D03*
D16*
X278606Y40394D02*
X318194Y40394D01*
X278606Y40394D02*
X278200Y40800D01*
X318194Y40394D02*
X318600Y40800D01*
D18*
X318600Y40800D03*
X379400Y40800D03*
D16*
X422996Y40804D02*
X423000Y40800D01*
X422996Y40804D02*
X379504Y40904D01*
X379400Y40800D01*
D18*
X423000Y40800D03*
X509100Y40800D03*
D16*
X535313Y40800D01*
X547540Y41185D01*
X547700Y40800D01*
D18*
X547700Y40800D03*
D16*
X379204Y40974D02*
X319227Y40173D01*
X318600Y40800D01*
X379204Y40974D02*
X379400Y40800D01*
X423000Y40800D02*
X508100Y41000D01*
D19*
X208500Y146600D02*
X184300Y146600D01*
X208500Y146600D02*
X215900Y139200D01*
D20*
X317480Y139200D01*
X324500Y130808D02*
X324500Y112300D01*
X324500Y130808D02*
X317480Y139200D01*
D19*
X224400Y170800D02*
X224400Y194200D01*
D17*
X224400Y170800D02*
X222400Y168800D01*
D19*
X224400Y194200D02*
X461000Y194200D01*
X484400Y170800D01*
X484400Y113846D01*
X484500Y112300D01*
D16*
X329600Y498575D02*
X329600Y538300D01*
X329600Y498575D02*
X330200Y497975D01*
D18*
X329600Y538300D03*
D19*
X209200Y169000D02*
X209400Y168800D01*
X209200Y169000D02*
X187700Y169000D01*
X184300Y165600D01*
M02*
