G75*
%MOIN*%
%OFA0B0*%
%FSLAX25Y25*%
%IPPOS*%
%LPD*%
%AMOC8*
5,1,8,0,0,1.08239X$1,22.5*
%
%ADD10R,0.31496X0.07874*%
%ADD11R,1.77165X0.94488*%
%ADD12C,0.00500*%
%ADD13C,0.08858*%
%ADD14C,0.04000*%
%ADD15C,0.00600*%
%ADD16C,0.02559*%
%ADD17C,0.02362*%
%ADD18C,0.05000*%
%ADD19C,0.01000*%
%ADD20C,0.01600*%
%ADD21C,0.02000*%
D10*
X0112220Y0185252D03*
X0149228Y0184871D03*
X0192929Y0185252D03*
X0273638Y0185252D03*
X0273638Y0366354D03*
X0192929Y0366354D03*
X0112220Y0366354D03*
D11*
X0188441Y0274937D03*
X0186630Y0095304D03*
D12*
X0165961Y0163217D02*
X0295488Y0163217D01*
X0295488Y0027391D01*
X0077378Y0027391D01*
X0077378Y0163217D01*
X0132890Y0163217D01*
X0132890Y0189202D01*
X0165961Y0189202D01*
X0165961Y0163217D01*
X0165961Y0163515D02*
X0132890Y0163515D01*
X0132890Y0164013D02*
X0165961Y0164013D01*
X0165961Y0164512D02*
X0132890Y0164512D01*
X0132890Y0165010D02*
X0165961Y0165010D01*
X0165961Y0165509D02*
X0132890Y0165509D01*
X0132890Y0166007D02*
X0165961Y0166007D01*
X0165961Y0166506D02*
X0132890Y0166506D01*
X0132890Y0167004D02*
X0165961Y0167004D01*
X0165961Y0167503D02*
X0132890Y0167503D01*
X0132890Y0168001D02*
X0165961Y0168001D01*
X0165961Y0168500D02*
X0132890Y0168500D01*
X0132890Y0168998D02*
X0165961Y0168998D01*
X0165961Y0169497D02*
X0132890Y0169497D01*
X0132890Y0169995D02*
X0165961Y0169995D01*
X0165961Y0170494D02*
X0132890Y0170494D01*
X0132890Y0170992D02*
X0165961Y0170992D01*
X0165961Y0171491D02*
X0132890Y0171491D01*
X0132890Y0171989D02*
X0165961Y0171989D01*
X0165961Y0172488D02*
X0132890Y0172488D01*
X0132890Y0172986D02*
X0165961Y0172986D01*
X0165961Y0173485D02*
X0132890Y0173485D01*
X0132890Y0173983D02*
X0165961Y0173983D01*
X0165961Y0174482D02*
X0132890Y0174482D01*
X0132890Y0174980D02*
X0165961Y0174980D01*
X0165961Y0175479D02*
X0132890Y0175479D01*
X0132890Y0175977D02*
X0165961Y0175977D01*
X0165961Y0176476D02*
X0132890Y0176476D01*
X0132890Y0176974D02*
X0165961Y0176974D01*
X0165961Y0177473D02*
X0132890Y0177473D01*
X0132890Y0177972D02*
X0165961Y0177972D01*
X0165961Y0178470D02*
X0132890Y0178470D01*
X0132890Y0178969D02*
X0165961Y0178969D01*
X0165961Y0179467D02*
X0132890Y0179467D01*
X0132890Y0179966D02*
X0165961Y0179966D01*
X0165961Y0180464D02*
X0132890Y0180464D01*
X0132890Y0180963D02*
X0165961Y0180963D01*
X0165961Y0181461D02*
X0132890Y0181461D01*
X0132890Y0181960D02*
X0165961Y0181960D01*
X0165961Y0182458D02*
X0132890Y0182458D01*
X0132890Y0182957D02*
X0165961Y0182957D01*
X0165961Y0183455D02*
X0132890Y0183455D01*
X0132890Y0183954D02*
X0165961Y0183954D01*
X0165961Y0184452D02*
X0132890Y0184452D01*
X0132890Y0184951D02*
X0165961Y0184951D01*
X0165961Y0185449D02*
X0132890Y0185449D01*
X0132890Y0185948D02*
X0165961Y0185948D01*
X0165961Y0186446D02*
X0132890Y0186446D01*
X0132890Y0186945D02*
X0165961Y0186945D01*
X0165961Y0187443D02*
X0132890Y0187443D01*
X0132890Y0187942D02*
X0165961Y0187942D01*
X0165961Y0188440D02*
X0132890Y0188440D01*
X0132890Y0188939D02*
X0165961Y0188939D01*
X0176394Y0188939D02*
X0289780Y0188939D01*
X0289780Y0189437D02*
X0176394Y0189437D01*
X0176394Y0189936D02*
X0289780Y0189936D01*
X0289780Y0190434D02*
X0176394Y0190434D01*
X0176394Y0190933D02*
X0289780Y0190933D01*
X0289780Y0191431D02*
X0176394Y0191431D01*
X0176394Y0191930D02*
X0289780Y0191930D01*
X0289780Y0192428D02*
X0176394Y0192428D01*
X0176394Y0192927D02*
X0289780Y0192927D01*
X0289780Y0193425D02*
X0176394Y0193425D01*
X0176394Y0193924D02*
X0289780Y0193924D01*
X0289780Y0194422D02*
X0176394Y0194422D01*
X0176394Y0194921D02*
X0289780Y0194921D01*
X0289780Y0195419D02*
X0176394Y0195419D01*
X0176394Y0195918D02*
X0289780Y0195918D01*
X0289780Y0196416D02*
X0176394Y0196416D01*
X0176394Y0196915D02*
X0289780Y0196915D01*
X0289780Y0197413D02*
X0176394Y0197413D01*
X0176394Y0197912D02*
X0289780Y0197912D01*
X0289780Y0198410D02*
X0176394Y0198410D01*
X0176394Y0198909D02*
X0289780Y0198909D01*
X0289780Y0199408D02*
X0176394Y0199408D01*
X0176394Y0199906D02*
X0289780Y0199906D01*
X0289780Y0200405D02*
X0176394Y0200405D01*
X0176394Y0200903D02*
X0289780Y0200903D01*
X0289780Y0201402D02*
X0176394Y0201402D01*
X0176394Y0201900D02*
X0289780Y0201900D01*
X0289780Y0202399D02*
X0176394Y0202399D01*
X0176394Y0202897D02*
X0289780Y0202897D01*
X0289780Y0203396D02*
X0176394Y0203396D01*
X0176394Y0203894D02*
X0289780Y0203894D01*
X0289780Y0204393D02*
X0176394Y0204393D01*
X0176394Y0204891D02*
X0289780Y0204891D01*
X0289780Y0205390D02*
X0176394Y0205390D01*
X0176394Y0205888D02*
X0289780Y0205888D01*
X0289780Y0206387D02*
X0176394Y0206387D01*
X0176394Y0206885D02*
X0289780Y0206885D01*
X0289780Y0207299D02*
X0289780Y0185528D01*
X0176394Y0185528D01*
X0176394Y0207693D01*
X0128756Y0207693D01*
X0128756Y0180921D01*
X0095685Y0180921D01*
X0095685Y0206512D01*
X0079543Y0206512D01*
X0079543Y0342732D01*
X0297654Y0342732D01*
X0297654Y0207299D01*
X0289780Y0207299D01*
X0297654Y0207384D02*
X0176394Y0207384D01*
X0176394Y0188440D02*
X0289780Y0188440D01*
X0289780Y0187942D02*
X0176394Y0187942D01*
X0176394Y0187443D02*
X0289780Y0187443D01*
X0289780Y0186945D02*
X0176394Y0186945D01*
X0176394Y0186446D02*
X0289780Y0186446D01*
X0289780Y0185948D02*
X0176394Y0185948D01*
X0128756Y0185948D02*
X0095685Y0185948D01*
X0095685Y0186446D02*
X0128756Y0186446D01*
X0128756Y0186945D02*
X0095685Y0186945D01*
X0095685Y0187443D02*
X0128756Y0187443D01*
X0128756Y0187942D02*
X0095685Y0187942D01*
X0095685Y0188440D02*
X0128756Y0188440D01*
X0128756Y0188939D02*
X0095685Y0188939D01*
X0095685Y0189437D02*
X0128756Y0189437D01*
X0128756Y0189936D02*
X0095685Y0189936D01*
X0095685Y0190434D02*
X0128756Y0190434D01*
X0128756Y0190933D02*
X0095685Y0190933D01*
X0095685Y0191431D02*
X0128756Y0191431D01*
X0128756Y0191930D02*
X0095685Y0191930D01*
X0095685Y0192428D02*
X0128756Y0192428D01*
X0128756Y0192927D02*
X0095685Y0192927D01*
X0095685Y0193425D02*
X0128756Y0193425D01*
X0128756Y0193924D02*
X0095685Y0193924D01*
X0095685Y0194422D02*
X0128756Y0194422D01*
X0128756Y0194921D02*
X0095685Y0194921D01*
X0095685Y0195419D02*
X0128756Y0195419D01*
X0128756Y0195918D02*
X0095685Y0195918D01*
X0095685Y0196416D02*
X0128756Y0196416D01*
X0128756Y0196915D02*
X0095685Y0196915D01*
X0095685Y0197413D02*
X0128756Y0197413D01*
X0128756Y0197912D02*
X0095685Y0197912D01*
X0095685Y0198410D02*
X0128756Y0198410D01*
X0128756Y0198909D02*
X0095685Y0198909D01*
X0095685Y0199408D02*
X0128756Y0199408D01*
X0128756Y0199906D02*
X0095685Y0199906D01*
X0095685Y0200405D02*
X0128756Y0200405D01*
X0128756Y0200903D02*
X0095685Y0200903D01*
X0095685Y0201402D02*
X0128756Y0201402D01*
X0128756Y0201900D02*
X0095685Y0201900D01*
X0095685Y0202399D02*
X0128756Y0202399D01*
X0128756Y0202897D02*
X0095685Y0202897D01*
X0095685Y0203396D02*
X0128756Y0203396D01*
X0128756Y0203894D02*
X0095685Y0203894D01*
X0095685Y0204393D02*
X0128756Y0204393D01*
X0128756Y0204891D02*
X0095685Y0204891D01*
X0095685Y0205390D02*
X0128756Y0205390D01*
X0128756Y0205888D02*
X0095685Y0205888D01*
X0095685Y0206387D02*
X0128756Y0206387D01*
X0128756Y0206885D02*
X0079543Y0206885D01*
X0079543Y0207384D02*
X0128756Y0207384D01*
X0128756Y0185449D02*
X0095685Y0185449D01*
X0095685Y0184951D02*
X0128756Y0184951D01*
X0128756Y0184452D02*
X0095685Y0184452D01*
X0095685Y0183954D02*
X0128756Y0183954D01*
X0128756Y0183455D02*
X0095685Y0183455D01*
X0095685Y0182957D02*
X0128756Y0182957D01*
X0128756Y0182458D02*
X0095685Y0182458D01*
X0095685Y0181960D02*
X0128756Y0181960D01*
X0128756Y0181461D02*
X0095685Y0181461D01*
X0095685Y0180963D02*
X0128756Y0180963D01*
X0077378Y0163016D02*
X0295488Y0163016D01*
X0295488Y0162518D02*
X0077378Y0162518D01*
X0077378Y0162019D02*
X0295488Y0162019D01*
X0295488Y0161521D02*
X0077378Y0161521D01*
X0077378Y0161022D02*
X0295488Y0161022D01*
X0295488Y0160524D02*
X0077378Y0160524D01*
X0077378Y0160025D02*
X0295488Y0160025D01*
X0295488Y0159527D02*
X0077378Y0159527D01*
X0077378Y0159028D02*
X0295488Y0159028D01*
X0295488Y0158530D02*
X0077378Y0158530D01*
X0077378Y0158031D02*
X0295488Y0158031D01*
X0295488Y0157533D02*
X0077378Y0157533D01*
X0077378Y0157034D02*
X0295488Y0157034D01*
X0295488Y0156536D02*
X0077378Y0156536D01*
X0077378Y0156037D02*
X0295488Y0156037D01*
X0295488Y0155539D02*
X0077378Y0155539D01*
X0077378Y0155040D02*
X0295488Y0155040D01*
X0295488Y0154541D02*
X0077378Y0154541D01*
X0077378Y0154043D02*
X0295488Y0154043D01*
X0295488Y0153544D02*
X0077378Y0153544D01*
X0077378Y0153046D02*
X0295488Y0153046D01*
X0295488Y0152547D02*
X0077378Y0152547D01*
X0077378Y0152049D02*
X0295488Y0152049D01*
X0295488Y0151550D02*
X0077378Y0151550D01*
X0077378Y0151052D02*
X0295488Y0151052D01*
X0295488Y0150553D02*
X0077378Y0150553D01*
X0077378Y0150055D02*
X0295488Y0150055D01*
X0295488Y0149556D02*
X0077378Y0149556D01*
X0077378Y0149058D02*
X0295488Y0149058D01*
X0295488Y0148559D02*
X0077378Y0148559D01*
X0077378Y0148061D02*
X0295488Y0148061D01*
X0295488Y0147562D02*
X0077378Y0147562D01*
X0077378Y0147064D02*
X0295488Y0147064D01*
X0295488Y0146565D02*
X0077378Y0146565D01*
X0077378Y0146067D02*
X0295488Y0146067D01*
X0295488Y0145568D02*
X0077378Y0145568D01*
X0077378Y0145070D02*
X0295488Y0145070D01*
X0295488Y0144571D02*
X0077378Y0144571D01*
X0077378Y0144073D02*
X0295488Y0144073D01*
X0295488Y0143574D02*
X0077378Y0143574D01*
X0077378Y0143076D02*
X0295488Y0143076D01*
X0295488Y0142577D02*
X0077378Y0142577D01*
X0077378Y0142079D02*
X0295488Y0142079D01*
X0295488Y0141580D02*
X0077378Y0141580D01*
X0077378Y0141082D02*
X0295488Y0141082D01*
X0295488Y0140583D02*
X0077378Y0140583D01*
X0077378Y0140085D02*
X0295488Y0140085D01*
X0295488Y0139586D02*
X0077378Y0139586D01*
X0077378Y0139088D02*
X0295488Y0139088D01*
X0295488Y0138589D02*
X0077378Y0138589D01*
X0077378Y0138091D02*
X0295488Y0138091D01*
X0295488Y0137592D02*
X0077378Y0137592D01*
X0077378Y0137094D02*
X0295488Y0137094D01*
X0295488Y0136595D02*
X0077378Y0136595D01*
X0077378Y0136097D02*
X0295488Y0136097D01*
X0295488Y0135598D02*
X0077378Y0135598D01*
X0077378Y0135100D02*
X0295488Y0135100D01*
X0295488Y0134601D02*
X0077378Y0134601D01*
X0077378Y0134103D02*
X0295488Y0134103D01*
X0295488Y0133604D02*
X0077378Y0133604D01*
X0077378Y0133105D02*
X0295488Y0133105D01*
X0295488Y0132607D02*
X0077378Y0132607D01*
X0077378Y0132108D02*
X0295488Y0132108D01*
X0295488Y0131610D02*
X0077378Y0131610D01*
X0077378Y0131111D02*
X0295488Y0131111D01*
X0295488Y0130613D02*
X0077378Y0130613D01*
X0077378Y0130114D02*
X0295488Y0130114D01*
X0295488Y0129616D02*
X0077378Y0129616D01*
X0077378Y0129117D02*
X0295488Y0129117D01*
X0295488Y0128619D02*
X0077378Y0128619D01*
X0077378Y0128120D02*
X0295488Y0128120D01*
X0295488Y0127622D02*
X0077378Y0127622D01*
X0077378Y0127123D02*
X0295488Y0127123D01*
X0295488Y0126625D02*
X0077378Y0126625D01*
X0077378Y0126126D02*
X0295488Y0126126D01*
X0295488Y0125628D02*
X0077378Y0125628D01*
X0077378Y0125129D02*
X0295488Y0125129D01*
X0295488Y0124631D02*
X0077378Y0124631D01*
X0077378Y0124132D02*
X0295488Y0124132D01*
X0295488Y0123634D02*
X0077378Y0123634D01*
X0077378Y0123135D02*
X0295488Y0123135D01*
X0295488Y0122637D02*
X0077378Y0122637D01*
X0077378Y0122138D02*
X0295488Y0122138D01*
X0295488Y0121640D02*
X0077378Y0121640D01*
X0077378Y0121141D02*
X0295488Y0121141D01*
X0295488Y0120643D02*
X0077378Y0120643D01*
X0077378Y0120144D02*
X0295488Y0120144D01*
X0295488Y0119646D02*
X0077378Y0119646D01*
X0077378Y0119147D02*
X0295488Y0119147D01*
X0295488Y0118649D02*
X0077378Y0118649D01*
X0077378Y0118150D02*
X0295488Y0118150D01*
X0295488Y0117652D02*
X0077378Y0117652D01*
X0077378Y0117153D02*
X0295488Y0117153D01*
X0295488Y0116655D02*
X0077378Y0116655D01*
X0077378Y0116156D02*
X0295488Y0116156D01*
X0295488Y0115658D02*
X0077378Y0115658D01*
X0077378Y0115159D02*
X0295488Y0115159D01*
X0295488Y0114661D02*
X0077378Y0114661D01*
X0077378Y0114162D02*
X0295488Y0114162D01*
X0295488Y0113664D02*
X0077378Y0113664D01*
X0077378Y0113165D02*
X0295488Y0113165D01*
X0295488Y0112667D02*
X0077378Y0112667D01*
X0077378Y0112168D02*
X0295488Y0112168D01*
X0295488Y0111670D02*
X0077378Y0111670D01*
X0077378Y0111171D02*
X0295488Y0111171D01*
X0295488Y0110672D02*
X0077378Y0110672D01*
X0077378Y0110174D02*
X0295488Y0110174D01*
X0295488Y0109675D02*
X0077378Y0109675D01*
X0077378Y0109177D02*
X0295488Y0109177D01*
X0295488Y0108678D02*
X0077378Y0108678D01*
X0077378Y0108180D02*
X0295488Y0108180D01*
X0295488Y0107681D02*
X0077378Y0107681D01*
X0077378Y0107183D02*
X0295488Y0107183D01*
X0295488Y0106684D02*
X0077378Y0106684D01*
X0077378Y0106186D02*
X0295488Y0106186D01*
X0295488Y0105687D02*
X0077378Y0105687D01*
X0077378Y0105189D02*
X0295488Y0105189D01*
X0295488Y0104690D02*
X0077378Y0104690D01*
X0077378Y0104192D02*
X0295488Y0104192D01*
X0295488Y0103693D02*
X0077378Y0103693D01*
X0077378Y0103195D02*
X0295488Y0103195D01*
X0295488Y0102696D02*
X0077378Y0102696D01*
X0077378Y0102198D02*
X0295488Y0102198D01*
X0295488Y0101699D02*
X0077378Y0101699D01*
X0077378Y0101201D02*
X0295488Y0101201D01*
X0295488Y0100702D02*
X0077378Y0100702D01*
X0077378Y0100204D02*
X0295488Y0100204D01*
X0295488Y0099705D02*
X0077378Y0099705D01*
X0077378Y0099207D02*
X0295488Y0099207D01*
X0295488Y0098708D02*
X0077378Y0098708D01*
X0077378Y0098210D02*
X0295488Y0098210D01*
X0295488Y0097711D02*
X0077378Y0097711D01*
X0077378Y0097213D02*
X0295488Y0097213D01*
X0295488Y0096714D02*
X0077378Y0096714D01*
X0077378Y0096216D02*
X0295488Y0096216D01*
X0295488Y0095717D02*
X0077378Y0095717D01*
X0077378Y0095219D02*
X0295488Y0095219D01*
X0295488Y0094720D02*
X0077378Y0094720D01*
X0077378Y0094222D02*
X0295488Y0094222D01*
X0295488Y0093723D02*
X0077378Y0093723D01*
X0077378Y0093225D02*
X0295488Y0093225D01*
X0295488Y0092726D02*
X0077378Y0092726D01*
X0077378Y0092228D02*
X0295488Y0092228D01*
X0295488Y0091729D02*
X0077378Y0091729D01*
X0077378Y0091231D02*
X0295488Y0091231D01*
X0295488Y0090732D02*
X0077378Y0090732D01*
X0077378Y0090234D02*
X0295488Y0090234D01*
X0295488Y0089735D02*
X0077378Y0089735D01*
X0077378Y0089237D02*
X0295488Y0089237D01*
X0295488Y0088738D02*
X0077378Y0088738D01*
X0077378Y0088239D02*
X0295488Y0088239D01*
X0295488Y0087741D02*
X0077378Y0087741D01*
X0077378Y0087242D02*
X0295488Y0087242D01*
X0295488Y0086744D02*
X0077378Y0086744D01*
X0077378Y0086245D02*
X0295488Y0086245D01*
X0295488Y0085747D02*
X0077378Y0085747D01*
X0077378Y0085248D02*
X0295488Y0085248D01*
X0295488Y0084750D02*
X0077378Y0084750D01*
X0077378Y0084251D02*
X0295488Y0084251D01*
X0295488Y0083753D02*
X0077378Y0083753D01*
X0077378Y0083254D02*
X0295488Y0083254D01*
X0295488Y0082756D02*
X0077378Y0082756D01*
X0077378Y0082257D02*
X0295488Y0082257D01*
X0295488Y0081759D02*
X0077378Y0081759D01*
X0077378Y0081260D02*
X0295488Y0081260D01*
X0295488Y0080762D02*
X0077378Y0080762D01*
X0077378Y0080263D02*
X0295488Y0080263D01*
X0295488Y0079765D02*
X0077378Y0079765D01*
X0077378Y0079266D02*
X0295488Y0079266D01*
X0295488Y0078768D02*
X0077378Y0078768D01*
X0077378Y0078269D02*
X0295488Y0078269D01*
X0295488Y0077771D02*
X0077378Y0077771D01*
X0077378Y0077272D02*
X0295488Y0077272D01*
X0295488Y0076774D02*
X0077378Y0076774D01*
X0077378Y0076275D02*
X0295488Y0076275D01*
X0295488Y0075777D02*
X0077378Y0075777D01*
X0077378Y0075278D02*
X0295488Y0075278D01*
X0295488Y0074780D02*
X0077378Y0074780D01*
X0077378Y0074281D02*
X0295488Y0074281D01*
X0295488Y0073783D02*
X0077378Y0073783D01*
X0077378Y0073284D02*
X0295488Y0073284D01*
X0295488Y0072786D02*
X0077378Y0072786D01*
X0077378Y0072287D02*
X0295488Y0072287D01*
X0295488Y0071789D02*
X0077378Y0071789D01*
X0077378Y0071290D02*
X0295488Y0071290D01*
X0295488Y0070792D02*
X0077378Y0070792D01*
X0077378Y0070293D02*
X0295488Y0070293D01*
X0295488Y0069795D02*
X0077378Y0069795D01*
X0077378Y0069296D02*
X0295488Y0069296D01*
X0295488Y0068798D02*
X0077378Y0068798D01*
X0077378Y0068299D02*
X0295488Y0068299D01*
X0295488Y0067801D02*
X0077378Y0067801D01*
X0077378Y0067302D02*
X0295488Y0067302D01*
X0295488Y0066803D02*
X0077378Y0066803D01*
X0077378Y0066305D02*
X0295488Y0066305D01*
X0295488Y0065806D02*
X0077378Y0065806D01*
X0077378Y0065308D02*
X0295488Y0065308D01*
X0295488Y0064809D02*
X0077378Y0064809D01*
X0077378Y0064311D02*
X0295488Y0064311D01*
X0295488Y0063812D02*
X0077378Y0063812D01*
X0077378Y0063314D02*
X0295488Y0063314D01*
X0295488Y0062815D02*
X0077378Y0062815D01*
X0077378Y0062317D02*
X0295488Y0062317D01*
X0295488Y0061818D02*
X0077378Y0061818D01*
X0077378Y0061320D02*
X0295488Y0061320D01*
X0295488Y0060821D02*
X0077378Y0060821D01*
X0077378Y0060323D02*
X0295488Y0060323D01*
X0295488Y0059824D02*
X0077378Y0059824D01*
X0077378Y0059326D02*
X0295488Y0059326D01*
X0295488Y0058827D02*
X0077378Y0058827D01*
X0077378Y0058329D02*
X0295488Y0058329D01*
X0295488Y0057830D02*
X0077378Y0057830D01*
X0077378Y0057332D02*
X0295488Y0057332D01*
X0295488Y0056833D02*
X0077378Y0056833D01*
X0077378Y0056335D02*
X0295488Y0056335D01*
X0295488Y0055836D02*
X0077378Y0055836D01*
X0077378Y0055338D02*
X0295488Y0055338D01*
X0295488Y0054839D02*
X0077378Y0054839D01*
X0077378Y0054341D02*
X0295488Y0054341D01*
X0295488Y0053842D02*
X0077378Y0053842D01*
X0077378Y0053344D02*
X0295488Y0053344D01*
X0295488Y0052845D02*
X0077378Y0052845D01*
X0077378Y0052347D02*
X0295488Y0052347D01*
X0295488Y0051848D02*
X0077378Y0051848D01*
X0077378Y0051350D02*
X0295488Y0051350D01*
X0295488Y0050851D02*
X0077378Y0050851D01*
X0077378Y0050353D02*
X0295488Y0050353D01*
X0295488Y0049854D02*
X0077378Y0049854D01*
X0077378Y0049356D02*
X0295488Y0049356D01*
X0295488Y0048857D02*
X0077378Y0048857D01*
X0077378Y0048359D02*
X0295488Y0048359D01*
X0295488Y0047860D02*
X0077378Y0047860D01*
X0077378Y0047362D02*
X0295488Y0047362D01*
X0295488Y0046863D02*
X0077378Y0046863D01*
X0077378Y0046365D02*
X0295488Y0046365D01*
X0295488Y0045866D02*
X0077378Y0045866D01*
X0077378Y0045368D02*
X0295488Y0045368D01*
X0295488Y0044869D02*
X0077378Y0044869D01*
X0077378Y0044370D02*
X0295488Y0044370D01*
X0295488Y0043872D02*
X0077378Y0043872D01*
X0077378Y0043373D02*
X0295488Y0043373D01*
X0295488Y0042875D02*
X0077378Y0042875D01*
X0077378Y0042376D02*
X0295488Y0042376D01*
X0295488Y0041878D02*
X0077378Y0041878D01*
X0077378Y0041379D02*
X0295488Y0041379D01*
X0295488Y0040881D02*
X0077378Y0040881D01*
X0077378Y0040382D02*
X0295488Y0040382D01*
X0295488Y0039884D02*
X0077378Y0039884D01*
X0077378Y0039385D02*
X0295488Y0039385D01*
X0295488Y0038887D02*
X0077378Y0038887D01*
X0077378Y0038388D02*
X0295488Y0038388D01*
X0295488Y0037890D02*
X0077378Y0037890D01*
X0077378Y0037391D02*
X0295488Y0037391D01*
X0295488Y0036893D02*
X0077378Y0036893D01*
X0077378Y0036394D02*
X0295488Y0036394D01*
X0295488Y0035896D02*
X0077378Y0035896D01*
X0077378Y0035397D02*
X0295488Y0035397D01*
X0295488Y0034899D02*
X0077378Y0034899D01*
X0077378Y0034400D02*
X0295488Y0034400D01*
X0295488Y0033902D02*
X0077378Y0033902D01*
X0077378Y0033403D02*
X0295488Y0033403D01*
X0295488Y0032905D02*
X0077378Y0032905D01*
X0077378Y0032406D02*
X0295488Y0032406D01*
X0295488Y0031908D02*
X0077378Y0031908D01*
X0077378Y0031409D02*
X0295488Y0031409D01*
X0295488Y0030911D02*
X0077378Y0030911D01*
X0077378Y0030412D02*
X0295488Y0030412D01*
X0295488Y0029914D02*
X0077378Y0029914D01*
X0077378Y0029415D02*
X0295488Y0029415D01*
X0295488Y0028917D02*
X0077378Y0028917D01*
X0077378Y0028418D02*
X0295488Y0028418D01*
X0295488Y0027920D02*
X0077378Y0027920D01*
X0077378Y0027421D02*
X0295488Y0027421D01*
X0297654Y0207882D02*
X0079543Y0207882D01*
X0079543Y0208381D02*
X0297654Y0208381D01*
X0297654Y0208879D02*
X0079543Y0208879D01*
X0079543Y0209378D02*
X0297654Y0209378D01*
X0297654Y0209876D02*
X0079543Y0209876D01*
X0079543Y0210375D02*
X0297654Y0210375D01*
X0297654Y0210873D02*
X0079543Y0210873D01*
X0079543Y0211372D02*
X0297654Y0211372D01*
X0297654Y0211870D02*
X0079543Y0211870D01*
X0079543Y0212369D02*
X0297654Y0212369D01*
X0297654Y0212867D02*
X0079543Y0212867D01*
X0079543Y0213366D02*
X0297654Y0213366D01*
X0297654Y0213864D02*
X0079543Y0213864D01*
X0079543Y0214363D02*
X0297654Y0214363D01*
X0297654Y0214861D02*
X0079543Y0214861D01*
X0079543Y0215360D02*
X0297654Y0215360D01*
X0297654Y0215858D02*
X0079543Y0215858D01*
X0079543Y0216357D02*
X0297654Y0216357D01*
X0297654Y0216855D02*
X0079543Y0216855D01*
X0079543Y0217354D02*
X0297654Y0217354D01*
X0297654Y0217852D02*
X0079543Y0217852D01*
X0079543Y0218351D02*
X0297654Y0218351D01*
X0297654Y0218849D02*
X0079543Y0218849D01*
X0079543Y0219348D02*
X0297654Y0219348D01*
X0297654Y0219846D02*
X0079543Y0219846D01*
X0079543Y0220345D02*
X0297654Y0220345D01*
X0297654Y0220843D02*
X0079543Y0220843D01*
X0079543Y0221342D02*
X0297654Y0221342D01*
X0297654Y0221841D02*
X0079543Y0221841D01*
X0079543Y0222339D02*
X0297654Y0222339D01*
X0297654Y0222838D02*
X0079543Y0222838D01*
X0079543Y0223336D02*
X0297654Y0223336D01*
X0297654Y0223835D02*
X0079543Y0223835D01*
X0079543Y0224333D02*
X0297654Y0224333D01*
X0297654Y0224832D02*
X0079543Y0224832D01*
X0079543Y0225330D02*
X0297654Y0225330D01*
X0297654Y0225829D02*
X0079543Y0225829D01*
X0079543Y0226327D02*
X0297654Y0226327D01*
X0297654Y0226826D02*
X0079543Y0226826D01*
X0079543Y0227324D02*
X0297654Y0227324D01*
X0297654Y0227823D02*
X0079543Y0227823D01*
X0079543Y0228321D02*
X0297654Y0228321D01*
X0297654Y0228820D02*
X0079543Y0228820D01*
X0079543Y0229318D02*
X0297654Y0229318D01*
X0297654Y0229817D02*
X0079543Y0229817D01*
X0079543Y0230315D02*
X0297654Y0230315D01*
X0297654Y0230814D02*
X0079543Y0230814D01*
X0079543Y0231312D02*
X0297654Y0231312D01*
X0297654Y0231811D02*
X0079543Y0231811D01*
X0079543Y0232309D02*
X0297654Y0232309D01*
X0297654Y0232808D02*
X0079543Y0232808D01*
X0079543Y0233306D02*
X0297654Y0233306D01*
X0297654Y0233805D02*
X0079543Y0233805D01*
X0079543Y0234303D02*
X0297654Y0234303D01*
X0297654Y0234802D02*
X0079543Y0234802D01*
X0079543Y0235300D02*
X0297654Y0235300D01*
X0297654Y0235799D02*
X0079543Y0235799D01*
X0079543Y0236297D02*
X0297654Y0236297D01*
X0297654Y0236796D02*
X0079543Y0236796D01*
X0079543Y0237294D02*
X0297654Y0237294D01*
X0297654Y0237793D02*
X0079543Y0237793D01*
X0079543Y0238291D02*
X0297654Y0238291D01*
X0297654Y0238790D02*
X0079543Y0238790D01*
X0079543Y0239288D02*
X0297654Y0239288D01*
X0297654Y0239787D02*
X0079543Y0239787D01*
X0079543Y0240285D02*
X0297654Y0240285D01*
X0297654Y0240784D02*
X0079543Y0240784D01*
X0079543Y0241282D02*
X0297654Y0241282D01*
X0297654Y0241781D02*
X0079543Y0241781D01*
X0079543Y0242279D02*
X0297654Y0242279D01*
X0297654Y0242778D02*
X0079543Y0242778D01*
X0079543Y0243277D02*
X0297654Y0243277D01*
X0297654Y0243775D02*
X0079543Y0243775D01*
X0079543Y0244274D02*
X0297654Y0244274D01*
X0297654Y0244772D02*
X0079543Y0244772D01*
X0079543Y0245271D02*
X0297654Y0245271D01*
X0297654Y0245769D02*
X0079543Y0245769D01*
X0079543Y0246268D02*
X0297654Y0246268D01*
X0297654Y0246766D02*
X0079543Y0246766D01*
X0079543Y0247265D02*
X0297654Y0247265D01*
X0297654Y0247763D02*
X0079543Y0247763D01*
X0079543Y0248262D02*
X0297654Y0248262D01*
X0297654Y0248760D02*
X0079543Y0248760D01*
X0079543Y0249259D02*
X0297654Y0249259D01*
X0297654Y0249757D02*
X0079543Y0249757D01*
X0079543Y0250256D02*
X0297654Y0250256D01*
X0297654Y0250754D02*
X0079543Y0250754D01*
X0079543Y0251253D02*
X0297654Y0251253D01*
X0297654Y0251751D02*
X0079543Y0251751D01*
X0079543Y0252250D02*
X0297654Y0252250D01*
X0297654Y0252748D02*
X0079543Y0252748D01*
X0079543Y0253247D02*
X0297654Y0253247D01*
X0297654Y0253745D02*
X0079543Y0253745D01*
X0079543Y0254244D02*
X0297654Y0254244D01*
X0297654Y0254742D02*
X0079543Y0254742D01*
X0079543Y0255241D02*
X0297654Y0255241D01*
X0297654Y0255739D02*
X0079543Y0255739D01*
X0079543Y0256238D02*
X0297654Y0256238D01*
X0297654Y0256736D02*
X0079543Y0256736D01*
X0079543Y0257235D02*
X0297654Y0257235D01*
X0297654Y0257733D02*
X0079543Y0257733D01*
X0079543Y0258232D02*
X0297654Y0258232D01*
X0297654Y0258730D02*
X0079543Y0258730D01*
X0079543Y0259229D02*
X0297654Y0259229D01*
X0297654Y0259727D02*
X0079543Y0259727D01*
X0079543Y0260226D02*
X0297654Y0260226D01*
X0297654Y0260724D02*
X0079543Y0260724D01*
X0079543Y0261223D02*
X0297654Y0261223D01*
X0297654Y0261721D02*
X0079543Y0261721D01*
X0079543Y0262220D02*
X0297654Y0262220D01*
X0297654Y0262718D02*
X0079543Y0262718D01*
X0079543Y0263217D02*
X0297654Y0263217D01*
X0297654Y0263715D02*
X0079543Y0263715D01*
X0079543Y0264214D02*
X0297654Y0264214D01*
X0297654Y0264712D02*
X0079543Y0264712D01*
X0079543Y0265211D02*
X0297654Y0265211D01*
X0297654Y0265710D02*
X0079543Y0265710D01*
X0079543Y0266208D02*
X0297654Y0266208D01*
X0297654Y0266707D02*
X0079543Y0266707D01*
X0079543Y0267205D02*
X0297654Y0267205D01*
X0297654Y0267704D02*
X0079543Y0267704D01*
X0079543Y0268202D02*
X0297654Y0268202D01*
X0297654Y0268701D02*
X0079543Y0268701D01*
X0079543Y0269199D02*
X0297654Y0269199D01*
X0297654Y0269698D02*
X0079543Y0269698D01*
X0079543Y0270196D02*
X0297654Y0270196D01*
X0297654Y0270695D02*
X0079543Y0270695D01*
X0079543Y0271193D02*
X0297654Y0271193D01*
X0297654Y0271692D02*
X0079543Y0271692D01*
X0079543Y0272190D02*
X0297654Y0272190D01*
X0297654Y0272689D02*
X0079543Y0272689D01*
X0079543Y0273187D02*
X0297654Y0273187D01*
X0297654Y0273686D02*
X0079543Y0273686D01*
X0079543Y0274184D02*
X0297654Y0274184D01*
X0297654Y0274683D02*
X0079543Y0274683D01*
X0079543Y0275181D02*
X0297654Y0275181D01*
X0297654Y0275680D02*
X0079543Y0275680D01*
X0079543Y0276178D02*
X0297654Y0276178D01*
X0297654Y0276677D02*
X0079543Y0276677D01*
X0079543Y0277175D02*
X0297654Y0277175D01*
X0297654Y0277674D02*
X0079543Y0277674D01*
X0079543Y0278172D02*
X0297654Y0278172D01*
X0297654Y0278671D02*
X0079543Y0278671D01*
X0079543Y0279169D02*
X0297654Y0279169D01*
X0297654Y0279668D02*
X0079543Y0279668D01*
X0079543Y0280166D02*
X0297654Y0280166D01*
X0297654Y0280665D02*
X0079543Y0280665D01*
X0079543Y0281163D02*
X0297654Y0281163D01*
X0297654Y0281662D02*
X0079543Y0281662D01*
X0079543Y0282160D02*
X0297654Y0282160D01*
X0297654Y0282659D02*
X0079543Y0282659D01*
X0079543Y0283157D02*
X0297654Y0283157D01*
X0297654Y0283656D02*
X0079543Y0283656D01*
X0079543Y0284154D02*
X0297654Y0284154D01*
X0297654Y0284653D02*
X0079543Y0284653D01*
X0079543Y0285151D02*
X0297654Y0285151D01*
X0297654Y0285650D02*
X0079543Y0285650D01*
X0079543Y0286148D02*
X0297654Y0286148D01*
X0297654Y0286647D02*
X0079543Y0286647D01*
X0079543Y0287145D02*
X0297654Y0287145D01*
X0297654Y0287644D02*
X0079543Y0287644D01*
X0079543Y0288143D02*
X0297654Y0288143D01*
X0297654Y0288641D02*
X0079543Y0288641D01*
X0079543Y0289140D02*
X0297654Y0289140D01*
X0297654Y0289638D02*
X0079543Y0289638D01*
X0079543Y0290137D02*
X0297654Y0290137D01*
X0297654Y0290635D02*
X0079543Y0290635D01*
X0079543Y0291134D02*
X0297654Y0291134D01*
X0297654Y0291632D02*
X0079543Y0291632D01*
X0079543Y0292131D02*
X0297654Y0292131D01*
X0297654Y0292629D02*
X0079543Y0292629D01*
X0079543Y0293128D02*
X0297654Y0293128D01*
X0297654Y0293626D02*
X0079543Y0293626D01*
X0079543Y0294125D02*
X0297654Y0294125D01*
X0297654Y0294623D02*
X0079543Y0294623D01*
X0079543Y0295122D02*
X0297654Y0295122D01*
X0297654Y0295620D02*
X0079543Y0295620D01*
X0079543Y0296119D02*
X0297654Y0296119D01*
X0297654Y0296617D02*
X0079543Y0296617D01*
X0079543Y0297116D02*
X0297654Y0297116D01*
X0297654Y0297614D02*
X0079543Y0297614D01*
X0079543Y0298113D02*
X0297654Y0298113D01*
X0297654Y0298611D02*
X0079543Y0298611D01*
X0079543Y0299110D02*
X0297654Y0299110D01*
X0297654Y0299608D02*
X0079543Y0299608D01*
X0079543Y0300107D02*
X0297654Y0300107D01*
X0297654Y0300605D02*
X0079543Y0300605D01*
X0079543Y0301104D02*
X0297654Y0301104D01*
X0297654Y0301602D02*
X0079543Y0301602D01*
X0079543Y0302101D02*
X0297654Y0302101D01*
X0297654Y0302599D02*
X0079543Y0302599D01*
X0079543Y0303098D02*
X0297654Y0303098D01*
X0297654Y0303596D02*
X0079543Y0303596D01*
X0079543Y0304095D02*
X0297654Y0304095D01*
X0297654Y0304593D02*
X0079543Y0304593D01*
X0079543Y0305092D02*
X0297654Y0305092D01*
X0297654Y0305590D02*
X0079543Y0305590D01*
X0079543Y0306089D02*
X0297654Y0306089D01*
X0297654Y0306587D02*
X0079543Y0306587D01*
X0079543Y0307086D02*
X0297654Y0307086D01*
X0297654Y0307584D02*
X0079543Y0307584D01*
X0079543Y0308083D02*
X0297654Y0308083D01*
X0297654Y0308581D02*
X0079543Y0308581D01*
X0079543Y0309080D02*
X0297654Y0309080D01*
X0297654Y0309579D02*
X0079543Y0309579D01*
X0079543Y0310077D02*
X0297654Y0310077D01*
X0297654Y0310576D02*
X0079543Y0310576D01*
X0079543Y0311074D02*
X0297654Y0311074D01*
X0297654Y0311573D02*
X0079543Y0311573D01*
X0079543Y0312071D02*
X0297654Y0312071D01*
X0297654Y0312570D02*
X0079543Y0312570D01*
X0079543Y0313068D02*
X0297654Y0313068D01*
X0297654Y0313567D02*
X0079543Y0313567D01*
X0079543Y0314065D02*
X0297654Y0314065D01*
X0297654Y0314564D02*
X0079543Y0314564D01*
X0079543Y0315062D02*
X0297654Y0315062D01*
X0297654Y0315561D02*
X0079543Y0315561D01*
X0079543Y0316059D02*
X0297654Y0316059D01*
X0297654Y0316558D02*
X0079543Y0316558D01*
X0079543Y0317056D02*
X0297654Y0317056D01*
X0297654Y0317555D02*
X0079543Y0317555D01*
X0079543Y0318053D02*
X0297654Y0318053D01*
X0297654Y0318552D02*
X0079543Y0318552D01*
X0079543Y0319050D02*
X0297654Y0319050D01*
X0297654Y0319549D02*
X0079543Y0319549D01*
X0079543Y0320047D02*
X0297654Y0320047D01*
X0297654Y0320546D02*
X0079543Y0320546D01*
X0079543Y0321044D02*
X0297654Y0321044D01*
X0297654Y0321543D02*
X0079543Y0321543D01*
X0079543Y0322041D02*
X0297654Y0322041D01*
X0297654Y0322540D02*
X0079543Y0322540D01*
X0079543Y0323038D02*
X0297654Y0323038D01*
X0297654Y0323537D02*
X0079543Y0323537D01*
X0079543Y0324035D02*
X0297654Y0324035D01*
X0297654Y0324534D02*
X0079543Y0324534D01*
X0079543Y0325032D02*
X0297654Y0325032D01*
X0297654Y0325531D02*
X0079543Y0325531D01*
X0079543Y0326029D02*
X0297654Y0326029D01*
X0297654Y0326528D02*
X0079543Y0326528D01*
X0079543Y0327026D02*
X0297654Y0327026D01*
X0297654Y0327525D02*
X0079543Y0327525D01*
X0079543Y0328023D02*
X0297654Y0328023D01*
X0297654Y0328522D02*
X0079543Y0328522D01*
X0079543Y0329020D02*
X0297654Y0329020D01*
X0297654Y0329519D02*
X0079543Y0329519D01*
X0079543Y0330017D02*
X0297654Y0330017D01*
X0297654Y0330516D02*
X0079543Y0330516D01*
X0079543Y0331014D02*
X0297654Y0331014D01*
X0297654Y0331513D02*
X0079543Y0331513D01*
X0079543Y0332012D02*
X0297654Y0332012D01*
X0297654Y0332510D02*
X0079543Y0332510D01*
X0079543Y0333009D02*
X0297654Y0333009D01*
X0297654Y0333507D02*
X0079543Y0333507D01*
X0079543Y0334006D02*
X0297654Y0334006D01*
X0297654Y0334504D02*
X0079543Y0334504D01*
X0079543Y0335003D02*
X0297654Y0335003D01*
X0297654Y0335501D02*
X0079543Y0335501D01*
X0079543Y0336000D02*
X0297654Y0336000D01*
X0297654Y0336498D02*
X0079543Y0336498D01*
X0079543Y0336997D02*
X0297654Y0336997D01*
X0297654Y0337495D02*
X0079543Y0337495D01*
X0079543Y0337994D02*
X0297654Y0337994D01*
X0297654Y0338492D02*
X0079543Y0338492D01*
X0079543Y0338991D02*
X0297654Y0338991D01*
X0297654Y0339489D02*
X0079543Y0339489D01*
X0079543Y0339988D02*
X0297654Y0339988D01*
X0297654Y0340486D02*
X0079543Y0340486D01*
X0079543Y0340985D02*
X0297654Y0340985D01*
X0297654Y0341483D02*
X0079543Y0341483D01*
X0079543Y0341982D02*
X0297654Y0341982D01*
X0297654Y0342480D02*
X0079543Y0342480D01*
X0091591Y0356906D02*
X0091591Y0370882D01*
X0292504Y0370882D01*
X0292504Y0356512D01*
X0091591Y0356906D01*
X0091591Y0356937D02*
X0292504Y0356937D01*
X0292504Y0357436D02*
X0091591Y0357436D01*
X0091591Y0357934D02*
X0292504Y0357934D01*
X0292504Y0358433D02*
X0091591Y0358433D01*
X0091591Y0358931D02*
X0292504Y0358931D01*
X0292504Y0359430D02*
X0091591Y0359430D01*
X0091591Y0359928D02*
X0292504Y0359928D01*
X0292504Y0360427D02*
X0091591Y0360427D01*
X0091591Y0360925D02*
X0292504Y0360925D01*
X0292504Y0361424D02*
X0091591Y0361424D01*
X0091591Y0361922D02*
X0292504Y0361922D01*
X0292504Y0362421D02*
X0091591Y0362421D01*
X0091591Y0362919D02*
X0292504Y0362919D01*
X0292504Y0363418D02*
X0091591Y0363418D01*
X0091591Y0363916D02*
X0292504Y0363916D01*
X0292504Y0364415D02*
X0091591Y0364415D01*
X0091591Y0364913D02*
X0292504Y0364913D01*
X0292504Y0365412D02*
X0091591Y0365412D01*
X0091591Y0365910D02*
X0292504Y0365910D01*
X0292504Y0366409D02*
X0091591Y0366409D01*
X0091591Y0366907D02*
X0292504Y0366907D01*
X0292504Y0367406D02*
X0091591Y0367406D01*
X0091591Y0367904D02*
X0292504Y0367904D01*
X0292504Y0368403D02*
X0091591Y0368403D01*
X0091591Y0368901D02*
X0292504Y0368901D01*
X0292504Y0369400D02*
X0091591Y0369400D01*
X0091591Y0369898D02*
X0292504Y0369898D01*
X0292504Y0370397D02*
X0091591Y0370397D01*
D13*
X0030783Y0057748D03*
X0054690Y0031748D03*
D14*
X0032436Y0036500D02*
X0024766Y0044170D01*
X0024766Y0051439D01*
X0017300Y0058905D01*
X0017300Y0059100D02*
X0017300Y0143200D01*
X0042400Y0168300D01*
X0098000Y0168300D01*
X0112220Y0185252D02*
X0112220Y0208317D01*
X0155375Y0251472D01*
X0192929Y0213918D01*
X0192929Y0185252D01*
X0195529Y0187852D01*
X0206652Y0187852D01*
X0211800Y0193000D01*
X0211800Y0221200D01*
X0239000Y0194000D01*
X0242700Y0194000D01*
X0246500Y0197800D01*
X0246500Y0216878D01*
X0230800Y0232578D01*
X0230800Y0228090D01*
X0273638Y0185252D01*
X0272738Y0184352D01*
X0246852Y0184352D01*
X0192929Y0185252D02*
X0184500Y0193681D01*
X0184500Y0265000D01*
X0149228Y0184871D02*
X0149228Y0118772D01*
X0156800Y0111200D01*
X0035600Y0036500D02*
X0032436Y0036500D01*
X0112220Y0366354D02*
X0140546Y0366354D01*
X0157900Y0366300D02*
X0157946Y0366254D01*
X0192829Y0366254D01*
X0192929Y0366354D01*
X0212100Y0366354D01*
X0224846Y0366354D01*
X0240400Y0365900D02*
X0273183Y0365900D01*
D15*
X0273638Y0366354D01*
X0225000Y0366200D02*
X0224846Y0366354D01*
X0140600Y0366300D02*
X0140546Y0366354D01*
X0188441Y0274937D02*
X0188441Y0268941D01*
X0184500Y0265000D01*
X0246852Y0184352D02*
X0245800Y0183300D01*
X0197500Y0138800D02*
X0186630Y0127930D01*
X0186630Y0095304D01*
X0170100Y0124500D02*
X0170100Y0139400D01*
X0170100Y0124500D02*
X0156800Y0111200D01*
X0036400Y0148000D02*
X0036300Y0147900D01*
X0017300Y0059100D02*
X0017300Y0058905D01*
D16*
X0035600Y0036500D03*
X0050100Y0071700D03*
X0064100Y0070300D03*
X0069200Y0062300D03*
X0097200Y0018900D03*
X0110900Y0017800D03*
X0072800Y0148000D03*
X0098000Y0168300D03*
X0036300Y0147900D03*
X0074100Y0243300D03*
X0051400Y0251500D03*
X0133400Y0348100D03*
X0140500Y0360900D03*
X0169700Y0347500D03*
X0275900Y0348300D03*
X0245800Y0183300D03*
X0278600Y0175200D03*
X0305500Y0176000D03*
X0299300Y0071600D03*
X0175500Y0175200D03*
D17*
X0170100Y0139400D03*
X0197500Y0138800D03*
X0238500Y0139400D03*
X0266000Y0139400D03*
X0136100Y0139400D03*
X0110700Y0139500D03*
X0140600Y0366300D03*
X0157900Y0366300D03*
X0212100Y0366354D03*
X0225000Y0366200D03*
X0240400Y0365900D03*
D18*
X0275900Y0348300D02*
X0325800Y0348300D01*
X0348600Y0325500D01*
X0348600Y0059100D01*
X0322700Y0033200D01*
X0307900Y0033200D01*
X0292500Y0017800D01*
X0110900Y0017800D01*
X0072800Y0148000D02*
X0036400Y0148000D01*
X0060000Y0243300D02*
X0051800Y0251500D01*
X0051400Y0251500D01*
X0060000Y0243300D02*
X0074100Y0243300D01*
X0134000Y0347500D02*
X0133400Y0348100D01*
X0134000Y0347500D02*
X0169700Y0347500D01*
D19*
X0175500Y0175200D02*
X0278600Y0175200D01*
D20*
X0305500Y0176000D02*
X0305500Y0155900D01*
X0323500Y0137900D01*
X0323500Y0087200D01*
X0307900Y0071600D01*
X0299300Y0071600D01*
D21*
X0097200Y0018900D02*
X0097150Y0018950D01*
X0078750Y0018950D01*
X0062400Y0035300D01*
X0062400Y0059400D01*
X0050100Y0071700D01*
X0064100Y0070300D02*
X0069200Y0065200D01*
X0069200Y0062300D01*
M02*
