G75*
%MOIN*%
%OFA0B0*%
%FSLAX25Y25*%
%IPPOS*%
%LPD*%
%AMOC8*
5,1,8,0,0,1.08239X$1,22.5*
%
%ADD10C,0.00600*%
%ADD11C,0.00000*%
%ADD12C,0.00001*%
D10*
X0040428Y0033276D02*
X0040430Y0033394D01*
X0040436Y0033513D01*
X0040446Y0033631D01*
X0040460Y0033748D01*
X0040477Y0033865D01*
X0040499Y0033982D01*
X0040525Y0034097D01*
X0040554Y0034212D01*
X0040587Y0034326D01*
X0040624Y0034438D01*
X0040665Y0034549D01*
X0040709Y0034659D01*
X0040757Y0034767D01*
X0040809Y0034874D01*
X0040864Y0034979D01*
X0040923Y0035082D01*
X0040985Y0035182D01*
X0041050Y0035281D01*
X0041119Y0035378D01*
X0041190Y0035472D01*
X0041265Y0035563D01*
X0041343Y0035653D01*
X0041424Y0035739D01*
X0041508Y0035823D01*
X0041594Y0035904D01*
X0041684Y0035982D01*
X0041775Y0036057D01*
X0041869Y0036128D01*
X0041966Y0036197D01*
X0042065Y0036262D01*
X0042165Y0036324D01*
X0042268Y0036383D01*
X0042373Y0036438D01*
X0042480Y0036490D01*
X0042588Y0036538D01*
X0042698Y0036582D01*
X0042809Y0036623D01*
X0042921Y0036660D01*
X0043035Y0036693D01*
X0043150Y0036722D01*
X0043265Y0036748D01*
X0043382Y0036770D01*
X0043499Y0036787D01*
X0043616Y0036801D01*
X0043734Y0036811D01*
X0043853Y0036817D01*
X0043971Y0036819D01*
X0044089Y0036817D01*
X0044208Y0036811D01*
X0044326Y0036801D01*
X0044443Y0036787D01*
X0044560Y0036770D01*
X0044677Y0036748D01*
X0044792Y0036722D01*
X0044907Y0036693D01*
X0045021Y0036660D01*
X0045133Y0036623D01*
X0045244Y0036582D01*
X0045354Y0036538D01*
X0045462Y0036490D01*
X0045569Y0036438D01*
X0045674Y0036383D01*
X0045777Y0036324D01*
X0045877Y0036262D01*
X0045976Y0036197D01*
X0046073Y0036128D01*
X0046167Y0036057D01*
X0046258Y0035982D01*
X0046348Y0035904D01*
X0046434Y0035823D01*
X0046518Y0035739D01*
X0046599Y0035653D01*
X0046677Y0035563D01*
X0046752Y0035472D01*
X0046823Y0035378D01*
X0046892Y0035281D01*
X0046957Y0035182D01*
X0047019Y0035082D01*
X0047078Y0034979D01*
X0047133Y0034874D01*
X0047185Y0034767D01*
X0047233Y0034659D01*
X0047277Y0034549D01*
X0047318Y0034438D01*
X0047355Y0034326D01*
X0047388Y0034212D01*
X0047417Y0034097D01*
X0047443Y0033982D01*
X0047465Y0033865D01*
X0047482Y0033748D01*
X0047496Y0033631D01*
X0047506Y0033513D01*
X0047512Y0033394D01*
X0047514Y0033276D01*
X0047512Y0033158D01*
X0047506Y0033039D01*
X0047496Y0032921D01*
X0047482Y0032804D01*
X0047465Y0032687D01*
X0047443Y0032570D01*
X0047417Y0032455D01*
X0047388Y0032340D01*
X0047355Y0032226D01*
X0047318Y0032114D01*
X0047277Y0032003D01*
X0047233Y0031893D01*
X0047185Y0031785D01*
X0047133Y0031678D01*
X0047078Y0031573D01*
X0047019Y0031470D01*
X0046957Y0031370D01*
X0046892Y0031271D01*
X0046823Y0031174D01*
X0046752Y0031080D01*
X0046677Y0030989D01*
X0046599Y0030899D01*
X0046518Y0030813D01*
X0046434Y0030729D01*
X0046348Y0030648D01*
X0046258Y0030570D01*
X0046167Y0030495D01*
X0046073Y0030424D01*
X0045976Y0030355D01*
X0045877Y0030290D01*
X0045777Y0030228D01*
X0045674Y0030169D01*
X0045569Y0030114D01*
X0045462Y0030062D01*
X0045354Y0030014D01*
X0045244Y0029970D01*
X0045133Y0029929D01*
X0045021Y0029892D01*
X0044907Y0029859D01*
X0044792Y0029830D01*
X0044677Y0029804D01*
X0044560Y0029782D01*
X0044443Y0029765D01*
X0044326Y0029751D01*
X0044208Y0029741D01*
X0044089Y0029735D01*
X0043971Y0029733D01*
X0043853Y0029735D01*
X0043734Y0029741D01*
X0043616Y0029751D01*
X0043499Y0029765D01*
X0043382Y0029782D01*
X0043265Y0029804D01*
X0043150Y0029830D01*
X0043035Y0029859D01*
X0042921Y0029892D01*
X0042809Y0029929D01*
X0042698Y0029970D01*
X0042588Y0030014D01*
X0042480Y0030062D01*
X0042373Y0030114D01*
X0042268Y0030169D01*
X0042165Y0030228D01*
X0042065Y0030290D01*
X0041966Y0030355D01*
X0041869Y0030424D01*
X0041775Y0030495D01*
X0041684Y0030570D01*
X0041594Y0030648D01*
X0041508Y0030729D01*
X0041424Y0030813D01*
X0041343Y0030899D01*
X0041265Y0030989D01*
X0041190Y0031080D01*
X0041119Y0031174D01*
X0041050Y0031271D01*
X0040985Y0031370D01*
X0040923Y0031470D01*
X0040864Y0031573D01*
X0040809Y0031678D01*
X0040757Y0031785D01*
X0040709Y0031893D01*
X0040665Y0032003D01*
X0040624Y0032114D01*
X0040587Y0032226D01*
X0040554Y0032340D01*
X0040525Y0032455D01*
X0040499Y0032570D01*
X0040477Y0032687D01*
X0040460Y0032804D01*
X0040446Y0032921D01*
X0040436Y0033039D01*
X0040430Y0033158D01*
X0040428Y0033276D01*
X0029062Y0047375D02*
X0029064Y0047493D01*
X0029070Y0047612D01*
X0029080Y0047730D01*
X0029094Y0047847D01*
X0029111Y0047964D01*
X0029133Y0048081D01*
X0029159Y0048196D01*
X0029188Y0048311D01*
X0029221Y0048425D01*
X0029258Y0048537D01*
X0029299Y0048648D01*
X0029343Y0048758D01*
X0029391Y0048866D01*
X0029443Y0048973D01*
X0029498Y0049078D01*
X0029557Y0049181D01*
X0029619Y0049281D01*
X0029684Y0049380D01*
X0029753Y0049477D01*
X0029824Y0049571D01*
X0029899Y0049662D01*
X0029977Y0049752D01*
X0030058Y0049838D01*
X0030142Y0049922D01*
X0030228Y0050003D01*
X0030318Y0050081D01*
X0030409Y0050156D01*
X0030503Y0050227D01*
X0030600Y0050296D01*
X0030699Y0050361D01*
X0030799Y0050423D01*
X0030902Y0050482D01*
X0031007Y0050537D01*
X0031114Y0050589D01*
X0031222Y0050637D01*
X0031332Y0050681D01*
X0031443Y0050722D01*
X0031555Y0050759D01*
X0031669Y0050792D01*
X0031784Y0050821D01*
X0031899Y0050847D01*
X0032016Y0050869D01*
X0032133Y0050886D01*
X0032250Y0050900D01*
X0032368Y0050910D01*
X0032487Y0050916D01*
X0032605Y0050918D01*
X0032723Y0050916D01*
X0032842Y0050910D01*
X0032960Y0050900D01*
X0033077Y0050886D01*
X0033194Y0050869D01*
X0033311Y0050847D01*
X0033426Y0050821D01*
X0033541Y0050792D01*
X0033655Y0050759D01*
X0033767Y0050722D01*
X0033878Y0050681D01*
X0033988Y0050637D01*
X0034096Y0050589D01*
X0034203Y0050537D01*
X0034308Y0050482D01*
X0034411Y0050423D01*
X0034511Y0050361D01*
X0034610Y0050296D01*
X0034707Y0050227D01*
X0034801Y0050156D01*
X0034892Y0050081D01*
X0034982Y0050003D01*
X0035068Y0049922D01*
X0035152Y0049838D01*
X0035233Y0049752D01*
X0035311Y0049662D01*
X0035386Y0049571D01*
X0035457Y0049477D01*
X0035526Y0049380D01*
X0035591Y0049281D01*
X0035653Y0049181D01*
X0035712Y0049078D01*
X0035767Y0048973D01*
X0035819Y0048866D01*
X0035867Y0048758D01*
X0035911Y0048648D01*
X0035952Y0048537D01*
X0035989Y0048425D01*
X0036022Y0048311D01*
X0036051Y0048196D01*
X0036077Y0048081D01*
X0036099Y0047964D01*
X0036116Y0047847D01*
X0036130Y0047730D01*
X0036140Y0047612D01*
X0036146Y0047493D01*
X0036148Y0047375D01*
X0036146Y0047257D01*
X0036140Y0047138D01*
X0036130Y0047020D01*
X0036116Y0046903D01*
X0036099Y0046786D01*
X0036077Y0046669D01*
X0036051Y0046554D01*
X0036022Y0046439D01*
X0035989Y0046325D01*
X0035952Y0046213D01*
X0035911Y0046102D01*
X0035867Y0045992D01*
X0035819Y0045884D01*
X0035767Y0045777D01*
X0035712Y0045672D01*
X0035653Y0045569D01*
X0035591Y0045469D01*
X0035526Y0045370D01*
X0035457Y0045273D01*
X0035386Y0045179D01*
X0035311Y0045088D01*
X0035233Y0044998D01*
X0035152Y0044912D01*
X0035068Y0044828D01*
X0034982Y0044747D01*
X0034892Y0044669D01*
X0034801Y0044594D01*
X0034707Y0044523D01*
X0034610Y0044454D01*
X0034511Y0044389D01*
X0034411Y0044327D01*
X0034308Y0044268D01*
X0034203Y0044213D01*
X0034096Y0044161D01*
X0033988Y0044113D01*
X0033878Y0044069D01*
X0033767Y0044028D01*
X0033655Y0043991D01*
X0033541Y0043958D01*
X0033426Y0043929D01*
X0033311Y0043903D01*
X0033194Y0043881D01*
X0033077Y0043864D01*
X0032960Y0043850D01*
X0032842Y0043840D01*
X0032723Y0043834D01*
X0032605Y0043832D01*
X0032487Y0043834D01*
X0032368Y0043840D01*
X0032250Y0043850D01*
X0032133Y0043864D01*
X0032016Y0043881D01*
X0031899Y0043903D01*
X0031784Y0043929D01*
X0031669Y0043958D01*
X0031555Y0043991D01*
X0031443Y0044028D01*
X0031332Y0044069D01*
X0031222Y0044113D01*
X0031114Y0044161D01*
X0031007Y0044213D01*
X0030902Y0044268D01*
X0030799Y0044327D01*
X0030699Y0044389D01*
X0030600Y0044454D01*
X0030503Y0044523D01*
X0030409Y0044594D01*
X0030318Y0044669D01*
X0030228Y0044747D01*
X0030142Y0044828D01*
X0030058Y0044912D01*
X0029977Y0044998D01*
X0029899Y0045088D01*
X0029824Y0045179D01*
X0029753Y0045273D01*
X0029684Y0045370D01*
X0029619Y0045469D01*
X0029557Y0045569D01*
X0029498Y0045672D01*
X0029443Y0045777D01*
X0029391Y0045884D01*
X0029343Y0045992D01*
X0029299Y0046102D01*
X0029258Y0046213D01*
X0029221Y0046325D01*
X0029188Y0046439D01*
X0029159Y0046554D01*
X0029133Y0046669D01*
X0029111Y0046786D01*
X0029094Y0046903D01*
X0029080Y0047020D01*
X0029070Y0047138D01*
X0029064Y0047257D01*
X0029062Y0047375D01*
X0004392Y0046315D02*
X0004394Y0046508D01*
X0004401Y0046701D01*
X0004413Y0046894D01*
X0004430Y0047087D01*
X0004451Y0047279D01*
X0004477Y0047470D01*
X0004508Y0047661D01*
X0004543Y0047851D01*
X0004583Y0048040D01*
X0004628Y0048228D01*
X0004677Y0048415D01*
X0004731Y0048601D01*
X0004789Y0048785D01*
X0004852Y0048968D01*
X0004920Y0049149D01*
X0004991Y0049328D01*
X0005068Y0049506D01*
X0005148Y0049682D01*
X0005233Y0049855D01*
X0005322Y0050027D01*
X0005415Y0050196D01*
X0005512Y0050363D01*
X0005614Y0050528D01*
X0005719Y0050690D01*
X0005828Y0050849D01*
X0005942Y0051006D01*
X0006059Y0051159D01*
X0006179Y0051310D01*
X0006304Y0051458D01*
X0006432Y0051603D01*
X0006563Y0051744D01*
X0006698Y0051883D01*
X0006837Y0052018D01*
X0006978Y0052149D01*
X0007123Y0052277D01*
X0007271Y0052402D01*
X0007422Y0052522D01*
X0007575Y0052639D01*
X0007732Y0052753D01*
X0007891Y0052862D01*
X0008053Y0052967D01*
X0008218Y0053069D01*
X0008385Y0053166D01*
X0008554Y0053259D01*
X0008726Y0053348D01*
X0008899Y0053433D01*
X0009075Y0053513D01*
X0009253Y0053590D01*
X0009432Y0053661D01*
X0009613Y0053729D01*
X0009796Y0053792D01*
X0009980Y0053850D01*
X0010166Y0053904D01*
X0010353Y0053953D01*
X0010541Y0053998D01*
X0010730Y0054038D01*
X0010920Y0054073D01*
X0011111Y0054104D01*
X0011302Y0054130D01*
X0011494Y0054151D01*
X0011687Y0054168D01*
X0011880Y0054180D01*
X0012073Y0054187D01*
X0012266Y0054189D01*
X0012459Y0054187D01*
X0012652Y0054180D01*
X0012845Y0054168D01*
X0013038Y0054151D01*
X0013230Y0054130D01*
X0013421Y0054104D01*
X0013612Y0054073D01*
X0013802Y0054038D01*
X0013991Y0053998D01*
X0014179Y0053953D01*
X0014366Y0053904D01*
X0014552Y0053850D01*
X0014736Y0053792D01*
X0014919Y0053729D01*
X0015100Y0053661D01*
X0015279Y0053590D01*
X0015457Y0053513D01*
X0015633Y0053433D01*
X0015806Y0053348D01*
X0015978Y0053259D01*
X0016147Y0053166D01*
X0016314Y0053069D01*
X0016479Y0052967D01*
X0016641Y0052862D01*
X0016800Y0052753D01*
X0016957Y0052639D01*
X0017110Y0052522D01*
X0017261Y0052402D01*
X0017409Y0052277D01*
X0017554Y0052149D01*
X0017695Y0052018D01*
X0017834Y0051883D01*
X0017969Y0051744D01*
X0018100Y0051603D01*
X0018228Y0051458D01*
X0018353Y0051310D01*
X0018473Y0051159D01*
X0018590Y0051006D01*
X0018704Y0050849D01*
X0018813Y0050690D01*
X0018918Y0050528D01*
X0019020Y0050363D01*
X0019117Y0050196D01*
X0019210Y0050027D01*
X0019299Y0049855D01*
X0019384Y0049682D01*
X0019464Y0049506D01*
X0019541Y0049328D01*
X0019612Y0049149D01*
X0019680Y0048968D01*
X0019743Y0048785D01*
X0019801Y0048601D01*
X0019855Y0048415D01*
X0019904Y0048228D01*
X0019949Y0048040D01*
X0019989Y0047851D01*
X0020024Y0047661D01*
X0020055Y0047470D01*
X0020081Y0047279D01*
X0020102Y0047087D01*
X0020119Y0046894D01*
X0020131Y0046701D01*
X0020138Y0046508D01*
X0020140Y0046315D01*
X0020138Y0046122D01*
X0020131Y0045929D01*
X0020119Y0045736D01*
X0020102Y0045543D01*
X0020081Y0045351D01*
X0020055Y0045160D01*
X0020024Y0044969D01*
X0019989Y0044779D01*
X0019949Y0044590D01*
X0019904Y0044402D01*
X0019855Y0044215D01*
X0019801Y0044029D01*
X0019743Y0043845D01*
X0019680Y0043662D01*
X0019612Y0043481D01*
X0019541Y0043302D01*
X0019464Y0043124D01*
X0019384Y0042948D01*
X0019299Y0042775D01*
X0019210Y0042603D01*
X0019117Y0042434D01*
X0019020Y0042267D01*
X0018918Y0042102D01*
X0018813Y0041940D01*
X0018704Y0041781D01*
X0018590Y0041624D01*
X0018473Y0041471D01*
X0018353Y0041320D01*
X0018228Y0041172D01*
X0018100Y0041027D01*
X0017969Y0040886D01*
X0017834Y0040747D01*
X0017695Y0040612D01*
X0017554Y0040481D01*
X0017409Y0040353D01*
X0017261Y0040228D01*
X0017110Y0040108D01*
X0016957Y0039991D01*
X0016800Y0039877D01*
X0016641Y0039768D01*
X0016479Y0039663D01*
X0016314Y0039561D01*
X0016147Y0039464D01*
X0015978Y0039371D01*
X0015806Y0039282D01*
X0015633Y0039197D01*
X0015457Y0039117D01*
X0015279Y0039040D01*
X0015100Y0038969D01*
X0014919Y0038901D01*
X0014736Y0038838D01*
X0014552Y0038780D01*
X0014366Y0038726D01*
X0014179Y0038677D01*
X0013991Y0038632D01*
X0013802Y0038592D01*
X0013612Y0038557D01*
X0013421Y0038526D01*
X0013230Y0038500D01*
X0013038Y0038479D01*
X0012845Y0038462D01*
X0012652Y0038450D01*
X0012459Y0038443D01*
X0012266Y0038441D01*
X0012073Y0038443D01*
X0011880Y0038450D01*
X0011687Y0038462D01*
X0011494Y0038479D01*
X0011302Y0038500D01*
X0011111Y0038526D01*
X0010920Y0038557D01*
X0010730Y0038592D01*
X0010541Y0038632D01*
X0010353Y0038677D01*
X0010166Y0038726D01*
X0009980Y0038780D01*
X0009796Y0038838D01*
X0009613Y0038901D01*
X0009432Y0038969D01*
X0009253Y0039040D01*
X0009075Y0039117D01*
X0008899Y0039197D01*
X0008726Y0039282D01*
X0008554Y0039371D01*
X0008385Y0039464D01*
X0008218Y0039561D01*
X0008053Y0039663D01*
X0007891Y0039768D01*
X0007732Y0039877D01*
X0007575Y0039991D01*
X0007422Y0040108D01*
X0007271Y0040228D01*
X0007123Y0040353D01*
X0006978Y0040481D01*
X0006837Y0040612D01*
X0006698Y0040747D01*
X0006563Y0040886D01*
X0006432Y0041027D01*
X0006304Y0041172D01*
X0006179Y0041320D01*
X0006059Y0041471D01*
X0005942Y0041624D01*
X0005828Y0041781D01*
X0005719Y0041940D01*
X0005614Y0042102D01*
X0005512Y0042267D01*
X0005415Y0042434D01*
X0005322Y0042603D01*
X0005233Y0042775D01*
X0005148Y0042948D01*
X0005068Y0043124D01*
X0004991Y0043302D01*
X0004920Y0043481D01*
X0004852Y0043662D01*
X0004789Y0043845D01*
X0004731Y0044029D01*
X0004677Y0044215D01*
X0004628Y0044402D01*
X0004583Y0044590D01*
X0004543Y0044779D01*
X0004508Y0044969D01*
X0004477Y0045160D01*
X0004451Y0045351D01*
X0004430Y0045543D01*
X0004413Y0045736D01*
X0004401Y0045929D01*
X0004394Y0046122D01*
X0004392Y0046315D01*
X0004315Y0072006D02*
X0004317Y0072137D01*
X0004323Y0072269D01*
X0004333Y0072400D01*
X0004347Y0072531D01*
X0004365Y0072661D01*
X0004387Y0072790D01*
X0004412Y0072919D01*
X0004442Y0073047D01*
X0004476Y0073174D01*
X0004513Y0073301D01*
X0004554Y0073425D01*
X0004599Y0073549D01*
X0004648Y0073671D01*
X0004700Y0073792D01*
X0004756Y0073910D01*
X0004816Y0074028D01*
X0004879Y0074143D01*
X0004946Y0074256D01*
X0005016Y0074368D01*
X0005089Y0074477D01*
X0005165Y0074583D01*
X0005245Y0074688D01*
X0005328Y0074790D01*
X0005414Y0074889D01*
X0005503Y0074986D01*
X0005595Y0075080D01*
X0005690Y0075171D01*
X0005787Y0075260D01*
X0005887Y0075345D01*
X0005990Y0075427D01*
X0006095Y0075506D01*
X0006202Y0075582D01*
X0006312Y0075654D01*
X0006424Y0075723D01*
X0006538Y0075789D01*
X0006653Y0075851D01*
X0006771Y0075910D01*
X0006890Y0075965D01*
X0007011Y0076017D01*
X0007134Y0076064D01*
X0007258Y0076108D01*
X0007383Y0076149D01*
X0007509Y0076185D01*
X0007637Y0076218D01*
X0007765Y0076246D01*
X0007894Y0076271D01*
X0008024Y0076292D01*
X0008154Y0076309D01*
X0008285Y0076322D01*
X0008416Y0076331D01*
X0008547Y0076336D01*
X0008679Y0076337D01*
X0008810Y0076334D01*
X0008942Y0076327D01*
X0009073Y0076316D01*
X0009203Y0076301D01*
X0009333Y0076282D01*
X0009463Y0076259D01*
X0009591Y0076233D01*
X0009719Y0076202D01*
X0009846Y0076167D01*
X0009972Y0076129D01*
X0010096Y0076087D01*
X0010220Y0076041D01*
X0010341Y0075991D01*
X0010461Y0075938D01*
X0010580Y0075881D01*
X0010697Y0075821D01*
X0010811Y0075757D01*
X0010924Y0075689D01*
X0011035Y0075618D01*
X0011144Y0075544D01*
X0011250Y0075467D01*
X0011354Y0075386D01*
X0011455Y0075303D01*
X0011554Y0075216D01*
X0011650Y0075126D01*
X0011743Y0075033D01*
X0011834Y0074938D01*
X0011921Y0074840D01*
X0012006Y0074739D01*
X0012087Y0074636D01*
X0012165Y0074530D01*
X0012240Y0074422D01*
X0012312Y0074312D01*
X0012380Y0074200D01*
X0012445Y0074086D01*
X0012506Y0073969D01*
X0012564Y0073851D01*
X0012618Y0073731D01*
X0012669Y0073610D01*
X0012716Y0073487D01*
X0012759Y0073363D01*
X0012798Y0073238D01*
X0012834Y0073111D01*
X0012865Y0072983D01*
X0012893Y0072855D01*
X0012917Y0072726D01*
X0012937Y0072596D01*
X0012953Y0072465D01*
X0012965Y0072334D01*
X0012973Y0072203D01*
X0012977Y0072072D01*
X0012977Y0071940D01*
X0012973Y0071809D01*
X0012965Y0071678D01*
X0012953Y0071547D01*
X0012937Y0071416D01*
X0012917Y0071286D01*
X0012893Y0071157D01*
X0012865Y0071029D01*
X0012834Y0070901D01*
X0012798Y0070774D01*
X0012759Y0070649D01*
X0012716Y0070525D01*
X0012669Y0070402D01*
X0012618Y0070281D01*
X0012564Y0070161D01*
X0012506Y0070043D01*
X0012445Y0069926D01*
X0012380Y0069812D01*
X0012312Y0069700D01*
X0012240Y0069590D01*
X0012165Y0069482D01*
X0012087Y0069376D01*
X0012006Y0069273D01*
X0011921Y0069172D01*
X0011834Y0069074D01*
X0011743Y0068979D01*
X0011650Y0068886D01*
X0011554Y0068796D01*
X0011455Y0068709D01*
X0011354Y0068626D01*
X0011250Y0068545D01*
X0011144Y0068468D01*
X0011035Y0068394D01*
X0010924Y0068323D01*
X0010812Y0068255D01*
X0010697Y0068191D01*
X0010580Y0068131D01*
X0010461Y0068074D01*
X0010341Y0068021D01*
X0010220Y0067971D01*
X0010096Y0067925D01*
X0009972Y0067883D01*
X0009846Y0067845D01*
X0009719Y0067810D01*
X0009591Y0067779D01*
X0009463Y0067753D01*
X0009333Y0067730D01*
X0009203Y0067711D01*
X0009073Y0067696D01*
X0008942Y0067685D01*
X0008810Y0067678D01*
X0008679Y0067675D01*
X0008547Y0067676D01*
X0008416Y0067681D01*
X0008285Y0067690D01*
X0008154Y0067703D01*
X0008024Y0067720D01*
X0007894Y0067741D01*
X0007765Y0067766D01*
X0007637Y0067794D01*
X0007509Y0067827D01*
X0007383Y0067863D01*
X0007258Y0067904D01*
X0007134Y0067948D01*
X0007011Y0067995D01*
X0006890Y0068047D01*
X0006771Y0068102D01*
X0006653Y0068161D01*
X0006538Y0068223D01*
X0006424Y0068289D01*
X0006312Y0068358D01*
X0006202Y0068430D01*
X0006095Y0068506D01*
X0005990Y0068585D01*
X0005887Y0068667D01*
X0005787Y0068752D01*
X0005690Y0068841D01*
X0005595Y0068932D01*
X0005503Y0069026D01*
X0005414Y0069123D01*
X0005328Y0069222D01*
X0005245Y0069324D01*
X0005165Y0069429D01*
X0005089Y0069535D01*
X0005016Y0069644D01*
X0004946Y0069756D01*
X0004879Y0069869D01*
X0004816Y0069984D01*
X0004756Y0070102D01*
X0004700Y0070220D01*
X0004648Y0070341D01*
X0004599Y0070463D01*
X0004554Y0070587D01*
X0004513Y0070711D01*
X0004476Y0070838D01*
X0004442Y0070965D01*
X0004412Y0071093D01*
X0004387Y0071222D01*
X0004365Y0071351D01*
X0004347Y0071481D01*
X0004333Y0071612D01*
X0004323Y0071743D01*
X0004317Y0071875D01*
X0004315Y0072006D01*
X0051542Y0007681D02*
X0051544Y0007812D01*
X0051550Y0007944D01*
X0051560Y0008075D01*
X0051574Y0008206D01*
X0051592Y0008336D01*
X0051614Y0008465D01*
X0051639Y0008594D01*
X0051669Y0008722D01*
X0051703Y0008849D01*
X0051740Y0008976D01*
X0051781Y0009100D01*
X0051826Y0009224D01*
X0051875Y0009346D01*
X0051927Y0009467D01*
X0051983Y0009585D01*
X0052043Y0009703D01*
X0052106Y0009818D01*
X0052173Y0009931D01*
X0052243Y0010043D01*
X0052316Y0010152D01*
X0052392Y0010258D01*
X0052472Y0010363D01*
X0052555Y0010465D01*
X0052641Y0010564D01*
X0052730Y0010661D01*
X0052822Y0010755D01*
X0052917Y0010846D01*
X0053014Y0010935D01*
X0053114Y0011020D01*
X0053217Y0011102D01*
X0053322Y0011181D01*
X0053429Y0011257D01*
X0053539Y0011329D01*
X0053651Y0011398D01*
X0053765Y0011464D01*
X0053880Y0011526D01*
X0053998Y0011585D01*
X0054117Y0011640D01*
X0054238Y0011692D01*
X0054361Y0011739D01*
X0054485Y0011783D01*
X0054610Y0011824D01*
X0054736Y0011860D01*
X0054864Y0011893D01*
X0054992Y0011921D01*
X0055121Y0011946D01*
X0055251Y0011967D01*
X0055381Y0011984D01*
X0055512Y0011997D01*
X0055643Y0012006D01*
X0055774Y0012011D01*
X0055906Y0012012D01*
X0056037Y0012009D01*
X0056169Y0012002D01*
X0056300Y0011991D01*
X0056430Y0011976D01*
X0056560Y0011957D01*
X0056690Y0011934D01*
X0056818Y0011908D01*
X0056946Y0011877D01*
X0057073Y0011842D01*
X0057199Y0011804D01*
X0057323Y0011762D01*
X0057447Y0011716D01*
X0057568Y0011666D01*
X0057688Y0011613D01*
X0057807Y0011556D01*
X0057924Y0011496D01*
X0058038Y0011432D01*
X0058151Y0011364D01*
X0058262Y0011293D01*
X0058371Y0011219D01*
X0058477Y0011142D01*
X0058581Y0011061D01*
X0058682Y0010978D01*
X0058781Y0010891D01*
X0058877Y0010801D01*
X0058970Y0010708D01*
X0059061Y0010613D01*
X0059148Y0010515D01*
X0059233Y0010414D01*
X0059314Y0010311D01*
X0059392Y0010205D01*
X0059467Y0010097D01*
X0059539Y0009987D01*
X0059607Y0009875D01*
X0059672Y0009761D01*
X0059733Y0009644D01*
X0059791Y0009526D01*
X0059845Y0009406D01*
X0059896Y0009285D01*
X0059943Y0009162D01*
X0059986Y0009038D01*
X0060025Y0008913D01*
X0060061Y0008786D01*
X0060092Y0008658D01*
X0060120Y0008530D01*
X0060144Y0008401D01*
X0060164Y0008271D01*
X0060180Y0008140D01*
X0060192Y0008009D01*
X0060200Y0007878D01*
X0060204Y0007747D01*
X0060204Y0007615D01*
X0060200Y0007484D01*
X0060192Y0007353D01*
X0060180Y0007222D01*
X0060164Y0007091D01*
X0060144Y0006961D01*
X0060120Y0006832D01*
X0060092Y0006704D01*
X0060061Y0006576D01*
X0060025Y0006449D01*
X0059986Y0006324D01*
X0059943Y0006200D01*
X0059896Y0006077D01*
X0059845Y0005956D01*
X0059791Y0005836D01*
X0059733Y0005718D01*
X0059672Y0005601D01*
X0059607Y0005487D01*
X0059539Y0005375D01*
X0059467Y0005265D01*
X0059392Y0005157D01*
X0059314Y0005051D01*
X0059233Y0004948D01*
X0059148Y0004847D01*
X0059061Y0004749D01*
X0058970Y0004654D01*
X0058877Y0004561D01*
X0058781Y0004471D01*
X0058682Y0004384D01*
X0058581Y0004301D01*
X0058477Y0004220D01*
X0058371Y0004143D01*
X0058262Y0004069D01*
X0058151Y0003998D01*
X0058039Y0003930D01*
X0057924Y0003866D01*
X0057807Y0003806D01*
X0057688Y0003749D01*
X0057568Y0003696D01*
X0057447Y0003646D01*
X0057323Y0003600D01*
X0057199Y0003558D01*
X0057073Y0003520D01*
X0056946Y0003485D01*
X0056818Y0003454D01*
X0056690Y0003428D01*
X0056560Y0003405D01*
X0056430Y0003386D01*
X0056300Y0003371D01*
X0056169Y0003360D01*
X0056037Y0003353D01*
X0055906Y0003350D01*
X0055774Y0003351D01*
X0055643Y0003356D01*
X0055512Y0003365D01*
X0055381Y0003378D01*
X0055251Y0003395D01*
X0055121Y0003416D01*
X0054992Y0003441D01*
X0054864Y0003469D01*
X0054736Y0003502D01*
X0054610Y0003538D01*
X0054485Y0003579D01*
X0054361Y0003623D01*
X0054238Y0003670D01*
X0054117Y0003722D01*
X0053998Y0003777D01*
X0053880Y0003836D01*
X0053765Y0003898D01*
X0053651Y0003964D01*
X0053539Y0004033D01*
X0053429Y0004105D01*
X0053322Y0004181D01*
X0053217Y0004260D01*
X0053114Y0004342D01*
X0053014Y0004427D01*
X0052917Y0004516D01*
X0052822Y0004607D01*
X0052730Y0004701D01*
X0052641Y0004798D01*
X0052555Y0004897D01*
X0052472Y0004999D01*
X0052392Y0005104D01*
X0052316Y0005210D01*
X0052243Y0005319D01*
X0052173Y0005431D01*
X0052106Y0005544D01*
X0052043Y0005659D01*
X0051983Y0005777D01*
X0051927Y0005895D01*
X0051875Y0006016D01*
X0051826Y0006138D01*
X0051781Y0006262D01*
X0051740Y0006386D01*
X0051703Y0006513D01*
X0051669Y0006640D01*
X0051639Y0006768D01*
X0051614Y0006897D01*
X0051592Y0007026D01*
X0051574Y0007156D01*
X0051560Y0007287D01*
X0051550Y0007418D01*
X0051544Y0007550D01*
X0051542Y0007681D01*
X0063051Y0015677D02*
X0063053Y0015830D01*
X0063059Y0015984D01*
X0063069Y0016137D01*
X0063083Y0016289D01*
X0063101Y0016442D01*
X0063123Y0016593D01*
X0063148Y0016744D01*
X0063178Y0016895D01*
X0063212Y0017045D01*
X0063249Y0017193D01*
X0063290Y0017341D01*
X0063335Y0017487D01*
X0063384Y0017633D01*
X0063437Y0017777D01*
X0063493Y0017919D01*
X0063553Y0018060D01*
X0063617Y0018200D01*
X0063684Y0018338D01*
X0063755Y0018474D01*
X0063830Y0018608D01*
X0063907Y0018740D01*
X0063989Y0018870D01*
X0064073Y0018998D01*
X0064161Y0019124D01*
X0064252Y0019247D01*
X0064346Y0019368D01*
X0064444Y0019486D01*
X0064544Y0019602D01*
X0064648Y0019715D01*
X0064754Y0019826D01*
X0064863Y0019934D01*
X0064975Y0020039D01*
X0065089Y0020140D01*
X0065207Y0020239D01*
X0065326Y0020335D01*
X0065448Y0020428D01*
X0065573Y0020517D01*
X0065700Y0020604D01*
X0065829Y0020686D01*
X0065960Y0020766D01*
X0066093Y0020842D01*
X0066228Y0020915D01*
X0066365Y0020984D01*
X0066504Y0021049D01*
X0066644Y0021111D01*
X0066786Y0021169D01*
X0066929Y0021224D01*
X0067074Y0021275D01*
X0067220Y0021322D01*
X0067367Y0021365D01*
X0067515Y0021404D01*
X0067664Y0021440D01*
X0067814Y0021471D01*
X0067965Y0021499D01*
X0068116Y0021523D01*
X0068269Y0021543D01*
X0068421Y0021559D01*
X0068574Y0021571D01*
X0068727Y0021579D01*
X0068880Y0021583D01*
X0069034Y0021583D01*
X0069187Y0021579D01*
X0069340Y0021571D01*
X0069493Y0021559D01*
X0069645Y0021543D01*
X0069798Y0021523D01*
X0069949Y0021499D01*
X0070100Y0021471D01*
X0070250Y0021440D01*
X0070399Y0021404D01*
X0070547Y0021365D01*
X0070694Y0021322D01*
X0070840Y0021275D01*
X0070985Y0021224D01*
X0071128Y0021169D01*
X0071270Y0021111D01*
X0071410Y0021049D01*
X0071549Y0020984D01*
X0071686Y0020915D01*
X0071821Y0020842D01*
X0071954Y0020766D01*
X0072085Y0020686D01*
X0072214Y0020604D01*
X0072341Y0020517D01*
X0072466Y0020428D01*
X0072588Y0020335D01*
X0072707Y0020239D01*
X0072825Y0020140D01*
X0072939Y0020039D01*
X0073051Y0019934D01*
X0073160Y0019826D01*
X0073266Y0019715D01*
X0073370Y0019602D01*
X0073470Y0019486D01*
X0073568Y0019368D01*
X0073662Y0019247D01*
X0073753Y0019124D01*
X0073841Y0018998D01*
X0073925Y0018870D01*
X0074007Y0018740D01*
X0074084Y0018608D01*
X0074159Y0018474D01*
X0074230Y0018338D01*
X0074297Y0018200D01*
X0074361Y0018060D01*
X0074421Y0017919D01*
X0074477Y0017777D01*
X0074530Y0017633D01*
X0074579Y0017487D01*
X0074624Y0017341D01*
X0074665Y0017193D01*
X0074702Y0017045D01*
X0074736Y0016895D01*
X0074766Y0016744D01*
X0074791Y0016593D01*
X0074813Y0016442D01*
X0074831Y0016289D01*
X0074845Y0016137D01*
X0074855Y0015984D01*
X0074861Y0015830D01*
X0074863Y0015677D01*
X0074861Y0015524D01*
X0074855Y0015370D01*
X0074845Y0015217D01*
X0074831Y0015065D01*
X0074813Y0014912D01*
X0074791Y0014761D01*
X0074766Y0014610D01*
X0074736Y0014459D01*
X0074702Y0014309D01*
X0074665Y0014161D01*
X0074624Y0014013D01*
X0074579Y0013867D01*
X0074530Y0013721D01*
X0074477Y0013577D01*
X0074421Y0013435D01*
X0074361Y0013294D01*
X0074297Y0013154D01*
X0074230Y0013016D01*
X0074159Y0012880D01*
X0074084Y0012746D01*
X0074007Y0012614D01*
X0073925Y0012484D01*
X0073841Y0012356D01*
X0073753Y0012230D01*
X0073662Y0012107D01*
X0073568Y0011986D01*
X0073470Y0011868D01*
X0073370Y0011752D01*
X0073266Y0011639D01*
X0073160Y0011528D01*
X0073051Y0011420D01*
X0072939Y0011315D01*
X0072825Y0011214D01*
X0072707Y0011115D01*
X0072588Y0011019D01*
X0072466Y0010926D01*
X0072341Y0010837D01*
X0072214Y0010750D01*
X0072085Y0010668D01*
X0071954Y0010588D01*
X0071821Y0010512D01*
X0071686Y0010439D01*
X0071549Y0010370D01*
X0071410Y0010305D01*
X0071270Y0010243D01*
X0071128Y0010185D01*
X0070985Y0010130D01*
X0070840Y0010079D01*
X0070694Y0010032D01*
X0070547Y0009989D01*
X0070399Y0009950D01*
X0070250Y0009914D01*
X0070100Y0009883D01*
X0069949Y0009855D01*
X0069798Y0009831D01*
X0069645Y0009811D01*
X0069493Y0009795D01*
X0069340Y0009783D01*
X0069187Y0009775D01*
X0069034Y0009771D01*
X0068880Y0009771D01*
X0068727Y0009775D01*
X0068574Y0009783D01*
X0068421Y0009795D01*
X0068269Y0009811D01*
X0068116Y0009831D01*
X0067965Y0009855D01*
X0067814Y0009883D01*
X0067664Y0009914D01*
X0067515Y0009950D01*
X0067367Y0009989D01*
X0067220Y0010032D01*
X0067074Y0010079D01*
X0066929Y0010130D01*
X0066786Y0010185D01*
X0066644Y0010243D01*
X0066504Y0010305D01*
X0066365Y0010370D01*
X0066228Y0010439D01*
X0066093Y0010512D01*
X0065960Y0010588D01*
X0065829Y0010668D01*
X0065700Y0010750D01*
X0065573Y0010837D01*
X0065448Y0010926D01*
X0065326Y0011019D01*
X0065207Y0011115D01*
X0065089Y0011214D01*
X0064975Y0011315D01*
X0064863Y0011420D01*
X0064754Y0011528D01*
X0064648Y0011639D01*
X0064544Y0011752D01*
X0064444Y0011868D01*
X0064346Y0011986D01*
X0064252Y0012107D01*
X0064161Y0012230D01*
X0064073Y0012356D01*
X0063989Y0012484D01*
X0063907Y0012614D01*
X0063830Y0012746D01*
X0063755Y0012880D01*
X0063684Y0013016D01*
X0063617Y0013154D01*
X0063553Y0013294D01*
X0063493Y0013435D01*
X0063437Y0013577D01*
X0063384Y0013721D01*
X0063335Y0013867D01*
X0063290Y0014013D01*
X0063249Y0014161D01*
X0063212Y0014309D01*
X0063178Y0014459D01*
X0063148Y0014610D01*
X0063123Y0014761D01*
X0063101Y0014912D01*
X0063083Y0015065D01*
X0063069Y0015217D01*
X0063059Y0015370D01*
X0063053Y0015524D01*
X0063051Y0015677D01*
X0006704Y0186297D02*
X0006706Y0186428D01*
X0006712Y0186560D01*
X0006722Y0186691D01*
X0006736Y0186822D01*
X0006754Y0186952D01*
X0006776Y0187081D01*
X0006801Y0187210D01*
X0006831Y0187338D01*
X0006865Y0187465D01*
X0006902Y0187592D01*
X0006943Y0187716D01*
X0006988Y0187840D01*
X0007037Y0187962D01*
X0007089Y0188083D01*
X0007145Y0188201D01*
X0007205Y0188319D01*
X0007268Y0188434D01*
X0007335Y0188547D01*
X0007405Y0188659D01*
X0007478Y0188768D01*
X0007554Y0188874D01*
X0007634Y0188979D01*
X0007717Y0189081D01*
X0007803Y0189180D01*
X0007892Y0189277D01*
X0007984Y0189371D01*
X0008079Y0189462D01*
X0008176Y0189551D01*
X0008276Y0189636D01*
X0008379Y0189718D01*
X0008484Y0189797D01*
X0008591Y0189873D01*
X0008701Y0189945D01*
X0008813Y0190014D01*
X0008927Y0190080D01*
X0009042Y0190142D01*
X0009160Y0190201D01*
X0009279Y0190256D01*
X0009400Y0190308D01*
X0009523Y0190355D01*
X0009647Y0190399D01*
X0009772Y0190440D01*
X0009898Y0190476D01*
X0010026Y0190509D01*
X0010154Y0190537D01*
X0010283Y0190562D01*
X0010413Y0190583D01*
X0010543Y0190600D01*
X0010674Y0190613D01*
X0010805Y0190622D01*
X0010936Y0190627D01*
X0011068Y0190628D01*
X0011199Y0190625D01*
X0011331Y0190618D01*
X0011462Y0190607D01*
X0011592Y0190592D01*
X0011722Y0190573D01*
X0011852Y0190550D01*
X0011980Y0190524D01*
X0012108Y0190493D01*
X0012235Y0190458D01*
X0012361Y0190420D01*
X0012485Y0190378D01*
X0012609Y0190332D01*
X0012730Y0190282D01*
X0012850Y0190229D01*
X0012969Y0190172D01*
X0013086Y0190112D01*
X0013200Y0190048D01*
X0013313Y0189980D01*
X0013424Y0189909D01*
X0013533Y0189835D01*
X0013639Y0189758D01*
X0013743Y0189677D01*
X0013844Y0189594D01*
X0013943Y0189507D01*
X0014039Y0189417D01*
X0014132Y0189324D01*
X0014223Y0189229D01*
X0014310Y0189131D01*
X0014395Y0189030D01*
X0014476Y0188927D01*
X0014554Y0188821D01*
X0014629Y0188713D01*
X0014701Y0188603D01*
X0014769Y0188491D01*
X0014834Y0188377D01*
X0014895Y0188260D01*
X0014953Y0188142D01*
X0015007Y0188022D01*
X0015058Y0187901D01*
X0015105Y0187778D01*
X0015148Y0187654D01*
X0015187Y0187529D01*
X0015223Y0187402D01*
X0015254Y0187274D01*
X0015282Y0187146D01*
X0015306Y0187017D01*
X0015326Y0186887D01*
X0015342Y0186756D01*
X0015354Y0186625D01*
X0015362Y0186494D01*
X0015366Y0186363D01*
X0015366Y0186231D01*
X0015362Y0186100D01*
X0015354Y0185969D01*
X0015342Y0185838D01*
X0015326Y0185707D01*
X0015306Y0185577D01*
X0015282Y0185448D01*
X0015254Y0185320D01*
X0015223Y0185192D01*
X0015187Y0185065D01*
X0015148Y0184940D01*
X0015105Y0184816D01*
X0015058Y0184693D01*
X0015007Y0184572D01*
X0014953Y0184452D01*
X0014895Y0184334D01*
X0014834Y0184217D01*
X0014769Y0184103D01*
X0014701Y0183991D01*
X0014629Y0183881D01*
X0014554Y0183773D01*
X0014476Y0183667D01*
X0014395Y0183564D01*
X0014310Y0183463D01*
X0014223Y0183365D01*
X0014132Y0183270D01*
X0014039Y0183177D01*
X0013943Y0183087D01*
X0013844Y0183000D01*
X0013743Y0182917D01*
X0013639Y0182836D01*
X0013533Y0182759D01*
X0013424Y0182685D01*
X0013313Y0182614D01*
X0013201Y0182546D01*
X0013086Y0182482D01*
X0012969Y0182422D01*
X0012850Y0182365D01*
X0012730Y0182312D01*
X0012609Y0182262D01*
X0012485Y0182216D01*
X0012361Y0182174D01*
X0012235Y0182136D01*
X0012108Y0182101D01*
X0011980Y0182070D01*
X0011852Y0182044D01*
X0011722Y0182021D01*
X0011592Y0182002D01*
X0011462Y0181987D01*
X0011331Y0181976D01*
X0011199Y0181969D01*
X0011068Y0181966D01*
X0010936Y0181967D01*
X0010805Y0181972D01*
X0010674Y0181981D01*
X0010543Y0181994D01*
X0010413Y0182011D01*
X0010283Y0182032D01*
X0010154Y0182057D01*
X0010026Y0182085D01*
X0009898Y0182118D01*
X0009772Y0182154D01*
X0009647Y0182195D01*
X0009523Y0182239D01*
X0009400Y0182286D01*
X0009279Y0182338D01*
X0009160Y0182393D01*
X0009042Y0182452D01*
X0008927Y0182514D01*
X0008813Y0182580D01*
X0008701Y0182649D01*
X0008591Y0182721D01*
X0008484Y0182797D01*
X0008379Y0182876D01*
X0008276Y0182958D01*
X0008176Y0183043D01*
X0008079Y0183132D01*
X0007984Y0183223D01*
X0007892Y0183317D01*
X0007803Y0183414D01*
X0007717Y0183513D01*
X0007634Y0183615D01*
X0007554Y0183720D01*
X0007478Y0183826D01*
X0007405Y0183935D01*
X0007335Y0184047D01*
X0007268Y0184160D01*
X0007205Y0184275D01*
X0007145Y0184393D01*
X0007089Y0184511D01*
X0007037Y0184632D01*
X0006988Y0184754D01*
X0006943Y0184878D01*
X0006902Y0185002D01*
X0006865Y0185129D01*
X0006831Y0185256D01*
X0006801Y0185384D01*
X0006776Y0185513D01*
X0006754Y0185642D01*
X0006736Y0185772D01*
X0006722Y0185903D01*
X0006712Y0186034D01*
X0006706Y0186166D01*
X0006704Y0186297D01*
X0046717Y0191760D02*
X0046719Y0191878D01*
X0046725Y0191997D01*
X0046735Y0192115D01*
X0046749Y0192232D01*
X0046766Y0192349D01*
X0046788Y0192466D01*
X0046814Y0192581D01*
X0046843Y0192696D01*
X0046876Y0192810D01*
X0046913Y0192922D01*
X0046954Y0193033D01*
X0046998Y0193143D01*
X0047046Y0193251D01*
X0047098Y0193358D01*
X0047153Y0193463D01*
X0047212Y0193566D01*
X0047274Y0193666D01*
X0047339Y0193765D01*
X0047408Y0193862D01*
X0047479Y0193956D01*
X0047554Y0194047D01*
X0047632Y0194137D01*
X0047713Y0194223D01*
X0047797Y0194307D01*
X0047883Y0194388D01*
X0047973Y0194466D01*
X0048064Y0194541D01*
X0048158Y0194612D01*
X0048255Y0194681D01*
X0048354Y0194746D01*
X0048454Y0194808D01*
X0048557Y0194867D01*
X0048662Y0194922D01*
X0048769Y0194974D01*
X0048877Y0195022D01*
X0048987Y0195066D01*
X0049098Y0195107D01*
X0049210Y0195144D01*
X0049324Y0195177D01*
X0049439Y0195206D01*
X0049554Y0195232D01*
X0049671Y0195254D01*
X0049788Y0195271D01*
X0049905Y0195285D01*
X0050023Y0195295D01*
X0050142Y0195301D01*
X0050260Y0195303D01*
X0050378Y0195301D01*
X0050497Y0195295D01*
X0050615Y0195285D01*
X0050732Y0195271D01*
X0050849Y0195254D01*
X0050966Y0195232D01*
X0051081Y0195206D01*
X0051196Y0195177D01*
X0051310Y0195144D01*
X0051422Y0195107D01*
X0051533Y0195066D01*
X0051643Y0195022D01*
X0051751Y0194974D01*
X0051858Y0194922D01*
X0051963Y0194867D01*
X0052066Y0194808D01*
X0052166Y0194746D01*
X0052265Y0194681D01*
X0052362Y0194612D01*
X0052456Y0194541D01*
X0052547Y0194466D01*
X0052637Y0194388D01*
X0052723Y0194307D01*
X0052807Y0194223D01*
X0052888Y0194137D01*
X0052966Y0194047D01*
X0053041Y0193956D01*
X0053112Y0193862D01*
X0053181Y0193765D01*
X0053246Y0193666D01*
X0053308Y0193566D01*
X0053367Y0193463D01*
X0053422Y0193358D01*
X0053474Y0193251D01*
X0053522Y0193143D01*
X0053566Y0193033D01*
X0053607Y0192922D01*
X0053644Y0192810D01*
X0053677Y0192696D01*
X0053706Y0192581D01*
X0053732Y0192466D01*
X0053754Y0192349D01*
X0053771Y0192232D01*
X0053785Y0192115D01*
X0053795Y0191997D01*
X0053801Y0191878D01*
X0053803Y0191760D01*
X0053801Y0191642D01*
X0053795Y0191523D01*
X0053785Y0191405D01*
X0053771Y0191288D01*
X0053754Y0191171D01*
X0053732Y0191054D01*
X0053706Y0190939D01*
X0053677Y0190824D01*
X0053644Y0190710D01*
X0053607Y0190598D01*
X0053566Y0190487D01*
X0053522Y0190377D01*
X0053474Y0190269D01*
X0053422Y0190162D01*
X0053367Y0190057D01*
X0053308Y0189954D01*
X0053246Y0189854D01*
X0053181Y0189755D01*
X0053112Y0189658D01*
X0053041Y0189564D01*
X0052966Y0189473D01*
X0052888Y0189383D01*
X0052807Y0189297D01*
X0052723Y0189213D01*
X0052637Y0189132D01*
X0052547Y0189054D01*
X0052456Y0188979D01*
X0052362Y0188908D01*
X0052265Y0188839D01*
X0052166Y0188774D01*
X0052066Y0188712D01*
X0051963Y0188653D01*
X0051858Y0188598D01*
X0051751Y0188546D01*
X0051643Y0188498D01*
X0051533Y0188454D01*
X0051422Y0188413D01*
X0051310Y0188376D01*
X0051196Y0188343D01*
X0051081Y0188314D01*
X0050966Y0188288D01*
X0050849Y0188266D01*
X0050732Y0188249D01*
X0050615Y0188235D01*
X0050497Y0188225D01*
X0050378Y0188219D01*
X0050260Y0188217D01*
X0050142Y0188219D01*
X0050023Y0188225D01*
X0049905Y0188235D01*
X0049788Y0188249D01*
X0049671Y0188266D01*
X0049554Y0188288D01*
X0049439Y0188314D01*
X0049324Y0188343D01*
X0049210Y0188376D01*
X0049098Y0188413D01*
X0048987Y0188454D01*
X0048877Y0188498D01*
X0048769Y0188546D01*
X0048662Y0188598D01*
X0048557Y0188653D01*
X0048454Y0188712D01*
X0048354Y0188774D01*
X0048255Y0188839D01*
X0048158Y0188908D01*
X0048064Y0188979D01*
X0047973Y0189054D01*
X0047883Y0189132D01*
X0047797Y0189213D01*
X0047713Y0189297D01*
X0047632Y0189383D01*
X0047554Y0189473D01*
X0047479Y0189564D01*
X0047408Y0189658D01*
X0047339Y0189755D01*
X0047274Y0189854D01*
X0047212Y0189954D01*
X0047153Y0190057D01*
X0047098Y0190162D01*
X0047046Y0190269D01*
X0046998Y0190377D01*
X0046954Y0190487D01*
X0046913Y0190598D01*
X0046876Y0190710D01*
X0046843Y0190824D01*
X0046814Y0190939D01*
X0046788Y0191054D01*
X0046766Y0191171D01*
X0046749Y0191288D01*
X0046735Y0191405D01*
X0046725Y0191523D01*
X0046719Y0191642D01*
X0046717Y0191760D01*
X0004087Y0304060D02*
X0004089Y0304191D01*
X0004095Y0304323D01*
X0004105Y0304454D01*
X0004119Y0304585D01*
X0004137Y0304715D01*
X0004159Y0304844D01*
X0004184Y0304973D01*
X0004214Y0305101D01*
X0004248Y0305228D01*
X0004285Y0305355D01*
X0004326Y0305479D01*
X0004371Y0305603D01*
X0004420Y0305725D01*
X0004472Y0305846D01*
X0004528Y0305964D01*
X0004588Y0306082D01*
X0004651Y0306197D01*
X0004718Y0306310D01*
X0004788Y0306422D01*
X0004861Y0306531D01*
X0004937Y0306637D01*
X0005017Y0306742D01*
X0005100Y0306844D01*
X0005186Y0306943D01*
X0005275Y0307040D01*
X0005367Y0307134D01*
X0005462Y0307225D01*
X0005559Y0307314D01*
X0005659Y0307399D01*
X0005762Y0307481D01*
X0005867Y0307560D01*
X0005974Y0307636D01*
X0006084Y0307708D01*
X0006196Y0307777D01*
X0006310Y0307843D01*
X0006425Y0307905D01*
X0006543Y0307964D01*
X0006662Y0308019D01*
X0006783Y0308071D01*
X0006906Y0308118D01*
X0007030Y0308162D01*
X0007155Y0308203D01*
X0007281Y0308239D01*
X0007409Y0308272D01*
X0007537Y0308300D01*
X0007666Y0308325D01*
X0007796Y0308346D01*
X0007926Y0308363D01*
X0008057Y0308376D01*
X0008188Y0308385D01*
X0008319Y0308390D01*
X0008451Y0308391D01*
X0008582Y0308388D01*
X0008714Y0308381D01*
X0008845Y0308370D01*
X0008975Y0308355D01*
X0009105Y0308336D01*
X0009235Y0308313D01*
X0009363Y0308287D01*
X0009491Y0308256D01*
X0009618Y0308221D01*
X0009744Y0308183D01*
X0009868Y0308141D01*
X0009992Y0308095D01*
X0010113Y0308045D01*
X0010233Y0307992D01*
X0010352Y0307935D01*
X0010469Y0307875D01*
X0010583Y0307811D01*
X0010696Y0307743D01*
X0010807Y0307672D01*
X0010916Y0307598D01*
X0011022Y0307521D01*
X0011126Y0307440D01*
X0011227Y0307357D01*
X0011326Y0307270D01*
X0011422Y0307180D01*
X0011515Y0307087D01*
X0011606Y0306992D01*
X0011693Y0306894D01*
X0011778Y0306793D01*
X0011859Y0306690D01*
X0011937Y0306584D01*
X0012012Y0306476D01*
X0012084Y0306366D01*
X0012152Y0306254D01*
X0012217Y0306140D01*
X0012278Y0306023D01*
X0012336Y0305905D01*
X0012390Y0305785D01*
X0012441Y0305664D01*
X0012488Y0305541D01*
X0012531Y0305417D01*
X0012570Y0305292D01*
X0012606Y0305165D01*
X0012637Y0305037D01*
X0012665Y0304909D01*
X0012689Y0304780D01*
X0012709Y0304650D01*
X0012725Y0304519D01*
X0012737Y0304388D01*
X0012745Y0304257D01*
X0012749Y0304126D01*
X0012749Y0303994D01*
X0012745Y0303863D01*
X0012737Y0303732D01*
X0012725Y0303601D01*
X0012709Y0303470D01*
X0012689Y0303340D01*
X0012665Y0303211D01*
X0012637Y0303083D01*
X0012606Y0302955D01*
X0012570Y0302828D01*
X0012531Y0302703D01*
X0012488Y0302579D01*
X0012441Y0302456D01*
X0012390Y0302335D01*
X0012336Y0302215D01*
X0012278Y0302097D01*
X0012217Y0301980D01*
X0012152Y0301866D01*
X0012084Y0301754D01*
X0012012Y0301644D01*
X0011937Y0301536D01*
X0011859Y0301430D01*
X0011778Y0301327D01*
X0011693Y0301226D01*
X0011606Y0301128D01*
X0011515Y0301033D01*
X0011422Y0300940D01*
X0011326Y0300850D01*
X0011227Y0300763D01*
X0011126Y0300680D01*
X0011022Y0300599D01*
X0010916Y0300522D01*
X0010807Y0300448D01*
X0010696Y0300377D01*
X0010584Y0300309D01*
X0010469Y0300245D01*
X0010352Y0300185D01*
X0010233Y0300128D01*
X0010113Y0300075D01*
X0009992Y0300025D01*
X0009868Y0299979D01*
X0009744Y0299937D01*
X0009618Y0299899D01*
X0009491Y0299864D01*
X0009363Y0299833D01*
X0009235Y0299807D01*
X0009105Y0299784D01*
X0008975Y0299765D01*
X0008845Y0299750D01*
X0008714Y0299739D01*
X0008582Y0299732D01*
X0008451Y0299729D01*
X0008319Y0299730D01*
X0008188Y0299735D01*
X0008057Y0299744D01*
X0007926Y0299757D01*
X0007796Y0299774D01*
X0007666Y0299795D01*
X0007537Y0299820D01*
X0007409Y0299848D01*
X0007281Y0299881D01*
X0007155Y0299917D01*
X0007030Y0299958D01*
X0006906Y0300002D01*
X0006783Y0300049D01*
X0006662Y0300101D01*
X0006543Y0300156D01*
X0006425Y0300215D01*
X0006310Y0300277D01*
X0006196Y0300343D01*
X0006084Y0300412D01*
X0005974Y0300484D01*
X0005867Y0300560D01*
X0005762Y0300639D01*
X0005659Y0300721D01*
X0005559Y0300806D01*
X0005462Y0300895D01*
X0005367Y0300986D01*
X0005275Y0301080D01*
X0005186Y0301177D01*
X0005100Y0301276D01*
X0005017Y0301378D01*
X0004937Y0301483D01*
X0004861Y0301589D01*
X0004788Y0301698D01*
X0004718Y0301810D01*
X0004651Y0301923D01*
X0004588Y0302038D01*
X0004528Y0302156D01*
X0004472Y0302274D01*
X0004420Y0302395D01*
X0004371Y0302517D01*
X0004326Y0302641D01*
X0004285Y0302765D01*
X0004248Y0302892D01*
X0004214Y0303019D01*
X0004184Y0303147D01*
X0004159Y0303276D01*
X0004137Y0303405D01*
X0004119Y0303535D01*
X0004105Y0303666D01*
X0004095Y0303797D01*
X0004089Y0303929D01*
X0004087Y0304060D01*
X0004208Y0333630D02*
X0004210Y0333823D01*
X0004217Y0334016D01*
X0004229Y0334209D01*
X0004246Y0334402D01*
X0004267Y0334594D01*
X0004293Y0334785D01*
X0004324Y0334976D01*
X0004359Y0335166D01*
X0004399Y0335355D01*
X0004444Y0335543D01*
X0004493Y0335730D01*
X0004547Y0335916D01*
X0004605Y0336100D01*
X0004668Y0336283D01*
X0004736Y0336464D01*
X0004807Y0336643D01*
X0004884Y0336821D01*
X0004964Y0336997D01*
X0005049Y0337170D01*
X0005138Y0337342D01*
X0005231Y0337511D01*
X0005328Y0337678D01*
X0005430Y0337843D01*
X0005535Y0338005D01*
X0005644Y0338164D01*
X0005758Y0338321D01*
X0005875Y0338474D01*
X0005995Y0338625D01*
X0006120Y0338773D01*
X0006248Y0338918D01*
X0006379Y0339059D01*
X0006514Y0339198D01*
X0006653Y0339333D01*
X0006794Y0339464D01*
X0006939Y0339592D01*
X0007087Y0339717D01*
X0007238Y0339837D01*
X0007391Y0339954D01*
X0007548Y0340068D01*
X0007707Y0340177D01*
X0007869Y0340282D01*
X0008034Y0340384D01*
X0008201Y0340481D01*
X0008370Y0340574D01*
X0008542Y0340663D01*
X0008715Y0340748D01*
X0008891Y0340828D01*
X0009069Y0340905D01*
X0009248Y0340976D01*
X0009429Y0341044D01*
X0009612Y0341107D01*
X0009796Y0341165D01*
X0009982Y0341219D01*
X0010169Y0341268D01*
X0010357Y0341313D01*
X0010546Y0341353D01*
X0010736Y0341388D01*
X0010927Y0341419D01*
X0011118Y0341445D01*
X0011310Y0341466D01*
X0011503Y0341483D01*
X0011696Y0341495D01*
X0011889Y0341502D01*
X0012082Y0341504D01*
X0012275Y0341502D01*
X0012468Y0341495D01*
X0012661Y0341483D01*
X0012854Y0341466D01*
X0013046Y0341445D01*
X0013237Y0341419D01*
X0013428Y0341388D01*
X0013618Y0341353D01*
X0013807Y0341313D01*
X0013995Y0341268D01*
X0014182Y0341219D01*
X0014368Y0341165D01*
X0014552Y0341107D01*
X0014735Y0341044D01*
X0014916Y0340976D01*
X0015095Y0340905D01*
X0015273Y0340828D01*
X0015449Y0340748D01*
X0015622Y0340663D01*
X0015794Y0340574D01*
X0015963Y0340481D01*
X0016130Y0340384D01*
X0016295Y0340282D01*
X0016457Y0340177D01*
X0016616Y0340068D01*
X0016773Y0339954D01*
X0016926Y0339837D01*
X0017077Y0339717D01*
X0017225Y0339592D01*
X0017370Y0339464D01*
X0017511Y0339333D01*
X0017650Y0339198D01*
X0017785Y0339059D01*
X0017916Y0338918D01*
X0018044Y0338773D01*
X0018169Y0338625D01*
X0018289Y0338474D01*
X0018406Y0338321D01*
X0018520Y0338164D01*
X0018629Y0338005D01*
X0018734Y0337843D01*
X0018836Y0337678D01*
X0018933Y0337511D01*
X0019026Y0337342D01*
X0019115Y0337170D01*
X0019200Y0336997D01*
X0019280Y0336821D01*
X0019357Y0336643D01*
X0019428Y0336464D01*
X0019496Y0336283D01*
X0019559Y0336100D01*
X0019617Y0335916D01*
X0019671Y0335730D01*
X0019720Y0335543D01*
X0019765Y0335355D01*
X0019805Y0335166D01*
X0019840Y0334976D01*
X0019871Y0334785D01*
X0019897Y0334594D01*
X0019918Y0334402D01*
X0019935Y0334209D01*
X0019947Y0334016D01*
X0019954Y0333823D01*
X0019956Y0333630D01*
X0019954Y0333437D01*
X0019947Y0333244D01*
X0019935Y0333051D01*
X0019918Y0332858D01*
X0019897Y0332666D01*
X0019871Y0332475D01*
X0019840Y0332284D01*
X0019805Y0332094D01*
X0019765Y0331905D01*
X0019720Y0331717D01*
X0019671Y0331530D01*
X0019617Y0331344D01*
X0019559Y0331160D01*
X0019496Y0330977D01*
X0019428Y0330796D01*
X0019357Y0330617D01*
X0019280Y0330439D01*
X0019200Y0330263D01*
X0019115Y0330090D01*
X0019026Y0329918D01*
X0018933Y0329749D01*
X0018836Y0329582D01*
X0018734Y0329417D01*
X0018629Y0329255D01*
X0018520Y0329096D01*
X0018406Y0328939D01*
X0018289Y0328786D01*
X0018169Y0328635D01*
X0018044Y0328487D01*
X0017916Y0328342D01*
X0017785Y0328201D01*
X0017650Y0328062D01*
X0017511Y0327927D01*
X0017370Y0327796D01*
X0017225Y0327668D01*
X0017077Y0327543D01*
X0016926Y0327423D01*
X0016773Y0327306D01*
X0016616Y0327192D01*
X0016457Y0327083D01*
X0016295Y0326978D01*
X0016130Y0326876D01*
X0015963Y0326779D01*
X0015794Y0326686D01*
X0015622Y0326597D01*
X0015449Y0326512D01*
X0015273Y0326432D01*
X0015095Y0326355D01*
X0014916Y0326284D01*
X0014735Y0326216D01*
X0014552Y0326153D01*
X0014368Y0326095D01*
X0014182Y0326041D01*
X0013995Y0325992D01*
X0013807Y0325947D01*
X0013618Y0325907D01*
X0013428Y0325872D01*
X0013237Y0325841D01*
X0013046Y0325815D01*
X0012854Y0325794D01*
X0012661Y0325777D01*
X0012468Y0325765D01*
X0012275Y0325758D01*
X0012082Y0325756D01*
X0011889Y0325758D01*
X0011696Y0325765D01*
X0011503Y0325777D01*
X0011310Y0325794D01*
X0011118Y0325815D01*
X0010927Y0325841D01*
X0010736Y0325872D01*
X0010546Y0325907D01*
X0010357Y0325947D01*
X0010169Y0325992D01*
X0009982Y0326041D01*
X0009796Y0326095D01*
X0009612Y0326153D01*
X0009429Y0326216D01*
X0009248Y0326284D01*
X0009069Y0326355D01*
X0008891Y0326432D01*
X0008715Y0326512D01*
X0008542Y0326597D01*
X0008370Y0326686D01*
X0008201Y0326779D01*
X0008034Y0326876D01*
X0007869Y0326978D01*
X0007707Y0327083D01*
X0007548Y0327192D01*
X0007391Y0327306D01*
X0007238Y0327423D01*
X0007087Y0327543D01*
X0006939Y0327668D01*
X0006794Y0327796D01*
X0006653Y0327927D01*
X0006514Y0328062D01*
X0006379Y0328201D01*
X0006248Y0328342D01*
X0006120Y0328487D01*
X0005995Y0328635D01*
X0005875Y0328786D01*
X0005758Y0328939D01*
X0005644Y0329096D01*
X0005535Y0329255D01*
X0005430Y0329417D01*
X0005328Y0329582D01*
X0005231Y0329749D01*
X0005138Y0329918D01*
X0005049Y0330090D01*
X0004964Y0330263D01*
X0004884Y0330439D01*
X0004807Y0330617D01*
X0004736Y0330796D01*
X0004668Y0330977D01*
X0004605Y0331160D01*
X0004547Y0331344D01*
X0004493Y0331530D01*
X0004444Y0331717D01*
X0004399Y0331905D01*
X0004359Y0332094D01*
X0004324Y0332284D01*
X0004293Y0332475D01*
X0004267Y0332666D01*
X0004246Y0332858D01*
X0004229Y0333051D01*
X0004217Y0333244D01*
X0004210Y0333437D01*
X0004208Y0333630D01*
X0051485Y0367674D02*
X0051487Y0367805D01*
X0051493Y0367937D01*
X0051503Y0368068D01*
X0051517Y0368199D01*
X0051535Y0368329D01*
X0051557Y0368458D01*
X0051582Y0368587D01*
X0051612Y0368715D01*
X0051646Y0368842D01*
X0051683Y0368969D01*
X0051724Y0369093D01*
X0051769Y0369217D01*
X0051818Y0369339D01*
X0051870Y0369460D01*
X0051926Y0369578D01*
X0051986Y0369696D01*
X0052049Y0369811D01*
X0052116Y0369924D01*
X0052186Y0370036D01*
X0052259Y0370145D01*
X0052335Y0370251D01*
X0052415Y0370356D01*
X0052498Y0370458D01*
X0052584Y0370557D01*
X0052673Y0370654D01*
X0052765Y0370748D01*
X0052860Y0370839D01*
X0052957Y0370928D01*
X0053057Y0371013D01*
X0053160Y0371095D01*
X0053265Y0371174D01*
X0053372Y0371250D01*
X0053482Y0371322D01*
X0053594Y0371391D01*
X0053708Y0371457D01*
X0053823Y0371519D01*
X0053941Y0371578D01*
X0054060Y0371633D01*
X0054181Y0371685D01*
X0054304Y0371732D01*
X0054428Y0371776D01*
X0054553Y0371817D01*
X0054679Y0371853D01*
X0054807Y0371886D01*
X0054935Y0371914D01*
X0055064Y0371939D01*
X0055194Y0371960D01*
X0055324Y0371977D01*
X0055455Y0371990D01*
X0055586Y0371999D01*
X0055717Y0372004D01*
X0055849Y0372005D01*
X0055980Y0372002D01*
X0056112Y0371995D01*
X0056243Y0371984D01*
X0056373Y0371969D01*
X0056503Y0371950D01*
X0056633Y0371927D01*
X0056761Y0371901D01*
X0056889Y0371870D01*
X0057016Y0371835D01*
X0057142Y0371797D01*
X0057266Y0371755D01*
X0057390Y0371709D01*
X0057511Y0371659D01*
X0057631Y0371606D01*
X0057750Y0371549D01*
X0057867Y0371489D01*
X0057981Y0371425D01*
X0058094Y0371357D01*
X0058205Y0371286D01*
X0058314Y0371212D01*
X0058420Y0371135D01*
X0058524Y0371054D01*
X0058625Y0370971D01*
X0058724Y0370884D01*
X0058820Y0370794D01*
X0058913Y0370701D01*
X0059004Y0370606D01*
X0059091Y0370508D01*
X0059176Y0370407D01*
X0059257Y0370304D01*
X0059335Y0370198D01*
X0059410Y0370090D01*
X0059482Y0369980D01*
X0059550Y0369868D01*
X0059615Y0369754D01*
X0059676Y0369637D01*
X0059734Y0369519D01*
X0059788Y0369399D01*
X0059839Y0369278D01*
X0059886Y0369155D01*
X0059929Y0369031D01*
X0059968Y0368906D01*
X0060004Y0368779D01*
X0060035Y0368651D01*
X0060063Y0368523D01*
X0060087Y0368394D01*
X0060107Y0368264D01*
X0060123Y0368133D01*
X0060135Y0368002D01*
X0060143Y0367871D01*
X0060147Y0367740D01*
X0060147Y0367608D01*
X0060143Y0367477D01*
X0060135Y0367346D01*
X0060123Y0367215D01*
X0060107Y0367084D01*
X0060087Y0366954D01*
X0060063Y0366825D01*
X0060035Y0366697D01*
X0060004Y0366569D01*
X0059968Y0366442D01*
X0059929Y0366317D01*
X0059886Y0366193D01*
X0059839Y0366070D01*
X0059788Y0365949D01*
X0059734Y0365829D01*
X0059676Y0365711D01*
X0059615Y0365594D01*
X0059550Y0365480D01*
X0059482Y0365368D01*
X0059410Y0365258D01*
X0059335Y0365150D01*
X0059257Y0365044D01*
X0059176Y0364941D01*
X0059091Y0364840D01*
X0059004Y0364742D01*
X0058913Y0364647D01*
X0058820Y0364554D01*
X0058724Y0364464D01*
X0058625Y0364377D01*
X0058524Y0364294D01*
X0058420Y0364213D01*
X0058314Y0364136D01*
X0058205Y0364062D01*
X0058094Y0363991D01*
X0057982Y0363923D01*
X0057867Y0363859D01*
X0057750Y0363799D01*
X0057631Y0363742D01*
X0057511Y0363689D01*
X0057390Y0363639D01*
X0057266Y0363593D01*
X0057142Y0363551D01*
X0057016Y0363513D01*
X0056889Y0363478D01*
X0056761Y0363447D01*
X0056633Y0363421D01*
X0056503Y0363398D01*
X0056373Y0363379D01*
X0056243Y0363364D01*
X0056112Y0363353D01*
X0055980Y0363346D01*
X0055849Y0363343D01*
X0055717Y0363344D01*
X0055586Y0363349D01*
X0055455Y0363358D01*
X0055324Y0363371D01*
X0055194Y0363388D01*
X0055064Y0363409D01*
X0054935Y0363434D01*
X0054807Y0363462D01*
X0054679Y0363495D01*
X0054553Y0363531D01*
X0054428Y0363572D01*
X0054304Y0363616D01*
X0054181Y0363663D01*
X0054060Y0363715D01*
X0053941Y0363770D01*
X0053823Y0363829D01*
X0053708Y0363891D01*
X0053594Y0363957D01*
X0053482Y0364026D01*
X0053372Y0364098D01*
X0053265Y0364174D01*
X0053160Y0364253D01*
X0053057Y0364335D01*
X0052957Y0364420D01*
X0052860Y0364509D01*
X0052765Y0364600D01*
X0052673Y0364694D01*
X0052584Y0364791D01*
X0052498Y0364890D01*
X0052415Y0364992D01*
X0052335Y0365097D01*
X0052259Y0365203D01*
X0052186Y0365312D01*
X0052116Y0365424D01*
X0052049Y0365537D01*
X0051986Y0365652D01*
X0051926Y0365770D01*
X0051870Y0365888D01*
X0051818Y0366009D01*
X0051769Y0366131D01*
X0051724Y0366255D01*
X0051683Y0366379D01*
X0051646Y0366506D01*
X0051612Y0366633D01*
X0051582Y0366761D01*
X0051557Y0366890D01*
X0051535Y0367019D01*
X0051517Y0367149D01*
X0051503Y0367280D01*
X0051493Y0367411D01*
X0051487Y0367543D01*
X0051485Y0367674D01*
X0061132Y0364270D02*
X0061134Y0364463D01*
X0061141Y0364656D01*
X0061153Y0364849D01*
X0061170Y0365042D01*
X0061191Y0365234D01*
X0061217Y0365425D01*
X0061248Y0365616D01*
X0061283Y0365806D01*
X0061323Y0365995D01*
X0061368Y0366183D01*
X0061417Y0366370D01*
X0061471Y0366556D01*
X0061529Y0366740D01*
X0061592Y0366923D01*
X0061660Y0367104D01*
X0061731Y0367283D01*
X0061808Y0367461D01*
X0061888Y0367637D01*
X0061973Y0367810D01*
X0062062Y0367982D01*
X0062155Y0368151D01*
X0062252Y0368318D01*
X0062354Y0368483D01*
X0062459Y0368645D01*
X0062568Y0368804D01*
X0062682Y0368961D01*
X0062799Y0369114D01*
X0062919Y0369265D01*
X0063044Y0369413D01*
X0063172Y0369558D01*
X0063303Y0369699D01*
X0063438Y0369838D01*
X0063577Y0369973D01*
X0063718Y0370104D01*
X0063863Y0370232D01*
X0064011Y0370357D01*
X0064162Y0370477D01*
X0064315Y0370594D01*
X0064472Y0370708D01*
X0064631Y0370817D01*
X0064793Y0370922D01*
X0064958Y0371024D01*
X0065125Y0371121D01*
X0065294Y0371214D01*
X0065466Y0371303D01*
X0065639Y0371388D01*
X0065815Y0371468D01*
X0065993Y0371545D01*
X0066172Y0371616D01*
X0066353Y0371684D01*
X0066536Y0371747D01*
X0066720Y0371805D01*
X0066906Y0371859D01*
X0067093Y0371908D01*
X0067281Y0371953D01*
X0067470Y0371993D01*
X0067660Y0372028D01*
X0067851Y0372059D01*
X0068042Y0372085D01*
X0068234Y0372106D01*
X0068427Y0372123D01*
X0068620Y0372135D01*
X0068813Y0372142D01*
X0069006Y0372144D01*
X0069199Y0372142D01*
X0069392Y0372135D01*
X0069585Y0372123D01*
X0069778Y0372106D01*
X0069970Y0372085D01*
X0070161Y0372059D01*
X0070352Y0372028D01*
X0070542Y0371993D01*
X0070731Y0371953D01*
X0070919Y0371908D01*
X0071106Y0371859D01*
X0071292Y0371805D01*
X0071476Y0371747D01*
X0071659Y0371684D01*
X0071840Y0371616D01*
X0072019Y0371545D01*
X0072197Y0371468D01*
X0072373Y0371388D01*
X0072546Y0371303D01*
X0072718Y0371214D01*
X0072887Y0371121D01*
X0073054Y0371024D01*
X0073219Y0370922D01*
X0073381Y0370817D01*
X0073540Y0370708D01*
X0073697Y0370594D01*
X0073850Y0370477D01*
X0074001Y0370357D01*
X0074149Y0370232D01*
X0074294Y0370104D01*
X0074435Y0369973D01*
X0074574Y0369838D01*
X0074709Y0369699D01*
X0074840Y0369558D01*
X0074968Y0369413D01*
X0075093Y0369265D01*
X0075213Y0369114D01*
X0075330Y0368961D01*
X0075444Y0368804D01*
X0075553Y0368645D01*
X0075658Y0368483D01*
X0075760Y0368318D01*
X0075857Y0368151D01*
X0075950Y0367982D01*
X0076039Y0367810D01*
X0076124Y0367637D01*
X0076204Y0367461D01*
X0076281Y0367283D01*
X0076352Y0367104D01*
X0076420Y0366923D01*
X0076483Y0366740D01*
X0076541Y0366556D01*
X0076595Y0366370D01*
X0076644Y0366183D01*
X0076689Y0365995D01*
X0076729Y0365806D01*
X0076764Y0365616D01*
X0076795Y0365425D01*
X0076821Y0365234D01*
X0076842Y0365042D01*
X0076859Y0364849D01*
X0076871Y0364656D01*
X0076878Y0364463D01*
X0076880Y0364270D01*
X0076878Y0364077D01*
X0076871Y0363884D01*
X0076859Y0363691D01*
X0076842Y0363498D01*
X0076821Y0363306D01*
X0076795Y0363115D01*
X0076764Y0362924D01*
X0076729Y0362734D01*
X0076689Y0362545D01*
X0076644Y0362357D01*
X0076595Y0362170D01*
X0076541Y0361984D01*
X0076483Y0361800D01*
X0076420Y0361617D01*
X0076352Y0361436D01*
X0076281Y0361257D01*
X0076204Y0361079D01*
X0076124Y0360903D01*
X0076039Y0360730D01*
X0075950Y0360558D01*
X0075857Y0360389D01*
X0075760Y0360222D01*
X0075658Y0360057D01*
X0075553Y0359895D01*
X0075444Y0359736D01*
X0075330Y0359579D01*
X0075213Y0359426D01*
X0075093Y0359275D01*
X0074968Y0359127D01*
X0074840Y0358982D01*
X0074709Y0358841D01*
X0074574Y0358702D01*
X0074435Y0358567D01*
X0074294Y0358436D01*
X0074149Y0358308D01*
X0074001Y0358183D01*
X0073850Y0358063D01*
X0073697Y0357946D01*
X0073540Y0357832D01*
X0073381Y0357723D01*
X0073219Y0357618D01*
X0073054Y0357516D01*
X0072887Y0357419D01*
X0072718Y0357326D01*
X0072546Y0357237D01*
X0072373Y0357152D01*
X0072197Y0357072D01*
X0072019Y0356995D01*
X0071840Y0356924D01*
X0071659Y0356856D01*
X0071476Y0356793D01*
X0071292Y0356735D01*
X0071106Y0356681D01*
X0070919Y0356632D01*
X0070731Y0356587D01*
X0070542Y0356547D01*
X0070352Y0356512D01*
X0070161Y0356481D01*
X0069970Y0356455D01*
X0069778Y0356434D01*
X0069585Y0356417D01*
X0069392Y0356405D01*
X0069199Y0356398D01*
X0069006Y0356396D01*
X0068813Y0356398D01*
X0068620Y0356405D01*
X0068427Y0356417D01*
X0068234Y0356434D01*
X0068042Y0356455D01*
X0067851Y0356481D01*
X0067660Y0356512D01*
X0067470Y0356547D01*
X0067281Y0356587D01*
X0067093Y0356632D01*
X0066906Y0356681D01*
X0066720Y0356735D01*
X0066536Y0356793D01*
X0066353Y0356856D01*
X0066172Y0356924D01*
X0065993Y0356995D01*
X0065815Y0357072D01*
X0065639Y0357152D01*
X0065466Y0357237D01*
X0065294Y0357326D01*
X0065125Y0357419D01*
X0064958Y0357516D01*
X0064793Y0357618D01*
X0064631Y0357723D01*
X0064472Y0357832D01*
X0064315Y0357946D01*
X0064162Y0358063D01*
X0064011Y0358183D01*
X0063863Y0358308D01*
X0063718Y0358436D01*
X0063577Y0358567D01*
X0063438Y0358702D01*
X0063303Y0358841D01*
X0063172Y0358982D01*
X0063044Y0359127D01*
X0062919Y0359275D01*
X0062799Y0359426D01*
X0062682Y0359579D01*
X0062568Y0359736D01*
X0062459Y0359895D01*
X0062354Y0360057D01*
X0062252Y0360222D01*
X0062155Y0360389D01*
X0062062Y0360558D01*
X0061973Y0360730D01*
X0061888Y0360903D01*
X0061808Y0361079D01*
X0061731Y0361257D01*
X0061660Y0361436D01*
X0061592Y0361617D01*
X0061529Y0361800D01*
X0061471Y0361984D01*
X0061417Y0362170D01*
X0061368Y0362357D01*
X0061323Y0362545D01*
X0061283Y0362734D01*
X0061248Y0362924D01*
X0061217Y0363115D01*
X0061191Y0363306D01*
X0061170Y0363498D01*
X0061153Y0363691D01*
X0061141Y0363884D01*
X0061134Y0364077D01*
X0061132Y0364270D01*
X0301318Y0364148D02*
X0301320Y0364341D01*
X0301327Y0364534D01*
X0301339Y0364727D01*
X0301356Y0364920D01*
X0301377Y0365112D01*
X0301403Y0365303D01*
X0301434Y0365494D01*
X0301469Y0365684D01*
X0301509Y0365873D01*
X0301554Y0366061D01*
X0301603Y0366248D01*
X0301657Y0366434D01*
X0301715Y0366618D01*
X0301778Y0366801D01*
X0301846Y0366982D01*
X0301917Y0367161D01*
X0301994Y0367339D01*
X0302074Y0367515D01*
X0302159Y0367688D01*
X0302248Y0367860D01*
X0302341Y0368029D01*
X0302438Y0368196D01*
X0302540Y0368361D01*
X0302645Y0368523D01*
X0302754Y0368682D01*
X0302868Y0368839D01*
X0302985Y0368992D01*
X0303105Y0369143D01*
X0303230Y0369291D01*
X0303358Y0369436D01*
X0303489Y0369577D01*
X0303624Y0369716D01*
X0303763Y0369851D01*
X0303904Y0369982D01*
X0304049Y0370110D01*
X0304197Y0370235D01*
X0304348Y0370355D01*
X0304501Y0370472D01*
X0304658Y0370586D01*
X0304817Y0370695D01*
X0304979Y0370800D01*
X0305144Y0370902D01*
X0305311Y0370999D01*
X0305480Y0371092D01*
X0305652Y0371181D01*
X0305825Y0371266D01*
X0306001Y0371346D01*
X0306179Y0371423D01*
X0306358Y0371494D01*
X0306539Y0371562D01*
X0306722Y0371625D01*
X0306906Y0371683D01*
X0307092Y0371737D01*
X0307279Y0371786D01*
X0307467Y0371831D01*
X0307656Y0371871D01*
X0307846Y0371906D01*
X0308037Y0371937D01*
X0308228Y0371963D01*
X0308420Y0371984D01*
X0308613Y0372001D01*
X0308806Y0372013D01*
X0308999Y0372020D01*
X0309192Y0372022D01*
X0309385Y0372020D01*
X0309578Y0372013D01*
X0309771Y0372001D01*
X0309964Y0371984D01*
X0310156Y0371963D01*
X0310347Y0371937D01*
X0310538Y0371906D01*
X0310728Y0371871D01*
X0310917Y0371831D01*
X0311105Y0371786D01*
X0311292Y0371737D01*
X0311478Y0371683D01*
X0311662Y0371625D01*
X0311845Y0371562D01*
X0312026Y0371494D01*
X0312205Y0371423D01*
X0312383Y0371346D01*
X0312559Y0371266D01*
X0312732Y0371181D01*
X0312904Y0371092D01*
X0313073Y0370999D01*
X0313240Y0370902D01*
X0313405Y0370800D01*
X0313567Y0370695D01*
X0313726Y0370586D01*
X0313883Y0370472D01*
X0314036Y0370355D01*
X0314187Y0370235D01*
X0314335Y0370110D01*
X0314480Y0369982D01*
X0314621Y0369851D01*
X0314760Y0369716D01*
X0314895Y0369577D01*
X0315026Y0369436D01*
X0315154Y0369291D01*
X0315279Y0369143D01*
X0315399Y0368992D01*
X0315516Y0368839D01*
X0315630Y0368682D01*
X0315739Y0368523D01*
X0315844Y0368361D01*
X0315946Y0368196D01*
X0316043Y0368029D01*
X0316136Y0367860D01*
X0316225Y0367688D01*
X0316310Y0367515D01*
X0316390Y0367339D01*
X0316467Y0367161D01*
X0316538Y0366982D01*
X0316606Y0366801D01*
X0316669Y0366618D01*
X0316727Y0366434D01*
X0316781Y0366248D01*
X0316830Y0366061D01*
X0316875Y0365873D01*
X0316915Y0365684D01*
X0316950Y0365494D01*
X0316981Y0365303D01*
X0317007Y0365112D01*
X0317028Y0364920D01*
X0317045Y0364727D01*
X0317057Y0364534D01*
X0317064Y0364341D01*
X0317066Y0364148D01*
X0317064Y0363955D01*
X0317057Y0363762D01*
X0317045Y0363569D01*
X0317028Y0363376D01*
X0317007Y0363184D01*
X0316981Y0362993D01*
X0316950Y0362802D01*
X0316915Y0362612D01*
X0316875Y0362423D01*
X0316830Y0362235D01*
X0316781Y0362048D01*
X0316727Y0361862D01*
X0316669Y0361678D01*
X0316606Y0361495D01*
X0316538Y0361314D01*
X0316467Y0361135D01*
X0316390Y0360957D01*
X0316310Y0360781D01*
X0316225Y0360608D01*
X0316136Y0360436D01*
X0316043Y0360267D01*
X0315946Y0360100D01*
X0315844Y0359935D01*
X0315739Y0359773D01*
X0315630Y0359614D01*
X0315516Y0359457D01*
X0315399Y0359304D01*
X0315279Y0359153D01*
X0315154Y0359005D01*
X0315026Y0358860D01*
X0314895Y0358719D01*
X0314760Y0358580D01*
X0314621Y0358445D01*
X0314480Y0358314D01*
X0314335Y0358186D01*
X0314187Y0358061D01*
X0314036Y0357941D01*
X0313883Y0357824D01*
X0313726Y0357710D01*
X0313567Y0357601D01*
X0313405Y0357496D01*
X0313240Y0357394D01*
X0313073Y0357297D01*
X0312904Y0357204D01*
X0312732Y0357115D01*
X0312559Y0357030D01*
X0312383Y0356950D01*
X0312205Y0356873D01*
X0312026Y0356802D01*
X0311845Y0356734D01*
X0311662Y0356671D01*
X0311478Y0356613D01*
X0311292Y0356559D01*
X0311105Y0356510D01*
X0310917Y0356465D01*
X0310728Y0356425D01*
X0310538Y0356390D01*
X0310347Y0356359D01*
X0310156Y0356333D01*
X0309964Y0356312D01*
X0309771Y0356295D01*
X0309578Y0356283D01*
X0309385Y0356276D01*
X0309192Y0356274D01*
X0308999Y0356276D01*
X0308806Y0356283D01*
X0308613Y0356295D01*
X0308420Y0356312D01*
X0308228Y0356333D01*
X0308037Y0356359D01*
X0307846Y0356390D01*
X0307656Y0356425D01*
X0307467Y0356465D01*
X0307279Y0356510D01*
X0307092Y0356559D01*
X0306906Y0356613D01*
X0306722Y0356671D01*
X0306539Y0356734D01*
X0306358Y0356802D01*
X0306179Y0356873D01*
X0306001Y0356950D01*
X0305825Y0357030D01*
X0305652Y0357115D01*
X0305480Y0357204D01*
X0305311Y0357297D01*
X0305144Y0357394D01*
X0304979Y0357496D01*
X0304817Y0357601D01*
X0304658Y0357710D01*
X0304501Y0357824D01*
X0304348Y0357941D01*
X0304197Y0358061D01*
X0304049Y0358186D01*
X0303904Y0358314D01*
X0303763Y0358445D01*
X0303624Y0358580D01*
X0303489Y0358719D01*
X0303358Y0358860D01*
X0303230Y0359005D01*
X0303105Y0359153D01*
X0302985Y0359304D01*
X0302868Y0359457D01*
X0302754Y0359614D01*
X0302645Y0359773D01*
X0302540Y0359935D01*
X0302438Y0360100D01*
X0302341Y0360267D01*
X0302248Y0360436D01*
X0302159Y0360608D01*
X0302074Y0360781D01*
X0301994Y0360957D01*
X0301917Y0361135D01*
X0301846Y0361314D01*
X0301778Y0361495D01*
X0301715Y0361678D01*
X0301657Y0361862D01*
X0301603Y0362048D01*
X0301554Y0362235D01*
X0301509Y0362423D01*
X0301469Y0362612D01*
X0301434Y0362802D01*
X0301403Y0362993D01*
X0301377Y0363184D01*
X0301356Y0363376D01*
X0301339Y0363569D01*
X0301327Y0363762D01*
X0301320Y0363955D01*
X0301318Y0364148D01*
X0323181Y0367763D02*
X0323183Y0367894D01*
X0323189Y0368026D01*
X0323199Y0368157D01*
X0323213Y0368288D01*
X0323231Y0368418D01*
X0323253Y0368547D01*
X0323278Y0368676D01*
X0323308Y0368804D01*
X0323342Y0368931D01*
X0323379Y0369058D01*
X0323420Y0369182D01*
X0323465Y0369306D01*
X0323514Y0369428D01*
X0323566Y0369549D01*
X0323622Y0369667D01*
X0323682Y0369785D01*
X0323745Y0369900D01*
X0323812Y0370013D01*
X0323882Y0370125D01*
X0323955Y0370234D01*
X0324031Y0370340D01*
X0324111Y0370445D01*
X0324194Y0370547D01*
X0324280Y0370646D01*
X0324369Y0370743D01*
X0324461Y0370837D01*
X0324556Y0370928D01*
X0324653Y0371017D01*
X0324753Y0371102D01*
X0324856Y0371184D01*
X0324961Y0371263D01*
X0325068Y0371339D01*
X0325178Y0371411D01*
X0325290Y0371480D01*
X0325404Y0371546D01*
X0325519Y0371608D01*
X0325637Y0371667D01*
X0325756Y0371722D01*
X0325877Y0371774D01*
X0326000Y0371821D01*
X0326124Y0371865D01*
X0326249Y0371906D01*
X0326375Y0371942D01*
X0326503Y0371975D01*
X0326631Y0372003D01*
X0326760Y0372028D01*
X0326890Y0372049D01*
X0327020Y0372066D01*
X0327151Y0372079D01*
X0327282Y0372088D01*
X0327413Y0372093D01*
X0327545Y0372094D01*
X0327676Y0372091D01*
X0327808Y0372084D01*
X0327939Y0372073D01*
X0328069Y0372058D01*
X0328199Y0372039D01*
X0328329Y0372016D01*
X0328457Y0371990D01*
X0328585Y0371959D01*
X0328712Y0371924D01*
X0328838Y0371886D01*
X0328962Y0371844D01*
X0329086Y0371798D01*
X0329207Y0371748D01*
X0329327Y0371695D01*
X0329446Y0371638D01*
X0329563Y0371578D01*
X0329677Y0371514D01*
X0329790Y0371446D01*
X0329901Y0371375D01*
X0330010Y0371301D01*
X0330116Y0371224D01*
X0330220Y0371143D01*
X0330321Y0371060D01*
X0330420Y0370973D01*
X0330516Y0370883D01*
X0330609Y0370790D01*
X0330700Y0370695D01*
X0330787Y0370597D01*
X0330872Y0370496D01*
X0330953Y0370393D01*
X0331031Y0370287D01*
X0331106Y0370179D01*
X0331178Y0370069D01*
X0331246Y0369957D01*
X0331311Y0369843D01*
X0331372Y0369726D01*
X0331430Y0369608D01*
X0331484Y0369488D01*
X0331535Y0369367D01*
X0331582Y0369244D01*
X0331625Y0369120D01*
X0331664Y0368995D01*
X0331700Y0368868D01*
X0331731Y0368740D01*
X0331759Y0368612D01*
X0331783Y0368483D01*
X0331803Y0368353D01*
X0331819Y0368222D01*
X0331831Y0368091D01*
X0331839Y0367960D01*
X0331843Y0367829D01*
X0331843Y0367697D01*
X0331839Y0367566D01*
X0331831Y0367435D01*
X0331819Y0367304D01*
X0331803Y0367173D01*
X0331783Y0367043D01*
X0331759Y0366914D01*
X0331731Y0366786D01*
X0331700Y0366658D01*
X0331664Y0366531D01*
X0331625Y0366406D01*
X0331582Y0366282D01*
X0331535Y0366159D01*
X0331484Y0366038D01*
X0331430Y0365918D01*
X0331372Y0365800D01*
X0331311Y0365683D01*
X0331246Y0365569D01*
X0331178Y0365457D01*
X0331106Y0365347D01*
X0331031Y0365239D01*
X0330953Y0365133D01*
X0330872Y0365030D01*
X0330787Y0364929D01*
X0330700Y0364831D01*
X0330609Y0364736D01*
X0330516Y0364643D01*
X0330420Y0364553D01*
X0330321Y0364466D01*
X0330220Y0364383D01*
X0330116Y0364302D01*
X0330010Y0364225D01*
X0329901Y0364151D01*
X0329790Y0364080D01*
X0329678Y0364012D01*
X0329563Y0363948D01*
X0329446Y0363888D01*
X0329327Y0363831D01*
X0329207Y0363778D01*
X0329086Y0363728D01*
X0328962Y0363682D01*
X0328838Y0363640D01*
X0328712Y0363602D01*
X0328585Y0363567D01*
X0328457Y0363536D01*
X0328329Y0363510D01*
X0328199Y0363487D01*
X0328069Y0363468D01*
X0327939Y0363453D01*
X0327808Y0363442D01*
X0327676Y0363435D01*
X0327545Y0363432D01*
X0327413Y0363433D01*
X0327282Y0363438D01*
X0327151Y0363447D01*
X0327020Y0363460D01*
X0326890Y0363477D01*
X0326760Y0363498D01*
X0326631Y0363523D01*
X0326503Y0363551D01*
X0326375Y0363584D01*
X0326249Y0363620D01*
X0326124Y0363661D01*
X0326000Y0363705D01*
X0325877Y0363752D01*
X0325756Y0363804D01*
X0325637Y0363859D01*
X0325519Y0363918D01*
X0325404Y0363980D01*
X0325290Y0364046D01*
X0325178Y0364115D01*
X0325068Y0364187D01*
X0324961Y0364263D01*
X0324856Y0364342D01*
X0324753Y0364424D01*
X0324653Y0364509D01*
X0324556Y0364598D01*
X0324461Y0364689D01*
X0324369Y0364783D01*
X0324280Y0364880D01*
X0324194Y0364979D01*
X0324111Y0365081D01*
X0324031Y0365186D01*
X0323955Y0365292D01*
X0323882Y0365401D01*
X0323812Y0365513D01*
X0323745Y0365626D01*
X0323682Y0365741D01*
X0323622Y0365859D01*
X0323566Y0365977D01*
X0323514Y0366098D01*
X0323465Y0366220D01*
X0323420Y0366344D01*
X0323379Y0366468D01*
X0323342Y0366595D01*
X0323308Y0366722D01*
X0323278Y0366850D01*
X0323253Y0366979D01*
X0323231Y0367108D01*
X0323213Y0367238D01*
X0323199Y0367369D01*
X0323189Y0367500D01*
X0323183Y0367632D01*
X0323181Y0367763D01*
X0358256Y0333596D02*
X0358258Y0333789D01*
X0358265Y0333982D01*
X0358277Y0334175D01*
X0358294Y0334368D01*
X0358315Y0334560D01*
X0358341Y0334751D01*
X0358372Y0334942D01*
X0358407Y0335132D01*
X0358447Y0335321D01*
X0358492Y0335509D01*
X0358541Y0335696D01*
X0358595Y0335882D01*
X0358653Y0336066D01*
X0358716Y0336249D01*
X0358784Y0336430D01*
X0358855Y0336609D01*
X0358932Y0336787D01*
X0359012Y0336963D01*
X0359097Y0337136D01*
X0359186Y0337308D01*
X0359279Y0337477D01*
X0359376Y0337644D01*
X0359478Y0337809D01*
X0359583Y0337971D01*
X0359692Y0338130D01*
X0359806Y0338287D01*
X0359923Y0338440D01*
X0360043Y0338591D01*
X0360168Y0338739D01*
X0360296Y0338884D01*
X0360427Y0339025D01*
X0360562Y0339164D01*
X0360701Y0339299D01*
X0360842Y0339430D01*
X0360987Y0339558D01*
X0361135Y0339683D01*
X0361286Y0339803D01*
X0361439Y0339920D01*
X0361596Y0340034D01*
X0361755Y0340143D01*
X0361917Y0340248D01*
X0362082Y0340350D01*
X0362249Y0340447D01*
X0362418Y0340540D01*
X0362590Y0340629D01*
X0362763Y0340714D01*
X0362939Y0340794D01*
X0363117Y0340871D01*
X0363296Y0340942D01*
X0363477Y0341010D01*
X0363660Y0341073D01*
X0363844Y0341131D01*
X0364030Y0341185D01*
X0364217Y0341234D01*
X0364405Y0341279D01*
X0364594Y0341319D01*
X0364784Y0341354D01*
X0364975Y0341385D01*
X0365166Y0341411D01*
X0365358Y0341432D01*
X0365551Y0341449D01*
X0365744Y0341461D01*
X0365937Y0341468D01*
X0366130Y0341470D01*
X0366323Y0341468D01*
X0366516Y0341461D01*
X0366709Y0341449D01*
X0366902Y0341432D01*
X0367094Y0341411D01*
X0367285Y0341385D01*
X0367476Y0341354D01*
X0367666Y0341319D01*
X0367855Y0341279D01*
X0368043Y0341234D01*
X0368230Y0341185D01*
X0368416Y0341131D01*
X0368600Y0341073D01*
X0368783Y0341010D01*
X0368964Y0340942D01*
X0369143Y0340871D01*
X0369321Y0340794D01*
X0369497Y0340714D01*
X0369670Y0340629D01*
X0369842Y0340540D01*
X0370011Y0340447D01*
X0370178Y0340350D01*
X0370343Y0340248D01*
X0370505Y0340143D01*
X0370664Y0340034D01*
X0370821Y0339920D01*
X0370974Y0339803D01*
X0371125Y0339683D01*
X0371273Y0339558D01*
X0371418Y0339430D01*
X0371559Y0339299D01*
X0371698Y0339164D01*
X0371833Y0339025D01*
X0371964Y0338884D01*
X0372092Y0338739D01*
X0372217Y0338591D01*
X0372337Y0338440D01*
X0372454Y0338287D01*
X0372568Y0338130D01*
X0372677Y0337971D01*
X0372782Y0337809D01*
X0372884Y0337644D01*
X0372981Y0337477D01*
X0373074Y0337308D01*
X0373163Y0337136D01*
X0373248Y0336963D01*
X0373328Y0336787D01*
X0373405Y0336609D01*
X0373476Y0336430D01*
X0373544Y0336249D01*
X0373607Y0336066D01*
X0373665Y0335882D01*
X0373719Y0335696D01*
X0373768Y0335509D01*
X0373813Y0335321D01*
X0373853Y0335132D01*
X0373888Y0334942D01*
X0373919Y0334751D01*
X0373945Y0334560D01*
X0373966Y0334368D01*
X0373983Y0334175D01*
X0373995Y0333982D01*
X0374002Y0333789D01*
X0374004Y0333596D01*
X0374002Y0333403D01*
X0373995Y0333210D01*
X0373983Y0333017D01*
X0373966Y0332824D01*
X0373945Y0332632D01*
X0373919Y0332441D01*
X0373888Y0332250D01*
X0373853Y0332060D01*
X0373813Y0331871D01*
X0373768Y0331683D01*
X0373719Y0331496D01*
X0373665Y0331310D01*
X0373607Y0331126D01*
X0373544Y0330943D01*
X0373476Y0330762D01*
X0373405Y0330583D01*
X0373328Y0330405D01*
X0373248Y0330229D01*
X0373163Y0330056D01*
X0373074Y0329884D01*
X0372981Y0329715D01*
X0372884Y0329548D01*
X0372782Y0329383D01*
X0372677Y0329221D01*
X0372568Y0329062D01*
X0372454Y0328905D01*
X0372337Y0328752D01*
X0372217Y0328601D01*
X0372092Y0328453D01*
X0371964Y0328308D01*
X0371833Y0328167D01*
X0371698Y0328028D01*
X0371559Y0327893D01*
X0371418Y0327762D01*
X0371273Y0327634D01*
X0371125Y0327509D01*
X0370974Y0327389D01*
X0370821Y0327272D01*
X0370664Y0327158D01*
X0370505Y0327049D01*
X0370343Y0326944D01*
X0370178Y0326842D01*
X0370011Y0326745D01*
X0369842Y0326652D01*
X0369670Y0326563D01*
X0369497Y0326478D01*
X0369321Y0326398D01*
X0369143Y0326321D01*
X0368964Y0326250D01*
X0368783Y0326182D01*
X0368600Y0326119D01*
X0368416Y0326061D01*
X0368230Y0326007D01*
X0368043Y0325958D01*
X0367855Y0325913D01*
X0367666Y0325873D01*
X0367476Y0325838D01*
X0367285Y0325807D01*
X0367094Y0325781D01*
X0366902Y0325760D01*
X0366709Y0325743D01*
X0366516Y0325731D01*
X0366323Y0325724D01*
X0366130Y0325722D01*
X0365937Y0325724D01*
X0365744Y0325731D01*
X0365551Y0325743D01*
X0365358Y0325760D01*
X0365166Y0325781D01*
X0364975Y0325807D01*
X0364784Y0325838D01*
X0364594Y0325873D01*
X0364405Y0325913D01*
X0364217Y0325958D01*
X0364030Y0326007D01*
X0363844Y0326061D01*
X0363660Y0326119D01*
X0363477Y0326182D01*
X0363296Y0326250D01*
X0363117Y0326321D01*
X0362939Y0326398D01*
X0362763Y0326478D01*
X0362590Y0326563D01*
X0362418Y0326652D01*
X0362249Y0326745D01*
X0362082Y0326842D01*
X0361917Y0326944D01*
X0361755Y0327049D01*
X0361596Y0327158D01*
X0361439Y0327272D01*
X0361286Y0327389D01*
X0361135Y0327509D01*
X0360987Y0327634D01*
X0360842Y0327762D01*
X0360701Y0327893D01*
X0360562Y0328028D01*
X0360427Y0328167D01*
X0360296Y0328308D01*
X0360168Y0328453D01*
X0360043Y0328601D01*
X0359923Y0328752D01*
X0359806Y0328905D01*
X0359692Y0329062D01*
X0359583Y0329221D01*
X0359478Y0329383D01*
X0359376Y0329548D01*
X0359279Y0329715D01*
X0359186Y0329884D01*
X0359097Y0330056D01*
X0359012Y0330229D01*
X0358932Y0330405D01*
X0358855Y0330583D01*
X0358784Y0330762D01*
X0358716Y0330943D01*
X0358653Y0331126D01*
X0358595Y0331310D01*
X0358541Y0331496D01*
X0358492Y0331683D01*
X0358447Y0331871D01*
X0358407Y0332060D01*
X0358372Y0332250D01*
X0358341Y0332441D01*
X0358315Y0332632D01*
X0358294Y0332824D01*
X0358277Y0333017D01*
X0358265Y0333210D01*
X0358258Y0333403D01*
X0358256Y0333596D01*
X0365556Y0304106D02*
X0365558Y0304237D01*
X0365564Y0304369D01*
X0365574Y0304500D01*
X0365588Y0304631D01*
X0365606Y0304761D01*
X0365628Y0304890D01*
X0365653Y0305019D01*
X0365683Y0305147D01*
X0365717Y0305274D01*
X0365754Y0305401D01*
X0365795Y0305525D01*
X0365840Y0305649D01*
X0365889Y0305771D01*
X0365941Y0305892D01*
X0365997Y0306010D01*
X0366057Y0306128D01*
X0366120Y0306243D01*
X0366187Y0306356D01*
X0366257Y0306468D01*
X0366330Y0306577D01*
X0366406Y0306683D01*
X0366486Y0306788D01*
X0366569Y0306890D01*
X0366655Y0306989D01*
X0366744Y0307086D01*
X0366836Y0307180D01*
X0366931Y0307271D01*
X0367028Y0307360D01*
X0367128Y0307445D01*
X0367231Y0307527D01*
X0367336Y0307606D01*
X0367443Y0307682D01*
X0367553Y0307754D01*
X0367665Y0307823D01*
X0367779Y0307889D01*
X0367894Y0307951D01*
X0368012Y0308010D01*
X0368131Y0308065D01*
X0368252Y0308117D01*
X0368375Y0308164D01*
X0368499Y0308208D01*
X0368624Y0308249D01*
X0368750Y0308285D01*
X0368878Y0308318D01*
X0369006Y0308346D01*
X0369135Y0308371D01*
X0369265Y0308392D01*
X0369395Y0308409D01*
X0369526Y0308422D01*
X0369657Y0308431D01*
X0369788Y0308436D01*
X0369920Y0308437D01*
X0370051Y0308434D01*
X0370183Y0308427D01*
X0370314Y0308416D01*
X0370444Y0308401D01*
X0370574Y0308382D01*
X0370704Y0308359D01*
X0370832Y0308333D01*
X0370960Y0308302D01*
X0371087Y0308267D01*
X0371213Y0308229D01*
X0371337Y0308187D01*
X0371461Y0308141D01*
X0371582Y0308091D01*
X0371702Y0308038D01*
X0371821Y0307981D01*
X0371938Y0307921D01*
X0372052Y0307857D01*
X0372165Y0307789D01*
X0372276Y0307718D01*
X0372385Y0307644D01*
X0372491Y0307567D01*
X0372595Y0307486D01*
X0372696Y0307403D01*
X0372795Y0307316D01*
X0372891Y0307226D01*
X0372984Y0307133D01*
X0373075Y0307038D01*
X0373162Y0306940D01*
X0373247Y0306839D01*
X0373328Y0306736D01*
X0373406Y0306630D01*
X0373481Y0306522D01*
X0373553Y0306412D01*
X0373621Y0306300D01*
X0373686Y0306186D01*
X0373747Y0306069D01*
X0373805Y0305951D01*
X0373859Y0305831D01*
X0373910Y0305710D01*
X0373957Y0305587D01*
X0374000Y0305463D01*
X0374039Y0305338D01*
X0374075Y0305211D01*
X0374106Y0305083D01*
X0374134Y0304955D01*
X0374158Y0304826D01*
X0374178Y0304696D01*
X0374194Y0304565D01*
X0374206Y0304434D01*
X0374214Y0304303D01*
X0374218Y0304172D01*
X0374218Y0304040D01*
X0374214Y0303909D01*
X0374206Y0303778D01*
X0374194Y0303647D01*
X0374178Y0303516D01*
X0374158Y0303386D01*
X0374134Y0303257D01*
X0374106Y0303129D01*
X0374075Y0303001D01*
X0374039Y0302874D01*
X0374000Y0302749D01*
X0373957Y0302625D01*
X0373910Y0302502D01*
X0373859Y0302381D01*
X0373805Y0302261D01*
X0373747Y0302143D01*
X0373686Y0302026D01*
X0373621Y0301912D01*
X0373553Y0301800D01*
X0373481Y0301690D01*
X0373406Y0301582D01*
X0373328Y0301476D01*
X0373247Y0301373D01*
X0373162Y0301272D01*
X0373075Y0301174D01*
X0372984Y0301079D01*
X0372891Y0300986D01*
X0372795Y0300896D01*
X0372696Y0300809D01*
X0372595Y0300726D01*
X0372491Y0300645D01*
X0372385Y0300568D01*
X0372276Y0300494D01*
X0372165Y0300423D01*
X0372053Y0300355D01*
X0371938Y0300291D01*
X0371821Y0300231D01*
X0371702Y0300174D01*
X0371582Y0300121D01*
X0371461Y0300071D01*
X0371337Y0300025D01*
X0371213Y0299983D01*
X0371087Y0299945D01*
X0370960Y0299910D01*
X0370832Y0299879D01*
X0370704Y0299853D01*
X0370574Y0299830D01*
X0370444Y0299811D01*
X0370314Y0299796D01*
X0370183Y0299785D01*
X0370051Y0299778D01*
X0369920Y0299775D01*
X0369788Y0299776D01*
X0369657Y0299781D01*
X0369526Y0299790D01*
X0369395Y0299803D01*
X0369265Y0299820D01*
X0369135Y0299841D01*
X0369006Y0299866D01*
X0368878Y0299894D01*
X0368750Y0299927D01*
X0368624Y0299963D01*
X0368499Y0300004D01*
X0368375Y0300048D01*
X0368252Y0300095D01*
X0368131Y0300147D01*
X0368012Y0300202D01*
X0367894Y0300261D01*
X0367779Y0300323D01*
X0367665Y0300389D01*
X0367553Y0300458D01*
X0367443Y0300530D01*
X0367336Y0300606D01*
X0367231Y0300685D01*
X0367128Y0300767D01*
X0367028Y0300852D01*
X0366931Y0300941D01*
X0366836Y0301032D01*
X0366744Y0301126D01*
X0366655Y0301223D01*
X0366569Y0301322D01*
X0366486Y0301424D01*
X0366406Y0301529D01*
X0366330Y0301635D01*
X0366257Y0301744D01*
X0366187Y0301856D01*
X0366120Y0301969D01*
X0366057Y0302084D01*
X0365997Y0302202D01*
X0365941Y0302320D01*
X0365889Y0302441D01*
X0365840Y0302563D01*
X0365795Y0302687D01*
X0365754Y0302811D01*
X0365717Y0302938D01*
X0365683Y0303065D01*
X0365653Y0303193D01*
X0365628Y0303322D01*
X0365606Y0303451D01*
X0365588Y0303581D01*
X0365574Y0303712D01*
X0365564Y0303843D01*
X0365558Y0303975D01*
X0365556Y0304106D01*
X0332527Y0191749D02*
X0332529Y0191867D01*
X0332535Y0191986D01*
X0332545Y0192104D01*
X0332559Y0192221D01*
X0332576Y0192338D01*
X0332598Y0192455D01*
X0332624Y0192570D01*
X0332653Y0192685D01*
X0332686Y0192799D01*
X0332723Y0192911D01*
X0332764Y0193022D01*
X0332808Y0193132D01*
X0332856Y0193240D01*
X0332908Y0193347D01*
X0332963Y0193452D01*
X0333022Y0193555D01*
X0333084Y0193655D01*
X0333149Y0193754D01*
X0333218Y0193851D01*
X0333289Y0193945D01*
X0333364Y0194036D01*
X0333442Y0194126D01*
X0333523Y0194212D01*
X0333607Y0194296D01*
X0333693Y0194377D01*
X0333783Y0194455D01*
X0333874Y0194530D01*
X0333968Y0194601D01*
X0334065Y0194670D01*
X0334164Y0194735D01*
X0334264Y0194797D01*
X0334367Y0194856D01*
X0334472Y0194911D01*
X0334579Y0194963D01*
X0334687Y0195011D01*
X0334797Y0195055D01*
X0334908Y0195096D01*
X0335020Y0195133D01*
X0335134Y0195166D01*
X0335249Y0195195D01*
X0335364Y0195221D01*
X0335481Y0195243D01*
X0335598Y0195260D01*
X0335715Y0195274D01*
X0335833Y0195284D01*
X0335952Y0195290D01*
X0336070Y0195292D01*
X0336188Y0195290D01*
X0336307Y0195284D01*
X0336425Y0195274D01*
X0336542Y0195260D01*
X0336659Y0195243D01*
X0336776Y0195221D01*
X0336891Y0195195D01*
X0337006Y0195166D01*
X0337120Y0195133D01*
X0337232Y0195096D01*
X0337343Y0195055D01*
X0337453Y0195011D01*
X0337561Y0194963D01*
X0337668Y0194911D01*
X0337773Y0194856D01*
X0337876Y0194797D01*
X0337976Y0194735D01*
X0338075Y0194670D01*
X0338172Y0194601D01*
X0338266Y0194530D01*
X0338357Y0194455D01*
X0338447Y0194377D01*
X0338533Y0194296D01*
X0338617Y0194212D01*
X0338698Y0194126D01*
X0338776Y0194036D01*
X0338851Y0193945D01*
X0338922Y0193851D01*
X0338991Y0193754D01*
X0339056Y0193655D01*
X0339118Y0193555D01*
X0339177Y0193452D01*
X0339232Y0193347D01*
X0339284Y0193240D01*
X0339332Y0193132D01*
X0339376Y0193022D01*
X0339417Y0192911D01*
X0339454Y0192799D01*
X0339487Y0192685D01*
X0339516Y0192570D01*
X0339542Y0192455D01*
X0339564Y0192338D01*
X0339581Y0192221D01*
X0339595Y0192104D01*
X0339605Y0191986D01*
X0339611Y0191867D01*
X0339613Y0191749D01*
X0339611Y0191631D01*
X0339605Y0191512D01*
X0339595Y0191394D01*
X0339581Y0191277D01*
X0339564Y0191160D01*
X0339542Y0191043D01*
X0339516Y0190928D01*
X0339487Y0190813D01*
X0339454Y0190699D01*
X0339417Y0190587D01*
X0339376Y0190476D01*
X0339332Y0190366D01*
X0339284Y0190258D01*
X0339232Y0190151D01*
X0339177Y0190046D01*
X0339118Y0189943D01*
X0339056Y0189843D01*
X0338991Y0189744D01*
X0338922Y0189647D01*
X0338851Y0189553D01*
X0338776Y0189462D01*
X0338698Y0189372D01*
X0338617Y0189286D01*
X0338533Y0189202D01*
X0338447Y0189121D01*
X0338357Y0189043D01*
X0338266Y0188968D01*
X0338172Y0188897D01*
X0338075Y0188828D01*
X0337976Y0188763D01*
X0337876Y0188701D01*
X0337773Y0188642D01*
X0337668Y0188587D01*
X0337561Y0188535D01*
X0337453Y0188487D01*
X0337343Y0188443D01*
X0337232Y0188402D01*
X0337120Y0188365D01*
X0337006Y0188332D01*
X0336891Y0188303D01*
X0336776Y0188277D01*
X0336659Y0188255D01*
X0336542Y0188238D01*
X0336425Y0188224D01*
X0336307Y0188214D01*
X0336188Y0188208D01*
X0336070Y0188206D01*
X0335952Y0188208D01*
X0335833Y0188214D01*
X0335715Y0188224D01*
X0335598Y0188238D01*
X0335481Y0188255D01*
X0335364Y0188277D01*
X0335249Y0188303D01*
X0335134Y0188332D01*
X0335020Y0188365D01*
X0334908Y0188402D01*
X0334797Y0188443D01*
X0334687Y0188487D01*
X0334579Y0188535D01*
X0334472Y0188587D01*
X0334367Y0188642D01*
X0334264Y0188701D01*
X0334164Y0188763D01*
X0334065Y0188828D01*
X0333968Y0188897D01*
X0333874Y0188968D01*
X0333783Y0189043D01*
X0333693Y0189121D01*
X0333607Y0189202D01*
X0333523Y0189286D01*
X0333442Y0189372D01*
X0333364Y0189462D01*
X0333289Y0189553D01*
X0333218Y0189647D01*
X0333149Y0189744D01*
X0333084Y0189843D01*
X0333022Y0189943D01*
X0332963Y0190046D01*
X0332908Y0190151D01*
X0332856Y0190258D01*
X0332808Y0190366D01*
X0332764Y0190476D01*
X0332723Y0190587D01*
X0332686Y0190699D01*
X0332653Y0190813D01*
X0332624Y0190928D01*
X0332598Y0191043D01*
X0332576Y0191160D01*
X0332559Y0191277D01*
X0332545Y0191394D01*
X0332535Y0191512D01*
X0332529Y0191631D01*
X0332527Y0191749D01*
X0362766Y0186113D02*
X0362768Y0186244D01*
X0362774Y0186376D01*
X0362784Y0186507D01*
X0362798Y0186638D01*
X0362816Y0186768D01*
X0362838Y0186897D01*
X0362863Y0187026D01*
X0362893Y0187154D01*
X0362927Y0187281D01*
X0362964Y0187408D01*
X0363005Y0187532D01*
X0363050Y0187656D01*
X0363099Y0187778D01*
X0363151Y0187899D01*
X0363207Y0188017D01*
X0363267Y0188135D01*
X0363330Y0188250D01*
X0363397Y0188363D01*
X0363467Y0188475D01*
X0363540Y0188584D01*
X0363616Y0188690D01*
X0363696Y0188795D01*
X0363779Y0188897D01*
X0363865Y0188996D01*
X0363954Y0189093D01*
X0364046Y0189187D01*
X0364141Y0189278D01*
X0364238Y0189367D01*
X0364338Y0189452D01*
X0364441Y0189534D01*
X0364546Y0189613D01*
X0364653Y0189689D01*
X0364763Y0189761D01*
X0364875Y0189830D01*
X0364989Y0189896D01*
X0365104Y0189958D01*
X0365222Y0190017D01*
X0365341Y0190072D01*
X0365462Y0190124D01*
X0365585Y0190171D01*
X0365709Y0190215D01*
X0365834Y0190256D01*
X0365960Y0190292D01*
X0366088Y0190325D01*
X0366216Y0190353D01*
X0366345Y0190378D01*
X0366475Y0190399D01*
X0366605Y0190416D01*
X0366736Y0190429D01*
X0366867Y0190438D01*
X0366998Y0190443D01*
X0367130Y0190444D01*
X0367261Y0190441D01*
X0367393Y0190434D01*
X0367524Y0190423D01*
X0367654Y0190408D01*
X0367784Y0190389D01*
X0367914Y0190366D01*
X0368042Y0190340D01*
X0368170Y0190309D01*
X0368297Y0190274D01*
X0368423Y0190236D01*
X0368547Y0190194D01*
X0368671Y0190148D01*
X0368792Y0190098D01*
X0368912Y0190045D01*
X0369031Y0189988D01*
X0369148Y0189928D01*
X0369262Y0189864D01*
X0369375Y0189796D01*
X0369486Y0189725D01*
X0369595Y0189651D01*
X0369701Y0189574D01*
X0369805Y0189493D01*
X0369906Y0189410D01*
X0370005Y0189323D01*
X0370101Y0189233D01*
X0370194Y0189140D01*
X0370285Y0189045D01*
X0370372Y0188947D01*
X0370457Y0188846D01*
X0370538Y0188743D01*
X0370616Y0188637D01*
X0370691Y0188529D01*
X0370763Y0188419D01*
X0370831Y0188307D01*
X0370896Y0188193D01*
X0370957Y0188076D01*
X0371015Y0187958D01*
X0371069Y0187838D01*
X0371120Y0187717D01*
X0371167Y0187594D01*
X0371210Y0187470D01*
X0371249Y0187345D01*
X0371285Y0187218D01*
X0371316Y0187090D01*
X0371344Y0186962D01*
X0371368Y0186833D01*
X0371388Y0186703D01*
X0371404Y0186572D01*
X0371416Y0186441D01*
X0371424Y0186310D01*
X0371428Y0186179D01*
X0371428Y0186047D01*
X0371424Y0185916D01*
X0371416Y0185785D01*
X0371404Y0185654D01*
X0371388Y0185523D01*
X0371368Y0185393D01*
X0371344Y0185264D01*
X0371316Y0185136D01*
X0371285Y0185008D01*
X0371249Y0184881D01*
X0371210Y0184756D01*
X0371167Y0184632D01*
X0371120Y0184509D01*
X0371069Y0184388D01*
X0371015Y0184268D01*
X0370957Y0184150D01*
X0370896Y0184033D01*
X0370831Y0183919D01*
X0370763Y0183807D01*
X0370691Y0183697D01*
X0370616Y0183589D01*
X0370538Y0183483D01*
X0370457Y0183380D01*
X0370372Y0183279D01*
X0370285Y0183181D01*
X0370194Y0183086D01*
X0370101Y0182993D01*
X0370005Y0182903D01*
X0369906Y0182816D01*
X0369805Y0182733D01*
X0369701Y0182652D01*
X0369595Y0182575D01*
X0369486Y0182501D01*
X0369375Y0182430D01*
X0369263Y0182362D01*
X0369148Y0182298D01*
X0369031Y0182238D01*
X0368912Y0182181D01*
X0368792Y0182128D01*
X0368671Y0182078D01*
X0368547Y0182032D01*
X0368423Y0181990D01*
X0368297Y0181952D01*
X0368170Y0181917D01*
X0368042Y0181886D01*
X0367914Y0181860D01*
X0367784Y0181837D01*
X0367654Y0181818D01*
X0367524Y0181803D01*
X0367393Y0181792D01*
X0367261Y0181785D01*
X0367130Y0181782D01*
X0366998Y0181783D01*
X0366867Y0181788D01*
X0366736Y0181797D01*
X0366605Y0181810D01*
X0366475Y0181827D01*
X0366345Y0181848D01*
X0366216Y0181873D01*
X0366088Y0181901D01*
X0365960Y0181934D01*
X0365834Y0181970D01*
X0365709Y0182011D01*
X0365585Y0182055D01*
X0365462Y0182102D01*
X0365341Y0182154D01*
X0365222Y0182209D01*
X0365104Y0182268D01*
X0364989Y0182330D01*
X0364875Y0182396D01*
X0364763Y0182465D01*
X0364653Y0182537D01*
X0364546Y0182613D01*
X0364441Y0182692D01*
X0364338Y0182774D01*
X0364238Y0182859D01*
X0364141Y0182948D01*
X0364046Y0183039D01*
X0363954Y0183133D01*
X0363865Y0183230D01*
X0363779Y0183329D01*
X0363696Y0183431D01*
X0363616Y0183536D01*
X0363540Y0183642D01*
X0363467Y0183751D01*
X0363397Y0183863D01*
X0363330Y0183976D01*
X0363267Y0184091D01*
X0363207Y0184209D01*
X0363151Y0184327D01*
X0363099Y0184448D01*
X0363050Y0184570D01*
X0363005Y0184694D01*
X0362964Y0184818D01*
X0362927Y0184945D01*
X0362893Y0185072D01*
X0362863Y0185200D01*
X0362838Y0185329D01*
X0362816Y0185458D01*
X0362798Y0185588D01*
X0362784Y0185719D01*
X0362774Y0185850D01*
X0362768Y0185982D01*
X0362766Y0186113D01*
X0365906Y0071669D02*
X0365908Y0071800D01*
X0365914Y0071932D01*
X0365924Y0072063D01*
X0365938Y0072194D01*
X0365956Y0072324D01*
X0365978Y0072453D01*
X0366003Y0072582D01*
X0366033Y0072710D01*
X0366067Y0072837D01*
X0366104Y0072964D01*
X0366145Y0073088D01*
X0366190Y0073212D01*
X0366239Y0073334D01*
X0366291Y0073455D01*
X0366347Y0073573D01*
X0366407Y0073691D01*
X0366470Y0073806D01*
X0366537Y0073919D01*
X0366607Y0074031D01*
X0366680Y0074140D01*
X0366756Y0074246D01*
X0366836Y0074351D01*
X0366919Y0074453D01*
X0367005Y0074552D01*
X0367094Y0074649D01*
X0367186Y0074743D01*
X0367281Y0074834D01*
X0367378Y0074923D01*
X0367478Y0075008D01*
X0367581Y0075090D01*
X0367686Y0075169D01*
X0367793Y0075245D01*
X0367903Y0075317D01*
X0368015Y0075386D01*
X0368129Y0075452D01*
X0368244Y0075514D01*
X0368362Y0075573D01*
X0368481Y0075628D01*
X0368602Y0075680D01*
X0368725Y0075727D01*
X0368849Y0075771D01*
X0368974Y0075812D01*
X0369100Y0075848D01*
X0369228Y0075881D01*
X0369356Y0075909D01*
X0369485Y0075934D01*
X0369615Y0075955D01*
X0369745Y0075972D01*
X0369876Y0075985D01*
X0370007Y0075994D01*
X0370138Y0075999D01*
X0370270Y0076000D01*
X0370401Y0075997D01*
X0370533Y0075990D01*
X0370664Y0075979D01*
X0370794Y0075964D01*
X0370924Y0075945D01*
X0371054Y0075922D01*
X0371182Y0075896D01*
X0371310Y0075865D01*
X0371437Y0075830D01*
X0371563Y0075792D01*
X0371687Y0075750D01*
X0371811Y0075704D01*
X0371932Y0075654D01*
X0372052Y0075601D01*
X0372171Y0075544D01*
X0372288Y0075484D01*
X0372402Y0075420D01*
X0372515Y0075352D01*
X0372626Y0075281D01*
X0372735Y0075207D01*
X0372841Y0075130D01*
X0372945Y0075049D01*
X0373046Y0074966D01*
X0373145Y0074879D01*
X0373241Y0074789D01*
X0373334Y0074696D01*
X0373425Y0074601D01*
X0373512Y0074503D01*
X0373597Y0074402D01*
X0373678Y0074299D01*
X0373756Y0074193D01*
X0373831Y0074085D01*
X0373903Y0073975D01*
X0373971Y0073863D01*
X0374036Y0073749D01*
X0374097Y0073632D01*
X0374155Y0073514D01*
X0374209Y0073394D01*
X0374260Y0073273D01*
X0374307Y0073150D01*
X0374350Y0073026D01*
X0374389Y0072901D01*
X0374425Y0072774D01*
X0374456Y0072646D01*
X0374484Y0072518D01*
X0374508Y0072389D01*
X0374528Y0072259D01*
X0374544Y0072128D01*
X0374556Y0071997D01*
X0374564Y0071866D01*
X0374568Y0071735D01*
X0374568Y0071603D01*
X0374564Y0071472D01*
X0374556Y0071341D01*
X0374544Y0071210D01*
X0374528Y0071079D01*
X0374508Y0070949D01*
X0374484Y0070820D01*
X0374456Y0070692D01*
X0374425Y0070564D01*
X0374389Y0070437D01*
X0374350Y0070312D01*
X0374307Y0070188D01*
X0374260Y0070065D01*
X0374209Y0069944D01*
X0374155Y0069824D01*
X0374097Y0069706D01*
X0374036Y0069589D01*
X0373971Y0069475D01*
X0373903Y0069363D01*
X0373831Y0069253D01*
X0373756Y0069145D01*
X0373678Y0069039D01*
X0373597Y0068936D01*
X0373512Y0068835D01*
X0373425Y0068737D01*
X0373334Y0068642D01*
X0373241Y0068549D01*
X0373145Y0068459D01*
X0373046Y0068372D01*
X0372945Y0068289D01*
X0372841Y0068208D01*
X0372735Y0068131D01*
X0372626Y0068057D01*
X0372515Y0067986D01*
X0372403Y0067918D01*
X0372288Y0067854D01*
X0372171Y0067794D01*
X0372052Y0067737D01*
X0371932Y0067684D01*
X0371811Y0067634D01*
X0371687Y0067588D01*
X0371563Y0067546D01*
X0371437Y0067508D01*
X0371310Y0067473D01*
X0371182Y0067442D01*
X0371054Y0067416D01*
X0370924Y0067393D01*
X0370794Y0067374D01*
X0370664Y0067359D01*
X0370533Y0067348D01*
X0370401Y0067341D01*
X0370270Y0067338D01*
X0370138Y0067339D01*
X0370007Y0067344D01*
X0369876Y0067353D01*
X0369745Y0067366D01*
X0369615Y0067383D01*
X0369485Y0067404D01*
X0369356Y0067429D01*
X0369228Y0067457D01*
X0369100Y0067490D01*
X0368974Y0067526D01*
X0368849Y0067567D01*
X0368725Y0067611D01*
X0368602Y0067658D01*
X0368481Y0067710D01*
X0368362Y0067765D01*
X0368244Y0067824D01*
X0368129Y0067886D01*
X0368015Y0067952D01*
X0367903Y0068021D01*
X0367793Y0068093D01*
X0367686Y0068169D01*
X0367581Y0068248D01*
X0367478Y0068330D01*
X0367378Y0068415D01*
X0367281Y0068504D01*
X0367186Y0068595D01*
X0367094Y0068689D01*
X0367005Y0068786D01*
X0366919Y0068885D01*
X0366836Y0068987D01*
X0366756Y0069092D01*
X0366680Y0069198D01*
X0366607Y0069307D01*
X0366537Y0069419D01*
X0366470Y0069532D01*
X0366407Y0069647D01*
X0366347Y0069765D01*
X0366291Y0069883D01*
X0366239Y0070004D01*
X0366190Y0070126D01*
X0366145Y0070250D01*
X0366104Y0070374D01*
X0366067Y0070501D01*
X0366033Y0070628D01*
X0366003Y0070756D01*
X0365978Y0070885D01*
X0365956Y0071014D01*
X0365938Y0071144D01*
X0365924Y0071275D01*
X0365914Y0071406D01*
X0365908Y0071538D01*
X0365906Y0071669D01*
X0358310Y0046161D02*
X0358312Y0046354D01*
X0358319Y0046547D01*
X0358331Y0046740D01*
X0358348Y0046933D01*
X0358369Y0047125D01*
X0358395Y0047316D01*
X0358426Y0047507D01*
X0358461Y0047697D01*
X0358501Y0047886D01*
X0358546Y0048074D01*
X0358595Y0048261D01*
X0358649Y0048447D01*
X0358707Y0048631D01*
X0358770Y0048814D01*
X0358838Y0048995D01*
X0358909Y0049174D01*
X0358986Y0049352D01*
X0359066Y0049528D01*
X0359151Y0049701D01*
X0359240Y0049873D01*
X0359333Y0050042D01*
X0359430Y0050209D01*
X0359532Y0050374D01*
X0359637Y0050536D01*
X0359746Y0050695D01*
X0359860Y0050852D01*
X0359977Y0051005D01*
X0360097Y0051156D01*
X0360222Y0051304D01*
X0360350Y0051449D01*
X0360481Y0051590D01*
X0360616Y0051729D01*
X0360755Y0051864D01*
X0360896Y0051995D01*
X0361041Y0052123D01*
X0361189Y0052248D01*
X0361340Y0052368D01*
X0361493Y0052485D01*
X0361650Y0052599D01*
X0361809Y0052708D01*
X0361971Y0052813D01*
X0362136Y0052915D01*
X0362303Y0053012D01*
X0362472Y0053105D01*
X0362644Y0053194D01*
X0362817Y0053279D01*
X0362993Y0053359D01*
X0363171Y0053436D01*
X0363350Y0053507D01*
X0363531Y0053575D01*
X0363714Y0053638D01*
X0363898Y0053696D01*
X0364084Y0053750D01*
X0364271Y0053799D01*
X0364459Y0053844D01*
X0364648Y0053884D01*
X0364838Y0053919D01*
X0365029Y0053950D01*
X0365220Y0053976D01*
X0365412Y0053997D01*
X0365605Y0054014D01*
X0365798Y0054026D01*
X0365991Y0054033D01*
X0366184Y0054035D01*
X0366377Y0054033D01*
X0366570Y0054026D01*
X0366763Y0054014D01*
X0366956Y0053997D01*
X0367148Y0053976D01*
X0367339Y0053950D01*
X0367530Y0053919D01*
X0367720Y0053884D01*
X0367909Y0053844D01*
X0368097Y0053799D01*
X0368284Y0053750D01*
X0368470Y0053696D01*
X0368654Y0053638D01*
X0368837Y0053575D01*
X0369018Y0053507D01*
X0369197Y0053436D01*
X0369375Y0053359D01*
X0369551Y0053279D01*
X0369724Y0053194D01*
X0369896Y0053105D01*
X0370065Y0053012D01*
X0370232Y0052915D01*
X0370397Y0052813D01*
X0370559Y0052708D01*
X0370718Y0052599D01*
X0370875Y0052485D01*
X0371028Y0052368D01*
X0371179Y0052248D01*
X0371327Y0052123D01*
X0371472Y0051995D01*
X0371613Y0051864D01*
X0371752Y0051729D01*
X0371887Y0051590D01*
X0372018Y0051449D01*
X0372146Y0051304D01*
X0372271Y0051156D01*
X0372391Y0051005D01*
X0372508Y0050852D01*
X0372622Y0050695D01*
X0372731Y0050536D01*
X0372836Y0050374D01*
X0372938Y0050209D01*
X0373035Y0050042D01*
X0373128Y0049873D01*
X0373217Y0049701D01*
X0373302Y0049528D01*
X0373382Y0049352D01*
X0373459Y0049174D01*
X0373530Y0048995D01*
X0373598Y0048814D01*
X0373661Y0048631D01*
X0373719Y0048447D01*
X0373773Y0048261D01*
X0373822Y0048074D01*
X0373867Y0047886D01*
X0373907Y0047697D01*
X0373942Y0047507D01*
X0373973Y0047316D01*
X0373999Y0047125D01*
X0374020Y0046933D01*
X0374037Y0046740D01*
X0374049Y0046547D01*
X0374056Y0046354D01*
X0374058Y0046161D01*
X0374056Y0045968D01*
X0374049Y0045775D01*
X0374037Y0045582D01*
X0374020Y0045389D01*
X0373999Y0045197D01*
X0373973Y0045006D01*
X0373942Y0044815D01*
X0373907Y0044625D01*
X0373867Y0044436D01*
X0373822Y0044248D01*
X0373773Y0044061D01*
X0373719Y0043875D01*
X0373661Y0043691D01*
X0373598Y0043508D01*
X0373530Y0043327D01*
X0373459Y0043148D01*
X0373382Y0042970D01*
X0373302Y0042794D01*
X0373217Y0042621D01*
X0373128Y0042449D01*
X0373035Y0042280D01*
X0372938Y0042113D01*
X0372836Y0041948D01*
X0372731Y0041786D01*
X0372622Y0041627D01*
X0372508Y0041470D01*
X0372391Y0041317D01*
X0372271Y0041166D01*
X0372146Y0041018D01*
X0372018Y0040873D01*
X0371887Y0040732D01*
X0371752Y0040593D01*
X0371613Y0040458D01*
X0371472Y0040327D01*
X0371327Y0040199D01*
X0371179Y0040074D01*
X0371028Y0039954D01*
X0370875Y0039837D01*
X0370718Y0039723D01*
X0370559Y0039614D01*
X0370397Y0039509D01*
X0370232Y0039407D01*
X0370065Y0039310D01*
X0369896Y0039217D01*
X0369724Y0039128D01*
X0369551Y0039043D01*
X0369375Y0038963D01*
X0369197Y0038886D01*
X0369018Y0038815D01*
X0368837Y0038747D01*
X0368654Y0038684D01*
X0368470Y0038626D01*
X0368284Y0038572D01*
X0368097Y0038523D01*
X0367909Y0038478D01*
X0367720Y0038438D01*
X0367530Y0038403D01*
X0367339Y0038372D01*
X0367148Y0038346D01*
X0366956Y0038325D01*
X0366763Y0038308D01*
X0366570Y0038296D01*
X0366377Y0038289D01*
X0366184Y0038287D01*
X0365991Y0038289D01*
X0365798Y0038296D01*
X0365605Y0038308D01*
X0365412Y0038325D01*
X0365220Y0038346D01*
X0365029Y0038372D01*
X0364838Y0038403D01*
X0364648Y0038438D01*
X0364459Y0038478D01*
X0364271Y0038523D01*
X0364084Y0038572D01*
X0363898Y0038626D01*
X0363714Y0038684D01*
X0363531Y0038747D01*
X0363350Y0038815D01*
X0363171Y0038886D01*
X0362993Y0038963D01*
X0362817Y0039043D01*
X0362644Y0039128D01*
X0362472Y0039217D01*
X0362303Y0039310D01*
X0362136Y0039407D01*
X0361971Y0039509D01*
X0361809Y0039614D01*
X0361650Y0039723D01*
X0361493Y0039837D01*
X0361340Y0039954D01*
X0361189Y0040074D01*
X0361041Y0040199D01*
X0360896Y0040327D01*
X0360755Y0040458D01*
X0360616Y0040593D01*
X0360481Y0040732D01*
X0360350Y0040873D01*
X0360222Y0041018D01*
X0360097Y0041166D01*
X0359977Y0041317D01*
X0359860Y0041470D01*
X0359746Y0041627D01*
X0359637Y0041786D01*
X0359532Y0041948D01*
X0359430Y0042113D01*
X0359333Y0042280D01*
X0359240Y0042449D01*
X0359151Y0042621D01*
X0359066Y0042794D01*
X0358986Y0042970D01*
X0358909Y0043148D01*
X0358838Y0043327D01*
X0358770Y0043508D01*
X0358707Y0043691D01*
X0358649Y0043875D01*
X0358595Y0044061D01*
X0358546Y0044248D01*
X0358501Y0044436D01*
X0358461Y0044625D01*
X0358426Y0044815D01*
X0358395Y0045006D01*
X0358369Y0045197D01*
X0358348Y0045389D01*
X0358331Y0045582D01*
X0358319Y0045775D01*
X0358312Y0045968D01*
X0358310Y0046161D01*
X0323045Y0008033D02*
X0323047Y0008164D01*
X0323053Y0008296D01*
X0323063Y0008427D01*
X0323077Y0008558D01*
X0323095Y0008688D01*
X0323117Y0008817D01*
X0323142Y0008946D01*
X0323172Y0009074D01*
X0323206Y0009201D01*
X0323243Y0009328D01*
X0323284Y0009452D01*
X0323329Y0009576D01*
X0323378Y0009698D01*
X0323430Y0009819D01*
X0323486Y0009937D01*
X0323546Y0010055D01*
X0323609Y0010170D01*
X0323676Y0010283D01*
X0323746Y0010395D01*
X0323819Y0010504D01*
X0323895Y0010610D01*
X0323975Y0010715D01*
X0324058Y0010817D01*
X0324144Y0010916D01*
X0324233Y0011013D01*
X0324325Y0011107D01*
X0324420Y0011198D01*
X0324517Y0011287D01*
X0324617Y0011372D01*
X0324720Y0011454D01*
X0324825Y0011533D01*
X0324932Y0011609D01*
X0325042Y0011681D01*
X0325154Y0011750D01*
X0325268Y0011816D01*
X0325383Y0011878D01*
X0325501Y0011937D01*
X0325620Y0011992D01*
X0325741Y0012044D01*
X0325864Y0012091D01*
X0325988Y0012135D01*
X0326113Y0012176D01*
X0326239Y0012212D01*
X0326367Y0012245D01*
X0326495Y0012273D01*
X0326624Y0012298D01*
X0326754Y0012319D01*
X0326884Y0012336D01*
X0327015Y0012349D01*
X0327146Y0012358D01*
X0327277Y0012363D01*
X0327409Y0012364D01*
X0327540Y0012361D01*
X0327672Y0012354D01*
X0327803Y0012343D01*
X0327933Y0012328D01*
X0328063Y0012309D01*
X0328193Y0012286D01*
X0328321Y0012260D01*
X0328449Y0012229D01*
X0328576Y0012194D01*
X0328702Y0012156D01*
X0328826Y0012114D01*
X0328950Y0012068D01*
X0329071Y0012018D01*
X0329191Y0011965D01*
X0329310Y0011908D01*
X0329427Y0011848D01*
X0329541Y0011784D01*
X0329654Y0011716D01*
X0329765Y0011645D01*
X0329874Y0011571D01*
X0329980Y0011494D01*
X0330084Y0011413D01*
X0330185Y0011330D01*
X0330284Y0011243D01*
X0330380Y0011153D01*
X0330473Y0011060D01*
X0330564Y0010965D01*
X0330651Y0010867D01*
X0330736Y0010766D01*
X0330817Y0010663D01*
X0330895Y0010557D01*
X0330970Y0010449D01*
X0331042Y0010339D01*
X0331110Y0010227D01*
X0331175Y0010113D01*
X0331236Y0009996D01*
X0331294Y0009878D01*
X0331348Y0009758D01*
X0331399Y0009637D01*
X0331446Y0009514D01*
X0331489Y0009390D01*
X0331528Y0009265D01*
X0331564Y0009138D01*
X0331595Y0009010D01*
X0331623Y0008882D01*
X0331647Y0008753D01*
X0331667Y0008623D01*
X0331683Y0008492D01*
X0331695Y0008361D01*
X0331703Y0008230D01*
X0331707Y0008099D01*
X0331707Y0007967D01*
X0331703Y0007836D01*
X0331695Y0007705D01*
X0331683Y0007574D01*
X0331667Y0007443D01*
X0331647Y0007313D01*
X0331623Y0007184D01*
X0331595Y0007056D01*
X0331564Y0006928D01*
X0331528Y0006801D01*
X0331489Y0006676D01*
X0331446Y0006552D01*
X0331399Y0006429D01*
X0331348Y0006308D01*
X0331294Y0006188D01*
X0331236Y0006070D01*
X0331175Y0005953D01*
X0331110Y0005839D01*
X0331042Y0005727D01*
X0330970Y0005617D01*
X0330895Y0005509D01*
X0330817Y0005403D01*
X0330736Y0005300D01*
X0330651Y0005199D01*
X0330564Y0005101D01*
X0330473Y0005006D01*
X0330380Y0004913D01*
X0330284Y0004823D01*
X0330185Y0004736D01*
X0330084Y0004653D01*
X0329980Y0004572D01*
X0329874Y0004495D01*
X0329765Y0004421D01*
X0329654Y0004350D01*
X0329542Y0004282D01*
X0329427Y0004218D01*
X0329310Y0004158D01*
X0329191Y0004101D01*
X0329071Y0004048D01*
X0328950Y0003998D01*
X0328826Y0003952D01*
X0328702Y0003910D01*
X0328576Y0003872D01*
X0328449Y0003837D01*
X0328321Y0003806D01*
X0328193Y0003780D01*
X0328063Y0003757D01*
X0327933Y0003738D01*
X0327803Y0003723D01*
X0327672Y0003712D01*
X0327540Y0003705D01*
X0327409Y0003702D01*
X0327277Y0003703D01*
X0327146Y0003708D01*
X0327015Y0003717D01*
X0326884Y0003730D01*
X0326754Y0003747D01*
X0326624Y0003768D01*
X0326495Y0003793D01*
X0326367Y0003821D01*
X0326239Y0003854D01*
X0326113Y0003890D01*
X0325988Y0003931D01*
X0325864Y0003975D01*
X0325741Y0004022D01*
X0325620Y0004074D01*
X0325501Y0004129D01*
X0325383Y0004188D01*
X0325268Y0004250D01*
X0325154Y0004316D01*
X0325042Y0004385D01*
X0324932Y0004457D01*
X0324825Y0004533D01*
X0324720Y0004612D01*
X0324617Y0004694D01*
X0324517Y0004779D01*
X0324420Y0004868D01*
X0324325Y0004959D01*
X0324233Y0005053D01*
X0324144Y0005150D01*
X0324058Y0005249D01*
X0323975Y0005351D01*
X0323895Y0005456D01*
X0323819Y0005562D01*
X0323746Y0005671D01*
X0323676Y0005783D01*
X0323609Y0005896D01*
X0323546Y0006011D01*
X0323486Y0006129D01*
X0323430Y0006247D01*
X0323378Y0006368D01*
X0323329Y0006490D01*
X0323284Y0006614D01*
X0323243Y0006738D01*
X0323206Y0006865D01*
X0323172Y0006992D01*
X0323142Y0007120D01*
X0323117Y0007249D01*
X0323095Y0007378D01*
X0323077Y0007508D01*
X0323063Y0007639D01*
X0323053Y0007770D01*
X0323047Y0007902D01*
X0323045Y0008033D01*
X0301215Y0015749D02*
X0301217Y0015942D01*
X0301224Y0016135D01*
X0301236Y0016328D01*
X0301253Y0016521D01*
X0301274Y0016713D01*
X0301300Y0016904D01*
X0301331Y0017095D01*
X0301366Y0017285D01*
X0301406Y0017474D01*
X0301451Y0017662D01*
X0301500Y0017849D01*
X0301554Y0018035D01*
X0301612Y0018219D01*
X0301675Y0018402D01*
X0301743Y0018583D01*
X0301814Y0018762D01*
X0301891Y0018940D01*
X0301971Y0019116D01*
X0302056Y0019289D01*
X0302145Y0019461D01*
X0302238Y0019630D01*
X0302335Y0019797D01*
X0302437Y0019962D01*
X0302542Y0020124D01*
X0302651Y0020283D01*
X0302765Y0020440D01*
X0302882Y0020593D01*
X0303002Y0020744D01*
X0303127Y0020892D01*
X0303255Y0021037D01*
X0303386Y0021178D01*
X0303521Y0021317D01*
X0303660Y0021452D01*
X0303801Y0021583D01*
X0303946Y0021711D01*
X0304094Y0021836D01*
X0304245Y0021956D01*
X0304398Y0022073D01*
X0304555Y0022187D01*
X0304714Y0022296D01*
X0304876Y0022401D01*
X0305041Y0022503D01*
X0305208Y0022600D01*
X0305377Y0022693D01*
X0305549Y0022782D01*
X0305722Y0022867D01*
X0305898Y0022947D01*
X0306076Y0023024D01*
X0306255Y0023095D01*
X0306436Y0023163D01*
X0306619Y0023226D01*
X0306803Y0023284D01*
X0306989Y0023338D01*
X0307176Y0023387D01*
X0307364Y0023432D01*
X0307553Y0023472D01*
X0307743Y0023507D01*
X0307934Y0023538D01*
X0308125Y0023564D01*
X0308317Y0023585D01*
X0308510Y0023602D01*
X0308703Y0023614D01*
X0308896Y0023621D01*
X0309089Y0023623D01*
X0309282Y0023621D01*
X0309475Y0023614D01*
X0309668Y0023602D01*
X0309861Y0023585D01*
X0310053Y0023564D01*
X0310244Y0023538D01*
X0310435Y0023507D01*
X0310625Y0023472D01*
X0310814Y0023432D01*
X0311002Y0023387D01*
X0311189Y0023338D01*
X0311375Y0023284D01*
X0311559Y0023226D01*
X0311742Y0023163D01*
X0311923Y0023095D01*
X0312102Y0023024D01*
X0312280Y0022947D01*
X0312456Y0022867D01*
X0312629Y0022782D01*
X0312801Y0022693D01*
X0312970Y0022600D01*
X0313137Y0022503D01*
X0313302Y0022401D01*
X0313464Y0022296D01*
X0313623Y0022187D01*
X0313780Y0022073D01*
X0313933Y0021956D01*
X0314084Y0021836D01*
X0314232Y0021711D01*
X0314377Y0021583D01*
X0314518Y0021452D01*
X0314657Y0021317D01*
X0314792Y0021178D01*
X0314923Y0021037D01*
X0315051Y0020892D01*
X0315176Y0020744D01*
X0315296Y0020593D01*
X0315413Y0020440D01*
X0315527Y0020283D01*
X0315636Y0020124D01*
X0315741Y0019962D01*
X0315843Y0019797D01*
X0315940Y0019630D01*
X0316033Y0019461D01*
X0316122Y0019289D01*
X0316207Y0019116D01*
X0316287Y0018940D01*
X0316364Y0018762D01*
X0316435Y0018583D01*
X0316503Y0018402D01*
X0316566Y0018219D01*
X0316624Y0018035D01*
X0316678Y0017849D01*
X0316727Y0017662D01*
X0316772Y0017474D01*
X0316812Y0017285D01*
X0316847Y0017095D01*
X0316878Y0016904D01*
X0316904Y0016713D01*
X0316925Y0016521D01*
X0316942Y0016328D01*
X0316954Y0016135D01*
X0316961Y0015942D01*
X0316963Y0015749D01*
X0316961Y0015556D01*
X0316954Y0015363D01*
X0316942Y0015170D01*
X0316925Y0014977D01*
X0316904Y0014785D01*
X0316878Y0014594D01*
X0316847Y0014403D01*
X0316812Y0014213D01*
X0316772Y0014024D01*
X0316727Y0013836D01*
X0316678Y0013649D01*
X0316624Y0013463D01*
X0316566Y0013279D01*
X0316503Y0013096D01*
X0316435Y0012915D01*
X0316364Y0012736D01*
X0316287Y0012558D01*
X0316207Y0012382D01*
X0316122Y0012209D01*
X0316033Y0012037D01*
X0315940Y0011868D01*
X0315843Y0011701D01*
X0315741Y0011536D01*
X0315636Y0011374D01*
X0315527Y0011215D01*
X0315413Y0011058D01*
X0315296Y0010905D01*
X0315176Y0010754D01*
X0315051Y0010606D01*
X0314923Y0010461D01*
X0314792Y0010320D01*
X0314657Y0010181D01*
X0314518Y0010046D01*
X0314377Y0009915D01*
X0314232Y0009787D01*
X0314084Y0009662D01*
X0313933Y0009542D01*
X0313780Y0009425D01*
X0313623Y0009311D01*
X0313464Y0009202D01*
X0313302Y0009097D01*
X0313137Y0008995D01*
X0312970Y0008898D01*
X0312801Y0008805D01*
X0312629Y0008716D01*
X0312456Y0008631D01*
X0312280Y0008551D01*
X0312102Y0008474D01*
X0311923Y0008403D01*
X0311742Y0008335D01*
X0311559Y0008272D01*
X0311375Y0008214D01*
X0311189Y0008160D01*
X0311002Y0008111D01*
X0310814Y0008066D01*
X0310625Y0008026D01*
X0310435Y0007991D01*
X0310244Y0007960D01*
X0310053Y0007934D01*
X0309861Y0007913D01*
X0309668Y0007896D01*
X0309475Y0007884D01*
X0309282Y0007877D01*
X0309089Y0007875D01*
X0308896Y0007877D01*
X0308703Y0007884D01*
X0308510Y0007896D01*
X0308317Y0007913D01*
X0308125Y0007934D01*
X0307934Y0007960D01*
X0307743Y0007991D01*
X0307553Y0008026D01*
X0307364Y0008066D01*
X0307176Y0008111D01*
X0306989Y0008160D01*
X0306803Y0008214D01*
X0306619Y0008272D01*
X0306436Y0008335D01*
X0306255Y0008403D01*
X0306076Y0008474D01*
X0305898Y0008551D01*
X0305722Y0008631D01*
X0305549Y0008716D01*
X0305377Y0008805D01*
X0305208Y0008898D01*
X0305041Y0008995D01*
X0304876Y0009097D01*
X0304714Y0009202D01*
X0304555Y0009311D01*
X0304398Y0009425D01*
X0304245Y0009542D01*
X0304094Y0009662D01*
X0303946Y0009787D01*
X0303801Y0009915D01*
X0303660Y0010046D01*
X0303521Y0010181D01*
X0303386Y0010320D01*
X0303255Y0010461D01*
X0303127Y0010606D01*
X0303002Y0010754D01*
X0302882Y0010905D01*
X0302765Y0011058D01*
X0302651Y0011215D01*
X0302542Y0011374D01*
X0302437Y0011536D01*
X0302335Y0011701D01*
X0302238Y0011868D01*
X0302145Y0012037D01*
X0302056Y0012209D01*
X0301971Y0012382D01*
X0301891Y0012558D01*
X0301814Y0012736D01*
X0301743Y0012915D01*
X0301675Y0013096D01*
X0301612Y0013279D01*
X0301554Y0013463D01*
X0301500Y0013649D01*
X0301451Y0013836D01*
X0301406Y0014024D01*
X0301366Y0014213D01*
X0301331Y0014403D01*
X0301300Y0014594D01*
X0301274Y0014785D01*
X0301253Y0014977D01*
X0301236Y0015170D01*
X0301224Y0015363D01*
X0301217Y0015556D01*
X0301215Y0015749D01*
D11*
X0340535Y0027772D02*
X0340535Y0001000D01*
X0033677Y0001000D01*
X0033677Y0027772D01*
X0023370Y0031370D02*
X0001000Y0031370D01*
X0001000Y0348244D01*
X0023370Y0348244D01*
X0023474Y0348131D01*
X0023580Y0348021D01*
X0023689Y0347913D01*
X0023801Y0347809D01*
X0023916Y0347708D01*
X0024033Y0347609D01*
X0024153Y0347514D01*
X0024275Y0347421D01*
X0024400Y0347332D01*
X0024527Y0347246D01*
X0024656Y0347164D01*
X0024787Y0347085D01*
X0024920Y0347009D01*
X0025055Y0346937D01*
X0025192Y0346868D01*
X0025331Y0346803D01*
X0025471Y0346742D01*
X0025613Y0346684D01*
X0025756Y0346630D01*
X0025901Y0346579D01*
X0026047Y0346533D01*
X0026194Y0346490D01*
X0026342Y0346451D01*
X0026491Y0346416D01*
X0026641Y0346384D01*
X0026792Y0346357D01*
X0026943Y0346333D01*
X0027095Y0346314D01*
X0027247Y0346298D01*
X0027400Y0346287D01*
X0027553Y0346279D01*
X0027706Y0346275D01*
X0027859Y0346276D01*
X0028012Y0346280D01*
X0028165Y0346288D01*
X0028318Y0346300D01*
X0028470Y0346316D01*
X0028622Y0346336D01*
X0028773Y0346360D01*
X0028924Y0346388D01*
X0029074Y0346420D01*
X0029223Y0346456D01*
X0029371Y0346495D01*
X0029518Y0346539D01*
X0029663Y0346586D01*
X0029808Y0346637D01*
X0029951Y0346692D01*
X0030092Y0346750D01*
X0030232Y0346812D01*
X0030371Y0346878D01*
X0030507Y0346947D01*
X0030642Y0347019D01*
X0030775Y0347096D01*
X0030906Y0347175D01*
X0031035Y0347258D01*
X0031161Y0347344D01*
X0031286Y0347434D01*
X0031408Y0347527D01*
X0031527Y0347622D01*
X0031644Y0347721D01*
X0031758Y0347823D01*
X0031870Y0347928D01*
X0031979Y0348036D01*
X0032085Y0348146D01*
X0032188Y0348259D01*
X0032288Y0348375D01*
X0032385Y0348494D01*
X0032480Y0348615D01*
X0032570Y0348738D01*
X0032658Y0348863D01*
X0032743Y0348991D01*
X0032824Y0349121D01*
X0032901Y0349253D01*
X0032975Y0349387D01*
X0033046Y0349523D01*
X0033113Y0349661D01*
X0033177Y0349800D01*
X0033237Y0349941D01*
X0033293Y0350083D01*
X0033346Y0350227D01*
X0033394Y0350373D01*
X0033439Y0350519D01*
X0033481Y0350666D01*
X0033518Y0350815D01*
X0033551Y0350964D01*
X0033581Y0351115D01*
X0033607Y0351266D01*
X0033628Y0351417D01*
X0033646Y0351569D01*
X0033660Y0351722D01*
X0033670Y0351875D01*
X0033676Y0352028D01*
X0033678Y0352181D01*
X0033677Y0352181D02*
X0033677Y0378953D01*
X0352181Y0378953D01*
X0352181Y0352181D01*
X0352183Y0352028D01*
X0352189Y0351875D01*
X0352199Y0351722D01*
X0352213Y0351569D01*
X0352231Y0351417D01*
X0352252Y0351266D01*
X0352278Y0351115D01*
X0352308Y0350964D01*
X0352341Y0350815D01*
X0352378Y0350666D01*
X0352420Y0350519D01*
X0352465Y0350373D01*
X0352513Y0350227D01*
X0352566Y0350083D01*
X0352622Y0349941D01*
X0352682Y0349800D01*
X0352746Y0349661D01*
X0352813Y0349523D01*
X0352884Y0349387D01*
X0352958Y0349253D01*
X0353035Y0349121D01*
X0353116Y0348991D01*
X0353201Y0348863D01*
X0353289Y0348738D01*
X0353379Y0348615D01*
X0353474Y0348494D01*
X0353571Y0348375D01*
X0353671Y0348259D01*
X0353774Y0348146D01*
X0353880Y0348036D01*
X0353989Y0347928D01*
X0354101Y0347823D01*
X0354215Y0347721D01*
X0354332Y0347622D01*
X0354451Y0347527D01*
X0354573Y0347434D01*
X0354698Y0347344D01*
X0354824Y0347258D01*
X0354953Y0347175D01*
X0355084Y0347096D01*
X0355217Y0347019D01*
X0355352Y0346947D01*
X0355488Y0346878D01*
X0355627Y0346812D01*
X0355767Y0346750D01*
X0355908Y0346692D01*
X0356051Y0346637D01*
X0356196Y0346586D01*
X0356341Y0346539D01*
X0356488Y0346495D01*
X0356636Y0346456D01*
X0356785Y0346420D01*
X0356935Y0346388D01*
X0357086Y0346360D01*
X0357237Y0346336D01*
X0357389Y0346316D01*
X0357541Y0346300D01*
X0357694Y0346288D01*
X0357847Y0346280D01*
X0358000Y0346276D01*
X0358153Y0346275D01*
X0358306Y0346279D01*
X0358459Y0346287D01*
X0358612Y0346298D01*
X0358764Y0346314D01*
X0358916Y0346333D01*
X0359067Y0346357D01*
X0359218Y0346384D01*
X0359368Y0346416D01*
X0359517Y0346451D01*
X0359665Y0346490D01*
X0359812Y0346533D01*
X0359958Y0346579D01*
X0360103Y0346630D01*
X0360246Y0346684D01*
X0360388Y0346742D01*
X0360528Y0346803D01*
X0360667Y0346868D01*
X0360804Y0346937D01*
X0360939Y0347009D01*
X0361072Y0347085D01*
X0361203Y0347164D01*
X0361332Y0347246D01*
X0361459Y0347332D01*
X0361584Y0347421D01*
X0361706Y0347514D01*
X0361826Y0347609D01*
X0361943Y0347708D01*
X0362058Y0347809D01*
X0362170Y0347913D01*
X0362279Y0348021D01*
X0362385Y0348131D01*
X0362489Y0348244D01*
X0362488Y0348244D02*
X0378953Y0348244D01*
X0378953Y0031709D01*
X0350844Y0031709D01*
X0350845Y0031709D02*
X0350741Y0031822D01*
X0350635Y0031932D01*
X0350525Y0032039D01*
X0350413Y0032144D01*
X0350298Y0032245D01*
X0350181Y0032344D01*
X0350061Y0032439D01*
X0349939Y0032532D01*
X0349815Y0032621D01*
X0349688Y0032707D01*
X0349559Y0032789D01*
X0349427Y0032868D01*
X0349294Y0032944D01*
X0349159Y0033016D01*
X0349022Y0033085D01*
X0348884Y0033150D01*
X0348743Y0033212D01*
X0348601Y0033270D01*
X0348458Y0033324D01*
X0348314Y0033374D01*
X0348168Y0033421D01*
X0348021Y0033464D01*
X0347872Y0033503D01*
X0347723Y0033538D01*
X0347573Y0033569D01*
X0347423Y0033597D01*
X0347271Y0033620D01*
X0347119Y0033640D01*
X0346967Y0033656D01*
X0346814Y0033667D01*
X0346661Y0033675D01*
X0346508Y0033679D01*
X0346355Y0033678D01*
X0346202Y0033674D01*
X0346049Y0033666D01*
X0345896Y0033654D01*
X0345744Y0033638D01*
X0345592Y0033618D01*
X0345440Y0033594D01*
X0345290Y0033566D01*
X0345140Y0033534D01*
X0344991Y0033498D01*
X0344843Y0033459D01*
X0344696Y0033415D01*
X0344550Y0033368D01*
X0344406Y0033317D01*
X0344262Y0033263D01*
X0344121Y0033204D01*
X0343981Y0033142D01*
X0343842Y0033077D01*
X0343706Y0033007D01*
X0343571Y0032935D01*
X0343438Y0032858D01*
X0343307Y0032779D01*
X0343178Y0032696D01*
X0343052Y0032610D01*
X0342927Y0032520D01*
X0342805Y0032427D01*
X0342686Y0032331D01*
X0342569Y0032233D01*
X0342454Y0032131D01*
X0342343Y0032026D01*
X0342234Y0031918D01*
X0342128Y0031807D01*
X0342025Y0031694D01*
X0341924Y0031578D01*
X0341827Y0031460D01*
X0341733Y0031339D01*
X0341642Y0031216D01*
X0341554Y0031090D01*
X0341470Y0030962D01*
X0341389Y0030832D01*
X0341311Y0030700D01*
X0341237Y0030566D01*
X0341166Y0030430D01*
X0341099Y0030292D01*
X0341036Y0030153D01*
X0340976Y0030012D01*
X0340920Y0029870D01*
X0340867Y0029726D01*
X0340818Y0029580D01*
X0340773Y0029434D01*
X0340732Y0029286D01*
X0340695Y0029138D01*
X0340661Y0028988D01*
X0340632Y0028838D01*
X0340606Y0028687D01*
X0340584Y0028535D01*
X0340567Y0028383D01*
X0340553Y0028231D01*
X0340543Y0028078D01*
X0340537Y0027925D01*
X0340535Y0027771D01*
D12*
X0033677Y0027771D02*
X0033670Y0027923D01*
X0033660Y0028074D01*
X0033646Y0028225D01*
X0033628Y0028375D01*
X0033606Y0028525D01*
X0033580Y0028674D01*
X0033550Y0028823D01*
X0033516Y0028971D01*
X0033479Y0029118D01*
X0033438Y0029263D01*
X0033393Y0029408D01*
X0033344Y0029552D01*
X0033292Y0029694D01*
X0033236Y0029835D01*
X0033176Y0029974D01*
X0033113Y0030111D01*
X0033046Y0030247D01*
X0032975Y0030382D01*
X0032902Y0030514D01*
X0032824Y0030644D01*
X0032744Y0030773D01*
X0032660Y0030899D01*
X0032573Y0031023D01*
X0032483Y0031145D01*
X0032389Y0031264D01*
X0032293Y0031381D01*
X0032193Y0031495D01*
X0032091Y0031607D01*
X0031985Y0031716D01*
X0031877Y0031822D01*
X0031767Y0031925D01*
X0031653Y0032026D01*
X0031537Y0032123D01*
X0031419Y0032218D01*
X0031298Y0032309D01*
X0031175Y0032397D01*
X0031049Y0032482D01*
X0030922Y0032564D01*
X0030792Y0032642D01*
X0030660Y0032717D01*
X0030527Y0032789D01*
X0030391Y0032857D01*
X0030254Y0032921D01*
X0030115Y0032982D01*
X0029975Y0033039D01*
X0029833Y0033093D01*
X0029690Y0033143D01*
X0029546Y0033189D01*
X0029400Y0033232D01*
X0029254Y0033270D01*
X0029106Y0033305D01*
X0028958Y0033336D01*
X0028809Y0033363D01*
X0028659Y0033387D01*
X0028509Y0033406D01*
X0028358Y0033422D01*
X0028207Y0033433D01*
X0028056Y0033441D01*
X0027904Y0033445D01*
X0027753Y0033444D01*
X0027601Y0033440D01*
X0027450Y0033432D01*
X0027299Y0033420D01*
X0027148Y0033404D01*
X0026998Y0033385D01*
X0026848Y0033361D01*
X0026699Y0033333D01*
X0026551Y0033302D01*
X0026404Y0033267D01*
X0026257Y0033228D01*
X0026112Y0033185D01*
X0025968Y0033138D01*
X0025825Y0033088D01*
X0025683Y0033034D01*
X0025543Y0032976D01*
X0025405Y0032915D01*
X0025268Y0032850D01*
X0025132Y0032782D01*
X0024999Y0032710D01*
X0024868Y0032635D01*
X0024738Y0032556D01*
X0024611Y0032474D01*
X0024485Y0032389D01*
X0024362Y0032300D01*
X0024242Y0032209D01*
X0024123Y0032114D01*
X0024008Y0032016D01*
X0023895Y0031915D01*
X0023784Y0031812D01*
X0023676Y0031705D01*
X0023571Y0031596D01*
X0023469Y0031484D01*
X0023370Y0031370D01*
M02*
