G75*
%MOIN*%
%OFA0B0*%
%FSLAX25Y25*%
%IPPOS*%
%LPD*%
%AMOC8*
5,1,8,0,0,1.08239X$1,22.5*
%
%ADD10R,0.01575X0.04724*%
%ADD11R,0.05118X0.05906*%
%ADD12R,0.04803X0.03583*%
%ADD13R,0.02756X0.03543*%
%ADD14R,0.02200X0.07800*%
%ADD15R,0.07874X0.13386*%
%ADD16R,0.03543X0.02756*%
%ADD17R,0.04134X0.19291*%
%ADD18C,0.08858*%
%ADD19R,0.03504X0.15748*%
%ADD20C,0.02559*%
%ADD21C,0.04000*%
%ADD22C,0.01600*%
%ADD23C,0.02362*%
%ADD24C,0.00600*%
%ADD25C,0.10000*%
%ADD26C,0.02400*%
%ADD27C,0.05000*%
%ADD28C,0.02000*%
%ADD29C,0.01000*%
D10*
X0182441Y0227560D03*
X0187559Y0227560D03*
X0187559Y0235040D03*
X0185000Y0235040D03*
X0182441Y0235040D03*
D11*
X0182954Y0215300D03*
X0189646Y0215300D03*
X0183646Y0263700D03*
X0176954Y0263700D03*
D12*
X0241380Y0211167D03*
X0241380Y0198273D03*
D13*
X0183759Y0250400D03*
X0178641Y0250400D03*
D14*
X0048274Y0101574D03*
X0043274Y0101574D03*
X0038274Y0101574D03*
X0033274Y0101574D03*
X0033274Y0082174D03*
X0038274Y0082174D03*
X0043274Y0082174D03*
X0048274Y0082174D03*
D15*
X0086112Y0313913D03*
X0106112Y0313913D03*
X0146112Y0313913D03*
X0156112Y0313913D03*
X0238900Y0313913D03*
X0258900Y0313913D03*
X0298900Y0313913D03*
X0308900Y0313913D03*
D16*
X0287826Y0313941D03*
X0287826Y0319059D03*
X0131100Y0317896D03*
X0131100Y0312778D03*
D17*
X0177893Y0282300D03*
X0189507Y0282300D03*
X0203841Y0282100D03*
X0215455Y0282100D03*
D18*
X0030783Y0057748D03*
X0054690Y0031748D03*
D19*
X0053205Y0044740D03*
X0061079Y0053992D03*
X0068953Y0044740D03*
X0076827Y0053992D03*
X0084701Y0044740D03*
X0092575Y0053992D03*
X0100449Y0044740D03*
X0108323Y0053992D03*
X0116197Y0044740D03*
X0124071Y0053992D03*
X0131945Y0044740D03*
X0139819Y0053992D03*
D20*
X0035600Y0036500D03*
X0050100Y0071700D03*
X0064100Y0070300D03*
X0069200Y0062300D03*
X0097200Y0018900D03*
X0110900Y0017800D03*
X0072800Y0148000D03*
X0098000Y0168300D03*
X0036300Y0147900D03*
X0074100Y0243300D03*
X0051400Y0251500D03*
X0133400Y0348100D03*
X0140500Y0360900D03*
X0169700Y0347500D03*
X0275900Y0348300D03*
X0245800Y0183300D03*
X0278600Y0175200D03*
X0305500Y0176000D03*
X0299300Y0071600D03*
X0175500Y0175200D03*
D21*
X0188200Y0201800D02*
X0225200Y0201800D01*
X0234567Y0211167D01*
X0241380Y0211167D01*
X0258680Y0211167D01*
X0265200Y0204647D01*
X0265200Y0175000D01*
X0258323Y0168123D01*
X0098177Y0168123D01*
X0110700Y0139500D02*
X0110800Y0139400D01*
X0136100Y0139400D01*
X0136500Y0139400D01*
X0136600Y0139500D01*
X0169600Y0139500D01*
X0169700Y0139400D01*
X0170100Y0139400D01*
X0170200Y0139300D01*
X0187300Y0139300D01*
X0186800Y0138800D01*
X0197500Y0138800D01*
X0198100Y0139400D01*
X0238500Y0139400D01*
X0266000Y0139400D01*
X0245800Y0183300D02*
X0241380Y0187720D01*
X0241380Y0198273D01*
X0188200Y0201800D02*
X0182954Y0207046D01*
X0182954Y0215300D01*
X0186800Y0138800D02*
X0184300Y0136300D01*
X0184300Y0122400D01*
X0157800Y0095900D01*
X0119631Y0095900D01*
X0108323Y0084592D01*
X0108323Y0053992D01*
X0116197Y0046118D01*
X0053205Y0044740D02*
X0043840Y0044740D01*
X0035600Y0036500D01*
X0053205Y0044740D02*
X0053205Y0054540D01*
X0049997Y0057748D01*
X0030783Y0057748D01*
X0131100Y0312778D02*
X0146090Y0312778D01*
X0146112Y0312800D01*
X0143700Y0366300D02*
X0155800Y0366300D01*
X0157900Y0366300D01*
X0212046Y0366300D01*
X0225000Y0366200D02*
X0240100Y0366200D01*
X0240400Y0365900D01*
X0143700Y0366300D02*
X0140600Y0366300D01*
D22*
X0134295Y0352600D02*
X0132505Y0352600D01*
X0130851Y0351915D01*
X0127951Y0349015D01*
X0126685Y0347749D01*
X0126000Y0346095D01*
X0126000Y0329105D01*
X0126685Y0327451D01*
X0127500Y0326636D01*
X0127500Y0320274D01*
X0127328Y0320102D01*
X0127328Y0315690D01*
X0127681Y0315337D01*
X0127328Y0314984D01*
X0127328Y0314125D01*
X0127100Y0313574D01*
X0127100Y0311982D01*
X0127328Y0311431D01*
X0127328Y0310572D01*
X0128500Y0309400D01*
X0128821Y0309400D01*
X0128834Y0309387D01*
X0130304Y0308778D01*
X0140175Y0308778D01*
X0140175Y0306392D01*
X0141346Y0305220D01*
X0150877Y0305220D01*
X0151302Y0305646D01*
X0151480Y0305543D01*
X0151938Y0305420D01*
X0155312Y0305420D01*
X0155312Y0313113D01*
X0156912Y0313113D01*
X0156912Y0305420D01*
X0160286Y0305420D01*
X0160744Y0305543D01*
X0161154Y0305780D01*
X0161489Y0306115D01*
X0161726Y0306526D01*
X0161849Y0306983D01*
X0161849Y0313113D01*
X0156912Y0313113D01*
X0156912Y0314713D01*
X0161849Y0314713D01*
X0161849Y0320843D01*
X0161726Y0321301D01*
X0161489Y0321712D01*
X0161154Y0322047D01*
X0160744Y0322284D01*
X0160286Y0322406D01*
X0156912Y0322406D01*
X0156912Y0314713D01*
X0155312Y0314713D01*
X0155312Y0322406D01*
X0151938Y0322406D01*
X0151480Y0322284D01*
X0151302Y0322181D01*
X0150877Y0322606D01*
X0141346Y0322606D01*
X0140175Y0321435D01*
X0140175Y0316778D01*
X0134872Y0316778D01*
X0134872Y0320102D01*
X0133700Y0321274D01*
X0133500Y0321274D01*
X0133500Y0326636D01*
X0134315Y0327451D01*
X0135000Y0329105D01*
X0135000Y0343336D01*
X0137215Y0345551D01*
X0137900Y0347205D01*
X0137900Y0348995D01*
X0137215Y0350649D01*
X0135949Y0351915D01*
X0134295Y0352600D01*
X0136790Y0351074D02*
X0166910Y0351074D01*
X0165885Y0350049D02*
X0165200Y0348395D01*
X0165200Y0346605D01*
X0165885Y0344951D01*
X0167151Y0343685D01*
X0168805Y0343000D01*
X0170595Y0343000D01*
X0172249Y0343685D01*
X0172364Y0343800D01*
X0223101Y0343800D01*
X0211466Y0332165D01*
X0210400Y0329592D01*
X0210400Y0326808D01*
X0210400Y0310999D01*
X0208301Y0308900D01*
X0170608Y0308900D01*
X0168035Y0307834D01*
X0166066Y0305865D01*
X0161501Y0301300D01*
X0114499Y0301300D01*
X0113112Y0302688D01*
X0113112Y0315306D01*
X0112049Y0317872D01*
X0112049Y0321435D01*
X0110877Y0322606D01*
X0101346Y0322606D01*
X0100175Y0321435D01*
X0100175Y0317872D01*
X0099112Y0315306D01*
X0099112Y0298396D01*
X0100177Y0295823D01*
X0106701Y0289300D01*
X0096799Y0289300D01*
X0093112Y0292988D01*
X0093112Y0315306D01*
X0092049Y0317872D01*
X0092049Y0321435D01*
X0090877Y0322606D01*
X0081346Y0322606D01*
X0080175Y0321435D01*
X0080175Y0317872D01*
X0079112Y0315306D01*
X0079112Y0288696D01*
X0080177Y0286123D01*
X0089935Y0276366D01*
X0092508Y0275300D01*
X0173826Y0275300D01*
X0173826Y0271826D01*
X0174998Y0270654D01*
X0180788Y0270654D01*
X0181960Y0271826D01*
X0181960Y0276467D01*
X0183700Y0278208D01*
X0185440Y0276467D01*
X0185440Y0271826D01*
X0186612Y0270654D01*
X0192402Y0270654D01*
X0193574Y0271826D01*
X0193574Y0275300D01*
X0196641Y0275300D01*
X0196641Y0259719D01*
X0191074Y0265286D01*
X0190286Y0266074D01*
X0189257Y0266500D01*
X0188205Y0266500D01*
X0188205Y0267481D01*
X0187034Y0268653D01*
X0180259Y0268653D01*
X0179994Y0268387D01*
X0179750Y0268453D01*
X0177433Y0268453D01*
X0177433Y0264180D01*
X0176474Y0264180D01*
X0176474Y0268453D01*
X0174158Y0268453D01*
X0173700Y0268330D01*
X0173289Y0268093D01*
X0172954Y0267758D01*
X0172717Y0267348D01*
X0172594Y0266890D01*
X0172594Y0264180D01*
X0176474Y0264180D01*
X0176474Y0263220D01*
X0177433Y0263220D01*
X0177433Y0258947D01*
X0179750Y0258947D01*
X0179994Y0259013D01*
X0180259Y0258747D01*
X0180346Y0258747D01*
X0180346Y0254172D01*
X0176435Y0254172D01*
X0175263Y0253000D01*
X0175263Y0247800D01*
X0176435Y0246628D01*
X0177853Y0246628D01*
X0184759Y0239722D01*
X0184759Y0239202D01*
X0183976Y0239202D01*
X0183720Y0239134D01*
X0183465Y0239202D01*
X0182441Y0239202D01*
X0182441Y0237745D01*
X0182441Y0239202D01*
X0181417Y0239202D01*
X0180959Y0239080D01*
X0180548Y0238843D01*
X0180213Y0238508D01*
X0179976Y0238097D01*
X0179854Y0237639D01*
X0179854Y0235040D01*
X0179854Y0232441D01*
X0179976Y0231983D01*
X0180213Y0231573D01*
X0180486Y0231300D01*
X0180213Y0231027D01*
X0179976Y0230617D01*
X0179854Y0230159D01*
X0179854Y0227560D01*
X0182441Y0227560D01*
X0182441Y0227560D01*
X0182441Y0232335D01*
X0182441Y0232335D01*
X0182441Y0231722D01*
X0182441Y0227560D01*
X0182441Y0215813D01*
X0182954Y0215300D01*
X0182474Y0215201D02*
X0056100Y0215201D01*
X0056100Y0216799D02*
X0178594Y0216799D01*
X0178594Y0215780D02*
X0178594Y0218490D01*
X0178717Y0218948D01*
X0178954Y0219358D01*
X0179289Y0219693D01*
X0179700Y0219930D01*
X0180158Y0220053D01*
X0182474Y0220053D01*
X0182474Y0215780D01*
X0183433Y0215780D01*
X0183433Y0220053D01*
X0185750Y0220053D01*
X0185994Y0219987D01*
X0186133Y0220126D01*
X0185973Y0220286D01*
X0185185Y0221074D01*
X0184759Y0222103D01*
X0184759Y0224249D01*
X0184669Y0224092D01*
X0184334Y0223757D01*
X0183923Y0223520D01*
X0183465Y0223398D01*
X0182441Y0223398D01*
X0182441Y0227560D01*
X0182441Y0235040D01*
X0184759Y0235040D01*
X0184759Y0235040D01*
X0182441Y0235040D01*
X0182441Y0235040D01*
X0180941Y0235040D01*
X0168063Y0247918D01*
X0168063Y0252909D01*
X0176954Y0261800D01*
X0176954Y0263700D01*
X0176474Y0263220D02*
X0176474Y0258947D01*
X0174158Y0258947D01*
X0173700Y0259070D01*
X0173289Y0259307D01*
X0172954Y0259642D01*
X0172717Y0260052D01*
X0172594Y0260510D01*
X0172594Y0263220D01*
X0176474Y0263220D01*
X0176474Y0263156D02*
X0177433Y0263156D01*
X0177433Y0264754D02*
X0176474Y0264754D01*
X0176474Y0266353D02*
X0177433Y0266353D01*
X0177433Y0267951D02*
X0176474Y0267951D01*
X0173148Y0267951D02*
X0056100Y0267951D01*
X0056100Y0266353D02*
X0172594Y0266353D01*
X0172594Y0264754D02*
X0056100Y0264754D01*
X0056100Y0263156D02*
X0172594Y0263156D01*
X0172594Y0261557D02*
X0056100Y0261557D01*
X0056100Y0259959D02*
X0172771Y0259959D01*
X0176474Y0259959D02*
X0177433Y0259959D01*
X0177433Y0261557D02*
X0176474Y0261557D01*
X0180346Y0258360D02*
X0056100Y0258360D01*
X0056100Y0256762D02*
X0180346Y0256762D01*
X0180346Y0255163D02*
X0056100Y0255163D01*
X0056100Y0253565D02*
X0175828Y0253565D01*
X0175263Y0251966D02*
X0056100Y0251966D01*
X0056100Y0250368D02*
X0175263Y0250368D01*
X0175263Y0248769D02*
X0056100Y0248769D01*
X0056100Y0247171D02*
X0175892Y0247171D01*
X0178909Y0245572D02*
X0056100Y0245572D01*
X0056100Y0243974D02*
X0180507Y0243974D01*
X0182106Y0242375D02*
X0056100Y0242375D01*
X0056100Y0240777D02*
X0183704Y0240777D01*
X0183555Y0239178D02*
X0183885Y0239178D01*
X0182441Y0239178D02*
X0182441Y0239178D01*
X0181326Y0239178D02*
X0056100Y0239178D01*
X0056100Y0237580D02*
X0179854Y0237580D01*
X0179854Y0235981D02*
X0056100Y0235981D01*
X0056100Y0234383D02*
X0179854Y0234383D01*
X0179854Y0235040D02*
X0182441Y0235040D01*
X0185000Y0235040D01*
X0187559Y0235040D02*
X0187559Y0240882D01*
X0178641Y0249800D01*
X0178641Y0250400D01*
X0182441Y0237745D02*
X0182441Y0237745D01*
X0182441Y0235040D02*
X0179854Y0235040D01*
X0179854Y0232784D02*
X0056100Y0232784D01*
X0056100Y0231186D02*
X0180372Y0231186D01*
X0179854Y0229587D02*
X0056100Y0229587D01*
X0056100Y0227989D02*
X0179854Y0227989D01*
X0179854Y0227560D02*
X0179854Y0224961D01*
X0179976Y0224503D01*
X0180213Y0224092D01*
X0180548Y0223757D01*
X0180959Y0223520D01*
X0181417Y0223398D01*
X0182441Y0223398D01*
X0182441Y0227560D01*
X0182441Y0227560D01*
X0182441Y0227560D01*
X0179854Y0227560D01*
X0179854Y0226390D02*
X0056100Y0226390D01*
X0056100Y0224792D02*
X0179899Y0224792D01*
X0182441Y0224792D02*
X0182441Y0224792D01*
X0182441Y0226390D02*
X0182441Y0226390D01*
X0182441Y0227989D02*
X0182441Y0227989D01*
X0182441Y0229587D02*
X0182441Y0229587D01*
X0182441Y0231186D02*
X0182441Y0231186D01*
X0182441Y0235040D02*
X0182441Y0235040D01*
X0187559Y0227560D02*
X0187559Y0222660D01*
X0189046Y0221172D01*
X0189046Y0215900D01*
X0186002Y0219996D02*
X0185961Y0219996D01*
X0184970Y0221595D02*
X0056100Y0221595D01*
X0056100Y0223193D02*
X0184759Y0223193D01*
X0183433Y0219996D02*
X0182474Y0219996D01*
X0182474Y0218398D02*
X0183433Y0218398D01*
X0183433Y0216799D02*
X0182474Y0216799D01*
X0182474Y0215780D02*
X0178594Y0215780D01*
X0178594Y0214820D02*
X0178594Y0212110D01*
X0178717Y0211652D01*
X0178954Y0211242D01*
X0179289Y0210907D01*
X0179700Y0210670D01*
X0180158Y0210547D01*
X0182474Y0210547D01*
X0182474Y0214820D01*
X0183433Y0214820D01*
X0183433Y0210547D01*
X0185750Y0210547D01*
X0185994Y0210613D01*
X0186259Y0210347D01*
X0193034Y0210347D01*
X0194205Y0211519D01*
X0194205Y0214400D01*
X0237876Y0214400D01*
X0237873Y0214399D01*
X0237538Y0214063D01*
X0237301Y0213653D01*
X0237178Y0213195D01*
X0237178Y0211263D01*
X0241284Y0211263D01*
X0241284Y0211071D01*
X0237178Y0211071D01*
X0237178Y0209139D01*
X0237301Y0208681D01*
X0237538Y0208270D01*
X0237873Y0207935D01*
X0238284Y0207698D01*
X0238741Y0207576D01*
X0241284Y0207576D01*
X0241284Y0211071D01*
X0241476Y0211071D01*
X0241476Y0211263D01*
X0245582Y0211263D01*
X0245582Y0213195D01*
X0245459Y0213653D01*
X0245222Y0214063D01*
X0244887Y0214399D01*
X0244884Y0214400D01*
X0280964Y0214400D01*
X0290364Y0205000D01*
X0087300Y0205000D01*
X0086900Y0204600D01*
X0086900Y0177700D01*
X0070903Y0177700D01*
X0069984Y0177319D01*
X0069281Y0176616D01*
X0056100Y0163436D01*
X0056100Y0188744D01*
X0056217Y0188891D01*
X0056872Y0191760D01*
X0056217Y0194629D01*
X0056100Y0194776D01*
X0056100Y0352400D01*
X0089900Y0352400D01*
X0089600Y0352700D01*
X0089600Y0372200D01*
X0089500Y0372300D01*
X0089600Y0372400D01*
X0294500Y0372400D01*
X0294700Y0372200D01*
X0294700Y0355300D01*
X0302831Y0355300D01*
X0306198Y0353623D01*
X0310202Y0353252D01*
X0314070Y0354353D01*
X0315324Y0355300D01*
X0349413Y0355300D01*
X0349413Y0350414D01*
X0350795Y0347161D01*
X0353341Y0344709D01*
X0356600Y0343464D01*
X0356600Y0338771D01*
X0355374Y0335606D01*
X0355374Y0331585D01*
X0356600Y0328420D01*
X0356600Y0247799D01*
X0330165Y0274234D01*
X0327592Y0275300D01*
X0276299Y0275300D01*
X0265900Y0285699D01*
X0265900Y0334292D01*
X0264834Y0336865D01*
X0258634Y0343065D01*
X0257899Y0343800D01*
X0266600Y0343800D01*
X0266600Y0330705D01*
X0267285Y0329051D01*
X0268551Y0327785D01*
X0270205Y0327100D01*
X0271357Y0327100D01*
X0281098Y0317360D01*
X0281942Y0316516D01*
X0283044Y0316059D01*
X0284054Y0316059D01*
X0284054Y0311735D01*
X0285226Y0310563D01*
X0290426Y0310563D01*
X0290804Y0310941D01*
X0292963Y0310941D01*
X0292963Y0306392D01*
X0294135Y0305220D01*
X0303665Y0305220D01*
X0304091Y0305646D01*
X0304268Y0305543D01*
X0304726Y0305420D01*
X0308100Y0305420D01*
X0308100Y0313113D01*
X0309700Y0313113D01*
X0309700Y0305420D01*
X0313074Y0305420D01*
X0313532Y0305543D01*
X0313942Y0305780D01*
X0314277Y0306115D01*
X0314514Y0306526D01*
X0314637Y0306983D01*
X0314637Y0313113D01*
X0309700Y0313113D01*
X0309700Y0314713D01*
X0314637Y0314713D01*
X0314637Y0320843D01*
X0314514Y0321301D01*
X0314277Y0321712D01*
X0313942Y0322047D01*
X0313532Y0322284D01*
X0313074Y0322406D01*
X0309700Y0322406D01*
X0309700Y0314713D01*
X0308100Y0314713D01*
X0308100Y0322406D01*
X0304726Y0322406D01*
X0304268Y0322284D01*
X0304091Y0322181D01*
X0303665Y0322606D01*
X0294135Y0322606D01*
X0292963Y0321435D01*
X0292963Y0316941D01*
X0291598Y0316941D01*
X0291598Y0321265D01*
X0290426Y0322437D01*
X0285226Y0322437D01*
X0284866Y0322077D01*
X0275600Y0331343D01*
X0275600Y0341636D01*
X0278449Y0344485D01*
X0279715Y0345751D01*
X0280400Y0347405D01*
X0280400Y0349195D01*
X0279715Y0350849D01*
X0278449Y0352115D01*
X0276795Y0352800D01*
X0169605Y0352800D01*
X0167951Y0352115D01*
X0165885Y0350049D01*
X0165648Y0349475D02*
X0137701Y0349475D01*
X0137900Y0347877D02*
X0165200Y0347877D01*
X0165335Y0346278D02*
X0137516Y0346278D01*
X0136344Y0344680D02*
X0166156Y0344680D01*
X0168608Y0343081D02*
X0135000Y0343081D01*
X0135000Y0341483D02*
X0220783Y0341483D01*
X0219185Y0339884D02*
X0135000Y0339884D01*
X0135000Y0338286D02*
X0217586Y0338286D01*
X0215988Y0336687D02*
X0135000Y0336687D01*
X0135000Y0335089D02*
X0214389Y0335089D01*
X0212791Y0333490D02*
X0135000Y0333490D01*
X0135000Y0331892D02*
X0211352Y0331892D01*
X0210690Y0330293D02*
X0135000Y0330293D01*
X0134830Y0328695D02*
X0210400Y0328695D01*
X0210400Y0327096D02*
X0133960Y0327096D01*
X0133500Y0325498D02*
X0210400Y0325498D01*
X0210400Y0323899D02*
X0133500Y0323899D01*
X0133500Y0322301D02*
X0141041Y0322301D01*
X0140175Y0320702D02*
X0134272Y0320702D01*
X0134872Y0319104D02*
X0140175Y0319104D01*
X0140175Y0317505D02*
X0134872Y0317505D01*
X0127328Y0317505D02*
X0112201Y0317505D01*
X0112049Y0319104D02*
X0127328Y0319104D01*
X0127500Y0320702D02*
X0112049Y0320702D01*
X0111183Y0322301D02*
X0127500Y0322301D01*
X0127500Y0323899D02*
X0056100Y0323899D01*
X0056100Y0322301D02*
X0081041Y0322301D01*
X0080175Y0320702D02*
X0056100Y0320702D01*
X0056100Y0319104D02*
X0080175Y0319104D01*
X0080023Y0317505D02*
X0056100Y0317505D01*
X0056100Y0315907D02*
X0079361Y0315907D01*
X0079112Y0314308D02*
X0056100Y0314308D01*
X0056100Y0312710D02*
X0079112Y0312710D01*
X0079112Y0311111D02*
X0056100Y0311111D01*
X0056100Y0309513D02*
X0079112Y0309513D01*
X0079112Y0307914D02*
X0056100Y0307914D01*
X0056100Y0306316D02*
X0079112Y0306316D01*
X0079112Y0304717D02*
X0056100Y0304717D01*
X0056100Y0303119D02*
X0079112Y0303119D01*
X0079112Y0301520D02*
X0056100Y0301520D01*
X0056100Y0299922D02*
X0079112Y0299922D01*
X0079112Y0298323D02*
X0056100Y0298323D01*
X0056100Y0296725D02*
X0079112Y0296725D01*
X0079112Y0295126D02*
X0056100Y0295126D01*
X0056100Y0293528D02*
X0079112Y0293528D01*
X0079112Y0291929D02*
X0056100Y0291929D01*
X0056100Y0290331D02*
X0079112Y0290331D01*
X0079112Y0288732D02*
X0056100Y0288732D01*
X0056100Y0287134D02*
X0079759Y0287134D01*
X0080765Y0285535D02*
X0056100Y0285535D01*
X0056100Y0283937D02*
X0082364Y0283937D01*
X0083963Y0282338D02*
X0056100Y0282338D01*
X0056100Y0280739D02*
X0085561Y0280739D01*
X0087160Y0279141D02*
X0056100Y0279141D01*
X0056100Y0277542D02*
X0088758Y0277542D01*
X0090953Y0275944D02*
X0056100Y0275944D01*
X0056100Y0274345D02*
X0173826Y0274345D01*
X0173826Y0272747D02*
X0056100Y0272747D01*
X0056100Y0271148D02*
X0174503Y0271148D01*
X0181282Y0271148D02*
X0186118Y0271148D01*
X0185440Y0272747D02*
X0181960Y0272747D01*
X0181960Y0274345D02*
X0185440Y0274345D01*
X0185440Y0275944D02*
X0181960Y0275944D01*
X0183035Y0277542D02*
X0184365Y0277542D01*
X0193574Y0274345D02*
X0196641Y0274345D01*
X0196641Y0272747D02*
X0193574Y0272747D01*
X0192897Y0271148D02*
X0196641Y0271148D01*
X0196641Y0269550D02*
X0056100Y0269550D01*
X0093112Y0293528D02*
X0102473Y0293528D01*
X0100874Y0295126D02*
X0093112Y0295126D01*
X0093112Y0296725D02*
X0099804Y0296725D01*
X0099142Y0298323D02*
X0093112Y0298323D01*
X0093112Y0299922D02*
X0099112Y0299922D01*
X0099112Y0301520D02*
X0093112Y0301520D01*
X0093112Y0303119D02*
X0099112Y0303119D01*
X0099112Y0304717D02*
X0093112Y0304717D01*
X0093112Y0306316D02*
X0099112Y0306316D01*
X0099112Y0307914D02*
X0093112Y0307914D01*
X0093112Y0309513D02*
X0099112Y0309513D01*
X0099112Y0311111D02*
X0093112Y0311111D01*
X0093112Y0312710D02*
X0099112Y0312710D01*
X0099112Y0314308D02*
X0093112Y0314308D01*
X0092863Y0315907D02*
X0099361Y0315907D01*
X0100023Y0317505D02*
X0092201Y0317505D01*
X0092049Y0319104D02*
X0100175Y0319104D01*
X0100175Y0320702D02*
X0092049Y0320702D01*
X0091183Y0322301D02*
X0101041Y0322301D01*
X0112863Y0315907D02*
X0127328Y0315907D01*
X0127328Y0314308D02*
X0113112Y0314308D01*
X0113112Y0312710D02*
X0127100Y0312710D01*
X0127328Y0311111D02*
X0113112Y0311111D01*
X0113112Y0309513D02*
X0128387Y0309513D01*
X0140175Y0307914D02*
X0113112Y0307914D01*
X0113112Y0306316D02*
X0140251Y0306316D01*
X0155312Y0306316D02*
X0156912Y0306316D01*
X0156912Y0307914D02*
X0155312Y0307914D01*
X0155312Y0309513D02*
X0156912Y0309513D01*
X0156912Y0311111D02*
X0155312Y0311111D01*
X0155312Y0312710D02*
X0156912Y0312710D01*
X0156912Y0314308D02*
X0210400Y0314308D01*
X0210400Y0312710D02*
X0161849Y0312710D01*
X0161849Y0311111D02*
X0210400Y0311111D01*
X0208913Y0309513D02*
X0161849Y0309513D01*
X0161849Y0307914D02*
X0168228Y0307914D01*
X0166516Y0306316D02*
X0161605Y0306316D01*
X0163319Y0303119D02*
X0113112Y0303119D01*
X0113112Y0304717D02*
X0164918Y0304717D01*
X0161721Y0301520D02*
X0114279Y0301520D01*
X0104071Y0291929D02*
X0094170Y0291929D01*
X0095769Y0290331D02*
X0105670Y0290331D01*
X0127500Y0325498D02*
X0056100Y0325498D01*
X0056100Y0327096D02*
X0127040Y0327096D01*
X0126170Y0328695D02*
X0056100Y0328695D01*
X0056100Y0330293D02*
X0126000Y0330293D01*
X0126000Y0331892D02*
X0056100Y0331892D01*
X0056100Y0333490D02*
X0126000Y0333490D01*
X0126000Y0335089D02*
X0056100Y0335089D01*
X0056100Y0336687D02*
X0126000Y0336687D01*
X0126000Y0338286D02*
X0056100Y0338286D01*
X0056100Y0339884D02*
X0126000Y0339884D01*
X0126000Y0341483D02*
X0056100Y0341483D01*
X0056100Y0343081D02*
X0126000Y0343081D01*
X0126000Y0344680D02*
X0056100Y0344680D01*
X0056100Y0346278D02*
X0126076Y0346278D01*
X0126813Y0347877D02*
X0056100Y0347877D01*
X0056100Y0349475D02*
X0128412Y0349475D01*
X0130010Y0351074D02*
X0056100Y0351074D01*
X0089628Y0352672D02*
X0169297Y0352672D01*
X0170792Y0343081D02*
X0222382Y0343081D01*
X0210400Y0322301D02*
X0160680Y0322301D01*
X0161849Y0320702D02*
X0210400Y0320702D01*
X0210400Y0319104D02*
X0161849Y0319104D01*
X0161849Y0317505D02*
X0210400Y0317505D01*
X0210400Y0315907D02*
X0161849Y0315907D01*
X0156912Y0315907D02*
X0155312Y0315907D01*
X0155312Y0317505D02*
X0156912Y0317505D01*
X0156912Y0319104D02*
X0155312Y0319104D01*
X0155312Y0320702D02*
X0156912Y0320702D01*
X0156912Y0322301D02*
X0155312Y0322301D01*
X0151544Y0322301D02*
X0151183Y0322301D01*
X0187735Y0267951D02*
X0196641Y0267951D01*
X0196641Y0266353D02*
X0189612Y0266353D01*
X0191074Y0265286D02*
X0191074Y0265286D01*
X0191605Y0264754D02*
X0196641Y0264754D01*
X0196641Y0263156D02*
X0193204Y0263156D01*
X0194802Y0261557D02*
X0196641Y0261557D01*
X0196641Y0259959D02*
X0196401Y0259959D01*
X0194600Y0257800D02*
X0188700Y0263700D01*
X0183646Y0263700D01*
X0194600Y0257800D02*
X0194600Y0234500D01*
X0209100Y0220000D01*
X0285700Y0220000D01*
X0305500Y0200200D01*
X0305500Y0176000D01*
X0289755Y0205609D02*
X0056100Y0205609D01*
X0056100Y0204011D02*
X0086900Y0204011D01*
X0086900Y0202412D02*
X0056100Y0202412D01*
X0056100Y0200814D02*
X0086900Y0200814D01*
X0086900Y0199215D02*
X0056100Y0199215D01*
X0056100Y0197617D02*
X0086900Y0197617D01*
X0086900Y0196018D02*
X0056100Y0196018D01*
X0056217Y0194629D02*
X0056217Y0194629D01*
X0056265Y0194420D02*
X0086900Y0194420D01*
X0086900Y0192821D02*
X0056630Y0192821D01*
X0056872Y0191760D02*
X0056872Y0191760D01*
X0056749Y0191223D02*
X0086900Y0191223D01*
X0086900Y0189624D02*
X0056384Y0189624D01*
X0056100Y0188026D02*
X0086900Y0188026D01*
X0086900Y0186427D02*
X0056100Y0186427D01*
X0056100Y0184829D02*
X0086900Y0184829D01*
X0086900Y0183230D02*
X0056100Y0183230D01*
X0056100Y0181632D02*
X0086900Y0181632D01*
X0086900Y0180033D02*
X0056100Y0180033D01*
X0056100Y0178435D02*
X0086900Y0178435D01*
X0069501Y0176836D02*
X0056100Y0176836D01*
X0056100Y0175238D02*
X0067902Y0175238D01*
X0066304Y0173639D02*
X0056100Y0173639D01*
X0056100Y0172041D02*
X0064705Y0172041D01*
X0063107Y0170442D02*
X0056100Y0170442D01*
X0056100Y0168844D02*
X0061508Y0168844D01*
X0059910Y0167245D02*
X0056100Y0167245D01*
X0056100Y0165647D02*
X0058311Y0165647D01*
X0056713Y0164048D02*
X0056100Y0164048D01*
X0071261Y0149662D02*
X0086900Y0149662D01*
X0086900Y0150400D02*
X0086900Y0074700D01*
X0104323Y0074700D01*
X0104323Y0053196D01*
X0104571Y0052598D01*
X0104571Y0045290D01*
X0105742Y0044118D01*
X0110903Y0044118D01*
X0111722Y0044937D01*
X0112445Y0044213D01*
X0112445Y0036038D01*
X0113616Y0034866D01*
X0118777Y0034866D01*
X0119949Y0036038D01*
X0119949Y0044724D01*
X0120197Y0045322D01*
X0120197Y0046914D01*
X0119949Y0047513D01*
X0119949Y0053443D01*
X0118777Y0054614D01*
X0113616Y0054614D01*
X0113487Y0054485D01*
X0112323Y0055649D01*
X0112323Y0074700D01*
X0155100Y0074700D01*
X0154800Y0074400D01*
X0128422Y0074400D01*
X0127393Y0073974D01*
X0122485Y0069066D01*
X0121697Y0068278D01*
X0121271Y0067249D01*
X0121271Y0063647D01*
X0120319Y0062695D01*
X0120319Y0045290D01*
X0121490Y0044118D01*
X0126651Y0044118D01*
X0127823Y0045290D01*
X0127823Y0062695D01*
X0126871Y0063647D01*
X0126871Y0065532D01*
X0130139Y0068800D01*
X0154700Y0068800D01*
X0154700Y0026200D01*
X0103543Y0026200D01*
X0095575Y0034168D01*
X0095575Y0044538D01*
X0096327Y0045290D01*
X0096327Y0062695D01*
X0095155Y0063866D01*
X0089994Y0063866D01*
X0088823Y0062695D01*
X0088823Y0045290D01*
X0089575Y0044538D01*
X0089575Y0034568D01*
X0088279Y0035864D01*
X0088453Y0036038D01*
X0088453Y0053443D01*
X0087281Y0054614D01*
X0082120Y0054614D01*
X0080949Y0053443D01*
X0080949Y0036038D01*
X0081701Y0035286D01*
X0081701Y0034602D01*
X0082158Y0033500D01*
X0083001Y0032656D01*
X0089457Y0026200D01*
X0086999Y0026200D01*
X0077365Y0035834D01*
X0074792Y0036900D01*
X0072705Y0036900D01*
X0072705Y0053443D01*
X0072200Y0053947D01*
X0072200Y0060973D01*
X0072480Y0061648D01*
X0072480Y0062952D01*
X0071980Y0064158D01*
X0071058Y0065080D01*
X0069881Y0065568D01*
X0069881Y0089258D01*
X0069900Y0089239D01*
X0069900Y0071108D01*
X0070966Y0068535D01*
X0072935Y0066566D01*
X0073900Y0066166D01*
X0073900Y0063520D01*
X0073075Y0062695D01*
X0073075Y0045290D01*
X0074246Y0044118D01*
X0079407Y0044118D01*
X0080579Y0045290D01*
X0080579Y0062695D01*
X0079900Y0063373D01*
X0079900Y0066166D01*
X0080865Y0066566D01*
X0082834Y0068535D01*
X0083900Y0071108D01*
X0083900Y0093531D01*
X0082834Y0096104D01*
X0080865Y0098073D01*
X0069900Y0109038D01*
X0069900Y0148301D01*
X0071999Y0150400D01*
X0086900Y0150400D01*
X0086900Y0148063D02*
X0069900Y0148063D01*
X0069900Y0146465D02*
X0086900Y0146465D01*
X0086900Y0144866D02*
X0069900Y0144866D01*
X0069900Y0143268D02*
X0086900Y0143268D01*
X0086900Y0141669D02*
X0069900Y0141669D01*
X0069900Y0140070D02*
X0086900Y0140070D01*
X0086900Y0138472D02*
X0069900Y0138472D01*
X0069900Y0136873D02*
X0086900Y0136873D01*
X0086900Y0135275D02*
X0069900Y0135275D01*
X0069900Y0133676D02*
X0086900Y0133676D01*
X0086900Y0132078D02*
X0069900Y0132078D01*
X0069900Y0130479D02*
X0086900Y0130479D01*
X0086900Y0128881D02*
X0069900Y0128881D01*
X0069900Y0127282D02*
X0086900Y0127282D01*
X0086900Y0125684D02*
X0069900Y0125684D01*
X0069900Y0124085D02*
X0086900Y0124085D01*
X0086900Y0122487D02*
X0069900Y0122487D01*
X0069900Y0120888D02*
X0086900Y0120888D01*
X0086900Y0119290D02*
X0069900Y0119290D01*
X0069900Y0117691D02*
X0086900Y0117691D01*
X0086900Y0116093D02*
X0069900Y0116093D01*
X0069900Y0114494D02*
X0086900Y0114494D01*
X0086900Y0112896D02*
X0069900Y0112896D01*
X0069900Y0111297D02*
X0086900Y0111297D01*
X0086900Y0109699D02*
X0069900Y0109699D01*
X0070838Y0108100D02*
X0086900Y0108100D01*
X0086900Y0106502D02*
X0072436Y0106502D01*
X0074035Y0104903D02*
X0086900Y0104903D01*
X0086900Y0103305D02*
X0075633Y0103305D01*
X0077232Y0101706D02*
X0086900Y0101706D01*
X0086900Y0100108D02*
X0078830Y0100108D01*
X0080429Y0098509D02*
X0086900Y0098509D01*
X0086900Y0096911D02*
X0082027Y0096911D01*
X0083162Y0095312D02*
X0086900Y0095312D01*
X0086900Y0093714D02*
X0083824Y0093714D01*
X0083900Y0092115D02*
X0086900Y0092115D01*
X0086900Y0090517D02*
X0083900Y0090517D01*
X0083900Y0088918D02*
X0086900Y0088918D01*
X0086900Y0087320D02*
X0083900Y0087320D01*
X0083900Y0085721D02*
X0086900Y0085721D01*
X0086900Y0084123D02*
X0083900Y0084123D01*
X0083900Y0082524D02*
X0086900Y0082524D01*
X0086900Y0080926D02*
X0083900Y0080926D01*
X0083900Y0079327D02*
X0086900Y0079327D01*
X0086900Y0077729D02*
X0083900Y0077729D01*
X0083900Y0076130D02*
X0086900Y0076130D01*
X0083900Y0074532D02*
X0104323Y0074532D01*
X0104323Y0072933D02*
X0083900Y0072933D01*
X0083900Y0071334D02*
X0104323Y0071334D01*
X0104323Y0069736D02*
X0083332Y0069736D01*
X0082437Y0068137D02*
X0104323Y0068137D01*
X0104323Y0066539D02*
X0080801Y0066539D01*
X0079900Y0064940D02*
X0104323Y0064940D01*
X0104323Y0063342D02*
X0095679Y0063342D01*
X0096327Y0061743D02*
X0104323Y0061743D01*
X0104323Y0060145D02*
X0096327Y0060145D01*
X0096327Y0058546D02*
X0104323Y0058546D01*
X0104323Y0056948D02*
X0096327Y0056948D01*
X0096327Y0055349D02*
X0104323Y0055349D01*
X0104323Y0053751D02*
X0103610Y0053751D01*
X0103641Y0053719D02*
X0103306Y0054055D01*
X0102896Y0054291D01*
X0102438Y0054414D01*
X0100525Y0054414D01*
X0100525Y0044816D01*
X0104001Y0044816D01*
X0104001Y0052851D01*
X0103878Y0053309D01*
X0103641Y0053719D01*
X0104001Y0052152D02*
X0104571Y0052152D01*
X0104571Y0050554D02*
X0104001Y0050554D01*
X0104001Y0048955D02*
X0104571Y0048955D01*
X0104571Y0047357D02*
X0104001Y0047357D01*
X0104001Y0045758D02*
X0104571Y0045758D01*
X0104001Y0044664D02*
X0100525Y0044664D01*
X0100525Y0044816D01*
X0100373Y0044816D01*
X0100373Y0054414D01*
X0098460Y0054414D01*
X0098002Y0054291D01*
X0097592Y0054055D01*
X0097256Y0053719D01*
X0097020Y0053309D01*
X0096897Y0052851D01*
X0096897Y0044816D01*
X0100373Y0044816D01*
X0100373Y0044664D01*
X0100525Y0044664D01*
X0100525Y0035066D01*
X0102438Y0035066D01*
X0102896Y0035189D01*
X0103306Y0035426D01*
X0103641Y0035761D01*
X0103878Y0036171D01*
X0104001Y0036629D01*
X0104001Y0044664D01*
X0104001Y0044160D02*
X0105701Y0044160D01*
X0104001Y0042561D02*
X0112445Y0042561D01*
X0112445Y0040963D02*
X0104001Y0040963D01*
X0104001Y0039364D02*
X0112445Y0039364D01*
X0112445Y0037766D02*
X0104001Y0037766D01*
X0103876Y0036167D02*
X0112445Y0036167D01*
X0119949Y0036167D02*
X0128193Y0036167D01*
X0128193Y0036038D02*
X0129364Y0034866D01*
X0134525Y0034866D01*
X0135697Y0036038D01*
X0135697Y0053443D01*
X0134525Y0054614D01*
X0129364Y0054614D01*
X0128193Y0053443D01*
X0128193Y0036038D01*
X0128193Y0037766D02*
X0119949Y0037766D01*
X0119949Y0039364D02*
X0128193Y0039364D01*
X0128193Y0040963D02*
X0119949Y0040963D01*
X0119949Y0042561D02*
X0128193Y0042561D01*
X0128193Y0044160D02*
X0126693Y0044160D01*
X0127823Y0045758D02*
X0128193Y0045758D01*
X0128193Y0047357D02*
X0127823Y0047357D01*
X0127823Y0048955D02*
X0128193Y0048955D01*
X0128193Y0050554D02*
X0127823Y0050554D01*
X0127823Y0052152D02*
X0128193Y0052152D01*
X0128501Y0053751D02*
X0127823Y0053751D01*
X0127823Y0055349D02*
X0136267Y0055349D01*
X0136267Y0054068D02*
X0136267Y0062103D01*
X0136390Y0062561D01*
X0136627Y0062971D01*
X0136962Y0063306D01*
X0137372Y0063543D01*
X0137830Y0063666D01*
X0139743Y0063666D01*
X0139743Y0054068D01*
X0139743Y0053916D01*
X0139895Y0053916D01*
X0139895Y0054068D01*
X0143371Y0054068D01*
X0143371Y0062103D01*
X0143248Y0062561D01*
X0143011Y0062971D01*
X0142676Y0063306D01*
X0142266Y0063543D01*
X0141808Y0063666D01*
X0139895Y0063666D01*
X0139895Y0054068D01*
X0139743Y0054068D01*
X0136267Y0054068D01*
X0136267Y0053916D02*
X0136267Y0045881D01*
X0136390Y0045423D01*
X0136627Y0045013D01*
X0136962Y0044678D01*
X0137372Y0044441D01*
X0137830Y0044318D01*
X0139743Y0044318D01*
X0139743Y0053916D01*
X0136267Y0053916D01*
X0136267Y0053751D02*
X0135389Y0053751D01*
X0135697Y0052152D02*
X0136267Y0052152D01*
X0136267Y0050554D02*
X0135697Y0050554D01*
X0135697Y0048955D02*
X0136267Y0048955D01*
X0136267Y0047357D02*
X0135697Y0047357D01*
X0135697Y0045758D02*
X0136300Y0045758D01*
X0135697Y0044160D02*
X0154700Y0044160D01*
X0154700Y0045758D02*
X0143338Y0045758D01*
X0143371Y0045881D02*
X0143371Y0053916D01*
X0139895Y0053916D01*
X0139895Y0044318D01*
X0141808Y0044318D01*
X0142266Y0044441D01*
X0142676Y0044678D01*
X0143011Y0045013D01*
X0143248Y0045423D01*
X0143371Y0045881D01*
X0143371Y0047357D02*
X0154700Y0047357D01*
X0154700Y0048955D02*
X0143371Y0048955D01*
X0143371Y0050554D02*
X0154700Y0050554D01*
X0154700Y0052152D02*
X0143371Y0052152D01*
X0143371Y0053751D02*
X0154700Y0053751D01*
X0154700Y0055349D02*
X0143371Y0055349D01*
X0143371Y0056948D02*
X0154700Y0056948D01*
X0154700Y0058546D02*
X0143371Y0058546D01*
X0143371Y0060145D02*
X0154700Y0060145D01*
X0154700Y0061743D02*
X0143371Y0061743D01*
X0142615Y0063342D02*
X0154700Y0063342D01*
X0154700Y0064940D02*
X0126871Y0064940D01*
X0127175Y0063342D02*
X0137023Y0063342D01*
X0136267Y0061743D02*
X0127823Y0061743D01*
X0127823Y0060145D02*
X0136267Y0060145D01*
X0136267Y0058546D02*
X0127823Y0058546D01*
X0127823Y0056948D02*
X0136267Y0056948D01*
X0139743Y0056948D02*
X0139895Y0056948D01*
X0139895Y0058546D02*
X0139743Y0058546D01*
X0139743Y0060145D02*
X0139895Y0060145D01*
X0139895Y0061743D02*
X0139743Y0061743D01*
X0139743Y0063342D02*
X0139895Y0063342D01*
X0139895Y0055349D02*
X0139743Y0055349D01*
X0139743Y0053751D02*
X0139895Y0053751D01*
X0139895Y0052152D02*
X0139743Y0052152D01*
X0139743Y0050554D02*
X0139895Y0050554D01*
X0139895Y0048955D02*
X0139743Y0048955D01*
X0139743Y0047357D02*
X0139895Y0047357D01*
X0139895Y0045758D02*
X0139743Y0045758D01*
X0135697Y0042561D02*
X0154700Y0042561D01*
X0154700Y0040963D02*
X0135697Y0040963D01*
X0135697Y0039364D02*
X0154700Y0039364D01*
X0154700Y0037766D02*
X0135697Y0037766D01*
X0135697Y0036167D02*
X0154700Y0036167D01*
X0154700Y0034569D02*
X0095575Y0034569D01*
X0095575Y0036167D02*
X0097022Y0036167D01*
X0097020Y0036171D02*
X0097256Y0035761D01*
X0097592Y0035426D01*
X0098002Y0035189D01*
X0098460Y0035066D01*
X0100373Y0035066D01*
X0100373Y0044664D01*
X0096897Y0044664D01*
X0096897Y0036629D01*
X0097020Y0036171D01*
X0096897Y0037766D02*
X0095575Y0037766D01*
X0095575Y0039364D02*
X0096897Y0039364D01*
X0096897Y0040963D02*
X0095575Y0040963D01*
X0095575Y0042561D02*
X0096897Y0042561D01*
X0096897Y0044160D02*
X0095575Y0044160D01*
X0096327Y0045758D02*
X0096897Y0045758D01*
X0096897Y0047357D02*
X0096327Y0047357D01*
X0096327Y0048955D02*
X0096897Y0048955D01*
X0096897Y0050554D02*
X0096327Y0050554D01*
X0096327Y0052152D02*
X0096897Y0052152D01*
X0097288Y0053751D02*
X0096327Y0053751D01*
X0100373Y0053751D02*
X0100525Y0053751D01*
X0100525Y0052152D02*
X0100373Y0052152D01*
X0100373Y0050554D02*
X0100525Y0050554D01*
X0100525Y0048955D02*
X0100373Y0048955D01*
X0100373Y0047357D02*
X0100525Y0047357D01*
X0100525Y0045758D02*
X0100373Y0045758D01*
X0100373Y0044160D02*
X0100525Y0044160D01*
X0100525Y0042561D02*
X0100373Y0042561D01*
X0100373Y0040963D02*
X0100525Y0040963D01*
X0100525Y0039364D02*
X0100373Y0039364D01*
X0100373Y0037766D02*
X0100525Y0037766D01*
X0100525Y0036167D02*
X0100373Y0036167D01*
X0096772Y0032970D02*
X0154700Y0032970D01*
X0154700Y0031372D02*
X0098371Y0031372D01*
X0099969Y0029773D02*
X0154700Y0029773D01*
X0154700Y0028175D02*
X0101568Y0028175D01*
X0103166Y0026576D02*
X0154700Y0026576D01*
X0124071Y0053992D02*
X0124071Y0066692D01*
X0128979Y0071600D01*
X0299300Y0071600D01*
X0296000Y0074400D02*
X0159000Y0074400D01*
X0159000Y0078900D01*
X0159300Y0079200D01*
X0096300Y0079200D01*
X0095900Y0078800D01*
X0095900Y0143500D01*
X0293636Y0143500D01*
X0296000Y0141136D01*
X0296000Y0074400D01*
X0296000Y0074532D02*
X0159000Y0074532D01*
X0159000Y0076130D02*
X0296000Y0076130D01*
X0296000Y0077729D02*
X0159000Y0077729D01*
X0154932Y0074532D02*
X0112323Y0074532D01*
X0112323Y0072933D02*
X0126352Y0072933D01*
X0124753Y0071334D02*
X0112323Y0071334D01*
X0112323Y0069736D02*
X0123155Y0069736D01*
X0121639Y0068137D02*
X0112323Y0068137D01*
X0112323Y0066539D02*
X0121271Y0066539D01*
X0121271Y0064940D02*
X0112323Y0064940D01*
X0112323Y0063342D02*
X0120966Y0063342D01*
X0120319Y0061743D02*
X0112323Y0061743D01*
X0112323Y0060145D02*
X0120319Y0060145D01*
X0120319Y0058546D02*
X0112323Y0058546D01*
X0112323Y0056948D02*
X0120319Y0056948D01*
X0120319Y0055349D02*
X0112622Y0055349D01*
X0119641Y0053751D02*
X0120319Y0053751D01*
X0120319Y0052152D02*
X0119949Y0052152D01*
X0119949Y0050554D02*
X0120319Y0050554D01*
X0120319Y0048955D02*
X0119949Y0048955D01*
X0120013Y0047357D02*
X0120319Y0047357D01*
X0120319Y0045758D02*
X0120197Y0045758D01*
X0119949Y0044160D02*
X0121449Y0044160D01*
X0112445Y0044160D02*
X0110945Y0044160D01*
X0089575Y0044160D02*
X0088453Y0044160D01*
X0088453Y0045758D02*
X0088823Y0045758D01*
X0088823Y0047357D02*
X0088453Y0047357D01*
X0088453Y0048955D02*
X0088823Y0048955D01*
X0088823Y0050554D02*
X0088453Y0050554D01*
X0088453Y0052152D02*
X0088823Y0052152D01*
X0088823Y0053751D02*
X0088144Y0053751D01*
X0088823Y0055349D02*
X0080579Y0055349D01*
X0080579Y0053751D02*
X0081257Y0053751D01*
X0080949Y0052152D02*
X0080579Y0052152D01*
X0080579Y0050554D02*
X0080949Y0050554D01*
X0080949Y0048955D02*
X0080579Y0048955D01*
X0080579Y0047357D02*
X0080949Y0047357D01*
X0080949Y0045758D02*
X0080579Y0045758D01*
X0080949Y0044160D02*
X0079449Y0044160D01*
X0080949Y0042561D02*
X0072705Y0042561D01*
X0072705Y0040963D02*
X0080949Y0040963D01*
X0080949Y0039364D02*
X0072705Y0039364D01*
X0072705Y0037766D02*
X0080949Y0037766D01*
X0080949Y0036167D02*
X0076561Y0036167D01*
X0078631Y0034569D02*
X0081715Y0034569D01*
X0082687Y0032970D02*
X0080229Y0032970D01*
X0081828Y0031372D02*
X0084286Y0031372D01*
X0083426Y0029773D02*
X0085884Y0029773D01*
X0085025Y0028175D02*
X0087483Y0028175D01*
X0086623Y0026576D02*
X0089081Y0026576D01*
X0089574Y0034569D02*
X0089575Y0034569D01*
X0089575Y0036167D02*
X0088453Y0036167D01*
X0088453Y0037766D02*
X0089575Y0037766D01*
X0089575Y0039364D02*
X0088453Y0039364D01*
X0088453Y0040963D02*
X0089575Y0040963D01*
X0089575Y0042561D02*
X0088453Y0042561D01*
X0088823Y0056948D02*
X0080579Y0056948D01*
X0080579Y0058546D02*
X0088823Y0058546D01*
X0088823Y0060145D02*
X0080579Y0060145D01*
X0080579Y0061743D02*
X0088823Y0061743D01*
X0089470Y0063342D02*
X0079931Y0063342D01*
X0073722Y0063342D02*
X0072318Y0063342D01*
X0072480Y0061743D02*
X0073075Y0061743D01*
X0073075Y0060145D02*
X0072200Y0060145D01*
X0072200Y0058546D02*
X0073075Y0058546D01*
X0073075Y0056948D02*
X0072200Y0056948D01*
X0072200Y0055349D02*
X0073075Y0055349D01*
X0073075Y0053751D02*
X0072396Y0053751D01*
X0072705Y0052152D02*
X0073075Y0052152D01*
X0073075Y0050554D02*
X0072705Y0050554D01*
X0072705Y0048955D02*
X0073075Y0048955D01*
X0073075Y0047357D02*
X0072705Y0047357D01*
X0072705Y0045758D02*
X0073075Y0045758D01*
X0072705Y0044160D02*
X0074205Y0044160D01*
X0065201Y0044160D02*
X0063701Y0044160D01*
X0063659Y0044118D02*
X0064831Y0045290D01*
X0064831Y0059886D01*
X0066117Y0061173D01*
X0066200Y0060973D01*
X0066200Y0054442D01*
X0065201Y0053443D01*
X0065201Y0036038D01*
X0066372Y0034866D01*
X0068467Y0034866D01*
X0068001Y0034400D01*
X0060550Y0034400D01*
X0060140Y0035389D01*
X0058331Y0037198D01*
X0056757Y0037850D01*
X0056757Y0044664D01*
X0053281Y0044664D01*
X0053281Y0044816D01*
X0056757Y0044816D01*
X0056757Y0052851D01*
X0056634Y0053309D01*
X0056397Y0053719D01*
X0056062Y0054055D01*
X0055651Y0054291D01*
X0055194Y0054414D01*
X0053281Y0054414D01*
X0053281Y0044816D01*
X0053129Y0044816D01*
X0053129Y0054414D01*
X0051216Y0054414D01*
X0050758Y0054291D01*
X0050348Y0054055D01*
X0050012Y0053719D01*
X0049775Y0053309D01*
X0049653Y0052851D01*
X0049653Y0044816D01*
X0053129Y0044816D01*
X0053129Y0044664D01*
X0049653Y0044664D01*
X0049653Y0037347D01*
X0047000Y0040000D01*
X0047000Y0058300D01*
X0056100Y0067400D01*
X0056100Y0089505D01*
X0061100Y0084505D01*
X0061100Y0071627D01*
X0060820Y0070952D01*
X0060820Y0069648D01*
X0061320Y0068442D01*
X0062242Y0067520D01*
X0063448Y0067020D01*
X0064752Y0067020D01*
X0064881Y0067074D01*
X0064881Y0067008D01*
X0061739Y0063866D01*
X0058498Y0063866D01*
X0057327Y0062695D01*
X0057327Y0045290D01*
X0058498Y0044118D01*
X0063659Y0044118D01*
X0064831Y0045758D02*
X0065201Y0045758D01*
X0065201Y0047357D02*
X0064831Y0047357D01*
X0064831Y0048955D02*
X0065201Y0048955D01*
X0065201Y0050554D02*
X0064831Y0050554D01*
X0064831Y0052152D02*
X0065201Y0052152D01*
X0065509Y0053751D02*
X0064831Y0053751D01*
X0064831Y0055349D02*
X0066200Y0055349D01*
X0066200Y0056948D02*
X0064831Y0056948D01*
X0064831Y0058546D02*
X0066200Y0058546D01*
X0066200Y0060145D02*
X0065089Y0060145D01*
X0062814Y0064940D02*
X0053640Y0064940D01*
X0052042Y0063342D02*
X0057974Y0063342D01*
X0057327Y0061743D02*
X0050443Y0061743D01*
X0048845Y0060145D02*
X0057327Y0060145D01*
X0057327Y0058546D02*
X0047246Y0058546D01*
X0047000Y0056948D02*
X0057327Y0056948D01*
X0057327Y0055349D02*
X0047000Y0055349D01*
X0047000Y0053751D02*
X0050044Y0053751D01*
X0049653Y0052152D02*
X0047000Y0052152D01*
X0047000Y0050554D02*
X0049653Y0050554D01*
X0049653Y0048955D02*
X0047000Y0048955D01*
X0047000Y0047357D02*
X0049653Y0047357D01*
X0049653Y0045758D02*
X0047000Y0045758D01*
X0047000Y0044160D02*
X0049653Y0044160D01*
X0049653Y0042561D02*
X0047000Y0042561D01*
X0047000Y0040963D02*
X0049653Y0040963D01*
X0049653Y0039364D02*
X0047636Y0039364D01*
X0049234Y0037766D02*
X0049653Y0037766D01*
X0056757Y0039364D02*
X0065201Y0039364D01*
X0065201Y0037766D02*
X0056960Y0037766D01*
X0059362Y0036167D02*
X0065201Y0036167D01*
X0068169Y0034569D02*
X0060480Y0034569D01*
X0056757Y0040963D02*
X0065201Y0040963D01*
X0065201Y0042561D02*
X0056757Y0042561D01*
X0056757Y0044160D02*
X0058457Y0044160D01*
X0057327Y0045758D02*
X0056757Y0045758D01*
X0056757Y0047357D02*
X0057327Y0047357D01*
X0057327Y0048955D02*
X0056757Y0048955D01*
X0056757Y0050554D02*
X0057327Y0050554D01*
X0057327Y0052152D02*
X0056757Y0052152D01*
X0056366Y0053751D02*
X0057327Y0053751D01*
X0053281Y0053751D02*
X0053129Y0053751D01*
X0053129Y0052152D02*
X0053281Y0052152D01*
X0053281Y0050554D02*
X0053129Y0050554D01*
X0053129Y0048955D02*
X0053281Y0048955D01*
X0053281Y0047357D02*
X0053129Y0047357D01*
X0053129Y0045758D02*
X0053281Y0045758D01*
X0055239Y0066539D02*
X0064412Y0066539D01*
X0061625Y0068137D02*
X0056100Y0068137D01*
X0056100Y0069736D02*
X0060820Y0069736D01*
X0060979Y0071334D02*
X0056100Y0071334D01*
X0056100Y0072933D02*
X0061100Y0072933D01*
X0061100Y0074532D02*
X0056100Y0074532D01*
X0056100Y0076130D02*
X0061100Y0076130D01*
X0061100Y0077729D02*
X0056100Y0077729D01*
X0056100Y0079327D02*
X0061100Y0079327D01*
X0061100Y0080926D02*
X0056100Y0080926D01*
X0056100Y0082524D02*
X0061100Y0082524D01*
X0061100Y0084123D02*
X0056100Y0084123D01*
X0056100Y0085721D02*
X0059884Y0085721D01*
X0058286Y0087320D02*
X0056100Y0087320D01*
X0056100Y0088918D02*
X0056687Y0088918D01*
X0069881Y0088918D02*
X0069900Y0088918D01*
X0069881Y0087320D02*
X0069900Y0087320D01*
X0069881Y0085721D02*
X0069900Y0085721D01*
X0069881Y0084123D02*
X0069900Y0084123D01*
X0069881Y0082524D02*
X0069900Y0082524D01*
X0069881Y0080926D02*
X0069900Y0080926D01*
X0069881Y0079327D02*
X0069900Y0079327D01*
X0069881Y0077729D02*
X0069900Y0077729D01*
X0069881Y0076130D02*
X0069900Y0076130D01*
X0069881Y0074532D02*
X0069900Y0074532D01*
X0069881Y0072933D02*
X0069900Y0072933D01*
X0069881Y0071334D02*
X0069900Y0071334D01*
X0069881Y0069736D02*
X0070468Y0069736D01*
X0069881Y0068137D02*
X0071363Y0068137D01*
X0069881Y0066539D02*
X0072999Y0066539D01*
X0073900Y0064940D02*
X0071197Y0064940D01*
X0095900Y0079327D02*
X0296000Y0079327D01*
X0296000Y0080926D02*
X0095900Y0080926D01*
X0095900Y0082524D02*
X0296000Y0082524D01*
X0296000Y0084123D02*
X0095900Y0084123D01*
X0095900Y0085721D02*
X0296000Y0085721D01*
X0296000Y0087320D02*
X0095900Y0087320D01*
X0095900Y0088918D02*
X0296000Y0088918D01*
X0296000Y0090517D02*
X0095900Y0090517D01*
X0095900Y0092115D02*
X0296000Y0092115D01*
X0296000Y0093714D02*
X0095900Y0093714D01*
X0095900Y0095312D02*
X0296000Y0095312D01*
X0296000Y0096911D02*
X0095900Y0096911D01*
X0095900Y0098509D02*
X0296000Y0098509D01*
X0296000Y0100108D02*
X0095900Y0100108D01*
X0095900Y0101706D02*
X0296000Y0101706D01*
X0296000Y0103305D02*
X0095900Y0103305D01*
X0095900Y0104903D02*
X0296000Y0104903D01*
X0296000Y0106502D02*
X0095900Y0106502D01*
X0095900Y0108100D02*
X0296000Y0108100D01*
X0296000Y0109699D02*
X0095900Y0109699D01*
X0095900Y0111297D02*
X0296000Y0111297D01*
X0296000Y0112896D02*
X0095900Y0112896D01*
X0095900Y0114494D02*
X0296000Y0114494D01*
X0296000Y0116093D02*
X0095900Y0116093D01*
X0095900Y0117691D02*
X0296000Y0117691D01*
X0296000Y0119290D02*
X0095900Y0119290D01*
X0095900Y0120888D02*
X0296000Y0120888D01*
X0296000Y0122487D02*
X0095900Y0122487D01*
X0095900Y0124085D02*
X0296000Y0124085D01*
X0296000Y0125684D02*
X0095900Y0125684D01*
X0095900Y0127282D02*
X0296000Y0127282D01*
X0296000Y0128881D02*
X0095900Y0128881D01*
X0095900Y0130479D02*
X0296000Y0130479D01*
X0296000Y0132078D02*
X0095900Y0132078D01*
X0095900Y0133676D02*
X0296000Y0133676D01*
X0296000Y0135275D02*
X0095900Y0135275D01*
X0095900Y0136873D02*
X0296000Y0136873D01*
X0296000Y0138472D02*
X0095900Y0138472D01*
X0095900Y0140070D02*
X0296000Y0140070D01*
X0295467Y0141669D02*
X0095900Y0141669D01*
X0095900Y0143268D02*
X0293869Y0143268D01*
X0288156Y0207208D02*
X0056100Y0207208D01*
X0056100Y0208806D02*
X0237267Y0208806D01*
X0237178Y0210405D02*
X0193092Y0210405D01*
X0194205Y0212003D02*
X0237178Y0212003D01*
X0237287Y0213602D02*
X0194205Y0213602D01*
X0186201Y0210405D02*
X0056100Y0210405D01*
X0056100Y0212003D02*
X0178623Y0212003D01*
X0178594Y0213602D02*
X0056100Y0213602D01*
X0056100Y0218398D02*
X0178594Y0218398D01*
X0179946Y0219996D02*
X0056100Y0219996D01*
X0178594Y0214820D02*
X0182474Y0214820D01*
X0182474Y0215780D01*
X0182474Y0213602D02*
X0183433Y0213602D01*
X0183433Y0212003D02*
X0182474Y0212003D01*
X0241284Y0210405D02*
X0241476Y0210405D01*
X0241476Y0211071D02*
X0241476Y0207576D01*
X0244019Y0207576D01*
X0244476Y0207698D01*
X0244887Y0207935D01*
X0245222Y0208270D01*
X0245459Y0208681D01*
X0245582Y0209139D01*
X0245582Y0211071D01*
X0241476Y0211071D01*
X0241476Y0208806D02*
X0241284Y0208806D01*
X0245493Y0208806D02*
X0286558Y0208806D01*
X0284959Y0210405D02*
X0245582Y0210405D01*
X0245582Y0212003D02*
X0283361Y0212003D01*
X0281762Y0213602D02*
X0245473Y0213602D01*
X0275656Y0275944D02*
X0356600Y0275944D01*
X0356600Y0277542D02*
X0274057Y0277542D01*
X0272459Y0279141D02*
X0356600Y0279141D01*
X0356600Y0280739D02*
X0270860Y0280739D01*
X0269261Y0282338D02*
X0356600Y0282338D01*
X0356600Y0283937D02*
X0267663Y0283937D01*
X0266064Y0285535D02*
X0356600Y0285535D01*
X0356600Y0287134D02*
X0265900Y0287134D01*
X0265900Y0288732D02*
X0356600Y0288732D01*
X0356600Y0290331D02*
X0265900Y0290331D01*
X0265900Y0291929D02*
X0356600Y0291929D01*
X0356600Y0293528D02*
X0265900Y0293528D01*
X0265900Y0295126D02*
X0356600Y0295126D01*
X0356600Y0296725D02*
X0265900Y0296725D01*
X0265900Y0298323D02*
X0356600Y0298323D01*
X0356600Y0299922D02*
X0265900Y0299922D01*
X0265900Y0301520D02*
X0356600Y0301520D01*
X0356600Y0303119D02*
X0265900Y0303119D01*
X0265900Y0304717D02*
X0356600Y0304717D01*
X0356600Y0306316D02*
X0314393Y0306316D01*
X0314637Y0307914D02*
X0356600Y0307914D01*
X0356600Y0309513D02*
X0314637Y0309513D01*
X0314637Y0311111D02*
X0356600Y0311111D01*
X0356600Y0312710D02*
X0314637Y0312710D01*
X0314637Y0315907D02*
X0356600Y0315907D01*
X0356600Y0317505D02*
X0314637Y0317505D01*
X0314637Y0319104D02*
X0356600Y0319104D01*
X0356600Y0320702D02*
X0314637Y0320702D01*
X0313468Y0322301D02*
X0356600Y0322301D01*
X0356600Y0323899D02*
X0283043Y0323899D01*
X0281445Y0325498D02*
X0356600Y0325498D01*
X0356600Y0327096D02*
X0279846Y0327096D01*
X0278248Y0328695D02*
X0356494Y0328695D01*
X0355874Y0330293D02*
X0276649Y0330293D01*
X0275600Y0331892D02*
X0355374Y0331892D01*
X0355374Y0333490D02*
X0275600Y0333490D01*
X0275600Y0335089D02*
X0355374Y0335089D01*
X0355793Y0336687D02*
X0275600Y0336687D01*
X0275600Y0338286D02*
X0356412Y0338286D01*
X0356600Y0339884D02*
X0275600Y0339884D01*
X0275600Y0341483D02*
X0356600Y0341483D01*
X0356600Y0343081D02*
X0277045Y0343081D01*
X0278644Y0344680D02*
X0353416Y0344680D01*
X0353341Y0344709D02*
X0353341Y0344709D01*
X0351711Y0346278D02*
X0279933Y0346278D01*
X0280400Y0347877D02*
X0350491Y0347877D01*
X0350795Y0347161D02*
X0350795Y0347161D01*
X0349812Y0349475D02*
X0280284Y0349475D01*
X0279490Y0351074D02*
X0349413Y0351074D01*
X0349413Y0352672D02*
X0277103Y0352672D01*
X0266600Y0343081D02*
X0258618Y0343081D01*
X0260217Y0341483D02*
X0266600Y0341483D01*
X0266600Y0339884D02*
X0261815Y0339884D01*
X0263414Y0338286D02*
X0266600Y0338286D01*
X0266600Y0336687D02*
X0264908Y0336687D01*
X0265570Y0335089D02*
X0266600Y0335089D01*
X0266600Y0333490D02*
X0265900Y0333490D01*
X0265900Y0331892D02*
X0266600Y0331892D01*
X0266770Y0330293D02*
X0265900Y0330293D01*
X0265900Y0328695D02*
X0267641Y0328695D01*
X0265900Y0327096D02*
X0271361Y0327096D01*
X0272960Y0325498D02*
X0265900Y0325498D01*
X0265900Y0323899D02*
X0274558Y0323899D01*
X0276157Y0322301D02*
X0265900Y0322301D01*
X0265900Y0320702D02*
X0277755Y0320702D01*
X0279354Y0319104D02*
X0265900Y0319104D01*
X0265900Y0317505D02*
X0280952Y0317505D01*
X0284054Y0315907D02*
X0265900Y0315907D01*
X0265900Y0314308D02*
X0284054Y0314308D01*
X0284054Y0312710D02*
X0265900Y0312710D01*
X0265900Y0311111D02*
X0284678Y0311111D01*
X0291598Y0317505D02*
X0292963Y0317505D01*
X0292963Y0319104D02*
X0291598Y0319104D01*
X0291598Y0320702D02*
X0292963Y0320702D01*
X0293829Y0322301D02*
X0290562Y0322301D01*
X0285090Y0322301D02*
X0284642Y0322301D01*
X0292963Y0309513D02*
X0265900Y0309513D01*
X0265900Y0307914D02*
X0292963Y0307914D01*
X0293039Y0306316D02*
X0265900Y0306316D01*
X0303971Y0322301D02*
X0304332Y0322301D01*
X0308100Y0322301D02*
X0309700Y0322301D01*
X0309700Y0320702D02*
X0308100Y0320702D01*
X0308100Y0319104D02*
X0309700Y0319104D01*
X0309700Y0317505D02*
X0308100Y0317505D01*
X0308100Y0315907D02*
X0309700Y0315907D01*
X0309700Y0314308D02*
X0356600Y0314308D01*
X0356600Y0274345D02*
X0329897Y0274345D01*
X0331653Y0272747D02*
X0356600Y0272747D01*
X0356600Y0271148D02*
X0333251Y0271148D01*
X0334850Y0269550D02*
X0356600Y0269550D01*
X0356600Y0267951D02*
X0336448Y0267951D01*
X0338047Y0266353D02*
X0356600Y0266353D01*
X0356600Y0264754D02*
X0339645Y0264754D01*
X0341244Y0263156D02*
X0356600Y0263156D01*
X0356600Y0261557D02*
X0342842Y0261557D01*
X0344441Y0259959D02*
X0356600Y0259959D01*
X0356600Y0258360D02*
X0346039Y0258360D01*
X0347638Y0256762D02*
X0356600Y0256762D01*
X0356600Y0255163D02*
X0349236Y0255163D01*
X0350835Y0253565D02*
X0356600Y0253565D01*
X0356600Y0251966D02*
X0352433Y0251966D01*
X0354032Y0250368D02*
X0356600Y0250368D01*
X0356600Y0248769D02*
X0355630Y0248769D01*
X0309700Y0306316D02*
X0308100Y0306316D01*
X0308100Y0307914D02*
X0309700Y0307914D01*
X0309700Y0309513D02*
X0308100Y0309513D01*
X0308100Y0311111D02*
X0309700Y0311111D01*
X0309700Y0312710D02*
X0308100Y0312710D01*
X0310202Y0353252D02*
X0310202Y0353252D01*
X0313782Y0354271D02*
X0349413Y0354271D01*
X0314070Y0354353D02*
X0314070Y0354353D01*
X0306198Y0353623D02*
X0306198Y0353623D01*
X0304897Y0354271D02*
X0089600Y0354271D01*
X0089600Y0355870D02*
X0294700Y0355870D01*
X0294700Y0357468D02*
X0089600Y0357468D01*
X0089600Y0359067D02*
X0294700Y0359067D01*
X0294700Y0360665D02*
X0089600Y0360665D01*
X0089600Y0362264D02*
X0294700Y0362264D01*
X0294700Y0363862D02*
X0089600Y0363862D01*
X0089600Y0365461D02*
X0294700Y0365461D01*
X0294700Y0367059D02*
X0089600Y0367059D01*
X0089600Y0368658D02*
X0294700Y0368658D01*
X0294700Y0370256D02*
X0089600Y0370256D01*
X0089600Y0371855D02*
X0294700Y0371855D01*
X0154700Y0068137D02*
X0129476Y0068137D01*
X0127877Y0066539D02*
X0154700Y0066539D01*
D23*
X0170100Y0139400D03*
X0197500Y0138800D03*
X0238500Y0139400D03*
X0266000Y0139400D03*
X0136100Y0139400D03*
X0110700Y0139500D03*
X0140600Y0366300D03*
X0157900Y0366300D03*
X0212100Y0366354D03*
X0225000Y0366200D03*
X0240400Y0365900D03*
D24*
X0212100Y0366354D02*
X0212046Y0366300D01*
X0146112Y0313913D02*
X0146112Y0312800D01*
X0183546Y0250613D02*
X0183759Y0250400D01*
X0189046Y0215900D02*
X0189646Y0215300D01*
X0098177Y0168123D02*
X0098000Y0168300D01*
X0076781Y0092257D02*
X0076900Y0092138D01*
X0076900Y0054065D02*
X0076827Y0053992D01*
X0069200Y0044987D02*
X0068953Y0044740D01*
X0047299Y0044788D02*
X0047299Y0043801D01*
X0033300Y0082148D02*
X0033274Y0082174D01*
X0116197Y0046118D02*
X0116197Y0044740D01*
X0139674Y0053847D02*
X0139819Y0053992D01*
D25*
X0094100Y0009200D02*
X0073400Y0029900D01*
X0094100Y0009200D02*
X0276800Y0009200D01*
X0293947Y0026347D01*
X0293947Y0026809D01*
X0350700Y0083562D01*
X0350700Y0243800D01*
X0326200Y0268300D01*
X0273400Y0268300D01*
X0258900Y0282800D01*
X0258900Y0313913D01*
X0258900Y0332900D01*
X0252700Y0339100D01*
X0228300Y0339100D01*
X0217400Y0328200D01*
X0217400Y0308100D01*
X0211200Y0301900D01*
X0172000Y0301900D01*
X0164400Y0294300D01*
X0111600Y0294300D01*
X0106112Y0299788D01*
X0106112Y0313913D01*
X0086112Y0313913D02*
X0086112Y0290088D01*
X0093900Y0282300D01*
X0177893Y0282300D01*
X0189507Y0282300D02*
X0203641Y0282300D01*
X0203641Y0237059D01*
X0212400Y0228300D01*
X0287300Y0228300D01*
X0315800Y0199800D01*
X0315800Y0167700D01*
X0305500Y0157400D01*
X0069100Y0157400D01*
X0062900Y0151200D01*
X0062900Y0106138D01*
X0076781Y0092257D01*
X0076900Y0092138D02*
X0076900Y0072500D01*
X0203841Y0282100D02*
X0203641Y0282300D01*
X0215455Y0282100D02*
X0231400Y0282100D01*
X0239800Y0290500D01*
X0239800Y0313013D01*
X0238900Y0313913D01*
X0240100Y0366200D02*
X0276000Y0366200D01*
X0308900Y0333300D01*
X0308900Y0313913D01*
X0156112Y0313913D02*
X0156112Y0365988D01*
X0155800Y0366300D01*
X0140600Y0366300D02*
X0140600Y0361000D01*
X0140500Y0360900D01*
D26*
X0171200Y0263700D02*
X0169800Y0262300D01*
X0171200Y0263700D02*
X0176954Y0263700D01*
X0183546Y0263600D02*
X0183546Y0250613D01*
X0183546Y0263600D02*
X0183646Y0263700D01*
D27*
X0169800Y0262300D02*
X0165000Y0257500D01*
X0088300Y0257500D01*
X0074100Y0243300D01*
X0051400Y0251500D02*
X0051400Y0337300D01*
X0063300Y0349200D01*
X0110900Y0349200D01*
X0128000Y0366300D01*
X0143700Y0366300D01*
X0133400Y0348100D02*
X0130500Y0345200D01*
X0130500Y0330000D01*
X0169700Y0347500D02*
X0170500Y0348300D01*
X0275900Y0348300D01*
X0271100Y0343500D01*
X0271100Y0331600D01*
X0182954Y0215300D02*
X0035957Y0215300D01*
X0021900Y0201243D01*
X0021900Y0157600D01*
X0031600Y0147900D01*
X0036300Y0147900D01*
X0072800Y0148000D02*
X0295500Y0148000D01*
X0311500Y0132000D01*
X0311500Y0070200D01*
X0295292Y0053992D01*
X0139819Y0053992D01*
X0073400Y0029900D02*
X0056537Y0029900D01*
X0054690Y0031748D01*
X0030783Y0057748D02*
X0033768Y0060732D01*
X0033768Y0070732D01*
D28*
X0033300Y0071200D01*
X0033300Y0082148D01*
X0048274Y0082174D02*
X0048274Y0073526D01*
X0050100Y0071700D01*
X0064100Y0070300D02*
X0064100Y0085748D01*
X0048274Y0101574D01*
X0048274Y0107626D01*
X0045500Y0110400D01*
X0035200Y0110400D01*
X0033274Y0108474D01*
X0033274Y0101574D01*
X0069200Y0062300D02*
X0069200Y0044987D01*
X0076900Y0054065D02*
X0076900Y0072500D01*
X0092575Y0053992D02*
X0092575Y0032925D01*
X0103946Y0021554D01*
X0107700Y0017800D01*
X0110900Y0017800D01*
X0097200Y0018900D02*
X0097200Y0022700D01*
X0084701Y0035199D01*
X0084701Y0044740D01*
X0100449Y0044740D02*
X0100449Y0037763D01*
X0104447Y0033765D01*
X0134547Y0033765D01*
X0139674Y0038892D01*
X0139674Y0053847D01*
X0287826Y0313941D02*
X0298872Y0313941D01*
X0298900Y0313913D01*
X0287826Y0319059D02*
X0283641Y0319059D01*
X0271100Y0331600D01*
X0130500Y0330000D02*
X0130500Y0318496D01*
X0131100Y0317896D01*
D29*
X0191246Y0216900D02*
X0282000Y0216900D01*
X0299400Y0199500D01*
X0299400Y0183800D01*
X0290800Y0175200D01*
X0278600Y0175200D01*
X0191246Y0216900D02*
X0189646Y0215300D01*
X0175500Y0175200D02*
X0081000Y0175200D01*
X0080600Y0175200D01*
X0071400Y0175200D01*
X0052100Y0155900D01*
X0052100Y0104600D01*
X0067381Y0089319D01*
X0067381Y0065972D01*
X0061079Y0059670D01*
X0061079Y0053992D01*
M02*
