G75*
%MOIN*%
%OFA0B0*%
%FSLAX25Y25*%
%IPPOS*%
%LPD*%
%AMOC8*
5,1,8,0,0,1.08239X$1,22.5*
%
%ADD10R,0.02375X0.05524*%
%ADD11R,0.05918X0.06706*%
%ADD12R,0.05603X0.04383*%
%ADD13R,0.03556X0.04343*%
%ADD14R,0.03000X0.08600*%
%ADD15R,0.08674X0.14186*%
%ADD16R,0.04343X0.03556*%
%ADD17R,0.04934X0.20091*%
%ADD18C,0.08858*%
%ADD19C,0.09658*%
%ADD20R,0.04304X0.16548*%
%ADD21C,0.02559*%
%ADD22C,0.02362*%
D10*
X0182441Y0227560D03*
X0187559Y0227560D03*
X0187559Y0235040D03*
X0185000Y0235040D03*
X0182441Y0235040D03*
D11*
X0182954Y0215300D03*
X0189646Y0215300D03*
X0183646Y0263700D03*
X0176954Y0263700D03*
D12*
X0241380Y0211167D03*
X0241380Y0198273D03*
D13*
X0183759Y0250400D03*
X0178641Y0250400D03*
D14*
X0048274Y0101574D03*
X0043274Y0101574D03*
X0038274Y0101574D03*
X0033274Y0101574D03*
X0033274Y0082174D03*
X0038274Y0082174D03*
X0043274Y0082174D03*
X0048274Y0082174D03*
D15*
X0086112Y0313913D03*
X0106112Y0313913D03*
X0146112Y0313913D03*
X0156112Y0313913D03*
X0238900Y0313913D03*
X0258900Y0313913D03*
X0298900Y0313913D03*
X0308900Y0313913D03*
D16*
X0287826Y0313941D03*
X0287826Y0319059D03*
X0131100Y0317896D03*
X0131100Y0312778D03*
D17*
X0177893Y0282300D03*
X0189507Y0282300D03*
X0203841Y0282100D03*
X0215455Y0282100D03*
D18*
X0030783Y0057748D03*
X0054690Y0031748D03*
D19*
X0054690Y0031748D03*
X0030783Y0057748D03*
D20*
X0053205Y0044740D03*
X0061079Y0053992D03*
X0068953Y0044740D03*
X0076827Y0053992D03*
X0084701Y0044740D03*
X0092575Y0053992D03*
X0100449Y0044740D03*
X0108323Y0053992D03*
X0116197Y0044740D03*
X0124071Y0053992D03*
X0131945Y0044740D03*
X0139819Y0053992D03*
D21*
X0035600Y0036500D03*
X0050100Y0071700D03*
X0064100Y0070300D03*
X0069200Y0062300D03*
X0097200Y0018900D03*
X0110900Y0017800D03*
X0072800Y0148000D03*
X0098000Y0168300D03*
X0036300Y0147900D03*
X0074100Y0243300D03*
X0051400Y0251500D03*
X0133400Y0348100D03*
X0140500Y0360900D03*
X0169700Y0347500D03*
X0275900Y0348300D03*
X0245800Y0183300D03*
X0278600Y0175200D03*
X0305500Y0176000D03*
X0299300Y0071600D03*
X0175500Y0175200D03*
D22*
X0170100Y0139400D03*
X0197500Y0138800D03*
X0238500Y0139400D03*
X0266000Y0139400D03*
X0136100Y0139400D03*
X0110700Y0139500D03*
X0140600Y0366300D03*
X0157900Y0366300D03*
X0212100Y0366354D03*
X0225000Y0366200D03*
X0240400Y0365900D03*
M02*
