G04 EAGLE Gerber RS-274X export*
G75*
%MOMM*%
%FSLAX34Y34*%
%LPD*%
%INoutline*%
%IPPOS*%
%AMOC8*
5,1,8,0,0,1.08239X$1,22.5*%
G01*
%ADD10C,0.152400*%
%ADD11C,0.000000*%


D10*
X736973Y971036D02*
X736976Y971306D01*
X736986Y971576D01*
X737003Y971845D01*
X737026Y972114D01*
X737056Y972383D01*
X737092Y972650D01*
X737135Y972917D01*
X737184Y973182D01*
X737240Y973446D01*
X737303Y973709D01*
X737371Y973970D01*
X737447Y974229D01*
X737528Y974486D01*
X737616Y974742D01*
X737710Y974995D01*
X737810Y975246D01*
X737917Y975494D01*
X738029Y975739D01*
X738148Y975982D01*
X738272Y976221D01*
X738402Y976458D01*
X738538Y976691D01*
X738680Y976921D01*
X738827Y977147D01*
X738980Y977370D01*
X739138Y977589D01*
X739301Y977804D01*
X739470Y978014D01*
X739644Y978221D01*
X739823Y978423D01*
X740006Y978621D01*
X740195Y978814D01*
X740388Y979003D01*
X740586Y979186D01*
X740788Y979365D01*
X740995Y979539D01*
X741205Y979708D01*
X741420Y979871D01*
X741639Y980029D01*
X741862Y980182D01*
X742088Y980329D01*
X742318Y980471D01*
X742551Y980607D01*
X742788Y980737D01*
X743027Y980861D01*
X743270Y980980D01*
X743515Y981092D01*
X743763Y981199D01*
X744014Y981299D01*
X744267Y981393D01*
X744523Y981481D01*
X744780Y981562D01*
X745039Y981638D01*
X745300Y981706D01*
X745563Y981769D01*
X745827Y981825D01*
X746092Y981874D01*
X746359Y981917D01*
X746626Y981953D01*
X746895Y981983D01*
X747164Y982006D01*
X747433Y982023D01*
X747703Y982033D01*
X747973Y982036D01*
X748243Y982033D01*
X748513Y982023D01*
X748782Y982006D01*
X749051Y981983D01*
X749320Y981953D01*
X749587Y981917D01*
X749854Y981874D01*
X750119Y981825D01*
X750383Y981769D01*
X750646Y981706D01*
X750907Y981638D01*
X751166Y981562D01*
X751423Y981481D01*
X751679Y981393D01*
X751932Y981299D01*
X752183Y981199D01*
X752431Y981092D01*
X752676Y980980D01*
X752919Y980861D01*
X753158Y980737D01*
X753395Y980607D01*
X753628Y980471D01*
X753858Y980329D01*
X754084Y980182D01*
X754307Y980029D01*
X754526Y979871D01*
X754741Y979708D01*
X754951Y979539D01*
X755158Y979365D01*
X755360Y979186D01*
X755558Y979003D01*
X755751Y978814D01*
X755940Y978621D01*
X756123Y978423D01*
X756302Y978221D01*
X756476Y978014D01*
X756645Y977804D01*
X756808Y977589D01*
X756966Y977370D01*
X757119Y977147D01*
X757266Y976921D01*
X757408Y976691D01*
X757544Y976458D01*
X757674Y976221D01*
X757798Y975982D01*
X757917Y975739D01*
X758029Y975494D01*
X758136Y975246D01*
X758236Y974995D01*
X758330Y974742D01*
X758418Y974486D01*
X758499Y974229D01*
X758575Y973970D01*
X758643Y973709D01*
X758706Y973446D01*
X758762Y973182D01*
X758811Y972917D01*
X758854Y972650D01*
X758890Y972383D01*
X758920Y972114D01*
X758943Y971845D01*
X758960Y971576D01*
X758970Y971306D01*
X758973Y971036D01*
X758970Y970766D01*
X758960Y970496D01*
X758943Y970227D01*
X758920Y969958D01*
X758890Y969689D01*
X758854Y969422D01*
X758811Y969155D01*
X758762Y968890D01*
X758706Y968626D01*
X758643Y968363D01*
X758575Y968102D01*
X758499Y967843D01*
X758418Y967586D01*
X758330Y967330D01*
X758236Y967077D01*
X758136Y966826D01*
X758029Y966578D01*
X757917Y966333D01*
X757798Y966090D01*
X757674Y965851D01*
X757544Y965614D01*
X757408Y965381D01*
X757266Y965151D01*
X757119Y964925D01*
X756966Y964702D01*
X756808Y964483D01*
X756645Y964268D01*
X756476Y964058D01*
X756302Y963851D01*
X756123Y963649D01*
X755940Y963451D01*
X755751Y963258D01*
X755558Y963069D01*
X755360Y962886D01*
X755158Y962707D01*
X754951Y962533D01*
X754741Y962364D01*
X754526Y962201D01*
X754307Y962043D01*
X754084Y961890D01*
X753858Y961743D01*
X753628Y961601D01*
X753395Y961465D01*
X753158Y961335D01*
X752919Y961211D01*
X752676Y961092D01*
X752431Y960980D01*
X752183Y960873D01*
X751932Y960773D01*
X751679Y960679D01*
X751423Y960591D01*
X751166Y960510D01*
X750907Y960434D01*
X750646Y960366D01*
X750383Y960303D01*
X750119Y960247D01*
X749854Y960198D01*
X749587Y960155D01*
X749320Y960119D01*
X749051Y960089D01*
X748782Y960066D01*
X748513Y960049D01*
X748243Y960039D01*
X747973Y960036D01*
X747703Y960039D01*
X747433Y960049D01*
X747164Y960066D01*
X746895Y960089D01*
X746626Y960119D01*
X746359Y960155D01*
X746092Y960198D01*
X745827Y960247D01*
X745563Y960303D01*
X745300Y960366D01*
X745039Y960434D01*
X744780Y960510D01*
X744523Y960591D01*
X744267Y960679D01*
X744014Y960773D01*
X743763Y960873D01*
X743515Y960980D01*
X743270Y961092D01*
X743027Y961211D01*
X742788Y961335D01*
X742551Y961465D01*
X742318Y961601D01*
X742088Y961743D01*
X741862Y961890D01*
X741639Y962043D01*
X741420Y962201D01*
X741205Y962364D01*
X740995Y962533D01*
X740788Y962707D01*
X740586Y962886D01*
X740388Y963069D01*
X740195Y963258D01*
X740006Y963451D01*
X739823Y963649D01*
X739644Y963851D01*
X739470Y964058D01*
X739301Y964268D01*
X739138Y964483D01*
X738980Y964702D01*
X738827Y964925D01*
X738680Y965151D01*
X738538Y965381D01*
X738402Y965614D01*
X738272Y965851D01*
X738148Y966090D01*
X738029Y966333D01*
X737917Y966578D01*
X737810Y966826D01*
X737710Y967077D01*
X737616Y967330D01*
X737528Y967586D01*
X737447Y967843D01*
X737371Y968102D01*
X737303Y968363D01*
X737240Y968626D01*
X737184Y968890D01*
X737135Y969155D01*
X737092Y969422D01*
X737056Y969689D01*
X737026Y969958D01*
X737003Y970227D01*
X736986Y970496D01*
X736976Y970766D01*
X736973Y971036D01*
X647008Y31000D02*
X647011Y31270D01*
X647021Y31540D01*
X647038Y31809D01*
X647061Y32078D01*
X647091Y32347D01*
X647127Y32614D01*
X647170Y32881D01*
X647219Y33146D01*
X647275Y33410D01*
X647338Y33673D01*
X647406Y33934D01*
X647482Y34193D01*
X647563Y34450D01*
X647651Y34706D01*
X647745Y34959D01*
X647845Y35210D01*
X647952Y35458D01*
X648064Y35703D01*
X648183Y35946D01*
X648307Y36185D01*
X648437Y36422D01*
X648573Y36655D01*
X648715Y36885D01*
X648862Y37111D01*
X649015Y37334D01*
X649173Y37553D01*
X649336Y37768D01*
X649505Y37978D01*
X649679Y38185D01*
X649858Y38387D01*
X650041Y38585D01*
X650230Y38778D01*
X650423Y38967D01*
X650621Y39150D01*
X650823Y39329D01*
X651030Y39503D01*
X651240Y39672D01*
X651455Y39835D01*
X651674Y39993D01*
X651897Y40146D01*
X652123Y40293D01*
X652353Y40435D01*
X652586Y40571D01*
X652823Y40701D01*
X653062Y40825D01*
X653305Y40944D01*
X653550Y41056D01*
X653798Y41163D01*
X654049Y41263D01*
X654302Y41357D01*
X654558Y41445D01*
X654815Y41526D01*
X655074Y41602D01*
X655335Y41670D01*
X655598Y41733D01*
X655862Y41789D01*
X656127Y41838D01*
X656394Y41881D01*
X656661Y41917D01*
X656930Y41947D01*
X657199Y41970D01*
X657468Y41987D01*
X657738Y41997D01*
X658008Y42000D01*
X658278Y41997D01*
X658548Y41987D01*
X658817Y41970D01*
X659086Y41947D01*
X659355Y41917D01*
X659622Y41881D01*
X659889Y41838D01*
X660154Y41789D01*
X660418Y41733D01*
X660681Y41670D01*
X660942Y41602D01*
X661201Y41526D01*
X661458Y41445D01*
X661714Y41357D01*
X661967Y41263D01*
X662218Y41163D01*
X662466Y41056D01*
X662711Y40944D01*
X662954Y40825D01*
X663193Y40701D01*
X663430Y40571D01*
X663663Y40435D01*
X663893Y40293D01*
X664119Y40146D01*
X664342Y39993D01*
X664561Y39835D01*
X664776Y39672D01*
X664986Y39503D01*
X665193Y39329D01*
X665395Y39150D01*
X665593Y38967D01*
X665786Y38778D01*
X665975Y38585D01*
X666158Y38387D01*
X666337Y38185D01*
X666511Y37978D01*
X666680Y37768D01*
X666843Y37553D01*
X667001Y37334D01*
X667154Y37111D01*
X667301Y36885D01*
X667443Y36655D01*
X667579Y36422D01*
X667709Y36185D01*
X667833Y35946D01*
X667952Y35703D01*
X668064Y35458D01*
X668171Y35210D01*
X668271Y34959D01*
X668365Y34706D01*
X668453Y34450D01*
X668534Y34193D01*
X668610Y33934D01*
X668678Y33673D01*
X668741Y33410D01*
X668797Y33146D01*
X668846Y32881D01*
X668889Y32614D01*
X668925Y32347D01*
X668955Y32078D01*
X668978Y31809D01*
X668995Y31540D01*
X669005Y31270D01*
X669008Y31000D01*
X669005Y30730D01*
X668995Y30460D01*
X668978Y30191D01*
X668955Y29922D01*
X668925Y29653D01*
X668889Y29386D01*
X668846Y29119D01*
X668797Y28854D01*
X668741Y28590D01*
X668678Y28327D01*
X668610Y28066D01*
X668534Y27807D01*
X668453Y27550D01*
X668365Y27294D01*
X668271Y27041D01*
X668171Y26790D01*
X668064Y26542D01*
X667952Y26297D01*
X667833Y26054D01*
X667709Y25815D01*
X667579Y25578D01*
X667443Y25345D01*
X667301Y25115D01*
X667154Y24889D01*
X667001Y24666D01*
X666843Y24447D01*
X666680Y24232D01*
X666511Y24022D01*
X666337Y23815D01*
X666158Y23613D01*
X665975Y23415D01*
X665786Y23222D01*
X665593Y23033D01*
X665395Y22850D01*
X665193Y22671D01*
X664986Y22497D01*
X664776Y22328D01*
X664561Y22165D01*
X664342Y22007D01*
X664119Y21854D01*
X663893Y21707D01*
X663663Y21565D01*
X663430Y21429D01*
X663193Y21299D01*
X662954Y21175D01*
X662711Y21056D01*
X662466Y20944D01*
X662218Y20837D01*
X661967Y20737D01*
X661714Y20643D01*
X661458Y20555D01*
X661201Y20474D01*
X660942Y20398D01*
X660681Y20330D01*
X660418Y20267D01*
X660154Y20211D01*
X659889Y20162D01*
X659622Y20119D01*
X659355Y20083D01*
X659086Y20053D01*
X658817Y20030D01*
X658548Y20013D01*
X658278Y20003D01*
X658008Y20000D01*
X657738Y20003D01*
X657468Y20013D01*
X657199Y20030D01*
X656930Y20053D01*
X656661Y20083D01*
X656394Y20119D01*
X656127Y20162D01*
X655862Y20211D01*
X655598Y20267D01*
X655335Y20330D01*
X655074Y20398D01*
X654815Y20474D01*
X654558Y20555D01*
X654302Y20643D01*
X654049Y20737D01*
X653798Y20837D01*
X653550Y20944D01*
X653305Y21056D01*
X653062Y21175D01*
X652823Y21299D01*
X652586Y21429D01*
X652353Y21565D01*
X652123Y21707D01*
X651897Y21854D01*
X651674Y22007D01*
X651455Y22165D01*
X651240Y22328D01*
X651030Y22497D01*
X650823Y22671D01*
X650621Y22850D01*
X650423Y23033D01*
X650230Y23222D01*
X650041Y23415D01*
X649858Y23613D01*
X649679Y23815D01*
X649505Y24022D01*
X649336Y24232D01*
X649173Y24447D01*
X649015Y24666D01*
X648862Y24889D01*
X648715Y25115D01*
X648573Y25345D01*
X648437Y25578D01*
X648307Y25815D01*
X648183Y26054D01*
X648064Y26297D01*
X647952Y26542D01*
X647845Y26790D01*
X647745Y27041D01*
X647651Y27294D01*
X647563Y27550D01*
X647482Y27807D01*
X647406Y28066D01*
X647338Y28327D01*
X647275Y28590D01*
X647219Y28854D01*
X647170Y29119D01*
X647127Y29386D01*
X647091Y29653D01*
X647061Y29922D01*
X647038Y30191D01*
X647021Y30460D01*
X647011Y30730D01*
X647008Y31000D01*
X157008Y31000D02*
X157011Y31270D01*
X157021Y31540D01*
X157038Y31809D01*
X157061Y32078D01*
X157091Y32347D01*
X157127Y32614D01*
X157170Y32881D01*
X157219Y33146D01*
X157275Y33410D01*
X157338Y33673D01*
X157406Y33934D01*
X157482Y34193D01*
X157563Y34450D01*
X157651Y34706D01*
X157745Y34959D01*
X157845Y35210D01*
X157952Y35458D01*
X158064Y35703D01*
X158183Y35946D01*
X158307Y36185D01*
X158437Y36422D01*
X158573Y36655D01*
X158715Y36885D01*
X158862Y37111D01*
X159015Y37334D01*
X159173Y37553D01*
X159336Y37768D01*
X159505Y37978D01*
X159679Y38185D01*
X159858Y38387D01*
X160041Y38585D01*
X160230Y38778D01*
X160423Y38967D01*
X160621Y39150D01*
X160823Y39329D01*
X161030Y39503D01*
X161240Y39672D01*
X161455Y39835D01*
X161674Y39993D01*
X161897Y40146D01*
X162123Y40293D01*
X162353Y40435D01*
X162586Y40571D01*
X162823Y40701D01*
X163062Y40825D01*
X163305Y40944D01*
X163550Y41056D01*
X163798Y41163D01*
X164049Y41263D01*
X164302Y41357D01*
X164558Y41445D01*
X164815Y41526D01*
X165074Y41602D01*
X165335Y41670D01*
X165598Y41733D01*
X165862Y41789D01*
X166127Y41838D01*
X166394Y41881D01*
X166661Y41917D01*
X166930Y41947D01*
X167199Y41970D01*
X167468Y41987D01*
X167738Y41997D01*
X168008Y42000D01*
X168278Y41997D01*
X168548Y41987D01*
X168817Y41970D01*
X169086Y41947D01*
X169355Y41917D01*
X169622Y41881D01*
X169889Y41838D01*
X170154Y41789D01*
X170418Y41733D01*
X170681Y41670D01*
X170942Y41602D01*
X171201Y41526D01*
X171458Y41445D01*
X171714Y41357D01*
X171967Y41263D01*
X172218Y41163D01*
X172466Y41056D01*
X172711Y40944D01*
X172954Y40825D01*
X173193Y40701D01*
X173430Y40571D01*
X173663Y40435D01*
X173893Y40293D01*
X174119Y40146D01*
X174342Y39993D01*
X174561Y39835D01*
X174776Y39672D01*
X174986Y39503D01*
X175193Y39329D01*
X175395Y39150D01*
X175593Y38967D01*
X175786Y38778D01*
X175975Y38585D01*
X176158Y38387D01*
X176337Y38185D01*
X176511Y37978D01*
X176680Y37768D01*
X176843Y37553D01*
X177001Y37334D01*
X177154Y37111D01*
X177301Y36885D01*
X177443Y36655D01*
X177579Y36422D01*
X177709Y36185D01*
X177833Y35946D01*
X177952Y35703D01*
X178064Y35458D01*
X178171Y35210D01*
X178271Y34959D01*
X178365Y34706D01*
X178453Y34450D01*
X178534Y34193D01*
X178610Y33934D01*
X178678Y33673D01*
X178741Y33410D01*
X178797Y33146D01*
X178846Y32881D01*
X178889Y32614D01*
X178925Y32347D01*
X178955Y32078D01*
X178978Y31809D01*
X178995Y31540D01*
X179005Y31270D01*
X179008Y31000D01*
X179005Y30730D01*
X178995Y30460D01*
X178978Y30191D01*
X178955Y29922D01*
X178925Y29653D01*
X178889Y29386D01*
X178846Y29119D01*
X178797Y28854D01*
X178741Y28590D01*
X178678Y28327D01*
X178610Y28066D01*
X178534Y27807D01*
X178453Y27550D01*
X178365Y27294D01*
X178271Y27041D01*
X178171Y26790D01*
X178064Y26542D01*
X177952Y26297D01*
X177833Y26054D01*
X177709Y25815D01*
X177579Y25578D01*
X177443Y25345D01*
X177301Y25115D01*
X177154Y24889D01*
X177001Y24666D01*
X176843Y24447D01*
X176680Y24232D01*
X176511Y24022D01*
X176337Y23815D01*
X176158Y23613D01*
X175975Y23415D01*
X175786Y23222D01*
X175593Y23033D01*
X175395Y22850D01*
X175193Y22671D01*
X174986Y22497D01*
X174776Y22328D01*
X174561Y22165D01*
X174342Y22007D01*
X174119Y21854D01*
X173893Y21707D01*
X173663Y21565D01*
X173430Y21429D01*
X173193Y21299D01*
X172954Y21175D01*
X172711Y21056D01*
X172466Y20944D01*
X172218Y20837D01*
X171967Y20737D01*
X171714Y20643D01*
X171458Y20555D01*
X171201Y20474D01*
X170942Y20398D01*
X170681Y20330D01*
X170418Y20267D01*
X170154Y20211D01*
X169889Y20162D01*
X169622Y20119D01*
X169355Y20083D01*
X169086Y20053D01*
X168817Y20030D01*
X168548Y20013D01*
X168278Y20003D01*
X168008Y20000D01*
X167738Y20003D01*
X167468Y20013D01*
X167199Y20030D01*
X166930Y20053D01*
X166661Y20083D01*
X166394Y20119D01*
X166127Y20162D01*
X165862Y20211D01*
X165598Y20267D01*
X165335Y20330D01*
X165074Y20398D01*
X164815Y20474D01*
X164558Y20555D01*
X164302Y20643D01*
X164049Y20737D01*
X163798Y20837D01*
X163550Y20944D01*
X163305Y21056D01*
X163062Y21175D01*
X162823Y21299D01*
X162586Y21429D01*
X162353Y21565D01*
X162123Y21707D01*
X161897Y21854D01*
X161674Y22007D01*
X161455Y22165D01*
X161240Y22328D01*
X161030Y22497D01*
X160823Y22671D01*
X160621Y22850D01*
X160423Y23033D01*
X160230Y23222D01*
X160041Y23415D01*
X159858Y23613D01*
X159679Y23815D01*
X159505Y24022D01*
X159336Y24232D01*
X159173Y24447D01*
X159015Y24666D01*
X158862Y24889D01*
X158715Y25115D01*
X158573Y25345D01*
X158437Y25578D01*
X158307Y25815D01*
X158183Y26054D01*
X158064Y26297D01*
X157952Y26542D01*
X157845Y26790D01*
X157745Y27041D01*
X157651Y27294D01*
X157563Y27550D01*
X157482Y27807D01*
X157406Y28066D01*
X157338Y28327D01*
X157275Y28590D01*
X157219Y28854D01*
X157170Y29119D01*
X157127Y29386D01*
X157091Y29653D01*
X157061Y29922D01*
X157038Y30191D01*
X157021Y30460D01*
X157011Y30730D01*
X157008Y31000D01*
X66937Y970947D02*
X66940Y971217D01*
X66950Y971487D01*
X66967Y971756D01*
X66990Y972025D01*
X67020Y972294D01*
X67056Y972561D01*
X67099Y972828D01*
X67148Y973093D01*
X67204Y973357D01*
X67267Y973620D01*
X67335Y973881D01*
X67411Y974140D01*
X67492Y974397D01*
X67580Y974653D01*
X67674Y974906D01*
X67774Y975157D01*
X67881Y975405D01*
X67993Y975650D01*
X68112Y975893D01*
X68236Y976132D01*
X68366Y976369D01*
X68502Y976602D01*
X68644Y976832D01*
X68791Y977058D01*
X68944Y977281D01*
X69102Y977500D01*
X69265Y977715D01*
X69434Y977925D01*
X69608Y978132D01*
X69787Y978334D01*
X69970Y978532D01*
X70159Y978725D01*
X70352Y978914D01*
X70550Y979097D01*
X70752Y979276D01*
X70959Y979450D01*
X71169Y979619D01*
X71384Y979782D01*
X71603Y979940D01*
X71826Y980093D01*
X72052Y980240D01*
X72282Y980382D01*
X72515Y980518D01*
X72752Y980648D01*
X72991Y980772D01*
X73234Y980891D01*
X73479Y981003D01*
X73727Y981110D01*
X73978Y981210D01*
X74231Y981304D01*
X74487Y981392D01*
X74744Y981473D01*
X75003Y981549D01*
X75264Y981617D01*
X75527Y981680D01*
X75791Y981736D01*
X76056Y981785D01*
X76323Y981828D01*
X76590Y981864D01*
X76859Y981894D01*
X77128Y981917D01*
X77397Y981934D01*
X77667Y981944D01*
X77937Y981947D01*
X78207Y981944D01*
X78477Y981934D01*
X78746Y981917D01*
X79015Y981894D01*
X79284Y981864D01*
X79551Y981828D01*
X79818Y981785D01*
X80083Y981736D01*
X80347Y981680D01*
X80610Y981617D01*
X80871Y981549D01*
X81130Y981473D01*
X81387Y981392D01*
X81643Y981304D01*
X81896Y981210D01*
X82147Y981110D01*
X82395Y981003D01*
X82640Y980891D01*
X82883Y980772D01*
X83122Y980648D01*
X83359Y980518D01*
X83592Y980382D01*
X83822Y980240D01*
X84048Y980093D01*
X84271Y979940D01*
X84490Y979782D01*
X84705Y979619D01*
X84915Y979450D01*
X85122Y979276D01*
X85324Y979097D01*
X85522Y978914D01*
X85715Y978725D01*
X85904Y978532D01*
X86087Y978334D01*
X86266Y978132D01*
X86440Y977925D01*
X86609Y977715D01*
X86772Y977500D01*
X86930Y977281D01*
X87083Y977058D01*
X87230Y976832D01*
X87372Y976602D01*
X87508Y976369D01*
X87638Y976132D01*
X87762Y975893D01*
X87881Y975650D01*
X87993Y975405D01*
X88100Y975157D01*
X88200Y974906D01*
X88294Y974653D01*
X88382Y974397D01*
X88463Y974140D01*
X88539Y973881D01*
X88607Y973620D01*
X88670Y973357D01*
X88726Y973093D01*
X88775Y972828D01*
X88818Y972561D01*
X88854Y972294D01*
X88884Y972025D01*
X88907Y971756D01*
X88924Y971487D01*
X88934Y971217D01*
X88937Y970947D01*
X88934Y970677D01*
X88924Y970407D01*
X88907Y970138D01*
X88884Y969869D01*
X88854Y969600D01*
X88818Y969333D01*
X88775Y969066D01*
X88726Y968801D01*
X88670Y968537D01*
X88607Y968274D01*
X88539Y968013D01*
X88463Y967754D01*
X88382Y967497D01*
X88294Y967241D01*
X88200Y966988D01*
X88100Y966737D01*
X87993Y966489D01*
X87881Y966244D01*
X87762Y966001D01*
X87638Y965762D01*
X87508Y965525D01*
X87372Y965292D01*
X87230Y965062D01*
X87083Y964836D01*
X86930Y964613D01*
X86772Y964394D01*
X86609Y964179D01*
X86440Y963969D01*
X86266Y963762D01*
X86087Y963560D01*
X85904Y963362D01*
X85715Y963169D01*
X85522Y962980D01*
X85324Y962797D01*
X85122Y962618D01*
X84915Y962444D01*
X84705Y962275D01*
X84490Y962112D01*
X84271Y961954D01*
X84048Y961801D01*
X83822Y961654D01*
X83592Y961512D01*
X83359Y961376D01*
X83122Y961246D01*
X82883Y961122D01*
X82640Y961003D01*
X82395Y960891D01*
X82147Y960784D01*
X81896Y960684D01*
X81643Y960590D01*
X81387Y960502D01*
X81130Y960421D01*
X80871Y960345D01*
X80610Y960277D01*
X80347Y960214D01*
X80083Y960158D01*
X79818Y960109D01*
X79551Y960066D01*
X79284Y960030D01*
X79015Y960000D01*
X78746Y959977D01*
X78477Y959960D01*
X78207Y959950D01*
X77937Y959947D01*
X77667Y959950D01*
X77397Y959960D01*
X77128Y959977D01*
X76859Y960000D01*
X76590Y960030D01*
X76323Y960066D01*
X76056Y960109D01*
X75791Y960158D01*
X75527Y960214D01*
X75264Y960277D01*
X75003Y960345D01*
X74744Y960421D01*
X74487Y960502D01*
X74231Y960590D01*
X73978Y960684D01*
X73727Y960784D01*
X73479Y960891D01*
X73234Y961003D01*
X72991Y961122D01*
X72752Y961246D01*
X72515Y961376D01*
X72282Y961512D01*
X72052Y961654D01*
X71826Y961801D01*
X71603Y961954D01*
X71384Y962112D01*
X71169Y962275D01*
X70959Y962444D01*
X70752Y962618D01*
X70550Y962797D01*
X70352Y962980D01*
X70159Y963169D01*
X69970Y963362D01*
X69787Y963560D01*
X69608Y963762D01*
X69434Y963969D01*
X69265Y964179D01*
X69102Y964394D01*
X68944Y964613D01*
X68791Y964836D01*
X68644Y965062D01*
X68502Y965292D01*
X68366Y965525D01*
X68236Y965762D01*
X68112Y966001D01*
X67993Y966244D01*
X67881Y966489D01*
X67774Y966737D01*
X67674Y966988D01*
X67580Y967241D01*
X67492Y967497D01*
X67411Y967754D01*
X67335Y968013D01*
X67267Y968274D01*
X67204Y968537D01*
X67148Y968801D01*
X67099Y969066D01*
X67056Y969333D01*
X67020Y969600D01*
X66990Y969869D01*
X66967Y970138D01*
X66950Y970407D01*
X66940Y970677D01*
X66937Y970947D01*
D11*
X826000Y1007000D02*
X826000Y0D01*
X826000Y1007000D02*
X0Y1007000D01*
X0Y0D01*
X826000Y0D01*
M02*
