G04 EAGLE Gerber RS-274X export*
G75*
%MOMM*%
%FSLAX34Y34*%
%LPD*%
%INSilk screen CMP*%
%IPPOS*%
%AMOC8*
5,1,8,0,0,1.08239X$1,22.5*%
G01*
%ADD10C,0.406400*%
%ADD11C,0.152400*%
%ADD12C,0.304800*%


D10*
X140919Y524561D02*
X687222Y521208D01*
X828446Y93980D02*
X711Y94590D01*
D11*
X711Y550164D02*
X711Y838911D01*
X139090Y977290D01*
X686003Y977290D01*
X827024Y836879D01*
X825703Y550774D01*
X825195Y550672D01*
X826008Y550875D02*
X610Y550875D01*
X826008Y550875D02*
X826110Y550977D01*
D10*
X406Y384556D02*
X406Y94488D01*
X406Y384556D02*
X140818Y524967D01*
X688238Y520903D02*
X827024Y382118D01*
X825906Y383438D02*
X825906Y383540D01*
X827126Y382930D02*
X827126Y94183D01*
X827634Y93675D01*
D12*
X13411Y569286D02*
X13411Y839286D01*
X813411Y839286D02*
X813411Y569286D01*
X143411Y969286D02*
X13411Y839286D01*
X143411Y969286D02*
X683411Y969286D01*
X813411Y839286D01*
X813411Y569286D02*
X13411Y569286D01*
X14935Y108306D02*
X814935Y108306D01*
X14935Y108306D02*
X14935Y378306D01*
X814935Y378306D02*
X814935Y108306D01*
X144935Y508306D02*
X14935Y378306D01*
X144935Y508306D02*
X684935Y508306D01*
X814935Y378306D01*
M02*
