G04 EAGLE Gerber RS-274X export*
G75*
%MOMM*%
%FSLAX34Y34*%
%LPD*%
%INSolder side*%
%IPPOS*%
%AMOC8*
5,1,8,0,0,1.08239X$1,22.5*%
G01*
%ADD10R,1.200000X0.400000*%
%ADD11R,1.500000X1.300000*%
%ADD12R,0.890000X4.000000*%
%ADD13R,1.220000X0.910000*%
%ADD14R,0.700000X0.900000*%
%ADD15C,1.016000*%
%ADD16C,0.600000*%
%ADD17C,0.152400*%
%ADD18C,0.406400*%
%ADD19C,0.650000*%
%ADD20C,0.812800*%

G36*
X152637Y11177D02*
X152637Y11177D01*
X152644Y11177D01*
X152838Y11197D01*
X153031Y11217D01*
X153038Y11219D01*
X153044Y11219D01*
X153229Y11277D01*
X153416Y11335D01*
X153422Y11338D01*
X153428Y11340D01*
X153598Y11434D01*
X153770Y11527D01*
X153775Y11531D01*
X153781Y11534D01*
X153930Y11660D01*
X154079Y11784D01*
X154084Y11790D01*
X154089Y11794D01*
X154210Y11947D01*
X154332Y12098D01*
X154335Y12104D01*
X154339Y12109D01*
X154429Y12285D01*
X154517Y12455D01*
X154519Y12462D01*
X154522Y12468D01*
X154575Y12656D01*
X154629Y12842D01*
X154629Y12849D01*
X154631Y12855D01*
X154645Y13047D01*
X154661Y13244D01*
X154661Y13250D01*
X154661Y13257D01*
X154637Y13449D01*
X154615Y13643D01*
X154612Y13650D01*
X154612Y13656D01*
X154550Y13841D01*
X154490Y14026D01*
X154486Y14032D01*
X154484Y14038D01*
X154388Y14207D01*
X154292Y14377D01*
X154287Y14382D01*
X154284Y14388D01*
X154155Y14536D01*
X154029Y14682D01*
X154023Y14686D01*
X154019Y14691D01*
X153759Y14897D01*
X152648Y15640D01*
X147939Y22687D01*
X146285Y31000D01*
X147939Y39313D01*
X152648Y46360D01*
X159695Y51069D01*
X168008Y52723D01*
X176321Y51069D01*
X183368Y46360D01*
X188077Y39313D01*
X189731Y31000D01*
X188077Y22687D01*
X183368Y15640D01*
X182257Y14897D01*
X182252Y14893D01*
X182246Y14889D01*
X182097Y14766D01*
X181946Y14641D01*
X181942Y14636D01*
X181937Y14632D01*
X181815Y14480D01*
X181692Y14329D01*
X181689Y14323D01*
X181684Y14318D01*
X181595Y14146D01*
X181504Y13973D01*
X181502Y13966D01*
X181499Y13961D01*
X181445Y13774D01*
X181390Y13587D01*
X181389Y13580D01*
X181387Y13574D01*
X181371Y13377D01*
X181354Y13186D01*
X181355Y13179D01*
X181355Y13172D01*
X181377Y12979D01*
X181399Y12786D01*
X181401Y12779D01*
X181401Y12773D01*
X181462Y12588D01*
X181521Y12402D01*
X181524Y12396D01*
X181526Y12390D01*
X181622Y12220D01*
X181717Y12050D01*
X181721Y12045D01*
X181724Y12039D01*
X181852Y11892D01*
X181978Y11744D01*
X181983Y11740D01*
X181987Y11735D01*
X182141Y11616D01*
X182294Y11495D01*
X182300Y11492D01*
X182305Y11488D01*
X182480Y11401D01*
X182654Y11313D01*
X182660Y11311D01*
X182666Y11308D01*
X182855Y11258D01*
X183042Y11206D01*
X183048Y11206D01*
X183055Y11204D01*
X183385Y11177D01*
X642631Y11177D01*
X642637Y11177D01*
X642644Y11177D01*
X642838Y11197D01*
X643031Y11217D01*
X643038Y11219D01*
X643044Y11219D01*
X643229Y11277D01*
X643416Y11335D01*
X643422Y11338D01*
X643428Y11340D01*
X643598Y11434D01*
X643770Y11527D01*
X643775Y11531D01*
X643781Y11534D01*
X643930Y11660D01*
X644079Y11784D01*
X644084Y11790D01*
X644089Y11794D01*
X644210Y11947D01*
X644332Y12098D01*
X644335Y12104D01*
X644339Y12109D01*
X644429Y12285D01*
X644517Y12455D01*
X644519Y12462D01*
X644522Y12468D01*
X644575Y12656D01*
X644629Y12842D01*
X644629Y12849D01*
X644631Y12855D01*
X644645Y13047D01*
X644661Y13244D01*
X644661Y13250D01*
X644661Y13257D01*
X644637Y13449D01*
X644615Y13643D01*
X644612Y13650D01*
X644612Y13656D01*
X644550Y13841D01*
X644490Y14026D01*
X644486Y14032D01*
X644484Y14038D01*
X644388Y14207D01*
X644292Y14377D01*
X644287Y14382D01*
X644284Y14388D01*
X644155Y14536D01*
X644029Y14682D01*
X644023Y14686D01*
X644019Y14691D01*
X643759Y14897D01*
X642648Y15640D01*
X637939Y22687D01*
X636285Y31000D01*
X637939Y39313D01*
X639535Y41703D01*
X639541Y41713D01*
X639548Y41721D01*
X639635Y41890D01*
X639725Y42058D01*
X639728Y42069D01*
X639733Y42079D01*
X639786Y42261D01*
X639840Y42444D01*
X639841Y42455D01*
X639845Y42466D01*
X639860Y42655D01*
X639878Y42845D01*
X639877Y42856D01*
X639877Y42867D01*
X639855Y43055D01*
X639835Y43245D01*
X639832Y43256D01*
X639831Y43267D01*
X639772Y43447D01*
X639715Y43629D01*
X639709Y43639D01*
X639706Y43649D01*
X639612Y43815D01*
X639520Y43982D01*
X639513Y43990D01*
X639508Y44000D01*
X639383Y44144D01*
X639261Y44289D01*
X639252Y44296D01*
X639245Y44305D01*
X639095Y44421D01*
X638945Y44540D01*
X638935Y44545D01*
X638927Y44552D01*
X638756Y44636D01*
X638587Y44723D01*
X638576Y44726D01*
X638566Y44731D01*
X638381Y44780D01*
X638199Y44832D01*
X638188Y44832D01*
X638177Y44835D01*
X637846Y44862D01*
X474653Y44862D01*
X469111Y47158D01*
X463495Y52774D01*
X469649Y52774D01*
X469749Y52786D01*
X469849Y52788D01*
X469921Y52806D01*
X469995Y52814D01*
X470090Y52848D01*
X470187Y52873D01*
X470253Y52907D01*
X470323Y52932D01*
X470408Y52986D01*
X470497Y53032D01*
X470554Y53080D01*
X470616Y53121D01*
X470686Y53193D01*
X470762Y53258D01*
X470806Y53318D01*
X470858Y53371D01*
X470910Y53458D01*
X470969Y53538D01*
X470999Y53607D01*
X471037Y53670D01*
X471068Y53766D01*
X471107Y53858D01*
X471121Y53932D01*
X471143Y54002D01*
X471151Y54102D01*
X471169Y54201D01*
X471165Y54276D01*
X471171Y54350D01*
X471156Y54449D01*
X471151Y54550D01*
X471131Y54621D01*
X471119Y54694D01*
X471082Y54788D01*
X471055Y54884D01*
X471018Y54949D01*
X470991Y55018D01*
X470933Y55101D01*
X470884Y55189D01*
X470819Y55265D01*
X470792Y55304D01*
X470765Y55328D01*
X470726Y55375D01*
X470548Y55553D01*
X460795Y65305D01*
X460696Y65384D01*
X460603Y65468D01*
X460560Y65492D01*
X460522Y65522D01*
X460408Y65576D01*
X460298Y65637D01*
X460251Y65650D01*
X460207Y65671D01*
X460084Y65697D01*
X459962Y65732D01*
X459901Y65737D01*
X459867Y65744D01*
X459819Y65743D01*
X459718Y65751D01*
X456087Y65751D01*
X454301Y67537D01*
X454301Y85322D01*
X454288Y85434D01*
X454285Y85547D01*
X454266Y85626D01*
X454261Y85669D01*
X454247Y85709D01*
X454229Y85785D01*
X454084Y86240D01*
X454079Y86251D01*
X454075Y86269D01*
X453560Y87780D01*
X453559Y87807D01*
X453596Y88244D01*
X453595Y88260D01*
X453598Y88276D01*
X453590Y88434D01*
X453585Y88593D01*
X453581Y88608D01*
X453580Y88624D01*
X453536Y88776D01*
X453495Y88930D01*
X453488Y88944D01*
X453483Y88959D01*
X453406Y89097D01*
X453332Y89237D01*
X453321Y89249D01*
X453313Y89263D01*
X453155Y89449D01*
X451510Y91094D01*
X451490Y91111D01*
X451472Y91131D01*
X451353Y91219D01*
X451237Y91311D01*
X451213Y91322D01*
X451192Y91338D01*
X451056Y91396D01*
X450922Y91460D01*
X450896Y91465D01*
X450872Y91476D01*
X450726Y91502D01*
X450581Y91533D01*
X450555Y91533D01*
X450529Y91537D01*
X450381Y91530D01*
X450233Y91527D01*
X450207Y91521D01*
X450181Y91519D01*
X450039Y91478D01*
X449895Y91442D01*
X449871Y91430D01*
X449846Y91423D01*
X449717Y91351D01*
X449585Y91283D01*
X449565Y91266D01*
X449542Y91253D01*
X449356Y91094D01*
X447513Y89251D01*
X436087Y89251D01*
X434301Y91037D01*
X434301Y108859D01*
X434301Y108861D01*
X434301Y108863D01*
X434281Y109034D01*
X434261Y109205D01*
X434261Y109207D01*
X434260Y109209D01*
X434185Y109442D01*
X433671Y110683D01*
X433671Y113917D01*
X434185Y115158D01*
X434186Y115160D01*
X434187Y115162D01*
X434234Y115329D01*
X434281Y115493D01*
X434281Y115495D01*
X434282Y115497D01*
X434301Y115741D01*
X434301Y133563D01*
X436087Y135349D01*
X447513Y135349D01*
X449299Y133563D01*
X449299Y116928D01*
X449313Y116802D01*
X449320Y116676D01*
X449333Y116630D01*
X449339Y116582D01*
X449381Y116463D01*
X449416Y116341D01*
X449440Y116299D01*
X449456Y116254D01*
X449525Y116147D01*
X449586Y116037D01*
X449626Y115991D01*
X449645Y115961D01*
X449680Y115927D01*
X449745Y115851D01*
X453840Y111756D01*
X453861Y111739D01*
X453878Y111719D01*
X453997Y111631D01*
X454113Y111539D01*
X454137Y111528D01*
X454158Y111512D01*
X454294Y111454D01*
X454428Y111390D01*
X454454Y111385D01*
X454478Y111374D01*
X454624Y111348D01*
X454769Y111317D01*
X454795Y111317D01*
X454821Y111313D01*
X454969Y111320D01*
X455117Y111323D01*
X455143Y111329D01*
X455169Y111331D01*
X455311Y111372D01*
X455455Y111408D01*
X455479Y111420D01*
X455504Y111427D01*
X455633Y111499D01*
X455765Y111567D01*
X455785Y111585D01*
X455808Y111597D01*
X455994Y111756D01*
X456087Y111849D01*
X460663Y111849D01*
X460665Y111849D01*
X460667Y111849D01*
X460838Y111869D01*
X461009Y111889D01*
X461011Y111889D01*
X461013Y111890D01*
X461246Y111965D01*
X461459Y112053D01*
X461575Y112053D01*
X461687Y112066D01*
X461799Y112070D01*
X461878Y112088D01*
X461921Y112093D01*
X461961Y112107D01*
X462037Y112125D01*
X462148Y112160D01*
X463354Y112058D01*
X463399Y112060D01*
X463482Y112053D01*
X464693Y112053D01*
X464800Y112009D01*
X464908Y111978D01*
X465013Y111938D01*
X465093Y111925D01*
X465135Y111913D01*
X465178Y111911D01*
X465255Y111898D01*
X465559Y111872D01*
X465573Y111868D01*
X465751Y111854D01*
X465789Y111849D01*
X465800Y111850D01*
X465817Y111849D01*
X467513Y111849D01*
X469299Y110063D01*
X469299Y109828D01*
X469313Y109702D01*
X469320Y109576D01*
X469333Y109530D01*
X469339Y109482D01*
X469381Y109363D01*
X469416Y109241D01*
X469440Y109199D01*
X469456Y109154D01*
X469525Y109047D01*
X469586Y108937D01*
X469626Y108891D01*
X469645Y108861D01*
X469680Y108827D01*
X469745Y108751D01*
X469967Y108529D01*
X470011Y108422D01*
X470066Y108323D01*
X470113Y108221D01*
X470160Y108155D01*
X470181Y108117D01*
X470209Y108085D01*
X470255Y108022D01*
X470330Y107933D01*
X470697Y106780D01*
X470715Y106739D01*
X470741Y106659D01*
X471205Y105541D01*
X471205Y105425D01*
X471217Y105313D01*
X471221Y105201D01*
X471239Y105122D01*
X471244Y105079D01*
X471259Y105039D01*
X471276Y104963D01*
X471327Y104805D01*
X471374Y104701D01*
X471369Y104693D01*
X471339Y104586D01*
X471300Y104483D01*
X471286Y104400D01*
X471274Y104357D01*
X471270Y104299D01*
X471260Y104241D01*
X471210Y103646D01*
X471211Y103601D01*
X471205Y103518D01*
X471205Y78519D01*
X471219Y78393D01*
X471226Y78267D01*
X471239Y78220D01*
X471244Y78172D01*
X471287Y78053D01*
X471322Y77932D01*
X471346Y77890D01*
X471362Y77844D01*
X471431Y77738D01*
X471492Y77628D01*
X471532Y77581D01*
X471551Y77551D01*
X471586Y77518D01*
X471651Y77441D01*
X480574Y68518D01*
X480673Y68440D01*
X480767Y68355D01*
X480809Y68331D01*
X480847Y68301D01*
X480961Y68248D01*
X481072Y68186D01*
X481118Y68173D01*
X481162Y68153D01*
X481286Y68126D01*
X481407Y68092D01*
X481468Y68087D01*
X481503Y68079D01*
X481551Y68080D01*
X481651Y68072D01*
X492778Y68072D01*
X492804Y68075D01*
X492830Y68073D01*
X492977Y68095D01*
X493124Y68112D01*
X493149Y68121D01*
X493175Y68125D01*
X493313Y68179D01*
X493452Y68229D01*
X493474Y68244D01*
X493499Y68253D01*
X493620Y68338D01*
X493745Y68418D01*
X493763Y68437D01*
X493785Y68452D01*
X493884Y68562D01*
X493987Y68669D01*
X494001Y68692D01*
X494018Y68711D01*
X494090Y68841D01*
X494166Y68968D01*
X494174Y68993D01*
X494187Y69016D01*
X494227Y69159D01*
X494272Y69300D01*
X494274Y69326D01*
X494282Y69351D01*
X494301Y69595D01*
X494301Y110063D01*
X496087Y111849D01*
X507513Y111849D01*
X509299Y110063D01*
X509299Y69595D01*
X509302Y69569D01*
X509300Y69543D01*
X509322Y69396D01*
X509339Y69249D01*
X509347Y69224D01*
X509351Y69198D01*
X509406Y69061D01*
X509456Y68921D01*
X509470Y68899D01*
X509480Y68874D01*
X509565Y68753D01*
X509645Y68628D01*
X509664Y68610D01*
X509679Y68588D01*
X509789Y68489D01*
X509896Y68386D01*
X509918Y68372D01*
X509938Y68355D01*
X510068Y68283D01*
X510195Y68207D01*
X510220Y68199D01*
X510243Y68186D01*
X510386Y68146D01*
X510527Y68101D01*
X510553Y68099D01*
X510578Y68092D01*
X510822Y68072D01*
X543500Y68072D01*
X543526Y68075D01*
X543552Y68073D01*
X543699Y68095D01*
X543846Y68112D01*
X543871Y68121D01*
X543897Y68125D01*
X544035Y68179D01*
X544174Y68229D01*
X544196Y68244D01*
X544221Y68253D01*
X544342Y68338D01*
X544467Y68418D01*
X544485Y68437D01*
X544507Y68452D01*
X544606Y68562D01*
X544709Y68669D01*
X544723Y68692D01*
X544740Y68711D01*
X544812Y68841D01*
X544888Y68968D01*
X544896Y68993D01*
X544909Y69016D01*
X544949Y69159D01*
X544994Y69300D01*
X544996Y69326D01*
X545004Y69351D01*
X545023Y69595D01*
X545023Y75024D01*
X676168Y75024D01*
X676195Y75027D01*
X676222Y75025D01*
X676395Y75047D01*
X676569Y75064D01*
X676595Y75072D01*
X676622Y75075D01*
X676787Y75131D01*
X676954Y75182D01*
X676978Y75195D01*
X677003Y75204D01*
X677294Y75364D01*
X708871Y96381D01*
X708891Y96398D01*
X708914Y96411D01*
X709047Y96525D01*
X709182Y96636D01*
X709199Y96657D01*
X709219Y96674D01*
X709326Y96812D01*
X709437Y96948D01*
X709450Y96971D01*
X709466Y96992D01*
X709544Y97149D01*
X709626Y97304D01*
X709633Y97329D01*
X709645Y97352D01*
X709691Y97522D01*
X709741Y97690D01*
X709743Y97716D01*
X709750Y97741D01*
X709777Y98072D01*
X709777Y515518D01*
X709774Y515545D01*
X709776Y515572D01*
X709754Y515746D01*
X709737Y515919D01*
X709729Y515945D01*
X709726Y515971D01*
X709670Y516137D01*
X709619Y516304D01*
X709606Y516328D01*
X709598Y516353D01*
X709510Y516505D01*
X709427Y516658D01*
X709410Y516678D01*
X709397Y516702D01*
X709182Y516955D01*
X708979Y517158D01*
X708958Y517175D01*
X708941Y517195D01*
X708803Y517302D01*
X708667Y517413D01*
X708644Y517426D01*
X708622Y517442D01*
X708466Y517520D01*
X708312Y517602D01*
X708286Y517609D01*
X708262Y517621D01*
X708093Y517667D01*
X707926Y517716D01*
X707899Y517719D01*
X707873Y517726D01*
X707542Y517753D01*
X361006Y517753D01*
X360988Y517751D01*
X360970Y517753D01*
X360788Y517731D01*
X360605Y517713D01*
X360588Y517708D01*
X360570Y517706D01*
X360396Y517649D01*
X360220Y517595D01*
X360204Y517586D01*
X360187Y517581D01*
X360027Y517490D01*
X359866Y517403D01*
X359852Y517392D01*
X359837Y517383D01*
X359698Y517263D01*
X359557Y517145D01*
X359546Y517131D01*
X359532Y517120D01*
X359420Y516975D01*
X359304Y516832D01*
X359296Y516816D01*
X359285Y516802D01*
X359203Y516637D01*
X359119Y516474D01*
X359114Y516457D01*
X359106Y516441D01*
X359058Y516263D01*
X359008Y516087D01*
X359006Y516070D01*
X359001Y516052D01*
X358974Y515722D01*
X358974Y506640D01*
X358977Y506609D01*
X358975Y506578D01*
X358997Y506408D01*
X359014Y506239D01*
X359023Y506210D01*
X359027Y506178D01*
X359129Y505863D01*
X360709Y502049D01*
X360709Y488970D01*
X359186Y485294D01*
X356373Y482481D01*
X352697Y480959D01*
X349291Y480959D01*
X349260Y480956D01*
X349229Y480958D01*
X349060Y480936D01*
X348891Y480919D01*
X348861Y480910D01*
X348830Y480906D01*
X348514Y480804D01*
X347608Y480429D01*
X341608Y480429D01*
X340702Y480804D01*
X340672Y480813D01*
X340644Y480827D01*
X340479Y480871D01*
X340317Y480920D01*
X340286Y480923D01*
X340255Y480932D01*
X339925Y480959D01*
X336519Y480959D01*
X332843Y482481D01*
X330030Y485294D01*
X328507Y488970D01*
X328507Y502049D01*
X328658Y502413D01*
X328667Y502443D01*
X328681Y502471D01*
X328725Y502635D01*
X328775Y502799D01*
X328778Y502830D01*
X328786Y502860D01*
X328813Y503190D01*
X328813Y515722D01*
X328811Y515739D01*
X328813Y515757D01*
X328791Y515940D01*
X328773Y516122D01*
X328768Y516139D01*
X328766Y516157D01*
X328709Y516332D01*
X328655Y516507D01*
X328646Y516523D01*
X328641Y516540D01*
X328550Y516700D01*
X328463Y516861D01*
X328452Y516875D01*
X328443Y516890D01*
X328323Y517030D01*
X328205Y517170D01*
X328191Y517182D01*
X328180Y517195D01*
X328035Y517308D01*
X327892Y517423D01*
X327876Y517431D01*
X327862Y517442D01*
X327697Y517524D01*
X327534Y517608D01*
X327517Y517613D01*
X327501Y517621D01*
X327323Y517669D01*
X327147Y517720D01*
X327130Y517721D01*
X327112Y517726D01*
X326782Y517753D01*
X151384Y517753D01*
X151204Y517735D01*
X151024Y517721D01*
X151004Y517715D01*
X150983Y517713D01*
X150810Y517660D01*
X150636Y517610D01*
X150618Y517601D01*
X150598Y517595D01*
X150515Y517550D01*
X139395Y517550D01*
X139369Y517547D01*
X139342Y517549D01*
X139168Y517527D01*
X138995Y517510D01*
X138969Y517502D01*
X138942Y517499D01*
X138777Y517443D01*
X138610Y517392D01*
X138586Y517379D01*
X138561Y517370D01*
X138409Y517283D01*
X138256Y517200D01*
X138235Y517183D01*
X138212Y517169D01*
X137959Y516955D01*
X137654Y516650D01*
X137637Y516629D01*
X137617Y516612D01*
X137510Y516474D01*
X137399Y516338D01*
X137387Y516315D01*
X137370Y516294D01*
X137292Y516137D01*
X137210Y515983D01*
X137203Y515957D01*
X137191Y515933D01*
X137145Y515764D01*
X137096Y515597D01*
X137093Y515570D01*
X137086Y515544D01*
X137059Y515214D01*
X137059Y14529D01*
X137062Y14502D01*
X137060Y14476D01*
X137082Y14302D01*
X137099Y14128D01*
X137107Y14103D01*
X137110Y14076D01*
X137166Y13910D01*
X137217Y13743D01*
X137230Y13720D01*
X137238Y13694D01*
X137326Y13543D01*
X137409Y13389D01*
X137426Y13369D01*
X137439Y13346D01*
X137654Y13093D01*
X138975Y11772D01*
X138996Y11755D01*
X139013Y11735D01*
X139151Y11627D01*
X139286Y11517D01*
X139310Y11504D01*
X139331Y11488D01*
X139488Y11410D01*
X139642Y11328D01*
X139668Y11320D01*
X139692Y11308D01*
X139861Y11263D01*
X140028Y11213D01*
X140055Y11211D01*
X140081Y11204D01*
X140411Y11177D01*
X152631Y11177D01*
X152637Y11177D01*
G37*
G36*
X699576Y583345D02*
X699576Y583345D01*
X699652Y583343D01*
X699821Y583365D01*
X699992Y583379D01*
X700066Y583397D01*
X700141Y583407D01*
X700305Y583457D01*
X700471Y583498D01*
X700540Y583528D01*
X700614Y583550D01*
X700767Y583625D01*
X700924Y583692D01*
X700988Y583733D01*
X701057Y583767D01*
X701196Y583866D01*
X701340Y583957D01*
X701397Y584008D01*
X701459Y584052D01*
X701580Y584172D01*
X701708Y584286D01*
X701756Y584345D01*
X701810Y584399D01*
X701911Y584537D01*
X702018Y584670D01*
X702055Y584736D01*
X702100Y584798D01*
X702177Y584950D01*
X702262Y585099D01*
X702288Y585170D01*
X702323Y585238D01*
X702374Y585401D01*
X702433Y585561D01*
X702448Y585636D01*
X702471Y585709D01*
X702483Y585813D01*
X702528Y586045D01*
X702535Y586281D01*
X702547Y586386D01*
X702547Y943514D01*
X702541Y943590D01*
X702543Y943666D01*
X702521Y943836D01*
X702507Y944006D01*
X702489Y944080D01*
X702479Y944156D01*
X702430Y944319D01*
X702389Y944485D01*
X702359Y944555D01*
X702337Y944628D01*
X702261Y944781D01*
X702194Y944938D01*
X702153Y945003D01*
X702120Y945071D01*
X702021Y945210D01*
X701929Y945354D01*
X701878Y945411D01*
X701834Y945473D01*
X701714Y945595D01*
X701600Y945722D01*
X701541Y945770D01*
X701487Y945824D01*
X701349Y945925D01*
X701216Y946032D01*
X701150Y946070D01*
X701089Y946115D01*
X700936Y946192D01*
X700788Y946276D01*
X700716Y946303D01*
X700648Y946337D01*
X700485Y946388D01*
X700325Y946448D01*
X700250Y946462D01*
X700178Y946485D01*
X700073Y946497D01*
X699841Y946542D01*
X699605Y946550D01*
X699500Y946562D01*
X141794Y946562D01*
X141718Y946555D01*
X141642Y946558D01*
X141472Y946536D01*
X141302Y946522D01*
X141228Y946503D01*
X141152Y946493D01*
X140989Y946444D01*
X140823Y946403D01*
X140753Y946373D01*
X140680Y946351D01*
X140527Y946276D01*
X140370Y946208D01*
X140305Y946168D01*
X140237Y946134D01*
X140098Y946035D01*
X139954Y945943D01*
X139897Y945893D01*
X139835Y945849D01*
X139713Y945729D01*
X139586Y945615D01*
X139538Y945555D01*
X139484Y945502D01*
X139383Y945364D01*
X139276Y945231D01*
X139238Y945165D01*
X139193Y945103D01*
X139116Y944951D01*
X139032Y944802D01*
X139005Y944731D01*
X138971Y944663D01*
X138920Y944500D01*
X138860Y944340D01*
X138846Y944265D01*
X138823Y944192D01*
X138811Y944087D01*
X138766Y943855D01*
X138758Y943619D01*
X138746Y943514D01*
X138746Y586386D01*
X138753Y586310D01*
X138750Y586234D01*
X138772Y586065D01*
X138786Y585895D01*
X138805Y585821D01*
X138815Y585745D01*
X138864Y585582D01*
X138905Y585416D01*
X138935Y585346D01*
X138957Y585273D01*
X139032Y585119D01*
X139100Y584962D01*
X139141Y584898D01*
X139174Y584830D01*
X139273Y584690D01*
X139365Y584546D01*
X139415Y584490D01*
X139459Y584427D01*
X139580Y584306D01*
X139693Y584179D01*
X139753Y584131D01*
X139806Y584076D01*
X139944Y583976D01*
X140077Y583869D01*
X140143Y583831D01*
X140205Y583786D01*
X140357Y583709D01*
X140506Y583625D01*
X140577Y583598D01*
X140645Y583564D01*
X140808Y583512D01*
X140968Y583453D01*
X141043Y583438D01*
X141116Y583415D01*
X141221Y583404D01*
X141453Y583358D01*
X141689Y583351D01*
X141794Y583339D01*
X699500Y583339D01*
X699576Y583345D01*
G37*
%LPC*%
G36*
X316087Y89251D02*
X316087Y89251D01*
X314301Y91037D01*
X314301Y133578D01*
X314320Y133602D01*
X314404Y133696D01*
X314428Y133738D01*
X314458Y133776D01*
X314512Y133890D01*
X314573Y134001D01*
X314586Y134047D01*
X314607Y134091D01*
X314633Y134214D01*
X314668Y134336D01*
X314673Y134397D01*
X314680Y134431D01*
X314679Y134480D01*
X314687Y134580D01*
X314687Y155213D01*
X314673Y155339D01*
X314666Y155465D01*
X314653Y155511D01*
X314647Y155560D01*
X314605Y155679D01*
X314570Y155800D01*
X314546Y155842D01*
X314530Y155888D01*
X314461Y155994D01*
X314400Y156104D01*
X314360Y156150D01*
X314341Y156180D01*
X314306Y156214D01*
X314241Y156290D01*
X306897Y163635D01*
X306798Y163713D01*
X306704Y163798D01*
X306662Y163821D01*
X306624Y163851D01*
X306510Y163905D01*
X306399Y163966D01*
X306352Y163980D01*
X306309Y164000D01*
X306185Y164027D01*
X306064Y164061D01*
X306003Y164066D01*
X305968Y164074D01*
X305920Y164073D01*
X305820Y164081D01*
X296619Y164081D01*
X292862Y167837D01*
X292842Y167854D01*
X292824Y167875D01*
X292686Y167982D01*
X292551Y168093D01*
X292527Y168105D01*
X292506Y168121D01*
X292349Y168200D01*
X292195Y168281D01*
X292170Y168289D01*
X292146Y168301D01*
X291976Y168346D01*
X291809Y168396D01*
X291783Y168398D01*
X291757Y168405D01*
X291426Y168432D01*
X269072Y168432D01*
X269054Y168431D01*
X269036Y168432D01*
X268854Y168411D01*
X268671Y168393D01*
X268654Y168387D01*
X268637Y168385D01*
X268462Y168328D01*
X268286Y168274D01*
X268271Y168266D01*
X268254Y168260D01*
X268094Y168170D01*
X267932Y168083D01*
X267919Y168071D01*
X267903Y168062D01*
X267764Y167942D01*
X267623Y167825D01*
X267612Y167811D01*
X267598Y167799D01*
X267486Y167654D01*
X267371Y167511D01*
X267363Y167495D01*
X267352Y167481D01*
X267270Y167316D01*
X267185Y167154D01*
X267180Y167137D01*
X267172Y167121D01*
X267125Y166943D01*
X267074Y166767D01*
X267072Y166749D01*
X267068Y166732D01*
X267041Y166401D01*
X267041Y161323D01*
X266868Y160677D01*
X266533Y160097D01*
X266060Y159624D01*
X265481Y159290D01*
X264835Y159117D01*
X260249Y159117D01*
X260249Y166401D01*
X260247Y166419D01*
X260249Y166437D01*
X260228Y166619D01*
X260209Y166802D01*
X260204Y166819D01*
X260202Y166837D01*
X260145Y167011D01*
X260091Y167187D01*
X260083Y167202D01*
X260077Y167219D01*
X259987Y167380D01*
X259899Y167541D01*
X259888Y167554D01*
X259879Y167570D01*
X259759Y167709D01*
X259642Y167850D01*
X259628Y167861D01*
X259616Y167875D01*
X259471Y167987D01*
X259328Y168102D01*
X259312Y168111D01*
X259298Y168121D01*
X259133Y168203D01*
X258971Y168288D01*
X258954Y168293D01*
X258938Y168301D01*
X258759Y168349D01*
X258584Y168399D01*
X258566Y168401D01*
X258549Y168405D01*
X258218Y168432D01*
X256863Y168432D01*
X256694Y168502D01*
X256664Y168511D01*
X256636Y168525D01*
X256472Y168569D01*
X256309Y168619D01*
X256278Y168622D01*
X256248Y168630D01*
X255917Y168657D01*
X255782Y168657D01*
X255764Y168655D01*
X255746Y168657D01*
X255564Y168635D01*
X255381Y168617D01*
X255364Y168612D01*
X255347Y168610D01*
X255172Y168553D01*
X254996Y168499D01*
X254981Y168490D01*
X254964Y168485D01*
X254804Y168394D01*
X254642Y168307D01*
X254629Y168296D01*
X254613Y168287D01*
X254474Y168167D01*
X254333Y168049D01*
X254322Y168035D01*
X254308Y168024D01*
X254196Y167879D01*
X254081Y167736D01*
X254073Y167720D01*
X254062Y167706D01*
X253980Y167541D01*
X253895Y167378D01*
X253890Y167361D01*
X253882Y167345D01*
X253834Y167167D01*
X253784Y166991D01*
X253782Y166974D01*
X253778Y166956D01*
X253751Y166626D01*
X253751Y159117D01*
X249165Y159117D01*
X248519Y159290D01*
X247940Y159624D01*
X247467Y160097D01*
X247132Y160677D01*
X246959Y161323D01*
X246959Y165013D01*
X247134Y165066D01*
X247138Y165068D01*
X247143Y165070D01*
X247314Y165164D01*
X247488Y165258D01*
X247492Y165261D01*
X247496Y165263D01*
X247647Y165390D01*
X247798Y165516D01*
X247800Y165519D01*
X247804Y165522D01*
X247926Y165676D01*
X248050Y165830D01*
X248052Y165834D01*
X248055Y165837D01*
X248144Y166011D01*
X248235Y166187D01*
X248237Y166191D01*
X248239Y166195D01*
X248290Y166377D01*
X248347Y166574D01*
X248347Y166578D01*
X248348Y166583D01*
X248363Y166775D01*
X248380Y166975D01*
X248379Y166980D01*
X248380Y166984D01*
X248356Y167177D01*
X248333Y167375D01*
X248331Y167379D01*
X248331Y167384D01*
X248270Y167567D01*
X248208Y167758D01*
X248206Y167762D01*
X248204Y167766D01*
X248109Y167933D01*
X248010Y168108D01*
X248007Y168112D01*
X248005Y168116D01*
X247875Y168265D01*
X247747Y168413D01*
X247743Y168416D01*
X247740Y168419D01*
X247584Y168539D01*
X247429Y168660D01*
X247425Y168662D01*
X247421Y168665D01*
X247126Y168816D01*
X243835Y170179D01*
X242184Y171830D01*
X242164Y171847D01*
X242146Y171867D01*
X242008Y171974D01*
X241873Y172085D01*
X241849Y172097D01*
X241828Y172114D01*
X241671Y172192D01*
X241517Y172274D01*
X241492Y172281D01*
X241468Y172293D01*
X241298Y172339D01*
X241131Y172388D01*
X241105Y172391D01*
X241079Y172398D01*
X240748Y172425D01*
X236772Y172425D01*
X236754Y172423D01*
X236736Y172425D01*
X236554Y172403D01*
X236371Y172385D01*
X236354Y172380D01*
X236337Y172378D01*
X236162Y172321D01*
X235986Y172267D01*
X235971Y172258D01*
X235954Y172253D01*
X235794Y172162D01*
X235632Y172075D01*
X235619Y172064D01*
X235603Y172055D01*
X235464Y171935D01*
X235323Y171817D01*
X235312Y171803D01*
X235298Y171792D01*
X235186Y171647D01*
X235071Y171504D01*
X235063Y171488D01*
X235052Y171474D01*
X234970Y171309D01*
X234885Y171146D01*
X234880Y171129D01*
X234872Y171113D01*
X234825Y170935D01*
X234774Y170759D01*
X234772Y170742D01*
X234768Y170724D01*
X234741Y170394D01*
X234741Y169123D01*
X234568Y168477D01*
X234233Y167897D01*
X233760Y167424D01*
X233181Y167090D01*
X232535Y166917D01*
X228231Y166917D01*
X228231Y170394D01*
X228230Y170411D01*
X228231Y170429D01*
X228210Y170611D01*
X228191Y170794D01*
X228186Y170811D01*
X228184Y170829D01*
X228127Y171003D01*
X228073Y171179D01*
X228065Y171195D01*
X228059Y171212D01*
X227969Y171372D01*
X227882Y171533D01*
X227870Y171547D01*
X227861Y171562D01*
X227741Y171702D01*
X227624Y171842D01*
X227610Y171854D01*
X227598Y171867D01*
X227453Y171980D01*
X227310Y172095D01*
X227294Y172103D01*
X227280Y172114D01*
X227115Y172196D01*
X226953Y172280D01*
X226936Y172285D01*
X226920Y172293D01*
X226742Y172341D01*
X226566Y172392D01*
X226548Y172393D01*
X226531Y172398D01*
X226200Y172425D01*
X226182Y172423D01*
X226165Y172425D01*
X226164Y172425D01*
X225982Y172403D01*
X225799Y172385D01*
X225782Y172380D01*
X225764Y172378D01*
X225590Y172321D01*
X225414Y172267D01*
X225399Y172258D01*
X225382Y172253D01*
X225221Y172162D01*
X225060Y172075D01*
X225047Y172064D01*
X225031Y172055D01*
X224892Y171935D01*
X224751Y171817D01*
X224740Y171803D01*
X224726Y171792D01*
X224614Y171647D01*
X224499Y171504D01*
X224490Y171488D01*
X224480Y171474D01*
X224398Y171309D01*
X224313Y171146D01*
X224308Y171129D01*
X224300Y171113D01*
X224252Y170935D01*
X224202Y170759D01*
X224200Y170742D01*
X224196Y170724D01*
X224169Y170394D01*
X224169Y166917D01*
X219865Y166917D01*
X219219Y167090D01*
X218640Y167424D01*
X218136Y167928D01*
X218122Y167939D01*
X218111Y167953D01*
X217967Y168067D01*
X217825Y168183D01*
X217809Y168192D01*
X217795Y168203D01*
X217631Y168286D01*
X217469Y168372D01*
X217452Y168377D01*
X217436Y168385D01*
X217259Y168434D01*
X217083Y168487D01*
X217065Y168488D01*
X217048Y168493D01*
X216865Y168506D01*
X216682Y168523D01*
X216664Y168521D01*
X216647Y168522D01*
X216465Y168499D01*
X216282Y168480D01*
X216265Y168474D01*
X216247Y168472D01*
X216074Y168414D01*
X215898Y168358D01*
X215882Y168349D01*
X215866Y168344D01*
X215706Y168252D01*
X215546Y168163D01*
X215532Y168152D01*
X215517Y168143D01*
X215264Y167928D01*
X214760Y167424D01*
X214181Y167090D01*
X213535Y166917D01*
X209231Y166917D01*
X209231Y170426D01*
X209230Y170443D01*
X209231Y170461D01*
X209210Y170643D01*
X209191Y170826D01*
X209186Y170843D01*
X209184Y170861D01*
X209127Y171036D01*
X209073Y171211D01*
X209065Y171227D01*
X209059Y171244D01*
X208969Y171404D01*
X208882Y171565D01*
X208870Y171579D01*
X208861Y171594D01*
X208741Y171734D01*
X208624Y171874D01*
X208610Y171886D01*
X208598Y171899D01*
X208454Y172011D01*
X208310Y172127D01*
X208294Y172135D01*
X208280Y172146D01*
X208115Y172228D01*
X207953Y172312D01*
X207936Y172317D01*
X207920Y172325D01*
X207742Y172373D01*
X207566Y172424D01*
X207548Y172425D01*
X207531Y172430D01*
X207200Y172457D01*
X207182Y172455D01*
X207165Y172457D01*
X207164Y172457D01*
X206982Y172435D01*
X206799Y172417D01*
X206782Y172412D01*
X206764Y172410D01*
X206590Y172353D01*
X206414Y172299D01*
X206399Y172290D01*
X206382Y172285D01*
X206221Y172194D01*
X206060Y172107D01*
X206047Y172096D01*
X206031Y172087D01*
X205892Y171967D01*
X205751Y171849D01*
X205740Y171835D01*
X205726Y171824D01*
X205614Y171679D01*
X205499Y171536D01*
X205490Y171520D01*
X205480Y171506D01*
X205398Y171341D01*
X205313Y171178D01*
X205308Y171161D01*
X205300Y171145D01*
X205252Y170967D01*
X205202Y170791D01*
X205200Y170774D01*
X205196Y170756D01*
X205169Y170426D01*
X205169Y166917D01*
X200865Y166917D01*
X200219Y167090D01*
X199640Y167424D01*
X199167Y167897D01*
X198832Y168477D01*
X198659Y169123D01*
X198659Y171328D01*
X198657Y171350D01*
X198659Y171372D01*
X198637Y171550D01*
X198619Y171729D01*
X198613Y171750D01*
X198610Y171772D01*
X198554Y171941D01*
X198501Y172114D01*
X198491Y172133D01*
X198484Y172154D01*
X198395Y172310D01*
X198309Y172468D01*
X198295Y172485D01*
X198284Y172504D01*
X198166Y172640D01*
X198052Y172777D01*
X198034Y172791D01*
X198020Y172808D01*
X197878Y172917D01*
X197738Y173029D01*
X197718Y173039D01*
X197700Y173053D01*
X197405Y173205D01*
X195535Y173979D01*
X192722Y176793D01*
X191199Y180468D01*
X191199Y188447D01*
X192722Y192123D01*
X194972Y194373D01*
X194989Y194394D01*
X195010Y194411D01*
X195117Y194549D01*
X195227Y194685D01*
X195240Y194708D01*
X195256Y194729D01*
X195334Y194886D01*
X195416Y195040D01*
X195424Y195066D01*
X195436Y195090D01*
X195481Y195259D01*
X195531Y195426D01*
X195533Y195453D01*
X195540Y195479D01*
X195567Y195809D01*
X195567Y196726D01*
X195565Y196743D01*
X195567Y196761D01*
X195546Y196943D01*
X195527Y197126D01*
X195522Y197143D01*
X195520Y197161D01*
X195463Y197336D01*
X195409Y197511D01*
X195401Y197527D01*
X195395Y197544D01*
X195305Y197704D01*
X195217Y197865D01*
X195206Y197879D01*
X195197Y197894D01*
X195077Y198034D01*
X194960Y198174D01*
X194946Y198186D01*
X194934Y198199D01*
X194789Y198312D01*
X194646Y198427D01*
X194630Y198435D01*
X194616Y198446D01*
X194451Y198528D01*
X194289Y198612D01*
X194272Y198617D01*
X194256Y198625D01*
X194077Y198673D01*
X193902Y198724D01*
X193884Y198725D01*
X193867Y198730D01*
X193536Y198757D01*
X189111Y198757D01*
X187509Y199420D01*
X187496Y199424D01*
X187485Y199430D01*
X187304Y199482D01*
X187124Y199537D01*
X187111Y199538D01*
X187098Y199542D01*
X186909Y199557D01*
X186723Y199575D01*
X186710Y199573D01*
X186696Y199574D01*
X186510Y199553D01*
X186323Y199533D01*
X186310Y199529D01*
X186297Y199528D01*
X186119Y199470D01*
X185938Y199413D01*
X185927Y199407D01*
X185914Y199403D01*
X185750Y199310D01*
X185585Y199220D01*
X185575Y199211D01*
X185563Y199205D01*
X185421Y199082D01*
X185277Y198961D01*
X185269Y198950D01*
X185258Y198942D01*
X185144Y198794D01*
X185026Y198646D01*
X185020Y198634D01*
X185012Y198624D01*
X184928Y198455D01*
X184842Y198288D01*
X184838Y198275D01*
X184832Y198263D01*
X184783Y198079D01*
X184732Y197901D01*
X184731Y197887D01*
X184728Y197874D01*
X184701Y197544D01*
X184701Y185768D01*
X183178Y182093D01*
X180365Y179279D01*
X177074Y177916D01*
X177070Y177914D01*
X177066Y177913D01*
X176893Y177819D01*
X176719Y177726D01*
X176715Y177723D01*
X176712Y177721D01*
X176563Y177597D01*
X176409Y177470D01*
X176406Y177466D01*
X176402Y177463D01*
X176280Y177310D01*
X176155Y177157D01*
X176153Y177153D01*
X176150Y177149D01*
X176059Y176975D01*
X175968Y176800D01*
X175967Y176796D01*
X175965Y176792D01*
X175910Y176603D01*
X175855Y176414D01*
X175854Y176410D01*
X175853Y176405D01*
X175837Y176207D01*
X175820Y176013D01*
X175821Y176008D01*
X175820Y176004D01*
X175843Y175810D01*
X175865Y175613D01*
X175867Y175608D01*
X175867Y175604D01*
X175928Y175419D01*
X175988Y175229D01*
X175991Y175226D01*
X175992Y175221D01*
X176089Y175049D01*
X176185Y174878D01*
X176188Y174875D01*
X176190Y174871D01*
X176318Y174722D01*
X176447Y174572D01*
X176450Y174569D01*
X176453Y174566D01*
X176608Y174446D01*
X176764Y174324D01*
X176768Y174322D01*
X176771Y174319D01*
X176949Y174231D01*
X177123Y174143D01*
X177128Y174142D01*
X177132Y174140D01*
X177241Y174111D01*
X177241Y170423D01*
X177068Y169777D01*
X176733Y169197D01*
X176260Y168724D01*
X175681Y168390D01*
X175035Y168217D01*
X170449Y168217D01*
X170449Y175726D01*
X170448Y175735D01*
X170449Y175744D01*
X170448Y175751D01*
X170449Y175761D01*
X170428Y175943D01*
X170409Y176126D01*
X170404Y176143D01*
X170402Y176161D01*
X170345Y176336D01*
X170291Y176511D01*
X170283Y176527D01*
X170277Y176544D01*
X170187Y176704D01*
X170099Y176865D01*
X170088Y176879D01*
X170079Y176894D01*
X169959Y177034D01*
X169842Y177174D01*
X169828Y177186D01*
X169816Y177199D01*
X169671Y177312D01*
X169528Y177427D01*
X169512Y177435D01*
X169498Y177446D01*
X169333Y177528D01*
X169171Y177612D01*
X169154Y177617D01*
X169138Y177625D01*
X168959Y177673D01*
X168784Y177724D01*
X168766Y177725D01*
X168749Y177730D01*
X168418Y177757D01*
X165982Y177757D01*
X165964Y177755D01*
X165946Y177757D01*
X165764Y177735D01*
X165581Y177717D01*
X165564Y177712D01*
X165547Y177710D01*
X165372Y177653D01*
X165196Y177599D01*
X165181Y177590D01*
X165164Y177585D01*
X165004Y177494D01*
X164842Y177407D01*
X164829Y177396D01*
X164813Y177387D01*
X164674Y177267D01*
X164533Y177149D01*
X164522Y177135D01*
X164508Y177124D01*
X164396Y176979D01*
X164281Y176836D01*
X164273Y176820D01*
X164262Y176806D01*
X164180Y176641D01*
X164095Y176478D01*
X164090Y176461D01*
X164082Y176445D01*
X164034Y176266D01*
X163984Y176091D01*
X163982Y176074D01*
X163978Y176056D01*
X163951Y175726D01*
X163951Y168217D01*
X159365Y168217D01*
X158719Y168390D01*
X158140Y168724D01*
X157667Y169197D01*
X157332Y169777D01*
X157159Y170423D01*
X157159Y174113D01*
X157334Y174166D01*
X157338Y174168D01*
X157343Y174170D01*
X157514Y174264D01*
X157688Y174358D01*
X157692Y174361D01*
X157696Y174363D01*
X157847Y174490D01*
X157998Y174616D01*
X158000Y174619D01*
X158004Y174622D01*
X158127Y174777D01*
X158250Y174930D01*
X158252Y174934D01*
X158255Y174937D01*
X158344Y175111D01*
X158435Y175287D01*
X158437Y175291D01*
X158439Y175295D01*
X158492Y175483D01*
X158547Y175674D01*
X158547Y175678D01*
X158548Y175683D01*
X158563Y175871D01*
X158580Y176075D01*
X158579Y176080D01*
X158580Y176084D01*
X158556Y176277D01*
X158533Y176475D01*
X158531Y176479D01*
X158531Y176484D01*
X158470Y176669D01*
X158408Y176858D01*
X158406Y176862D01*
X158404Y176866D01*
X158307Y177038D01*
X158210Y177208D01*
X158207Y177212D01*
X158205Y177216D01*
X158074Y177366D01*
X157947Y177513D01*
X157943Y177516D01*
X157940Y177519D01*
X157784Y177639D01*
X157629Y177760D01*
X157625Y177762D01*
X157621Y177765D01*
X157326Y177916D01*
X154035Y179279D01*
X151222Y182093D01*
X149699Y185768D01*
X149699Y202747D01*
X151222Y206423D01*
X154035Y209236D01*
X156839Y210397D01*
X157974Y210868D01*
X158002Y210882D01*
X158032Y210892D01*
X158179Y210977D01*
X158329Y211058D01*
X158354Y211078D01*
X158380Y211093D01*
X158633Y211308D01*
X160670Y213344D01*
X170784Y223458D01*
X175207Y225290D01*
X182303Y225290D01*
X182326Y225293D01*
X182348Y225291D01*
X182525Y225312D01*
X182704Y225330D01*
X182725Y225337D01*
X182747Y225339D01*
X182917Y225396D01*
X183089Y225448D01*
X183109Y225459D01*
X183130Y225466D01*
X183285Y225555D01*
X183443Y225640D01*
X183460Y225654D01*
X183479Y225665D01*
X183615Y225783D01*
X183752Y225898D01*
X183766Y225915D01*
X183783Y225930D01*
X183892Y226072D01*
X184004Y226212D01*
X184015Y226231D01*
X184028Y226249D01*
X184180Y226544D01*
X184399Y227074D01*
X198684Y241358D01*
X203107Y243190D01*
X440551Y243190D01*
X444974Y241358D01*
X492001Y194331D01*
X493833Y189909D01*
X493833Y164081D01*
X488404Y164081D01*
X488378Y164078D01*
X488352Y164080D01*
X488205Y164058D01*
X488058Y164041D01*
X488033Y164032D01*
X488007Y164028D01*
X487869Y163973D01*
X487730Y163923D01*
X487708Y163909D01*
X487683Y163900D01*
X487562Y163815D01*
X487437Y163734D01*
X487419Y163716D01*
X487397Y163701D01*
X487298Y163591D01*
X487195Y163484D01*
X487181Y163461D01*
X487164Y163442D01*
X487092Y163312D01*
X487016Y163185D01*
X487008Y163160D01*
X486995Y163137D01*
X486955Y162994D01*
X486910Y162853D01*
X486908Y162827D01*
X486900Y162801D01*
X486881Y162558D01*
X486881Y136612D01*
X486895Y136486D01*
X486902Y136360D01*
X486915Y136314D01*
X486921Y136266D01*
X486963Y136147D01*
X486998Y136025D01*
X487022Y135983D01*
X487038Y135937D01*
X487107Y135831D01*
X487168Y135721D01*
X487208Y135675D01*
X487227Y135645D01*
X487262Y135611D01*
X487327Y135535D01*
X489299Y133563D01*
X489299Y91037D01*
X487513Y89251D01*
X476087Y89251D01*
X474301Y91037D01*
X474301Y104113D01*
X474289Y104223D01*
X474285Y104334D01*
X474269Y104396D01*
X474261Y104460D01*
X474224Y104564D01*
X474196Y104671D01*
X474187Y104688D01*
X474203Y104747D01*
X474228Y104802D01*
X474251Y104914D01*
X474282Y105024D01*
X474288Y105102D01*
X474296Y105143D01*
X474295Y105187D01*
X474301Y105268D01*
X474301Y133563D01*
X476273Y135535D01*
X476345Y135625D01*
X476347Y135627D01*
X476348Y135629D01*
X476352Y135634D01*
X476436Y135728D01*
X476460Y135770D01*
X476490Y135808D01*
X476544Y135922D01*
X476605Y136033D01*
X476618Y136079D01*
X476639Y136123D01*
X476665Y136246D01*
X476700Y136368D01*
X476705Y136429D01*
X476712Y136464D01*
X476711Y136512D01*
X476719Y136612D01*
X476719Y162558D01*
X476716Y162584D01*
X476718Y162610D01*
X476696Y162757D01*
X476679Y162904D01*
X476671Y162928D01*
X476667Y162954D01*
X476612Y163092D01*
X476562Y163232D01*
X476548Y163254D01*
X476538Y163278D01*
X476453Y163400D01*
X476373Y163525D01*
X476354Y163543D01*
X476339Y163564D01*
X476229Y163664D01*
X476122Y163767D01*
X476100Y163780D01*
X476080Y163798D01*
X475950Y163870D01*
X475823Y163946D01*
X475798Y163954D01*
X475775Y163966D01*
X475632Y164007D01*
X475491Y164052D01*
X475465Y164054D01*
X475440Y164061D01*
X475196Y164081D01*
X329664Y164081D01*
X329515Y164064D01*
X329365Y164051D01*
X329342Y164044D01*
X329318Y164041D01*
X329176Y163990D01*
X329033Y163944D01*
X329012Y163932D01*
X328990Y163923D01*
X328863Y163842D01*
X328735Y163764D01*
X328717Y163748D01*
X328697Y163734D01*
X328592Y163626D01*
X328485Y163522D01*
X328472Y163501D01*
X328455Y163484D01*
X328377Y163355D01*
X328296Y163228D01*
X328288Y163205D01*
X328276Y163185D01*
X328230Y163042D01*
X328180Y162900D01*
X328177Y162876D01*
X328170Y162853D01*
X328158Y162703D01*
X328141Y162554D01*
X328144Y162529D01*
X328142Y162505D01*
X328164Y162357D01*
X328182Y162207D01*
X328190Y162180D01*
X328193Y162161D01*
X328211Y162117D01*
X328257Y161975D01*
X329044Y160074D01*
X329044Y157244D01*
X329029Y157208D01*
X329028Y157206D01*
X329027Y157204D01*
X328980Y157037D01*
X328933Y156872D01*
X328933Y156870D01*
X328932Y156868D01*
X328913Y156625D01*
X328913Y134580D01*
X328927Y134454D01*
X328934Y134328D01*
X328947Y134281D01*
X328953Y134234D01*
X328995Y134115D01*
X329030Y133993D01*
X329054Y133951D01*
X329070Y133905D01*
X329139Y133799D01*
X329200Y133689D01*
X329240Y133643D01*
X329259Y133613D01*
X329294Y133579D01*
X329299Y133573D01*
X329299Y91037D01*
X327513Y89251D01*
X316087Y89251D01*
G37*
%LPD*%
%LPC*%
G36*
X396087Y89251D02*
X396087Y89251D01*
X394301Y91037D01*
X394301Y133563D01*
X396087Y135349D01*
X407513Y135349D01*
X409299Y133563D01*
X409299Y91037D01*
X407513Y89251D01*
X396087Y89251D01*
G37*
%LPD*%
%LPC*%
G36*
X356087Y89251D02*
X356087Y89251D01*
X354301Y91037D01*
X354301Y133563D01*
X356087Y135349D01*
X367513Y135349D01*
X369299Y133563D01*
X369299Y91037D01*
X367513Y89251D01*
X356087Y89251D01*
G37*
%LPD*%
%LPC*%
G36*
X416087Y65751D02*
X416087Y65751D01*
X414301Y67537D01*
X414301Y110063D01*
X416087Y111849D01*
X427513Y111849D01*
X429299Y110063D01*
X429299Y67537D01*
X427513Y65751D01*
X416087Y65751D01*
G37*
%LPD*%
%LPC*%
G36*
X376087Y65751D02*
X376087Y65751D01*
X374301Y67537D01*
X374301Y110063D01*
X376087Y111849D01*
X387513Y111849D01*
X389299Y110063D01*
X389299Y67537D01*
X387513Y65751D01*
X376087Y65751D01*
G37*
%LPD*%
%LPC*%
G36*
X336087Y65751D02*
X336087Y65751D01*
X334301Y67537D01*
X334301Y110063D01*
X336087Y111849D01*
X347513Y111849D01*
X349299Y110063D01*
X349299Y67537D01*
X347513Y65751D01*
X336087Y65751D01*
G37*
%LPD*%
%LPC*%
G36*
X524024Y114524D02*
X524024Y114524D01*
X524024Y134841D01*
X526585Y134841D01*
X527231Y134668D01*
X527810Y134333D01*
X528283Y133860D01*
X528618Y133281D01*
X528791Y132635D01*
X528791Y114524D01*
X524024Y114524D01*
G37*
%LPD*%
%LPC*%
G36*
X304024Y91024D02*
X304024Y91024D01*
X304024Y111341D01*
X306585Y111341D01*
X307231Y111168D01*
X307810Y110833D01*
X308283Y110360D01*
X308618Y109781D01*
X308791Y109135D01*
X308791Y91024D01*
X304024Y91024D01*
G37*
%LPD*%
%LPC*%
G36*
X304024Y86576D02*
X304024Y86576D01*
X308791Y86576D01*
X308791Y81981D01*
X308791Y68465D01*
X308618Y67819D01*
X308283Y67240D01*
X307810Y66767D01*
X307231Y66432D01*
X306585Y66259D01*
X304024Y66259D01*
X304024Y86576D01*
G37*
%LPD*%
%LPC*%
G36*
X524024Y110076D02*
X524024Y110076D01*
X528791Y110076D01*
X528791Y91965D01*
X528618Y91319D01*
X528283Y90740D01*
X527810Y90267D01*
X527231Y89932D01*
X526585Y89759D01*
X524024Y89759D01*
X524024Y110076D01*
G37*
%LPD*%
%LPC*%
G36*
X514809Y114524D02*
X514809Y114524D01*
X514809Y119119D01*
X514809Y132635D01*
X514982Y133281D01*
X515317Y133860D01*
X515790Y134333D01*
X516369Y134668D01*
X517015Y134841D01*
X519576Y134841D01*
X519576Y114524D01*
X514809Y114524D01*
G37*
%LPD*%
%LPC*%
G36*
X294809Y91024D02*
X294809Y91024D01*
X294809Y109135D01*
X294982Y109781D01*
X295317Y110360D01*
X295790Y110833D01*
X296369Y111168D01*
X297015Y111341D01*
X299576Y111341D01*
X299576Y91024D01*
X294809Y91024D01*
G37*
%LPD*%
%LPC*%
G36*
X297015Y66259D02*
X297015Y66259D01*
X296369Y66432D01*
X295790Y66767D01*
X295317Y67240D01*
X294982Y67819D01*
X294809Y68465D01*
X294809Y86576D01*
X299576Y86576D01*
X299576Y66259D01*
X297015Y66259D01*
G37*
%LPD*%
%LPC*%
G36*
X516369Y89932D02*
X516369Y89932D01*
X515790Y90267D01*
X515317Y90740D01*
X514982Y91319D01*
X514809Y91965D01*
X514809Y110076D01*
X519576Y110076D01*
X519576Y89759D01*
X517015Y89759D01*
X516369Y89932D01*
G37*
%LPD*%
%LPC*%
G36*
X346882Y465034D02*
X346882Y465034D01*
X346882Y469850D01*
X351043Y469850D01*
X351689Y469677D01*
X352268Y469342D01*
X352741Y468869D01*
X353076Y468290D01*
X353249Y467644D01*
X353249Y465034D01*
X346882Y465034D01*
G37*
%LPD*%
%LPC*%
G36*
X335967Y465034D02*
X335967Y465034D01*
X335967Y467644D01*
X336140Y468290D01*
X336475Y468869D01*
X336948Y469342D01*
X337527Y469677D01*
X338173Y469850D01*
X342334Y469850D01*
X342334Y465034D01*
X335967Y465034D01*
G37*
%LPD*%
%LPC*%
G36*
X346882Y455669D02*
X346882Y455669D01*
X346882Y460485D01*
X353249Y460485D01*
X353249Y457875D01*
X353076Y457229D01*
X352741Y456649D01*
X352268Y456176D01*
X351689Y455842D01*
X351043Y455669D01*
X346882Y455669D01*
G37*
%LPD*%
%LPC*%
G36*
X338173Y455669D02*
X338173Y455669D01*
X337527Y455842D01*
X336948Y456176D01*
X336475Y456649D01*
X336140Y457229D01*
X335967Y457875D01*
X335967Y460485D01*
X342334Y460485D01*
X342334Y455669D01*
X338173Y455669D01*
G37*
%LPD*%
D10*
X207200Y171458D03*
X207200Y177958D03*
X207200Y184458D03*
X226200Y184458D03*
X226200Y171458D03*
D11*
X257000Y185158D03*
X257000Y168158D03*
D12*
X461800Y88800D03*
X421800Y88800D03*
X381800Y88800D03*
X341800Y88800D03*
X301800Y88800D03*
X321800Y112300D03*
X521800Y112300D03*
X481800Y112300D03*
X441800Y112300D03*
X401800Y112300D03*
X361800Y112300D03*
X501800Y88800D03*
D13*
X344608Y495509D03*
X344608Y462759D03*
D11*
X167200Y194258D03*
X167200Y177258D03*
D14*
X207600Y213258D03*
X194600Y213258D03*
D15*
X463076Y74521D02*
X477653Y59943D01*
X681342Y59943D01*
X730500Y92661D01*
X730500Y556985D01*
X462026Y92329D02*
X461800Y88800D01*
X462026Y92329D02*
X461696Y92404D01*
X441800Y112300D01*
X463076Y103924D02*
X461800Y88800D01*
X463076Y74521D02*
X463076Y103924D01*
X730500Y556985D02*
X671147Y616338D01*
X551157Y616338D01*
X551055Y616440D01*
D16*
X551055Y616440D03*
X502110Y615118D03*
D15*
X501716Y615511D01*
X274716Y615511D02*
X274413Y615814D01*
X274716Y615511D02*
X501716Y615511D01*
D16*
X274413Y615814D03*
X223689Y615916D03*
D15*
X222827Y615054D01*
X186808Y615054D01*
X165400Y636462D01*
X165400Y888758D02*
X189858Y913216D01*
D16*
X381427Y912708D03*
X428400Y913216D03*
D15*
X650742Y913216D01*
X679271Y884686D01*
X679271Y821956D01*
D16*
X679271Y821956D03*
X679271Y774161D03*
D15*
X551055Y616440D02*
X549938Y615322D01*
X502314Y615322D01*
D17*
X502110Y615118D01*
D15*
X274413Y615814D02*
X273905Y615306D01*
X224298Y615306D02*
X223689Y615916D01*
X224298Y615306D02*
X273905Y615306D01*
X165400Y636462D02*
X165400Y786058D01*
D17*
X165300Y786158D01*
D16*
X165300Y786158D03*
X165500Y838658D03*
D15*
X165500Y888658D01*
D17*
X165400Y888758D01*
X165500Y838658D02*
X165300Y838458D01*
D15*
X165300Y786158D01*
X381834Y913114D02*
X428298Y913114D01*
X428400Y913216D01*
X381834Y913114D02*
X381427Y912708D01*
X679271Y821956D02*
X679271Y774161D01*
X381427Y912708D02*
X380919Y913216D01*
X189858Y913216D01*
D18*
X207200Y177958D02*
X207200Y171458D01*
X256289Y168869D02*
X257000Y168158D01*
X256289Y168869D02*
X228789Y168869D01*
X226200Y171458D01*
X207200Y171458D01*
X206500Y177258D02*
X167200Y177258D01*
D17*
X206500Y177258D02*
X207200Y177958D01*
D19*
X277774Y42367D03*
D15*
X317906Y42367D01*
D17*
X318313Y41961D01*
D19*
X318313Y41961D03*
X376225Y42367D03*
D15*
X428346Y42367D01*
X428955Y41758D01*
D19*
X428955Y41758D03*
X508406Y41859D03*
D17*
X549961Y41758D02*
X550266Y42062D01*
D15*
X549961Y41758D02*
X508508Y41758D01*
D17*
X508406Y41859D01*
D19*
X550266Y42062D03*
D15*
X508305Y41758D02*
X428955Y41758D01*
D17*
X508305Y41758D02*
X508406Y41859D01*
D18*
X256300Y184458D02*
X226200Y184458D01*
D17*
X256300Y184458D02*
X257000Y185158D01*
D20*
X259660Y182497D02*
X298093Y182497D01*
X259660Y182497D02*
X257000Y185158D01*
X298093Y182497D02*
X321931Y158659D01*
X321800Y158528D01*
X321800Y112300D01*
D18*
X205500Y231158D02*
X438158Y231158D01*
X205500Y231158D02*
X194600Y220258D01*
X194600Y213258D01*
X481800Y187515D02*
X481800Y112300D01*
X481800Y187515D02*
X438158Y231158D01*
X194600Y213258D02*
X177600Y213258D01*
X167200Y202858D01*
X167200Y194258D01*
D15*
X343894Y496224D02*
X343894Y535970D01*
X343894Y496224D02*
X344608Y495509D01*
D19*
X343894Y535970D03*
D18*
X207600Y213258D02*
X207600Y184858D01*
D17*
X207200Y184458D01*
M02*
