G04 EAGLE Gerber RS-274X export*
G75*
%MOMM*%
%FSLAX34Y34*%
%LPD*%
%INSolder stop mask SOL*%
%IPPOS*%
%AMOC8*
5,1,8,0,0,1.08239X$1,22.5*%
G01*
%ADD10R,1.403200X0.603200*%
%ADD11R,1.703200X1.503200*%
%ADD12R,1.093200X4.203200*%
%ADD13R,1.423200X1.113200*%
%ADD14R,0.903200X1.103200*%
%ADD15C,0.600000*%
%ADD16C,0.650000*%


D10*
X207200Y171458D03*
X207200Y177958D03*
X207200Y184458D03*
X226200Y184458D03*
X226200Y171458D03*
D11*
X257000Y185158D03*
X257000Y168158D03*
D12*
X461800Y88800D03*
X421800Y88800D03*
X381800Y88800D03*
X341800Y88800D03*
X301800Y88800D03*
X321800Y112300D03*
X521800Y112300D03*
X481800Y112300D03*
X441800Y112300D03*
X401800Y112300D03*
X361800Y112300D03*
X501800Y88800D03*
D13*
X344608Y495509D03*
X344608Y462759D03*
D11*
X167200Y194258D03*
X167200Y177258D03*
D14*
X207600Y213258D03*
X194600Y213258D03*
D15*
X551055Y616440D03*
X502110Y615118D03*
X274413Y615814D03*
X223689Y615916D03*
X381427Y912708D03*
X428400Y913216D03*
X679271Y821956D03*
X679271Y774161D03*
X165300Y786158D03*
X165500Y838658D03*
D16*
X277774Y42367D03*
X318313Y41961D03*
X376225Y42367D03*
X428955Y41758D03*
X508406Y41859D03*
X550266Y42062D03*
X343894Y535970D03*
M02*
