M48
;GenerationSoftware,Autodesk,EAGLE,9.6.2*%
;CreationDate,2021-11-11T03:32:23Z*%
FMAT,2
ICI,OFF
METRIC,TZ,000.000
T1C0.350
%
G90
M71
T1
X63300Y62577
X53820Y62657
X49040Y62787
X38820Y62747
X32550Y62617
X26010Y62667
X21540Y62667
X63140Y174857
X59050Y174857
X54110Y174977
X48300Y175087
X38500Y175137
X33960Y174977
X26490Y174977
X21500Y175057
X27280Y3217
X32170Y3227
X38940Y3267
X42610Y3267
X50530Y3117
X54840Y3217
X27960Y114817
X31440Y114747
X38350Y114667
X43220Y114627
X50110Y114677
X54240Y114677
X34460Y54967
X34060Y166347
M30