G04 EAGLE Gerber RS-274X export*
G75*
%MOMM*%
%FSLAX34Y34*%
%LPD*%
%INComponent side*%
%IPPOS*%
%AMOC8*
5,1,8,0,0,1.08239X$1,22.5*%
G01*
%ADD10R,45.000000X24.000000*%
%ADD11R,8.000000X2.000000*%
%ADD12C,0.650000*%
%ADD13C,1.016000*%
%ADD14C,0.152400*%

G36*
X761215Y555377D02*
X761215Y555377D01*
X761281Y555379D01*
X761324Y555397D01*
X761371Y555405D01*
X761428Y555439D01*
X761488Y555464D01*
X761523Y555495D01*
X761564Y555520D01*
X761606Y555571D01*
X761654Y555615D01*
X761676Y555657D01*
X761705Y555694D01*
X761726Y555756D01*
X761757Y555815D01*
X761765Y555869D01*
X761777Y555906D01*
X761776Y555946D01*
X761784Y556000D01*
X761784Y896000D01*
X761773Y896065D01*
X761771Y896131D01*
X761753Y896174D01*
X761745Y896221D01*
X761711Y896278D01*
X761686Y896338D01*
X761655Y896373D01*
X761630Y896414D01*
X761579Y896456D01*
X761535Y896504D01*
X761493Y896526D01*
X761456Y896555D01*
X761394Y896576D01*
X761335Y896607D01*
X761281Y896615D01*
X761244Y896627D01*
X761204Y896626D01*
X761150Y896634D01*
X201150Y896634D01*
X201085Y896623D01*
X201019Y896621D01*
X200976Y896603D01*
X200929Y896595D01*
X200872Y896561D01*
X200812Y896536D01*
X200777Y896505D01*
X200736Y896480D01*
X200695Y896429D01*
X200646Y896385D01*
X200624Y896343D01*
X200595Y896306D01*
X200574Y896244D01*
X200543Y896185D01*
X200535Y896131D01*
X200523Y896094D01*
X200524Y896055D01*
X200523Y896052D01*
X200523Y896048D01*
X200516Y896000D01*
X200516Y556000D01*
X200527Y555935D01*
X200529Y555869D01*
X200547Y555826D01*
X200555Y555779D01*
X200589Y555722D01*
X200614Y555662D01*
X200645Y555627D01*
X200670Y555586D01*
X200721Y555545D01*
X200765Y555496D01*
X200807Y555474D01*
X200844Y555445D01*
X200906Y555424D01*
X200965Y555393D01*
X201019Y555385D01*
X201056Y555373D01*
X201096Y555374D01*
X201150Y555366D01*
X761150Y555366D01*
X761215Y555377D01*
G37*
G36*
X761215Y93777D02*
X761215Y93777D01*
X761281Y93779D01*
X761324Y93797D01*
X761371Y93805D01*
X761428Y93839D01*
X761488Y93864D01*
X761523Y93895D01*
X761564Y93920D01*
X761606Y93971D01*
X761654Y94015D01*
X761676Y94057D01*
X761705Y94094D01*
X761726Y94156D01*
X761757Y94215D01*
X761765Y94269D01*
X761777Y94306D01*
X761776Y94346D01*
X761784Y94400D01*
X761784Y434400D01*
X761773Y434465D01*
X761771Y434531D01*
X761753Y434574D01*
X761745Y434621D01*
X761711Y434678D01*
X761686Y434738D01*
X761655Y434773D01*
X761630Y434814D01*
X761579Y434856D01*
X761535Y434904D01*
X761493Y434926D01*
X761456Y434955D01*
X761394Y434976D01*
X761335Y435007D01*
X761281Y435015D01*
X761244Y435027D01*
X761204Y435026D01*
X761150Y435034D01*
X201150Y435034D01*
X201085Y435023D01*
X201019Y435021D01*
X200976Y435003D01*
X200929Y434995D01*
X200872Y434961D01*
X200812Y434936D01*
X200777Y434905D01*
X200736Y434880D01*
X200695Y434829D01*
X200646Y434785D01*
X200624Y434743D01*
X200595Y434706D01*
X200574Y434644D01*
X200543Y434585D01*
X200535Y434531D01*
X200523Y434494D01*
X200524Y434455D01*
X200523Y434452D01*
X200523Y434448D01*
X200516Y434400D01*
X200516Y94400D01*
X200527Y94335D01*
X200529Y94269D01*
X200547Y94226D01*
X200555Y94179D01*
X200589Y94122D01*
X200614Y94062D01*
X200645Y94027D01*
X200670Y93986D01*
X200721Y93945D01*
X200765Y93896D01*
X200807Y93874D01*
X200844Y93845D01*
X200906Y93824D01*
X200965Y93793D01*
X201019Y93785D01*
X201056Y93773D01*
X201096Y93774D01*
X201150Y93766D01*
X761150Y93766D01*
X761215Y93777D01*
G37*
D10*
X480150Y264400D03*
D11*
X275150Y34400D03*
X685150Y34400D03*
X480150Y34400D03*
D10*
X480150Y726000D03*
D11*
X275150Y496000D03*
X685150Y496000D03*
X480150Y496000D03*
D12*
X382524Y578612D03*
X416560Y578866D03*
X627888Y578612D03*
X678180Y578612D03*
X633222Y874522D03*
D13*
X480150Y642456D02*
X416560Y578866D01*
X480150Y642456D02*
X480150Y726000D01*
D12*
X346000Y34000D03*
D13*
X287218Y34000D01*
X275565Y34520D01*
X275150Y34400D01*
D12*
X401614Y456640D03*
X565130Y457478D03*
X610100Y456300D03*
X775300Y456800D03*
D14*
X565384Y457224D02*
X565130Y457478D01*
D13*
X565384Y457224D02*
X609176Y457224D01*
D14*
X610100Y456300D01*
D12*
X412000Y34000D03*
D13*
X479750Y34000D01*
D14*
X480150Y34400D01*
D12*
X546000Y34000D03*
D13*
X545600Y34400D02*
X480150Y34400D01*
D14*
X545600Y34400D02*
X546000Y34000D01*
D12*
X608000Y34000D03*
D13*
X684750Y34000D01*
D14*
X685150Y34400D01*
D12*
X734000Y34000D03*
D13*
X733600Y34400D02*
X685150Y34400D01*
D14*
X733600Y34400D02*
X734000Y34000D01*
D13*
X480150Y496000D02*
X275150Y496000D01*
X480150Y496000D02*
X685150Y496000D01*
D12*
X582422Y496570D03*
X376428Y496062D03*
D13*
X193040Y464058D02*
X193040Y433324D01*
X193040Y375000D01*
D12*
X193040Y464058D03*
X193040Y433324D03*
D13*
X416066Y264400D02*
X480150Y264400D01*
X416066Y264400D02*
X325233Y355233D01*
D12*
X190000Y500000D03*
D13*
X190000Y467098D01*
D14*
X193040Y464058D01*
D13*
X194000Y496000D02*
X275150Y496000D01*
D14*
X194000Y496000D02*
X190000Y500000D01*
D12*
X325233Y355233D03*
D13*
X212807Y355233D01*
X193040Y375000D01*
M02*
