G04 EAGLE Gerber RS-274X export*
G75*
%MOMM*%
%FSLAX34Y34*%
%LPD*%
%INSolder side*%
%IPPOS*%
%AMOC8*
5,1,8,0,0,1.08239X$1,22.5*%
G01*
%ADD10R,1.200000X0.400000*%
%ADD11R,1.300000X1.500000*%
%ADD12R,0.890000X4.000000*%
%ADD13R,0.910000X1.220000*%
%ADD14R,1.220000X0.910000*%
%ADD15R,1.500000X1.300000*%
%ADD16R,0.700000X0.900000*%
%ADD17C,1.016000*%
%ADD18C,0.650000*%
%ADD19C,1.000000*%
%ADD20C,0.152400*%
%ADD21C,0.406400*%

G36*
X163874Y16528D02*
X163874Y16528D01*
X163978Y16540D01*
X163995Y16548D01*
X164014Y16551D01*
X164106Y16599D01*
X164201Y16644D01*
X164215Y16657D01*
X164231Y16666D01*
X164303Y16742D01*
X164379Y16814D01*
X164388Y16830D01*
X164400Y16844D01*
X164445Y16939D01*
X164493Y17032D01*
X164496Y17050D01*
X164504Y17067D01*
X164515Y17171D01*
X164532Y17275D01*
X164529Y17297D01*
X164531Y17311D01*
X164524Y17342D01*
X164513Y17441D01*
X164159Y18993D01*
X165817Y26257D01*
X170463Y32083D01*
X177176Y35316D01*
X184628Y35316D01*
X191341Y32083D01*
X195987Y26257D01*
X197645Y18993D01*
X197291Y17441D01*
X197285Y17337D01*
X197273Y17233D01*
X197277Y17214D01*
X197276Y17196D01*
X197303Y17095D01*
X197325Y16992D01*
X197335Y16976D01*
X197340Y16958D01*
X197398Y16871D01*
X197452Y16781D01*
X197466Y16769D01*
X197476Y16754D01*
X197559Y16690D01*
X197638Y16621D01*
X197656Y16614D01*
X197670Y16603D01*
X197769Y16569D01*
X197867Y16529D01*
X197889Y16527D01*
X197903Y16522D01*
X197934Y16522D01*
X198033Y16511D01*
X754330Y16511D01*
X754434Y16528D01*
X754538Y16540D01*
X754555Y16548D01*
X754573Y16551D01*
X754666Y16599D01*
X754761Y16644D01*
X754774Y16657D01*
X754791Y16666D01*
X754863Y16742D01*
X754939Y16814D01*
X754947Y16830D01*
X754960Y16844D01*
X755004Y16939D01*
X755053Y17032D01*
X755056Y17050D01*
X755064Y17067D01*
X755075Y17171D01*
X755092Y17275D01*
X755089Y17297D01*
X755091Y17311D01*
X755084Y17342D01*
X755073Y17441D01*
X754632Y19373D01*
X756290Y26638D01*
X760936Y32463D01*
X767649Y35696D01*
X775101Y35696D01*
X781814Y32463D01*
X786460Y26638D01*
X788118Y19373D01*
X787677Y17441D01*
X787671Y17337D01*
X787659Y17233D01*
X787663Y17214D01*
X787662Y17196D01*
X787689Y17095D01*
X787711Y16992D01*
X787721Y16976D01*
X787726Y16958D01*
X787784Y16871D01*
X787838Y16781D01*
X787852Y16769D01*
X787862Y16754D01*
X787945Y16690D01*
X788024Y16621D01*
X788042Y16614D01*
X788056Y16603D01*
X788155Y16569D01*
X788253Y16529D01*
X788275Y16527D01*
X788289Y16522D01*
X788320Y16522D01*
X788419Y16511D01*
X834228Y16511D01*
X834285Y16520D01*
X834343Y16520D01*
X834406Y16540D01*
X834471Y16551D01*
X834522Y16578D01*
X834577Y16596D01*
X834630Y16635D01*
X834688Y16666D01*
X834728Y16708D01*
X834774Y16742D01*
X834812Y16796D01*
X834857Y16844D01*
X834882Y16897D01*
X834915Y16944D01*
X834948Y17038D01*
X834961Y17067D01*
X834963Y17081D01*
X834970Y17103D01*
X836633Y24388D01*
X841279Y30213D01*
X847992Y33446D01*
X855443Y33446D01*
X862157Y30213D01*
X863005Y29150D01*
X863089Y29074D01*
X863172Y28995D01*
X863180Y28991D01*
X863187Y28985D01*
X863291Y28940D01*
X863395Y28892D01*
X863404Y28891D01*
X863413Y28887D01*
X863526Y28877D01*
X863639Y28865D01*
X863649Y28867D01*
X863658Y28866D01*
X863769Y28893D01*
X863880Y28917D01*
X863888Y28922D01*
X863897Y28924D01*
X863993Y28985D01*
X864091Y29043D01*
X864097Y29050D01*
X864105Y29055D01*
X864177Y29143D01*
X864251Y29230D01*
X864254Y29239D01*
X864260Y29246D01*
X864300Y29352D01*
X864343Y29458D01*
X864344Y29469D01*
X864347Y29476D01*
X864347Y29500D01*
X864361Y29625D01*
X864361Y473202D01*
X864358Y473222D01*
X864360Y473241D01*
X864338Y473343D01*
X864322Y473445D01*
X864312Y473462D01*
X864308Y473482D01*
X864255Y473571D01*
X864206Y473662D01*
X864192Y473676D01*
X864182Y473693D01*
X864103Y473760D01*
X864028Y473832D01*
X864010Y473840D01*
X863995Y473853D01*
X863899Y473892D01*
X863805Y473935D01*
X863785Y473937D01*
X863767Y473945D01*
X863600Y473963D01*
X369316Y473963D01*
X369245Y473952D01*
X369174Y473950D01*
X369125Y473932D01*
X369073Y473924D01*
X369010Y473890D01*
X368943Y473865D01*
X368902Y473833D01*
X368856Y473808D01*
X368807Y473757D01*
X368751Y473712D01*
X368722Y473668D01*
X368687Y473630D01*
X368656Y473565D01*
X368618Y473505D01*
X368605Y473454D01*
X368583Y473407D01*
X368575Y473336D01*
X368557Y473266D01*
X368562Y473214D01*
X368556Y473163D01*
X368571Y473092D01*
X368577Y473021D01*
X368597Y472973D01*
X368608Y472922D01*
X368645Y472861D01*
X368673Y472795D01*
X368718Y472739D01*
X368734Y472711D01*
X368752Y472696D01*
X368778Y472664D01*
X369317Y472125D01*
X369317Y297179D01*
X176021Y297179D01*
X176021Y740919D01*
X411226Y740919D01*
X411316Y740934D01*
X411407Y740941D01*
X411437Y740953D01*
X411469Y740959D01*
X411549Y741001D01*
X411633Y741037D01*
X411665Y741063D01*
X411686Y741074D01*
X411708Y741097D01*
X411764Y741142D01*
X417352Y746730D01*
X417405Y746804D01*
X417465Y746873D01*
X417477Y746903D01*
X417496Y746929D01*
X417523Y747016D01*
X417557Y747101D01*
X417561Y747142D01*
X417568Y747165D01*
X417567Y747197D01*
X417575Y747268D01*
X417575Y916178D01*
X417572Y916198D01*
X417574Y916217D01*
X417552Y916319D01*
X417536Y916421D01*
X417526Y916438D01*
X417522Y916458D01*
X417469Y916547D01*
X417420Y916638D01*
X417406Y916652D01*
X417396Y916669D01*
X417317Y916736D01*
X417242Y916808D01*
X417224Y916816D01*
X417209Y916829D01*
X417113Y916868D01*
X417019Y916911D01*
X416999Y916913D01*
X416981Y916921D01*
X416814Y916939D01*
X340298Y916939D01*
X340208Y916925D01*
X340117Y916917D01*
X340088Y916905D01*
X340056Y916900D01*
X339975Y916857D01*
X339891Y916821D01*
X339859Y916795D01*
X339838Y916784D01*
X339816Y916761D01*
X339760Y916716D01*
X319402Y896358D01*
X319349Y896284D01*
X319289Y896215D01*
X319277Y896184D01*
X319258Y896158D01*
X319231Y896071D01*
X319197Y895986D01*
X319193Y895945D01*
X319186Y895923D01*
X319187Y895891D01*
X319179Y895820D01*
X319179Y861744D01*
X319193Y861654D01*
X319201Y861563D01*
X319213Y861534D01*
X319218Y861502D01*
X319261Y861421D01*
X319297Y861337D01*
X319323Y861305D01*
X319334Y861284D01*
X319357Y861262D01*
X319402Y861206D01*
X323610Y856998D01*
X323626Y856986D01*
X323638Y856971D01*
X323726Y856915D01*
X323810Y856854D01*
X323829Y856849D01*
X323845Y856838D01*
X323946Y856812D01*
X324045Y856782D01*
X324065Y856783D01*
X324084Y856778D01*
X324187Y856786D01*
X324291Y856788D01*
X324309Y856795D01*
X324329Y856797D01*
X324424Y856837D01*
X324522Y856873D01*
X324537Y856885D01*
X324555Y856893D01*
X324686Y856998D01*
X325337Y857649D01*
X336763Y857649D01*
X338549Y855863D01*
X338549Y838617D01*
X338552Y838595D01*
X338564Y838467D01*
X339338Y834618D01*
X338714Y831445D01*
X338676Y831388D01*
X338670Y831373D01*
X338659Y831361D01*
X338619Y831261D01*
X338575Y831164D01*
X338573Y831148D01*
X338567Y831133D01*
X338549Y830966D01*
X338549Y813337D01*
X336763Y811551D01*
X325337Y811551D01*
X323551Y813337D01*
X323551Y830954D01*
X323548Y830972D01*
X323550Y830989D01*
X323529Y831093D01*
X323512Y831197D01*
X323503Y831213D01*
X323500Y831230D01*
X323422Y831379D01*
X323400Y831412D01*
X322739Y834697D01*
X322733Y834712D01*
X322732Y834728D01*
X322690Y834826D01*
X322652Y834927D01*
X322642Y834940D01*
X322636Y834954D01*
X322531Y835085D01*
X319848Y837768D01*
X319790Y837810D01*
X319738Y837859D01*
X319691Y837881D01*
X319649Y837912D01*
X319580Y837933D01*
X319515Y837963D01*
X319463Y837969D01*
X319413Y837984D01*
X319342Y837982D01*
X319271Y837990D01*
X319220Y837979D01*
X319168Y837978D01*
X319100Y837953D01*
X319030Y837938D01*
X318986Y837911D01*
X318937Y837893D01*
X318881Y837848D01*
X318819Y837811D01*
X318785Y837772D01*
X318745Y837739D01*
X318706Y837679D01*
X318659Y837625D01*
X318640Y837576D01*
X318612Y837532D01*
X318594Y837463D01*
X318567Y837396D01*
X318559Y837325D01*
X318551Y837294D01*
X318553Y837271D01*
X318549Y837230D01*
X318549Y836837D01*
X316763Y835051D01*
X305337Y835051D01*
X303551Y836837D01*
X303551Y854558D01*
X303533Y854670D01*
X303517Y854782D01*
X303513Y854793D01*
X303512Y854801D01*
X303500Y854822D01*
X303451Y854936D01*
X303140Y855479D01*
X303085Y855905D01*
X303081Y855922D01*
X303080Y855939D01*
X303034Y856100D01*
X302869Y856497D01*
X302869Y857548D01*
X302864Y857579D01*
X302863Y857644D01*
X302730Y858686D01*
X302842Y859101D01*
X302844Y859118D01*
X302851Y859134D01*
X302869Y859301D01*
X302869Y859742D01*
X302872Y859755D01*
X302880Y859771D01*
X302882Y859789D01*
X302903Y859842D01*
X302912Y859925D01*
X302919Y859957D01*
X302918Y859976D01*
X302921Y860008D01*
X302921Y901119D01*
X304159Y904107D01*
X315692Y915640D01*
X315734Y915698D01*
X315783Y915750D01*
X315805Y915797D01*
X315835Y915839D01*
X315857Y915908D01*
X315887Y915973D01*
X315893Y916025D01*
X315908Y916075D01*
X315906Y916146D01*
X315914Y916217D01*
X315903Y916268D01*
X315901Y916320D01*
X315877Y916388D01*
X315862Y916458D01*
X315835Y916502D01*
X315817Y916551D01*
X315772Y916607D01*
X315735Y916669D01*
X315696Y916703D01*
X315663Y916743D01*
X315603Y916782D01*
X315549Y916829D01*
X315500Y916848D01*
X315456Y916876D01*
X315387Y916894D01*
X315320Y916921D01*
X315249Y916929D01*
X315218Y916937D01*
X315195Y916935D01*
X315154Y916939D01*
X96012Y916939D01*
X95992Y916936D01*
X95973Y916938D01*
X95871Y916916D01*
X95769Y916900D01*
X95752Y916890D01*
X95732Y916886D01*
X95643Y916833D01*
X95552Y916784D01*
X95538Y916770D01*
X95521Y916760D01*
X95454Y916681D01*
X95383Y916606D01*
X95374Y916588D01*
X95361Y916573D01*
X95322Y916477D01*
X95279Y916383D01*
X95277Y916363D01*
X95269Y916345D01*
X95251Y916178D01*
X95251Y33222D01*
X95262Y33156D01*
X95263Y33089D01*
X95281Y33036D01*
X95291Y32980D01*
X95322Y32920D01*
X95344Y32857D01*
X95379Y32812D01*
X95406Y32762D01*
X95454Y32716D01*
X95496Y32663D01*
X95543Y32632D01*
X95584Y32593D01*
X95645Y32565D01*
X95701Y32528D01*
X95756Y32513D01*
X95807Y32489D01*
X95874Y32482D01*
X95939Y32465D01*
X95995Y32468D01*
X96051Y32462D01*
X96117Y32476D01*
X96184Y32481D01*
X96260Y32507D01*
X96292Y32514D01*
X96309Y32525D01*
X96342Y32537D01*
X98881Y33759D01*
X106332Y33759D01*
X113046Y30526D01*
X117691Y24700D01*
X119350Y17432D01*
X119344Y17337D01*
X119333Y17233D01*
X119337Y17214D01*
X119336Y17196D01*
X119363Y17095D01*
X119385Y16992D01*
X119395Y16976D01*
X119399Y16958D01*
X119457Y16871D01*
X119511Y16781D01*
X119525Y16769D01*
X119536Y16754D01*
X119618Y16689D01*
X119698Y16621D01*
X119715Y16614D01*
X119730Y16603D01*
X119829Y16569D01*
X119926Y16529D01*
X119949Y16527D01*
X119962Y16522D01*
X119994Y16522D01*
X120093Y16511D01*
X163771Y16511D01*
X163874Y16528D01*
G37*
G36*
X360262Y337582D02*
X360262Y337582D01*
X360353Y337589D01*
X360383Y337601D01*
X360415Y337607D01*
X360495Y337649D01*
X360579Y337685D01*
X360611Y337711D01*
X360632Y337722D01*
X360654Y337745D01*
X360710Y337790D01*
X361218Y338298D01*
X361271Y338372D01*
X361331Y338441D01*
X361343Y338471D01*
X361362Y338497D01*
X361389Y338584D01*
X361423Y338669D01*
X361427Y338710D01*
X361434Y338733D01*
X361433Y338765D01*
X361441Y338836D01*
X361441Y433070D01*
X361427Y433160D01*
X361419Y433251D01*
X361407Y433281D01*
X361402Y433313D01*
X361359Y433393D01*
X361323Y433477D01*
X361297Y433509D01*
X361286Y433530D01*
X361263Y433552D01*
X361218Y433608D01*
X356646Y438180D01*
X356572Y438233D01*
X356503Y438293D01*
X356473Y438305D01*
X356447Y438324D01*
X356360Y438351D01*
X356275Y438385D01*
X356234Y438389D01*
X356211Y438396D01*
X356179Y438395D01*
X356108Y438403D01*
X231647Y438403D01*
X231647Y510032D01*
X231633Y510122D01*
X231625Y510213D01*
X231613Y510243D01*
X231608Y510275D01*
X231565Y510355D01*
X231529Y510439D01*
X231503Y510471D01*
X231492Y510492D01*
X231469Y510514D01*
X231424Y510570D01*
X230408Y511586D01*
X230334Y511639D01*
X230265Y511699D01*
X230235Y511711D01*
X230209Y511730D01*
X230122Y511757D01*
X230037Y511791D01*
X229996Y511795D01*
X229973Y511802D01*
X229941Y511801D01*
X229870Y511809D01*
X181356Y511809D01*
X181266Y511795D01*
X181175Y511787D01*
X181145Y511775D01*
X181113Y511770D01*
X181033Y511727D01*
X180949Y511691D01*
X180917Y511665D01*
X180896Y511654D01*
X180874Y511631D01*
X180818Y511586D01*
X180564Y511332D01*
X180511Y511258D01*
X180451Y511189D01*
X180439Y511159D01*
X180420Y511133D01*
X180393Y511046D01*
X180359Y510961D01*
X180355Y510920D01*
X180348Y510897D01*
X180349Y510865D01*
X180341Y510794D01*
X180341Y338328D01*
X180344Y338308D01*
X180342Y338289D01*
X180364Y338187D01*
X180381Y338085D01*
X180390Y338068D01*
X180394Y338048D01*
X180447Y337959D01*
X180496Y337868D01*
X180510Y337854D01*
X180520Y337837D01*
X180599Y337770D01*
X180674Y337699D01*
X180692Y337690D01*
X180707Y337677D01*
X180803Y337638D01*
X180897Y337595D01*
X180917Y337593D01*
X180935Y337585D01*
X181102Y337567D01*
X360172Y337567D01*
X360262Y337582D01*
G37*
%LPC*%
G36*
X371027Y764337D02*
X371027Y764337D01*
X371027Y765100D01*
X371024Y765120D01*
X371026Y765139D01*
X371004Y765241D01*
X370987Y765343D01*
X370978Y765360D01*
X370974Y765380D01*
X370921Y765469D01*
X370872Y765560D01*
X370858Y765574D01*
X370848Y765591D01*
X370769Y765658D01*
X370694Y765729D01*
X370676Y765738D01*
X370661Y765751D01*
X370565Y765790D01*
X370471Y765833D01*
X370451Y765835D01*
X370433Y765843D01*
X370266Y765861D01*
X360987Y765861D01*
X360987Y771172D01*
X361160Y771819D01*
X361262Y771995D01*
X361277Y772036D01*
X361301Y772072D01*
X361321Y772150D01*
X361349Y772225D01*
X361351Y772268D01*
X361361Y772311D01*
X361355Y772390D01*
X361358Y772470D01*
X361346Y772513D01*
X361342Y772556D01*
X361311Y772630D01*
X361288Y772706D01*
X361263Y772742D01*
X361246Y772783D01*
X361155Y772896D01*
X361147Y772908D01*
X361144Y772910D01*
X361141Y772913D01*
X360479Y773575D01*
X360479Y775480D01*
X360476Y775498D01*
X360478Y775516D01*
X360478Y775517D01*
X360478Y775519D01*
X360456Y775621D01*
X360440Y775723D01*
X360430Y775740D01*
X360426Y775760D01*
X360373Y775849D01*
X360324Y775940D01*
X360310Y775954D01*
X360300Y775971D01*
X360221Y776038D01*
X360146Y776110D01*
X360128Y776118D01*
X360113Y776131D01*
X360017Y776170D01*
X359923Y776213D01*
X359903Y776215D01*
X359885Y776223D01*
X359718Y776241D01*
X312568Y776241D01*
X312478Y776227D01*
X312387Y776219D01*
X312357Y776207D01*
X312325Y776202D01*
X312245Y776159D01*
X312161Y776123D01*
X312129Y776097D01*
X312108Y776086D01*
X312105Y776084D01*
X312105Y776083D01*
X312085Y776063D01*
X312030Y776018D01*
X311563Y775551D01*
X302037Y775551D01*
X300838Y776750D01*
X300822Y776762D01*
X300810Y776777D01*
X300722Y776833D01*
X300639Y776894D01*
X300620Y776900D01*
X300603Y776910D01*
X300502Y776936D01*
X300403Y776966D01*
X300384Y776966D01*
X300364Y776970D01*
X300261Y776962D01*
X300158Y776960D01*
X300139Y776953D01*
X300119Y776951D01*
X300024Y776911D01*
X299927Y776875D01*
X299911Y776863D01*
X299893Y776855D01*
X299762Y776750D01*
X298563Y775551D01*
X289037Y775551D01*
X287251Y777337D01*
X287251Y778258D01*
X287248Y778278D01*
X287250Y778297D01*
X287228Y778399D01*
X287212Y778501D01*
X287202Y778518D01*
X287198Y778538D01*
X287145Y778627D01*
X287096Y778718D01*
X287082Y778732D01*
X287072Y778749D01*
X286993Y778816D01*
X286918Y778888D01*
X286900Y778896D01*
X286885Y778909D01*
X286789Y778948D01*
X286695Y778991D01*
X286675Y778993D01*
X286657Y779001D01*
X286490Y779019D01*
X241148Y779019D01*
X241115Y779033D01*
X241074Y779037D01*
X241052Y779044D01*
X241019Y779043D01*
X240948Y779051D01*
X236137Y779051D01*
X234438Y780750D01*
X234422Y780762D01*
X234410Y780777D01*
X234322Y780833D01*
X234239Y780894D01*
X234220Y780900D01*
X234203Y780910D01*
X234102Y780936D01*
X234003Y780966D01*
X233984Y780966D01*
X233964Y780970D01*
X233861Y780962D01*
X233758Y780960D01*
X233739Y780953D01*
X233719Y780951D01*
X233624Y780911D01*
X233527Y780875D01*
X233511Y780863D01*
X233493Y780855D01*
X233362Y780750D01*
X231663Y779051D01*
X226852Y779051D01*
X226762Y779037D01*
X226671Y779029D01*
X226641Y779017D01*
X226609Y779012D01*
X226528Y778969D01*
X226444Y778933D01*
X226412Y778907D01*
X226392Y778896D01*
X226370Y778873D01*
X226313Y778828D01*
X226204Y778719D01*
X171810Y778719D01*
X171790Y778716D01*
X171771Y778718D01*
X171669Y778696D01*
X171567Y778680D01*
X171550Y778670D01*
X171530Y778666D01*
X171441Y778613D01*
X171350Y778564D01*
X171336Y778550D01*
X171319Y778540D01*
X171252Y778461D01*
X171180Y778386D01*
X171172Y778368D01*
X171159Y778353D01*
X171120Y778257D01*
X171077Y778163D01*
X171075Y778143D01*
X171067Y778125D01*
X171049Y777958D01*
X171049Y775037D01*
X169263Y773251D01*
X153737Y773251D01*
X153075Y773913D01*
X153040Y773939D01*
X153010Y773971D01*
X152941Y774010D01*
X152876Y774057D01*
X152834Y774069D01*
X152796Y774091D01*
X152717Y774105D01*
X152641Y774129D01*
X152597Y774128D01*
X152554Y774136D01*
X152475Y774125D01*
X152395Y774123D01*
X152354Y774107D01*
X152310Y774101D01*
X152177Y774043D01*
X152164Y774038D01*
X152161Y774036D01*
X152157Y774034D01*
X151981Y773932D01*
X151334Y773759D01*
X146023Y773759D01*
X146023Y783038D01*
X146020Y783058D01*
X146022Y783077D01*
X146000Y783179D01*
X145983Y783281D01*
X145974Y783298D01*
X145970Y783318D01*
X145917Y783407D01*
X145868Y783498D01*
X145854Y783512D01*
X145844Y783529D01*
X145765Y783596D01*
X145690Y783667D01*
X145672Y783676D01*
X145657Y783689D01*
X145561Y783728D01*
X145467Y783771D01*
X145447Y783773D01*
X145429Y783781D01*
X145262Y783799D01*
X144499Y783799D01*
X144499Y783801D01*
X145262Y783801D01*
X145282Y783804D01*
X145301Y783802D01*
X145403Y783824D01*
X145505Y783841D01*
X145522Y783850D01*
X145542Y783854D01*
X145631Y783907D01*
X145722Y783956D01*
X145736Y783970D01*
X145753Y783980D01*
X145820Y784059D01*
X145891Y784134D01*
X145900Y784152D01*
X145913Y784167D01*
X145952Y784263D01*
X145995Y784357D01*
X145997Y784377D01*
X146005Y784395D01*
X146023Y784562D01*
X146023Y793841D01*
X151334Y793841D01*
X151981Y793668D01*
X152157Y793566D01*
X152198Y793551D01*
X152234Y793527D01*
X152312Y793507D01*
X152387Y793479D01*
X152430Y793477D01*
X152473Y793467D01*
X152552Y793473D01*
X152632Y793470D01*
X152675Y793482D01*
X152718Y793486D01*
X152792Y793517D01*
X152868Y793540D01*
X152904Y793565D01*
X152945Y793582D01*
X153058Y793673D01*
X153070Y793681D01*
X153072Y793684D01*
X153075Y793687D01*
X153737Y794349D01*
X169263Y794349D01*
X171049Y792563D01*
X171049Y789642D01*
X171052Y789622D01*
X171050Y789603D01*
X171072Y789501D01*
X171088Y789399D01*
X171098Y789382D01*
X171102Y789362D01*
X171155Y789273D01*
X171204Y789182D01*
X171218Y789168D01*
X171228Y789151D01*
X171307Y789084D01*
X171382Y789012D01*
X171400Y789004D01*
X171415Y788991D01*
X171511Y788952D01*
X171605Y788909D01*
X171625Y788907D01*
X171643Y788899D01*
X171810Y788881D01*
X186854Y788881D01*
X186925Y788892D01*
X186997Y788894D01*
X187046Y788912D01*
X187097Y788920D01*
X187160Y788954D01*
X187228Y788979D01*
X187268Y789011D01*
X187314Y789036D01*
X187364Y789088D01*
X187420Y789132D01*
X187448Y789176D01*
X187484Y789214D01*
X187514Y789279D01*
X187553Y789339D01*
X187565Y789390D01*
X187587Y789437D01*
X187595Y789508D01*
X187613Y789578D01*
X187609Y789630D01*
X187614Y789681D01*
X187599Y789752D01*
X187594Y789823D01*
X187573Y789871D01*
X187562Y789922D01*
X187525Y789983D01*
X187497Y790049D01*
X187453Y790105D01*
X187436Y790133D01*
X187418Y790148D01*
X187393Y790180D01*
X185937Y791635D01*
X185938Y793700D01*
X185938Y796152D01*
X185939Y796159D01*
X185952Y834290D01*
X185949Y834310D01*
X185951Y834329D01*
X185929Y834430D01*
X185912Y834533D01*
X185903Y834550D01*
X185899Y834570D01*
X185846Y834659D01*
X185797Y834750D01*
X185783Y834764D01*
X185773Y834781D01*
X185694Y834848D01*
X185619Y834919D01*
X185601Y834928D01*
X185586Y834941D01*
X185490Y834980D01*
X185396Y835023D01*
X185376Y835025D01*
X185358Y835033D01*
X185355Y835033D01*
X183551Y836837D01*
X183551Y879363D01*
X185337Y881149D01*
X196763Y881149D01*
X198549Y879363D01*
X198549Y836837D01*
X196741Y835030D01*
X196734Y835028D01*
X196632Y835012D01*
X196615Y835002D01*
X196595Y834998D01*
X196506Y834945D01*
X196415Y834896D01*
X196401Y834882D01*
X196384Y834872D01*
X196317Y834793D01*
X196245Y834718D01*
X196237Y834700D01*
X196224Y834685D01*
X196185Y834589D01*
X196142Y834495D01*
X196139Y834475D01*
X196132Y834457D01*
X196113Y834290D01*
X196100Y796158D01*
X196115Y796068D01*
X196122Y795977D01*
X196135Y795947D01*
X196140Y795916D01*
X196183Y795835D01*
X196219Y795751D01*
X196244Y795719D01*
X196255Y795698D01*
X196279Y795676D01*
X196323Y795620D01*
X202840Y789104D01*
X202913Y789051D01*
X202983Y788991D01*
X203013Y788979D01*
X203039Y788960D01*
X203126Y788933D01*
X203211Y788899D01*
X203252Y788895D01*
X203274Y788888D01*
X203307Y788889D01*
X203378Y788881D01*
X216554Y788881D01*
X216644Y788895D01*
X216735Y788903D01*
X216765Y788915D01*
X216797Y788920D01*
X216877Y788963D01*
X216961Y788999D01*
X216993Y789025D01*
X217014Y789036D01*
X217036Y789059D01*
X217092Y789104D01*
X217137Y789149D01*
X231663Y789149D01*
X233362Y787450D01*
X233378Y787438D01*
X233390Y787423D01*
X233478Y787366D01*
X233561Y787306D01*
X233580Y787300D01*
X233597Y787290D01*
X233698Y787264D01*
X233797Y787234D01*
X233817Y787234D01*
X233836Y787230D01*
X233939Y787238D01*
X234042Y787240D01*
X234061Y787247D01*
X234081Y787249D01*
X234176Y787289D01*
X234273Y787325D01*
X234289Y787337D01*
X234307Y787345D01*
X234438Y787450D01*
X234636Y787648D01*
X234689Y787722D01*
X234749Y787791D01*
X234761Y787821D01*
X234780Y787848D01*
X234807Y787935D01*
X234841Y788019D01*
X234845Y788060D01*
X234852Y788083D01*
X234851Y788115D01*
X234859Y788186D01*
X234859Y789601D01*
X243162Y789601D01*
X243181Y789604D01*
X243201Y789602D01*
X243303Y789624D01*
X243405Y789640D01*
X243406Y789641D01*
X243433Y789629D01*
X243453Y789627D01*
X243471Y789619D01*
X243638Y789601D01*
X252031Y789601D01*
X252047Y789573D01*
X252096Y789482D01*
X252110Y789468D01*
X252120Y789451D01*
X252199Y789384D01*
X252274Y789312D01*
X252292Y789304D01*
X252307Y789291D01*
X252403Y789252D01*
X252497Y789209D01*
X252517Y789207D01*
X252535Y789199D01*
X252702Y789181D01*
X287254Y789181D01*
X287344Y789195D01*
X287435Y789203D01*
X287465Y789215D01*
X287497Y789220D01*
X287577Y789263D01*
X287661Y789299D01*
X287693Y789325D01*
X287714Y789336D01*
X287736Y789359D01*
X287792Y789404D01*
X289037Y790649D01*
X298563Y790649D01*
X299762Y789450D01*
X299778Y789438D01*
X299790Y789423D01*
X299878Y789367D01*
X299961Y789306D01*
X299980Y789300D01*
X299997Y789290D01*
X300098Y789264D01*
X300197Y789234D01*
X300216Y789234D01*
X300236Y789230D01*
X300339Y789238D01*
X300442Y789240D01*
X300461Y789247D01*
X300481Y789249D01*
X300576Y789289D01*
X300673Y789325D01*
X300689Y789337D01*
X300707Y789345D01*
X300838Y789450D01*
X302037Y790649D01*
X311563Y790649D01*
X313349Y788863D01*
X313349Y787164D01*
X313352Y787144D01*
X313350Y787125D01*
X313372Y787023D01*
X313388Y786921D01*
X313398Y786904D01*
X313402Y786884D01*
X313455Y786795D01*
X313504Y786704D01*
X313518Y786690D01*
X313528Y786673D01*
X313607Y786606D01*
X313682Y786534D01*
X313700Y786526D01*
X313715Y786513D01*
X313811Y786474D01*
X313905Y786431D01*
X313925Y786429D01*
X313943Y786421D01*
X314110Y786403D01*
X359718Y786403D01*
X359738Y786406D01*
X359757Y786404D01*
X359859Y786426D01*
X359961Y786442D01*
X359978Y786452D01*
X359998Y786456D01*
X360087Y786509D01*
X360178Y786558D01*
X360192Y786572D01*
X360209Y786582D01*
X360276Y786661D01*
X360348Y786736D01*
X360356Y786754D01*
X360369Y786769D01*
X360408Y786865D01*
X360451Y786959D01*
X360453Y786979D01*
X360461Y786997D01*
X360479Y787164D01*
X360479Y789101D01*
X362265Y790887D01*
X365424Y790887D01*
X365444Y790890D01*
X365463Y790888D01*
X365565Y790910D01*
X365667Y790926D01*
X365684Y790936D01*
X365704Y790940D01*
X365793Y790993D01*
X365884Y791042D01*
X365898Y791056D01*
X365915Y791066D01*
X365982Y791145D01*
X366054Y791220D01*
X366062Y791238D01*
X366075Y791253D01*
X366114Y791349D01*
X366157Y791443D01*
X366159Y791463D01*
X366167Y791481D01*
X366185Y791648D01*
X366185Y810790D01*
X366182Y810810D01*
X366184Y810829D01*
X366162Y810931D01*
X366146Y811033D01*
X366136Y811050D01*
X366132Y811070D01*
X366079Y811159D01*
X366030Y811250D01*
X366016Y811264D01*
X366006Y811281D01*
X365927Y811348D01*
X365852Y811420D01*
X365834Y811428D01*
X365819Y811441D01*
X365723Y811480D01*
X365629Y811523D01*
X365609Y811525D01*
X365591Y811533D01*
X365424Y811551D01*
X365337Y811551D01*
X363551Y813337D01*
X363551Y838212D01*
X363537Y838302D01*
X363529Y838393D01*
X363517Y838423D01*
X363512Y838455D01*
X363469Y838536D01*
X363433Y838619D01*
X363407Y838652D01*
X363396Y838672D01*
X363373Y838694D01*
X363328Y838750D01*
X362776Y839302D01*
X359848Y842231D01*
X359790Y842272D01*
X359738Y842322D01*
X359691Y842344D01*
X359649Y842374D01*
X359580Y842395D01*
X359515Y842425D01*
X359463Y842431D01*
X359413Y842446D01*
X359342Y842445D01*
X359271Y842452D01*
X359220Y842441D01*
X359168Y842440D01*
X359100Y842415D01*
X359030Y842400D01*
X358985Y842373D01*
X358937Y842356D01*
X358881Y842311D01*
X358819Y842274D01*
X358785Y842234D01*
X358745Y842202D01*
X358706Y842142D01*
X358659Y842087D01*
X358640Y842039D01*
X358612Y841995D01*
X358594Y841926D01*
X358567Y841859D01*
X358559Y841788D01*
X358551Y841756D01*
X358553Y841733D01*
X358549Y841692D01*
X358549Y836837D01*
X356763Y835051D01*
X345337Y835051D01*
X343551Y836837D01*
X343551Y879363D01*
X345337Y881149D01*
X356763Y881149D01*
X358549Y879363D01*
X358549Y858216D01*
X358563Y858126D01*
X358571Y858035D01*
X358583Y858005D01*
X358588Y857973D01*
X358631Y857893D01*
X358667Y857809D01*
X358693Y857776D01*
X358704Y857756D01*
X358727Y857734D01*
X358772Y857678D01*
X362252Y854197D01*
X362310Y854156D01*
X362362Y854106D01*
X362409Y854084D01*
X362451Y854054D01*
X362520Y854033D01*
X362585Y854003D01*
X362637Y853997D01*
X362687Y853982D01*
X362758Y853983D01*
X362829Y853976D01*
X362880Y853987D01*
X362932Y853988D01*
X363000Y854013D01*
X363070Y854028D01*
X363115Y854055D01*
X363163Y854072D01*
X363219Y854117D01*
X363281Y854154D01*
X363315Y854194D01*
X363355Y854226D01*
X363394Y854286D01*
X363441Y854341D01*
X363460Y854389D01*
X363488Y854433D01*
X363506Y854502D01*
X363533Y854569D01*
X363541Y854640D01*
X363549Y854672D01*
X363547Y854695D01*
X363551Y854736D01*
X363551Y855863D01*
X365337Y857649D01*
X376763Y857649D01*
X378549Y855863D01*
X378549Y813337D01*
X376570Y811358D01*
X376517Y811284D01*
X376457Y811215D01*
X376445Y811185D01*
X376426Y811158D01*
X376399Y811071D01*
X376365Y810987D01*
X376361Y810946D01*
X376354Y810923D01*
X376355Y810891D01*
X376347Y810820D01*
X376347Y791648D01*
X376350Y791628D01*
X376348Y791609D01*
X376370Y791507D01*
X376386Y791405D01*
X376396Y791388D01*
X376400Y791368D01*
X376453Y791279D01*
X376502Y791188D01*
X376516Y791174D01*
X376526Y791157D01*
X376605Y791090D01*
X376680Y791018D01*
X376698Y791010D01*
X376713Y790997D01*
X376809Y790958D01*
X376903Y790915D01*
X376923Y790913D01*
X376941Y790905D01*
X377108Y790887D01*
X379791Y790887D01*
X381577Y789101D01*
X381577Y773575D01*
X380915Y772913D01*
X380889Y772878D01*
X380857Y772848D01*
X380818Y772778D01*
X380771Y772714D01*
X380759Y772672D01*
X380737Y772633D01*
X380723Y772555D01*
X380699Y772479D01*
X380700Y772435D01*
X380692Y772392D01*
X380703Y772313D01*
X380705Y772233D01*
X380721Y772191D01*
X380727Y772148D01*
X380785Y772015D01*
X380790Y772002D01*
X380792Y771999D01*
X380794Y771994D01*
X380896Y771819D01*
X381069Y771172D01*
X381069Y765861D01*
X371790Y765861D01*
X371770Y765858D01*
X371751Y765860D01*
X371649Y765838D01*
X371547Y765821D01*
X371530Y765812D01*
X371510Y765808D01*
X371421Y765755D01*
X371330Y765706D01*
X371316Y765692D01*
X371299Y765682D01*
X371232Y765603D01*
X371161Y765528D01*
X371152Y765510D01*
X371139Y765495D01*
X371100Y765399D01*
X371057Y765305D01*
X371055Y765285D01*
X371047Y765267D01*
X371029Y765100D01*
X371029Y764337D01*
X371027Y764337D01*
G37*
%LPD*%
%LPC*%
G36*
X265337Y835051D02*
X265337Y835051D01*
X263551Y836837D01*
X263551Y879363D01*
X265337Y881149D01*
X276763Y881149D01*
X278549Y879363D01*
X278549Y836837D01*
X276763Y835051D01*
X265337Y835051D01*
G37*
%LPD*%
%LPC*%
G36*
X225337Y835051D02*
X225337Y835051D01*
X223551Y836837D01*
X223551Y879363D01*
X225337Y881149D01*
X236763Y881149D01*
X238549Y879363D01*
X238549Y836837D01*
X236763Y835051D01*
X225337Y835051D01*
G37*
%LPD*%
%LPC*%
G36*
X285337Y811551D02*
X285337Y811551D01*
X283551Y813337D01*
X283551Y855863D01*
X285337Y857649D01*
X296763Y857649D01*
X298549Y855863D01*
X298549Y813337D01*
X296763Y811551D01*
X285337Y811551D01*
G37*
%LPD*%
%LPC*%
G36*
X245337Y811551D02*
X245337Y811551D01*
X243551Y813337D01*
X243551Y855863D01*
X245337Y857649D01*
X256763Y857649D01*
X258549Y855863D01*
X258549Y813337D01*
X256763Y811551D01*
X245337Y811551D01*
G37*
%LPD*%
%LPC*%
G36*
X205337Y811551D02*
X205337Y811551D01*
X203551Y813337D01*
X203551Y855863D01*
X205337Y857649D01*
X216763Y857649D01*
X218549Y855863D01*
X218549Y813337D01*
X216763Y811551D01*
X205337Y811551D01*
G37*
%LPD*%
%LPC*%
G36*
X392573Y859623D02*
X392573Y859623D01*
X392573Y880641D01*
X395834Y880641D01*
X396481Y880468D01*
X397060Y880133D01*
X397533Y879660D01*
X397868Y879081D01*
X398041Y878434D01*
X398041Y859623D01*
X392573Y859623D01*
G37*
%LPD*%
%LPC*%
G36*
X172573Y836123D02*
X172573Y836123D01*
X172573Y857141D01*
X175834Y857141D01*
X176481Y856968D01*
X177060Y856633D01*
X177533Y856160D01*
X177868Y855581D01*
X178041Y854934D01*
X178041Y836123D01*
X172573Y836123D01*
G37*
%LPD*%
%LPC*%
G36*
X392573Y856577D02*
X392573Y856577D01*
X398041Y856577D01*
X398041Y837766D01*
X397868Y837119D01*
X397533Y836540D01*
X397060Y836067D01*
X396481Y835732D01*
X395834Y835559D01*
X392573Y835559D01*
X392573Y856577D01*
G37*
%LPD*%
%LPC*%
G36*
X172573Y833077D02*
X172573Y833077D01*
X178041Y833077D01*
X178041Y814266D01*
X177868Y813619D01*
X177533Y813040D01*
X177060Y812567D01*
X176481Y812232D01*
X175834Y812059D01*
X172573Y812059D01*
X172573Y833077D01*
G37*
%LPD*%
%LPC*%
G36*
X384059Y859623D02*
X384059Y859623D01*
X384059Y878434D01*
X384232Y879081D01*
X384567Y879660D01*
X385040Y880133D01*
X385619Y880468D01*
X386266Y880641D01*
X389527Y880641D01*
X389527Y859623D01*
X384059Y859623D01*
G37*
%LPD*%
%LPC*%
G36*
X164059Y836123D02*
X164059Y836123D01*
X164059Y854934D01*
X164232Y855581D01*
X164567Y856160D01*
X165040Y856633D01*
X165619Y856968D01*
X166266Y857141D01*
X169527Y857141D01*
X169527Y836123D01*
X164059Y836123D01*
G37*
%LPD*%
%LPC*%
G36*
X386266Y835559D02*
X386266Y835559D01*
X385619Y835732D01*
X385040Y836067D01*
X384567Y836540D01*
X384232Y837119D01*
X384059Y837766D01*
X384059Y856577D01*
X389527Y856577D01*
X389527Y835559D01*
X386266Y835559D01*
G37*
%LPD*%
%LPC*%
G36*
X166266Y812059D02*
X166266Y812059D01*
X165619Y812232D01*
X165040Y812567D01*
X164567Y813040D01*
X164232Y813619D01*
X164059Y814266D01*
X164059Y833077D01*
X169527Y833077D01*
X169527Y812059D01*
X166266Y812059D01*
G37*
%LPD*%
%LPC*%
G36*
X372551Y755297D02*
X372551Y755297D01*
X372551Y762815D01*
X381069Y762815D01*
X381069Y757504D01*
X380896Y756857D01*
X380561Y756278D01*
X380088Y755805D01*
X379509Y755470D01*
X378862Y755297D01*
X372551Y755297D01*
G37*
%LPD*%
%LPC*%
G36*
X135459Y785323D02*
X135459Y785323D01*
X135459Y791634D01*
X135632Y792281D01*
X135967Y792860D01*
X136440Y793333D01*
X137019Y793668D01*
X137666Y793841D01*
X142977Y793841D01*
X142977Y785323D01*
X135459Y785323D01*
G37*
%LPD*%
%LPC*%
G36*
X363194Y755297D02*
X363194Y755297D01*
X362547Y755470D01*
X361968Y755805D01*
X361495Y756278D01*
X361160Y756857D01*
X360987Y757504D01*
X360987Y762815D01*
X369505Y762815D01*
X369505Y755297D01*
X363194Y755297D01*
G37*
%LPD*%
%LPC*%
G36*
X137666Y773759D02*
X137666Y773759D01*
X137019Y773932D01*
X136440Y774267D01*
X135967Y774740D01*
X135632Y775319D01*
X135459Y775966D01*
X135459Y782277D01*
X142977Y782277D01*
X142977Y773759D01*
X137666Y773759D01*
G37*
%LPD*%
%LPC*%
G36*
X380698Y410723D02*
X380698Y410723D01*
X380698Y417841D01*
X384059Y417841D01*
X384706Y417668D01*
X385285Y417333D01*
X385758Y416860D01*
X386093Y416281D01*
X386266Y415634D01*
X386266Y410723D01*
X380698Y410723D01*
G37*
%LPD*%
%LPC*%
G36*
X347948Y410723D02*
X347948Y410723D01*
X347948Y417841D01*
X351309Y417841D01*
X351956Y417668D01*
X352535Y417333D01*
X353008Y416860D01*
X353343Y416281D01*
X353516Y415634D01*
X353516Y410723D01*
X347948Y410723D01*
G37*
%LPD*%
%LPC*%
G36*
X372084Y410723D02*
X372084Y410723D01*
X372084Y415634D01*
X372257Y416281D01*
X372592Y416860D01*
X373065Y417333D01*
X373644Y417668D01*
X374291Y417841D01*
X377652Y417841D01*
X377652Y410723D01*
X372084Y410723D01*
G37*
%LPD*%
%LPC*%
G36*
X339334Y410723D02*
X339334Y410723D01*
X339334Y415634D01*
X339507Y416281D01*
X339842Y416860D01*
X340315Y417333D01*
X340894Y417668D01*
X341541Y417841D01*
X344902Y417841D01*
X344902Y410723D01*
X339334Y410723D01*
G37*
%LPD*%
%LPC*%
G36*
X380698Y400559D02*
X380698Y400559D01*
X380698Y407677D01*
X386266Y407677D01*
X386266Y402766D01*
X386093Y402119D01*
X385758Y401540D01*
X385285Y401067D01*
X384706Y400732D01*
X384059Y400559D01*
X380698Y400559D01*
G37*
%LPD*%
%LPC*%
G36*
X347948Y400559D02*
X347948Y400559D01*
X347948Y407677D01*
X353516Y407677D01*
X353516Y402766D01*
X353343Y402119D01*
X353008Y401540D01*
X352535Y401067D01*
X351956Y400732D01*
X351309Y400559D01*
X347948Y400559D01*
G37*
%LPD*%
%LPC*%
G36*
X341541Y400559D02*
X341541Y400559D01*
X340894Y400732D01*
X340315Y401067D01*
X339842Y401540D01*
X339507Y402119D01*
X339334Y402766D01*
X339334Y407677D01*
X344902Y407677D01*
X344902Y400559D01*
X341541Y400559D01*
G37*
%LPD*%
%LPC*%
G36*
X374291Y400559D02*
X374291Y400559D01*
X373644Y400732D01*
X373065Y401067D01*
X372592Y401540D01*
X372257Y402119D01*
X372084Y402766D01*
X372084Y407677D01*
X377652Y407677D01*
X377652Y400559D01*
X374291Y400559D01*
G37*
%LPD*%
%LPC*%
G36*
X244399Y791599D02*
X244399Y791599D01*
X244399Y796101D01*
X251941Y796101D01*
X251941Y794766D01*
X251748Y794047D01*
X251737Y793933D01*
X251723Y793819D01*
X251724Y793809D01*
X251724Y793802D01*
X251729Y793781D01*
X251748Y793653D01*
X251941Y792934D01*
X251941Y791599D01*
X244399Y791599D01*
G37*
%LPD*%
%LPC*%
G36*
X234859Y791599D02*
X234859Y791599D01*
X234859Y792934D01*
X235052Y793653D01*
X235063Y793765D01*
X235077Y793881D01*
X235076Y793891D01*
X235076Y793898D01*
X235071Y793919D01*
X235052Y794047D01*
X234859Y794766D01*
X234859Y796101D01*
X242401Y796101D01*
X242401Y791599D01*
X234859Y791599D01*
G37*
%LPD*%
%LPC*%
G36*
X244399Y798099D02*
X244399Y798099D01*
X244399Y801641D01*
X249734Y801641D01*
X250381Y801468D01*
X250960Y801133D01*
X251433Y800660D01*
X251768Y800081D01*
X251941Y799434D01*
X251941Y798099D01*
X244399Y798099D01*
G37*
%LPD*%
%LPC*%
G36*
X225399Y798099D02*
X225399Y798099D01*
X225399Y801641D01*
X230734Y801641D01*
X231381Y801468D01*
X231960Y801133D01*
X232433Y800660D01*
X232768Y800081D01*
X232941Y799434D01*
X232941Y798099D01*
X225399Y798099D01*
G37*
%LPD*%
%LPC*%
G36*
X234859Y798099D02*
X234859Y798099D01*
X234859Y799434D01*
X235032Y800081D01*
X235367Y800660D01*
X235840Y801133D01*
X236419Y801468D01*
X237066Y801641D01*
X242401Y801641D01*
X242401Y798099D01*
X234859Y798099D01*
G37*
%LPD*%
%LPC*%
G36*
X215859Y798099D02*
X215859Y798099D01*
X215859Y799434D01*
X216032Y800081D01*
X216367Y800660D01*
X216840Y801133D01*
X217419Y801468D01*
X218066Y801641D01*
X223401Y801641D01*
X223401Y798099D01*
X215859Y798099D01*
G37*
%LPD*%
%LPC*%
G36*
X225399Y792559D02*
X225399Y792559D01*
X225399Y796101D01*
X232941Y796101D01*
X232941Y794765D01*
X232768Y794119D01*
X232433Y793540D01*
X231960Y793067D01*
X231381Y792732D01*
X230734Y792559D01*
X225399Y792559D01*
G37*
%LPD*%
%LPC*%
G36*
X218066Y792559D02*
X218066Y792559D01*
X217419Y792732D01*
X216840Y793067D01*
X216367Y793540D01*
X216032Y794119D01*
X215859Y794766D01*
X215859Y796101D01*
X223401Y796101D01*
X223401Y792559D01*
X218066Y792559D01*
G37*
%LPD*%
%LPC*%
G36*
X171049Y834599D02*
X171049Y834599D01*
X171049Y834601D01*
X171051Y834601D01*
X171051Y834599D01*
X171049Y834599D01*
G37*
%LPD*%
%LPC*%
G36*
X391049Y858099D02*
X391049Y858099D01*
X391049Y858101D01*
X391051Y858101D01*
X391051Y858099D01*
X391049Y858099D01*
G37*
%LPD*%
%LPC*%
G36*
X379174Y409199D02*
X379174Y409199D01*
X379174Y409201D01*
X379176Y409201D01*
X379176Y409199D01*
X379174Y409199D01*
G37*
%LPD*%
%LPC*%
G36*
X346424Y409199D02*
X346424Y409199D01*
X346424Y409201D01*
X346426Y409201D01*
X346426Y409199D01*
X346424Y409199D01*
G37*
%LPD*%
D10*
X243400Y797100D03*
X243400Y790600D03*
X243400Y784100D03*
X224400Y784100D03*
X224400Y797100D03*
D11*
X161500Y783800D03*
X144500Y783800D03*
D12*
X331050Y834600D03*
X291050Y834600D03*
X251050Y834600D03*
X211050Y834600D03*
X171050Y834600D03*
X191050Y858100D03*
X391050Y858100D03*
X351050Y858100D03*
X311050Y858100D03*
X271050Y858100D03*
X231050Y858100D03*
X371050Y834600D03*
D13*
X346425Y409200D03*
X379175Y409200D03*
D14*
X768000Y578775D03*
X768000Y546025D03*
D15*
X371028Y781338D03*
X371028Y764338D03*
D16*
X293800Y783100D03*
X306800Y783100D03*
D17*
X331050Y834600D02*
X330178Y838934D01*
X310998Y858114D01*
X311050Y858100D01*
X311050Y899502D02*
X339103Y927555D01*
X311050Y899502D02*
X311050Y858100D01*
X339103Y927555D02*
X567489Y927555D01*
X768000Y838550D02*
X768000Y578775D01*
D18*
X382524Y578612D03*
X416560Y578866D03*
X627888Y578612D03*
X678180Y578612D03*
D17*
X620522Y874522D02*
X567489Y927555D01*
X620522Y874522D02*
X633222Y874522D01*
X732028Y874522D01*
X768000Y838550D01*
D18*
X633222Y874522D03*
D19*
X678343Y578775D02*
X768000Y578775D01*
D20*
X678343Y578775D02*
X678180Y578612D01*
D19*
X627888Y578612D01*
X416814Y578612D01*
X382524Y578612D01*
X416560Y578866D02*
X416814Y578612D01*
D18*
X346000Y34000D03*
X401614Y456640D03*
X565130Y457478D03*
X610100Y456300D03*
X775300Y456800D03*
D17*
X379175Y434201D02*
X379175Y409200D01*
X379175Y434201D02*
X401614Y456640D01*
X402884Y457910D01*
X564698Y457910D01*
D20*
X565130Y457478D01*
D17*
X610100Y456300D02*
X774800Y456300D01*
D20*
X775300Y456800D01*
D18*
X412000Y34000D03*
X546000Y34000D03*
X608000Y34000D03*
X734000Y34000D03*
D17*
X768000Y535336D02*
X768000Y546025D01*
X768000Y535336D02*
X758444Y525780D01*
D20*
X757682Y525018D01*
D17*
X582422Y525018D01*
X376428Y525018D01*
D18*
X582422Y496570D03*
D17*
X582422Y525018D01*
D18*
X376428Y496062D03*
D17*
X376428Y525018D01*
D20*
X375666Y525780D01*
D17*
X217932Y525780D01*
D20*
X217678Y526034D01*
D17*
X210566Y526034D01*
X346425Y409200D02*
X346425Y362681D01*
X340614Y356870D01*
D18*
X193040Y464058D03*
X193040Y433324D03*
X190000Y500000D03*
D17*
X190000Y505468D02*
X210566Y526034D01*
X190000Y505468D02*
X190000Y500000D01*
D20*
X338977Y355233D02*
X340614Y356870D01*
D17*
X338977Y355233D02*
X325233Y355233D01*
D18*
X325233Y355233D03*
D21*
X200958Y783800D02*
X161500Y783800D01*
X200958Y783800D02*
X224100Y783800D01*
D20*
X224400Y784100D01*
D21*
X191041Y858091D02*
X191050Y858100D01*
X191041Y858091D02*
X191019Y793739D01*
X200958Y783800D01*
X243400Y784100D02*
X292800Y784100D01*
D20*
X293800Y783100D01*
D21*
X371250Y781338D02*
X371266Y781322D01*
X371250Y781338D02*
X371028Y781338D01*
X371266Y781322D02*
X308832Y781322D01*
X307054Y783100D02*
X306800Y783100D01*
X307054Y783100D02*
X308832Y781322D01*
X368080Y841184D02*
X350998Y858266D01*
X351050Y858100D01*
X368080Y841184D02*
X370087Y841184D01*
X371050Y834600D01*
D20*
X371266Y836784D01*
D21*
X371266Y781322D01*
M02*
