G04 EAGLE Gerber RS-274X export*
G75*
%MOMM*%
%FSLAX34Y34*%
%LPD*%
%INSolder stop mask SOL*%
%IPPOS*%
%AMOC8*
5,1,8,0,0,1.08239X$1,22.5*%
G01*
%ADD10R,1.300000X0.500000*%
%ADD11R,1.400000X1.600000*%
%ADD12R,0.990000X4.100000*%
%ADD13R,1.010000X1.320000*%
%ADD14R,1.320000X1.010000*%
%ADD15R,1.600000X1.400000*%
%ADD16R,0.800000X1.000000*%
%ADD17C,0.650000*%


D10*
X243400Y797100D03*
X243400Y790600D03*
X243400Y784100D03*
X224400Y784100D03*
X224400Y797100D03*
D11*
X161500Y783800D03*
X144500Y783800D03*
D12*
X331050Y834600D03*
X291050Y834600D03*
X251050Y834600D03*
X211050Y834600D03*
X171050Y834600D03*
X191050Y858100D03*
X391050Y858100D03*
X351050Y858100D03*
X311050Y858100D03*
X271050Y858100D03*
X231050Y858100D03*
X371050Y834600D03*
D13*
X346425Y409200D03*
X379175Y409200D03*
D14*
X768000Y578775D03*
X768000Y546025D03*
D15*
X371028Y781338D03*
X371028Y764338D03*
D16*
X293800Y783100D03*
X306800Y783100D03*
D17*
X382524Y578612D03*
X416560Y578866D03*
X627888Y578612D03*
X678180Y578612D03*
X633222Y874522D03*
X346000Y34000D03*
X401614Y456640D03*
X565130Y457478D03*
X610100Y456300D03*
X775300Y456800D03*
X412000Y34000D03*
X546000Y34000D03*
X608000Y34000D03*
X734000Y34000D03*
X582422Y496570D03*
X376428Y496062D03*
X193040Y464058D03*
X193040Y433324D03*
X190000Y500000D03*
X325233Y355233D03*
M02*
