G04 EAGLE Gerber RS-274X export*
G75*
%MOMM*%
%FSLAX34Y34*%
%LPD*%
%INSolder side*%
%IPPOS*%
%AMOC8*
5,1,8,0,0,1.08239X$1,22.5*%
G01*
%ADD10R,0.400000X1.200000*%
%ADD11R,1.500000X1.300000*%
%ADD12R,0.890000X4.000000*%
%ADD13R,1.220000X0.910000*%
%ADD14R,1.300000X1.500000*%
%ADD15R,0.700000X0.900000*%
%ADD16C,1.016000*%
%ADD17C,0.152400*%
%ADD18C,0.650000*%
%ADD19C,0.609600*%
%ADD20C,0.406400*%

G36*
X700668Y1131339D02*
X700668Y1131339D01*
X700686Y1131337D01*
X700868Y1131358D01*
X701051Y1131377D01*
X701068Y1131382D01*
X701085Y1131384D01*
X701260Y1131441D01*
X701436Y1131495D01*
X701451Y1131503D01*
X701468Y1131509D01*
X701628Y1131599D01*
X701790Y1131687D01*
X701803Y1131698D01*
X701819Y1131707D01*
X701958Y1131827D01*
X702099Y1131944D01*
X702110Y1131958D01*
X702124Y1131970D01*
X702236Y1132115D01*
X702351Y1132258D01*
X702359Y1132274D01*
X702370Y1132288D01*
X702452Y1132453D01*
X702537Y1132615D01*
X702542Y1132632D01*
X702550Y1132649D01*
X702597Y1132827D01*
X702648Y1133002D01*
X702650Y1133020D01*
X702654Y1133037D01*
X702681Y1133368D01*
X702681Y1625818D01*
X702679Y1625836D01*
X702681Y1625854D01*
X702660Y1626036D01*
X702641Y1626219D01*
X702636Y1626236D01*
X702634Y1626253D01*
X702577Y1626428D01*
X702523Y1626604D01*
X702515Y1626619D01*
X702509Y1626636D01*
X702419Y1626796D01*
X702331Y1626958D01*
X702320Y1626971D01*
X702311Y1626987D01*
X702191Y1627126D01*
X702074Y1627267D01*
X702060Y1627278D01*
X702048Y1627292D01*
X701903Y1627404D01*
X701760Y1627519D01*
X701744Y1627527D01*
X701730Y1627538D01*
X701565Y1627620D01*
X701403Y1627705D01*
X701386Y1627710D01*
X701370Y1627718D01*
X701191Y1627765D01*
X701016Y1627816D01*
X700998Y1627818D01*
X700981Y1627822D01*
X700650Y1627849D01*
X357712Y1627849D01*
X357694Y1627847D01*
X357676Y1627849D01*
X357494Y1627828D01*
X357311Y1627809D01*
X357294Y1627804D01*
X357277Y1627802D01*
X357102Y1627745D01*
X356926Y1627691D01*
X356911Y1627683D01*
X356894Y1627677D01*
X356734Y1627587D01*
X356572Y1627499D01*
X356559Y1627488D01*
X356543Y1627479D01*
X356404Y1627359D01*
X356263Y1627242D01*
X356252Y1627228D01*
X356238Y1627216D01*
X356126Y1627071D01*
X356011Y1626928D01*
X356003Y1626912D01*
X355992Y1626898D01*
X355910Y1626733D01*
X355825Y1626571D01*
X355820Y1626554D01*
X355812Y1626538D01*
X355765Y1626359D01*
X355714Y1626184D01*
X355712Y1626166D01*
X355708Y1626149D01*
X355681Y1625818D01*
X355681Y1618566D01*
X355684Y1618535D01*
X355682Y1618504D01*
X355704Y1618334D01*
X355721Y1618165D01*
X355730Y1618136D01*
X355734Y1618105D01*
X355835Y1617789D01*
X356501Y1616182D01*
X356501Y1603104D01*
X354978Y1599428D01*
X352165Y1596615D01*
X348489Y1595092D01*
X345083Y1595092D01*
X345052Y1595089D01*
X345021Y1595091D01*
X344852Y1595069D01*
X344683Y1595052D01*
X344653Y1595043D01*
X344622Y1595039D01*
X344306Y1594938D01*
X343400Y1594562D01*
X337400Y1594562D01*
X336494Y1594938D01*
X336464Y1594947D01*
X336436Y1594961D01*
X336271Y1595005D01*
X336109Y1595054D01*
X336078Y1595057D01*
X336047Y1595065D01*
X335717Y1595092D01*
X332311Y1595092D01*
X328635Y1596615D01*
X325822Y1599428D01*
X324299Y1603104D01*
X324299Y1616182D01*
X325365Y1618754D01*
X325374Y1618784D01*
X325388Y1618812D01*
X325432Y1618977D01*
X325481Y1619140D01*
X325484Y1619171D01*
X325492Y1619201D01*
X325519Y1619532D01*
X325519Y1625818D01*
X325517Y1625836D01*
X325519Y1625854D01*
X325498Y1626036D01*
X325479Y1626219D01*
X325474Y1626236D01*
X325472Y1626253D01*
X325415Y1626428D01*
X325361Y1626604D01*
X325353Y1626619D01*
X325347Y1626636D01*
X325257Y1626796D01*
X325169Y1626958D01*
X325158Y1626971D01*
X325149Y1626987D01*
X325029Y1627126D01*
X324912Y1627267D01*
X324898Y1627278D01*
X324886Y1627292D01*
X324741Y1627404D01*
X324598Y1627519D01*
X324582Y1627527D01*
X324568Y1627538D01*
X324403Y1627620D01*
X324241Y1627705D01*
X324224Y1627710D01*
X324208Y1627718D01*
X324029Y1627765D01*
X323854Y1627816D01*
X323836Y1627818D01*
X323819Y1627822D01*
X323488Y1627849D01*
X113600Y1627849D01*
X113582Y1627847D01*
X113564Y1627849D01*
X113382Y1627828D01*
X113199Y1627809D01*
X113182Y1627804D01*
X113165Y1627802D01*
X112990Y1627745D01*
X112814Y1627691D01*
X112799Y1627683D01*
X112782Y1627677D01*
X112622Y1627587D01*
X112460Y1627499D01*
X112447Y1627488D01*
X112431Y1627479D01*
X112292Y1627359D01*
X112151Y1627242D01*
X112140Y1627228D01*
X112127Y1627216D01*
X112014Y1627071D01*
X111899Y1626928D01*
X111891Y1626912D01*
X111880Y1626898D01*
X111798Y1626733D01*
X111713Y1626571D01*
X111708Y1626554D01*
X111700Y1626538D01*
X111653Y1626359D01*
X111602Y1626184D01*
X111600Y1626166D01*
X111596Y1626149D01*
X111569Y1625818D01*
X111569Y1133368D01*
X111571Y1133350D01*
X111569Y1133332D01*
X111590Y1133150D01*
X111609Y1132967D01*
X111614Y1132950D01*
X111616Y1132933D01*
X111673Y1132758D01*
X111727Y1132582D01*
X111735Y1132567D01*
X111741Y1132550D01*
X111831Y1132390D01*
X111919Y1132228D01*
X111930Y1132215D01*
X111939Y1132199D01*
X112059Y1132060D01*
X112176Y1131919D01*
X112190Y1131908D01*
X112202Y1131895D01*
X112347Y1131782D01*
X112490Y1131667D01*
X112506Y1131659D01*
X112520Y1131648D01*
X112685Y1131566D01*
X112847Y1131481D01*
X112864Y1131476D01*
X112881Y1131468D01*
X113059Y1131421D01*
X113234Y1131370D01*
X113252Y1131368D01*
X113269Y1131364D01*
X113600Y1131337D01*
X700650Y1131337D01*
X700668Y1131339D01*
G37*
G36*
X154389Y10001D02*
X154389Y10001D01*
X154396Y10001D01*
X154592Y10022D01*
X154783Y10041D01*
X154790Y10043D01*
X154796Y10043D01*
X154982Y10102D01*
X155168Y10159D01*
X155174Y10162D01*
X155180Y10164D01*
X155351Y10258D01*
X155522Y10351D01*
X155527Y10355D01*
X155533Y10358D01*
X155683Y10485D01*
X155831Y10608D01*
X155836Y10614D01*
X155841Y10618D01*
X155961Y10770D01*
X156084Y10922D01*
X156087Y10928D01*
X156091Y10933D01*
X156179Y11106D01*
X156269Y11279D01*
X156271Y11286D01*
X156274Y11292D01*
X156327Y11478D01*
X156381Y11666D01*
X156381Y11673D01*
X156383Y11679D01*
X156398Y11872D01*
X156414Y12068D01*
X156413Y12074D01*
X156413Y12081D01*
X156389Y12274D01*
X156367Y12467D01*
X156365Y12474D01*
X156364Y12480D01*
X156303Y12663D01*
X156242Y12850D01*
X156238Y12856D01*
X156236Y12862D01*
X156141Y13029D01*
X156044Y13201D01*
X156039Y13206D01*
X156036Y13212D01*
X155909Y13357D01*
X155781Y13505D01*
X155775Y13510D01*
X155771Y13515D01*
X155511Y13721D01*
X152640Y15640D01*
X147931Y22687D01*
X146277Y31000D01*
X147931Y39313D01*
X152640Y46360D01*
X159687Y51069D01*
X168000Y52723D01*
X176313Y51069D01*
X183360Y46360D01*
X188069Y39313D01*
X189723Y31000D01*
X188069Y22687D01*
X183360Y15640D01*
X180489Y13721D01*
X180484Y13717D01*
X180478Y13713D01*
X180330Y13591D01*
X180178Y13465D01*
X180174Y13460D01*
X180169Y13456D01*
X180048Y13306D01*
X179924Y13153D01*
X179920Y13147D01*
X179916Y13142D01*
X179828Y12971D01*
X179736Y12797D01*
X179734Y12790D01*
X179731Y12785D01*
X179677Y12597D01*
X179622Y12411D01*
X179621Y12404D01*
X179619Y12398D01*
X179603Y12202D01*
X179586Y12010D01*
X179587Y12003D01*
X179586Y11996D01*
X179609Y11803D01*
X179631Y11610D01*
X179633Y11603D01*
X179633Y11597D01*
X179694Y11410D01*
X179753Y11226D01*
X179756Y11220D01*
X179758Y11214D01*
X179854Y11044D01*
X179948Y10874D01*
X179953Y10869D01*
X179956Y10863D01*
X180082Y10718D01*
X180210Y10568D01*
X180215Y10563D01*
X180219Y10558D01*
X180371Y10441D01*
X180526Y10319D01*
X180532Y10316D01*
X180537Y10312D01*
X180712Y10225D01*
X180885Y10137D01*
X180892Y10135D01*
X180898Y10132D01*
X181087Y10082D01*
X181274Y10030D01*
X181280Y10030D01*
X181287Y10028D01*
X181617Y10001D01*
X644383Y10001D01*
X644389Y10001D01*
X644396Y10001D01*
X644592Y10022D01*
X644783Y10041D01*
X644790Y10043D01*
X644796Y10043D01*
X644982Y10102D01*
X645168Y10159D01*
X645174Y10162D01*
X645180Y10164D01*
X645351Y10258D01*
X645522Y10351D01*
X645527Y10355D01*
X645533Y10358D01*
X645683Y10485D01*
X645831Y10608D01*
X645836Y10614D01*
X645841Y10618D01*
X645961Y10770D01*
X646084Y10922D01*
X646087Y10928D01*
X646091Y10933D01*
X646179Y11106D01*
X646269Y11279D01*
X646271Y11286D01*
X646274Y11292D01*
X646327Y11478D01*
X646381Y11666D01*
X646381Y11673D01*
X646383Y11679D01*
X646398Y11872D01*
X646414Y12068D01*
X646413Y12074D01*
X646413Y12081D01*
X646389Y12274D01*
X646367Y12467D01*
X646365Y12474D01*
X646364Y12480D01*
X646303Y12663D01*
X646242Y12850D01*
X646238Y12856D01*
X646236Y12862D01*
X646141Y13029D01*
X646044Y13201D01*
X646039Y13206D01*
X646036Y13212D01*
X645909Y13357D01*
X645781Y13505D01*
X645775Y13510D01*
X645771Y13515D01*
X645511Y13721D01*
X642640Y15640D01*
X637931Y22687D01*
X636277Y31000D01*
X637931Y39313D01*
X639127Y41103D01*
X639132Y41113D01*
X639139Y41122D01*
X639226Y41290D01*
X639316Y41459D01*
X639320Y41470D01*
X639325Y41479D01*
X639377Y41661D01*
X639432Y41844D01*
X639433Y41856D01*
X639436Y41866D01*
X639452Y42055D01*
X639469Y42245D01*
X639468Y42256D01*
X639469Y42268D01*
X639447Y42455D01*
X639427Y42646D01*
X639423Y42656D01*
X639422Y42667D01*
X639363Y42848D01*
X639306Y43030D01*
X639301Y43040D01*
X639297Y43050D01*
X639204Y43216D01*
X639112Y43383D01*
X639105Y43391D01*
X639099Y43401D01*
X638975Y43545D01*
X638852Y43690D01*
X638844Y43697D01*
X638836Y43706D01*
X638686Y43822D01*
X638537Y43940D01*
X638527Y43946D01*
X638518Y43952D01*
X638348Y44037D01*
X638178Y44124D01*
X638168Y44127D01*
X638158Y44132D01*
X637973Y44181D01*
X637791Y44232D01*
X637780Y44233D01*
X637769Y44236D01*
X637438Y44263D01*
X471729Y44263D01*
X466186Y46559D01*
X464039Y48707D01*
X539900Y48707D01*
X539920Y48710D01*
X539939Y48708D01*
X540041Y48730D01*
X540143Y48747D01*
X540160Y48756D01*
X540180Y48760D01*
X540269Y48813D01*
X540360Y48862D01*
X540374Y48876D01*
X540391Y48886D01*
X540458Y48965D01*
X540530Y49040D01*
X540538Y49058D01*
X540551Y49073D01*
X540590Y49169D01*
X540633Y49263D01*
X540635Y49283D01*
X540643Y49301D01*
X540661Y49468D01*
X540661Y52232D01*
X540658Y52252D01*
X540660Y52271D01*
X540638Y52373D01*
X540622Y52475D01*
X540612Y52492D01*
X540608Y52512D01*
X540555Y52601D01*
X540506Y52692D01*
X540492Y52706D01*
X540482Y52723D01*
X540403Y52790D01*
X540328Y52862D01*
X540310Y52870D01*
X540295Y52883D01*
X540199Y52922D01*
X540105Y52965D01*
X540085Y52967D01*
X540067Y52975D01*
X539900Y52993D01*
X473466Y52993D01*
X471132Y53960D01*
X469238Y55854D01*
X459510Y65582D01*
X457616Y67476D01*
X457343Y68136D01*
X457308Y68192D01*
X457282Y68252D01*
X457230Y68317D01*
X457213Y68345D01*
X457198Y68357D01*
X457178Y68383D01*
X456259Y69301D01*
X456259Y91194D01*
X456245Y91284D01*
X456237Y91375D01*
X456225Y91405D01*
X456220Y91437D01*
X456177Y91518D01*
X456141Y91601D01*
X456115Y91634D01*
X456104Y91654D01*
X456081Y91676D01*
X456036Y91732D01*
X451040Y96728D01*
X450982Y96770D01*
X450930Y96820D01*
X450883Y96842D01*
X450841Y96872D01*
X450772Y96893D01*
X450707Y96923D01*
X450655Y96929D01*
X450605Y96944D01*
X450534Y96942D01*
X450463Y96950D01*
X450412Y96939D01*
X450360Y96938D01*
X450292Y96913D01*
X450222Y96898D01*
X450178Y96871D01*
X450129Y96854D01*
X450073Y96809D01*
X450011Y96772D01*
X449977Y96732D01*
X449937Y96700D01*
X449898Y96640D01*
X449851Y96585D01*
X449832Y96537D01*
X449804Y96493D01*
X449786Y96423D01*
X449759Y96357D01*
X449751Y96286D01*
X449743Y96254D01*
X449745Y96231D01*
X449741Y96190D01*
X449741Y92801D01*
X448399Y91459D01*
X437601Y91459D01*
X436259Y92801D01*
X436259Y134699D01*
X437601Y136041D01*
X448399Y136041D01*
X449741Y134699D01*
X449741Y116306D01*
X449755Y116216D01*
X449763Y116125D01*
X449775Y116095D01*
X449780Y116063D01*
X449823Y115982D01*
X449859Y115899D01*
X449885Y115866D01*
X449896Y115846D01*
X449919Y115824D01*
X449964Y115768D01*
X454960Y110772D01*
X455018Y110730D01*
X455070Y110680D01*
X455117Y110658D01*
X455159Y110628D01*
X455228Y110607D01*
X455293Y110577D01*
X455345Y110571D01*
X455395Y110556D01*
X455466Y110558D01*
X455537Y110550D01*
X455588Y110561D01*
X455640Y110562D01*
X455708Y110587D01*
X455778Y110602D01*
X455822Y110629D01*
X455871Y110646D01*
X455927Y110691D01*
X455989Y110728D01*
X456023Y110768D01*
X456063Y110800D01*
X456102Y110860D01*
X456149Y110915D01*
X456168Y110963D01*
X456196Y111007D01*
X456214Y111077D01*
X456241Y111143D01*
X456245Y111185D01*
X457601Y112541D01*
X468399Y112541D01*
X469741Y111199D01*
X469741Y95327D01*
X469751Y95262D01*
X469752Y95196D01*
X469775Y95116D01*
X469780Y95084D01*
X469790Y95067D01*
X469799Y95035D01*
X470131Y94233D01*
X470131Y92974D01*
X470131Y91707D01*
X469799Y90904D01*
X469784Y90840D01*
X469759Y90779D01*
X469750Y90696D01*
X469743Y90664D01*
X469744Y90645D01*
X469741Y90613D01*
X469741Y73629D01*
X469755Y73539D01*
X469763Y73448D01*
X469775Y73418D01*
X469780Y73386D01*
X469823Y73305D01*
X469859Y73222D01*
X469885Y73189D01*
X469896Y73169D01*
X469919Y73147D01*
X469964Y73091D01*
X477137Y65918D01*
X477211Y65865D01*
X477280Y65805D01*
X477310Y65793D01*
X477336Y65774D01*
X477423Y65747D01*
X477508Y65713D01*
X477549Y65709D01*
X477571Y65702D01*
X477604Y65703D01*
X477675Y65695D01*
X539900Y65695D01*
X539920Y65698D01*
X539939Y65696D01*
X540041Y65718D01*
X540143Y65734D01*
X540160Y65744D01*
X540180Y65748D01*
X540269Y65801D01*
X540360Y65850D01*
X540374Y65864D01*
X540391Y65874D01*
X540458Y65953D01*
X540530Y66028D01*
X540538Y66046D01*
X540551Y66061D01*
X540590Y66157D01*
X540633Y66251D01*
X540635Y66271D01*
X540643Y66289D01*
X540661Y66456D01*
X540661Y74425D01*
X675288Y74425D01*
X675315Y74427D01*
X675341Y74425D01*
X675515Y74447D01*
X675689Y74465D01*
X675714Y74472D01*
X675741Y74476D01*
X675906Y74531D01*
X676074Y74583D01*
X676097Y74596D01*
X676122Y74604D01*
X676274Y74691D01*
X676428Y74775D01*
X676448Y74792D01*
X676471Y74805D01*
X676724Y75020D01*
X703440Y101736D01*
X703457Y101756D01*
X703478Y101774D01*
X703585Y101912D01*
X703695Y102047D01*
X703708Y102071D01*
X703724Y102092D01*
X703802Y102249D01*
X703884Y102403D01*
X703892Y102428D01*
X703904Y102453D01*
X703949Y102622D01*
X703999Y102789D01*
X704001Y102815D01*
X704008Y102841D01*
X704035Y103172D01*
X704035Y519368D01*
X704033Y519386D01*
X704035Y519404D01*
X704014Y519586D01*
X703995Y519769D01*
X703990Y519786D01*
X703988Y519803D01*
X703931Y519978D01*
X703877Y520154D01*
X703869Y520169D01*
X703863Y520186D01*
X703773Y520346D01*
X703685Y520508D01*
X703674Y520521D01*
X703665Y520537D01*
X703545Y520676D01*
X703428Y520817D01*
X703414Y520828D01*
X703402Y520842D01*
X703257Y520954D01*
X703114Y521069D01*
X703098Y521077D01*
X703084Y521088D01*
X702919Y521170D01*
X702757Y521255D01*
X702740Y521260D01*
X702724Y521268D01*
X702545Y521315D01*
X702370Y521366D01*
X702352Y521368D01*
X702335Y521372D01*
X702004Y521399D01*
X361212Y521399D01*
X361194Y521397D01*
X361176Y521399D01*
X360994Y521378D01*
X360811Y521359D01*
X360794Y521354D01*
X360777Y521352D01*
X360602Y521295D01*
X360426Y521241D01*
X360411Y521233D01*
X360394Y521227D01*
X360234Y521137D01*
X360072Y521049D01*
X360059Y521038D01*
X360043Y521029D01*
X359904Y520909D01*
X359763Y520792D01*
X359752Y520778D01*
X359738Y520766D01*
X359626Y520621D01*
X359511Y520478D01*
X359503Y520462D01*
X359492Y520448D01*
X359410Y520283D01*
X359325Y520121D01*
X359320Y520104D01*
X359312Y520088D01*
X359265Y519909D01*
X359214Y519734D01*
X359212Y519716D01*
X359208Y519699D01*
X359181Y519368D01*
X359181Y507449D01*
X359184Y507418D01*
X359182Y507387D01*
X359204Y507217D01*
X359221Y507048D01*
X359230Y507018D01*
X359234Y506987D01*
X359335Y506672D01*
X360201Y504582D01*
X360201Y491504D01*
X358678Y487828D01*
X355865Y485015D01*
X352189Y483492D01*
X348783Y483492D01*
X348752Y483489D01*
X348721Y483491D01*
X348552Y483469D01*
X348383Y483452D01*
X348353Y483443D01*
X348322Y483439D01*
X348006Y483338D01*
X347100Y482962D01*
X341100Y482962D01*
X340194Y483338D01*
X340164Y483347D01*
X340136Y483361D01*
X339972Y483405D01*
X339809Y483454D01*
X339778Y483457D01*
X339747Y483465D01*
X339417Y483492D01*
X336011Y483492D01*
X332335Y485015D01*
X329522Y487828D01*
X327999Y491504D01*
X327999Y504582D01*
X328865Y506672D01*
X328874Y506701D01*
X328888Y506729D01*
X328932Y506894D01*
X328981Y507057D01*
X328984Y507088D01*
X328992Y507118D01*
X329019Y507449D01*
X329019Y519368D01*
X329017Y519386D01*
X329019Y519404D01*
X328998Y519586D01*
X328979Y519769D01*
X328974Y519786D01*
X328972Y519803D01*
X328915Y519978D01*
X328861Y520154D01*
X328853Y520169D01*
X328847Y520186D01*
X328757Y520346D01*
X328669Y520508D01*
X328658Y520521D01*
X328649Y520537D01*
X328529Y520676D01*
X328412Y520817D01*
X328398Y520828D01*
X328386Y520842D01*
X328241Y520954D01*
X328098Y521069D01*
X328082Y521077D01*
X328068Y521088D01*
X327903Y521170D01*
X327741Y521255D01*
X327724Y521260D01*
X327708Y521268D01*
X327529Y521315D01*
X327354Y521366D01*
X327336Y521368D01*
X327319Y521372D01*
X326988Y521399D01*
X125400Y521399D01*
X125382Y521397D01*
X125364Y521399D01*
X125182Y521378D01*
X124999Y521359D01*
X124982Y521354D01*
X124965Y521352D01*
X124790Y521295D01*
X124614Y521241D01*
X124599Y521233D01*
X124582Y521227D01*
X124422Y521137D01*
X124260Y521049D01*
X124247Y521038D01*
X124231Y521029D01*
X124092Y520909D01*
X123951Y520792D01*
X123940Y520778D01*
X123927Y520766D01*
X123814Y520621D01*
X123699Y520478D01*
X123691Y520462D01*
X123680Y520448D01*
X123598Y520283D01*
X123513Y520121D01*
X123508Y520104D01*
X123500Y520088D01*
X123453Y519909D01*
X123402Y519734D01*
X123400Y519716D01*
X123396Y519699D01*
X123369Y519368D01*
X123369Y12032D01*
X123371Y12014D01*
X123369Y11996D01*
X123390Y11814D01*
X123409Y11631D01*
X123414Y11614D01*
X123416Y11597D01*
X123473Y11422D01*
X123527Y11246D01*
X123535Y11231D01*
X123541Y11214D01*
X123631Y11054D01*
X123719Y10892D01*
X123730Y10879D01*
X123739Y10863D01*
X123859Y10724D01*
X123976Y10583D01*
X123990Y10572D01*
X124002Y10558D01*
X124147Y10446D01*
X124290Y10331D01*
X124306Y10323D01*
X124320Y10312D01*
X124485Y10230D01*
X124647Y10145D01*
X124664Y10140D01*
X124681Y10132D01*
X124859Y10085D01*
X125034Y10034D01*
X125052Y10032D01*
X125069Y10028D01*
X125400Y10001D01*
X154383Y10001D01*
X154389Y10001D01*
G37*
G36*
X698414Y596530D02*
X698414Y596530D01*
X698528Y596529D01*
X698659Y596550D01*
X698792Y596561D01*
X698902Y596588D01*
X699015Y596606D01*
X699142Y596647D01*
X699271Y596679D01*
X699375Y596724D01*
X699484Y596760D01*
X699602Y596822D01*
X699724Y596874D01*
X699820Y596935D01*
X699922Y596988D01*
X699995Y597047D01*
X700140Y597139D01*
X700382Y597355D01*
X700455Y597413D01*
X701055Y598013D01*
X701129Y598100D01*
X701210Y598181D01*
X701288Y598288D01*
X701374Y598389D01*
X701433Y598487D01*
X701500Y598579D01*
X701560Y598698D01*
X701629Y598812D01*
X701671Y598918D01*
X701723Y599020D01*
X701763Y599147D01*
X701812Y599270D01*
X701837Y599381D01*
X701871Y599490D01*
X701881Y599584D01*
X701919Y599752D01*
X701937Y600076D01*
X701947Y600168D01*
X701947Y946768D01*
X701938Y946882D01*
X701939Y946996D01*
X701918Y947127D01*
X701907Y947260D01*
X701880Y947370D01*
X701862Y947483D01*
X701821Y947610D01*
X701789Y947739D01*
X701744Y947843D01*
X701708Y947952D01*
X701646Y948070D01*
X701594Y948192D01*
X701533Y948288D01*
X701480Y948390D01*
X701421Y948463D01*
X701329Y948608D01*
X701113Y948850D01*
X701055Y948923D01*
X699755Y950223D01*
X699668Y950297D01*
X699587Y950378D01*
X699480Y950456D01*
X699379Y950542D01*
X699281Y950601D01*
X699189Y950668D01*
X699070Y950728D01*
X698956Y950797D01*
X698850Y950839D01*
X698748Y950891D01*
X698621Y950931D01*
X698498Y950980D01*
X698387Y951005D01*
X698278Y951039D01*
X698184Y951049D01*
X698017Y951087D01*
X697692Y951105D01*
X697600Y951115D01*
X141800Y951115D01*
X141724Y951109D01*
X141648Y951111D01*
X141479Y951089D01*
X141308Y951075D01*
X141234Y951057D01*
X141159Y951047D01*
X140995Y950998D01*
X140829Y950957D01*
X140760Y950927D01*
X140687Y950905D01*
X140533Y950829D01*
X140376Y950762D01*
X140312Y950721D01*
X140243Y950688D01*
X140104Y950589D01*
X139960Y950497D01*
X139903Y950446D01*
X139841Y950402D01*
X139720Y950282D01*
X139592Y950168D01*
X139544Y950109D01*
X139490Y950055D01*
X139389Y949917D01*
X139282Y949784D01*
X139245Y949718D01*
X139200Y949657D01*
X139123Y949504D01*
X139038Y949356D01*
X139012Y949284D01*
X138977Y949216D01*
X138926Y949053D01*
X138867Y948893D01*
X138852Y948818D01*
X138829Y948746D01*
X138817Y948641D01*
X138772Y948409D01*
X138765Y948173D01*
X138753Y948068D01*
X138753Y600668D01*
X138762Y600554D01*
X138761Y600440D01*
X138782Y600309D01*
X138793Y600176D01*
X138820Y600066D01*
X138838Y599953D01*
X138879Y599826D01*
X138911Y599697D01*
X138956Y599593D01*
X138992Y599484D01*
X139054Y599366D01*
X139106Y599244D01*
X139167Y599148D01*
X139220Y599046D01*
X139279Y598973D01*
X139371Y598828D01*
X139587Y598586D01*
X139645Y598513D01*
X140745Y597413D01*
X140832Y597339D01*
X140913Y597258D01*
X141020Y597180D01*
X141121Y597094D01*
X141219Y597035D01*
X141311Y596968D01*
X141430Y596908D01*
X141544Y596839D01*
X141650Y596797D01*
X141752Y596745D01*
X141879Y596705D01*
X142002Y596656D01*
X142113Y596631D01*
X142222Y596597D01*
X142316Y596587D01*
X142484Y596549D01*
X142808Y596531D01*
X142900Y596521D01*
X698300Y596521D01*
X698414Y596530D01*
G37*
G36*
X698014Y1716030D02*
X698014Y1716030D01*
X698128Y1716029D01*
X698259Y1716050D01*
X698392Y1716061D01*
X698502Y1716088D01*
X698615Y1716106D01*
X698742Y1716147D01*
X698871Y1716179D01*
X698975Y1716224D01*
X699084Y1716260D01*
X699202Y1716322D01*
X699324Y1716374D01*
X699420Y1716435D01*
X699522Y1716488D01*
X699595Y1716547D01*
X699740Y1716639D01*
X699982Y1716855D01*
X700055Y1716913D01*
X700455Y1717313D01*
X700529Y1717400D01*
X700610Y1717481D01*
X700688Y1717588D01*
X700774Y1717689D01*
X700833Y1717787D01*
X700900Y1717879D01*
X700960Y1717998D01*
X701029Y1718112D01*
X701071Y1718218D01*
X701123Y1718320D01*
X701163Y1718447D01*
X701212Y1718570D01*
X701237Y1718681D01*
X701271Y1718790D01*
X701281Y1718884D01*
X701319Y1719052D01*
X701337Y1719376D01*
X701347Y1719468D01*
X701347Y2065668D01*
X701341Y2065744D01*
X701343Y2065820D01*
X701321Y2065989D01*
X701307Y2066160D01*
X701289Y2066234D01*
X701279Y2066309D01*
X701230Y2066473D01*
X701189Y2066639D01*
X701159Y2066708D01*
X701137Y2066782D01*
X701061Y2066935D01*
X700994Y2067092D01*
X700953Y2067156D01*
X700920Y2067225D01*
X700821Y2067364D01*
X700729Y2067508D01*
X700678Y2067565D01*
X700634Y2067627D01*
X700514Y2067748D01*
X700400Y2067876D01*
X700341Y2067924D01*
X700287Y2067978D01*
X700149Y2068079D01*
X700016Y2068186D01*
X699950Y2068223D01*
X699889Y2068268D01*
X699736Y2068345D01*
X699588Y2068430D01*
X699516Y2068456D01*
X699448Y2068491D01*
X699285Y2068542D01*
X699125Y2068601D01*
X699050Y2068616D01*
X698978Y2068639D01*
X698873Y2068651D01*
X698641Y2068696D01*
X698405Y2068703D01*
X698300Y2068715D01*
X142900Y2068715D01*
X142824Y2068709D01*
X142748Y2068711D01*
X142579Y2068689D01*
X142408Y2068675D01*
X142334Y2068657D01*
X142259Y2068647D01*
X142095Y2068598D01*
X141929Y2068557D01*
X141860Y2068527D01*
X141787Y2068505D01*
X141633Y2068429D01*
X141476Y2068362D01*
X141412Y2068321D01*
X141343Y2068288D01*
X141204Y2068189D01*
X141060Y2068097D01*
X141003Y2068046D01*
X140941Y2068002D01*
X140820Y2067882D01*
X140692Y2067768D01*
X140644Y2067709D01*
X140590Y2067655D01*
X140489Y2067517D01*
X140382Y2067384D01*
X140345Y2067318D01*
X140300Y2067257D01*
X140223Y2067104D01*
X140138Y2066956D01*
X140112Y2066884D01*
X140077Y2066816D01*
X140026Y2066653D01*
X139967Y2066493D01*
X139952Y2066418D01*
X139929Y2066346D01*
X139917Y2066241D01*
X139872Y2066009D01*
X139865Y2065773D01*
X139853Y2065668D01*
X139853Y1720168D01*
X139862Y1720054D01*
X139861Y1719940D01*
X139882Y1719809D01*
X139893Y1719676D01*
X139920Y1719566D01*
X139938Y1719453D01*
X139979Y1719326D01*
X140011Y1719197D01*
X140056Y1719093D01*
X140092Y1718984D01*
X140154Y1718866D01*
X140206Y1718744D01*
X140267Y1718648D01*
X140320Y1718546D01*
X140379Y1718473D01*
X140471Y1718328D01*
X140687Y1718086D01*
X140745Y1718013D01*
X141845Y1716913D01*
X141932Y1716839D01*
X142013Y1716758D01*
X142120Y1716680D01*
X142221Y1716594D01*
X142319Y1716535D01*
X142411Y1716468D01*
X142530Y1716408D01*
X142644Y1716339D01*
X142750Y1716297D01*
X142852Y1716245D01*
X142979Y1716205D01*
X143102Y1716156D01*
X143213Y1716131D01*
X143322Y1716097D01*
X143416Y1716087D01*
X143584Y1716049D01*
X143908Y1716031D01*
X144000Y1716021D01*
X697900Y1716021D01*
X698014Y1716030D01*
G37*
%LPC*%
G36*
X317601Y91459D02*
X317601Y91459D01*
X316259Y92801D01*
X316259Y132574D01*
X316256Y132594D01*
X316258Y132613D01*
X316236Y132715D01*
X316220Y132817D01*
X316210Y132834D01*
X316206Y132854D01*
X316153Y132943D01*
X316104Y133034D01*
X316090Y133048D01*
X316080Y133065D01*
X316001Y133132D01*
X315926Y133204D01*
X315908Y133212D01*
X315893Y133225D01*
X315797Y133264D01*
X315703Y133307D01*
X315683Y133309D01*
X315665Y133317D01*
X315498Y133335D01*
X286303Y133335D01*
X286283Y133332D01*
X286264Y133334D01*
X286162Y133312D01*
X286060Y133296D01*
X286043Y133286D01*
X286023Y133282D01*
X285934Y133229D01*
X285843Y133180D01*
X285829Y133166D01*
X285812Y133156D01*
X285745Y133077D01*
X285674Y133002D01*
X285665Y132984D01*
X285652Y132969D01*
X285613Y132873D01*
X285570Y132779D01*
X285568Y132759D01*
X285560Y132741D01*
X285542Y132574D01*
X285542Y124605D01*
X241332Y124605D01*
X241314Y124603D01*
X241296Y124605D01*
X241114Y124584D01*
X240931Y124565D01*
X240914Y124560D01*
X240897Y124558D01*
X240722Y124501D01*
X240546Y124447D01*
X240531Y124439D01*
X240514Y124433D01*
X240354Y124343D01*
X240192Y124255D01*
X240179Y124244D01*
X240163Y124235D01*
X240024Y124115D01*
X239883Y123998D01*
X239872Y123984D01*
X239858Y123972D01*
X239746Y123827D01*
X239631Y123684D01*
X239623Y123668D01*
X239612Y123654D01*
X239530Y123489D01*
X239445Y123327D01*
X239440Y123310D01*
X239432Y123294D01*
X239385Y123115D01*
X239334Y122940D01*
X239332Y122922D01*
X239328Y122905D01*
X239301Y122574D01*
X239301Y118497D01*
X237778Y114821D01*
X234965Y112008D01*
X231674Y110645D01*
X231670Y110643D01*
X231666Y110641D01*
X231493Y110548D01*
X231319Y110454D01*
X231315Y110452D01*
X231312Y110449D01*
X231163Y110325D01*
X231009Y110198D01*
X231006Y110194D01*
X231002Y110192D01*
X230880Y110039D01*
X230755Y109885D01*
X230753Y109881D01*
X230750Y109878D01*
X230659Y109703D01*
X230568Y109529D01*
X230567Y109525D01*
X230565Y109521D01*
X230510Y109331D01*
X230455Y109142D01*
X230454Y109138D01*
X230453Y109134D01*
X230437Y108935D01*
X230420Y108741D01*
X230421Y108737D01*
X230420Y108732D01*
X230443Y108538D01*
X230465Y108341D01*
X230467Y108337D01*
X230467Y108333D01*
X230528Y108147D01*
X230588Y107958D01*
X230591Y107954D01*
X230592Y107950D01*
X230689Y107777D01*
X230785Y107606D01*
X230788Y107603D01*
X230790Y107599D01*
X230918Y107450D01*
X231047Y107301D01*
X231050Y107298D01*
X231053Y107294D01*
X231208Y107174D01*
X231364Y107052D01*
X231368Y107050D01*
X231371Y107048D01*
X231549Y106959D01*
X231723Y106872D01*
X231728Y106870D01*
X231732Y106868D01*
X231841Y106839D01*
X231841Y103151D01*
X231668Y102505D01*
X231333Y101926D01*
X230860Y101453D01*
X230281Y101118D01*
X229635Y100945D01*
X225049Y100945D01*
X225049Y108454D01*
X225047Y108472D01*
X225049Y108490D01*
X225028Y108672D01*
X225009Y108855D01*
X225004Y108872D01*
X225002Y108889D01*
X224945Y109064D01*
X224891Y109240D01*
X224883Y109255D01*
X224877Y109272D01*
X224787Y109432D01*
X224699Y109594D01*
X224688Y109607D01*
X224679Y109623D01*
X224559Y109762D01*
X224442Y109903D01*
X224428Y109914D01*
X224416Y109928D01*
X224271Y110040D01*
X224128Y110155D01*
X224112Y110163D01*
X224098Y110174D01*
X223933Y110256D01*
X223771Y110341D01*
X223754Y110346D01*
X223738Y110354D01*
X223559Y110401D01*
X223384Y110452D01*
X223366Y110454D01*
X223349Y110458D01*
X223018Y110485D01*
X220582Y110485D01*
X220564Y110483D01*
X220546Y110485D01*
X220364Y110464D01*
X220181Y110445D01*
X220164Y110440D01*
X220147Y110438D01*
X219972Y110381D01*
X219796Y110327D01*
X219781Y110319D01*
X219764Y110313D01*
X219604Y110223D01*
X219442Y110135D01*
X219429Y110124D01*
X219413Y110115D01*
X219274Y109995D01*
X219133Y109878D01*
X219122Y109864D01*
X219108Y109852D01*
X218996Y109707D01*
X218881Y109564D01*
X218873Y109548D01*
X218862Y109534D01*
X218780Y109369D01*
X218695Y109207D01*
X218690Y109190D01*
X218682Y109174D01*
X218634Y108995D01*
X218584Y108820D01*
X218582Y108802D01*
X218578Y108785D01*
X218551Y108454D01*
X218551Y100945D01*
X213965Y100945D01*
X213319Y101118D01*
X212740Y101453D01*
X212267Y101926D01*
X211932Y102505D01*
X211759Y103151D01*
X211759Y106841D01*
X211934Y106895D01*
X211938Y106897D01*
X211943Y106898D01*
X212114Y106992D01*
X212288Y107086D01*
X212292Y107089D01*
X212296Y107091D01*
X212447Y107219D01*
X212598Y107344D01*
X212600Y107348D01*
X212604Y107351D01*
X212727Y107505D01*
X212850Y107658D01*
X212852Y107662D01*
X212855Y107665D01*
X212944Y107840D01*
X213035Y108015D01*
X213037Y108020D01*
X213039Y108024D01*
X213092Y108211D01*
X213147Y108402D01*
X213147Y108407D01*
X213148Y108411D01*
X213163Y108599D01*
X213180Y108803D01*
X213179Y108808D01*
X213180Y108812D01*
X213156Y109005D01*
X213133Y109203D01*
X213131Y109208D01*
X213131Y109212D01*
X213070Y109395D01*
X213008Y109586D01*
X213006Y109590D01*
X213004Y109594D01*
X212908Y109763D01*
X212810Y109937D01*
X212807Y109940D01*
X212805Y109944D01*
X212675Y110093D01*
X212547Y110241D01*
X212543Y110244D01*
X212540Y110248D01*
X212384Y110368D01*
X212229Y110488D01*
X212225Y110490D01*
X212221Y110493D01*
X211926Y110645D01*
X208635Y112008D01*
X205822Y114821D01*
X204299Y118497D01*
X204299Y125004D01*
X204297Y125022D01*
X204299Y125040D01*
X204278Y125222D01*
X204259Y125405D01*
X204254Y125422D01*
X204252Y125439D01*
X204195Y125614D01*
X204141Y125790D01*
X204133Y125805D01*
X204127Y125822D01*
X204037Y125982D01*
X203949Y126144D01*
X203938Y126157D01*
X203929Y126173D01*
X203809Y126312D01*
X203692Y126453D01*
X203678Y126464D01*
X203666Y126478D01*
X203521Y126590D01*
X203378Y126705D01*
X203362Y126713D01*
X203348Y126724D01*
X203183Y126806D01*
X203021Y126891D01*
X203004Y126896D01*
X202988Y126904D01*
X202809Y126951D01*
X202634Y127002D01*
X202616Y127004D01*
X202599Y127008D01*
X202268Y127035D01*
X193352Y127035D01*
X193325Y127033D01*
X193299Y127035D01*
X193125Y127013D01*
X192951Y126995D01*
X192926Y126988D01*
X192899Y126984D01*
X192733Y126929D01*
X192566Y126877D01*
X192543Y126864D01*
X192517Y126856D01*
X192366Y126769D01*
X192212Y126685D01*
X192192Y126668D01*
X192169Y126655D01*
X191916Y126440D01*
X190065Y124590D01*
X186389Y123067D01*
X178411Y123067D01*
X174735Y124590D01*
X171922Y127403D01*
X171147Y129273D01*
X171137Y129293D01*
X171130Y129314D01*
X171042Y129470D01*
X170957Y129628D01*
X170943Y129645D01*
X170932Y129665D01*
X170815Y129800D01*
X170700Y129939D01*
X170683Y129953D01*
X170669Y129970D01*
X170527Y130079D01*
X170388Y130192D01*
X170368Y130203D01*
X170350Y130216D01*
X170190Y130296D01*
X170031Y130379D01*
X170010Y130386D01*
X169990Y130396D01*
X169816Y130442D01*
X169645Y130492D01*
X169623Y130494D01*
X169601Y130500D01*
X169270Y130527D01*
X167065Y130527D01*
X166419Y130700D01*
X165840Y131035D01*
X165367Y131508D01*
X165032Y132087D01*
X164859Y132733D01*
X164859Y137037D01*
X168336Y137037D01*
X168354Y137038D01*
X168372Y137037D01*
X168554Y137058D01*
X168737Y137076D01*
X168754Y137082D01*
X168771Y137084D01*
X168946Y137141D01*
X169122Y137195D01*
X169137Y137203D01*
X169154Y137209D01*
X169314Y137299D01*
X169476Y137386D01*
X169489Y137398D01*
X169505Y137407D01*
X169644Y137527D01*
X169785Y137644D01*
X169796Y137658D01*
X169810Y137670D01*
X169922Y137815D01*
X170037Y137958D01*
X170045Y137974D01*
X170056Y137988D01*
X170138Y138153D01*
X170223Y138315D01*
X170228Y138332D01*
X170236Y138348D01*
X170283Y138526D01*
X170334Y138702D01*
X170336Y138720D01*
X170340Y138737D01*
X170367Y139068D01*
X170366Y139086D01*
X170367Y139103D01*
X170367Y139104D01*
X170346Y139286D01*
X170327Y139469D01*
X170322Y139486D01*
X170320Y139504D01*
X170263Y139678D01*
X170209Y139854D01*
X170201Y139869D01*
X170195Y139886D01*
X170105Y140047D01*
X170017Y140208D01*
X170006Y140221D01*
X169997Y140237D01*
X169877Y140376D01*
X169760Y140517D01*
X169746Y140528D01*
X169734Y140542D01*
X169589Y140654D01*
X169446Y140769D01*
X169430Y140778D01*
X169416Y140788D01*
X169251Y140870D01*
X169089Y140955D01*
X169072Y140960D01*
X169056Y140968D01*
X168877Y141016D01*
X168702Y141066D01*
X168684Y141068D01*
X168667Y141072D01*
X168336Y141099D01*
X164859Y141099D01*
X164859Y145403D01*
X165032Y146049D01*
X165367Y146628D01*
X165871Y147132D01*
X165882Y147146D01*
X165895Y147157D01*
X166010Y147301D01*
X166126Y147443D01*
X166134Y147459D01*
X166145Y147473D01*
X166229Y147637D01*
X166314Y147799D01*
X166319Y147816D01*
X166327Y147832D01*
X166377Y148009D01*
X166429Y148185D01*
X166431Y148203D01*
X166435Y148220D01*
X166449Y148403D01*
X166465Y148586D01*
X166463Y148604D01*
X166465Y148621D01*
X166442Y148803D01*
X166422Y148986D01*
X166417Y149003D01*
X166414Y149021D01*
X166356Y149194D01*
X166301Y149370D01*
X166292Y149386D01*
X166286Y149402D01*
X166194Y149562D01*
X166106Y149722D01*
X166094Y149736D01*
X166085Y149751D01*
X165871Y150004D01*
X165367Y150508D01*
X165032Y151087D01*
X164859Y151733D01*
X164859Y156037D01*
X168336Y156037D01*
X168354Y156038D01*
X168372Y156037D01*
X168554Y156058D01*
X168737Y156076D01*
X168754Y156082D01*
X168771Y156084D01*
X168946Y156141D01*
X169122Y156195D01*
X169137Y156203D01*
X169154Y156209D01*
X169314Y156299D01*
X169476Y156386D01*
X169489Y156398D01*
X169505Y156407D01*
X169644Y156527D01*
X169785Y156644D01*
X169796Y156658D01*
X169810Y156670D01*
X169922Y156815D01*
X170037Y156958D01*
X170045Y156974D01*
X170056Y156988D01*
X170138Y157153D01*
X170223Y157315D01*
X170228Y157332D01*
X170236Y157348D01*
X170283Y157526D01*
X170334Y157702D01*
X170336Y157720D01*
X170340Y157737D01*
X170367Y158068D01*
X170366Y158086D01*
X170367Y158103D01*
X170367Y158104D01*
X170346Y158286D01*
X170327Y158469D01*
X170322Y158486D01*
X170320Y158504D01*
X170263Y158678D01*
X170209Y158854D01*
X170201Y158869D01*
X170195Y158886D01*
X170105Y159047D01*
X170017Y159208D01*
X170006Y159221D01*
X169997Y159237D01*
X169877Y159376D01*
X169760Y159517D01*
X169746Y159528D01*
X169734Y159542D01*
X169589Y159654D01*
X169446Y159769D01*
X169430Y159778D01*
X169416Y159788D01*
X169251Y159870D01*
X169089Y159955D01*
X169072Y159960D01*
X169056Y159968D01*
X168877Y160016D01*
X168702Y160066D01*
X168684Y160068D01*
X168667Y160072D01*
X168336Y160099D01*
X164859Y160099D01*
X164859Y164403D01*
X165032Y165049D01*
X165367Y165628D01*
X165840Y166101D01*
X166419Y166436D01*
X167065Y166609D01*
X169270Y166609D01*
X169293Y166611D01*
X169315Y166609D01*
X169492Y166631D01*
X169671Y166649D01*
X169692Y166655D01*
X169715Y166658D01*
X169884Y166714D01*
X170056Y166767D01*
X170076Y166777D01*
X170097Y166784D01*
X170252Y166873D01*
X170410Y166959D01*
X170427Y166973D01*
X170447Y166984D01*
X170582Y167102D01*
X170719Y167216D01*
X170733Y167234D01*
X170750Y167248D01*
X170859Y167390D01*
X170972Y167530D01*
X170982Y167550D01*
X170995Y167568D01*
X171147Y167863D01*
X171922Y169733D01*
X174735Y172546D01*
X175007Y172659D01*
X178411Y174069D01*
X186389Y174069D01*
X190065Y172546D01*
X191916Y170696D01*
X191936Y170679D01*
X191954Y170658D01*
X192092Y170551D01*
X192227Y170441D01*
X192251Y170428D01*
X192272Y170412D01*
X192429Y170334D01*
X192583Y170252D01*
X192608Y170244D01*
X192632Y170232D01*
X192802Y170187D01*
X192969Y170137D01*
X192995Y170135D01*
X193021Y170128D01*
X193352Y170101D01*
X206748Y170101D01*
X206775Y170103D01*
X206801Y170101D01*
X206975Y170123D01*
X207149Y170141D01*
X207174Y170148D01*
X207201Y170152D01*
X207367Y170207D01*
X207534Y170259D01*
X207557Y170272D01*
X207583Y170280D01*
X207734Y170367D01*
X207888Y170451D01*
X207908Y170468D01*
X207931Y170481D01*
X208184Y170696D01*
X209735Y172246D01*
X213411Y173769D01*
X216993Y173769D01*
X217011Y173771D01*
X217029Y173769D01*
X217211Y173790D01*
X217394Y173809D01*
X217411Y173814D01*
X217428Y173816D01*
X217603Y173873D01*
X217779Y173927D01*
X217794Y173935D01*
X217811Y173941D01*
X217971Y174031D01*
X218133Y174119D01*
X218146Y174130D01*
X218162Y174139D01*
X218301Y174259D01*
X218442Y174376D01*
X218453Y174390D01*
X218467Y174402D01*
X218579Y174547D01*
X218694Y174690D01*
X218702Y174706D01*
X218713Y174720D01*
X218795Y174885D01*
X218880Y175047D01*
X218885Y175064D01*
X218893Y175080D01*
X218940Y175259D01*
X218991Y175434D01*
X218993Y175452D01*
X218997Y175469D01*
X219024Y175800D01*
X219024Y176918D01*
X219022Y176945D01*
X219024Y176971D01*
X219002Y177145D01*
X218984Y177319D01*
X218977Y177344D01*
X218973Y177371D01*
X218918Y177537D01*
X218866Y177704D01*
X218853Y177727D01*
X218845Y177753D01*
X218758Y177904D01*
X218674Y178058D01*
X218657Y178078D01*
X218644Y178101D01*
X218429Y178354D01*
X216079Y180705D01*
X214716Y183996D01*
X214714Y184000D01*
X214712Y184004D01*
X214619Y184177D01*
X214525Y184351D01*
X214523Y184355D01*
X214520Y184358D01*
X214396Y184507D01*
X214269Y184661D01*
X214265Y184664D01*
X214263Y184668D01*
X214110Y184790D01*
X213956Y184915D01*
X213952Y184917D01*
X213949Y184920D01*
X213774Y185011D01*
X213600Y185102D01*
X213596Y185103D01*
X213592Y185105D01*
X213402Y185160D01*
X213213Y185215D01*
X213209Y185216D01*
X213205Y185217D01*
X213006Y185233D01*
X212812Y185250D01*
X212808Y185249D01*
X212803Y185250D01*
X212605Y185227D01*
X212412Y185205D01*
X212408Y185203D01*
X212404Y185203D01*
X212215Y185141D01*
X212029Y185082D01*
X212025Y185079D01*
X212021Y185078D01*
X211848Y184981D01*
X211677Y184885D01*
X211674Y184882D01*
X211670Y184880D01*
X211521Y184752D01*
X211372Y184623D01*
X211369Y184620D01*
X211365Y184617D01*
X211247Y184464D01*
X211123Y184306D01*
X211121Y184302D01*
X211119Y184299D01*
X211031Y184122D01*
X210943Y183947D01*
X210941Y183942D01*
X210939Y183938D01*
X210910Y183829D01*
X207222Y183829D01*
X206576Y184002D01*
X205997Y184337D01*
X205524Y184810D01*
X205189Y185389D01*
X205016Y186035D01*
X205016Y190621D01*
X212525Y190621D01*
X212543Y190622D01*
X212561Y190621D01*
X212743Y190642D01*
X212926Y190661D01*
X212943Y190666D01*
X212960Y190668D01*
X213135Y190725D01*
X213311Y190779D01*
X213326Y190787D01*
X213343Y190793D01*
X213503Y190883D01*
X213665Y190970D01*
X213678Y190982D01*
X213694Y190991D01*
X213833Y191111D01*
X213974Y191228D01*
X213985Y191242D01*
X213999Y191254D01*
X214111Y191399D01*
X214226Y191542D01*
X214234Y191558D01*
X214245Y191572D01*
X214327Y191737D01*
X214412Y191899D01*
X214417Y191916D01*
X214425Y191932D01*
X214472Y192111D01*
X214523Y192286D01*
X214525Y192304D01*
X214529Y192321D01*
X214556Y192652D01*
X214556Y195088D01*
X214554Y195106D01*
X214556Y195124D01*
X214535Y195306D01*
X214516Y195489D01*
X214511Y195506D01*
X214509Y195523D01*
X214452Y195698D01*
X214398Y195874D01*
X214390Y195889D01*
X214384Y195906D01*
X214294Y196066D01*
X214206Y196228D01*
X214195Y196241D01*
X214186Y196257D01*
X214066Y196396D01*
X213949Y196537D01*
X213935Y196548D01*
X213923Y196562D01*
X213778Y196674D01*
X213635Y196789D01*
X213619Y196797D01*
X213605Y196808D01*
X213440Y196890D01*
X213278Y196975D01*
X213261Y196980D01*
X213245Y196988D01*
X213066Y197035D01*
X212891Y197086D01*
X212873Y197088D01*
X212856Y197092D01*
X212525Y197119D01*
X205016Y197119D01*
X205016Y201705D01*
X205189Y202351D01*
X205524Y202930D01*
X205997Y203403D01*
X206576Y203738D01*
X207222Y203911D01*
X210912Y203911D01*
X210966Y203736D01*
X210968Y203732D01*
X210969Y203727D01*
X211063Y203556D01*
X211157Y203382D01*
X211160Y203378D01*
X211162Y203374D01*
X211290Y203223D01*
X211415Y203072D01*
X211419Y203070D01*
X211422Y203066D01*
X211577Y202942D01*
X211729Y202820D01*
X211733Y202818D01*
X211736Y202815D01*
X211911Y202726D01*
X212086Y202635D01*
X212091Y202633D01*
X212095Y202631D01*
X212282Y202578D01*
X212473Y202523D01*
X212478Y202523D01*
X212482Y202522D01*
X212675Y202507D01*
X212874Y202490D01*
X212879Y202491D01*
X212883Y202490D01*
X213076Y202514D01*
X213274Y202537D01*
X213279Y202539D01*
X213283Y202539D01*
X213466Y202600D01*
X213657Y202662D01*
X213661Y202664D01*
X213665Y202666D01*
X213834Y202762D01*
X214008Y202860D01*
X214011Y202863D01*
X214015Y202865D01*
X214164Y202995D01*
X214312Y203123D01*
X214315Y203127D01*
X214319Y203130D01*
X214438Y203285D01*
X214559Y203441D01*
X214561Y203445D01*
X214564Y203449D01*
X214716Y203744D01*
X216079Y207035D01*
X218892Y209848D01*
X222282Y211252D01*
X222282Y211253D01*
X222568Y211371D01*
X239546Y211371D01*
X243222Y209848D01*
X246064Y207006D01*
X246090Y206960D01*
X246175Y206802D01*
X246189Y206785D01*
X246200Y206765D01*
X246317Y206630D01*
X246431Y206491D01*
X246449Y206477D01*
X246463Y206460D01*
X246605Y206351D01*
X246744Y206238D01*
X246764Y206227D01*
X246781Y206214D01*
X246942Y206134D01*
X247101Y206051D01*
X247122Y206044D01*
X247142Y206034D01*
X247315Y205988D01*
X247487Y205938D01*
X247509Y205936D01*
X247531Y205930D01*
X247861Y205903D01*
X447291Y205903D01*
X451714Y204071D01*
X455384Y200400D01*
X455385Y200400D01*
X493201Y162584D01*
X495033Y158161D01*
X495033Y156029D01*
X487064Y156029D01*
X487044Y156026D01*
X487025Y156028D01*
X486923Y156006D01*
X486821Y155990D01*
X486804Y155980D01*
X486784Y155976D01*
X486695Y155923D01*
X486604Y155874D01*
X486590Y155860D01*
X486573Y155850D01*
X486506Y155771D01*
X486434Y155696D01*
X486426Y155678D01*
X486413Y155663D01*
X486374Y155567D01*
X486331Y155473D01*
X486329Y155453D01*
X486321Y155435D01*
X486303Y155268D01*
X486303Y136802D01*
X486306Y136782D01*
X486304Y136763D01*
X486326Y136661D01*
X486342Y136559D01*
X486352Y136542D01*
X486356Y136522D01*
X486409Y136433D01*
X486458Y136342D01*
X486472Y136328D01*
X486482Y136311D01*
X486561Y136244D01*
X486636Y136172D01*
X486654Y136164D01*
X486669Y136151D01*
X486765Y136112D01*
X486859Y136069D01*
X486879Y136067D01*
X486897Y136059D01*
X487064Y136041D01*
X488399Y136041D01*
X489741Y134699D01*
X489741Y92801D01*
X488399Y91459D01*
X477601Y91459D01*
X476259Y92801D01*
X476259Y134699D01*
X477601Y136041D01*
X478936Y136041D01*
X478956Y136044D01*
X478975Y136042D01*
X479077Y136064D01*
X479179Y136080D01*
X479196Y136090D01*
X479216Y136094D01*
X479305Y136147D01*
X479396Y136196D01*
X479410Y136210D01*
X479427Y136220D01*
X479494Y136299D01*
X479566Y136374D01*
X479574Y136392D01*
X479587Y136407D01*
X479626Y136503D01*
X479669Y136597D01*
X479671Y136617D01*
X479679Y136635D01*
X479697Y136802D01*
X479697Y154085D01*
X479683Y154175D01*
X479675Y154266D01*
X479663Y154296D01*
X479658Y154327D01*
X479615Y154408D01*
X479579Y154492D01*
X479553Y154524D01*
X479542Y154545D01*
X479519Y154567D01*
X479474Y154623D01*
X478291Y155806D01*
X478217Y155859D01*
X478148Y155919D01*
X478117Y155931D01*
X478091Y155950D01*
X478004Y155977D01*
X477919Y156011D01*
X477878Y156015D01*
X477856Y156022D01*
X477824Y156021D01*
X477753Y156029D01*
X286303Y156029D01*
X286283Y156026D01*
X286264Y156028D01*
X286162Y156006D01*
X286060Y155990D01*
X286043Y155980D01*
X286023Y155976D01*
X285934Y155923D01*
X285843Y155874D01*
X285829Y155860D01*
X285812Y155850D01*
X285745Y155771D01*
X285674Y155696D01*
X285665Y155678D01*
X285652Y155663D01*
X285613Y155567D01*
X285570Y155473D01*
X285568Y155453D01*
X285560Y155435D01*
X285542Y155268D01*
X285542Y142734D01*
X285545Y142714D01*
X285543Y142695D01*
X285565Y142593D01*
X285582Y142491D01*
X285591Y142474D01*
X285595Y142454D01*
X285648Y142365D01*
X285697Y142274D01*
X285711Y142260D01*
X285721Y142243D01*
X285800Y142176D01*
X285875Y142104D01*
X285893Y142096D01*
X285908Y142083D01*
X286004Y142044D01*
X286098Y142001D01*
X286118Y141999D01*
X286136Y141991D01*
X286303Y141973D01*
X319965Y141973D01*
X325674Y136264D01*
X325748Y136211D01*
X325818Y136151D01*
X325848Y136139D01*
X325874Y136120D01*
X325961Y136093D01*
X326046Y136059D01*
X326087Y136055D01*
X326109Y136048D01*
X326141Y136049D01*
X326213Y136041D01*
X328399Y136041D01*
X329741Y134699D01*
X329741Y92801D01*
X328399Y91459D01*
X317601Y91459D01*
G37*
%LPD*%
%LPC*%
G36*
X357601Y91459D02*
X357601Y91459D01*
X356259Y92801D01*
X356259Y134699D01*
X357601Y136041D01*
X368399Y136041D01*
X369741Y134699D01*
X369741Y92801D01*
X368399Y91459D01*
X357601Y91459D01*
G37*
%LPD*%
%LPC*%
G36*
X397601Y91459D02*
X397601Y91459D01*
X396259Y92801D01*
X396259Y134699D01*
X397601Y136041D01*
X408399Y136041D01*
X409741Y134699D01*
X409741Y92801D01*
X408399Y91459D01*
X397601Y91459D01*
G37*
%LPD*%
%LPC*%
G36*
X337601Y67959D02*
X337601Y67959D01*
X336259Y69301D01*
X336259Y111199D01*
X337601Y112541D01*
X348399Y112541D01*
X349741Y111199D01*
X349741Y69301D01*
X348399Y67959D01*
X337601Y67959D01*
G37*
%LPD*%
%LPC*%
G36*
X377601Y67959D02*
X377601Y67959D01*
X376259Y69301D01*
X376259Y111199D01*
X377601Y112541D01*
X388399Y112541D01*
X389741Y111199D01*
X389741Y69301D01*
X388399Y67959D01*
X377601Y67959D01*
G37*
%LPD*%
%LPC*%
G36*
X417601Y67959D02*
X417601Y67959D01*
X416259Y69301D01*
X416259Y111199D01*
X417601Y112541D01*
X428399Y112541D01*
X429741Y111199D01*
X429741Y69301D01*
X428399Y67959D01*
X417601Y67959D01*
G37*
%LPD*%
%LPC*%
G36*
X497601Y67959D02*
X497601Y67959D01*
X496259Y69301D01*
X496259Y111199D01*
X497601Y112541D01*
X508399Y112541D01*
X509741Y111199D01*
X509741Y69301D01*
X508399Y67959D01*
X497601Y67959D01*
G37*
%LPD*%
%LPC*%
G36*
X305224Y91773D02*
X305224Y91773D01*
X305224Y112791D01*
X307784Y112791D01*
X308431Y112618D01*
X309010Y112283D01*
X309483Y111810D01*
X309818Y111231D01*
X309991Y110584D01*
X309991Y91773D01*
X305224Y91773D01*
G37*
%LPD*%
%LPC*%
G36*
X305224Y88727D02*
X305224Y88727D01*
X309991Y88727D01*
X309991Y83431D01*
X309991Y69916D01*
X309818Y69269D01*
X309483Y68690D01*
X309010Y68217D01*
X308431Y67882D01*
X307784Y67709D01*
X305224Y67709D01*
X305224Y88727D01*
G37*
%LPD*%
%LPC*%
G36*
X516009Y115273D02*
X516009Y115273D01*
X516009Y134084D01*
X516182Y134731D01*
X516517Y135310D01*
X516990Y135783D01*
X517569Y136118D01*
X518216Y136291D01*
X520776Y136291D01*
X520776Y115273D01*
X516009Y115273D01*
G37*
%LPD*%
%LPC*%
G36*
X517569Y91382D02*
X517569Y91382D01*
X516990Y91717D01*
X516517Y92190D01*
X516182Y92769D01*
X516009Y93416D01*
X516009Y112227D01*
X520776Y112227D01*
X520776Y91209D01*
X518216Y91209D01*
X517569Y91382D01*
G37*
%LPD*%
%LPC*%
G36*
X525224Y115974D02*
X525224Y115974D01*
X525224Y136291D01*
X527784Y136291D01*
X528431Y136118D01*
X529010Y135783D01*
X529483Y135310D01*
X529818Y134731D01*
X529991Y134084D01*
X529991Y115974D01*
X525224Y115974D01*
G37*
%LPD*%
%LPC*%
G36*
X525224Y111526D02*
X525224Y111526D01*
X529991Y111526D01*
X529991Y93416D01*
X529818Y92769D01*
X529483Y92190D01*
X529010Y91717D01*
X528431Y91382D01*
X527784Y91209D01*
X525224Y91209D01*
X525224Y111526D01*
G37*
%LPD*%
%LPC*%
G36*
X296009Y92474D02*
X296009Y92474D01*
X296009Y110584D01*
X296182Y111231D01*
X296517Y111810D01*
X296990Y112283D01*
X297569Y112618D01*
X298216Y112791D01*
X300776Y112791D01*
X300776Y92474D01*
X296009Y92474D01*
G37*
%LPD*%
%LPC*%
G36*
X298216Y67709D02*
X298216Y67709D01*
X297569Y67882D01*
X296990Y68217D01*
X296517Y68690D01*
X296182Y69269D01*
X296009Y69916D01*
X296009Y88026D01*
X300776Y88026D01*
X300776Y67709D01*
X298216Y67709D01*
G37*
%LPD*%
%LPC*%
G36*
X342674Y1579167D02*
X342674Y1579167D01*
X342674Y1583984D01*
X346835Y1583984D01*
X347481Y1583811D01*
X348060Y1583476D01*
X348533Y1583003D01*
X348868Y1582424D01*
X349041Y1581778D01*
X349041Y1579167D01*
X342674Y1579167D01*
G37*
%LPD*%
%LPC*%
G36*
X346374Y467567D02*
X346374Y467567D01*
X346374Y472384D01*
X350535Y472384D01*
X351181Y472211D01*
X351760Y471876D01*
X352233Y471403D01*
X352568Y470824D01*
X352741Y470178D01*
X352741Y467567D01*
X346374Y467567D01*
G37*
%LPD*%
%LPC*%
G36*
X331759Y1579167D02*
X331759Y1579167D01*
X331759Y1581778D01*
X331932Y1582424D01*
X332267Y1583003D01*
X332740Y1583476D01*
X333319Y1583811D01*
X333965Y1583984D01*
X338126Y1583984D01*
X338126Y1579167D01*
X331759Y1579167D01*
G37*
%LPD*%
%LPC*%
G36*
X335459Y467567D02*
X335459Y467567D01*
X335459Y470178D01*
X335632Y470824D01*
X335967Y471403D01*
X336440Y471876D01*
X337019Y472211D01*
X337665Y472384D01*
X341826Y472384D01*
X341826Y467567D01*
X335459Y467567D01*
G37*
%LPD*%
%LPC*%
G36*
X342674Y1569802D02*
X342674Y1569802D01*
X342674Y1574619D01*
X349041Y1574619D01*
X349041Y1572008D01*
X348868Y1571362D01*
X348533Y1570783D01*
X348060Y1570310D01*
X347481Y1569975D01*
X346835Y1569802D01*
X342674Y1569802D01*
G37*
%LPD*%
%LPC*%
G36*
X346374Y458202D02*
X346374Y458202D01*
X346374Y463019D01*
X352741Y463019D01*
X352741Y460408D01*
X352568Y459762D01*
X352233Y459183D01*
X351760Y458710D01*
X351181Y458375D01*
X350535Y458202D01*
X346374Y458202D01*
G37*
%LPD*%
%LPC*%
G36*
X337665Y458202D02*
X337665Y458202D01*
X337019Y458375D01*
X336440Y458710D01*
X335967Y459183D01*
X335632Y459762D01*
X335459Y460408D01*
X335459Y463019D01*
X341826Y463019D01*
X341826Y458202D01*
X337665Y458202D01*
G37*
%LPD*%
%LPC*%
G36*
X333965Y1569802D02*
X333965Y1569802D01*
X333319Y1569975D01*
X332740Y1570310D01*
X332267Y1570783D01*
X331932Y1571362D01*
X331759Y1572008D01*
X331759Y1574619D01*
X338126Y1574619D01*
X338126Y1569802D01*
X333965Y1569802D01*
G37*
%LPD*%
D10*
X169400Y158068D03*
X175900Y158068D03*
X182400Y158068D03*
X182400Y139068D03*
X169400Y139068D03*
D11*
X221800Y126986D03*
X221800Y109986D03*
D12*
X463000Y90250D03*
X423000Y90250D03*
X383000Y90250D03*
X343000Y90250D03*
X303000Y90250D03*
X323000Y113750D03*
X523000Y113750D03*
X483000Y113750D03*
X443000Y113750D03*
X403000Y113750D03*
X363000Y113750D03*
X503000Y90250D03*
D13*
X344100Y498043D03*
X344100Y465293D03*
D14*
X231057Y193870D03*
X214057Y193870D03*
D15*
X218900Y159268D03*
X231900Y159268D03*
D13*
X340400Y1609643D03*
X340400Y1576893D03*
D16*
X443000Y113750D02*
X463780Y92970D01*
X463000Y93293D01*
D17*
X463000Y90250D01*
D16*
X463000Y71073D02*
X474729Y59344D01*
X463000Y71073D02*
X463000Y90250D01*
X474729Y59344D02*
X682376Y59344D01*
X719116Y96084D01*
X719116Y577852D01*
X719516Y577452D01*
X719116Y577852D02*
X671200Y625768D01*
X633000Y625768D01*
D18*
X633000Y625768D03*
X538200Y626568D03*
X490400Y627868D03*
D16*
X388600Y627868D01*
D17*
X388200Y627468D01*
D18*
X388200Y627468D03*
X325500Y626168D03*
D16*
X260600Y626168D01*
D17*
X260100Y626668D01*
D18*
X260100Y626668D03*
X215400Y626668D03*
D16*
X535100Y626568D02*
X538200Y626568D01*
X535100Y626568D02*
X534000Y627668D01*
X490600Y627668D01*
X490400Y627868D01*
X388200Y627468D02*
X387400Y626668D01*
X326000Y626668D01*
X325500Y626168D01*
X260100Y626668D02*
X215400Y626668D01*
X719516Y577452D02*
X719516Y1684852D01*
X655800Y1748568D01*
X631400Y1748568D01*
D18*
X631400Y1748568D03*
X590500Y1748568D03*
D16*
X542300Y1748568D01*
D17*
X541100Y1749768D01*
D18*
X541100Y1749768D03*
X483000Y1750868D03*
D16*
X482600Y1751268D01*
X385100Y1751268D01*
X385000Y1751368D01*
D18*
X385000Y1751368D03*
X339600Y1749768D03*
D16*
X264900Y1749768D01*
D18*
X264900Y1749768D03*
X215000Y1750568D03*
D16*
X590500Y1748568D02*
X631400Y1748568D01*
X541100Y1749768D02*
X540000Y1750868D01*
X483000Y1750868D01*
X340100Y1750268D02*
X339600Y1749768D01*
X340100Y1750268D02*
X384100Y1750268D01*
X385100Y1751268D01*
X538200Y626568D02*
X632200Y626568D01*
D17*
X633000Y625768D01*
D19*
X221800Y109986D02*
X190082Y109986D01*
X169800Y130268D01*
X169800Y138668D02*
X169400Y139068D01*
X169800Y138668D02*
X169800Y130268D01*
X169400Y139068D02*
X169400Y158068D01*
D20*
X175900Y158068D01*
D19*
X169400Y168968D02*
X194302Y193870D01*
X169400Y168968D02*
X169400Y158068D01*
X194302Y193870D02*
X214057Y193870D01*
D18*
X272800Y32168D03*
X321700Y32268D03*
D16*
X389000Y32268D01*
D17*
X389400Y32668D01*
D18*
X389400Y32668D03*
X426100Y32668D03*
D17*
X426500Y32268D01*
D16*
X504200Y32268D02*
X505300Y31168D01*
X504200Y32268D02*
X426500Y32268D01*
D18*
X505300Y31168D03*
X548400Y32168D03*
D16*
X321600Y32168D02*
X272800Y32168D01*
D17*
X321600Y32168D02*
X321700Y32268D01*
D16*
X389400Y32668D02*
X426100Y32668D01*
D17*
X505300Y31168D02*
X506300Y32168D01*
D16*
X548400Y32168D01*
D18*
X279600Y1148168D03*
D16*
X313700Y1148168D01*
D17*
X314400Y1147468D01*
D18*
X314400Y1147468D03*
X383500Y1146668D03*
D16*
X431800Y1146668D01*
D17*
X432200Y1146268D01*
D18*
X432200Y1146268D03*
X501100Y1146768D03*
D17*
X502400Y1146768D01*
D18*
X542400Y1146768D03*
D16*
X502400Y1146768D01*
X501900Y1146268D02*
X432200Y1146268D01*
D17*
X501900Y1146268D02*
X502400Y1146768D01*
X279600Y1148168D02*
X277570Y1150198D01*
D16*
X137000Y1150198D01*
X107200Y1120398D01*
X107200Y99168D01*
X149016Y57352D01*
X260255Y57352D01*
X272800Y44807D02*
X272800Y32168D01*
X272800Y44807D02*
X260255Y57352D01*
X315200Y1146668D02*
X383500Y1146668D01*
X315200Y1146668D02*
X314400Y1147468D01*
D20*
X214163Y139068D02*
X182400Y139068D01*
X221800Y131431D02*
X221800Y126986D01*
X221800Y131431D02*
X214163Y139068D01*
D19*
X225737Y137654D02*
X318177Y137654D01*
X225737Y137654D02*
X221800Y133717D01*
X221800Y126986D01*
X323000Y132831D02*
X323000Y113750D01*
X323000Y132831D02*
X318177Y137654D01*
D20*
X231900Y159268D02*
X231057Y160111D01*
X231057Y193870D01*
X444898Y193870D01*
X483000Y155768D02*
X483000Y113750D01*
X483000Y155768D02*
X444898Y193870D01*
D16*
X344100Y549168D02*
X344600Y549668D01*
X344100Y549168D02*
X344100Y498043D01*
D18*
X344600Y549668D03*
D20*
X217700Y158068D02*
X182400Y158068D01*
D17*
X217700Y158068D02*
X218900Y159268D01*
D16*
X340600Y1609843D02*
X340600Y1663468D01*
X340600Y1609843D02*
X340400Y1609643D01*
D18*
X340600Y1663468D03*
M02*
