G04 EAGLE Gerber RS-274X export*
G75*
%MOMM*%
%FSLAX34Y34*%
%LPD*%
%INSolder stop mask SOL*%
%IPPOS*%
%AMOC8*
5,1,8,0,0,1.08239X$1,22.5*%
G01*
%ADD10R,0.603200X1.403200*%
%ADD11R,1.703200X1.503200*%
%ADD12R,1.093200X4.203200*%
%ADD13R,1.423200X1.113200*%
%ADD14R,1.503200X1.703200*%
%ADD15R,0.903200X1.103200*%
%ADD16C,0.650000*%


D10*
X169400Y158068D03*
X175900Y158068D03*
X182400Y158068D03*
X182400Y139068D03*
X169400Y139068D03*
D11*
X221800Y126986D03*
X221800Y109986D03*
D12*
X463000Y90250D03*
X423000Y90250D03*
X383000Y90250D03*
X343000Y90250D03*
X303000Y90250D03*
X323000Y113750D03*
X523000Y113750D03*
X483000Y113750D03*
X443000Y113750D03*
X403000Y113750D03*
X363000Y113750D03*
X503000Y90250D03*
D13*
X344100Y498043D03*
X344100Y465293D03*
D14*
X231057Y193870D03*
X214057Y193870D03*
D15*
X218900Y159268D03*
X231900Y159268D03*
D13*
X340400Y1609643D03*
X340400Y1576893D03*
D16*
X633000Y625768D03*
X538200Y626568D03*
X490400Y627868D03*
X388200Y627468D03*
X325500Y626168D03*
X260100Y626668D03*
X215400Y626668D03*
X631400Y1748568D03*
X590500Y1748568D03*
X541100Y1749768D03*
X483000Y1750868D03*
X385000Y1751368D03*
X339600Y1749768D03*
X264900Y1749768D03*
X215000Y1750568D03*
X272800Y32168D03*
X321700Y32268D03*
X389400Y32668D03*
X426100Y32668D03*
X505300Y31168D03*
X548400Y32168D03*
X279600Y1148168D03*
X314400Y1147468D03*
X383500Y1146668D03*
X432200Y1146268D03*
X501100Y1146768D03*
X542400Y1146768D03*
X344600Y549668D03*
X340600Y1663468D03*
M02*
